%
M48
M72
T01C0.02362
T02C0.03200
T03C0.04000
T04C0.04016
T05C0.12598
%
T01
X134300Y164300
X199300Y179300
X286800Y179300
X354300Y151800
X364300Y184300
X24300Y181800
T02
X88926Y199300
X96800Y199300
X104674Y199300
X121426Y199300
X129300Y199300
X137174Y199300
X153926Y199300
X161800Y199300
X169674Y199300
X186426Y199300
X194300Y199300
X202174Y199300
X219989Y199300
X227863Y199300
X235737Y199300
X243611Y199300
X259989Y199300
X267863Y199300
X275737Y199300
X283611Y199300
T03
X219300Y164300
X219300Y154300
X219300Y144300
X219300Y134300
X219300Y124300
X219300Y114300
X219300Y104300
X219300Y94300
X219300Y84300
X219300Y74300
X219300Y64300
X219300Y54300
X219300Y44300
X219300Y34300
X219300Y24300
X259300Y21800
X259300Y31800
X259300Y41800
X259300Y51800
X259300Y61800
X259300Y71800
X259300Y81800
X259300Y91800
X309300Y91800
X309300Y81800
X309300Y71800
X309300Y61800
X309300Y51800
X309300Y41800
X309300Y31800
X309300Y21800
X159300Y24300
X159300Y34300
X159300Y44300
X159300Y54300
X159300Y64300
X159300Y74300
X159300Y84300
X159300Y94300
X159300Y104300
X159300Y114300
X159300Y124300
X159300Y134300
X159300Y144300
X159300Y154300
X159300Y164300
X119300Y91800
X119300Y81800
X119300Y71800
X119300Y61800
X119300Y51800
X119300Y41800
X119300Y31800
X119300Y21800
X69300Y21800
X69300Y31800
X69300Y41800
X69300Y51800
X69300Y61800
X69300Y71800
X69300Y81800
X69300Y91800
X46800Y59300
X36800Y59300
X26800Y59300
X16800Y59300
T04
X25894Y96800
X37706Y96800
X37706Y108611
X25894Y108611
X112489Y115894
X124300Y115894
X124300Y127706
X112489Y127706
X252489Y127706
X264300Y127706
X264300Y115894
X252489Y115894
T05
X16800Y14300
X189300Y159300
X361800Y14300
M30
