G75*
%MOIN*%
%OFA0B0*%
%FSLAX25Y25*%
%IPPOS*%
%LPD*%
%AMOC8*
5,1,8,0,0,1.08239X$1,22.5*
%
%ADD10C,0.00800*%
%ADD11R,0.04331X0.07874*%
%ADD12R,0.09646X0.03937*%
%ADD13R,0.03937X0.09646*%
%ADD14R,0.11811X0.04724*%
%ADD15R,0.10236X0.06299*%
%ADD16R,0.04252X0.04134*%
%ADD17R,0.06299X0.10236*%
%ADD18C,0.06000*%
%ADD19R,0.06024X0.06024*%
%ADD20C,0.06024*%
%ADD21R,0.04800X0.04800*%
%ADD22C,0.04800*%
%ADD23R,0.03937X0.04331*%
%ADD24R,0.03150X0.03150*%
%ADD25C,0.01600*%
%ADD26C,0.05000*%
%ADD27C,0.03200*%
%ADD28C,0.02400*%
%ADD29C,0.04000*%
%ADD30C,0.01200*%
%ADD31C,0.03962*%
D10*
X0349692Y0025468D02*
X0352761Y0028537D01*
X0349692Y0031606D01*
X0358900Y0031606D01*
X0358900Y0034676D02*
X0358900Y0037745D01*
X0358900Y0036210D02*
X0349692Y0036210D01*
X0349692Y0034676D02*
X0349692Y0037745D01*
X0349692Y0040814D02*
X0358900Y0046953D01*
X0349692Y0046953D01*
X0349692Y0050022D02*
X0349692Y0053091D01*
X0349692Y0051557D02*
X0358900Y0051557D01*
X0358900Y0053091D02*
X0358900Y0050022D01*
X0358900Y0040814D02*
X0349692Y0040814D01*
X0349692Y0025468D02*
X0358900Y0025468D01*
X0358900Y0065368D02*
X0349692Y0065368D01*
X0349692Y0069972D01*
X0351227Y0071507D01*
X0354296Y0071507D01*
X0355831Y0069972D01*
X0355831Y0065368D01*
X0355831Y0068438D02*
X0358900Y0071507D01*
X0358900Y0077646D02*
X0354296Y0077646D01*
X0351227Y0080715D01*
X0349692Y0080715D01*
X0354296Y0077646D02*
X0351227Y0074576D01*
X0349692Y0074576D01*
X0351227Y0083784D02*
X0349692Y0085319D01*
X0349692Y0088388D01*
X0351227Y0089923D01*
X0352761Y0089923D01*
X0355831Y0086853D01*
X0357365Y0086853D02*
X0358900Y0086853D01*
D11*
X0120993Y0166426D03*
X0107607Y0166426D03*
X0107607Y0182174D03*
X0120993Y0182174D03*
D12*
X0299103Y0184851D03*
X0299103Y0190363D03*
X0299103Y0195875D03*
X0299103Y0201387D03*
X0299103Y0179339D03*
X0299103Y0173828D03*
X0299103Y0168316D03*
X0299103Y0162804D03*
X0349497Y0162804D03*
X0349497Y0168316D03*
X0349497Y0173828D03*
X0349497Y0179339D03*
X0349497Y0184851D03*
X0349497Y0190363D03*
X0349497Y0195875D03*
X0349497Y0201387D03*
D13*
X0343591Y0153769D03*
X0338080Y0153769D03*
X0332568Y0153769D03*
X0327056Y0153769D03*
X0321544Y0153769D03*
X0316032Y0153769D03*
X0310520Y0153769D03*
X0305009Y0153769D03*
D14*
X0073690Y0149891D03*
X0073690Y0142017D03*
X0073690Y0157765D03*
X0073690Y0165639D03*
X0073690Y0173513D03*
X0073690Y0181387D03*
X0073690Y0189261D03*
X0073690Y0197135D03*
X0009123Y0197135D03*
X0009123Y0189261D03*
X0009123Y0181387D03*
X0009123Y0173513D03*
X0009123Y0165639D03*
X0009123Y0157765D03*
X0009123Y0149891D03*
X0009123Y0142017D03*
D15*
X0067213Y0121800D03*
X0081387Y0121800D03*
X0314713Y0109300D03*
X0328887Y0109300D03*
D16*
X0129300Y0170855D03*
X0129300Y0177745D03*
D17*
X0086800Y0031387D03*
X0086800Y0017213D03*
D18*
X0072300Y0021800D02*
X0066300Y0021800D01*
X0066300Y0031800D02*
X0072300Y0031800D01*
X0072300Y0041800D02*
X0066300Y0041800D01*
X0066300Y0051800D02*
X0072300Y0051800D01*
X0072300Y0061800D02*
X0066300Y0061800D01*
X0066300Y0071800D02*
X0072300Y0071800D01*
X0072300Y0081800D02*
X0066300Y0081800D01*
X0066300Y0091800D02*
X0072300Y0091800D01*
X0116300Y0091800D02*
X0122300Y0091800D01*
X0122300Y0081800D02*
X0116300Y0081800D01*
X0116300Y0071800D02*
X0122300Y0071800D01*
X0122300Y0061800D02*
X0116300Y0061800D01*
X0116300Y0051800D02*
X0122300Y0051800D01*
X0122300Y0041800D02*
X0116300Y0041800D01*
X0116300Y0031800D02*
X0122300Y0031800D01*
X0122300Y0021800D02*
X0116300Y0021800D01*
X0156300Y0024300D02*
X0162300Y0024300D01*
X0162300Y0034300D02*
X0156300Y0034300D01*
X0156300Y0044300D02*
X0162300Y0044300D01*
X0162300Y0054300D02*
X0156300Y0054300D01*
X0156300Y0064300D02*
X0162300Y0064300D01*
X0162300Y0074300D02*
X0156300Y0074300D01*
X0156300Y0084300D02*
X0162300Y0084300D01*
X0162300Y0094300D02*
X0156300Y0094300D01*
X0156300Y0104300D02*
X0162300Y0104300D01*
X0162300Y0114300D02*
X0156300Y0114300D01*
X0156300Y0124300D02*
X0162300Y0124300D01*
X0162300Y0134300D02*
X0156300Y0134300D01*
X0156300Y0144300D02*
X0162300Y0144300D01*
X0162300Y0154300D02*
X0156300Y0154300D01*
X0156300Y0164300D02*
X0162300Y0164300D01*
X0216300Y0164300D02*
X0222300Y0164300D01*
X0222300Y0154300D02*
X0216300Y0154300D01*
X0216300Y0144300D02*
X0222300Y0144300D01*
X0222300Y0134300D02*
X0216300Y0134300D01*
X0216300Y0124300D02*
X0222300Y0124300D01*
X0222300Y0114300D02*
X0216300Y0114300D01*
X0216300Y0104300D02*
X0222300Y0104300D01*
X0222300Y0094300D02*
X0216300Y0094300D01*
X0216300Y0084300D02*
X0222300Y0084300D01*
X0222300Y0074300D02*
X0216300Y0074300D01*
X0216300Y0064300D02*
X0222300Y0064300D01*
X0222300Y0054300D02*
X0216300Y0054300D01*
X0216300Y0044300D02*
X0222300Y0044300D01*
X0222300Y0034300D02*
X0216300Y0034300D01*
X0216300Y0024300D02*
X0222300Y0024300D01*
X0256300Y0021800D02*
X0262300Y0021800D01*
X0262300Y0031800D02*
X0256300Y0031800D01*
X0256300Y0041800D02*
X0262300Y0041800D01*
X0262300Y0051800D02*
X0256300Y0051800D01*
X0256300Y0061800D02*
X0262300Y0061800D01*
X0262300Y0071800D02*
X0256300Y0071800D01*
X0256300Y0081800D02*
X0262300Y0081800D01*
X0262300Y0091800D02*
X0256300Y0091800D01*
X0306300Y0091800D02*
X0312300Y0091800D01*
X0312300Y0081800D02*
X0306300Y0081800D01*
X0306300Y0071800D02*
X0312300Y0071800D01*
X0312300Y0061800D02*
X0306300Y0061800D01*
X0306300Y0051800D02*
X0312300Y0051800D01*
X0312300Y0041800D02*
X0306300Y0041800D01*
X0306300Y0031800D02*
X0312300Y0031800D01*
X0312300Y0021800D02*
X0306300Y0021800D01*
X0046800Y0056300D02*
X0046800Y0062300D01*
X0036800Y0062300D02*
X0036800Y0056300D01*
X0026800Y0056300D02*
X0026800Y0062300D01*
X0016800Y0062300D02*
X0016800Y0056300D01*
D19*
X0037706Y0096800D03*
X0124300Y0127706D03*
X0264300Y0127706D03*
D20*
X0252489Y0127706D03*
X0252489Y0115894D03*
X0264300Y0115894D03*
X0124300Y0115894D03*
X0112489Y0115894D03*
X0112489Y0127706D03*
X0037706Y0108611D03*
X0025894Y0108611D03*
X0025894Y0096800D03*
D21*
X0104674Y0199300D03*
X0137174Y0199300D03*
X0169674Y0199300D03*
X0202174Y0199300D03*
X0243611Y0199300D03*
X0283611Y0199300D03*
D22*
X0275737Y0199300D03*
X0267863Y0199300D03*
X0259989Y0199300D03*
X0235737Y0199300D03*
X0227863Y0199300D03*
X0219989Y0199300D03*
X0194300Y0199300D03*
X0186426Y0199300D03*
X0161800Y0199300D03*
X0153926Y0199300D03*
X0129300Y0199300D03*
X0121426Y0199300D03*
X0096800Y0199300D03*
X0088926Y0199300D03*
D23*
X0243454Y0081800D03*
X0250146Y0081800D03*
X0250146Y0071800D03*
X0243454Y0071800D03*
X0243454Y0061800D03*
X0250146Y0061800D03*
X0135146Y0051800D03*
X0128454Y0051800D03*
X0128454Y0041800D03*
X0135146Y0041800D03*
X0135146Y0031800D03*
X0128454Y0031800D03*
X0313454Y0141800D03*
X0320146Y0141800D03*
X0328454Y0141800D03*
X0335146Y0141800D03*
X0360954Y0201800D03*
X0367646Y0201800D03*
D24*
X0334753Y0134300D03*
X0328847Y0134300D03*
X0319753Y0134300D03*
X0313847Y0134300D03*
D25*
X0304300Y0124300D02*
X0351800Y0124300D01*
X0361800Y0134300D01*
X0361800Y0161800D01*
X0355284Y0168316D01*
X0349497Y0168316D01*
X0349497Y0173828D02*
X0357272Y0173828D01*
X0364300Y0166800D01*
X0364300Y0131800D01*
X0354300Y0121800D01*
X0301800Y0121800D01*
X0281800Y0141800D01*
X0244300Y0141800D01*
X0231800Y0129300D01*
X0231800Y0114300D01*
X0221800Y0104300D01*
X0219300Y0104300D01*
X0219300Y0094300D02*
X0221800Y0094300D01*
X0234300Y0106800D01*
X0234300Y0126800D01*
X0246800Y0139300D01*
X0279300Y0139300D01*
X0299300Y0119300D01*
X0356800Y0119300D01*
X0366800Y0129300D01*
X0366800Y0171800D01*
X0359261Y0179339D01*
X0349497Y0179339D01*
X0348946Y0184300D02*
X0341800Y0184300D01*
X0341800Y0194300D01*
X0343375Y0195875D01*
X0349497Y0195875D01*
X0349497Y0201387D01*
X0360540Y0201387D01*
X0360954Y0201800D01*
X0367646Y0201800D02*
X0369723Y0199723D01*
X0360363Y0190363D01*
X0349497Y0190363D01*
X0349497Y0184851D02*
X0348946Y0184300D01*
X0341800Y0184300D02*
X0336800Y0179300D01*
X0336800Y0164300D01*
X0306800Y0164300D01*
X0299103Y0168316D02*
X0299103Y0173828D01*
X0299103Y0179339D01*
X0299103Y0190363D02*
X0287863Y0190363D01*
X0271800Y0174300D01*
X0271800Y0151800D01*
X0266800Y0146800D01*
X0239300Y0146800D01*
X0226800Y0134300D01*
X0226800Y0129300D01*
X0221800Y0124300D01*
X0219300Y0124300D01*
X0229300Y0121800D02*
X0229300Y0131800D01*
X0241800Y0144300D01*
X0284300Y0144300D01*
X0304300Y0124300D01*
X0296800Y0116800D02*
X0359300Y0116800D01*
X0369300Y0126800D01*
X0369300Y0179300D01*
X0364300Y0184300D01*
X0371800Y0197646D02*
X0369723Y0199723D01*
X0371800Y0197646D02*
X0371800Y0124300D01*
X0361800Y0114300D01*
X0294300Y0114300D01*
X0274300Y0134300D01*
X0251800Y0134300D01*
X0239300Y0121800D01*
X0239300Y0091800D01*
X0221800Y0074300D01*
X0219300Y0074300D01*
X0219300Y0064300D02*
X0234300Y0064300D01*
X0239300Y0069300D01*
X0239300Y0086800D01*
X0244300Y0091800D01*
X0259300Y0091800D01*
X0259300Y0081800D02*
X0250146Y0081800D01*
X0243454Y0081800D02*
X0243454Y0071800D01*
X0243454Y0061800D01*
X0244300Y0060954D01*
X0244300Y0059300D01*
X0211800Y0059300D01*
X0181800Y0029300D01*
X0151800Y0029300D01*
X0135146Y0045954D01*
X0135146Y0051800D01*
X0135146Y0041800D01*
X0135146Y0031800D01*
X0128454Y0031800D02*
X0119300Y0031800D01*
X0119300Y0021800D02*
X0149300Y0021800D01*
X0151800Y0024300D01*
X0159300Y0024300D01*
X0159300Y0034300D02*
X0154300Y0034300D01*
X0139300Y0049300D01*
X0139300Y0061800D01*
X0119300Y0081800D01*
X0119300Y0071800D02*
X0119300Y0061800D01*
X0126800Y0061800D01*
X0134300Y0054300D01*
X0134300Y0052646D01*
X0135146Y0051800D01*
X0128454Y0051800D02*
X0119300Y0051800D01*
X0119300Y0041800D02*
X0128454Y0041800D01*
X0144300Y0049300D02*
X0144300Y0066800D01*
X0119300Y0091800D01*
X0159300Y0124300D02*
X0164300Y0124300D01*
X0171800Y0131800D01*
X0171800Y0169300D01*
X0166800Y0174300D01*
X0151800Y0174300D01*
X0136800Y0159300D01*
X0126800Y0159300D01*
X0121800Y0164300D01*
X0121800Y0165619D01*
X0120993Y0166426D01*
X0106800Y0156800D02*
X0091800Y0171800D01*
X0091800Y0186800D01*
X0081465Y0197135D01*
X0073690Y0197135D01*
X0073729Y0189300D02*
X0073690Y0189261D01*
X0073729Y0189300D02*
X0081800Y0189300D01*
X0086800Y0184300D01*
X0086800Y0171800D01*
X0104300Y0154300D01*
X0141800Y0154300D01*
X0151800Y0164300D01*
X0159300Y0164300D01*
X0164300Y0171800D02*
X0169300Y0166800D01*
X0169300Y0159300D01*
X0164300Y0154300D01*
X0159300Y0154300D01*
X0154300Y0171800D02*
X0139300Y0156800D01*
X0106800Y0156800D01*
X0154300Y0171800D02*
X0164300Y0171800D01*
X0236800Y0124300D02*
X0249300Y0136800D01*
X0276800Y0136800D01*
X0296800Y0116800D01*
X0343591Y0153769D02*
X0343591Y0157509D01*
X0336800Y0164300D01*
X0349300Y0162607D02*
X0349300Y0156800D01*
X0354300Y0151800D01*
X0349300Y0162607D02*
X0349497Y0162804D01*
X0236800Y0124300D02*
X0236800Y0099300D01*
X0221800Y0084300D01*
X0219300Y0084300D01*
X0250146Y0071800D02*
X0259300Y0071800D01*
X0259300Y0061800D02*
X0250146Y0061800D01*
X0244300Y0059300D02*
X0251800Y0051800D01*
X0259300Y0051800D01*
X0259300Y0041800D01*
X0259300Y0031800D02*
X0249300Y0031800D01*
X0226800Y0054300D01*
X0219300Y0054300D01*
X0219300Y0024300D02*
X0249300Y0024300D01*
X0251800Y0021800D01*
X0259300Y0021800D01*
X0159300Y0044300D02*
X0149300Y0044300D01*
X0144300Y0049300D01*
X0219300Y0114300D02*
X0221800Y0114300D01*
X0229300Y0121800D01*
X0024300Y0181800D02*
X0009536Y0181800D01*
X0009123Y0181387D01*
D26*
X0079300Y0099300D02*
X0106800Y0126800D01*
X0111583Y0126800D01*
X0112489Y0127706D01*
X0124300Y0127706D02*
X0131800Y0120206D01*
X0131800Y0111800D01*
X0121800Y0101800D01*
X0111800Y0101800D01*
X0101800Y0091800D01*
X0101800Y0066800D01*
X0076800Y0041800D01*
X0069300Y0041800D01*
X0069300Y0031800D02*
X0086387Y0031800D01*
X0086800Y0031387D01*
X0103887Y0014300D01*
X0309300Y0014300D01*
X0309300Y0021800D01*
X0309300Y0014300D02*
X0316800Y0014300D01*
X0319300Y0016800D01*
X0319300Y0079300D01*
X0316800Y0081800D01*
X0309300Y0081800D01*
X0304300Y0081800D01*
X0299300Y0086800D01*
X0299300Y0101800D01*
X0306800Y0109300D01*
X0314713Y0109300D01*
X0328887Y0109300D02*
X0328887Y0103887D01*
X0316800Y0091800D01*
X0326800Y0081800D01*
X0326800Y0014300D01*
X0319300Y0006800D01*
X0097213Y0006800D01*
X0086800Y0017213D01*
X0082213Y0021800D01*
X0069300Y0021800D01*
X0041800Y0021800D01*
X0026800Y0036800D01*
X0026800Y0059300D01*
X0026800Y0069300D01*
X0025894Y0070206D01*
X0025894Y0096800D01*
X0025894Y0108611D01*
X0037706Y0108611D02*
X0037706Y0096800D01*
X0036800Y0095894D01*
X0036800Y0059300D01*
X0036800Y0039300D01*
X0044300Y0031800D01*
X0069300Y0031800D01*
X0069300Y0051800D02*
X0076800Y0051800D01*
X0094300Y0069300D01*
X0094300Y0094300D01*
X0109300Y0109300D01*
X0119300Y0109300D01*
X0124300Y0114300D01*
X0124300Y0115894D01*
X0112489Y0115894D02*
X0111583Y0116800D01*
X0106800Y0116800D01*
X0086800Y0096800D01*
X0086800Y0071800D01*
X0076800Y0061800D01*
X0069300Y0061800D01*
X0069300Y0071800D02*
X0076800Y0071800D01*
X0079300Y0074300D01*
X0079300Y0099300D01*
X0244300Y0111800D02*
X0244300Y0119517D01*
X0252489Y0127706D01*
X0264300Y0127706D02*
X0268394Y0124300D01*
X0274300Y0124300D01*
X0291800Y0106800D01*
X0291800Y0084300D01*
X0304300Y0071800D01*
X0309300Y0071800D01*
X0309300Y0061800D02*
X0304300Y0061800D01*
X0284300Y0081800D01*
X0284300Y0104300D01*
X0274300Y0114300D01*
X0265206Y0114300D01*
X0264300Y0115894D01*
X0261583Y0106800D02*
X0252489Y0115894D01*
X0244300Y0111800D02*
X0256800Y0099300D01*
X0269300Y0099300D01*
X0269300Y0076800D01*
X0304300Y0041800D01*
X0309300Y0041800D01*
X0309300Y0051800D02*
X0304300Y0051800D01*
X0276800Y0079300D01*
X0276800Y0101800D01*
X0271800Y0106800D01*
X0261583Y0106800D01*
X0309300Y0091800D02*
X0316800Y0091800D01*
D27*
X0261800Y0154300D02*
X0266800Y0159300D01*
X0266800Y0176800D01*
X0283611Y0193611D01*
X0283611Y0199300D01*
X0283611Y0204989D01*
X0281800Y0206800D01*
X0244300Y0206800D01*
X0243611Y0206111D01*
X0243611Y0199300D01*
X0244300Y0206800D02*
X0201800Y0206800D01*
X0202174Y0206426D01*
X0202174Y0199300D01*
X0209300Y0194300D02*
X0209300Y0139300D01*
X0214300Y0134300D01*
X0219300Y0134300D01*
X0219300Y0154300D02*
X0261800Y0154300D01*
X0256800Y0194300D02*
X0219300Y0194300D01*
X0219989Y0194989D01*
X0219989Y0199300D01*
X0219300Y0194300D02*
X0209300Y0194300D01*
X0186800Y0194300D01*
X0186426Y0194674D01*
X0186426Y0199300D01*
X0186800Y0194300D02*
X0154300Y0194300D01*
X0133119Y0194300D01*
X0120993Y0182174D01*
X0124871Y0182174D01*
X0129300Y0177745D01*
X0126426Y0194300D02*
X0121426Y0199300D01*
X0126426Y0194300D02*
X0133119Y0194300D01*
X0137174Y0199300D02*
X0137174Y0206426D01*
X0136800Y0206800D01*
X0106800Y0206800D01*
X0104674Y0204674D01*
X0104674Y0199300D01*
X0088926Y0199300D02*
X0081426Y0206800D01*
X0066800Y0206800D01*
X0061800Y0201800D01*
X0061800Y0136800D01*
X0067213Y0131387D01*
X0067213Y0121800D01*
X0153926Y0194674D02*
X0154300Y0194300D01*
X0153926Y0194674D02*
X0153926Y0199300D01*
X0169674Y0199300D02*
X0169674Y0206426D01*
X0169300Y0206800D01*
X0136800Y0206800D01*
X0169300Y0206800D02*
X0201800Y0206800D01*
X0256800Y0194300D02*
X0259989Y0197489D01*
X0259989Y0199300D01*
D28*
X0281800Y0206800D02*
X0304300Y0206800D01*
X0306800Y0204300D01*
X0306800Y0164300D01*
X0305304Y0162804D01*
X0299103Y0162804D01*
X0296800Y0160501D01*
X0296800Y0139300D01*
X0306800Y0129300D01*
X0319300Y0129300D01*
X0319753Y0129753D01*
X0319753Y0134300D01*
X0328847Y0134300D01*
X0334753Y0134300D02*
X0335146Y0134694D01*
X0335146Y0141800D01*
X0328454Y0141800D02*
X0327056Y0143198D01*
X0327056Y0153769D01*
X0321544Y0153769D02*
X0321544Y0143198D01*
X0320146Y0141800D01*
X0313454Y0141800D02*
X0313454Y0134694D01*
X0313847Y0134300D01*
X0299064Y0179300D02*
X0286800Y0179300D01*
X0299064Y0179300D02*
X0299103Y0179339D01*
X0199300Y0179300D02*
X0149300Y0179300D01*
X0134300Y0164300D01*
X0129300Y0170855D02*
X0127745Y0170855D01*
X0124300Y0174300D01*
X0111800Y0174300D01*
X0106800Y0169300D01*
X0106800Y0167233D01*
X0107607Y0166426D01*
X0099300Y0174733D01*
X0099300Y0186800D01*
X0104674Y0192174D01*
X0104674Y0199300D01*
X0146800Y0134300D02*
X0136800Y0124300D01*
X0136800Y0109300D01*
X0124300Y0096800D01*
X0114300Y0096800D01*
X0106800Y0089300D01*
X0106800Y0051387D01*
X0086800Y0031387D01*
X0146800Y0134300D02*
X0159300Y0134300D01*
D29*
X0081387Y0134320D02*
X0081387Y0121800D01*
X0079300Y0119713D01*
X0079300Y0111800D01*
X0069300Y0101800D01*
X0069300Y0091800D01*
X0066800Y0111800D02*
X0046800Y0091800D01*
X0046800Y0059300D01*
X0066800Y0111800D02*
X0066800Y0121387D01*
X0067213Y0121800D01*
X0029339Y0121800D01*
X0009123Y0142017D01*
X0073690Y0142017D02*
X0081387Y0134320D01*
D30*
X0003600Y0137854D02*
X0003600Y0003600D01*
X0094332Y0003600D01*
X0087637Y0010295D01*
X0082905Y0010295D01*
X0081850Y0011350D01*
X0081850Y0016082D01*
X0080432Y0017500D01*
X0074462Y0017500D01*
X0073255Y0017000D01*
X0065345Y0017000D01*
X0064138Y0017500D01*
X0040945Y0017500D01*
X0039364Y0018155D01*
X0038155Y0019364D01*
X0038155Y0019364D01*
X0024364Y0033155D01*
X0024364Y0033155D01*
X0023155Y0034364D01*
X0022500Y0035945D01*
X0022500Y0054138D01*
X0022000Y0055345D01*
X0022000Y0063255D01*
X0022500Y0064462D01*
X0022500Y0067519D01*
X0022249Y0067770D01*
X0021594Y0069350D01*
X0021594Y0094607D01*
X0021083Y0095843D01*
X0021083Y0097757D01*
X0021594Y0098993D01*
X0021594Y0106418D01*
X0021083Y0107654D01*
X0021083Y0109568D01*
X0021815Y0111337D01*
X0023169Y0112690D01*
X0024937Y0113423D01*
X0026852Y0113423D01*
X0028620Y0112690D01*
X0029974Y0111337D01*
X0030706Y0109568D01*
X0030706Y0107654D01*
X0030194Y0106418D01*
X0030194Y0098993D01*
X0030706Y0097757D01*
X0030706Y0095843D01*
X0030194Y0094607D01*
X0030194Y0071987D01*
X0030445Y0071736D01*
X0031100Y0070155D01*
X0031100Y0064462D01*
X0031600Y0063255D01*
X0031600Y0055345D01*
X0031100Y0054138D01*
X0031100Y0038581D01*
X0043581Y0026100D01*
X0064138Y0026100D01*
X0065345Y0026600D01*
X0073255Y0026600D01*
X0074462Y0026100D01*
X0082050Y0026100D01*
X0082050Y0030787D01*
X0086200Y0030787D01*
X0086200Y0031987D01*
X0086200Y0038105D01*
X0083440Y0038105D01*
X0083033Y0037996D01*
X0082668Y0037785D01*
X0082370Y0037487D01*
X0082159Y0037122D01*
X0082050Y0036715D01*
X0082050Y0031987D01*
X0086200Y0031987D01*
X0087400Y0031987D01*
X0087400Y0038105D01*
X0090160Y0038105D01*
X0090567Y0037996D01*
X0090932Y0037785D01*
X0091230Y0037487D01*
X0091441Y0037122D01*
X0091550Y0036715D01*
X0091550Y0031987D01*
X0087400Y0031987D01*
X0087400Y0030787D01*
X0091550Y0030787D01*
X0091550Y0026058D01*
X0091441Y0025651D01*
X0091230Y0025286D01*
X0090932Y0024988D01*
X0090567Y0024778D01*
X0090160Y0024669D01*
X0087400Y0024669D01*
X0087400Y0030787D01*
X0086200Y0030787D01*
X0086200Y0024669D01*
X0085426Y0024669D01*
X0085963Y0024131D01*
X0090695Y0024131D01*
X0091750Y0023077D01*
X0091750Y0018345D01*
X0098995Y0011100D01*
X0317519Y0011100D01*
X0322500Y0016081D01*
X0322500Y0080019D01*
X0315019Y0087500D01*
X0314462Y0087500D01*
X0313255Y0087000D01*
X0305345Y0087000D01*
X0303581Y0087731D01*
X0302231Y0089081D01*
X0301500Y0090845D01*
X0301500Y0092755D01*
X0302231Y0094519D01*
X0303581Y0095869D01*
X0305345Y0096600D01*
X0313255Y0096600D01*
X0314462Y0096100D01*
X0315019Y0096100D01*
X0323269Y0104350D01*
X0323023Y0104350D01*
X0321969Y0105405D01*
X0321969Y0111700D01*
X0321431Y0111700D01*
X0321431Y0109900D01*
X0315313Y0109900D01*
X0315313Y0108700D01*
X0315313Y0104550D01*
X0320042Y0104550D01*
X0320449Y0104659D01*
X0320814Y0104870D01*
X0321112Y0105168D01*
X0321322Y0105533D01*
X0321431Y0105940D01*
X0321431Y0108700D01*
X0315313Y0108700D01*
X0314113Y0108700D01*
X0307995Y0108700D01*
X0307995Y0105940D01*
X0308104Y0105533D01*
X0308315Y0105168D01*
X0308613Y0104870D01*
X0308978Y0104659D01*
X0309385Y0104550D01*
X0314113Y0104550D01*
X0314113Y0108700D01*
X0314113Y0109900D01*
X0307995Y0109900D01*
X0307995Y0111700D01*
X0293783Y0111700D01*
X0292827Y0112096D01*
X0292096Y0112827D01*
X0273223Y0131700D01*
X0268875Y0131700D01*
X0269112Y0131463D01*
X0269112Y0129296D01*
X0269949Y0128600D01*
X0275155Y0128600D01*
X0276736Y0127945D01*
X0277945Y0126736D01*
X0295445Y0109236D01*
X0296100Y0107655D01*
X0296100Y0086081D01*
X0301984Y0080197D01*
X0301813Y0080723D01*
X0301706Y0081400D01*
X0308900Y0081400D01*
X0308900Y0082200D01*
X0308900Y0086400D01*
X0305938Y0086400D01*
X0305223Y0086287D01*
X0304534Y0086063D01*
X0303889Y0085734D01*
X0303303Y0085309D01*
X0302791Y0084797D01*
X0302366Y0084211D01*
X0302037Y0083566D01*
X0301813Y0082877D01*
X0301706Y0082200D01*
X0308900Y0082200D01*
X0309700Y0082200D01*
X0309700Y0086400D01*
X0312662Y0086400D01*
X0313377Y0086287D01*
X0314066Y0086063D01*
X0314711Y0085734D01*
X0315297Y0085309D01*
X0315809Y0084797D01*
X0316234Y0084211D01*
X0316563Y0083566D01*
X0316787Y0082877D01*
X0316894Y0082200D01*
X0309700Y0082200D01*
X0309700Y0081400D01*
X0316894Y0081400D01*
X0316787Y0080723D01*
X0316563Y0080034D01*
X0316234Y0079389D01*
X0315809Y0078803D01*
X0315297Y0078291D01*
X0314711Y0077866D01*
X0314066Y0077537D01*
X0313377Y0077313D01*
X0312662Y0077200D01*
X0309700Y0077200D01*
X0309700Y0081400D01*
X0308900Y0081400D01*
X0308900Y0077200D01*
X0305938Y0077200D01*
X0305223Y0077313D01*
X0304697Y0077484D01*
X0305581Y0076600D01*
X0313255Y0076600D01*
X0315019Y0075869D01*
X0316369Y0074519D01*
X0317100Y0072755D01*
X0317100Y0070845D01*
X0316369Y0069081D01*
X0315019Y0067731D01*
X0313255Y0067000D01*
X0305345Y0067000D01*
X0305065Y0067116D01*
X0305581Y0066600D01*
X0313255Y0066600D01*
X0315019Y0065869D01*
X0316369Y0064519D01*
X0317100Y0062755D01*
X0317100Y0060845D01*
X0316369Y0059081D01*
X0315019Y0057731D01*
X0313255Y0057000D01*
X0305345Y0057000D01*
X0305065Y0057116D01*
X0305581Y0056600D01*
X0313255Y0056600D01*
X0315019Y0055869D01*
X0316369Y0054519D01*
X0317100Y0052755D01*
X0317100Y0050845D01*
X0316369Y0049081D01*
X0315019Y0047731D01*
X0313255Y0047000D01*
X0305345Y0047000D01*
X0305065Y0047116D01*
X0305581Y0046600D01*
X0313255Y0046600D01*
X0315019Y0045869D01*
X0316369Y0044519D01*
X0317100Y0042755D01*
X0317100Y0040845D01*
X0316369Y0039081D01*
X0315019Y0037731D01*
X0313255Y0037000D01*
X0305345Y0037000D01*
X0304138Y0037500D01*
X0303445Y0037500D01*
X0301864Y0038155D01*
X0266984Y0073035D01*
X0267100Y0072755D01*
X0267100Y0070845D01*
X0266369Y0069081D01*
X0265019Y0067731D01*
X0263255Y0067000D01*
X0255345Y0067000D01*
X0253581Y0067731D01*
X0253169Y0068143D01*
X0252861Y0067835D01*
X0247432Y0067835D01*
X0246800Y0068467D01*
X0246168Y0067835D01*
X0246054Y0067835D01*
X0246054Y0065765D01*
X0246168Y0065765D01*
X0246800Y0065133D01*
X0247432Y0065765D01*
X0252861Y0065765D01*
X0253169Y0065457D01*
X0253581Y0065869D01*
X0255345Y0066600D01*
X0263255Y0066600D01*
X0265019Y0065869D01*
X0266369Y0064519D01*
X0267100Y0062755D01*
X0267100Y0060845D01*
X0266369Y0059081D01*
X0265019Y0057731D01*
X0263255Y0057000D01*
X0255345Y0057000D01*
X0253581Y0057731D01*
X0253169Y0058143D01*
X0252861Y0057835D01*
X0249442Y0057835D01*
X0252494Y0054783D01*
X0253581Y0055869D01*
X0255345Y0056600D01*
X0263255Y0056600D01*
X0265019Y0055869D01*
X0266369Y0054519D01*
X0267100Y0052755D01*
X0267100Y0050845D01*
X0266369Y0049081D01*
X0265019Y0047731D01*
X0263255Y0047000D01*
X0261900Y0047000D01*
X0261900Y0046600D01*
X0263255Y0046600D01*
X0265019Y0045869D01*
X0266369Y0044519D01*
X0267100Y0042755D01*
X0267100Y0040845D01*
X0266369Y0039081D01*
X0265019Y0037731D01*
X0263255Y0037000D01*
X0255345Y0037000D01*
X0253581Y0037731D01*
X0252231Y0039081D01*
X0251500Y0040845D01*
X0251500Y0042755D01*
X0252231Y0044519D01*
X0253581Y0045869D01*
X0255345Y0046600D01*
X0256700Y0046600D01*
X0256700Y0047000D01*
X0255345Y0047000D01*
X0253581Y0047731D01*
X0252231Y0049081D01*
X0252181Y0049200D01*
X0251283Y0049200D01*
X0250327Y0049596D01*
X0243223Y0056700D01*
X0227800Y0056700D01*
X0228273Y0056504D01*
X0250377Y0034400D01*
X0252181Y0034400D01*
X0252231Y0034519D01*
X0253581Y0035869D01*
X0255345Y0036600D01*
X0263255Y0036600D01*
X0265019Y0035869D01*
X0266369Y0034519D01*
X0267100Y0032755D01*
X0267100Y0030845D01*
X0266369Y0029081D01*
X0265019Y0027731D01*
X0263255Y0027000D01*
X0255345Y0027000D01*
X0253581Y0027731D01*
X0252231Y0029081D01*
X0252181Y0029200D01*
X0248783Y0029200D01*
X0247827Y0029596D01*
X0247096Y0030327D01*
X0226106Y0051317D01*
X0225019Y0050231D01*
X0223255Y0049500D01*
X0215345Y0049500D01*
X0213581Y0050231D01*
X0212231Y0051581D01*
X0211500Y0053345D01*
X0211500Y0055255D01*
X0211548Y0055371D01*
X0183273Y0027096D01*
X0182317Y0026700D01*
X0166501Y0026700D01*
X0167100Y0025255D01*
X0167100Y0023345D01*
X0166369Y0021581D01*
X0165019Y0020231D01*
X0163255Y0019500D01*
X0155345Y0019500D01*
X0153581Y0020231D01*
X0152494Y0021317D01*
X0150773Y0019596D01*
X0149817Y0019200D01*
X0126419Y0019200D01*
X0126369Y0019081D01*
X0125019Y0017731D01*
X0123255Y0017000D01*
X0115345Y0017000D01*
X0113581Y0017731D01*
X0112231Y0019081D01*
X0111500Y0020845D01*
X0111500Y0022755D01*
X0112231Y0024519D01*
X0113581Y0025869D01*
X0115345Y0026600D01*
X0123255Y0026600D01*
X0125019Y0025869D01*
X0126369Y0024519D01*
X0126419Y0024400D01*
X0148223Y0024400D01*
X0149596Y0025773D01*
X0150327Y0026504D01*
X0151041Y0026800D01*
X0150327Y0027096D01*
X0149596Y0027827D01*
X0138724Y0038699D01*
X0137861Y0037835D01*
X0137746Y0037835D01*
X0137746Y0035765D01*
X0137861Y0035765D01*
X0138915Y0034711D01*
X0138915Y0028889D01*
X0137861Y0027835D01*
X0132432Y0027835D01*
X0131800Y0028467D01*
X0131168Y0027835D01*
X0125739Y0027835D01*
X0125431Y0028143D01*
X0125019Y0027731D01*
X0123255Y0027000D01*
X0115345Y0027000D01*
X0113581Y0027731D01*
X0112231Y0029081D01*
X0111500Y0030845D01*
X0111500Y0032755D01*
X0112231Y0034519D01*
X0113581Y0035869D01*
X0115345Y0036600D01*
X0123255Y0036600D01*
X0125019Y0035869D01*
X0125431Y0035457D01*
X0125739Y0035765D01*
X0131168Y0035765D01*
X0131800Y0035133D01*
X0132432Y0035765D01*
X0132546Y0035765D01*
X0132546Y0037835D01*
X0132432Y0037835D01*
X0131800Y0038467D01*
X0131168Y0037835D01*
X0125739Y0037835D01*
X0125431Y0038143D01*
X0125019Y0037731D01*
X0123255Y0037000D01*
X0115345Y0037000D01*
X0113581Y0037731D01*
X0112231Y0039081D01*
X0111500Y0040845D01*
X0111500Y0042755D01*
X0112231Y0044519D01*
X0113581Y0045869D01*
X0115345Y0046600D01*
X0123255Y0046600D01*
X0125019Y0045869D01*
X0125431Y0045457D01*
X0125739Y0045765D01*
X0131168Y0045765D01*
X0131800Y0045133D01*
X0132432Y0045765D01*
X0132546Y0045765D01*
X0132546Y0047835D01*
X0132432Y0047835D01*
X0131800Y0048467D01*
X0131168Y0047835D01*
X0125739Y0047835D01*
X0125431Y0048143D01*
X0125019Y0047731D01*
X0123255Y0047000D01*
X0115345Y0047000D01*
X0113581Y0047731D01*
X0112231Y0049081D01*
X0111500Y0050845D01*
X0111500Y0052755D01*
X0112231Y0054519D01*
X0113581Y0055869D01*
X0115345Y0056600D01*
X0123255Y0056600D01*
X0125019Y0055869D01*
X0125431Y0055457D01*
X0125739Y0055765D01*
X0129158Y0055765D01*
X0126106Y0058817D01*
X0125019Y0057731D01*
X0123255Y0057000D01*
X0115345Y0057000D01*
X0113581Y0057731D01*
X0112231Y0059081D01*
X0111500Y0060845D01*
X0111500Y0062755D01*
X0112231Y0064519D01*
X0113581Y0065869D01*
X0115345Y0066600D01*
X0116700Y0066600D01*
X0116700Y0067000D01*
X0115345Y0067000D01*
X0113581Y0067731D01*
X0112231Y0069081D01*
X0111500Y0070845D01*
X0111500Y0072755D01*
X0112231Y0074519D01*
X0113581Y0075869D01*
X0115345Y0076600D01*
X0120823Y0076600D01*
X0120423Y0077000D01*
X0115345Y0077000D01*
X0113581Y0077731D01*
X0112231Y0079081D01*
X0111500Y0080845D01*
X0111500Y0082755D01*
X0112231Y0084519D01*
X0113581Y0085869D01*
X0115345Y0086600D01*
X0120823Y0086600D01*
X0120423Y0087000D01*
X0115345Y0087000D01*
X0113581Y0087731D01*
X0112231Y0089081D01*
X0111500Y0090845D01*
X0111500Y0092755D01*
X0112231Y0094519D01*
X0113581Y0095869D01*
X0115345Y0096600D01*
X0123255Y0096600D01*
X0125019Y0095869D01*
X0126369Y0094519D01*
X0127100Y0092755D01*
X0127100Y0090845D01*
X0126369Y0089081D01*
X0126033Y0088744D01*
X0146504Y0068273D01*
X0146900Y0067317D01*
X0146900Y0050377D01*
X0150377Y0046900D01*
X0152181Y0046900D01*
X0152231Y0047019D01*
X0153581Y0048369D01*
X0155345Y0049100D01*
X0163255Y0049100D01*
X0165019Y0048369D01*
X0166369Y0047019D01*
X0167100Y0045255D01*
X0167100Y0043345D01*
X0166369Y0041581D01*
X0165019Y0040231D01*
X0163255Y0039500D01*
X0155345Y0039500D01*
X0153581Y0040231D01*
X0152231Y0041581D01*
X0152181Y0041700D01*
X0150577Y0041700D01*
X0153812Y0038465D01*
X0155345Y0039100D01*
X0163255Y0039100D01*
X0165019Y0038369D01*
X0166369Y0037019D01*
X0167100Y0035255D01*
X0167100Y0033345D01*
X0166501Y0031900D01*
X0180723Y0031900D01*
X0209596Y0060773D01*
X0210327Y0061504D01*
X0211283Y0061900D01*
X0212099Y0061900D01*
X0211500Y0063345D01*
X0211500Y0065255D01*
X0212231Y0067019D01*
X0213581Y0068369D01*
X0215345Y0069100D01*
X0223255Y0069100D01*
X0225019Y0068369D01*
X0226369Y0067019D01*
X0226419Y0066900D01*
X0233223Y0066900D01*
X0236700Y0070377D01*
X0236700Y0085523D01*
X0226904Y0075727D01*
X0227100Y0075255D01*
X0227100Y0073345D01*
X0226369Y0071581D01*
X0225019Y0070231D01*
X0223255Y0069500D01*
X0215345Y0069500D01*
X0213581Y0070231D01*
X0212231Y0071581D01*
X0211500Y0073345D01*
X0211500Y0075255D01*
X0212231Y0077019D01*
X0213581Y0078369D01*
X0215345Y0079100D01*
X0222923Y0079100D01*
X0223371Y0079548D01*
X0223255Y0079500D01*
X0215345Y0079500D01*
X0213581Y0080231D01*
X0212231Y0081581D01*
X0211500Y0083345D01*
X0211500Y0085255D01*
X0212231Y0087019D01*
X0213581Y0088369D01*
X0215345Y0089100D01*
X0222923Y0089100D01*
X0223371Y0089548D01*
X0223255Y0089500D01*
X0215345Y0089500D01*
X0213581Y0090231D01*
X0212231Y0091581D01*
X0211500Y0093345D01*
X0211500Y0095255D01*
X0212231Y0097019D01*
X0213581Y0098369D01*
X0215345Y0099100D01*
X0222923Y0099100D01*
X0223371Y0099548D01*
X0223255Y0099500D01*
X0215345Y0099500D01*
X0213581Y0100231D01*
X0212231Y0101581D01*
X0211500Y0103345D01*
X0211500Y0105255D01*
X0212231Y0107019D01*
X0213581Y0108369D01*
X0215345Y0109100D01*
X0222923Y0109100D01*
X0223371Y0109548D01*
X0223255Y0109500D01*
X0215345Y0109500D01*
X0213581Y0110231D01*
X0212231Y0111581D01*
X0211500Y0113345D01*
X0211500Y0115255D01*
X0212231Y0117019D01*
X0213581Y0118369D01*
X0215345Y0119100D01*
X0222923Y0119100D01*
X0223371Y0119548D01*
X0223255Y0119500D01*
X0215345Y0119500D01*
X0213581Y0120231D01*
X0212231Y0121581D01*
X0211500Y0123345D01*
X0211500Y0125255D01*
X0212231Y0127019D01*
X0213581Y0128369D01*
X0215345Y0129100D01*
X0222923Y0129100D01*
X0223371Y0129548D01*
X0223255Y0129500D01*
X0215345Y0129500D01*
X0213581Y0130231D01*
X0212408Y0131403D01*
X0212374Y0131418D01*
X0207374Y0136418D01*
X0206418Y0137374D01*
X0205900Y0138624D01*
X0205900Y0190900D01*
X0134527Y0190900D01*
X0127740Y0184113D01*
X0130241Y0181612D01*
X0132172Y0181612D01*
X0133226Y0180557D01*
X0133226Y0174932D01*
X0132452Y0174159D01*
X0132706Y0173904D01*
X0132917Y0173540D01*
X0133026Y0173133D01*
X0133026Y0171289D01*
X0129734Y0171289D01*
X0129734Y0170422D01*
X0133026Y0170422D01*
X0133026Y0168578D01*
X0132917Y0168171D01*
X0132706Y0167806D01*
X0132581Y0167681D01*
X0133548Y0168081D01*
X0133838Y0168081D01*
X0147601Y0181843D01*
X0148703Y0182300D01*
X0196953Y0182300D01*
X0197158Y0182505D01*
X0198548Y0183081D01*
X0200052Y0183081D01*
X0201442Y0182505D01*
X0202505Y0181442D01*
X0203081Y0180052D01*
X0203081Y0178548D01*
X0202505Y0177158D01*
X0201442Y0176095D01*
X0200052Y0175519D01*
X0198548Y0175519D01*
X0197158Y0176095D01*
X0196953Y0176300D01*
X0168477Y0176300D01*
X0173273Y0171504D01*
X0174004Y0170773D01*
X0174400Y0169817D01*
X0174400Y0131283D01*
X0174004Y0130327D01*
X0167100Y0123423D01*
X0167100Y0123345D01*
X0166369Y0121581D01*
X0165019Y0120231D01*
X0163255Y0119500D01*
X0155345Y0119500D01*
X0153581Y0120231D01*
X0152231Y0121581D01*
X0151500Y0123345D01*
X0151500Y0125255D01*
X0152231Y0127019D01*
X0153581Y0128369D01*
X0155345Y0129100D01*
X0163255Y0129100D01*
X0164788Y0128465D01*
X0169200Y0132877D01*
X0169200Y0155523D01*
X0167100Y0153423D01*
X0167100Y0153345D01*
X0166369Y0151581D01*
X0165019Y0150231D01*
X0163255Y0149500D01*
X0155345Y0149500D01*
X0153581Y0150231D01*
X0152231Y0151581D01*
X0151500Y0153345D01*
X0151500Y0155255D01*
X0152231Y0157019D01*
X0153581Y0158369D01*
X0155345Y0159100D01*
X0163255Y0159100D01*
X0164788Y0158465D01*
X0166700Y0160377D01*
X0166700Y0162380D01*
X0166369Y0161581D01*
X0165019Y0160231D01*
X0163255Y0159500D01*
X0155345Y0159500D01*
X0153581Y0160231D01*
X0152494Y0161317D01*
X0144004Y0152827D01*
X0143273Y0152096D01*
X0142317Y0151700D01*
X0103783Y0151700D01*
X0102827Y0152096D01*
X0085327Y0169596D01*
X0084596Y0170327D01*
X0084200Y0171283D01*
X0084200Y0183223D01*
X0081333Y0186090D01*
X0080566Y0185324D01*
X0081395Y0184494D01*
X0081395Y0178279D01*
X0080566Y0177450D01*
X0081395Y0176620D01*
X0081395Y0170405D01*
X0080566Y0169576D01*
X0081395Y0168746D01*
X0081395Y0162531D01*
X0080566Y0161702D01*
X0081395Y0160872D01*
X0081395Y0154657D01*
X0080566Y0153828D01*
X0081395Y0152998D01*
X0081395Y0146783D01*
X0080384Y0145771D01*
X0080578Y0145659D01*
X0080876Y0145361D01*
X0081086Y0144996D01*
X0081195Y0144589D01*
X0081195Y0142598D01*
X0074271Y0142598D01*
X0074271Y0141435D01*
X0074271Y0138054D01*
X0079806Y0138054D01*
X0080213Y0138163D01*
X0080578Y0138374D01*
X0080876Y0138672D01*
X0081086Y0139037D01*
X0081195Y0139444D01*
X0081195Y0141435D01*
X0074271Y0141435D01*
X0073109Y0141435D01*
X0073109Y0138054D01*
X0067574Y0138054D01*
X0067167Y0138163D01*
X0066802Y0138374D01*
X0066504Y0138672D01*
X0066293Y0139037D01*
X0066184Y0139444D01*
X0066184Y0141435D01*
X0073109Y0141435D01*
X0073109Y0142598D01*
X0066184Y0142598D01*
X0066184Y0144589D01*
X0066293Y0144996D01*
X0066504Y0145361D01*
X0066802Y0145659D01*
X0066996Y0145771D01*
X0065984Y0146783D01*
X0065984Y0152998D01*
X0066813Y0153828D01*
X0065984Y0154657D01*
X0065984Y0160872D01*
X0066813Y0161702D01*
X0065984Y0162531D01*
X0065984Y0168746D01*
X0066813Y0169576D01*
X0065984Y0170405D01*
X0065984Y0176620D01*
X0066813Y0177450D01*
X0065984Y0178279D01*
X0065984Y0184494D01*
X0066813Y0185324D01*
X0065984Y0186153D01*
X0065984Y0192368D01*
X0066813Y0193198D01*
X0065984Y0194027D01*
X0065984Y0200242D01*
X0067039Y0201297D01*
X0080341Y0201297D01*
X0081395Y0200242D01*
X0081395Y0199735D01*
X0081983Y0199735D01*
X0082938Y0199339D01*
X0094004Y0188273D01*
X0094400Y0187317D01*
X0094400Y0172877D01*
X0103842Y0163435D01*
X0103842Y0165943D01*
X0107124Y0165943D01*
X0107124Y0166909D01*
X0103842Y0166909D01*
X0103842Y0170574D01*
X0103951Y0170981D01*
X0104161Y0171345D01*
X0104459Y0171643D01*
X0104824Y0171854D01*
X0105231Y0171963D01*
X0107124Y0171963D01*
X0107124Y0166909D01*
X0108090Y0166909D01*
X0108090Y0171963D01*
X0109983Y0171963D01*
X0110390Y0171854D01*
X0110755Y0171643D01*
X0111053Y0171345D01*
X0111263Y0170981D01*
X0111372Y0170574D01*
X0111372Y0166909D01*
X0108090Y0166909D01*
X0108090Y0165943D01*
X0111372Y0165943D01*
X0111372Y0162278D01*
X0111263Y0161871D01*
X0111053Y0161507D01*
X0110755Y0161209D01*
X0110390Y0160998D01*
X0109983Y0160889D01*
X0108090Y0160889D01*
X0108090Y0165943D01*
X0107124Y0165943D01*
X0107124Y0160889D01*
X0106388Y0160889D01*
X0107877Y0159400D01*
X0123023Y0159400D01*
X0121734Y0160689D01*
X0118082Y0160689D01*
X0117028Y0161743D01*
X0117028Y0171109D01*
X0118082Y0172163D01*
X0123904Y0172163D01*
X0124958Y0171109D01*
X0124958Y0164819D01*
X0127877Y0161900D01*
X0131353Y0161900D01*
X0131095Y0162158D01*
X0130519Y0163548D01*
X0130519Y0165052D01*
X0131095Y0166442D01*
X0131916Y0167263D01*
X0131637Y0167188D01*
X0129733Y0167188D01*
X0129733Y0170422D01*
X0128867Y0170422D01*
X0128867Y0167188D01*
X0126963Y0167188D01*
X0126556Y0167297D01*
X0126192Y0167508D01*
X0125894Y0167806D01*
X0125683Y0168171D01*
X0125574Y0168578D01*
X0125574Y0170422D01*
X0128866Y0170422D01*
X0128866Y0171289D01*
X0125574Y0171289D01*
X0125574Y0173133D01*
X0125683Y0173540D01*
X0125894Y0173904D01*
X0126148Y0174159D01*
X0125374Y0174932D01*
X0125374Y0176863D01*
X0124852Y0177385D01*
X0123904Y0176437D01*
X0118082Y0176437D01*
X0117028Y0177491D01*
X0117028Y0186857D01*
X0118082Y0187911D01*
X0121922Y0187911D01*
X0125156Y0191146D01*
X0124500Y0191418D01*
X0120818Y0195100D01*
X0120591Y0195100D01*
X0119047Y0195739D01*
X0117865Y0196921D01*
X0117226Y0198465D01*
X0117226Y0200135D01*
X0117865Y0201679D01*
X0119047Y0202861D01*
X0120591Y0203500D01*
X0122261Y0203500D01*
X0123805Y0202861D01*
X0124987Y0201679D01*
X0125363Y0200770D01*
X0125739Y0201679D01*
X0126921Y0202861D01*
X0128465Y0203500D01*
X0130135Y0203500D01*
X0131679Y0202861D01*
X0132861Y0201679D01*
X0133174Y0200922D01*
X0133174Y0201911D01*
X0133283Y0202318D01*
X0133494Y0202682D01*
X0133792Y0202980D01*
X0134156Y0203191D01*
X0134563Y0203300D01*
X0136974Y0203300D01*
X0136974Y0199500D01*
X0137374Y0199500D01*
X0137374Y0203300D01*
X0139785Y0203300D01*
X0140192Y0203191D01*
X0140556Y0202980D01*
X0140854Y0202682D01*
X0141065Y0202318D01*
X0141174Y0201911D01*
X0141174Y0199500D01*
X0137374Y0199500D01*
X0137374Y0199100D01*
X0141174Y0199100D01*
X0141174Y0197700D01*
X0150043Y0197700D01*
X0149726Y0198465D01*
X0149726Y0200135D01*
X0150365Y0201679D01*
X0151547Y0202861D01*
X0153091Y0203500D01*
X0154761Y0203500D01*
X0156305Y0202861D01*
X0157487Y0201679D01*
X0157863Y0200770D01*
X0158239Y0201679D01*
X0159421Y0202861D01*
X0160965Y0203500D01*
X0162635Y0203500D01*
X0164179Y0202861D01*
X0165361Y0201679D01*
X0165674Y0200922D01*
X0165674Y0201911D01*
X0165783Y0202318D01*
X0165994Y0202682D01*
X0166292Y0202980D01*
X0166656Y0203191D01*
X0167063Y0203300D01*
X0169474Y0203300D01*
X0169474Y0199500D01*
X0169874Y0199500D01*
X0169874Y0203300D01*
X0172285Y0203300D01*
X0172692Y0203191D01*
X0173056Y0202980D01*
X0173354Y0202682D01*
X0173565Y0202318D01*
X0173674Y0201911D01*
X0173674Y0199500D01*
X0169874Y0199500D01*
X0169874Y0199100D01*
X0173674Y0199100D01*
X0173674Y0197700D01*
X0182543Y0197700D01*
X0182226Y0198465D01*
X0182226Y0200135D01*
X0182865Y0201679D01*
X0184047Y0202861D01*
X0185591Y0203500D01*
X0187261Y0203500D01*
X0188805Y0202861D01*
X0189987Y0201679D01*
X0190363Y0200770D01*
X0190739Y0201679D01*
X0191921Y0202861D01*
X0193465Y0203500D01*
X0195135Y0203500D01*
X0196679Y0202861D01*
X0197861Y0201679D01*
X0198174Y0200922D01*
X0198174Y0201911D01*
X0198283Y0202318D01*
X0198494Y0202682D01*
X0198792Y0202980D01*
X0199156Y0203191D01*
X0199563Y0203300D01*
X0201974Y0203300D01*
X0201974Y0199500D01*
X0202374Y0199500D01*
X0202374Y0203300D01*
X0204785Y0203300D01*
X0205192Y0203191D01*
X0205556Y0202980D01*
X0205854Y0202682D01*
X0206065Y0202318D01*
X0206174Y0201911D01*
X0206174Y0199500D01*
X0202374Y0199500D01*
X0202374Y0199100D01*
X0206174Y0199100D01*
X0206174Y0197700D01*
X0216106Y0197700D01*
X0215789Y0198465D01*
X0215789Y0200135D01*
X0216428Y0201679D01*
X0217610Y0202861D01*
X0219154Y0203500D01*
X0220824Y0203500D01*
X0222368Y0202861D01*
X0223550Y0201679D01*
X0223926Y0200770D01*
X0224302Y0201679D01*
X0225484Y0202861D01*
X0227028Y0203500D01*
X0228698Y0203500D01*
X0230242Y0202861D01*
X0231424Y0201679D01*
X0231800Y0200770D01*
X0232176Y0201679D01*
X0233358Y0202861D01*
X0234902Y0203500D01*
X0236572Y0203500D01*
X0238116Y0202861D01*
X0239298Y0201679D01*
X0239611Y0200922D01*
X0239611Y0201911D01*
X0239720Y0202318D01*
X0239931Y0202682D01*
X0240229Y0202980D01*
X0240593Y0203191D01*
X0241000Y0203300D01*
X0243411Y0203300D01*
X0243411Y0199500D01*
X0243811Y0199500D01*
X0243811Y0203300D01*
X0246222Y0203300D01*
X0246629Y0203191D01*
X0246993Y0202980D01*
X0247291Y0202682D01*
X0247502Y0202318D01*
X0247611Y0201911D01*
X0247611Y0199500D01*
X0243811Y0199500D01*
X0243811Y0199100D01*
X0247611Y0199100D01*
X0247611Y0197700D01*
X0255392Y0197700D01*
X0255897Y0198205D01*
X0255789Y0198465D01*
X0255789Y0200135D01*
X0256428Y0201679D01*
X0257610Y0202861D01*
X0259154Y0203500D01*
X0260824Y0203500D01*
X0262368Y0202861D01*
X0263550Y0201679D01*
X0263926Y0200770D01*
X0264302Y0201679D01*
X0265484Y0202861D01*
X0267028Y0203500D01*
X0268698Y0203500D01*
X0270242Y0202861D01*
X0271424Y0201679D01*
X0271800Y0200770D01*
X0272176Y0201679D01*
X0273358Y0202861D01*
X0274902Y0203500D01*
X0276572Y0203500D01*
X0278116Y0202861D01*
X0279298Y0201679D01*
X0279611Y0200922D01*
X0279611Y0201911D01*
X0279720Y0202318D01*
X0279931Y0202682D01*
X0280229Y0202980D01*
X0280593Y0203191D01*
X0281000Y0203300D01*
X0283411Y0203300D01*
X0283411Y0199500D01*
X0283811Y0199500D01*
X0283811Y0203300D01*
X0286222Y0203300D01*
X0286629Y0203191D01*
X0286993Y0202980D01*
X0287291Y0202682D01*
X0287502Y0202318D01*
X0287611Y0201911D01*
X0287611Y0199500D01*
X0283811Y0199500D01*
X0283811Y0199100D01*
X0283811Y0195300D01*
X0286222Y0195300D01*
X0286629Y0195409D01*
X0286993Y0195620D01*
X0287291Y0195918D01*
X0287502Y0196282D01*
X0287611Y0196689D01*
X0287611Y0199100D01*
X0283811Y0199100D01*
X0283411Y0199100D01*
X0283411Y0195300D01*
X0281000Y0195300D01*
X0280593Y0195409D01*
X0280229Y0195620D01*
X0279931Y0195918D01*
X0279720Y0196282D01*
X0279611Y0196689D01*
X0279611Y0197678D01*
X0279298Y0196921D01*
X0278116Y0195739D01*
X0276572Y0195100D01*
X0274902Y0195100D01*
X0273358Y0195739D01*
X0272176Y0196921D01*
X0271800Y0197830D01*
X0271424Y0196921D01*
X0270242Y0195739D01*
X0268698Y0195100D01*
X0267028Y0195100D01*
X0265484Y0195739D01*
X0264302Y0196921D01*
X0263926Y0197830D01*
X0263550Y0196921D01*
X0263352Y0196723D01*
X0262871Y0195563D01*
X0259682Y0192374D01*
X0258726Y0191418D01*
X0257476Y0190900D01*
X0212700Y0190900D01*
X0212700Y0167488D01*
X0213581Y0168369D01*
X0215345Y0169100D01*
X0223255Y0169100D01*
X0225019Y0168369D01*
X0226369Y0167019D01*
X0227100Y0165255D01*
X0227100Y0163345D01*
X0226369Y0161581D01*
X0225019Y0160231D01*
X0223255Y0159500D01*
X0215345Y0159500D01*
X0213581Y0160231D01*
X0212700Y0161112D01*
X0212700Y0157171D01*
X0212791Y0157297D01*
X0213303Y0157809D01*
X0213889Y0158234D01*
X0214534Y0158563D01*
X0215223Y0158787D01*
X0215938Y0158900D01*
X0218900Y0158900D01*
X0218900Y0154700D01*
X0219700Y0154700D01*
X0219700Y0158900D01*
X0222662Y0158900D01*
X0223377Y0158787D01*
X0224066Y0158563D01*
X0224711Y0158234D01*
X0225297Y0157809D01*
X0225809Y0157297D01*
X0226234Y0156711D01*
X0226563Y0156066D01*
X0226787Y0155377D01*
X0226894Y0154700D01*
X0219700Y0154700D01*
X0219700Y0153900D01*
X0226894Y0153900D01*
X0226787Y0153223D01*
X0226563Y0152534D01*
X0226234Y0151889D01*
X0225809Y0151303D01*
X0225297Y0150791D01*
X0224711Y0150366D01*
X0224066Y0150037D01*
X0223377Y0149813D01*
X0222662Y0149700D01*
X0219700Y0149700D01*
X0219700Y0153900D01*
X0218900Y0153900D01*
X0218900Y0149700D01*
X0215938Y0149700D01*
X0215223Y0149813D01*
X0214534Y0150037D01*
X0213889Y0150366D01*
X0213303Y0150791D01*
X0212791Y0151303D01*
X0212700Y0151429D01*
X0212700Y0147488D01*
X0213581Y0148369D01*
X0215345Y0149100D01*
X0223255Y0149100D01*
X0225019Y0148369D01*
X0226369Y0147019D01*
X0227100Y0145255D01*
X0227100Y0143345D01*
X0226369Y0141581D01*
X0225019Y0140231D01*
X0223255Y0139500D01*
X0215345Y0139500D01*
X0213581Y0140231D01*
X0212700Y0141112D01*
X0212700Y0140708D01*
X0214612Y0138796D01*
X0215345Y0139100D01*
X0223255Y0139100D01*
X0225019Y0138369D01*
X0226106Y0137283D01*
X0237096Y0148273D01*
X0237827Y0149004D01*
X0238783Y0149400D01*
X0265723Y0149400D01*
X0269200Y0152877D01*
X0269200Y0174817D01*
X0269596Y0175773D01*
X0270327Y0176504D01*
X0270327Y0176504D01*
X0285659Y0191836D01*
X0285659Y0191836D01*
X0286390Y0192567D01*
X0287346Y0192963D01*
X0292480Y0192963D01*
X0292480Y0193077D01*
X0292522Y0193119D01*
X0292480Y0193161D01*
X0292480Y0198589D01*
X0292522Y0198631D01*
X0292480Y0198673D01*
X0292480Y0204101D01*
X0293535Y0205155D01*
X0304672Y0205155D01*
X0305726Y0204101D01*
X0305726Y0198673D01*
X0305684Y0198631D01*
X0305726Y0198589D01*
X0305726Y0193161D01*
X0305684Y0193119D01*
X0305726Y0193077D01*
X0305726Y0187649D01*
X0305684Y0187607D01*
X0305726Y0187565D01*
X0305726Y0182137D01*
X0305684Y0182095D01*
X0305726Y0182053D01*
X0305726Y0176625D01*
X0305684Y0176583D01*
X0305726Y0176542D01*
X0305726Y0171113D01*
X0305684Y0171072D01*
X0305726Y0171030D01*
X0305726Y0165602D01*
X0305438Y0165313D01*
X0305526Y0164983D01*
X0305526Y0163188D01*
X0299487Y0163188D01*
X0299487Y0162420D01*
X0299487Y0159235D01*
X0301240Y0159235D01*
X0301240Y0148200D01*
X0302295Y0147146D01*
X0307723Y0147146D01*
X0307765Y0147187D01*
X0307806Y0147146D01*
X0313235Y0147146D01*
X0313276Y0147187D01*
X0313318Y0147146D01*
X0318544Y0147146D01*
X0318544Y0145765D01*
X0317432Y0145765D01*
X0316800Y0145133D01*
X0316168Y0145765D01*
X0310739Y0145765D01*
X0309685Y0144711D01*
X0309685Y0138889D01*
X0310454Y0138121D01*
X0310454Y0134097D01*
X0310472Y0134051D01*
X0310472Y0131980D01*
X0311527Y0130925D01*
X0316168Y0130925D01*
X0316941Y0131699D01*
X0317196Y0131445D01*
X0317560Y0131234D01*
X0317967Y0131125D01*
X0319565Y0131125D01*
X0319565Y0134113D01*
X0319940Y0134113D01*
X0319940Y0134487D01*
X0322928Y0134487D01*
X0322928Y0136085D01*
X0322819Y0136492D01*
X0322608Y0136857D01*
X0322310Y0137155D01*
X0321945Y0137366D01*
X0321538Y0137475D01*
X0319940Y0137475D01*
X0319940Y0134487D01*
X0319565Y0134487D01*
X0319565Y0137475D01*
X0317967Y0137475D01*
X0317560Y0137366D01*
X0317196Y0137155D01*
X0316941Y0136901D01*
X0316454Y0137389D01*
X0316454Y0138121D01*
X0316800Y0138467D01*
X0317432Y0137835D01*
X0322861Y0137835D01*
X0323915Y0138889D01*
X0323915Y0141326D01*
X0324087Y0141498D01*
X0324300Y0142012D01*
X0324513Y0141498D01*
X0324685Y0141326D01*
X0324685Y0138889D01*
X0325739Y0137835D01*
X0331168Y0137835D01*
X0331800Y0138467D01*
X0332146Y0138121D01*
X0332146Y0137389D01*
X0331659Y0136901D01*
X0331404Y0137155D01*
X0331040Y0137366D01*
X0330633Y0137475D01*
X0329035Y0137475D01*
X0329035Y0134487D01*
X0328660Y0134487D01*
X0328660Y0134113D01*
X0325672Y0134113D01*
X0325672Y0132515D01*
X0325781Y0132108D01*
X0325992Y0131743D01*
X0326290Y0131445D01*
X0326655Y0131234D01*
X0327062Y0131125D01*
X0328660Y0131125D01*
X0328660Y0134113D01*
X0329035Y0134113D01*
X0329035Y0131125D01*
X0330633Y0131125D01*
X0331040Y0131234D01*
X0331404Y0131445D01*
X0331659Y0131699D01*
X0332432Y0130925D01*
X0337073Y0130925D01*
X0338128Y0131980D01*
X0338128Y0134051D01*
X0338146Y0134097D01*
X0338146Y0138121D01*
X0338915Y0138889D01*
X0338915Y0144711D01*
X0337861Y0145765D01*
X0332432Y0145765D01*
X0331800Y0145133D01*
X0331168Y0145765D01*
X0330056Y0145765D01*
X0330056Y0147146D01*
X0335282Y0147146D01*
X0335324Y0147187D01*
X0335365Y0147146D01*
X0340794Y0147146D01*
X0341082Y0147434D01*
X0341412Y0147346D01*
X0343207Y0147346D01*
X0343207Y0153384D01*
X0343976Y0153384D01*
X0343976Y0154153D01*
X0347160Y0154153D01*
X0347160Y0155263D01*
X0347827Y0154596D01*
X0350519Y0151904D01*
X0350519Y0151048D01*
X0351095Y0149658D01*
X0352158Y0148595D01*
X0353548Y0148019D01*
X0355052Y0148019D01*
X0356442Y0148595D01*
X0357505Y0149658D01*
X0358081Y0151048D01*
X0358081Y0152552D01*
X0357505Y0153942D01*
X0356442Y0155005D01*
X0355052Y0155581D01*
X0354196Y0155581D01*
X0351900Y0157877D01*
X0351900Y0159035D01*
X0355065Y0159035D01*
X0356120Y0160090D01*
X0356120Y0163803D01*
X0359200Y0160723D01*
X0359200Y0135377D01*
X0350723Y0126900D01*
X0305377Y0126900D01*
X0285773Y0146504D01*
X0284817Y0146900D01*
X0270577Y0146900D01*
X0273273Y0149596D01*
X0274004Y0150327D01*
X0274400Y0151283D01*
X0274400Y0173223D01*
X0288940Y0187763D01*
X0292480Y0187763D01*
X0292480Y0187649D01*
X0292522Y0187607D01*
X0292480Y0187565D01*
X0292480Y0182300D01*
X0289147Y0182300D01*
X0288942Y0182505D01*
X0287552Y0183081D01*
X0286048Y0183081D01*
X0284658Y0182505D01*
X0283595Y0181442D01*
X0283019Y0180052D01*
X0283019Y0178548D01*
X0283595Y0177158D01*
X0284658Y0176095D01*
X0286048Y0175519D01*
X0287552Y0175519D01*
X0288942Y0176095D01*
X0289147Y0176300D01*
X0292480Y0176300D01*
X0292480Y0171113D01*
X0292522Y0171072D01*
X0292480Y0171030D01*
X0292480Y0165602D01*
X0292769Y0165313D01*
X0292680Y0164983D01*
X0292680Y0163188D01*
X0298719Y0163188D01*
X0298719Y0162420D01*
X0292680Y0162420D01*
X0292680Y0160625D01*
X0292789Y0160218D01*
X0293000Y0159853D01*
X0293298Y0159555D01*
X0293663Y0159344D01*
X0294070Y0159235D01*
X0298719Y0159235D01*
X0298719Y0162420D01*
X0299487Y0162420D01*
X0305526Y0162420D01*
X0305526Y0160625D01*
X0305463Y0160391D01*
X0307723Y0160391D01*
X0307765Y0160350D01*
X0307806Y0160391D01*
X0313235Y0160391D01*
X0313276Y0160350D01*
X0313318Y0160391D01*
X0318746Y0160391D01*
X0318788Y0160350D01*
X0318830Y0160391D01*
X0324258Y0160391D01*
X0324300Y0160350D01*
X0324342Y0160391D01*
X0329770Y0160391D01*
X0329812Y0160350D01*
X0329854Y0160391D01*
X0335282Y0160391D01*
X0335324Y0160350D01*
X0335365Y0160391D01*
X0340794Y0160391D01*
X0341082Y0160103D01*
X0341412Y0160191D01*
X0342874Y0160191D01*
X0342874Y0165518D01*
X0342916Y0165560D01*
X0342874Y0165602D01*
X0342874Y0171030D01*
X0342916Y0171072D01*
X0342874Y0171113D01*
X0342874Y0176542D01*
X0342916Y0176583D01*
X0342874Y0176625D01*
X0342874Y0182053D01*
X0343162Y0182342D01*
X0343074Y0182672D01*
X0343074Y0184467D01*
X0349113Y0184467D01*
X0349113Y0185235D01*
X0343074Y0185235D01*
X0343074Y0187030D01*
X0343162Y0187360D01*
X0342874Y0187649D01*
X0342874Y0193077D01*
X0343162Y0193366D01*
X0343074Y0193696D01*
X0343074Y0195491D01*
X0349113Y0195491D01*
X0349113Y0196259D01*
X0349113Y0201002D01*
X0349881Y0201002D01*
X0349881Y0197818D01*
X0349881Y0196259D01*
X0349113Y0196259D01*
X0343074Y0196259D01*
X0343074Y0198054D01*
X0343183Y0198461D01*
X0343281Y0198631D01*
X0343183Y0198801D01*
X0343074Y0199207D01*
X0343074Y0201002D01*
X0349113Y0201002D01*
X0349113Y0201771D01*
X0349113Y0204955D01*
X0344463Y0204955D01*
X0344056Y0204846D01*
X0343692Y0204635D01*
X0343394Y0204338D01*
X0343183Y0203973D01*
X0343074Y0203566D01*
X0343074Y0201771D01*
X0349113Y0201771D01*
X0349881Y0201771D01*
X0349881Y0204955D01*
X0354530Y0204955D01*
X0354937Y0204846D01*
X0355302Y0204635D01*
X0355600Y0204338D01*
X0355811Y0203973D01*
X0355920Y0203566D01*
X0355920Y0201771D01*
X0349881Y0201771D01*
X0349881Y0201002D01*
X0355920Y0201002D01*
X0355920Y0199207D01*
X0355811Y0198801D01*
X0355713Y0198631D01*
X0355811Y0198461D01*
X0355920Y0198054D01*
X0355920Y0196259D01*
X0349881Y0196259D01*
X0349881Y0195491D01*
X0355920Y0195491D01*
X0355920Y0193696D01*
X0355831Y0193366D01*
X0356120Y0193077D01*
X0356120Y0192963D01*
X0359286Y0192963D01*
X0364545Y0198222D01*
X0364159Y0198608D01*
X0363904Y0198354D01*
X0363540Y0198144D01*
X0363133Y0198035D01*
X0361338Y0198035D01*
X0361338Y0201416D01*
X0360569Y0201416D01*
X0357385Y0201416D01*
X0357385Y0199424D01*
X0357494Y0199017D01*
X0357705Y0198652D01*
X0358003Y0198354D01*
X0358367Y0198144D01*
X0358774Y0198035D01*
X0360569Y0198035D01*
X0360569Y0201416D01*
X0360569Y0202184D01*
X0357385Y0202184D01*
X0357385Y0204176D01*
X0357494Y0204583D01*
X0357705Y0204948D01*
X0358003Y0205246D01*
X0358367Y0205456D01*
X0358774Y0205565D01*
X0360569Y0205565D01*
X0360569Y0202184D01*
X0361338Y0202184D01*
X0361338Y0205565D01*
X0363133Y0205565D01*
X0363540Y0205456D01*
X0363904Y0205246D01*
X0364159Y0204992D01*
X0364932Y0205765D01*
X0370361Y0205765D01*
X0371415Y0204711D01*
X0371415Y0201708D01*
X0371927Y0201196D01*
X0371927Y0201196D01*
X0374004Y0199119D01*
X0374400Y0198164D01*
X0374400Y0123783D01*
X0374004Y0122827D01*
X0373273Y0122096D01*
X0363273Y0112096D01*
X0362317Y0111700D01*
X0335805Y0111700D01*
X0335805Y0105405D01*
X0334750Y0104350D01*
X0333187Y0104350D01*
X0333187Y0103031D01*
X0332532Y0101451D01*
X0322881Y0091800D01*
X0329236Y0085445D01*
X0330445Y0084236D01*
X0331100Y0082655D01*
X0331100Y0013445D01*
X0330445Y0011864D01*
X0322945Y0004364D01*
X0322181Y0003600D01*
X0375201Y0003600D01*
X0375201Y0207461D01*
X0085574Y0207461D01*
X0089534Y0203500D01*
X0089761Y0203500D01*
X0091305Y0202861D01*
X0092487Y0201679D01*
X0092863Y0200770D01*
X0093239Y0201679D01*
X0094421Y0202861D01*
X0095965Y0203500D01*
X0097635Y0203500D01*
X0099179Y0202861D01*
X0100361Y0201679D01*
X0100674Y0200922D01*
X0100674Y0201911D01*
X0100783Y0202318D01*
X0100994Y0202682D01*
X0101292Y0202980D01*
X0101656Y0203191D01*
X0102063Y0203300D01*
X0104474Y0203300D01*
X0104474Y0199500D01*
X0104874Y0199500D01*
X0104874Y0203300D01*
X0107285Y0203300D01*
X0107692Y0203191D01*
X0108056Y0202980D01*
X0108354Y0202682D01*
X0108565Y0202318D01*
X0108674Y0201911D01*
X0108674Y0199500D01*
X0104874Y0199500D01*
X0104874Y0199100D01*
X0108674Y0199100D01*
X0108674Y0196689D01*
X0108565Y0196282D01*
X0108354Y0195918D01*
X0108056Y0195620D01*
X0107692Y0195409D01*
X0107285Y0195300D01*
X0104874Y0195300D01*
X0104874Y0199100D01*
X0104474Y0199100D01*
X0104474Y0195300D01*
X0102063Y0195300D01*
X0101656Y0195409D01*
X0101292Y0195620D01*
X0100994Y0195918D01*
X0100783Y0196282D01*
X0100674Y0196689D01*
X0100674Y0197678D01*
X0100361Y0196921D01*
X0099179Y0195739D01*
X0097635Y0195100D01*
X0095965Y0195100D01*
X0094421Y0195739D01*
X0093239Y0196921D01*
X0092863Y0197830D01*
X0092487Y0196921D01*
X0091305Y0195739D01*
X0089761Y0195100D01*
X0088091Y0195100D01*
X0086547Y0195739D01*
X0085365Y0196921D01*
X0084726Y0198465D01*
X0084726Y0198692D01*
X0080018Y0203400D01*
X0068208Y0203400D01*
X0065200Y0200392D01*
X0065200Y0138208D01*
X0070096Y0133313D01*
X0070613Y0132063D01*
X0070613Y0126750D01*
X0073077Y0126750D01*
X0074131Y0125695D01*
X0074131Y0117905D01*
X0073077Y0116850D01*
X0070600Y0116850D01*
X0070600Y0111044D01*
X0070021Y0109647D01*
X0068953Y0108579D01*
X0050600Y0090226D01*
X0050600Y0065288D01*
X0050869Y0065019D01*
X0051600Y0063255D01*
X0051600Y0055345D01*
X0050869Y0053581D01*
X0049519Y0052231D01*
X0047755Y0051500D01*
X0045845Y0051500D01*
X0044081Y0052231D01*
X0042731Y0053581D01*
X0042000Y0055345D01*
X0042000Y0063255D01*
X0042731Y0065019D01*
X0043000Y0065288D01*
X0043000Y0092556D01*
X0043579Y0093953D01*
X0063000Y0113374D01*
X0063000Y0116850D01*
X0061350Y0116850D01*
X0060295Y0117905D01*
X0060295Y0118000D01*
X0028583Y0118000D01*
X0027187Y0118579D01*
X0007911Y0137854D01*
X0003600Y0137854D01*
X0003600Y0137335D02*
X0008431Y0137335D01*
X0009629Y0136136D02*
X0003600Y0136136D01*
X0003600Y0134938D02*
X0010828Y0134938D01*
X0012026Y0133739D02*
X0003600Y0133739D01*
X0003600Y0132541D02*
X0013225Y0132541D01*
X0014423Y0131342D02*
X0003600Y0131342D01*
X0003600Y0130144D02*
X0015622Y0130144D01*
X0016820Y0128945D02*
X0003600Y0128945D01*
X0003600Y0127747D02*
X0018019Y0127747D01*
X0019217Y0126548D02*
X0003600Y0126548D01*
X0003600Y0125350D02*
X0020416Y0125350D01*
X0021614Y0124151D02*
X0003600Y0124151D01*
X0003600Y0122953D02*
X0022813Y0122953D01*
X0024011Y0121754D02*
X0003600Y0121754D01*
X0003600Y0120556D02*
X0025210Y0120556D01*
X0026408Y0119357D02*
X0003600Y0119357D01*
X0003600Y0118159D02*
X0028201Y0118159D01*
X0026992Y0113365D02*
X0062991Y0113365D01*
X0063000Y0114563D02*
X0003600Y0114563D01*
X0003600Y0113365D02*
X0024797Y0113365D01*
X0022645Y0112166D02*
X0003600Y0112166D01*
X0003600Y0110968D02*
X0021662Y0110968D01*
X0021166Y0109769D02*
X0003600Y0109769D01*
X0003600Y0108570D02*
X0021083Y0108570D01*
X0021199Y0107372D02*
X0003600Y0107372D01*
X0003600Y0106173D02*
X0021594Y0106173D01*
X0021594Y0104975D02*
X0003600Y0104975D01*
X0003600Y0103776D02*
X0021594Y0103776D01*
X0021594Y0102578D02*
X0003600Y0102578D01*
X0003600Y0101379D02*
X0021594Y0101379D01*
X0021594Y0100181D02*
X0003600Y0100181D01*
X0003600Y0098982D02*
X0021590Y0098982D01*
X0021094Y0097784D02*
X0003600Y0097784D01*
X0003600Y0096585D02*
X0021083Y0096585D01*
X0021272Y0095387D02*
X0003600Y0095387D01*
X0003600Y0094188D02*
X0021594Y0094188D01*
X0021594Y0092990D02*
X0003600Y0092990D01*
X0003600Y0091791D02*
X0021594Y0091791D01*
X0021594Y0090593D02*
X0003600Y0090593D01*
X0003600Y0089394D02*
X0021594Y0089394D01*
X0021594Y0088196D02*
X0003600Y0088196D01*
X0003600Y0086997D02*
X0021594Y0086997D01*
X0021594Y0085799D02*
X0003600Y0085799D01*
X0003600Y0084600D02*
X0021594Y0084600D01*
X0021594Y0083402D02*
X0003600Y0083402D01*
X0003600Y0082203D02*
X0021594Y0082203D01*
X0021594Y0081005D02*
X0003600Y0081005D01*
X0003600Y0079806D02*
X0021594Y0079806D01*
X0021594Y0078608D02*
X0003600Y0078608D01*
X0003600Y0077409D02*
X0021594Y0077409D01*
X0021594Y0076211D02*
X0003600Y0076211D01*
X0003600Y0075012D02*
X0021594Y0075012D01*
X0021594Y0073814D02*
X0003600Y0073814D01*
X0003600Y0072615D02*
X0021594Y0072615D01*
X0021594Y0071417D02*
X0003600Y0071417D01*
X0003600Y0070218D02*
X0021594Y0070218D01*
X0021731Y0069020D02*
X0003600Y0069020D01*
X0003600Y0067821D02*
X0022228Y0067821D01*
X0022500Y0066623D02*
X0018907Y0066623D01*
X0019519Y0066369D02*
X0017755Y0067100D01*
X0015845Y0067100D01*
X0014081Y0066369D01*
X0012731Y0065019D01*
X0012000Y0063255D01*
X0012000Y0055345D01*
X0012731Y0053581D01*
X0014081Y0052231D01*
X0015845Y0051500D01*
X0017755Y0051500D01*
X0019519Y0052231D01*
X0020869Y0053581D01*
X0021600Y0055345D01*
X0021600Y0063255D01*
X0020869Y0065019D01*
X0019519Y0066369D01*
X0020464Y0065424D02*
X0022500Y0065424D01*
X0022402Y0064226D02*
X0021198Y0064226D01*
X0021600Y0063027D02*
X0022000Y0063027D01*
X0022000Y0061829D02*
X0021600Y0061829D01*
X0021600Y0060630D02*
X0022000Y0060630D01*
X0022000Y0059432D02*
X0021600Y0059432D01*
X0021600Y0058233D02*
X0022000Y0058233D01*
X0022000Y0057034D02*
X0021600Y0057034D01*
X0021600Y0055836D02*
X0022000Y0055836D01*
X0022293Y0054637D02*
X0021307Y0054637D01*
X0020727Y0053439D02*
X0022500Y0053439D01*
X0022500Y0052240D02*
X0019529Y0052240D01*
X0022500Y0051042D02*
X0003600Y0051042D01*
X0003600Y0052240D02*
X0014071Y0052240D01*
X0012873Y0053439D02*
X0003600Y0053439D01*
X0003600Y0054637D02*
X0012293Y0054637D01*
X0012000Y0055836D02*
X0003600Y0055836D01*
X0003600Y0057034D02*
X0012000Y0057034D01*
X0012000Y0058233D02*
X0003600Y0058233D01*
X0003600Y0059432D02*
X0012000Y0059432D01*
X0012000Y0060630D02*
X0003600Y0060630D01*
X0003600Y0061829D02*
X0012000Y0061829D01*
X0012000Y0063027D02*
X0003600Y0063027D01*
X0003600Y0064226D02*
X0012402Y0064226D01*
X0013136Y0065424D02*
X0003600Y0065424D01*
X0003600Y0066623D02*
X0014693Y0066623D01*
X0030194Y0072615D02*
X0043000Y0072615D01*
X0043000Y0071417D02*
X0030578Y0071417D01*
X0031074Y0070218D02*
X0043000Y0070218D01*
X0043000Y0069020D02*
X0031100Y0069020D01*
X0031100Y0067821D02*
X0043000Y0067821D01*
X0043000Y0066623D02*
X0038382Y0066623D01*
X0038566Y0066563D02*
X0037877Y0066787D01*
X0037200Y0066894D01*
X0037200Y0059700D01*
X0041400Y0059700D01*
X0041400Y0062662D01*
X0041287Y0063377D01*
X0041063Y0064066D01*
X0040734Y0064711D01*
X0040309Y0065297D01*
X0039797Y0065809D01*
X0039211Y0066234D01*
X0038566Y0066563D01*
X0037200Y0066623D02*
X0036400Y0066623D01*
X0036400Y0066894D02*
X0035723Y0066787D01*
X0035034Y0066563D01*
X0034389Y0066234D01*
X0033803Y0065809D01*
X0033291Y0065297D01*
X0032866Y0064711D01*
X0032537Y0064066D01*
X0032313Y0063377D01*
X0032200Y0062662D01*
X0032200Y0059700D01*
X0036400Y0059700D01*
X0036400Y0066894D01*
X0035218Y0066623D02*
X0031100Y0066623D01*
X0031100Y0065424D02*
X0033419Y0065424D01*
X0032618Y0064226D02*
X0031198Y0064226D01*
X0031600Y0063027D02*
X0032258Y0063027D01*
X0032200Y0061829D02*
X0031600Y0061829D01*
X0031600Y0060630D02*
X0032200Y0060630D01*
X0031600Y0059432D02*
X0036400Y0059432D01*
X0036400Y0059700D02*
X0036400Y0058900D01*
X0037200Y0058900D01*
X0037200Y0059700D01*
X0036400Y0059700D01*
X0036400Y0058900D02*
X0032200Y0058900D01*
X0032200Y0055938D01*
X0032313Y0055223D01*
X0032537Y0054534D01*
X0032866Y0053889D01*
X0033291Y0053303D01*
X0033803Y0052791D01*
X0034389Y0052366D01*
X0035034Y0052037D01*
X0035723Y0051813D01*
X0036400Y0051706D01*
X0036400Y0058900D01*
X0036400Y0058233D02*
X0037200Y0058233D01*
X0037200Y0058900D02*
X0037200Y0051706D01*
X0037877Y0051813D01*
X0038566Y0052037D01*
X0039211Y0052366D01*
X0039797Y0052791D01*
X0040309Y0053303D01*
X0040734Y0053889D01*
X0041063Y0054534D01*
X0041287Y0055223D01*
X0041400Y0055938D01*
X0041400Y0058900D01*
X0037200Y0058900D01*
X0037200Y0059432D02*
X0042000Y0059432D01*
X0042000Y0060630D02*
X0041400Y0060630D01*
X0041400Y0061829D02*
X0042000Y0061829D01*
X0042000Y0063027D02*
X0041342Y0063027D01*
X0040982Y0064226D02*
X0042402Y0064226D01*
X0043000Y0065424D02*
X0040181Y0065424D01*
X0037200Y0065424D02*
X0036400Y0065424D01*
X0036400Y0064226D02*
X0037200Y0064226D01*
X0037200Y0063027D02*
X0036400Y0063027D01*
X0036400Y0061829D02*
X0037200Y0061829D01*
X0037200Y0060630D02*
X0036400Y0060630D01*
X0036400Y0057034D02*
X0037200Y0057034D01*
X0037200Y0055836D02*
X0036400Y0055836D01*
X0036400Y0054637D02*
X0037200Y0054637D01*
X0037200Y0053439D02*
X0036400Y0053439D01*
X0036400Y0052240D02*
X0037200Y0052240D01*
X0038965Y0052240D02*
X0044071Y0052240D01*
X0042873Y0053439D02*
X0040407Y0053439D01*
X0041097Y0054637D02*
X0042293Y0054637D01*
X0042000Y0055836D02*
X0041384Y0055836D01*
X0041400Y0057034D02*
X0042000Y0057034D01*
X0042000Y0058233D02*
X0041400Y0058233D01*
X0034635Y0052240D02*
X0031100Y0052240D01*
X0031100Y0051042D02*
X0061500Y0051042D01*
X0061500Y0050845D02*
X0062231Y0049081D01*
X0063581Y0047731D01*
X0065345Y0047000D01*
X0073255Y0047000D01*
X0074462Y0047500D01*
X0076419Y0047500D01*
X0075019Y0046100D01*
X0074462Y0046100D01*
X0073255Y0046600D01*
X0065345Y0046600D01*
X0063581Y0045869D01*
X0062231Y0044519D01*
X0061500Y0042755D01*
X0061500Y0040845D01*
X0062231Y0039081D01*
X0063581Y0037731D01*
X0065345Y0037000D01*
X0073255Y0037000D01*
X0074462Y0037500D01*
X0077655Y0037500D01*
X0079236Y0038155D01*
X0104236Y0063155D01*
X0105445Y0064364D01*
X0106100Y0065945D01*
X0106100Y0090019D01*
X0113581Y0097500D01*
X0122655Y0097500D01*
X0124236Y0098155D01*
X0134236Y0108155D01*
X0135445Y0109364D01*
X0136100Y0110945D01*
X0136100Y0121061D01*
X0135445Y0122641D01*
X0129112Y0128975D01*
X0129112Y0131463D01*
X0128057Y0132517D01*
X0120543Y0132517D01*
X0119488Y0131463D01*
X0119488Y0123948D01*
X0120543Y0122894D01*
X0123031Y0122894D01*
X0125218Y0120706D01*
X0123343Y0120706D01*
X0121574Y0119974D01*
X0120221Y0118620D01*
X0119488Y0116852D01*
X0119488Y0115569D01*
X0117519Y0113600D01*
X0116747Y0113600D01*
X0117301Y0114937D01*
X0117301Y0116852D01*
X0116568Y0118620D01*
X0115215Y0119974D01*
X0113446Y0120706D01*
X0113389Y0120706D01*
X0112439Y0121100D01*
X0107181Y0121100D01*
X0108581Y0122500D01*
X0112439Y0122500D01*
X0113389Y0122894D01*
X0113446Y0122894D01*
X0115215Y0123626D01*
X0116568Y0124980D01*
X0117301Y0126748D01*
X0117301Y0128663D01*
X0116568Y0130431D01*
X0115215Y0131785D01*
X0113446Y0132517D01*
X0111532Y0132517D01*
X0109763Y0131785D01*
X0109079Y0131100D01*
X0105945Y0131100D01*
X0104364Y0130445D01*
X0103155Y0129236D01*
X0075655Y0101736D01*
X0075000Y0100155D01*
X0075000Y0095524D01*
X0074711Y0095734D01*
X0074066Y0096063D01*
X0073377Y0096287D01*
X0072662Y0096400D01*
X0069700Y0096400D01*
X0069700Y0092200D01*
X0068900Y0092200D01*
X0068900Y0096400D01*
X0065938Y0096400D01*
X0065223Y0096287D01*
X0064534Y0096063D01*
X0063889Y0095734D01*
X0063303Y0095309D01*
X0062791Y0094797D01*
X0062366Y0094211D01*
X0062037Y0093566D01*
X0061813Y0092877D01*
X0061706Y0092200D01*
X0068900Y0092200D01*
X0068900Y0091400D01*
X0069700Y0091400D01*
X0069700Y0087200D01*
X0072662Y0087200D01*
X0073377Y0087313D01*
X0074066Y0087537D01*
X0074711Y0087866D01*
X0075000Y0088076D01*
X0075000Y0085877D01*
X0073255Y0086600D01*
X0065345Y0086600D01*
X0063581Y0085869D01*
X0062231Y0084519D01*
X0061500Y0082755D01*
X0061500Y0080845D01*
X0062231Y0079081D01*
X0063581Y0077731D01*
X0065345Y0077000D01*
X0073255Y0077000D01*
X0075000Y0077723D01*
X0075000Y0076100D01*
X0074462Y0076100D01*
X0073255Y0076600D01*
X0065345Y0076600D01*
X0063581Y0075869D01*
X0062231Y0074519D01*
X0061500Y0072755D01*
X0061500Y0070845D01*
X0062231Y0069081D01*
X0063581Y0067731D01*
X0065345Y0067000D01*
X0073255Y0067000D01*
X0074462Y0067500D01*
X0076419Y0067500D01*
X0075019Y0066100D01*
X0074462Y0066100D01*
X0073255Y0066600D01*
X0065345Y0066600D01*
X0063581Y0065869D01*
X0062231Y0064519D01*
X0061500Y0062755D01*
X0061500Y0060845D01*
X0062231Y0059081D01*
X0063581Y0057731D01*
X0065345Y0057000D01*
X0073255Y0057000D01*
X0074462Y0057500D01*
X0076419Y0057500D01*
X0075019Y0056100D01*
X0074462Y0056100D01*
X0073255Y0056600D01*
X0065345Y0056600D01*
X0063581Y0055869D01*
X0062231Y0054519D01*
X0061500Y0052755D01*
X0061500Y0050845D01*
X0061915Y0049843D02*
X0031100Y0049843D01*
X0031100Y0048645D02*
X0062667Y0048645D01*
X0064267Y0047446D02*
X0031100Y0047446D01*
X0031100Y0046248D02*
X0064495Y0046248D01*
X0062761Y0045049D02*
X0031100Y0045049D01*
X0031100Y0043851D02*
X0061954Y0043851D01*
X0061500Y0042652D02*
X0031100Y0042652D01*
X0031100Y0041454D02*
X0061500Y0041454D01*
X0061744Y0040255D02*
X0031100Y0040255D01*
X0031100Y0039057D02*
X0062255Y0039057D01*
X0063453Y0037858D02*
X0031823Y0037858D01*
X0033021Y0036660D02*
X0082050Y0036660D01*
X0082050Y0035461D02*
X0075087Y0035461D01*
X0075297Y0035309D02*
X0074711Y0035734D01*
X0074066Y0036063D01*
X0073377Y0036287D01*
X0072662Y0036400D01*
X0069700Y0036400D01*
X0069700Y0032200D01*
X0068900Y0032200D01*
X0068900Y0036400D01*
X0065938Y0036400D01*
X0065223Y0036287D01*
X0064534Y0036063D01*
X0063889Y0035734D01*
X0063303Y0035309D01*
X0062791Y0034797D01*
X0062366Y0034211D01*
X0062037Y0033566D01*
X0061813Y0032877D01*
X0061706Y0032200D01*
X0068900Y0032200D01*
X0068900Y0031400D01*
X0069700Y0031400D01*
X0069700Y0032200D01*
X0076894Y0032200D01*
X0076787Y0032877D01*
X0076563Y0033566D01*
X0076234Y0034211D01*
X0075809Y0034797D01*
X0075297Y0035309D01*
X0076197Y0034263D02*
X0082050Y0034263D01*
X0082050Y0033064D02*
X0076726Y0033064D01*
X0076894Y0031400D02*
X0069700Y0031400D01*
X0069700Y0027200D01*
X0072662Y0027200D01*
X0073377Y0027313D01*
X0074066Y0027537D01*
X0074711Y0027866D01*
X0075297Y0028291D01*
X0075809Y0028803D01*
X0076234Y0029389D01*
X0076563Y0030034D01*
X0076787Y0030723D01*
X0076894Y0031400D01*
X0076769Y0030667D02*
X0082050Y0030667D01*
X0082050Y0029469D02*
X0076275Y0029469D01*
X0075268Y0028270D02*
X0082050Y0028270D01*
X0082050Y0027072D02*
X0042609Y0027072D01*
X0041411Y0028270D02*
X0063332Y0028270D01*
X0063303Y0028291D02*
X0063889Y0027866D01*
X0064534Y0027537D01*
X0065223Y0027313D01*
X0065938Y0027200D01*
X0068900Y0027200D01*
X0068900Y0031400D01*
X0061706Y0031400D01*
X0061813Y0030723D01*
X0062037Y0030034D01*
X0062366Y0029389D01*
X0062791Y0028803D01*
X0063303Y0028291D01*
X0062325Y0029469D02*
X0040212Y0029469D01*
X0039014Y0030667D02*
X0061831Y0030667D01*
X0061874Y0033064D02*
X0036617Y0033064D01*
X0037815Y0031866D02*
X0068900Y0031866D01*
X0069700Y0031866D02*
X0086200Y0031866D01*
X0086200Y0033064D02*
X0087400Y0033064D01*
X0087400Y0031866D02*
X0111500Y0031866D01*
X0111574Y0030667D02*
X0091550Y0030667D01*
X0091550Y0029469D02*
X0112070Y0029469D01*
X0113042Y0028270D02*
X0091550Y0028270D01*
X0091550Y0027072D02*
X0115172Y0027072D01*
X0113591Y0025873D02*
X0091500Y0025873D01*
X0090183Y0024675D02*
X0112386Y0024675D01*
X0111799Y0023476D02*
X0091350Y0023476D01*
X0091750Y0022278D02*
X0111500Y0022278D01*
X0111500Y0021079D02*
X0091750Y0021079D01*
X0091750Y0019881D02*
X0111900Y0019881D01*
X0112630Y0018682D02*
X0091750Y0018682D01*
X0092611Y0017484D02*
X0114178Y0017484D01*
X0124422Y0017484D02*
X0254178Y0017484D01*
X0253581Y0017731D02*
X0255345Y0017000D01*
X0263255Y0017000D01*
X0265019Y0017731D01*
X0266369Y0019081D01*
X0267100Y0020845D01*
X0267100Y0022755D01*
X0266369Y0024519D01*
X0265019Y0025869D01*
X0263255Y0026600D01*
X0255345Y0026600D01*
X0253581Y0025869D01*
X0252494Y0024783D01*
X0250773Y0026504D01*
X0249817Y0026900D01*
X0226419Y0026900D01*
X0226369Y0027019D01*
X0225019Y0028369D01*
X0223255Y0029100D01*
X0215345Y0029100D01*
X0213581Y0028369D01*
X0212231Y0027019D01*
X0211500Y0025255D01*
X0211500Y0023345D01*
X0212231Y0021581D01*
X0213581Y0020231D01*
X0215345Y0019500D01*
X0223255Y0019500D01*
X0225019Y0020231D01*
X0226369Y0021581D01*
X0226419Y0021700D01*
X0248223Y0021700D01*
X0249596Y0020327D01*
X0250327Y0019596D01*
X0251283Y0019200D01*
X0252181Y0019200D01*
X0252231Y0019081D01*
X0253581Y0017731D01*
X0252630Y0018682D02*
X0125970Y0018682D01*
X0126214Y0024675D02*
X0148498Y0024675D01*
X0149696Y0025873D02*
X0125009Y0025873D01*
X0123428Y0027072D02*
X0150385Y0027072D01*
X0149153Y0028270D02*
X0138296Y0028270D01*
X0138915Y0029469D02*
X0147954Y0029469D01*
X0146756Y0030667D02*
X0138915Y0030667D01*
X0138915Y0031866D02*
X0145557Y0031866D01*
X0144359Y0033064D02*
X0138915Y0033064D01*
X0138915Y0034263D02*
X0143160Y0034263D01*
X0141962Y0035461D02*
X0138165Y0035461D01*
X0137746Y0036660D02*
X0140763Y0036660D01*
X0139565Y0037858D02*
X0137884Y0037858D01*
X0132546Y0036660D02*
X0091550Y0036660D01*
X0091550Y0035461D02*
X0113173Y0035461D01*
X0112125Y0034263D02*
X0091550Y0034263D01*
X0091550Y0033064D02*
X0111628Y0033064D01*
X0113453Y0037858D02*
X0090805Y0037858D01*
X0087400Y0037858D02*
X0086200Y0037858D01*
X0086200Y0036660D02*
X0087400Y0036660D01*
X0087400Y0035461D02*
X0086200Y0035461D01*
X0086200Y0034263D02*
X0087400Y0034263D01*
X0087400Y0030667D02*
X0086200Y0030667D01*
X0086200Y0029469D02*
X0087400Y0029469D01*
X0087400Y0028270D02*
X0086200Y0028270D01*
X0086200Y0027072D02*
X0087400Y0027072D01*
X0087400Y0025873D02*
X0086200Y0025873D01*
X0086200Y0024675D02*
X0087400Y0024675D01*
X0080449Y0017484D02*
X0074422Y0017484D01*
X0081647Y0016285D02*
X0024744Y0016285D01*
X0024899Y0015911D02*
X0023666Y0018888D01*
X0021388Y0021166D01*
X0018411Y0022399D01*
X0015189Y0022399D01*
X0012212Y0021166D01*
X0009934Y0018888D01*
X0008701Y0015911D01*
X0008701Y0012689D01*
X0009934Y0009712D01*
X0012212Y0007434D01*
X0015189Y0006201D01*
X0018411Y0006201D01*
X0021388Y0007434D01*
X0023666Y0009712D01*
X0024899Y0012689D01*
X0024899Y0015911D01*
X0024899Y0015087D02*
X0081850Y0015087D01*
X0081850Y0013888D02*
X0024899Y0013888D01*
X0024899Y0012690D02*
X0081850Y0012690D01*
X0081850Y0011491D02*
X0024403Y0011491D01*
X0023907Y0010293D02*
X0087640Y0010293D01*
X0088838Y0009094D02*
X0023048Y0009094D01*
X0021850Y0007896D02*
X0090037Y0007896D01*
X0091235Y0006697D02*
X0019609Y0006697D01*
X0013991Y0006697D02*
X0003600Y0006697D01*
X0003600Y0005499D02*
X0092434Y0005499D01*
X0093632Y0004300D02*
X0003600Y0004300D01*
X0003600Y0007896D02*
X0011750Y0007896D01*
X0010552Y0009094D02*
X0003600Y0009094D01*
X0003600Y0010293D02*
X0009693Y0010293D01*
X0009197Y0011491D02*
X0003600Y0011491D01*
X0003600Y0012690D02*
X0008701Y0012690D01*
X0008701Y0013888D02*
X0003600Y0013888D01*
X0003600Y0015087D02*
X0008701Y0015087D01*
X0008856Y0016285D02*
X0003600Y0016285D01*
X0003600Y0017484D02*
X0009352Y0017484D01*
X0009849Y0018682D02*
X0003600Y0018682D01*
X0003600Y0019881D02*
X0010927Y0019881D01*
X0012125Y0021079D02*
X0003600Y0021079D01*
X0003600Y0022278D02*
X0014896Y0022278D01*
X0018704Y0022278D02*
X0035241Y0022278D01*
X0034043Y0023476D02*
X0003600Y0023476D01*
X0003600Y0024675D02*
X0032844Y0024675D01*
X0031646Y0025873D02*
X0003600Y0025873D01*
X0003600Y0027072D02*
X0030447Y0027072D01*
X0029249Y0028270D02*
X0003600Y0028270D01*
X0003600Y0029469D02*
X0028050Y0029469D01*
X0026852Y0030667D02*
X0003600Y0030667D01*
X0003600Y0031866D02*
X0025653Y0031866D01*
X0024455Y0033064D02*
X0003600Y0033064D01*
X0003600Y0034263D02*
X0023256Y0034263D01*
X0022700Y0035461D02*
X0003600Y0035461D01*
X0003600Y0036660D02*
X0022500Y0036660D01*
X0022500Y0037858D02*
X0003600Y0037858D01*
X0003600Y0039057D02*
X0022500Y0039057D01*
X0022500Y0040255D02*
X0003600Y0040255D01*
X0003600Y0041454D02*
X0022500Y0041454D01*
X0022500Y0042652D02*
X0003600Y0042652D01*
X0003600Y0043851D02*
X0022500Y0043851D01*
X0022500Y0045049D02*
X0003600Y0045049D01*
X0003600Y0046248D02*
X0022500Y0046248D01*
X0022500Y0047446D02*
X0003600Y0047446D01*
X0003600Y0048645D02*
X0022500Y0048645D01*
X0022500Y0049843D02*
X0003600Y0049843D01*
X0031100Y0053439D02*
X0033193Y0053439D01*
X0032503Y0054637D02*
X0031307Y0054637D01*
X0031600Y0055836D02*
X0032216Y0055836D01*
X0032200Y0057034D02*
X0031600Y0057034D01*
X0031600Y0058233D02*
X0032200Y0058233D01*
X0049529Y0052240D02*
X0061500Y0052240D01*
X0061783Y0053439D02*
X0050727Y0053439D01*
X0051307Y0054637D02*
X0062349Y0054637D01*
X0063548Y0055836D02*
X0051600Y0055836D01*
X0051600Y0057034D02*
X0065262Y0057034D01*
X0063079Y0058233D02*
X0051600Y0058233D01*
X0051600Y0059432D02*
X0062086Y0059432D01*
X0061589Y0060630D02*
X0051600Y0060630D01*
X0051600Y0061829D02*
X0061500Y0061829D01*
X0061613Y0063027D02*
X0051600Y0063027D01*
X0051198Y0064226D02*
X0062109Y0064226D01*
X0063136Y0065424D02*
X0050600Y0065424D01*
X0050600Y0066623D02*
X0075541Y0066623D01*
X0075000Y0076211D02*
X0074195Y0076211D01*
X0074243Y0077409D02*
X0075000Y0077409D01*
X0064405Y0076211D02*
X0050600Y0076211D01*
X0050600Y0077409D02*
X0064357Y0077409D01*
X0062704Y0078608D02*
X0050600Y0078608D01*
X0050600Y0079806D02*
X0061930Y0079806D01*
X0061500Y0081005D02*
X0050600Y0081005D01*
X0050600Y0082203D02*
X0061500Y0082203D01*
X0061768Y0083402D02*
X0050600Y0083402D01*
X0050600Y0084600D02*
X0062312Y0084600D01*
X0063511Y0085799D02*
X0050600Y0085799D01*
X0050600Y0086997D02*
X0075000Y0086997D01*
X0069700Y0088196D02*
X0068900Y0088196D01*
X0068900Y0087200D02*
X0068900Y0091400D01*
X0061706Y0091400D01*
X0061813Y0090723D01*
X0062037Y0090034D01*
X0062366Y0089389D01*
X0062791Y0088803D01*
X0063303Y0088291D01*
X0063889Y0087866D01*
X0064534Y0087537D01*
X0065223Y0087313D01*
X0065938Y0087200D01*
X0068900Y0087200D01*
X0068900Y0089394D02*
X0069700Y0089394D01*
X0069700Y0090593D02*
X0068900Y0090593D01*
X0068900Y0091791D02*
X0052165Y0091791D01*
X0050967Y0090593D02*
X0061855Y0090593D01*
X0062363Y0089394D02*
X0050600Y0089394D01*
X0050600Y0088196D02*
X0063435Y0088196D01*
X0061850Y0092990D02*
X0053364Y0092990D01*
X0054562Y0094188D02*
X0062354Y0094188D01*
X0063411Y0095387D02*
X0055761Y0095387D01*
X0056959Y0096585D02*
X0075000Y0096585D01*
X0075000Y0097784D02*
X0058158Y0097784D01*
X0059356Y0098982D02*
X0075000Y0098982D01*
X0075011Y0100181D02*
X0060555Y0100181D01*
X0061753Y0101379D02*
X0075507Y0101379D01*
X0076497Y0102578D02*
X0062952Y0102578D01*
X0064150Y0103776D02*
X0077695Y0103776D01*
X0078894Y0104975D02*
X0065349Y0104975D01*
X0066547Y0106173D02*
X0080092Y0106173D01*
X0081291Y0107372D02*
X0067746Y0107372D01*
X0068944Y0108570D02*
X0082489Y0108570D01*
X0083688Y0109769D02*
X0070072Y0109769D01*
X0070568Y0110968D02*
X0084886Y0110968D01*
X0086085Y0112166D02*
X0070600Y0112166D01*
X0070600Y0113365D02*
X0087283Y0113365D01*
X0088482Y0114563D02*
X0070600Y0114563D01*
X0070600Y0115762D02*
X0089680Y0115762D01*
X0090879Y0116960D02*
X0073187Y0116960D01*
X0074131Y0118159D02*
X0074744Y0118159D01*
X0074778Y0118033D02*
X0074988Y0117668D01*
X0075286Y0117370D01*
X0075651Y0117159D01*
X0076058Y0117050D01*
X0080787Y0117050D01*
X0080787Y0121200D01*
X0081987Y0121200D01*
X0081987Y0122400D01*
X0088105Y0122400D01*
X0088105Y0125160D01*
X0087996Y0125567D01*
X0087785Y0125932D01*
X0087487Y0126230D01*
X0087122Y0126441D01*
X0086715Y0126550D01*
X0081987Y0126550D01*
X0081987Y0122400D01*
X0080787Y0122400D01*
X0080787Y0126550D01*
X0076058Y0126550D01*
X0075651Y0126441D01*
X0075286Y0126230D01*
X0074988Y0125932D01*
X0074778Y0125567D01*
X0074669Y0125160D01*
X0074669Y0122400D01*
X0080787Y0122400D01*
X0080787Y0121200D01*
X0074669Y0121200D01*
X0074669Y0118440D01*
X0074778Y0118033D01*
X0074669Y0119357D02*
X0074131Y0119357D01*
X0074131Y0120556D02*
X0074669Y0120556D01*
X0074131Y0121754D02*
X0080787Y0121754D01*
X0080787Y0120556D02*
X0081987Y0120556D01*
X0081987Y0121200D02*
X0081987Y0117050D01*
X0086715Y0117050D01*
X0087122Y0117159D01*
X0087487Y0117370D01*
X0087785Y0117668D01*
X0087996Y0118033D01*
X0088105Y0118440D01*
X0088105Y0121200D01*
X0081987Y0121200D01*
X0081987Y0121754D02*
X0095673Y0121754D01*
X0094474Y0120556D02*
X0088105Y0120556D01*
X0088105Y0119357D02*
X0093276Y0119357D01*
X0092077Y0118159D02*
X0088029Y0118159D01*
X0088105Y0122953D02*
X0096872Y0122953D01*
X0098070Y0124151D02*
X0088105Y0124151D01*
X0088054Y0125350D02*
X0099269Y0125350D01*
X0100467Y0126548D02*
X0086721Y0126548D01*
X0081987Y0126548D02*
X0080787Y0126548D01*
X0080787Y0125350D02*
X0081987Y0125350D01*
X0081987Y0124151D02*
X0080787Y0124151D01*
X0080787Y0122953D02*
X0081987Y0122953D01*
X0081987Y0119357D02*
X0080787Y0119357D01*
X0080787Y0118159D02*
X0081987Y0118159D01*
X0074669Y0122953D02*
X0074131Y0122953D01*
X0074131Y0124151D02*
X0074669Y0124151D01*
X0074719Y0125350D02*
X0074131Y0125350D01*
X0073279Y0126548D02*
X0076052Y0126548D01*
X0070613Y0127747D02*
X0101666Y0127747D01*
X0102864Y0128945D02*
X0070613Y0128945D01*
X0070613Y0130144D02*
X0104063Y0130144D01*
X0109321Y0131342D02*
X0070613Y0131342D01*
X0070415Y0132541D02*
X0152035Y0132541D01*
X0152037Y0132534D02*
X0152366Y0131889D01*
X0152791Y0131303D01*
X0153303Y0130791D01*
X0153889Y0130366D01*
X0154534Y0130037D01*
X0155223Y0129813D01*
X0155938Y0129700D01*
X0158900Y0129700D01*
X0158900Y0133900D01*
X0159700Y0133900D01*
X0159700Y0134700D01*
X0158900Y0134700D01*
X0158900Y0138900D01*
X0155938Y0138900D01*
X0155223Y0138787D01*
X0154534Y0138563D01*
X0153889Y0138234D01*
X0153303Y0137809D01*
X0152791Y0137297D01*
X0152366Y0136711D01*
X0152037Y0136066D01*
X0151813Y0135377D01*
X0151706Y0134700D01*
X0158900Y0134700D01*
X0158900Y0133900D01*
X0151706Y0133900D01*
X0151813Y0133223D01*
X0152037Y0132534D01*
X0151731Y0133739D02*
X0069669Y0133739D01*
X0068471Y0134938D02*
X0151744Y0134938D01*
X0152073Y0136136D02*
X0067272Y0136136D01*
X0066074Y0137335D02*
X0152829Y0137335D01*
X0154476Y0138533D02*
X0080737Y0138533D01*
X0081195Y0139732D02*
X0154786Y0139732D01*
X0155345Y0139500D02*
X0153581Y0140231D01*
X0152231Y0141581D01*
X0151500Y0143345D01*
X0151500Y0145255D01*
X0152231Y0147019D01*
X0153581Y0148369D01*
X0155345Y0149100D01*
X0163255Y0149100D01*
X0165019Y0148369D01*
X0166369Y0147019D01*
X0167100Y0145255D01*
X0167100Y0143345D01*
X0166369Y0141581D01*
X0165019Y0140231D01*
X0163255Y0139500D01*
X0155345Y0139500D01*
X0152881Y0140930D02*
X0081195Y0140930D01*
X0081195Y0143327D02*
X0151507Y0143327D01*
X0151500Y0144526D02*
X0081195Y0144526D01*
X0080465Y0145724D02*
X0151695Y0145724D01*
X0152191Y0146923D02*
X0081395Y0146923D01*
X0081395Y0148121D02*
X0153333Y0148121D01*
X0153293Y0150518D02*
X0081395Y0150518D01*
X0081395Y0149320D02*
X0169200Y0149320D01*
X0169200Y0150518D02*
X0165307Y0150518D01*
X0166426Y0151717D02*
X0169200Y0151717D01*
X0169200Y0152915D02*
X0166922Y0152915D01*
X0167791Y0154114D02*
X0169200Y0154114D01*
X0169200Y0155312D02*
X0168989Y0155312D01*
X0165231Y0158908D02*
X0163718Y0158908D01*
X0164719Y0160106D02*
X0166430Y0160106D01*
X0166700Y0161305D02*
X0166093Y0161305D01*
X0174400Y0161305D02*
X0181364Y0161305D01*
X0181201Y0160911D02*
X0181201Y0157689D01*
X0182434Y0154712D01*
X0184712Y0152434D01*
X0187689Y0151201D01*
X0190911Y0151201D01*
X0193888Y0152434D01*
X0196166Y0154712D01*
X0197399Y0157689D01*
X0197399Y0160911D01*
X0196166Y0163888D01*
X0193888Y0166166D01*
X0190911Y0167399D01*
X0187689Y0167399D01*
X0184712Y0166166D01*
X0182434Y0163888D01*
X0181201Y0160911D01*
X0181201Y0160106D02*
X0174400Y0160106D01*
X0174400Y0158908D02*
X0181201Y0158908D01*
X0181201Y0157709D02*
X0174400Y0157709D01*
X0174400Y0156511D02*
X0181689Y0156511D01*
X0182185Y0155312D02*
X0174400Y0155312D01*
X0174400Y0154114D02*
X0183032Y0154114D01*
X0184231Y0152915D02*
X0174400Y0152915D01*
X0174400Y0151717D02*
X0186443Y0151717D01*
X0192157Y0151717D02*
X0205900Y0151717D01*
X0205900Y0152915D02*
X0194369Y0152915D01*
X0195568Y0154114D02*
X0205900Y0154114D01*
X0205900Y0155312D02*
X0196415Y0155312D01*
X0196911Y0156511D02*
X0205900Y0156511D01*
X0205900Y0157709D02*
X0197399Y0157709D01*
X0197399Y0158908D02*
X0205900Y0158908D01*
X0205900Y0160106D02*
X0197399Y0160106D01*
X0197236Y0161305D02*
X0205900Y0161305D01*
X0205900Y0162503D02*
X0196740Y0162503D01*
X0196243Y0163702D02*
X0205900Y0163702D01*
X0205900Y0164901D02*
X0195153Y0164901D01*
X0193955Y0166099D02*
X0205900Y0166099D01*
X0205900Y0167298D02*
X0191156Y0167298D01*
X0187444Y0167298D02*
X0174400Y0167298D01*
X0174400Y0168496D02*
X0205900Y0168496D01*
X0205900Y0169695D02*
X0174400Y0169695D01*
X0173884Y0170893D02*
X0205900Y0170893D01*
X0205900Y0172092D02*
X0172685Y0172092D01*
X0171487Y0173290D02*
X0205900Y0173290D01*
X0205900Y0174489D02*
X0170288Y0174489D01*
X0169090Y0175687D02*
X0198142Y0175687D01*
X0200458Y0175687D02*
X0205900Y0175687D01*
X0205900Y0176886D02*
X0202233Y0176886D01*
X0202889Y0178084D02*
X0205900Y0178084D01*
X0205900Y0179283D02*
X0203081Y0179283D01*
X0202903Y0180481D02*
X0205900Y0180481D01*
X0205900Y0181680D02*
X0202268Y0181680D01*
X0200542Y0182878D02*
X0205900Y0182878D01*
X0205900Y0184077D02*
X0127776Y0184077D01*
X0128902Y0185275D02*
X0205900Y0185275D01*
X0205900Y0186474D02*
X0130101Y0186474D01*
X0131299Y0187672D02*
X0205900Y0187672D01*
X0205900Y0188871D02*
X0132498Y0188871D01*
X0133696Y0190069D02*
X0205900Y0190069D01*
X0212700Y0190069D02*
X0283892Y0190069D01*
X0282694Y0188871D02*
X0212700Y0188871D01*
X0212700Y0187672D02*
X0281495Y0187672D01*
X0280297Y0186474D02*
X0212700Y0186474D01*
X0212700Y0185275D02*
X0279098Y0185275D01*
X0277900Y0184077D02*
X0212700Y0184077D01*
X0212700Y0182878D02*
X0276701Y0182878D01*
X0275503Y0181680D02*
X0212700Y0181680D01*
X0212700Y0180481D02*
X0274304Y0180481D01*
X0273106Y0179283D02*
X0212700Y0179283D01*
X0212700Y0178084D02*
X0271907Y0178084D01*
X0270709Y0176886D02*
X0212700Y0176886D01*
X0212700Y0175687D02*
X0269560Y0175687D01*
X0269200Y0174489D02*
X0212700Y0174489D01*
X0212700Y0173290D02*
X0269200Y0173290D01*
X0269200Y0172092D02*
X0212700Y0172092D01*
X0212700Y0170893D02*
X0269200Y0170893D01*
X0269200Y0169695D02*
X0212700Y0169695D01*
X0212700Y0168496D02*
X0213887Y0168496D01*
X0224713Y0168496D02*
X0269200Y0168496D01*
X0269200Y0167298D02*
X0226091Y0167298D01*
X0226750Y0166099D02*
X0269200Y0166099D01*
X0269200Y0164901D02*
X0227100Y0164901D01*
X0227100Y0163702D02*
X0269200Y0163702D01*
X0269200Y0162503D02*
X0226751Y0162503D01*
X0226093Y0161305D02*
X0269200Y0161305D01*
X0269200Y0160106D02*
X0224719Y0160106D01*
X0225396Y0157709D02*
X0269200Y0157709D01*
X0269200Y0156511D02*
X0226336Y0156511D01*
X0226797Y0155312D02*
X0269200Y0155312D01*
X0269200Y0154114D02*
X0219700Y0154114D01*
X0219700Y0155312D02*
X0218900Y0155312D01*
X0218900Y0156511D02*
X0219700Y0156511D01*
X0219700Y0157709D02*
X0218900Y0157709D01*
X0213881Y0160106D02*
X0212700Y0160106D01*
X0212700Y0158908D02*
X0269200Y0158908D01*
X0274400Y0158908D02*
X0301240Y0158908D01*
X0301240Y0157709D02*
X0274400Y0157709D01*
X0274400Y0156511D02*
X0301240Y0156511D01*
X0301240Y0155312D02*
X0274400Y0155312D01*
X0274400Y0154114D02*
X0301240Y0154114D01*
X0301240Y0152915D02*
X0274400Y0152915D01*
X0274400Y0151717D02*
X0301240Y0151717D01*
X0301240Y0150518D02*
X0274083Y0150518D01*
X0272997Y0149320D02*
X0301240Y0149320D01*
X0301319Y0148121D02*
X0271798Y0148121D01*
X0270600Y0146923D02*
X0318544Y0146923D01*
X0317391Y0145724D02*
X0316209Y0145724D01*
X0310698Y0145724D02*
X0286553Y0145724D01*
X0287751Y0144526D02*
X0309685Y0144526D01*
X0309685Y0143327D02*
X0288950Y0143327D01*
X0290148Y0142129D02*
X0309685Y0142129D01*
X0309685Y0140930D02*
X0291347Y0140930D01*
X0292545Y0139732D02*
X0309685Y0139732D01*
X0310041Y0138533D02*
X0293744Y0138533D01*
X0294942Y0137335D02*
X0310454Y0137335D01*
X0310454Y0136136D02*
X0296141Y0136136D01*
X0297339Y0134938D02*
X0310454Y0134938D01*
X0310472Y0133739D02*
X0298538Y0133739D01*
X0299736Y0132541D02*
X0310472Y0132541D01*
X0311110Y0131342D02*
X0300935Y0131342D01*
X0302133Y0130144D02*
X0353967Y0130144D01*
X0355165Y0131342D02*
X0337490Y0131342D01*
X0338128Y0132541D02*
X0356364Y0132541D01*
X0357562Y0133739D02*
X0338128Y0133739D01*
X0338146Y0134938D02*
X0358761Y0134938D01*
X0359200Y0136136D02*
X0338146Y0136136D01*
X0338146Y0137335D02*
X0359200Y0137335D01*
X0359200Y0138533D02*
X0338559Y0138533D01*
X0338915Y0139732D02*
X0359200Y0139732D01*
X0359200Y0140930D02*
X0338915Y0140930D01*
X0338915Y0142129D02*
X0359200Y0142129D01*
X0359200Y0143327D02*
X0338915Y0143327D01*
X0338915Y0144526D02*
X0359200Y0144526D01*
X0359200Y0145724D02*
X0337902Y0145724D01*
X0343207Y0148121D02*
X0343976Y0148121D01*
X0343976Y0147346D02*
X0345770Y0147346D01*
X0346177Y0147455D01*
X0346542Y0147665D01*
X0346840Y0147963D01*
X0347051Y0148328D01*
X0347160Y0148735D01*
X0347160Y0153384D01*
X0343976Y0153384D01*
X0343976Y0147346D01*
X0343976Y0149320D02*
X0343207Y0149320D01*
X0343207Y0150518D02*
X0343976Y0150518D01*
X0343976Y0151717D02*
X0343207Y0151717D01*
X0343207Y0152915D02*
X0343976Y0152915D01*
X0343976Y0154114D02*
X0348309Y0154114D01*
X0347160Y0152915D02*
X0349508Y0152915D01*
X0350519Y0151717D02*
X0347160Y0151717D01*
X0347160Y0150518D02*
X0350738Y0150518D01*
X0351433Y0149320D02*
X0347160Y0149320D01*
X0346931Y0148121D02*
X0353301Y0148121D01*
X0355299Y0148121D02*
X0359200Y0148121D01*
X0359200Y0146923D02*
X0330056Y0146923D01*
X0331209Y0145724D02*
X0332391Y0145724D01*
X0324685Y0140930D02*
X0323915Y0140930D01*
X0323915Y0139732D02*
X0324685Y0139732D01*
X0325041Y0138533D02*
X0323559Y0138533D01*
X0321999Y0137335D02*
X0326601Y0137335D01*
X0326655Y0137366D02*
X0326290Y0137155D01*
X0325992Y0136857D01*
X0325781Y0136492D01*
X0325672Y0136085D01*
X0325672Y0134487D01*
X0328660Y0134487D01*
X0328660Y0137475D01*
X0327062Y0137475D01*
X0326655Y0137366D01*
X0325686Y0136136D02*
X0322914Y0136136D01*
X0322928Y0134938D02*
X0325672Y0134938D01*
X0325672Y0133739D02*
X0322928Y0133739D01*
X0322928Y0134113D02*
X0319940Y0134113D01*
X0319940Y0131125D01*
X0321538Y0131125D01*
X0321945Y0131234D01*
X0322310Y0131445D01*
X0322608Y0131743D01*
X0322819Y0132108D01*
X0322928Y0132515D01*
X0322928Y0134113D01*
X0322928Y0132541D02*
X0325672Y0132541D01*
X0326468Y0131342D02*
X0322132Y0131342D01*
X0319940Y0131342D02*
X0319565Y0131342D01*
X0319565Y0132541D02*
X0319940Y0132541D01*
X0319940Y0133739D02*
X0319565Y0133739D01*
X0319565Y0134938D02*
X0319940Y0134938D01*
X0319940Y0136136D02*
X0319565Y0136136D01*
X0319565Y0137335D02*
X0319940Y0137335D01*
X0317507Y0137335D02*
X0316508Y0137335D01*
X0316585Y0131342D02*
X0317373Y0131342D01*
X0328660Y0131342D02*
X0329035Y0131342D01*
X0329035Y0132541D02*
X0328660Y0132541D01*
X0328660Y0133739D02*
X0329035Y0133739D01*
X0329035Y0134938D02*
X0328660Y0134938D01*
X0328660Y0136136D02*
X0329035Y0136136D01*
X0329035Y0137335D02*
X0328660Y0137335D01*
X0331093Y0137335D02*
X0332092Y0137335D01*
X0332015Y0131342D02*
X0331227Y0131342D01*
X0351570Y0127747D02*
X0304530Y0127747D01*
X0303332Y0128945D02*
X0352768Y0128945D01*
X0370534Y0119357D02*
X0375201Y0119357D01*
X0375201Y0118159D02*
X0369336Y0118159D01*
X0368137Y0116960D02*
X0375201Y0116960D01*
X0375201Y0115762D02*
X0366938Y0115762D01*
X0365740Y0114563D02*
X0375201Y0114563D01*
X0375201Y0113365D02*
X0364541Y0113365D01*
X0363343Y0112166D02*
X0375201Y0112166D01*
X0375201Y0110968D02*
X0335805Y0110968D01*
X0335805Y0109769D02*
X0375201Y0109769D01*
X0375201Y0108570D02*
X0335805Y0108570D01*
X0335805Y0107372D02*
X0375201Y0107372D01*
X0375201Y0106173D02*
X0335805Y0106173D01*
X0335375Y0104975D02*
X0375201Y0104975D01*
X0375201Y0103776D02*
X0333187Y0103776D01*
X0332999Y0102578D02*
X0375201Y0102578D01*
X0375201Y0101379D02*
X0332461Y0101379D01*
X0331262Y0100181D02*
X0375201Y0100181D01*
X0375201Y0098982D02*
X0330064Y0098982D01*
X0328865Y0097784D02*
X0375201Y0097784D01*
X0375201Y0096585D02*
X0327666Y0096585D01*
X0326468Y0095387D02*
X0375201Y0095387D01*
X0375201Y0094188D02*
X0325269Y0094188D01*
X0324071Y0092990D02*
X0375201Y0092990D01*
X0375201Y0091791D02*
X0354004Y0091791D01*
X0353673Y0092123D02*
X0350316Y0092123D01*
X0349027Y0090834D01*
X0347492Y0089299D01*
X0347492Y0084408D01*
X0348781Y0083119D01*
X0348985Y0082915D01*
X0348781Y0082915D01*
X0347492Y0081626D01*
X0347492Y0079804D01*
X0348781Y0078515D01*
X0350316Y0078515D01*
X0351185Y0077646D01*
X0350316Y0076776D01*
X0348781Y0076776D01*
X0347492Y0075488D01*
X0347492Y0073665D01*
X0348781Y0072376D01*
X0348985Y0072376D01*
X0347492Y0070884D01*
X0347492Y0064457D01*
X0348781Y0063168D01*
X0356742Y0063168D01*
X0359811Y0063168D01*
X0361100Y0064457D01*
X0361100Y0066280D01*
X0359811Y0067568D01*
X0358073Y0067568D01*
X0361100Y0070596D01*
X0361100Y0072418D01*
X0359811Y0073707D01*
X0357989Y0073707D01*
X0356598Y0072316D01*
X0355207Y0073707D01*
X0353469Y0073707D01*
X0355207Y0075446D01*
X0359811Y0075446D01*
X0361100Y0076734D01*
X0361100Y0078557D01*
X0359811Y0079846D01*
X0355207Y0079846D01*
X0353427Y0081626D01*
X0352803Y0082250D01*
X0353427Y0082873D01*
X0353427Y0084695D01*
X0351892Y0086230D01*
X0351892Y0087477D01*
X0351994Y0087579D01*
X0354919Y0084653D01*
X0359811Y0084653D01*
X0361100Y0085942D01*
X0361100Y0087765D01*
X0359811Y0089053D01*
X0356742Y0089053D01*
X0353673Y0092123D01*
X0355203Y0090593D02*
X0375201Y0090593D01*
X0375201Y0089394D02*
X0356401Y0089394D01*
X0360669Y0088196D02*
X0375201Y0088196D01*
X0375201Y0086997D02*
X0361100Y0086997D01*
X0360957Y0085799D02*
X0375201Y0085799D01*
X0375201Y0084600D02*
X0353427Y0084600D01*
X0353427Y0083402D02*
X0375201Y0083402D01*
X0375201Y0082203D02*
X0352850Y0082203D01*
X0354048Y0081005D02*
X0375201Y0081005D01*
X0375201Y0079806D02*
X0359851Y0079806D01*
X0361049Y0078608D02*
X0375201Y0078608D01*
X0375201Y0077409D02*
X0361100Y0077409D01*
X0360576Y0076211D02*
X0375201Y0076211D01*
X0375201Y0075012D02*
X0354774Y0075012D01*
X0353575Y0073814D02*
X0375201Y0073814D01*
X0375201Y0072615D02*
X0360903Y0072615D01*
X0361100Y0071417D02*
X0375201Y0071417D01*
X0375201Y0070218D02*
X0360722Y0070218D01*
X0359524Y0069020D02*
X0375201Y0069020D01*
X0375201Y0067821D02*
X0358325Y0067821D01*
X0360757Y0066623D02*
X0375201Y0066623D01*
X0375201Y0065424D02*
X0361100Y0065424D01*
X0360868Y0064226D02*
X0375201Y0064226D01*
X0375201Y0063027D02*
X0331100Y0063027D01*
X0331100Y0061829D02*
X0375201Y0061829D01*
X0375201Y0060630D02*
X0331100Y0060630D01*
X0331100Y0059432D02*
X0375201Y0059432D01*
X0375201Y0058233D02*
X0331100Y0058233D01*
X0331100Y0057034D02*
X0375201Y0057034D01*
X0375201Y0055836D02*
X0331100Y0055836D01*
X0331100Y0054637D02*
X0348127Y0054637D01*
X0347492Y0054003D02*
X0347492Y0049111D01*
X0348116Y0048487D01*
X0347492Y0047864D01*
X0347492Y0046041D01*
X0348781Y0044753D01*
X0351634Y0044753D01*
X0349026Y0043014D01*
X0348781Y0043014D01*
X0348291Y0042524D01*
X0347714Y0042139D01*
X0347665Y0041899D01*
X0347492Y0041725D01*
X0347492Y0041032D01*
X0347356Y0040352D01*
X0347492Y0040148D01*
X0347492Y0039903D01*
X0347982Y0039413D01*
X0348089Y0039253D01*
X0347492Y0038656D01*
X0347492Y0033764D01*
X0348116Y0033141D01*
X0347492Y0032518D01*
X0347492Y0030695D01*
X0348781Y0029406D01*
X0349650Y0028537D01*
X0348781Y0027668D01*
X0348781Y0027668D01*
X0347524Y0026411D01*
X0347492Y0026379D01*
X0347492Y0024556D01*
X0348762Y0023286D01*
X0348781Y0023268D01*
X0350603Y0023268D01*
X0359811Y0023268D01*
X0361100Y0024556D01*
X0361100Y0026379D01*
X0359811Y0027668D01*
X0354961Y0027668D01*
X0354961Y0029406D01*
X0359811Y0029406D01*
X0361100Y0030695D01*
X0361100Y0032518D01*
X0360477Y0033141D01*
X0361100Y0033764D01*
X0361100Y0038656D01*
X0360477Y0039280D01*
X0361100Y0039903D01*
X0361100Y0041725D01*
X0359811Y0043014D01*
X0356958Y0043014D01*
X0359566Y0044753D01*
X0359811Y0044753D01*
X0360302Y0045243D01*
X0360879Y0045628D01*
X0360927Y0045868D01*
X0361100Y0046041D01*
X0361100Y0046735D01*
X0361236Y0047415D01*
X0361100Y0047619D01*
X0361100Y0047864D01*
X0360610Y0048354D01*
X0360503Y0048514D01*
X0361100Y0049111D01*
X0361100Y0054003D01*
X0359811Y0055291D01*
X0357989Y0055291D01*
X0356700Y0054003D01*
X0356700Y0053757D01*
X0351892Y0053757D01*
X0351892Y0054003D01*
X0350603Y0055291D01*
X0348781Y0055291D01*
X0347492Y0054003D01*
X0347492Y0053439D02*
X0331100Y0053439D01*
X0331100Y0052240D02*
X0347492Y0052240D01*
X0347492Y0051042D02*
X0331100Y0051042D01*
X0331100Y0049843D02*
X0347492Y0049843D01*
X0347958Y0048645D02*
X0331100Y0048645D01*
X0331100Y0047446D02*
X0347492Y0047446D01*
X0347492Y0046248D02*
X0331100Y0046248D01*
X0331100Y0045049D02*
X0348484Y0045049D01*
X0350281Y0043851D02*
X0331100Y0043851D01*
X0331100Y0042652D02*
X0348419Y0042652D01*
X0347492Y0041454D02*
X0331100Y0041454D01*
X0331100Y0040255D02*
X0347421Y0040255D01*
X0347893Y0039057D02*
X0331100Y0039057D01*
X0331100Y0037858D02*
X0347492Y0037858D01*
X0347492Y0036660D02*
X0331100Y0036660D01*
X0331100Y0035461D02*
X0347492Y0035461D01*
X0347492Y0034263D02*
X0331100Y0034263D01*
X0331100Y0033064D02*
X0348039Y0033064D01*
X0347492Y0031866D02*
X0331100Y0031866D01*
X0331100Y0030667D02*
X0347520Y0030667D01*
X0348718Y0029469D02*
X0331100Y0029469D01*
X0331100Y0028270D02*
X0349383Y0028270D01*
X0348185Y0027072D02*
X0331100Y0027072D01*
X0331100Y0025873D02*
X0347492Y0025873D01*
X0347492Y0024675D02*
X0331100Y0024675D01*
X0331100Y0023476D02*
X0348572Y0023476D01*
X0354934Y0018888D02*
X0353701Y0015911D01*
X0353701Y0012689D01*
X0354934Y0009712D01*
X0357212Y0007434D01*
X0360189Y0006201D01*
X0363411Y0006201D01*
X0366388Y0007434D01*
X0368666Y0009712D01*
X0369899Y0012689D01*
X0369899Y0015911D01*
X0368666Y0018888D01*
X0366388Y0021166D01*
X0363411Y0022399D01*
X0360189Y0022399D01*
X0357212Y0021166D01*
X0354934Y0018888D01*
X0354849Y0018682D02*
X0331100Y0018682D01*
X0331100Y0017484D02*
X0354352Y0017484D01*
X0353856Y0016285D02*
X0331100Y0016285D01*
X0331100Y0015087D02*
X0353701Y0015087D01*
X0353701Y0013888D02*
X0331100Y0013888D01*
X0330787Y0012690D02*
X0353701Y0012690D01*
X0354197Y0011491D02*
X0330072Y0011491D01*
X0328874Y0010293D02*
X0354693Y0010293D01*
X0355552Y0009094D02*
X0327675Y0009094D01*
X0326477Y0007896D02*
X0356750Y0007896D01*
X0358991Y0006697D02*
X0325278Y0006697D01*
X0324080Y0005499D02*
X0375201Y0005499D01*
X0375201Y0006697D02*
X0364609Y0006697D01*
X0366850Y0007896D02*
X0375201Y0007896D01*
X0375201Y0009094D02*
X0368048Y0009094D01*
X0368907Y0010293D02*
X0375201Y0010293D01*
X0375201Y0011491D02*
X0369403Y0011491D01*
X0369899Y0012690D02*
X0375201Y0012690D01*
X0375201Y0013888D02*
X0369899Y0013888D01*
X0369899Y0015087D02*
X0375201Y0015087D01*
X0375201Y0016285D02*
X0369744Y0016285D01*
X0369248Y0017484D02*
X0375201Y0017484D01*
X0375201Y0018682D02*
X0368751Y0018682D01*
X0367673Y0019881D02*
X0375201Y0019881D01*
X0375201Y0021079D02*
X0366475Y0021079D01*
X0363704Y0022278D02*
X0375201Y0022278D01*
X0375201Y0023476D02*
X0360020Y0023476D01*
X0359896Y0022278D02*
X0331100Y0022278D01*
X0331100Y0021079D02*
X0357125Y0021079D01*
X0355927Y0019881D02*
X0331100Y0019881D01*
X0322500Y0019881D02*
X0316485Y0019881D01*
X0316563Y0020034D02*
X0316787Y0020723D01*
X0316894Y0021400D01*
X0309700Y0021400D01*
X0309700Y0022200D01*
X0308900Y0022200D01*
X0308900Y0026400D01*
X0305938Y0026400D01*
X0305223Y0026287D01*
X0304534Y0026063D01*
X0303889Y0025734D01*
X0303303Y0025309D01*
X0302791Y0024797D01*
X0302366Y0024211D01*
X0302037Y0023566D01*
X0301813Y0022877D01*
X0301706Y0022200D01*
X0308900Y0022200D01*
X0308900Y0021400D01*
X0309700Y0021400D01*
X0309700Y0017200D01*
X0312662Y0017200D01*
X0313377Y0017313D01*
X0314066Y0017537D01*
X0314711Y0017866D01*
X0315297Y0018291D01*
X0315809Y0018803D01*
X0316234Y0019389D01*
X0316563Y0020034D01*
X0316843Y0021079D02*
X0322500Y0021079D01*
X0322500Y0022278D02*
X0316882Y0022278D01*
X0316894Y0022200D02*
X0316787Y0022877D01*
X0316563Y0023566D01*
X0316234Y0024211D01*
X0315809Y0024797D01*
X0315297Y0025309D01*
X0314711Y0025734D01*
X0314066Y0026063D01*
X0313377Y0026287D01*
X0312662Y0026400D01*
X0309700Y0026400D01*
X0309700Y0022200D01*
X0316894Y0022200D01*
X0316592Y0023476D02*
X0322500Y0023476D01*
X0322500Y0024675D02*
X0315897Y0024675D01*
X0314438Y0025873D02*
X0322500Y0025873D01*
X0322500Y0027072D02*
X0313428Y0027072D01*
X0313255Y0027000D02*
X0315019Y0027731D01*
X0316369Y0029081D01*
X0317100Y0030845D01*
X0317100Y0032755D01*
X0316369Y0034519D01*
X0315019Y0035869D01*
X0313255Y0036600D01*
X0305345Y0036600D01*
X0303581Y0035869D01*
X0302231Y0034519D01*
X0301500Y0032755D01*
X0301500Y0030845D01*
X0302231Y0029081D01*
X0303581Y0027731D01*
X0305345Y0027000D01*
X0313255Y0027000D01*
X0315558Y0028270D02*
X0322500Y0028270D01*
X0322500Y0029469D02*
X0316530Y0029469D01*
X0317026Y0030667D02*
X0322500Y0030667D01*
X0322500Y0031866D02*
X0317100Y0031866D01*
X0316972Y0033064D02*
X0322500Y0033064D01*
X0322500Y0034263D02*
X0316475Y0034263D01*
X0315427Y0035461D02*
X0322500Y0035461D01*
X0322500Y0036660D02*
X0248117Y0036660D01*
X0246919Y0037858D02*
X0253453Y0037858D01*
X0252255Y0039057D02*
X0245720Y0039057D01*
X0244522Y0040255D02*
X0251744Y0040255D01*
X0251500Y0041454D02*
X0243323Y0041454D01*
X0242125Y0042652D02*
X0251500Y0042652D01*
X0251954Y0043851D02*
X0240926Y0043851D01*
X0239728Y0045049D02*
X0252761Y0045049D01*
X0254495Y0046248D02*
X0238529Y0046248D01*
X0237331Y0047446D02*
X0254267Y0047446D01*
X0252667Y0048645D02*
X0236132Y0048645D01*
X0234934Y0049843D02*
X0250080Y0049843D01*
X0248881Y0051042D02*
X0233735Y0051042D01*
X0232536Y0052240D02*
X0247683Y0052240D01*
X0246484Y0053439D02*
X0231338Y0053439D01*
X0230139Y0054637D02*
X0245286Y0054637D01*
X0244087Y0055836D02*
X0228941Y0055836D01*
X0226381Y0051042D02*
X0225830Y0051042D01*
X0224084Y0049843D02*
X0227580Y0049843D01*
X0228778Y0048645D02*
X0224353Y0048645D01*
X0225019Y0048369D02*
X0223255Y0049100D01*
X0215345Y0049100D01*
X0213581Y0048369D01*
X0212231Y0047019D01*
X0211500Y0045255D01*
X0211500Y0043345D01*
X0212231Y0041581D01*
X0213581Y0040231D01*
X0215345Y0039500D01*
X0223255Y0039500D01*
X0225019Y0040231D01*
X0226369Y0041581D01*
X0227100Y0043345D01*
X0227100Y0045255D01*
X0226369Y0047019D01*
X0225019Y0048369D01*
X0225942Y0047446D02*
X0229977Y0047446D01*
X0231175Y0046248D02*
X0226689Y0046248D01*
X0227100Y0045049D02*
X0232374Y0045049D01*
X0233572Y0043851D02*
X0227100Y0043851D01*
X0226813Y0042652D02*
X0234771Y0042652D01*
X0235969Y0041454D02*
X0226242Y0041454D01*
X0225044Y0040255D02*
X0237168Y0040255D01*
X0238366Y0039057D02*
X0223359Y0039057D01*
X0223255Y0039100D02*
X0215345Y0039100D01*
X0213581Y0038369D01*
X0212231Y0037019D01*
X0211500Y0035255D01*
X0211500Y0033345D01*
X0212231Y0031581D01*
X0213581Y0030231D01*
X0215345Y0029500D01*
X0223255Y0029500D01*
X0225019Y0030231D01*
X0226369Y0031581D01*
X0227100Y0033345D01*
X0227100Y0035255D01*
X0226369Y0037019D01*
X0225019Y0038369D01*
X0223255Y0039100D01*
X0225530Y0037858D02*
X0239565Y0037858D01*
X0240763Y0036660D02*
X0226518Y0036660D01*
X0227014Y0035461D02*
X0241962Y0035461D01*
X0243160Y0034263D02*
X0227100Y0034263D01*
X0226984Y0033064D02*
X0244359Y0033064D01*
X0245557Y0031866D02*
X0226487Y0031866D01*
X0225455Y0030667D02*
X0246756Y0030667D01*
X0248134Y0029469D02*
X0185646Y0029469D01*
X0186844Y0030667D02*
X0213145Y0030667D01*
X0212113Y0031866D02*
X0188043Y0031866D01*
X0189241Y0033064D02*
X0211616Y0033064D01*
X0211500Y0034263D02*
X0190440Y0034263D01*
X0191638Y0035461D02*
X0211586Y0035461D01*
X0212082Y0036660D02*
X0192837Y0036660D01*
X0194035Y0037858D02*
X0213070Y0037858D01*
X0213556Y0040255D02*
X0196432Y0040255D01*
X0195234Y0039057D02*
X0215241Y0039057D01*
X0212358Y0041454D02*
X0197631Y0041454D01*
X0198829Y0042652D02*
X0211787Y0042652D01*
X0211500Y0043851D02*
X0200028Y0043851D01*
X0201226Y0045049D02*
X0211500Y0045049D01*
X0211911Y0046248D02*
X0202425Y0046248D01*
X0203623Y0047446D02*
X0212658Y0047446D01*
X0214247Y0048645D02*
X0204822Y0048645D01*
X0206020Y0049843D02*
X0214516Y0049843D01*
X0212770Y0051042D02*
X0207219Y0051042D01*
X0208417Y0052240D02*
X0211958Y0052240D01*
X0211500Y0053439D02*
X0209616Y0053439D01*
X0210814Y0054637D02*
X0211500Y0054637D01*
X0207056Y0058233D02*
X0165155Y0058233D01*
X0165019Y0058369D02*
X0163255Y0059100D01*
X0155345Y0059100D01*
X0153581Y0058369D01*
X0152231Y0057019D01*
X0151500Y0055255D01*
X0151500Y0053345D01*
X0152231Y0051581D01*
X0153581Y0050231D01*
X0155345Y0049500D01*
X0163255Y0049500D01*
X0165019Y0050231D01*
X0166369Y0051581D01*
X0167100Y0053345D01*
X0167100Y0055255D01*
X0166369Y0057019D01*
X0165019Y0058369D01*
X0165019Y0060231D02*
X0166369Y0061581D01*
X0167100Y0063345D01*
X0167100Y0065255D01*
X0166369Y0067019D01*
X0165019Y0068369D01*
X0163255Y0069100D01*
X0155345Y0069100D01*
X0153581Y0068369D01*
X0152231Y0067019D01*
X0151500Y0065255D01*
X0151500Y0063345D01*
X0152231Y0061581D01*
X0153581Y0060231D01*
X0155345Y0059500D01*
X0163255Y0059500D01*
X0165019Y0060231D01*
X0165418Y0060630D02*
X0209453Y0060630D01*
X0208255Y0059432D02*
X0146900Y0059432D01*
X0146900Y0060630D02*
X0153182Y0060630D01*
X0152128Y0061829D02*
X0146900Y0061829D01*
X0146900Y0063027D02*
X0151632Y0063027D01*
X0151500Y0064226D02*
X0146900Y0064226D01*
X0146900Y0065424D02*
X0151570Y0065424D01*
X0152067Y0066623D02*
X0146900Y0066623D01*
X0146691Y0067821D02*
X0153033Y0067821D01*
X0155151Y0069020D02*
X0145757Y0069020D01*
X0144559Y0070218D02*
X0153612Y0070218D01*
X0153581Y0070231D02*
X0155345Y0069500D01*
X0163255Y0069500D01*
X0165019Y0070231D01*
X0166369Y0071581D01*
X0167100Y0073345D01*
X0167100Y0075255D01*
X0166369Y0077019D01*
X0165019Y0078369D01*
X0163255Y0079100D01*
X0155345Y0079100D01*
X0153581Y0078369D01*
X0152231Y0077019D01*
X0151500Y0075255D01*
X0151500Y0073345D01*
X0152231Y0071581D01*
X0153581Y0070231D01*
X0152395Y0071417D02*
X0143360Y0071417D01*
X0142162Y0072615D02*
X0151802Y0072615D01*
X0151500Y0073814D02*
X0140963Y0073814D01*
X0139765Y0075012D02*
X0151500Y0075012D01*
X0151896Y0076211D02*
X0138566Y0076211D01*
X0137368Y0077409D02*
X0152621Y0077409D01*
X0154157Y0078608D02*
X0136169Y0078608D01*
X0134971Y0079806D02*
X0154606Y0079806D01*
X0155345Y0079500D02*
X0153581Y0080231D01*
X0152231Y0081581D01*
X0151500Y0083345D01*
X0151500Y0085255D01*
X0152231Y0087019D01*
X0153581Y0088369D01*
X0155345Y0089100D01*
X0163255Y0089100D01*
X0165019Y0088369D01*
X0166369Y0087019D01*
X0167100Y0085255D01*
X0167100Y0083345D01*
X0166369Y0081581D01*
X0165019Y0080231D01*
X0163255Y0079500D01*
X0155345Y0079500D01*
X0152807Y0081005D02*
X0133772Y0081005D01*
X0132574Y0082203D02*
X0151973Y0082203D01*
X0151500Y0083402D02*
X0131375Y0083402D01*
X0130177Y0084600D02*
X0151500Y0084600D01*
X0151725Y0085799D02*
X0128978Y0085799D01*
X0127780Y0086997D02*
X0152222Y0086997D01*
X0153408Y0088196D02*
X0126581Y0088196D01*
X0126499Y0089394D02*
X0223217Y0089394D01*
X0213408Y0088196D02*
X0165192Y0088196D01*
X0166378Y0086997D02*
X0212222Y0086997D01*
X0211725Y0085799D02*
X0166875Y0085799D01*
X0167100Y0084600D02*
X0211500Y0084600D01*
X0211500Y0083402D02*
X0167100Y0083402D01*
X0166627Y0082203D02*
X0211973Y0082203D01*
X0212807Y0081005D02*
X0165793Y0081005D01*
X0163994Y0079806D02*
X0214606Y0079806D01*
X0214157Y0078608D02*
X0164443Y0078608D01*
X0165979Y0077409D02*
X0212621Y0077409D01*
X0211896Y0076211D02*
X0166704Y0076211D01*
X0167100Y0075012D02*
X0211500Y0075012D01*
X0211500Y0073814D02*
X0167100Y0073814D01*
X0166798Y0072615D02*
X0211802Y0072615D01*
X0212395Y0071417D02*
X0166205Y0071417D01*
X0164988Y0070218D02*
X0213612Y0070218D01*
X0215151Y0069020D02*
X0163449Y0069020D01*
X0165567Y0067821D02*
X0213033Y0067821D01*
X0212067Y0066623D02*
X0166533Y0066623D01*
X0167030Y0065424D02*
X0211570Y0065424D01*
X0211500Y0064226D02*
X0167100Y0064226D01*
X0166968Y0063027D02*
X0211632Y0063027D01*
X0211110Y0061829D02*
X0166472Y0061829D01*
X0166354Y0057034D02*
X0205858Y0057034D01*
X0204659Y0055836D02*
X0166859Y0055836D01*
X0167100Y0054637D02*
X0203461Y0054637D01*
X0202262Y0053439D02*
X0167100Y0053439D01*
X0166642Y0052240D02*
X0201064Y0052240D01*
X0199865Y0051042D02*
X0165830Y0051042D01*
X0164084Y0049843D02*
X0198666Y0049843D01*
X0197468Y0048645D02*
X0164353Y0048645D01*
X0165942Y0047446D02*
X0196269Y0047446D01*
X0195071Y0046248D02*
X0166689Y0046248D01*
X0167100Y0045049D02*
X0193872Y0045049D01*
X0192674Y0043851D02*
X0167100Y0043851D01*
X0166813Y0042652D02*
X0191475Y0042652D01*
X0190277Y0041454D02*
X0166242Y0041454D01*
X0165044Y0040255D02*
X0189078Y0040255D01*
X0187880Y0039057D02*
X0163359Y0039057D01*
X0165530Y0037858D02*
X0186681Y0037858D01*
X0185483Y0036660D02*
X0166518Y0036660D01*
X0167014Y0035461D02*
X0184284Y0035461D01*
X0183086Y0034263D02*
X0167100Y0034263D01*
X0166984Y0033064D02*
X0181887Y0033064D01*
X0184447Y0028270D02*
X0213482Y0028270D01*
X0212284Y0027072D02*
X0183215Y0027072D01*
X0167100Y0024675D02*
X0211500Y0024675D01*
X0211500Y0023476D02*
X0167100Y0023476D01*
X0166658Y0022278D02*
X0211942Y0022278D01*
X0212733Y0021079D02*
X0165867Y0021079D01*
X0164174Y0019881D02*
X0214426Y0019881D01*
X0211756Y0025873D02*
X0166844Y0025873D01*
X0154426Y0019881D02*
X0151058Y0019881D01*
X0152256Y0021079D02*
X0152733Y0021079D01*
X0131997Y0028270D02*
X0131603Y0028270D01*
X0131472Y0035461D02*
X0132128Y0035461D01*
X0132409Y0037858D02*
X0131191Y0037858D01*
X0125716Y0037858D02*
X0125147Y0037858D01*
X0125427Y0035461D02*
X0125435Y0035461D01*
X0124105Y0046248D02*
X0132546Y0046248D01*
X0132546Y0047446D02*
X0124332Y0047446D01*
X0114495Y0046248D02*
X0087329Y0046248D01*
X0088528Y0047446D02*
X0114267Y0047446D01*
X0112667Y0048645D02*
X0089726Y0048645D01*
X0090925Y0049843D02*
X0111915Y0049843D01*
X0111500Y0051042D02*
X0092123Y0051042D01*
X0093322Y0052240D02*
X0111500Y0052240D01*
X0111783Y0053439D02*
X0094520Y0053439D01*
X0095719Y0054637D02*
X0112349Y0054637D01*
X0113548Y0055836D02*
X0096917Y0055836D01*
X0098116Y0057034D02*
X0115262Y0057034D01*
X0113079Y0058233D02*
X0099314Y0058233D01*
X0100513Y0059432D02*
X0112086Y0059432D01*
X0111589Y0060630D02*
X0101711Y0060630D01*
X0102910Y0061829D02*
X0111500Y0061829D01*
X0111613Y0063027D02*
X0104108Y0063027D01*
X0105307Y0064226D02*
X0112109Y0064226D01*
X0113136Y0065424D02*
X0105884Y0065424D01*
X0106100Y0066623D02*
X0116700Y0066623D01*
X0113491Y0067821D02*
X0106100Y0067821D01*
X0106100Y0069020D02*
X0112292Y0069020D01*
X0111760Y0070218D02*
X0106100Y0070218D01*
X0106100Y0071417D02*
X0111500Y0071417D01*
X0111500Y0072615D02*
X0106100Y0072615D01*
X0106100Y0073814D02*
X0111939Y0073814D01*
X0112724Y0075012D02*
X0106100Y0075012D01*
X0106100Y0076211D02*
X0114405Y0076211D01*
X0114357Y0077409D02*
X0106100Y0077409D01*
X0106100Y0078608D02*
X0112704Y0078608D01*
X0111930Y0079806D02*
X0106100Y0079806D01*
X0106100Y0081005D02*
X0111500Y0081005D01*
X0111500Y0082203D02*
X0106100Y0082203D01*
X0106100Y0083402D02*
X0111768Y0083402D01*
X0112312Y0084600D02*
X0106100Y0084600D01*
X0106100Y0085799D02*
X0113511Y0085799D01*
X0113116Y0088196D02*
X0106100Y0088196D01*
X0106100Y0089394D02*
X0112101Y0089394D01*
X0111605Y0090593D02*
X0106674Y0090593D01*
X0107872Y0091791D02*
X0111500Y0091791D01*
X0111597Y0092990D02*
X0109071Y0092990D01*
X0110269Y0094188D02*
X0112094Y0094188D01*
X0111468Y0095387D02*
X0113099Y0095387D01*
X0112666Y0096585D02*
X0115310Y0096585D01*
X0123290Y0096585D02*
X0152051Y0096585D01*
X0152231Y0097019D02*
X0151500Y0095255D01*
X0151500Y0093345D01*
X0152231Y0091581D01*
X0153581Y0090231D01*
X0155345Y0089500D01*
X0163255Y0089500D01*
X0165019Y0090231D01*
X0166369Y0091581D01*
X0167100Y0093345D01*
X0167100Y0095255D01*
X0166369Y0097019D01*
X0165019Y0098369D01*
X0163255Y0099100D01*
X0155345Y0099100D01*
X0153581Y0098369D01*
X0152231Y0097019D01*
X0152996Y0097784D02*
X0123341Y0097784D01*
X0125063Y0098982D02*
X0155061Y0098982D01*
X0155345Y0099500D02*
X0153581Y0100231D01*
X0152231Y0101581D01*
X0151500Y0103345D01*
X0151500Y0105255D01*
X0152231Y0107019D01*
X0153581Y0108369D01*
X0155345Y0109100D01*
X0163255Y0109100D01*
X0165019Y0108369D01*
X0166369Y0107019D01*
X0167100Y0105255D01*
X0167100Y0103345D01*
X0166369Y0101581D01*
X0165019Y0100231D01*
X0163255Y0099500D01*
X0155345Y0099500D01*
X0153701Y0100181D02*
X0126262Y0100181D01*
X0127461Y0101379D02*
X0152432Y0101379D01*
X0151818Y0102578D02*
X0128659Y0102578D01*
X0129858Y0103776D02*
X0151500Y0103776D01*
X0151500Y0104975D02*
X0131056Y0104975D01*
X0132255Y0106173D02*
X0151881Y0106173D01*
X0152584Y0107372D02*
X0133453Y0107372D01*
X0134236Y0108155D02*
X0134236Y0108155D01*
X0134652Y0108570D02*
X0154067Y0108570D01*
X0154696Y0109769D02*
X0135613Y0109769D01*
X0136100Y0110968D02*
X0152844Y0110968D01*
X0152231Y0111581D02*
X0153581Y0110231D01*
X0155345Y0109500D01*
X0163255Y0109500D01*
X0165019Y0110231D01*
X0166369Y0111581D01*
X0167100Y0113345D01*
X0167100Y0115255D01*
X0166369Y0117019D01*
X0165019Y0118369D01*
X0163255Y0119100D01*
X0155345Y0119100D01*
X0153581Y0118369D01*
X0152231Y0117019D01*
X0151500Y0115255D01*
X0151500Y0113345D01*
X0152231Y0111581D01*
X0151988Y0112166D02*
X0136100Y0112166D01*
X0136100Y0113365D02*
X0151500Y0113365D01*
X0151500Y0114563D02*
X0136100Y0114563D01*
X0136100Y0115762D02*
X0151710Y0115762D01*
X0152206Y0116960D02*
X0136100Y0116960D01*
X0136100Y0118159D02*
X0153370Y0118159D01*
X0153256Y0120556D02*
X0136100Y0120556D01*
X0136100Y0119357D02*
X0223180Y0119357D01*
X0213370Y0118159D02*
X0165230Y0118159D01*
X0166394Y0116960D02*
X0212206Y0116960D01*
X0211710Y0115762D02*
X0166890Y0115762D01*
X0167100Y0114563D02*
X0211500Y0114563D01*
X0211500Y0113365D02*
X0167100Y0113365D01*
X0166612Y0112166D02*
X0211988Y0112166D01*
X0212844Y0110968D02*
X0165756Y0110968D01*
X0163904Y0109769D02*
X0214696Y0109769D01*
X0214067Y0108570D02*
X0164533Y0108570D01*
X0166016Y0107372D02*
X0212584Y0107372D01*
X0211881Y0106173D02*
X0166719Y0106173D01*
X0167100Y0104975D02*
X0211500Y0104975D01*
X0211500Y0103776D02*
X0167100Y0103776D01*
X0166782Y0102578D02*
X0211818Y0102578D01*
X0212432Y0101379D02*
X0166168Y0101379D01*
X0164899Y0100181D02*
X0213701Y0100181D01*
X0215061Y0098982D02*
X0163539Y0098982D01*
X0165604Y0097784D02*
X0212996Y0097784D01*
X0212051Y0096585D02*
X0166549Y0096585D01*
X0167045Y0095387D02*
X0211555Y0095387D01*
X0211500Y0094188D02*
X0167100Y0094188D01*
X0166953Y0092990D02*
X0211647Y0092990D01*
X0212144Y0091791D02*
X0166456Y0091791D01*
X0165381Y0090593D02*
X0213219Y0090593D01*
X0228586Y0077409D02*
X0236700Y0077409D01*
X0236700Y0076211D02*
X0227388Y0076211D01*
X0227100Y0075012D02*
X0236700Y0075012D01*
X0236700Y0073814D02*
X0227100Y0073814D01*
X0226798Y0072615D02*
X0236700Y0072615D01*
X0236700Y0071417D02*
X0226205Y0071417D01*
X0224988Y0070218D02*
X0236541Y0070218D01*
X0235343Y0069020D02*
X0223449Y0069020D01*
X0225567Y0067821D02*
X0234144Y0067821D01*
X0246054Y0067821D02*
X0253491Y0067821D01*
X0247091Y0065424D02*
X0246509Y0065424D01*
X0246054Y0066623D02*
X0273396Y0066623D01*
X0272198Y0067821D02*
X0265109Y0067821D01*
X0266308Y0069020D02*
X0270999Y0069020D01*
X0269801Y0070218D02*
X0266840Y0070218D01*
X0267100Y0071417D02*
X0268602Y0071417D01*
X0267404Y0072615D02*
X0267100Y0072615D01*
X0265464Y0065424D02*
X0274595Y0065424D01*
X0275793Y0064226D02*
X0266491Y0064226D01*
X0266987Y0063027D02*
X0276992Y0063027D01*
X0278190Y0061829D02*
X0267100Y0061829D01*
X0267011Y0060630D02*
X0279389Y0060630D01*
X0280587Y0059432D02*
X0266514Y0059432D01*
X0265521Y0058233D02*
X0281786Y0058233D01*
X0282984Y0057034D02*
X0263338Y0057034D01*
X0265052Y0055836D02*
X0284183Y0055836D01*
X0285381Y0054637D02*
X0266251Y0054637D01*
X0266817Y0053439D02*
X0286580Y0053439D01*
X0287778Y0052240D02*
X0267100Y0052240D01*
X0267100Y0051042D02*
X0288977Y0051042D01*
X0290175Y0049843D02*
X0266685Y0049843D01*
X0265933Y0048645D02*
X0291374Y0048645D01*
X0292572Y0047446D02*
X0264332Y0047446D01*
X0264105Y0046248D02*
X0293771Y0046248D01*
X0294969Y0045049D02*
X0265839Y0045049D01*
X0266646Y0043851D02*
X0296168Y0043851D01*
X0297367Y0042652D02*
X0267100Y0042652D01*
X0267100Y0041454D02*
X0298565Y0041454D01*
X0299764Y0040255D02*
X0266856Y0040255D01*
X0266345Y0039057D02*
X0300962Y0039057D01*
X0302580Y0037858D02*
X0265147Y0037858D01*
X0265427Y0035461D02*
X0303173Y0035461D01*
X0302125Y0034263D02*
X0266475Y0034263D01*
X0266972Y0033064D02*
X0301628Y0033064D01*
X0301500Y0031866D02*
X0267100Y0031866D01*
X0267026Y0030667D02*
X0301574Y0030667D01*
X0302070Y0029469D02*
X0266530Y0029469D01*
X0265558Y0028270D02*
X0303042Y0028270D01*
X0305172Y0027072D02*
X0263428Y0027072D01*
X0265009Y0025873D02*
X0304162Y0025873D01*
X0302703Y0024675D02*
X0266214Y0024675D01*
X0266801Y0023476D02*
X0302008Y0023476D01*
X0301718Y0022278D02*
X0267100Y0022278D01*
X0267100Y0021079D02*
X0301757Y0021079D01*
X0301706Y0021400D02*
X0301813Y0020723D01*
X0302037Y0020034D01*
X0302366Y0019389D01*
X0302791Y0018803D01*
X0303303Y0018291D01*
X0303889Y0017866D01*
X0304534Y0017537D01*
X0305223Y0017313D01*
X0305938Y0017200D01*
X0308900Y0017200D01*
X0308900Y0021400D01*
X0301706Y0021400D01*
X0302115Y0019881D02*
X0266700Y0019881D01*
X0265970Y0018682D02*
X0302912Y0018682D01*
X0304698Y0017484D02*
X0264422Y0017484D01*
X0255172Y0027072D02*
X0226316Y0027072D01*
X0225118Y0028270D02*
X0253042Y0028270D01*
X0253591Y0025873D02*
X0251404Y0025873D01*
X0248844Y0021079D02*
X0225867Y0021079D01*
X0224174Y0019881D02*
X0250042Y0019881D01*
X0249316Y0035461D02*
X0253173Y0035461D01*
X0253548Y0055836D02*
X0251441Y0055836D01*
X0250242Y0057034D02*
X0255262Y0057034D01*
X0236700Y0078608D02*
X0229785Y0078608D01*
X0230983Y0079806D02*
X0236700Y0079806D01*
X0236700Y0081005D02*
X0232182Y0081005D01*
X0233380Y0082203D02*
X0236700Y0082203D01*
X0236700Y0083402D02*
X0234579Y0083402D01*
X0235777Y0084600D02*
X0236700Y0084600D01*
X0286523Y0118159D02*
X0286764Y0118159D01*
X0287721Y0116960D02*
X0287963Y0116960D01*
X0288920Y0115762D02*
X0289161Y0115762D01*
X0290118Y0114563D02*
X0290360Y0114563D01*
X0291317Y0113365D02*
X0291559Y0113365D01*
X0292515Y0112166D02*
X0292757Y0112166D01*
X0293714Y0110968D02*
X0307995Y0110968D01*
X0307995Y0108570D02*
X0295721Y0108570D01*
X0296100Y0107372D02*
X0307995Y0107372D01*
X0307995Y0106173D02*
X0296100Y0106173D01*
X0296100Y0104975D02*
X0308508Y0104975D01*
X0314113Y0104975D02*
X0315313Y0104975D01*
X0315313Y0106173D02*
X0314113Y0106173D01*
X0314113Y0107372D02*
X0315313Y0107372D01*
X0315313Y0108570D02*
X0314113Y0108570D01*
X0314113Y0109769D02*
X0294912Y0109769D01*
X0296100Y0103776D02*
X0322695Y0103776D01*
X0322398Y0104975D02*
X0320919Y0104975D01*
X0321431Y0106173D02*
X0321969Y0106173D01*
X0321969Y0107372D02*
X0321431Y0107372D01*
X0321431Y0108570D02*
X0321969Y0108570D01*
X0321969Y0109769D02*
X0315313Y0109769D01*
X0321431Y0110968D02*
X0321969Y0110968D01*
X0321497Y0102578D02*
X0296100Y0102578D01*
X0296100Y0101379D02*
X0320298Y0101379D01*
X0319100Y0100181D02*
X0296100Y0100181D01*
X0296100Y0098982D02*
X0317901Y0098982D01*
X0316703Y0097784D02*
X0296100Y0097784D01*
X0296100Y0096585D02*
X0305310Y0096585D01*
X0303099Y0095387D02*
X0296100Y0095387D01*
X0296100Y0094188D02*
X0302094Y0094188D01*
X0301597Y0092990D02*
X0296100Y0092990D01*
X0296100Y0091791D02*
X0301500Y0091791D01*
X0301605Y0090593D02*
X0296100Y0090593D01*
X0296100Y0089394D02*
X0302101Y0089394D01*
X0303116Y0088196D02*
X0296100Y0088196D01*
X0296100Y0086997D02*
X0315522Y0086997D01*
X0314584Y0085799D02*
X0316720Y0085799D01*
X0315951Y0084600D02*
X0317919Y0084600D01*
X0319117Y0083402D02*
X0316616Y0083402D01*
X0316893Y0082203D02*
X0320316Y0082203D01*
X0321514Y0081005D02*
X0316831Y0081005D01*
X0316447Y0079806D02*
X0322500Y0079806D01*
X0322500Y0078608D02*
X0315613Y0078608D01*
X0313672Y0077409D02*
X0322500Y0077409D01*
X0322500Y0076211D02*
X0314195Y0076211D01*
X0315876Y0075012D02*
X0322500Y0075012D01*
X0322500Y0073814D02*
X0316661Y0073814D01*
X0317100Y0072615D02*
X0322500Y0072615D01*
X0322500Y0071417D02*
X0317100Y0071417D01*
X0316840Y0070218D02*
X0322500Y0070218D01*
X0322500Y0069020D02*
X0316308Y0069020D01*
X0315109Y0067821D02*
X0322500Y0067821D01*
X0322500Y0066623D02*
X0305559Y0066623D01*
X0315464Y0065424D02*
X0322500Y0065424D01*
X0322500Y0064226D02*
X0316491Y0064226D01*
X0316987Y0063027D02*
X0322500Y0063027D01*
X0322500Y0061829D02*
X0317100Y0061829D01*
X0317011Y0060630D02*
X0322500Y0060630D01*
X0322500Y0059432D02*
X0316514Y0059432D01*
X0315521Y0058233D02*
X0322500Y0058233D01*
X0322500Y0057034D02*
X0313338Y0057034D01*
X0315052Y0055836D02*
X0322500Y0055836D01*
X0322500Y0054637D02*
X0316251Y0054637D01*
X0316817Y0053439D02*
X0322500Y0053439D01*
X0322500Y0052240D02*
X0317100Y0052240D01*
X0317100Y0051042D02*
X0322500Y0051042D01*
X0322500Y0049843D02*
X0316685Y0049843D01*
X0315933Y0048645D02*
X0322500Y0048645D01*
X0322500Y0047446D02*
X0314332Y0047446D01*
X0314105Y0046248D02*
X0322500Y0046248D01*
X0322500Y0045049D02*
X0315839Y0045049D01*
X0316646Y0043851D02*
X0322500Y0043851D01*
X0322500Y0042652D02*
X0317100Y0042652D01*
X0317100Y0041454D02*
X0322500Y0041454D01*
X0322500Y0040255D02*
X0316856Y0040255D01*
X0316345Y0039057D02*
X0322500Y0039057D01*
X0322500Y0037858D02*
X0315147Y0037858D01*
X0309700Y0025873D02*
X0308900Y0025873D01*
X0308900Y0024675D02*
X0309700Y0024675D01*
X0309700Y0023476D02*
X0308900Y0023476D01*
X0308900Y0022278D02*
X0309700Y0022278D01*
X0309700Y0021079D02*
X0308900Y0021079D01*
X0308900Y0019881D02*
X0309700Y0019881D01*
X0309700Y0018682D02*
X0308900Y0018682D01*
X0308900Y0017484D02*
X0309700Y0017484D01*
X0313901Y0017484D02*
X0322500Y0017484D01*
X0322500Y0018682D02*
X0315688Y0018682D01*
X0321505Y0015087D02*
X0095008Y0015087D01*
X0093809Y0016285D02*
X0322500Y0016285D01*
X0320307Y0013888D02*
X0096206Y0013888D01*
X0097405Y0012690D02*
X0319108Y0012690D01*
X0317910Y0011491D02*
X0098603Y0011491D01*
X0069700Y0028270D02*
X0068900Y0028270D01*
X0068900Y0029469D02*
X0069700Y0029469D01*
X0069700Y0030667D02*
X0068900Y0030667D01*
X0068900Y0033064D02*
X0069700Y0033064D01*
X0069700Y0034263D02*
X0068900Y0034263D01*
X0068900Y0035461D02*
X0069700Y0035461D01*
X0063513Y0035461D02*
X0034220Y0035461D01*
X0035418Y0034263D02*
X0062403Y0034263D01*
X0078520Y0037858D02*
X0082795Y0037858D01*
X0081336Y0040255D02*
X0111744Y0040255D01*
X0111500Y0041454D02*
X0082535Y0041454D01*
X0083733Y0042652D02*
X0111500Y0042652D01*
X0111954Y0043851D02*
X0084932Y0043851D01*
X0086130Y0045049D02*
X0112761Y0045049D01*
X0112255Y0039057D02*
X0080138Y0039057D01*
X0075167Y0046248D02*
X0074105Y0046248D01*
X0074332Y0047446D02*
X0076365Y0047446D01*
X0075953Y0057034D02*
X0073338Y0057034D01*
X0063491Y0067821D02*
X0050600Y0067821D01*
X0050600Y0069020D02*
X0062292Y0069020D01*
X0061760Y0070218D02*
X0050600Y0070218D01*
X0050600Y0071417D02*
X0061500Y0071417D01*
X0061500Y0072615D02*
X0050600Y0072615D01*
X0050600Y0073814D02*
X0061939Y0073814D01*
X0062724Y0075012D02*
X0050600Y0075012D01*
X0043000Y0075012D02*
X0030194Y0075012D01*
X0030194Y0073814D02*
X0043000Y0073814D01*
X0043000Y0076211D02*
X0030194Y0076211D01*
X0030194Y0077409D02*
X0043000Y0077409D01*
X0043000Y0078608D02*
X0030194Y0078608D01*
X0030194Y0079806D02*
X0043000Y0079806D01*
X0043000Y0081005D02*
X0030194Y0081005D01*
X0030194Y0082203D02*
X0043000Y0082203D01*
X0043000Y0083402D02*
X0030194Y0083402D01*
X0030194Y0084600D02*
X0043000Y0084600D01*
X0043000Y0085799D02*
X0030194Y0085799D01*
X0030194Y0086997D02*
X0043000Y0086997D01*
X0043000Y0088196D02*
X0030194Y0088196D01*
X0030194Y0089394D02*
X0043000Y0089394D01*
X0043000Y0090593D02*
X0030194Y0090593D01*
X0030194Y0091791D02*
X0043000Y0091791D01*
X0043180Y0092990D02*
X0042104Y0092990D01*
X0042208Y0093171D02*
X0042317Y0093578D01*
X0042317Y0096396D01*
X0038110Y0096396D01*
X0038110Y0097204D01*
X0042317Y0097204D01*
X0042317Y0100022D01*
X0042208Y0100429D01*
X0041998Y0100794D01*
X0041700Y0101092D01*
X0041335Y0101303D01*
X0040928Y0101412D01*
X0038109Y0101412D01*
X0038109Y0097204D01*
X0037302Y0097204D01*
X0037302Y0101412D01*
X0034483Y0101412D01*
X0034076Y0101303D01*
X0033711Y0101092D01*
X0033413Y0100794D01*
X0033203Y0100429D01*
X0033094Y0100022D01*
X0033094Y0097204D01*
X0037301Y0097204D01*
X0037301Y0096396D01*
X0033094Y0096396D01*
X0033094Y0093578D01*
X0033203Y0093171D01*
X0033413Y0092806D01*
X0033711Y0092508D01*
X0034076Y0092297D01*
X0034483Y0092188D01*
X0037302Y0092188D01*
X0037302Y0096396D01*
X0038109Y0096396D01*
X0038109Y0092188D01*
X0040928Y0092188D01*
X0041335Y0092297D01*
X0041700Y0092508D01*
X0041998Y0092806D01*
X0042208Y0093171D01*
X0042317Y0094188D02*
X0043814Y0094188D01*
X0045013Y0095387D02*
X0042317Y0095387D01*
X0042317Y0097784D02*
X0047410Y0097784D01*
X0048608Y0098982D02*
X0042317Y0098982D01*
X0042275Y0100181D02*
X0049807Y0100181D01*
X0051005Y0101379D02*
X0041049Y0101379D01*
X0038109Y0101379D02*
X0037302Y0101379D01*
X0037302Y0100181D02*
X0038109Y0100181D01*
X0038109Y0098982D02*
X0037302Y0098982D01*
X0037302Y0097784D02*
X0038109Y0097784D01*
X0038110Y0096585D02*
X0046211Y0096585D01*
X0038109Y0095387D02*
X0037302Y0095387D01*
X0037301Y0096585D02*
X0030706Y0096585D01*
X0030695Y0097784D02*
X0033094Y0097784D01*
X0033094Y0098982D02*
X0030199Y0098982D01*
X0030194Y0100181D02*
X0033136Y0100181D01*
X0034362Y0101379D02*
X0030194Y0101379D01*
X0030194Y0102578D02*
X0052204Y0102578D01*
X0053402Y0103776D02*
X0030194Y0103776D01*
X0030194Y0104975D02*
X0034864Y0104975D01*
X0034701Y0105093D02*
X0035288Y0104667D01*
X0035935Y0104337D01*
X0036626Y0104113D01*
X0037302Y0104006D01*
X0037302Y0108207D01*
X0038109Y0108207D01*
X0038109Y0104006D01*
X0038785Y0104113D01*
X0039476Y0104337D01*
X0040123Y0104667D01*
X0040710Y0105093D01*
X0041223Y0105607D01*
X0041650Y0106194D01*
X0041979Y0106841D01*
X0042204Y0107531D01*
X0042311Y0108207D01*
X0038110Y0108207D01*
X0038110Y0109015D01*
X0042311Y0109015D01*
X0042204Y0109691D01*
X0041979Y0110381D01*
X0041650Y0111028D01*
X0041223Y0111615D01*
X0040710Y0112129D01*
X0040123Y0112555D01*
X0039476Y0112885D01*
X0038785Y0113109D01*
X0038109Y0113216D01*
X0038109Y0109015D01*
X0037302Y0109015D01*
X0037302Y0113216D01*
X0036626Y0113109D01*
X0035935Y0112885D01*
X0035288Y0112555D01*
X0034701Y0112129D01*
X0034188Y0111615D01*
X0033761Y0111028D01*
X0033432Y0110381D01*
X0033207Y0109691D01*
X0033100Y0109015D01*
X0037301Y0109015D01*
X0037301Y0108207D01*
X0033100Y0108207D01*
X0033207Y0107531D01*
X0033432Y0106841D01*
X0033761Y0106194D01*
X0034188Y0105607D01*
X0034701Y0105093D01*
X0033776Y0106173D02*
X0030194Y0106173D01*
X0030590Y0107372D02*
X0033259Y0107372D01*
X0033233Y0109769D02*
X0030623Y0109769D01*
X0030706Y0108570D02*
X0037301Y0108570D01*
X0038110Y0108570D02*
X0058196Y0108570D01*
X0056998Y0107372D02*
X0042152Y0107372D01*
X0041635Y0106173D02*
X0055799Y0106173D01*
X0054601Y0104975D02*
X0040547Y0104975D01*
X0038109Y0104975D02*
X0037302Y0104975D01*
X0037302Y0106173D02*
X0038109Y0106173D01*
X0038109Y0107372D02*
X0037302Y0107372D01*
X0037302Y0109769D02*
X0038109Y0109769D01*
X0038109Y0110968D02*
X0037302Y0110968D01*
X0037302Y0112166D02*
X0038109Y0112166D01*
X0040659Y0112166D02*
X0061792Y0112166D01*
X0060594Y0110968D02*
X0041681Y0110968D01*
X0042178Y0109769D02*
X0059395Y0109769D01*
X0063000Y0115762D02*
X0003600Y0115762D01*
X0003600Y0116960D02*
X0061240Y0116960D01*
X0034752Y0112166D02*
X0029144Y0112166D01*
X0030127Y0110968D02*
X0033730Y0110968D01*
X0033094Y0095387D02*
X0030517Y0095387D01*
X0030194Y0094188D02*
X0033094Y0094188D01*
X0033307Y0092990D02*
X0030194Y0092990D01*
X0037302Y0092990D02*
X0038109Y0092990D01*
X0038109Y0094188D02*
X0037302Y0094188D01*
X0068900Y0094188D02*
X0069700Y0094188D01*
X0069700Y0092990D02*
X0068900Y0092990D01*
X0068900Y0095387D02*
X0069700Y0095387D01*
X0106100Y0086997D02*
X0120426Y0086997D01*
X0126995Y0090593D02*
X0153219Y0090593D01*
X0152144Y0091791D02*
X0127100Y0091791D01*
X0127003Y0092990D02*
X0151647Y0092990D01*
X0151500Y0094188D02*
X0126506Y0094188D01*
X0125501Y0095387D02*
X0151555Y0095387D01*
X0119488Y0115762D02*
X0117301Y0115762D01*
X0117256Y0116960D02*
X0119533Y0116960D01*
X0120030Y0118159D02*
X0116759Y0118159D01*
X0115831Y0119357D02*
X0120958Y0119357D01*
X0122979Y0120556D02*
X0113810Y0120556D01*
X0113588Y0122953D02*
X0120484Y0122953D01*
X0119488Y0124151D02*
X0115740Y0124151D01*
X0116721Y0125350D02*
X0119488Y0125350D01*
X0119488Y0126548D02*
X0117218Y0126548D01*
X0117301Y0127747D02*
X0119488Y0127747D01*
X0119488Y0128945D02*
X0117184Y0128945D01*
X0116687Y0130144D02*
X0119488Y0130144D01*
X0119488Y0131342D02*
X0115657Y0131342D01*
X0107835Y0121754D02*
X0124170Y0121754D01*
X0130340Y0127747D02*
X0152958Y0127747D01*
X0152036Y0126548D02*
X0131538Y0126548D01*
X0132737Y0125350D02*
X0151539Y0125350D01*
X0151500Y0124151D02*
X0133935Y0124151D01*
X0135134Y0122953D02*
X0151663Y0122953D01*
X0152159Y0121754D02*
X0135813Y0121754D01*
X0129141Y0128945D02*
X0154971Y0128945D01*
X0154325Y0130144D02*
X0129112Y0130144D01*
X0129112Y0131342D02*
X0152763Y0131342D01*
X0158900Y0131342D02*
X0159700Y0131342D01*
X0159700Y0130144D02*
X0158900Y0130144D01*
X0159700Y0129700D02*
X0162662Y0129700D01*
X0163377Y0129813D01*
X0164066Y0130037D01*
X0164711Y0130366D01*
X0165297Y0130791D01*
X0165809Y0131303D01*
X0166234Y0131889D01*
X0166563Y0132534D01*
X0166787Y0133223D01*
X0166894Y0133900D01*
X0159700Y0133900D01*
X0159700Y0129700D01*
X0159700Y0132541D02*
X0158900Y0132541D01*
X0158900Y0133739D02*
X0159700Y0133739D01*
X0159700Y0134700D02*
X0166894Y0134700D01*
X0166787Y0135377D01*
X0166563Y0136066D01*
X0166234Y0136711D01*
X0165809Y0137297D01*
X0165297Y0137809D01*
X0164711Y0138234D01*
X0164066Y0138563D01*
X0163377Y0138787D01*
X0162662Y0138900D01*
X0159700Y0138900D01*
X0159700Y0134700D01*
X0159700Y0134938D02*
X0158900Y0134938D01*
X0158900Y0136136D02*
X0159700Y0136136D01*
X0159700Y0137335D02*
X0158900Y0137335D01*
X0158900Y0138533D02*
X0159700Y0138533D01*
X0163814Y0139732D02*
X0169200Y0139732D01*
X0169200Y0140930D02*
X0165719Y0140930D01*
X0166596Y0142129D02*
X0169200Y0142129D01*
X0169200Y0143327D02*
X0167093Y0143327D01*
X0167100Y0144526D02*
X0169200Y0144526D01*
X0169200Y0145724D02*
X0166905Y0145724D01*
X0166409Y0146923D02*
X0169200Y0146923D01*
X0169200Y0148121D02*
X0165267Y0148121D01*
X0174400Y0148121D02*
X0205900Y0148121D01*
X0205900Y0146923D02*
X0174400Y0146923D01*
X0174400Y0145724D02*
X0205900Y0145724D01*
X0205900Y0144526D02*
X0174400Y0144526D01*
X0174400Y0143327D02*
X0205900Y0143327D01*
X0205900Y0142129D02*
X0174400Y0142129D01*
X0174400Y0140930D02*
X0205900Y0140930D01*
X0205900Y0139732D02*
X0174400Y0139732D01*
X0174400Y0138533D02*
X0205937Y0138533D01*
X0206457Y0137335D02*
X0174400Y0137335D01*
X0174400Y0136136D02*
X0207655Y0136136D01*
X0208854Y0134938D02*
X0174400Y0134938D01*
X0174400Y0133739D02*
X0210052Y0133739D01*
X0211251Y0132541D02*
X0174400Y0132541D01*
X0174400Y0131342D02*
X0212470Y0131342D01*
X0213791Y0130144D02*
X0173821Y0130144D01*
X0172622Y0128945D02*
X0214971Y0128945D01*
X0212958Y0127747D02*
X0171424Y0127747D01*
X0170225Y0126548D02*
X0212036Y0126548D01*
X0211539Y0125350D02*
X0169027Y0125350D01*
X0167828Y0124151D02*
X0211500Y0124151D01*
X0211663Y0122953D02*
X0166937Y0122953D01*
X0166441Y0121754D02*
X0212159Y0121754D01*
X0213256Y0120556D02*
X0165344Y0120556D01*
X0165268Y0128945D02*
X0163629Y0128945D01*
X0164275Y0130144D02*
X0166467Y0130144D01*
X0165837Y0131342D02*
X0167665Y0131342D01*
X0166565Y0132541D02*
X0168864Y0132541D01*
X0169200Y0133739D02*
X0166869Y0133739D01*
X0166856Y0134938D02*
X0169200Y0134938D01*
X0169200Y0136136D02*
X0166527Y0136136D01*
X0165771Y0137335D02*
X0169200Y0137335D01*
X0169200Y0138533D02*
X0164124Y0138533D01*
X0152004Y0142129D02*
X0074271Y0142129D01*
X0073109Y0142129D02*
X0065200Y0142129D01*
X0065200Y0143327D02*
X0066184Y0143327D01*
X0066184Y0144526D02*
X0065200Y0144526D01*
X0065200Y0145724D02*
X0066915Y0145724D01*
X0065984Y0146923D02*
X0065200Y0146923D01*
X0065200Y0148121D02*
X0065984Y0148121D01*
X0065984Y0149320D02*
X0065200Y0149320D01*
X0065200Y0150518D02*
X0065984Y0150518D01*
X0065984Y0151717D02*
X0065200Y0151717D01*
X0065200Y0152915D02*
X0065984Y0152915D01*
X0066527Y0154114D02*
X0065200Y0154114D01*
X0065200Y0155312D02*
X0065984Y0155312D01*
X0065984Y0156511D02*
X0065200Y0156511D01*
X0065200Y0157709D02*
X0065984Y0157709D01*
X0065984Y0158908D02*
X0065200Y0158908D01*
X0065200Y0160106D02*
X0065984Y0160106D01*
X0066417Y0161305D02*
X0065200Y0161305D01*
X0065200Y0162503D02*
X0066012Y0162503D01*
X0065984Y0163702D02*
X0065200Y0163702D01*
X0065200Y0164901D02*
X0065984Y0164901D01*
X0065984Y0166099D02*
X0065200Y0166099D01*
X0065200Y0167298D02*
X0065984Y0167298D01*
X0065984Y0168496D02*
X0065200Y0168496D01*
X0065200Y0169695D02*
X0066694Y0169695D01*
X0065984Y0170893D02*
X0065200Y0170893D01*
X0065200Y0172092D02*
X0065984Y0172092D01*
X0065984Y0173290D02*
X0065200Y0173290D01*
X0065200Y0174489D02*
X0065984Y0174489D01*
X0065984Y0175687D02*
X0065200Y0175687D01*
X0065200Y0176886D02*
X0066249Y0176886D01*
X0066179Y0178084D02*
X0065200Y0178084D01*
X0065200Y0179283D02*
X0065984Y0179283D01*
X0065984Y0180481D02*
X0065200Y0180481D01*
X0065200Y0181680D02*
X0065984Y0181680D01*
X0065984Y0182878D02*
X0065200Y0182878D01*
X0065200Y0184077D02*
X0065984Y0184077D01*
X0066765Y0185275D02*
X0065200Y0185275D01*
X0065200Y0186474D02*
X0065984Y0186474D01*
X0065984Y0187672D02*
X0065200Y0187672D01*
X0065200Y0188871D02*
X0065984Y0188871D01*
X0065984Y0190069D02*
X0065200Y0190069D01*
X0065200Y0191268D02*
X0065984Y0191268D01*
X0066082Y0192466D02*
X0065200Y0192466D01*
X0065200Y0193665D02*
X0066346Y0193665D01*
X0065984Y0194863D02*
X0065200Y0194863D01*
X0065200Y0196062D02*
X0065984Y0196062D01*
X0065984Y0197260D02*
X0065200Y0197260D01*
X0065200Y0198459D02*
X0065984Y0198459D01*
X0065984Y0199657D02*
X0065200Y0199657D01*
X0065664Y0200856D02*
X0066598Y0200856D01*
X0066863Y0202054D02*
X0081363Y0202054D01*
X0080782Y0200856D02*
X0082562Y0200856D01*
X0082169Y0199657D02*
X0083760Y0199657D01*
X0083818Y0198459D02*
X0084728Y0198459D01*
X0085017Y0197260D02*
X0085225Y0197260D01*
X0086215Y0196062D02*
X0086224Y0196062D01*
X0087414Y0194863D02*
X0121054Y0194863D01*
X0122253Y0193665D02*
X0088612Y0193665D01*
X0089811Y0192466D02*
X0123451Y0192466D01*
X0124862Y0191268D02*
X0091009Y0191268D01*
X0092208Y0190069D02*
X0124080Y0190069D01*
X0122881Y0188871D02*
X0093406Y0188871D01*
X0094253Y0187672D02*
X0104457Y0187672D01*
X0104696Y0187911D02*
X0103642Y0186857D01*
X0103642Y0177491D01*
X0104696Y0176437D01*
X0110518Y0176437D01*
X0111572Y0177491D01*
X0111572Y0186857D01*
X0110518Y0187911D01*
X0104696Y0187911D01*
X0103642Y0186474D02*
X0094400Y0186474D01*
X0094400Y0185275D02*
X0103642Y0185275D01*
X0103642Y0184077D02*
X0094400Y0184077D01*
X0094400Y0182878D02*
X0103642Y0182878D01*
X0103642Y0181680D02*
X0094400Y0181680D01*
X0094400Y0180481D02*
X0103642Y0180481D01*
X0103642Y0179283D02*
X0094400Y0179283D01*
X0094400Y0178084D02*
X0103642Y0178084D01*
X0104248Y0176886D02*
X0094400Y0176886D01*
X0094400Y0175687D02*
X0125374Y0175687D01*
X0125351Y0176886D02*
X0124352Y0176886D01*
X0125818Y0174489D02*
X0094400Y0174489D01*
X0094400Y0173290D02*
X0125616Y0173290D01*
X0125574Y0172092D02*
X0123975Y0172092D01*
X0124958Y0170893D02*
X0128866Y0170893D01*
X0129734Y0170893D02*
X0136650Y0170893D01*
X0135452Y0169695D02*
X0133026Y0169695D01*
X0133004Y0168496D02*
X0134253Y0168496D01*
X0133026Y0172092D02*
X0137849Y0172092D01*
X0139047Y0173290D02*
X0132984Y0173290D01*
X0132782Y0174489D02*
X0140246Y0174489D01*
X0141444Y0175687D02*
X0133226Y0175687D01*
X0133226Y0176886D02*
X0142643Y0176886D01*
X0143841Y0178084D02*
X0133226Y0178084D01*
X0133226Y0179283D02*
X0145040Y0179283D01*
X0146239Y0180481D02*
X0133226Y0180481D01*
X0130174Y0181680D02*
X0147437Y0181680D01*
X0128975Y0182878D02*
X0198058Y0182878D01*
X0206174Y0198459D02*
X0215791Y0198459D01*
X0215789Y0199657D02*
X0206174Y0199657D01*
X0206174Y0200856D02*
X0216087Y0200856D01*
X0216804Y0202054D02*
X0206135Y0202054D01*
X0204960Y0203253D02*
X0218557Y0203253D01*
X0221421Y0203253D02*
X0226431Y0203253D01*
X0224678Y0202054D02*
X0223174Y0202054D01*
X0223891Y0200856D02*
X0223961Y0200856D01*
X0229295Y0203253D02*
X0234305Y0203253D01*
X0232552Y0202054D02*
X0231048Y0202054D01*
X0231765Y0200856D02*
X0231835Y0200856D01*
X0237169Y0203253D02*
X0240825Y0203253D01*
X0239650Y0202054D02*
X0238922Y0202054D01*
X0243411Y0202054D02*
X0243811Y0202054D01*
X0243811Y0200856D02*
X0243411Y0200856D01*
X0243411Y0199657D02*
X0243811Y0199657D01*
X0243811Y0203253D02*
X0243411Y0203253D01*
X0246397Y0203253D02*
X0258557Y0203253D01*
X0256804Y0202054D02*
X0247573Y0202054D01*
X0247611Y0200856D02*
X0256087Y0200856D01*
X0255789Y0199657D02*
X0247611Y0199657D01*
X0247611Y0198459D02*
X0255791Y0198459D01*
X0260973Y0193665D02*
X0292480Y0193665D01*
X0292480Y0194863D02*
X0262172Y0194863D01*
X0263078Y0196062D02*
X0265161Y0196062D01*
X0264162Y0197260D02*
X0263690Y0197260D01*
X0263891Y0200856D02*
X0263961Y0200856D01*
X0264678Y0202054D02*
X0263174Y0202054D01*
X0261421Y0203253D02*
X0266431Y0203253D01*
X0269295Y0203253D02*
X0274305Y0203253D01*
X0272552Y0202054D02*
X0271048Y0202054D01*
X0271765Y0200856D02*
X0271835Y0200856D01*
X0272036Y0197260D02*
X0271564Y0197260D01*
X0270564Y0196062D02*
X0273035Y0196062D01*
X0278439Y0196062D02*
X0279847Y0196062D01*
X0279611Y0197260D02*
X0279438Y0197260D01*
X0283411Y0197260D02*
X0283811Y0197260D01*
X0283811Y0196062D02*
X0283411Y0196062D01*
X0283411Y0198459D02*
X0283811Y0198459D01*
X0283811Y0199657D02*
X0283411Y0199657D01*
X0283411Y0200856D02*
X0283811Y0200856D01*
X0283811Y0202054D02*
X0283411Y0202054D01*
X0283411Y0203253D02*
X0283811Y0203253D01*
X0286397Y0203253D02*
X0292480Y0203253D01*
X0292480Y0202054D02*
X0287573Y0202054D01*
X0287611Y0200856D02*
X0292480Y0200856D01*
X0292480Y0199657D02*
X0287611Y0199657D01*
X0287611Y0198459D02*
X0292480Y0198459D01*
X0292480Y0197260D02*
X0287611Y0197260D01*
X0287375Y0196062D02*
X0292480Y0196062D01*
X0286289Y0192466D02*
X0259775Y0192466D01*
X0258364Y0191268D02*
X0285091Y0191268D01*
X0288849Y0187672D02*
X0292480Y0187672D01*
X0292480Y0186474D02*
X0287651Y0186474D01*
X0286452Y0185275D02*
X0292480Y0185275D01*
X0292480Y0184077D02*
X0285254Y0184077D01*
X0285558Y0182878D02*
X0284055Y0182878D01*
X0283832Y0181680D02*
X0282857Y0181680D01*
X0283197Y0180481D02*
X0281658Y0180481D01*
X0280460Y0179283D02*
X0283019Y0179283D01*
X0283211Y0178084D02*
X0279261Y0178084D01*
X0278063Y0176886D02*
X0283867Y0176886D01*
X0285642Y0175687D02*
X0276864Y0175687D01*
X0275666Y0174489D02*
X0292480Y0174489D01*
X0292480Y0175687D02*
X0287958Y0175687D01*
X0292480Y0173290D02*
X0274467Y0173290D01*
X0274400Y0172092D02*
X0292480Y0172092D01*
X0292480Y0170893D02*
X0274400Y0170893D01*
X0274400Y0169695D02*
X0292480Y0169695D01*
X0292480Y0168496D02*
X0274400Y0168496D01*
X0274400Y0167298D02*
X0292480Y0167298D01*
X0292480Y0166099D02*
X0274400Y0166099D01*
X0274400Y0164901D02*
X0292680Y0164901D01*
X0292680Y0163702D02*
X0274400Y0163702D01*
X0274400Y0162503D02*
X0298719Y0162503D01*
X0299487Y0162503D02*
X0342874Y0162503D01*
X0342874Y0161305D02*
X0305526Y0161305D01*
X0305526Y0163702D02*
X0342874Y0163702D01*
X0342874Y0164901D02*
X0305526Y0164901D01*
X0305726Y0166099D02*
X0342874Y0166099D01*
X0342874Y0167298D02*
X0305726Y0167298D01*
X0305726Y0168496D02*
X0342874Y0168496D01*
X0342874Y0169695D02*
X0305726Y0169695D01*
X0305726Y0170893D02*
X0342874Y0170893D01*
X0342874Y0172092D02*
X0305726Y0172092D01*
X0305726Y0173290D02*
X0342874Y0173290D01*
X0342874Y0174489D02*
X0305726Y0174489D01*
X0305726Y0175687D02*
X0342874Y0175687D01*
X0342874Y0176886D02*
X0305726Y0176886D01*
X0305726Y0178084D02*
X0342874Y0178084D01*
X0342874Y0179283D02*
X0305726Y0179283D01*
X0305726Y0180481D02*
X0342874Y0180481D01*
X0342874Y0181680D02*
X0305726Y0181680D01*
X0305726Y0182878D02*
X0343074Y0182878D01*
X0343074Y0184077D02*
X0305726Y0184077D01*
X0305726Y0185275D02*
X0343074Y0185275D01*
X0343074Y0186474D02*
X0305726Y0186474D01*
X0305726Y0187672D02*
X0342874Y0187672D01*
X0342874Y0188871D02*
X0305726Y0188871D01*
X0305726Y0190069D02*
X0342874Y0190069D01*
X0342874Y0191268D02*
X0305726Y0191268D01*
X0305726Y0192466D02*
X0342874Y0192466D01*
X0343082Y0193665D02*
X0305726Y0193665D01*
X0305726Y0194863D02*
X0343074Y0194863D01*
X0343074Y0197260D02*
X0305726Y0197260D01*
X0305726Y0196062D02*
X0349113Y0196062D01*
X0349881Y0196062D02*
X0362385Y0196062D01*
X0363583Y0197260D02*
X0355920Y0197260D01*
X0355811Y0198459D02*
X0357898Y0198459D01*
X0357385Y0199657D02*
X0355920Y0199657D01*
X0355920Y0200856D02*
X0357385Y0200856D01*
X0355920Y0202054D02*
X0360569Y0202054D01*
X0360569Y0200856D02*
X0361338Y0200856D01*
X0361338Y0199657D02*
X0360569Y0199657D01*
X0360569Y0198459D02*
X0361338Y0198459D01*
X0364009Y0198459D02*
X0364308Y0198459D01*
X0361186Y0194863D02*
X0355920Y0194863D01*
X0355911Y0193665D02*
X0359988Y0193665D01*
X0363746Y0190069D02*
X0369200Y0190069D01*
X0369200Y0188871D02*
X0362548Y0188871D01*
X0361836Y0188159D02*
X0369200Y0195523D01*
X0369200Y0183077D01*
X0368081Y0184196D01*
X0368081Y0185052D01*
X0367505Y0186442D01*
X0366442Y0187505D01*
X0365052Y0188081D01*
X0363548Y0188081D01*
X0362158Y0187505D01*
X0361095Y0186442D01*
X0360519Y0185052D01*
X0360519Y0183548D01*
X0361095Y0182158D01*
X0362158Y0181095D01*
X0363548Y0180519D01*
X0364404Y0180519D01*
X0366700Y0178223D01*
X0366700Y0175577D01*
X0360733Y0181544D01*
X0359778Y0181939D01*
X0356120Y0181939D01*
X0356120Y0182053D01*
X0355831Y0182342D01*
X0355920Y0182672D01*
X0355920Y0184467D01*
X0349881Y0184467D01*
X0349881Y0185235D01*
X0355920Y0185235D01*
X0355920Y0187030D01*
X0355831Y0187360D01*
X0356120Y0187649D01*
X0356120Y0187763D01*
X0360880Y0187763D01*
X0361836Y0188159D01*
X0362561Y0187672D02*
X0356120Y0187672D01*
X0355920Y0186474D02*
X0361126Y0186474D01*
X0360611Y0185275D02*
X0355920Y0185275D01*
X0355920Y0184077D02*
X0360519Y0184077D01*
X0360796Y0182878D02*
X0355920Y0182878D01*
X0360405Y0181680D02*
X0361573Y0181680D01*
X0361796Y0180481D02*
X0364442Y0180481D01*
X0365640Y0179283D02*
X0362994Y0179283D01*
X0364193Y0178084D02*
X0366700Y0178084D01*
X0366700Y0176886D02*
X0365391Y0176886D01*
X0366590Y0175687D02*
X0366700Y0175687D01*
X0374400Y0175687D02*
X0375201Y0175687D01*
X0375201Y0174489D02*
X0374400Y0174489D01*
X0374400Y0173290D02*
X0375201Y0173290D01*
X0375201Y0172092D02*
X0374400Y0172092D01*
X0374400Y0170893D02*
X0375201Y0170893D01*
X0375201Y0169695D02*
X0374400Y0169695D01*
X0374400Y0168496D02*
X0375201Y0168496D01*
X0375201Y0167298D02*
X0374400Y0167298D01*
X0374400Y0166099D02*
X0375201Y0166099D01*
X0375201Y0164901D02*
X0374400Y0164901D01*
X0374400Y0163702D02*
X0375201Y0163702D01*
X0375201Y0162503D02*
X0374400Y0162503D01*
X0374400Y0161305D02*
X0375201Y0161305D01*
X0375201Y0160106D02*
X0374400Y0160106D01*
X0374400Y0158908D02*
X0375201Y0158908D01*
X0375201Y0157709D02*
X0374400Y0157709D01*
X0374400Y0156511D02*
X0375201Y0156511D01*
X0375201Y0155312D02*
X0374400Y0155312D01*
X0374400Y0154114D02*
X0375201Y0154114D01*
X0375201Y0152915D02*
X0374400Y0152915D01*
X0374400Y0151717D02*
X0375201Y0151717D01*
X0375201Y0150518D02*
X0374400Y0150518D01*
X0374400Y0149320D02*
X0375201Y0149320D01*
X0375201Y0148121D02*
X0374400Y0148121D01*
X0374400Y0146923D02*
X0375201Y0146923D01*
X0375201Y0145724D02*
X0374400Y0145724D01*
X0374400Y0144526D02*
X0375201Y0144526D01*
X0375201Y0143327D02*
X0374400Y0143327D01*
X0374400Y0142129D02*
X0375201Y0142129D01*
X0375201Y0140930D02*
X0374400Y0140930D01*
X0374400Y0139732D02*
X0375201Y0139732D01*
X0375201Y0138533D02*
X0374400Y0138533D01*
X0374400Y0137335D02*
X0375201Y0137335D01*
X0375201Y0136136D02*
X0374400Y0136136D01*
X0374400Y0134938D02*
X0375201Y0134938D01*
X0375201Y0133739D02*
X0374400Y0133739D01*
X0374400Y0132541D02*
X0375201Y0132541D01*
X0375201Y0131342D02*
X0374400Y0131342D01*
X0374400Y0130144D02*
X0375201Y0130144D01*
X0375201Y0128945D02*
X0374400Y0128945D01*
X0374400Y0127747D02*
X0375201Y0127747D01*
X0375201Y0126548D02*
X0374400Y0126548D01*
X0374400Y0125350D02*
X0375201Y0125350D01*
X0375201Y0124151D02*
X0374400Y0124151D01*
X0374056Y0122953D02*
X0375201Y0122953D01*
X0375201Y0121754D02*
X0372931Y0121754D01*
X0371733Y0120556D02*
X0375201Y0120556D01*
X0349984Y0091791D02*
X0322890Y0091791D01*
X0324088Y0090593D02*
X0348786Y0090593D01*
X0347587Y0089394D02*
X0325287Y0089394D01*
X0326485Y0088196D02*
X0347492Y0088196D01*
X0347492Y0086997D02*
X0327684Y0086997D01*
X0328882Y0085799D02*
X0347492Y0085799D01*
X0347492Y0084600D02*
X0330081Y0084600D01*
X0330791Y0083402D02*
X0348498Y0083402D01*
X0348781Y0083119D02*
X0348781Y0083119D01*
X0348069Y0082203D02*
X0331100Y0082203D01*
X0331100Y0081005D02*
X0347492Y0081005D01*
X0347492Y0079806D02*
X0331100Y0079806D01*
X0331100Y0078608D02*
X0348688Y0078608D01*
X0348215Y0076211D02*
X0331100Y0076211D01*
X0331100Y0077409D02*
X0350948Y0077409D01*
X0347492Y0075012D02*
X0331100Y0075012D01*
X0331100Y0073814D02*
X0347492Y0073814D01*
X0348542Y0072615D02*
X0331100Y0072615D01*
X0331100Y0071417D02*
X0348025Y0071417D01*
X0347492Y0070218D02*
X0331100Y0070218D01*
X0331100Y0069020D02*
X0347492Y0069020D01*
X0347492Y0067821D02*
X0331100Y0067821D01*
X0331100Y0066623D02*
X0347492Y0066623D01*
X0347492Y0065424D02*
X0331100Y0065424D01*
X0331100Y0064226D02*
X0347724Y0064226D01*
X0356299Y0072615D02*
X0356897Y0072615D01*
X0353774Y0085799D02*
X0352323Y0085799D01*
X0352576Y0086997D02*
X0351892Y0086997D01*
X0315504Y0096585D02*
X0313290Y0096585D01*
X0309700Y0085799D02*
X0308900Y0085799D01*
X0308900Y0084600D02*
X0309700Y0084600D01*
X0309700Y0083402D02*
X0308900Y0083402D01*
X0308900Y0082203D02*
X0309700Y0082203D01*
X0309700Y0081005D02*
X0308900Y0081005D01*
X0308900Y0079806D02*
X0309700Y0079806D01*
X0309700Y0078608D02*
X0308900Y0078608D01*
X0308900Y0077409D02*
X0309700Y0077409D01*
X0304928Y0077409D02*
X0304772Y0077409D01*
X0301769Y0081005D02*
X0301176Y0081005D01*
X0301707Y0082203D02*
X0299978Y0082203D01*
X0298779Y0083402D02*
X0301984Y0083402D01*
X0302649Y0084600D02*
X0297581Y0084600D01*
X0296382Y0085799D02*
X0304016Y0085799D01*
X0305147Y0057034D02*
X0305262Y0057034D01*
X0351257Y0054637D02*
X0357335Y0054637D01*
X0360465Y0054637D02*
X0375201Y0054637D01*
X0375201Y0053439D02*
X0361100Y0053439D01*
X0361100Y0052240D02*
X0375201Y0052240D01*
X0375201Y0051042D02*
X0361100Y0051042D01*
X0361100Y0049843D02*
X0375201Y0049843D01*
X0375201Y0048645D02*
X0360634Y0048645D01*
X0361215Y0047446D02*
X0375201Y0047446D01*
X0375201Y0046248D02*
X0361100Y0046248D01*
X0360108Y0045049D02*
X0375201Y0045049D01*
X0375201Y0043851D02*
X0358213Y0043851D01*
X0360173Y0042652D02*
X0375201Y0042652D01*
X0375201Y0041454D02*
X0361100Y0041454D01*
X0361100Y0040255D02*
X0375201Y0040255D01*
X0375201Y0039057D02*
X0360699Y0039057D01*
X0361100Y0037858D02*
X0375201Y0037858D01*
X0375201Y0036660D02*
X0361100Y0036660D01*
X0361100Y0035461D02*
X0375201Y0035461D01*
X0375201Y0034263D02*
X0361100Y0034263D01*
X0360553Y0033064D02*
X0375201Y0033064D01*
X0375201Y0031866D02*
X0361100Y0031866D01*
X0361072Y0030667D02*
X0375201Y0030667D01*
X0375201Y0029469D02*
X0359874Y0029469D01*
X0360407Y0027072D02*
X0375201Y0027072D01*
X0375201Y0028270D02*
X0354961Y0028270D01*
X0361100Y0025873D02*
X0375201Y0025873D01*
X0375201Y0024675D02*
X0361100Y0024675D01*
X0375201Y0004300D02*
X0322881Y0004300D01*
X0155241Y0039057D02*
X0153220Y0039057D01*
X0153556Y0040255D02*
X0152022Y0040255D01*
X0152358Y0041454D02*
X0150823Y0041454D01*
X0149831Y0047446D02*
X0152658Y0047446D01*
X0154247Y0048645D02*
X0148632Y0048645D01*
X0147434Y0049843D02*
X0154516Y0049843D01*
X0152770Y0051042D02*
X0146900Y0051042D01*
X0146900Y0052240D02*
X0151958Y0052240D01*
X0151500Y0053439D02*
X0146900Y0053439D01*
X0146900Y0054637D02*
X0151500Y0054637D01*
X0151741Y0055836D02*
X0146900Y0055836D01*
X0146900Y0057034D02*
X0152246Y0057034D01*
X0153445Y0058233D02*
X0146900Y0058233D01*
X0129087Y0055836D02*
X0125052Y0055836D01*
X0123338Y0057034D02*
X0127889Y0057034D01*
X0126690Y0058233D02*
X0125521Y0058233D01*
X0064178Y0017484D02*
X0024248Y0017484D01*
X0023751Y0018682D02*
X0038837Y0018682D01*
X0037638Y0019881D02*
X0022673Y0019881D01*
X0021475Y0021079D02*
X0036440Y0021079D01*
X0117146Y0114563D02*
X0118482Y0114563D01*
X0074271Y0138533D02*
X0073109Y0138533D01*
X0073109Y0139732D02*
X0074271Y0139732D01*
X0074271Y0140930D02*
X0073109Y0140930D01*
X0066643Y0138533D02*
X0065200Y0138533D01*
X0065200Y0139732D02*
X0066184Y0139732D01*
X0066184Y0140930D02*
X0065200Y0140930D01*
X0081395Y0151717D02*
X0103742Y0151717D01*
X0102008Y0152915D02*
X0081395Y0152915D01*
X0080852Y0154114D02*
X0100809Y0154114D01*
X0099611Y0155312D02*
X0081395Y0155312D01*
X0081395Y0156511D02*
X0098412Y0156511D01*
X0097214Y0157709D02*
X0081395Y0157709D01*
X0081395Y0158908D02*
X0096015Y0158908D01*
X0094817Y0160106D02*
X0081395Y0160106D01*
X0080963Y0161305D02*
X0093618Y0161305D01*
X0092420Y0162503D02*
X0081368Y0162503D01*
X0081395Y0163702D02*
X0091221Y0163702D01*
X0090023Y0164901D02*
X0081395Y0164901D01*
X0081395Y0166099D02*
X0088824Y0166099D01*
X0087626Y0167298D02*
X0081395Y0167298D01*
X0081395Y0168496D02*
X0086427Y0168496D01*
X0085228Y0169695D02*
X0080685Y0169695D01*
X0081395Y0170893D02*
X0084361Y0170893D01*
X0084200Y0172092D02*
X0081395Y0172092D01*
X0081395Y0173290D02*
X0084200Y0173290D01*
X0084200Y0174489D02*
X0081395Y0174489D01*
X0081395Y0175687D02*
X0084200Y0175687D01*
X0084200Y0176886D02*
X0081130Y0176886D01*
X0081201Y0178084D02*
X0084200Y0178084D01*
X0084200Y0179283D02*
X0081395Y0179283D01*
X0081395Y0180481D02*
X0084200Y0180481D01*
X0084200Y0181680D02*
X0081395Y0181680D01*
X0081395Y0182878D02*
X0084200Y0182878D01*
X0083346Y0184077D02*
X0081395Y0184077D01*
X0082148Y0185275D02*
X0080614Y0185275D01*
X0091627Y0196062D02*
X0094098Y0196062D01*
X0093099Y0197260D02*
X0092627Y0197260D01*
X0092828Y0200856D02*
X0092898Y0200856D01*
X0093615Y0202054D02*
X0092111Y0202054D01*
X0090358Y0203253D02*
X0095368Y0203253D01*
X0098232Y0203253D02*
X0101888Y0203253D01*
X0100713Y0202054D02*
X0099985Y0202054D01*
X0104474Y0202054D02*
X0104874Y0202054D01*
X0104874Y0200856D02*
X0104474Y0200856D01*
X0104474Y0199657D02*
X0104874Y0199657D01*
X0104874Y0198459D02*
X0104474Y0198459D01*
X0104474Y0197260D02*
X0104874Y0197260D01*
X0104874Y0196062D02*
X0104474Y0196062D01*
X0100910Y0196062D02*
X0099502Y0196062D01*
X0100501Y0197260D02*
X0100674Y0197260D01*
X0104474Y0203253D02*
X0104874Y0203253D01*
X0107460Y0203253D02*
X0119994Y0203253D01*
X0118241Y0202054D02*
X0108635Y0202054D01*
X0108674Y0200856D02*
X0117524Y0200856D01*
X0117226Y0199657D02*
X0108674Y0199657D01*
X0108674Y0198459D02*
X0117228Y0198459D01*
X0117725Y0197260D02*
X0108674Y0197260D01*
X0108438Y0196062D02*
X0118724Y0196062D01*
X0125328Y0200856D02*
X0125398Y0200856D01*
X0126115Y0202054D02*
X0124611Y0202054D01*
X0122858Y0203253D02*
X0127868Y0203253D01*
X0130732Y0203253D02*
X0134388Y0203253D01*
X0133213Y0202054D02*
X0132485Y0202054D01*
X0136974Y0202054D02*
X0137374Y0202054D01*
X0137374Y0200856D02*
X0136974Y0200856D01*
X0136974Y0199657D02*
X0137374Y0199657D01*
X0137374Y0203253D02*
X0136974Y0203253D01*
X0139960Y0203253D02*
X0152494Y0203253D01*
X0150741Y0202054D02*
X0141135Y0202054D01*
X0141174Y0200856D02*
X0150024Y0200856D01*
X0149726Y0199657D02*
X0141174Y0199657D01*
X0141174Y0198459D02*
X0149728Y0198459D01*
X0155358Y0203253D02*
X0160368Y0203253D01*
X0158615Y0202054D02*
X0157111Y0202054D01*
X0157828Y0200856D02*
X0157898Y0200856D01*
X0163232Y0203253D02*
X0166888Y0203253D01*
X0165713Y0202054D02*
X0164985Y0202054D01*
X0169474Y0202054D02*
X0169874Y0202054D01*
X0169874Y0200856D02*
X0169474Y0200856D01*
X0169474Y0199657D02*
X0169874Y0199657D01*
X0169874Y0203253D02*
X0169474Y0203253D01*
X0172460Y0203253D02*
X0184994Y0203253D01*
X0183241Y0202054D02*
X0173635Y0202054D01*
X0173674Y0200856D02*
X0182524Y0200856D01*
X0182226Y0199657D02*
X0173674Y0199657D01*
X0173674Y0198459D02*
X0182228Y0198459D01*
X0187858Y0203253D02*
X0192868Y0203253D01*
X0191115Y0202054D02*
X0189611Y0202054D01*
X0190328Y0200856D02*
X0190398Y0200856D01*
X0195732Y0203253D02*
X0199388Y0203253D01*
X0198213Y0202054D02*
X0197485Y0202054D01*
X0201974Y0202054D02*
X0202374Y0202054D01*
X0202374Y0200856D02*
X0201974Y0200856D01*
X0201974Y0199657D02*
X0202374Y0199657D01*
X0202374Y0203253D02*
X0201974Y0203253D01*
X0184645Y0166099D02*
X0174400Y0166099D01*
X0174400Y0164901D02*
X0183447Y0164901D01*
X0182357Y0163702D02*
X0174400Y0163702D01*
X0174400Y0162503D02*
X0181860Y0162503D01*
X0174400Y0150518D02*
X0205900Y0150518D01*
X0205900Y0149320D02*
X0174400Y0149320D01*
X0154882Y0158908D02*
X0150085Y0158908D01*
X0151283Y0160106D02*
X0153881Y0160106D01*
X0152507Y0161305D02*
X0152482Y0161305D01*
X0152921Y0157709D02*
X0148886Y0157709D01*
X0147688Y0156511D02*
X0152020Y0156511D01*
X0151524Y0155312D02*
X0146489Y0155312D01*
X0145291Y0154114D02*
X0151500Y0154114D01*
X0151678Y0152915D02*
X0144092Y0152915D01*
X0142358Y0151717D02*
X0152174Y0151717D01*
X0130951Y0162503D02*
X0127273Y0162503D01*
X0126075Y0163702D02*
X0130519Y0163702D01*
X0130519Y0164901D02*
X0124958Y0164901D01*
X0124958Y0166099D02*
X0130953Y0166099D01*
X0129733Y0167298D02*
X0128867Y0167298D01*
X0128867Y0168496D02*
X0129733Y0168496D01*
X0129733Y0169695D02*
X0128867Y0169695D01*
X0125574Y0169695D02*
X0124958Y0169695D01*
X0124958Y0168496D02*
X0125596Y0168496D01*
X0124958Y0167298D02*
X0126556Y0167298D01*
X0118011Y0172092D02*
X0095185Y0172092D01*
X0096384Y0170893D02*
X0103927Y0170893D01*
X0103842Y0169695D02*
X0097582Y0169695D01*
X0098781Y0168496D02*
X0103842Y0168496D01*
X0103842Y0167298D02*
X0099979Y0167298D01*
X0101178Y0166099D02*
X0107124Y0166099D01*
X0108090Y0166099D02*
X0117028Y0166099D01*
X0117028Y0164901D02*
X0111372Y0164901D01*
X0111372Y0163702D02*
X0117028Y0163702D01*
X0117028Y0162503D02*
X0111372Y0162503D01*
X0110851Y0161305D02*
X0117466Y0161305D01*
X0122317Y0160106D02*
X0107170Y0160106D01*
X0107124Y0161305D02*
X0108090Y0161305D01*
X0108090Y0162503D02*
X0107124Y0162503D01*
X0107124Y0163702D02*
X0108090Y0163702D01*
X0108090Y0164901D02*
X0107124Y0164901D01*
X0107124Y0167298D02*
X0108090Y0167298D01*
X0108090Y0168496D02*
X0107124Y0168496D01*
X0107124Y0169695D02*
X0108090Y0169695D01*
X0108090Y0170893D02*
X0107124Y0170893D01*
X0111287Y0170893D02*
X0117028Y0170893D01*
X0117028Y0169695D02*
X0111372Y0169695D01*
X0111372Y0168496D02*
X0117028Y0168496D01*
X0117028Y0167298D02*
X0111372Y0167298D01*
X0103842Y0164901D02*
X0102376Y0164901D01*
X0103575Y0163702D02*
X0103842Y0163702D01*
X0110967Y0176886D02*
X0117633Y0176886D01*
X0117028Y0178084D02*
X0111572Y0178084D01*
X0111572Y0179283D02*
X0117028Y0179283D01*
X0117028Y0180481D02*
X0111572Y0180481D01*
X0111572Y0181680D02*
X0117028Y0181680D01*
X0117028Y0182878D02*
X0111572Y0182878D01*
X0111572Y0184077D02*
X0117028Y0184077D01*
X0117028Y0185275D02*
X0111572Y0185275D01*
X0111572Y0186474D02*
X0117028Y0186474D01*
X0117843Y0187672D02*
X0110757Y0187672D01*
X0088583Y0204451D02*
X0292831Y0204451D01*
X0280825Y0203253D02*
X0277169Y0203253D01*
X0278922Y0202054D02*
X0279650Y0202054D01*
X0305375Y0204451D02*
X0343508Y0204451D01*
X0343074Y0203253D02*
X0305726Y0203253D01*
X0305726Y0202054D02*
X0343074Y0202054D01*
X0343074Y0200856D02*
X0305726Y0200856D01*
X0305726Y0199657D02*
X0343074Y0199657D01*
X0343183Y0198459D02*
X0305726Y0198459D01*
X0292480Y0182878D02*
X0288042Y0182878D01*
X0292680Y0161305D02*
X0274400Y0161305D01*
X0274400Y0160106D02*
X0292854Y0160106D01*
X0298719Y0160106D02*
X0299487Y0160106D01*
X0299487Y0161305D02*
X0298719Y0161305D01*
X0269200Y0152915D02*
X0226687Y0152915D01*
X0226109Y0151717D02*
X0268040Y0151717D01*
X0266841Y0150518D02*
X0224921Y0150518D01*
X0225267Y0148121D02*
X0236944Y0148121D01*
X0235746Y0146923D02*
X0226409Y0146923D01*
X0226905Y0145724D02*
X0234547Y0145724D01*
X0233349Y0144526D02*
X0227100Y0144526D01*
X0227093Y0143327D02*
X0232150Y0143327D01*
X0230952Y0142129D02*
X0226596Y0142129D01*
X0225719Y0140930D02*
X0229753Y0140930D01*
X0228555Y0139732D02*
X0223814Y0139732D01*
X0224623Y0138533D02*
X0227356Y0138533D01*
X0226158Y0137335D02*
X0226053Y0137335D01*
X0214786Y0139732D02*
X0213677Y0139732D01*
X0212881Y0140930D02*
X0212700Y0140930D01*
X0212700Y0148121D02*
X0213333Y0148121D01*
X0212700Y0149320D02*
X0238589Y0149320D01*
X0219700Y0150518D02*
X0218900Y0150518D01*
X0218900Y0151717D02*
X0219700Y0151717D01*
X0219700Y0152915D02*
X0218900Y0152915D01*
X0213679Y0150518D02*
X0212700Y0150518D01*
X0212700Y0157709D02*
X0213204Y0157709D01*
X0269112Y0131342D02*
X0273581Y0131342D01*
X0274779Y0130144D02*
X0269112Y0130144D01*
X0269534Y0128945D02*
X0275978Y0128945D01*
X0276934Y0127747D02*
X0277176Y0127747D01*
X0278133Y0126548D02*
X0278375Y0126548D01*
X0279331Y0125350D02*
X0279573Y0125350D01*
X0280530Y0124151D02*
X0280772Y0124151D01*
X0281728Y0122953D02*
X0281970Y0122953D01*
X0282927Y0121754D02*
X0283169Y0121754D01*
X0284126Y0120556D02*
X0284367Y0120556D01*
X0285324Y0119357D02*
X0285566Y0119357D01*
X0343207Y0154153D02*
X0343207Y0159757D01*
X0343928Y0159035D01*
X0343976Y0159035D01*
X0343976Y0154153D01*
X0343207Y0154153D01*
X0343207Y0155312D02*
X0343976Y0155312D01*
X0343976Y0156511D02*
X0343207Y0156511D01*
X0343207Y0157709D02*
X0343976Y0157709D01*
X0343976Y0158908D02*
X0343207Y0158908D01*
X0341096Y0160106D02*
X0341078Y0160106D01*
X0351900Y0158908D02*
X0359200Y0158908D01*
X0359200Y0160106D02*
X0356120Y0160106D01*
X0356120Y0161305D02*
X0358618Y0161305D01*
X0357420Y0162503D02*
X0356120Y0162503D01*
X0356120Y0163702D02*
X0356221Y0163702D01*
X0359200Y0157709D02*
X0352067Y0157709D01*
X0353266Y0156511D02*
X0359200Y0156511D01*
X0359200Y0155312D02*
X0355701Y0155312D01*
X0357333Y0154114D02*
X0359200Y0154114D01*
X0359200Y0152915D02*
X0357931Y0152915D01*
X0358081Y0151717D02*
X0359200Y0151717D01*
X0359200Y0150518D02*
X0357862Y0150518D01*
X0357167Y0149320D02*
X0359200Y0149320D01*
X0374400Y0176886D02*
X0375201Y0176886D01*
X0375201Y0178084D02*
X0374400Y0178084D01*
X0374400Y0179283D02*
X0375201Y0179283D01*
X0375201Y0180481D02*
X0374400Y0180481D01*
X0374400Y0181680D02*
X0375201Y0181680D01*
X0375201Y0182878D02*
X0374400Y0182878D01*
X0374400Y0184077D02*
X0375201Y0184077D01*
X0375201Y0185275D02*
X0374400Y0185275D01*
X0374400Y0186474D02*
X0375201Y0186474D01*
X0375201Y0187672D02*
X0374400Y0187672D01*
X0374400Y0188871D02*
X0375201Y0188871D01*
X0375201Y0190069D02*
X0374400Y0190069D01*
X0374400Y0191268D02*
X0375201Y0191268D01*
X0375201Y0192466D02*
X0374400Y0192466D01*
X0374400Y0193665D02*
X0375201Y0193665D01*
X0375201Y0194863D02*
X0374400Y0194863D01*
X0374400Y0196062D02*
X0375201Y0196062D01*
X0375201Y0197260D02*
X0374400Y0197260D01*
X0374278Y0198459D02*
X0375201Y0198459D01*
X0375201Y0199657D02*
X0373466Y0199657D01*
X0372268Y0200856D02*
X0375201Y0200856D01*
X0375201Y0202054D02*
X0371415Y0202054D01*
X0371415Y0203253D02*
X0375201Y0203253D01*
X0375201Y0204451D02*
X0371415Y0204451D01*
X0370476Y0205650D02*
X0375201Y0205650D01*
X0375201Y0206848D02*
X0086186Y0206848D01*
X0087384Y0205650D02*
X0364817Y0205650D01*
X0361338Y0204451D02*
X0360569Y0204451D01*
X0360569Y0203253D02*
X0361338Y0203253D01*
X0357385Y0203253D02*
X0355920Y0203253D01*
X0355486Y0204451D02*
X0357459Y0204451D01*
X0349881Y0204451D02*
X0349113Y0204451D01*
X0349113Y0203253D02*
X0349881Y0203253D01*
X0349881Y0202054D02*
X0349113Y0202054D01*
X0349113Y0200856D02*
X0349881Y0200856D01*
X0349881Y0199657D02*
X0349113Y0199657D01*
X0349113Y0198459D02*
X0349881Y0198459D01*
X0349881Y0197260D02*
X0349113Y0197260D01*
X0364945Y0191268D02*
X0369200Y0191268D01*
X0369200Y0192466D02*
X0366143Y0192466D01*
X0367342Y0193665D02*
X0369200Y0193665D01*
X0369200Y0194863D02*
X0368540Y0194863D01*
X0369200Y0187672D02*
X0366039Y0187672D01*
X0367474Y0186474D02*
X0369200Y0186474D01*
X0369200Y0185275D02*
X0367989Y0185275D01*
X0368200Y0184077D02*
X0369200Y0184077D01*
X0080165Y0203253D02*
X0068061Y0203253D01*
D31*
X0024300Y0181800D03*
X0134300Y0164300D03*
X0199300Y0179300D03*
X0286800Y0179300D03*
X0354300Y0151800D03*
X0364300Y0184300D03*
M02*
