G75*
%MOIN*%
%OFA0B0*%
%FSLAX25Y25*%
%IPPOS*%
%LPD*%
%AMOC8*
5,1,8,0,0,1.08239X$1,22.5*
%
%ADD10C,0.13398*%
%ADD11R,0.05131X0.08674*%
%ADD12R,0.10446X0.04737*%
%ADD13R,0.04737X0.10446*%
%ADD14R,0.12611X0.05524*%
%ADD15R,0.11036X0.07099*%
%ADD16R,0.05052X0.04934*%
%ADD17R,0.07099X0.11036*%
%ADD18C,0.06800*%
%ADD19R,0.06824X0.06824*%
%ADD20C,0.06824*%
%ADD21R,0.05600X0.05600*%
%ADD22C,0.05600*%
%ADD23R,0.04737X0.05131*%
%ADD24R,0.03950X0.03950*%
%ADD25C,0.04762*%
D10*
X0016800Y0014300D03*
X0189300Y0159300D03*
X0361800Y0014300D03*
D11*
X0120993Y0166426D03*
X0107607Y0166426D03*
X0107607Y0182174D03*
X0120993Y0182174D03*
D12*
X0299103Y0184851D03*
X0299103Y0190363D03*
X0299103Y0195875D03*
X0299103Y0201387D03*
X0299103Y0179339D03*
X0299103Y0173828D03*
X0299103Y0168316D03*
X0299103Y0162804D03*
X0349497Y0162804D03*
X0349497Y0168316D03*
X0349497Y0173828D03*
X0349497Y0179339D03*
X0349497Y0184851D03*
X0349497Y0190363D03*
X0349497Y0195875D03*
X0349497Y0201387D03*
D13*
X0343591Y0153769D03*
X0338080Y0153769D03*
X0332568Y0153769D03*
X0327056Y0153769D03*
X0321544Y0153769D03*
X0316032Y0153769D03*
X0310520Y0153769D03*
X0305009Y0153769D03*
D14*
X0073690Y0149891D03*
X0073690Y0142017D03*
X0073690Y0157765D03*
X0073690Y0165639D03*
X0073690Y0173513D03*
X0073690Y0181387D03*
X0073690Y0189261D03*
X0073690Y0197135D03*
X0009123Y0197135D03*
X0009123Y0189261D03*
X0009123Y0181387D03*
X0009123Y0173513D03*
X0009123Y0165639D03*
X0009123Y0157765D03*
X0009123Y0149891D03*
X0009123Y0142017D03*
D15*
X0067213Y0121800D03*
X0081387Y0121800D03*
X0314713Y0109300D03*
X0328887Y0109300D03*
D16*
X0129300Y0170855D03*
X0129300Y0177745D03*
D17*
X0086800Y0031387D03*
X0086800Y0017213D03*
D18*
X0072300Y0021800D02*
X0066300Y0021800D01*
X0066300Y0031800D02*
X0072300Y0031800D01*
X0072300Y0041800D02*
X0066300Y0041800D01*
X0066300Y0051800D02*
X0072300Y0051800D01*
X0072300Y0061800D02*
X0066300Y0061800D01*
X0066300Y0071800D02*
X0072300Y0071800D01*
X0072300Y0081800D02*
X0066300Y0081800D01*
X0066300Y0091800D02*
X0072300Y0091800D01*
X0116300Y0091800D02*
X0122300Y0091800D01*
X0122300Y0081800D02*
X0116300Y0081800D01*
X0116300Y0071800D02*
X0122300Y0071800D01*
X0122300Y0061800D02*
X0116300Y0061800D01*
X0116300Y0051800D02*
X0122300Y0051800D01*
X0122300Y0041800D02*
X0116300Y0041800D01*
X0116300Y0031800D02*
X0122300Y0031800D01*
X0122300Y0021800D02*
X0116300Y0021800D01*
X0156300Y0024300D02*
X0162300Y0024300D01*
X0162300Y0034300D02*
X0156300Y0034300D01*
X0156300Y0044300D02*
X0162300Y0044300D01*
X0162300Y0054300D02*
X0156300Y0054300D01*
X0156300Y0064300D02*
X0162300Y0064300D01*
X0162300Y0074300D02*
X0156300Y0074300D01*
X0156300Y0084300D02*
X0162300Y0084300D01*
X0162300Y0094300D02*
X0156300Y0094300D01*
X0156300Y0104300D02*
X0162300Y0104300D01*
X0162300Y0114300D02*
X0156300Y0114300D01*
X0156300Y0124300D02*
X0162300Y0124300D01*
X0162300Y0134300D02*
X0156300Y0134300D01*
X0156300Y0144300D02*
X0162300Y0144300D01*
X0162300Y0154300D02*
X0156300Y0154300D01*
X0156300Y0164300D02*
X0162300Y0164300D01*
X0216300Y0164300D02*
X0222300Y0164300D01*
X0222300Y0154300D02*
X0216300Y0154300D01*
X0216300Y0144300D02*
X0222300Y0144300D01*
X0222300Y0134300D02*
X0216300Y0134300D01*
X0216300Y0124300D02*
X0222300Y0124300D01*
X0222300Y0114300D02*
X0216300Y0114300D01*
X0216300Y0104300D02*
X0222300Y0104300D01*
X0222300Y0094300D02*
X0216300Y0094300D01*
X0216300Y0084300D02*
X0222300Y0084300D01*
X0222300Y0074300D02*
X0216300Y0074300D01*
X0216300Y0064300D02*
X0222300Y0064300D01*
X0222300Y0054300D02*
X0216300Y0054300D01*
X0216300Y0044300D02*
X0222300Y0044300D01*
X0222300Y0034300D02*
X0216300Y0034300D01*
X0216300Y0024300D02*
X0222300Y0024300D01*
X0256300Y0021800D02*
X0262300Y0021800D01*
X0262300Y0031800D02*
X0256300Y0031800D01*
X0256300Y0041800D02*
X0262300Y0041800D01*
X0262300Y0051800D02*
X0256300Y0051800D01*
X0256300Y0061800D02*
X0262300Y0061800D01*
X0262300Y0071800D02*
X0256300Y0071800D01*
X0256300Y0081800D02*
X0262300Y0081800D01*
X0262300Y0091800D02*
X0256300Y0091800D01*
X0306300Y0091800D02*
X0312300Y0091800D01*
X0312300Y0081800D02*
X0306300Y0081800D01*
X0306300Y0071800D02*
X0312300Y0071800D01*
X0312300Y0061800D02*
X0306300Y0061800D01*
X0306300Y0051800D02*
X0312300Y0051800D01*
X0312300Y0041800D02*
X0306300Y0041800D01*
X0306300Y0031800D02*
X0312300Y0031800D01*
X0312300Y0021800D02*
X0306300Y0021800D01*
X0046800Y0056300D02*
X0046800Y0062300D01*
X0036800Y0062300D02*
X0036800Y0056300D01*
X0026800Y0056300D02*
X0026800Y0062300D01*
X0016800Y0062300D02*
X0016800Y0056300D01*
D19*
X0037706Y0096800D03*
X0124300Y0127706D03*
X0264300Y0127706D03*
D20*
X0252489Y0127706D03*
X0252489Y0115894D03*
X0264300Y0115894D03*
X0124300Y0115894D03*
X0112489Y0115894D03*
X0112489Y0127706D03*
X0037706Y0108611D03*
X0025894Y0108611D03*
X0025894Y0096800D03*
D21*
X0104674Y0199300D03*
X0137174Y0199300D03*
X0169674Y0199300D03*
X0202174Y0199300D03*
X0243611Y0199300D03*
X0283611Y0199300D03*
D22*
X0275737Y0199300D03*
X0267863Y0199300D03*
X0259989Y0199300D03*
X0235737Y0199300D03*
X0227863Y0199300D03*
X0219989Y0199300D03*
X0194300Y0199300D03*
X0186426Y0199300D03*
X0161800Y0199300D03*
X0153926Y0199300D03*
X0129300Y0199300D03*
X0121426Y0199300D03*
X0096800Y0199300D03*
X0088926Y0199300D03*
D23*
X0243454Y0081800D03*
X0250146Y0081800D03*
X0250146Y0071800D03*
X0243454Y0071800D03*
X0243454Y0061800D03*
X0250146Y0061800D03*
X0135146Y0051800D03*
X0128454Y0051800D03*
X0128454Y0041800D03*
X0135146Y0041800D03*
X0135146Y0031800D03*
X0128454Y0031800D03*
X0313454Y0141800D03*
X0320146Y0141800D03*
X0328454Y0141800D03*
X0335146Y0141800D03*
X0360954Y0201800D03*
X0367646Y0201800D03*
D24*
X0334753Y0134300D03*
X0328847Y0134300D03*
X0319753Y0134300D03*
X0313847Y0134300D03*
D25*
X0354300Y0151800D03*
X0364300Y0184300D03*
X0286800Y0179300D03*
X0199300Y0179300D03*
X0134300Y0164300D03*
X0024300Y0181800D03*
M02*
