G04 #@! TF.GenerationSoftware,KiCad,Pcbnew,6.0.5-a6ca702e91~116~ubuntu20.04.1*
G04 #@! TF.CreationDate,2022-05-10T22:13:07+02:00*
G04 #@! TF.ProjectId,rysboard,72797362-6f61-4726-942e-6b696361645f,4.2*
G04 #@! TF.SameCoordinates,Original*
G04 #@! TF.FileFunction,Paste,Bot*
G04 #@! TF.FilePolarity,Positive*
%FSLAX46Y46*%
G04 Gerber Fmt 4.6, Leading zero omitted, Abs format (unit mm)*
G04 Created by KiCad (PCBNEW 6.0.5-a6ca702e91~116~ubuntu20.04.1) date 2022-05-10 22:13:07*
%MOMM*%
%LPD*%
G01*
G04 APERTURE LIST*
G04 Aperture macros list*
%AMRoundRect*
0 Rectangle with rounded corners*
0 $1 Rounding radius*
0 $2 $3 $4 $5 $6 $7 $8 $9 X,Y pos of 4 corners*
0 Add a 4 corners polygon primitive as box body*
4,1,4,$2,$3,$4,$5,$6,$7,$8,$9,$2,$3,0*
0 Add four circle primitives for the rounded corners*
1,1,$1+$1,$2,$3*
1,1,$1+$1,$4,$5*
1,1,$1+$1,$6,$7*
1,1,$1+$1,$8,$9*
0 Add four rect primitives between the rounded corners*
20,1,$1+$1,$2,$3,$4,$5,0*
20,1,$1+$1,$4,$5,$6,$7,0*
20,1,$1+$1,$6,$7,$8,$9,0*
20,1,$1+$1,$8,$9,$2,$3,0*%
G04 Aperture macros list end*
%ADD10RoundRect,0.250000X0.787500X1.025000X-0.787500X1.025000X-0.787500X-1.025000X0.787500X-1.025000X0*%
%ADD11RoundRect,0.218750X-0.218750X-0.256250X0.218750X-0.256250X0.218750X0.256250X-0.218750X0.256250X0*%
%ADD12RoundRect,0.218750X0.256250X-0.218750X0.256250X0.218750X-0.256250X0.218750X-0.256250X-0.218750X0*%
%ADD13RoundRect,0.218750X0.218750X0.256250X-0.218750X0.256250X-0.218750X-0.256250X0.218750X-0.256250X0*%
%ADD14RoundRect,0.100000X0.625000X0.100000X-0.625000X0.100000X-0.625000X-0.100000X0.625000X-0.100000X0*%
%ADD15RoundRect,0.250000X-0.375000X-0.625000X0.375000X-0.625000X0.375000X0.625000X-0.375000X0.625000X0*%
%ADD16R,0.800000X0.900000*%
%ADD17R,2.000000X1.500000*%
%ADD18R,2.000000X3.800000*%
%ADD19RoundRect,0.225000X-0.250000X0.225000X-0.250000X-0.225000X0.250000X-0.225000X0.250000X0.225000X0*%
%ADD20RoundRect,0.225000X-0.225000X-0.250000X0.225000X-0.250000X0.225000X0.250000X-0.225000X0.250000X0*%
G04 APERTURE END LIST*
D10*
X104100000Y-104300000D03*
X97875000Y-104300000D03*
X104100000Y-89050000D03*
X97875000Y-89050000D03*
D11*
X106312500Y-79300000D03*
X107887500Y-79300000D03*
D12*
X109220000Y-104445000D03*
X109220000Y-102870000D03*
D11*
X93925000Y-86500000D03*
X95500000Y-86500000D03*
D13*
X106187500Y-110600000D03*
X104612500Y-110600000D03*
D12*
X99700000Y-117987500D03*
X99700000Y-116412500D03*
D13*
X106187500Y-112600000D03*
X104612500Y-112600000D03*
D12*
X102400000Y-117987500D03*
X102400000Y-116412500D03*
D13*
X106175000Y-114600000D03*
X104600000Y-114600000D03*
X106175000Y-116600000D03*
X104600000Y-116600000D03*
D11*
X93925000Y-85000000D03*
X95500000Y-85000000D03*
D14*
X101750000Y-111925000D03*
X101750000Y-112575000D03*
X101750000Y-113225000D03*
X101750000Y-113875000D03*
X97450000Y-113875000D03*
X97450000Y-113225000D03*
X97450000Y-112575000D03*
X97450000Y-111925000D03*
D12*
X97000000Y-117987500D03*
X97000000Y-116412500D03*
D10*
X104025000Y-68500000D03*
X97800000Y-68500000D03*
D15*
X105700000Y-75600000D03*
X108500000Y-75600000D03*
D11*
X106300000Y-77700000D03*
X107875000Y-77700000D03*
X106200000Y-99000000D03*
X107775000Y-99000000D03*
D15*
X105600000Y-95400000D03*
X108400000Y-95400000D03*
D11*
X106200000Y-97400000D03*
X107775000Y-97400000D03*
X93912500Y-82000000D03*
X95487500Y-82000000D03*
D10*
X104100000Y-84150000D03*
X97875000Y-84150000D03*
D11*
X93925000Y-83500000D03*
X95500000Y-83500000D03*
D13*
X97050000Y-110350000D03*
X95475000Y-110350000D03*
D11*
X117050000Y-69800000D03*
X118625000Y-69800000D03*
D16*
X120500000Y-67900000D03*
X122400000Y-67900000D03*
X121450000Y-69900000D03*
D11*
X117050000Y-67950000D03*
X118625000Y-67950000D03*
D17*
X119100000Y-103700000D03*
X119100000Y-106000000D03*
D18*
X112800000Y-106000000D03*
D17*
X119100000Y-108300000D03*
D19*
X109220000Y-105900000D03*
X109220000Y-107450000D03*
D20*
X119225000Y-110500000D03*
X120775000Y-110500000D03*
X119225000Y-112000000D03*
X120775000Y-112000000D03*
D19*
X110750000Y-105900000D03*
X110750000Y-107450000D03*
M02*
