M48
; DRILL file {KiCad 6.0.5-a6ca702e91~116~ubuntu20.04.1} date wto, 10 maj 2022, 22:13:14
; FORMAT={-:-/ absolute / inch / decimal}
; #@! TF.CreationDate,2022-05-10T22:13:14+02:00
; #@! TF.GenerationSoftware,Kicad,Pcbnew,6.0.5-a6ca702e91~116~ubuntu20.04.1
; #@! TF.FileFunction,Plated,1,2,PTH
FMAT,2
INCH
; #@! TA.AperFunction,Plated,PTH,ViaDrill
T1C0.0118
; #@! TA.AperFunction,Plated,PTH,ComponentDrill
T2C0.0118
; #@! TA.AperFunction,Plated,PTH,ViaDrill
T3C0.0197
; #@! TA.AperFunction,Plated,PTH,ComponentDrill
T4C0.0197
; #@! TA.AperFunction,Plated,PTH,ComponentDrill
T5C0.0394
; #@! TA.AperFunction,Plated,PTH,ComponentDrill
T6C0.0402
; #@! TA.AperFunction,Plated,PTH,ComponentDrill
T7C0.1063
%
G90
G05
T1
X3.2047Y-2.9626
X3.2047Y-3.6654
X3.2067Y-3.3307
X3.2067Y-3.8937
X3.2087Y-4.5531
X3.2126Y-3.7795
X3.2126Y-3.815
X3.2146Y-3.4035
X3.2146Y-3.4311
X3.2146Y-4.6969
X3.2146Y-4.7283
X3.2146Y-4.7598
X3.2146Y-4.7913
X3.2185Y-3.2283
X3.2205Y-3.1102
X3.2205Y-3.1398
X3.2244Y-4.5315
X3.2264Y-3.6083
X3.2264Y-3.6339
X3.2283Y-3.9685
X3.2283Y-4.0453
X3.2323Y-3.315
X3.2362Y-2.9232
X3.2362Y-3.2461
X3.2421Y-4.5118
X3.252Y-2.8681
X3.252Y-3.0374
X3.2539Y-3.2638
X3.2559Y-3.3386
X3.2559Y-4.1181
X3.2559Y-4.1437
X3.2579Y-3.1102
X3.2579Y-3.1398
X3.2598Y-3.9272
X3.2598Y-3.9685
X3.2677Y-3.7441
X3.2795Y-2.9232
X3.2815Y-3.7795
X3.2815Y-3.813
X3.2874Y-3.0374
X3.2894Y-3.9685
X3.2913Y-3.5866
X3.2913Y-3.628
X3.3051Y-2.7146
X3.3051Y-2.7756
X3.3091Y-4.3819
X3.3091Y-4.4193
X3.3091Y-4.4587
X3.3091Y-4.7539
X3.3188Y-4.118
X3.3189Y-3.5315
X3.3228Y-3.0374
X3.3248Y-2.9232
X3.3327Y-3.2028
X3.3425Y-4.2224
X3.3458Y-3.5561
X3.3465Y-4.1201
X3.3465Y-3.4016
X3.3858Y-4.2224
X3.3878Y-3.689
X3.4213Y-3.689
X3.4291Y-4.2224
X3.4291Y-4.7421
X3.4449Y-3.0256
X3.4528Y-2.8524
X3.4547Y-3.687
X3.4547Y-3.7421
X3.4587Y-3.3878
X3.4587Y-3.4114
X3.4724Y-4.7421
X3.4843Y-2.6398
X3.4882Y-3.0256
X3.4961Y-2.8524
X3.5079Y-3.687
X3.5079Y-3.7461
X3.5197Y-4.7421
X3.5236Y-2.6398
X3.5315Y-3.0256
X3.5394Y-2.8524
X3.5453Y-2.7756
X3.561Y-2.6398
X3.563Y-4.7421
X3.5807Y-2.7756
X3.5807Y-3.0043
X3.5827Y-2.8524
X3.6063Y-3.0039
X3.6063Y-4.7421
X3.6122Y-3.1673
X3.6122Y-3.2008
X3.6122Y-3.2343
X3.6122Y-3.3346
X3.6122Y-3.3622
X3.6122Y-3.3898
X3.6122Y-3.6575
X3.6122Y-3.687
X3.6181Y-3.7382
X3.6181Y-3.7638
X3.626Y-2.8524
X3.6496Y-3.7146
X3.6575Y-2.8091
X3.6575Y-3.9291
X3.6575Y-3.9626
X3.6575Y-4.002
X3.6575Y-4.0413
X3.6693Y-3.8642
X3.6702Y-3.0866
X3.6702Y-3.7905
X3.6713Y-3.0551
X3.6752Y-3.0295
X3.6772Y-4.4094
X3.6908Y-3.7697
X3.6929Y-3.8406
X3.6929Y-3.9291
X3.6929Y-3.9626
X3.6929Y-4.002
X3.6929Y-4.0413
X3.7116Y-3.7185
X3.7126Y-4.2323
X3.7126Y-4.2638
X3.7126Y-4.2953
X3.7274Y-2.7144
X3.7283Y-3.9291
X3.7283Y-3.9626
X3.7283Y-4.002
X3.7283Y-4.0413
X3.7313Y-3.2564
X3.7323Y-3.8445
X3.7362Y-3.0827
X3.7402Y-2.6201
X3.7441Y-4.2323
X3.7441Y-4.2638
X3.7441Y-4.2953
X3.748Y-2.8957
X3.7539Y-2.9941
X3.7539Y-3.0217
X3.7539Y-3.0453
X3.7539Y-3.0669
X3.7559Y-3.8209
X3.7559Y-3.8701
X3.7638Y-3.9291
X3.7638Y-3.9626
X3.7638Y-4.002
X3.7638Y-4.0413
X3.7697Y-2.6201
X3.7717Y-3.0079
X3.7717Y-4.5197
X3.7736Y-3.0354
X3.7736Y-3.5098
X3.7756Y-2.7441
X3.7756Y-2.7677
X3.7756Y-2.7913
X3.7756Y-4.2323
X3.7756Y-4.2638
X3.7756Y-4.2953
X3.7776Y-3.5362
X3.7795Y-2.6909
X3.7913Y-2.9961
X3.7913Y-3.0197
X3.7933Y-3.3228
X3.7943Y-3.4807
X3.7972Y-3.2047
X3.7992Y-2.7677
X3.7992Y-3.248
X3.8071Y-4.2323
X3.8071Y-4.2638
X3.8071Y-4.2953
X3.8091Y-3.2264
X3.811Y-3.7854
X3.811Y-3.9528
X3.811Y-3.1654
X3.8115Y-3.7293
X3.8119Y-3.7571
X3.813Y-2.8406
X3.8169Y-3.628
X3.8184Y-2.8647
X3.8189Y-3.0
X3.8189Y-3.6594
X3.8189Y-3.9232
X3.8194Y-3.1324
X3.8228Y-2.7677
X3.8307Y-5.0413
X3.8327Y-3.2362
X3.8386Y-4.2323
X3.8386Y-4.2638
X3.8386Y-4.2953
X3.8583Y-3.3848
X3.8661Y-4.75
X3.8701Y-4.2323
X3.8701Y-4.2638
X3.8701Y-4.2953
X3.874Y-5.0413
X3.8937Y-4.5472
X3.9016Y-4.2323
X3.9016Y-4.2638
X3.9016Y-4.2953
X3.9016Y-4.4134
X3.9055Y-3.4409
X3.9094Y-4.75
X3.9134Y-2.6575
X3.9134Y-2.6811
X3.9173Y-3.311
X3.9173Y-3.3366
X3.9173Y-3.3642
X3.9173Y-5.0413
X3.935Y-2.6575
X3.935Y-2.6811
X3.937Y-4.1476
X3.9409Y-3.3366
X3.9409Y-3.3642
X3.9418Y-3.4396
X3.9449Y-3.4961
X3.9528Y-4.75
X3.9587Y-2.6575
X3.9587Y-2.6811
X3.9606Y-3.3209
X3.9783Y-3.3366
X3.9803Y-4.1476
X3.9823Y-2.6575
X3.9823Y-2.6811
X3.998Y-3.3209
X4.0059Y-2.6575
X4.0059Y-2.6811
X4.0157Y-3.3366
X4.0236Y-4.1476
X4.0295Y-2.6575
X4.0295Y-2.6811
X4.0335Y-3.3209
X4.0531Y-4.2343
X4.0807Y-4.2343
X4.1181Y-4.3031
X4.128Y-3.0492
X4.128Y-3.1024
X4.1289Y-3.9518
X4.1295Y-3.6902
X4.1312Y-3.8936
X4.1319Y-2.8957
X4.1319Y-3.8445
X4.1366Y-2.8551
X4.1378Y-3.1654
X4.1457Y-4.3031
X4.1457Y-5.0413
X4.1467Y-3.9695
X4.1532Y-3.6733
X4.1585Y-3.186
X4.1594Y-3.6299
X4.1634Y-3.3287
X4.1649Y-2.8696
X4.1654Y-2.6575
X4.1654Y-2.6811
X4.1654Y-4.1181
X4.1732Y-4.2756
X4.1732Y-4.3031
X4.189Y-5.0413
X4.1909Y-3.3287
X4.1949Y-3.6299
X4.1969Y-4.7185
X4.2008Y-4.248
X4.2008Y-4.2756
X4.2008Y-4.3031
X4.2131Y-4.1117
X4.2131Y-4.1718
X4.2224Y-3.4291
X4.2244Y-4.5118
X4.2283Y-2.6319
X4.2283Y-2.6713
X4.2283Y-4.248
X4.2283Y-4.2756
X4.2283Y-4.3031
X4.2323Y-5.0413
X4.2382Y-3.9488
X4.2402Y-4.7185
X4.2431Y-3.8671
X4.2441Y-3.3642
X4.248Y-3.4291
X4.253Y-3.1585
X4.2638Y-4.5118
X4.2677Y-3.3406
X4.2717Y-2.6319
X4.2717Y-2.6713
X4.2736Y-3.4291
X4.2736Y-3.6299
X4.2815Y-3.9478
X4.2835Y-4.7185
X4.2904Y-3.1585
X4.2933Y-3.3406
X4.3012Y-3.6299
X4.3031Y-3.9695
X4.315Y-2.6319
X4.315Y-2.6713
X4.3189Y-3.3406
X4.3583Y-2.6319
X4.3583Y-2.6713
X4.3583Y-4.1228
X4.3661Y-4.5945
X4.3681Y-3.1831
X4.3969Y-3.9283
X4.3969Y-3.9618
X4.4016Y-2.6319
X4.4016Y-2.6713
X4.4016Y-2.9242
X4.4016Y-2.9488
X4.4016Y-2.9744
X4.4016Y-2.997
X4.4016Y-3.0197
X4.4016Y-3.0423
X4.4016Y-3.065
X4.4094Y-4.4685
X4.4103Y-4.4056
X4.4303Y-3.9283
X4.4303Y-3.9618
X4.437Y-4.6535
X4.4449Y-2.6319
X4.4449Y-2.6713
X4.4449Y-4.7244
X4.4567Y-4.4685
X4.4577Y-4.4056
X4.4606Y-5.0374
X4.4657Y-3.9283
X4.4657Y-3.9618
X4.4882Y-2.6319
X4.4882Y-2.6713
X4.4882Y-2.7028
X4.4882Y-4.7244
X4.4992Y-3.9283
X4.4992Y-3.9618
X4.5039Y-5.0374
X4.522Y-4.2213
X4.5315Y-2.6319
X4.5315Y-2.6713
X4.5394Y-3.5531
X4.5394Y-3.5925
X4.5472Y-5.0374
X4.5689Y-2.6752
X4.5748Y-2.6319
X4.5827Y-3.5531
X4.5827Y-3.5925
X4.6067Y-4.1213
X4.6067Y-4.2614
X4.6083Y-4.376
X4.6085Y-4.5634
X4.6181Y-2.6319
X4.626Y-3.5531
X4.626Y-3.5925
X4.6614Y-2.6319
X4.6693Y-3.5531
X4.6693Y-3.5925
X4.7047Y-2.6319
X4.7126Y-3.5531
X4.7126Y-3.5925
X4.748Y-2.6319
X4.7559Y-3.5531
X4.7559Y-3.5925
X4.7913Y-2.6319
X4.8138Y-4.7957
X4.8138Y-4.9323
X4.8346Y-2.6319
X4.8346Y-4.6535
X4.8583Y-3.937
X4.8583Y-3.9843
X4.8583Y-4.0315
X4.8583Y-4.1654
X4.8583Y-4.2126
X4.8583Y-4.2598
X4.8622Y-4.6535
X4.878Y-2.6319
X4.878Y-2.6693
X4.878Y-2.7067
X4.878Y-2.7441
X4.8819Y-4.4646
X4.8819Y-4.5079
X4.8819Y-4.5512
X4.8898Y-4.6535
X4.8937Y-3.2343
X4.8937Y-3.2776
X4.9016Y-3.937
X4.9016Y-3.9843
X4.9016Y-4.0315
X4.9016Y-4.1654
X4.9016Y-4.2126
X4.9016Y-4.2598
X4.9331Y-4.813
X4.937Y-3.2343
X4.937Y-3.2776
X4.9449Y-3.937
X4.9449Y-3.9843
X4.9449Y-4.0315
X4.9449Y-4.1654
X4.9449Y-4.2126
X4.9449Y-4.2598
X4.9803Y-3.2343
X4.9803Y-3.2776
X5.0236Y-3.2343
X5.0236Y-3.2776
X5.0669Y-3.2343
X5.0669Y-3.2776
X5.0945Y-4.4823
X5.0945Y-4.5256
X5.0945Y-4.5689
X5.1102Y-3.2343
X5.1102Y-3.2776
T2
X3.9232Y-2.8366
X3.9232Y-2.9067
X3.9232Y-2.9768
X3.9232Y-3.0469
X3.9232Y-3.1169
X3.9232Y-3.187
X3.9232Y-3.6309
X3.9232Y-3.701
X3.9232Y-3.7711
X3.9232Y-3.8411
X3.9232Y-3.9112
X3.9232Y-3.9813
X3.9744Y-2.8366
X3.9744Y-2.9067
X3.9744Y-2.9768
X3.9744Y-3.0469
X3.9744Y-3.1169
X3.9744Y-3.187
X3.9744Y-3.6309
X3.9744Y-3.701
X3.9744Y-3.7711
X3.9744Y-3.8411
X3.9744Y-3.9112
X3.9744Y-3.9813
X4.0256Y-2.8366
X4.0256Y-2.9067
X4.0256Y-2.9768
X4.0256Y-3.0469
X4.0256Y-3.1169
X4.0256Y-3.187
X4.0256Y-3.6309
X4.0256Y-3.701
X4.0256Y-3.7711
X4.0256Y-3.8411
X4.0256Y-3.9112
X4.0256Y-3.9813
T3
X4.1772Y-3.4803
X4.2185Y-3.4803
X4.2598Y-3.4803
X4.3012Y-3.4803
X4.4094Y-4.685
T4
X3.3855Y-2.9435
X3.3855Y-3.1135
X3.3855Y-3.2835
X3.3855Y-3.4535
X3.3855Y-3.6235
X3.3855Y-3.7935
X3.3855Y-3.9635
X3.3855Y-4.1335
X3.3855Y-4.3035
X3.4347Y-2.9435
X3.4347Y-3.1135
X3.4347Y-3.2835
X3.4347Y-3.4535
X3.4347Y-3.6235
X3.4347Y-3.7935
X3.4347Y-3.9635
X3.4347Y-4.1335
X3.4347Y-4.3035
X3.4839Y-2.9435
X3.4839Y-3.1135
X3.4839Y-3.2835
X3.4839Y-3.4535
X3.4839Y-3.6235
X3.4839Y-3.7935
X3.4839Y-3.9635
X3.4839Y-4.1335
X3.4839Y-4.3035
X3.5331Y-2.9435
X3.5331Y-3.1135
X3.5331Y-3.2835
X3.5331Y-3.4535
X3.5331Y-3.6235
X3.5331Y-3.7935
X3.5331Y-3.9635
X3.5331Y-4.1335
X3.5331Y-4.3035
X3.5824Y-2.9435
X3.5824Y-3.1135
X3.5824Y-3.2835
X3.5824Y-3.4535
X3.5824Y-3.6235
X3.5824Y-3.7935
X3.5824Y-3.9635
X3.5824Y-4.1335
X3.5824Y-4.3035
X3.6316Y-2.9435
X3.6808Y-2.9435
T5
X3.0521Y-2.9138
X3.0521Y-3.0138
X3.0521Y-3.1138
X3.0521Y-3.2138
X3.0521Y-3.3138
X3.0521Y-3.4138
X3.0521Y-3.5138
X3.0521Y-3.6138
X3.0521Y-3.7138
X3.0521Y-3.8138
X3.0521Y-3.9138
X3.0521Y-4.0138
X3.0521Y-4.1138
X3.0521Y-4.2138
X3.0521Y-4.3138
X3.0521Y-4.4138
X3.0521Y-4.5138
X3.0521Y-4.6138
X3.0521Y-4.7138
X3.0521Y-4.8138
X3.1521Y-2.9138
X3.1521Y-3.0138
X3.1521Y-3.1138
X3.1521Y-3.2138
X3.1521Y-3.3138
X3.1521Y-3.4138
X3.1521Y-3.5138
X3.1521Y-3.6138
X3.1521Y-3.7138
X3.1521Y-3.8138
X3.1521Y-3.9138
X3.1521Y-4.0138
X3.1521Y-4.1138
X3.1521Y-4.2138
X3.1521Y-4.3138
X3.1521Y-4.4138
X3.1521Y-4.5138
X3.1521Y-4.6138
X3.1521Y-4.7138
X3.1521Y-4.8138
X3.3346Y-4.8091
X3.3346Y-4.9091
X3.3346Y-5.0091
X3.5591Y-4.8346
X3.5591Y-4.9528
X3.874Y-4.8346
X3.874Y-4.9528
X4.189Y-4.8346
X4.189Y-4.9528
X4.5039Y-4.8346
X4.5039Y-4.9528
X4.6795Y-2.8543
X4.7795Y-2.8543
T6
X4.5433Y-3.0961
X4.5433Y-3.753
X4.6614Y-3.0961
X4.6614Y-3.753
X4.7795Y-3.0961
X4.7795Y-3.753
X4.8976Y-3.0961
X4.8976Y-3.753
T7
X3.1024Y-2.7224
X3.1024Y-5.0059
X5.0315Y-2.7224
X5.0315Y-5.0059
T0
M30
