G04 #@! TF.GenerationSoftware,KiCad,Pcbnew,6.0.5-a6ca702e91~116~ubuntu20.04.1*
G04 #@! TF.CreationDate,2022-05-10T22:13:07+02:00*
G04 #@! TF.ProjectId,rysboard,72797362-6f61-4726-942e-6b696361645f,4.2*
G04 #@! TF.SameCoordinates,Original*
G04 #@! TF.FileFunction,Legend,Bot*
G04 #@! TF.FilePolarity,Positive*
%FSLAX46Y46*%
G04 Gerber Fmt 4.6, Leading zero omitted, Abs format (unit mm)*
G04 Created by KiCad (PCBNEW 6.0.5-a6ca702e91~116~ubuntu20.04.1) date 2022-05-10 22:13:07*
%MOMM*%
%LPD*%
G01*
G04 APERTURE LIST*
%ADD10C,0.150000*%
%ADD11C,0.120000*%
G04 APERTURE END LIST*
D10*
X101154166Y-101707142D02*
X101201785Y-101754761D01*
X101344642Y-101802380D01*
X101439880Y-101802380D01*
X101582738Y-101754761D01*
X101677976Y-101659523D01*
X101725595Y-101564285D01*
X101773214Y-101373809D01*
X101773214Y-101230952D01*
X101725595Y-101040476D01*
X101677976Y-100945238D01*
X101582738Y-100850000D01*
X101439880Y-100802380D01*
X101344642Y-100802380D01*
X101201785Y-100850000D01*
X101154166Y-100897619D01*
X100249404Y-100802380D02*
X100725595Y-100802380D01*
X100773214Y-101278571D01*
X100725595Y-101230952D01*
X100630357Y-101183333D01*
X100392261Y-101183333D01*
X100297023Y-101230952D01*
X100249404Y-101278571D01*
X100201785Y-101373809D01*
X100201785Y-101611904D01*
X100249404Y-101707142D01*
X100297023Y-101754761D01*
X100392261Y-101802380D01*
X100630357Y-101802380D01*
X100725595Y-101754761D01*
X100773214Y-101707142D01*
X101154166Y-92457142D02*
X101201785Y-92504761D01*
X101344642Y-92552380D01*
X101439880Y-92552380D01*
X101582738Y-92504761D01*
X101677976Y-92409523D01*
X101725595Y-92314285D01*
X101773214Y-92123809D01*
X101773214Y-91980952D01*
X101725595Y-91790476D01*
X101677976Y-91695238D01*
X101582738Y-91600000D01*
X101439880Y-91552380D01*
X101344642Y-91552380D01*
X101201785Y-91600000D01*
X101154166Y-91647619D01*
X100297023Y-91552380D02*
X100487500Y-91552380D01*
X100582738Y-91600000D01*
X100630357Y-91647619D01*
X100725595Y-91790476D01*
X100773214Y-91980952D01*
X100773214Y-92361904D01*
X100725595Y-92457142D01*
X100677976Y-92504761D01*
X100582738Y-92552380D01*
X100392261Y-92552380D01*
X100297023Y-92504761D01*
X100249404Y-92457142D01*
X100201785Y-92361904D01*
X100201785Y-92123809D01*
X100249404Y-92028571D01*
X100297023Y-91980952D01*
X100392261Y-91933333D01*
X100582738Y-91933333D01*
X100677976Y-91980952D01*
X100725595Y-92028571D01*
X100773214Y-92123809D01*
X110642857Y-79607142D02*
X110690476Y-79654761D01*
X110833333Y-79702380D01*
X110928571Y-79702380D01*
X111071428Y-79654761D01*
X111166666Y-79559523D01*
X111214285Y-79464285D01*
X111261904Y-79273809D01*
X111261904Y-79130952D01*
X111214285Y-78940476D01*
X111166666Y-78845238D01*
X111071428Y-78750000D01*
X110928571Y-78702380D01*
X110833333Y-78702380D01*
X110690476Y-78750000D01*
X110642857Y-78797619D01*
X109690476Y-79702380D02*
X110261904Y-79702380D01*
X109976190Y-79702380D02*
X109976190Y-78702380D01*
X110071428Y-78845238D01*
X110166666Y-78940476D01*
X110261904Y-78988095D01*
X108833333Y-79035714D02*
X108833333Y-79702380D01*
X109071428Y-78654761D02*
X109309523Y-79369047D01*
X108690476Y-79369047D01*
X111022380Y-103490833D02*
X110546190Y-103157500D01*
X111022380Y-102919404D02*
X110022380Y-102919404D01*
X110022380Y-103300357D01*
X110070000Y-103395595D01*
X110117619Y-103443214D01*
X110212857Y-103490833D01*
X110355714Y-103490833D01*
X110450952Y-103443214D01*
X110498571Y-103395595D01*
X110546190Y-103300357D01*
X110546190Y-102919404D01*
X110022380Y-104347976D02*
X110022380Y-104157500D01*
X110070000Y-104062261D01*
X110117619Y-104014642D01*
X110260476Y-103919404D01*
X110450952Y-103871785D01*
X110831904Y-103871785D01*
X110927142Y-103919404D01*
X110974761Y-103967023D01*
X111022380Y-104062261D01*
X111022380Y-104252738D01*
X110974761Y-104347976D01*
X110927142Y-104395595D01*
X110831904Y-104443214D01*
X110593809Y-104443214D01*
X110498571Y-104395595D01*
X110450952Y-104347976D01*
X110403333Y-104252738D01*
X110403333Y-104062261D01*
X110450952Y-103967023D01*
X110498571Y-103919404D01*
X110593809Y-103871785D01*
X92516666Y-86952380D02*
X92850000Y-86476190D01*
X93088095Y-86952380D02*
X93088095Y-85952380D01*
X92707142Y-85952380D01*
X92611904Y-86000000D01*
X92564285Y-86047619D01*
X92516666Y-86142857D01*
X92516666Y-86285714D01*
X92564285Y-86380952D01*
X92611904Y-86428571D01*
X92707142Y-86476190D01*
X93088095Y-86476190D01*
X92183333Y-85952380D02*
X91516666Y-85952380D01*
X91945238Y-86952380D01*
X108842857Y-111102380D02*
X109176190Y-110626190D01*
X109414285Y-111102380D02*
X109414285Y-110102380D01*
X109033333Y-110102380D01*
X108938095Y-110150000D01*
X108890476Y-110197619D01*
X108842857Y-110292857D01*
X108842857Y-110435714D01*
X108890476Y-110530952D01*
X108938095Y-110578571D01*
X109033333Y-110626190D01*
X109414285Y-110626190D01*
X107890476Y-111102380D02*
X108461904Y-111102380D01*
X108176190Y-111102380D02*
X108176190Y-110102380D01*
X108271428Y-110245238D01*
X108366666Y-110340476D01*
X108461904Y-110388095D01*
X107033333Y-110102380D02*
X107223809Y-110102380D01*
X107319047Y-110150000D01*
X107366666Y-110197619D01*
X107461904Y-110340476D01*
X107509523Y-110530952D01*
X107509523Y-110911904D01*
X107461904Y-111007142D01*
X107414285Y-111054761D01*
X107319047Y-111102380D01*
X107128571Y-111102380D01*
X107033333Y-111054761D01*
X106985714Y-111007142D01*
X106938095Y-110911904D01*
X106938095Y-110673809D01*
X106985714Y-110578571D01*
X107033333Y-110530952D01*
X107128571Y-110483333D01*
X107319047Y-110483333D01*
X107414285Y-110530952D01*
X107461904Y-110578571D01*
X107509523Y-110673809D01*
X98952380Y-116557142D02*
X98476190Y-116223809D01*
X98952380Y-115985714D02*
X97952380Y-115985714D01*
X97952380Y-116366666D01*
X98000000Y-116461904D01*
X98047619Y-116509523D01*
X98142857Y-116557142D01*
X98285714Y-116557142D01*
X98380952Y-116509523D01*
X98428571Y-116461904D01*
X98476190Y-116366666D01*
X98476190Y-115985714D01*
X98952380Y-117509523D02*
X98952380Y-116938095D01*
X98952380Y-117223809D02*
X97952380Y-117223809D01*
X98095238Y-117128571D01*
X98190476Y-117033333D01*
X98238095Y-116938095D01*
X97952380Y-117842857D02*
X97952380Y-118509523D01*
X98952380Y-118080952D01*
X108842857Y-113102380D02*
X109176190Y-112626190D01*
X109414285Y-113102380D02*
X109414285Y-112102380D01*
X109033333Y-112102380D01*
X108938095Y-112150000D01*
X108890476Y-112197619D01*
X108842857Y-112292857D01*
X108842857Y-112435714D01*
X108890476Y-112530952D01*
X108938095Y-112578571D01*
X109033333Y-112626190D01*
X109414285Y-112626190D01*
X107890476Y-113102380D02*
X108461904Y-113102380D01*
X108176190Y-113102380D02*
X108176190Y-112102380D01*
X108271428Y-112245238D01*
X108366666Y-112340476D01*
X108461904Y-112388095D01*
X107319047Y-112530952D02*
X107414285Y-112483333D01*
X107461904Y-112435714D01*
X107509523Y-112340476D01*
X107509523Y-112292857D01*
X107461904Y-112197619D01*
X107414285Y-112150000D01*
X107319047Y-112102380D01*
X107128571Y-112102380D01*
X107033333Y-112150000D01*
X106985714Y-112197619D01*
X106938095Y-112292857D01*
X106938095Y-112340476D01*
X106985714Y-112435714D01*
X107033333Y-112483333D01*
X107128571Y-112530952D01*
X107319047Y-112530952D01*
X107414285Y-112578571D01*
X107461904Y-112626190D01*
X107509523Y-112721428D01*
X107509523Y-112911904D01*
X107461904Y-113007142D01*
X107414285Y-113054761D01*
X107319047Y-113102380D01*
X107128571Y-113102380D01*
X107033333Y-113054761D01*
X106985714Y-113007142D01*
X106938095Y-112911904D01*
X106938095Y-112721428D01*
X106985714Y-112626190D01*
X107033333Y-112578571D01*
X107128571Y-112530952D01*
X101652380Y-116557142D02*
X101176190Y-116223809D01*
X101652380Y-115985714D02*
X100652380Y-115985714D01*
X100652380Y-116366666D01*
X100700000Y-116461904D01*
X100747619Y-116509523D01*
X100842857Y-116557142D01*
X100985714Y-116557142D01*
X101080952Y-116509523D01*
X101128571Y-116461904D01*
X101176190Y-116366666D01*
X101176190Y-115985714D01*
X101652380Y-117509523D02*
X101652380Y-116938095D01*
X101652380Y-117223809D02*
X100652380Y-117223809D01*
X100795238Y-117128571D01*
X100890476Y-117033333D01*
X100938095Y-116938095D01*
X101652380Y-117985714D02*
X101652380Y-118176190D01*
X101604761Y-118271428D01*
X101557142Y-118319047D01*
X101414285Y-118414285D01*
X101223809Y-118461904D01*
X100842857Y-118461904D01*
X100747619Y-118414285D01*
X100700000Y-118366666D01*
X100652380Y-118271428D01*
X100652380Y-118080952D01*
X100700000Y-117985714D01*
X100747619Y-117938095D01*
X100842857Y-117890476D01*
X101080952Y-117890476D01*
X101176190Y-117938095D01*
X101223809Y-117985714D01*
X101271428Y-118080952D01*
X101271428Y-118271428D01*
X101223809Y-118366666D01*
X101176190Y-118414285D01*
X101080952Y-118461904D01*
X108842857Y-115102380D02*
X109176190Y-114626190D01*
X109414285Y-115102380D02*
X109414285Y-114102380D01*
X109033333Y-114102380D01*
X108938095Y-114150000D01*
X108890476Y-114197619D01*
X108842857Y-114292857D01*
X108842857Y-114435714D01*
X108890476Y-114530952D01*
X108938095Y-114578571D01*
X109033333Y-114626190D01*
X109414285Y-114626190D01*
X108461904Y-114197619D02*
X108414285Y-114150000D01*
X108319047Y-114102380D01*
X108080952Y-114102380D01*
X107985714Y-114150000D01*
X107938095Y-114197619D01*
X107890476Y-114292857D01*
X107890476Y-114388095D01*
X107938095Y-114530952D01*
X108509523Y-115102380D01*
X107890476Y-115102380D01*
X107271428Y-114102380D02*
X107176190Y-114102380D01*
X107080952Y-114150000D01*
X107033333Y-114197619D01*
X106985714Y-114292857D01*
X106938095Y-114483333D01*
X106938095Y-114721428D01*
X106985714Y-114911904D01*
X107033333Y-115007142D01*
X107080952Y-115054761D01*
X107176190Y-115102380D01*
X107271428Y-115102380D01*
X107366666Y-115054761D01*
X107414285Y-115007142D01*
X107461904Y-114911904D01*
X107509523Y-114721428D01*
X107509523Y-114483333D01*
X107461904Y-114292857D01*
X107414285Y-114197619D01*
X107366666Y-114150000D01*
X107271428Y-114102380D01*
X108842857Y-117102380D02*
X109176190Y-116626190D01*
X109414285Y-117102380D02*
X109414285Y-116102380D01*
X109033333Y-116102380D01*
X108938095Y-116150000D01*
X108890476Y-116197619D01*
X108842857Y-116292857D01*
X108842857Y-116435714D01*
X108890476Y-116530952D01*
X108938095Y-116578571D01*
X109033333Y-116626190D01*
X109414285Y-116626190D01*
X108461904Y-116197619D02*
X108414285Y-116150000D01*
X108319047Y-116102380D01*
X108080952Y-116102380D01*
X107985714Y-116150000D01*
X107938095Y-116197619D01*
X107890476Y-116292857D01*
X107890476Y-116388095D01*
X107938095Y-116530952D01*
X108509523Y-117102380D01*
X107890476Y-117102380D01*
X107557142Y-116102380D02*
X106938095Y-116102380D01*
X107271428Y-116483333D01*
X107128571Y-116483333D01*
X107033333Y-116530952D01*
X106985714Y-116578571D01*
X106938095Y-116673809D01*
X106938095Y-116911904D01*
X106985714Y-117007142D01*
X107033333Y-117054761D01*
X107128571Y-117102380D01*
X107414285Y-117102380D01*
X107509523Y-117054761D01*
X107557142Y-117007142D01*
X92542857Y-85502380D02*
X92876190Y-85026190D01*
X93114285Y-85502380D02*
X93114285Y-84502380D01*
X92733333Y-84502380D01*
X92638095Y-84550000D01*
X92590476Y-84597619D01*
X92542857Y-84692857D01*
X92542857Y-84835714D01*
X92590476Y-84930952D01*
X92638095Y-84978571D01*
X92733333Y-85026190D01*
X93114285Y-85026190D01*
X91590476Y-85502380D02*
X92161904Y-85502380D01*
X91876190Y-85502380D02*
X91876190Y-84502380D01*
X91971428Y-84645238D01*
X92066666Y-84740476D01*
X92161904Y-84788095D01*
X90971428Y-84502380D02*
X90876190Y-84502380D01*
X90780952Y-84550000D01*
X90733333Y-84597619D01*
X90685714Y-84692857D01*
X90638095Y-84883333D01*
X90638095Y-85121428D01*
X90685714Y-85311904D01*
X90733333Y-85407142D01*
X90780952Y-85454761D01*
X90876190Y-85502380D01*
X90971428Y-85502380D01*
X91066666Y-85454761D01*
X91114285Y-85407142D01*
X91161904Y-85311904D01*
X91209523Y-85121428D01*
X91209523Y-84883333D01*
X91161904Y-84692857D01*
X91114285Y-84597619D01*
X91066666Y-84550000D01*
X90971428Y-84502380D01*
X100361904Y-109902380D02*
X100361904Y-110711904D01*
X100314285Y-110807142D01*
X100266666Y-110854761D01*
X100171428Y-110902380D01*
X99980952Y-110902380D01*
X99885714Y-110854761D01*
X99838095Y-110807142D01*
X99790476Y-110711904D01*
X99790476Y-109902380D01*
X98885714Y-110235714D02*
X98885714Y-110902380D01*
X99123809Y-109854761D02*
X99361904Y-110569047D01*
X98742857Y-110569047D01*
X96252380Y-116557142D02*
X95776190Y-116223809D01*
X96252380Y-115985714D02*
X95252380Y-115985714D01*
X95252380Y-116366666D01*
X95300000Y-116461904D01*
X95347619Y-116509523D01*
X95442857Y-116557142D01*
X95585714Y-116557142D01*
X95680952Y-116509523D01*
X95728571Y-116461904D01*
X95776190Y-116366666D01*
X95776190Y-115985714D01*
X96252380Y-117509523D02*
X96252380Y-116938095D01*
X96252380Y-117223809D02*
X95252380Y-117223809D01*
X95395238Y-117128571D01*
X95490476Y-117033333D01*
X95538095Y-116938095D01*
X95252380Y-118414285D02*
X95252380Y-117938095D01*
X95728571Y-117890476D01*
X95680952Y-117938095D01*
X95633333Y-118033333D01*
X95633333Y-118271428D01*
X95680952Y-118366666D01*
X95728571Y-118414285D01*
X95823809Y-118461904D01*
X96061904Y-118461904D01*
X96157142Y-118414285D01*
X96204761Y-118366666D01*
X96252380Y-118271428D01*
X96252380Y-118033333D01*
X96204761Y-117938095D01*
X96157142Y-117890476D01*
X101542857Y-71907142D02*
X101590476Y-71954761D01*
X101733333Y-72002380D01*
X101828571Y-72002380D01*
X101971428Y-71954761D01*
X102066666Y-71859523D01*
X102114285Y-71764285D01*
X102161904Y-71573809D01*
X102161904Y-71430952D01*
X102114285Y-71240476D01*
X102066666Y-71145238D01*
X101971428Y-71050000D01*
X101828571Y-71002380D01*
X101733333Y-71002380D01*
X101590476Y-71050000D01*
X101542857Y-71097619D01*
X100590476Y-72002380D02*
X101161904Y-72002380D01*
X100876190Y-72002380D02*
X100876190Y-71002380D01*
X100971428Y-71145238D01*
X101066666Y-71240476D01*
X101161904Y-71288095D01*
X100257142Y-71002380D02*
X99638095Y-71002380D01*
X99971428Y-71383333D01*
X99828571Y-71383333D01*
X99733333Y-71430952D01*
X99685714Y-71478571D01*
X99638095Y-71573809D01*
X99638095Y-71811904D01*
X99685714Y-71907142D01*
X99733333Y-71954761D01*
X99828571Y-72002380D01*
X100114285Y-72002380D01*
X100209523Y-71954761D01*
X100257142Y-71907142D01*
X110466666Y-75907142D02*
X110514285Y-75954761D01*
X110657142Y-76002380D01*
X110752380Y-76002380D01*
X110895238Y-75954761D01*
X110990476Y-75859523D01*
X111038095Y-75764285D01*
X111085714Y-75573809D01*
X111085714Y-75430952D01*
X111038095Y-75240476D01*
X110990476Y-75145238D01*
X110895238Y-75050000D01*
X110752380Y-75002380D01*
X110657142Y-75002380D01*
X110514285Y-75050000D01*
X110466666Y-75097619D01*
X109895238Y-75430952D02*
X109990476Y-75383333D01*
X110038095Y-75335714D01*
X110085714Y-75240476D01*
X110085714Y-75192857D01*
X110038095Y-75097619D01*
X109990476Y-75050000D01*
X109895238Y-75002380D01*
X109704761Y-75002380D01*
X109609523Y-75050000D01*
X109561904Y-75097619D01*
X109514285Y-75192857D01*
X109514285Y-75240476D01*
X109561904Y-75335714D01*
X109609523Y-75383333D01*
X109704761Y-75430952D01*
X109895238Y-75430952D01*
X109990476Y-75478571D01*
X110038095Y-75526190D01*
X110085714Y-75621428D01*
X110085714Y-75811904D01*
X110038095Y-75907142D01*
X109990476Y-75954761D01*
X109895238Y-76002380D01*
X109704761Y-76002380D01*
X109609523Y-75954761D01*
X109561904Y-75907142D01*
X109514285Y-75811904D01*
X109514285Y-75621428D01*
X109561904Y-75526190D01*
X109609523Y-75478571D01*
X109704761Y-75430952D01*
X110642857Y-78007142D02*
X110690476Y-78054761D01*
X110833333Y-78102380D01*
X110928571Y-78102380D01*
X111071428Y-78054761D01*
X111166666Y-77959523D01*
X111214285Y-77864285D01*
X111261904Y-77673809D01*
X111261904Y-77530952D01*
X111214285Y-77340476D01*
X111166666Y-77245238D01*
X111071428Y-77150000D01*
X110928571Y-77102380D01*
X110833333Y-77102380D01*
X110690476Y-77150000D01*
X110642857Y-77197619D01*
X109690476Y-78102380D02*
X110261904Y-78102380D01*
X109976190Y-78102380D02*
X109976190Y-77102380D01*
X110071428Y-77245238D01*
X110166666Y-77340476D01*
X110261904Y-77388095D01*
X108738095Y-78102380D02*
X109309523Y-78102380D01*
X109023809Y-78102380D02*
X109023809Y-77102380D01*
X109119047Y-77245238D01*
X109214285Y-77340476D01*
X109309523Y-77388095D01*
X109566666Y-99407142D02*
X109614285Y-99454761D01*
X109757142Y-99502380D01*
X109852380Y-99502380D01*
X109995238Y-99454761D01*
X110090476Y-99359523D01*
X110138095Y-99264285D01*
X110185714Y-99073809D01*
X110185714Y-98930952D01*
X110138095Y-98740476D01*
X110090476Y-98645238D01*
X109995238Y-98550000D01*
X109852380Y-98502380D01*
X109757142Y-98502380D01*
X109614285Y-98550000D01*
X109566666Y-98597619D01*
X109233333Y-98502380D02*
X108566666Y-98502380D01*
X108995238Y-99502380D01*
X110266666Y-95807142D02*
X110314285Y-95854761D01*
X110457142Y-95902380D01*
X110552380Y-95902380D01*
X110695238Y-95854761D01*
X110790476Y-95759523D01*
X110838095Y-95664285D01*
X110885714Y-95473809D01*
X110885714Y-95330952D01*
X110838095Y-95140476D01*
X110790476Y-95045238D01*
X110695238Y-94950000D01*
X110552380Y-94902380D01*
X110457142Y-94902380D01*
X110314285Y-94950000D01*
X110266666Y-94997619D01*
X109314285Y-95902380D02*
X109885714Y-95902380D01*
X109600000Y-95902380D02*
X109600000Y-94902380D01*
X109695238Y-95045238D01*
X109790476Y-95140476D01*
X109885714Y-95188095D01*
X109566666Y-97807142D02*
X109614285Y-97854761D01*
X109757142Y-97902380D01*
X109852380Y-97902380D01*
X109995238Y-97854761D01*
X110090476Y-97759523D01*
X110138095Y-97664285D01*
X110185714Y-97473809D01*
X110185714Y-97330952D01*
X110138095Y-97140476D01*
X110090476Y-97045238D01*
X109995238Y-96950000D01*
X109852380Y-96902380D01*
X109757142Y-96902380D01*
X109614285Y-96950000D01*
X109566666Y-96997619D01*
X108709523Y-97235714D02*
X108709523Y-97902380D01*
X108947619Y-96854761D02*
X109185714Y-97569047D01*
X108566666Y-97569047D01*
X94866666Y-81202380D02*
X95200000Y-80726190D01*
X95438095Y-81202380D02*
X95438095Y-80202380D01*
X95057142Y-80202380D01*
X94961904Y-80250000D01*
X94914285Y-80297619D01*
X94866666Y-80392857D01*
X94866666Y-80535714D01*
X94914285Y-80630952D01*
X94961904Y-80678571D01*
X95057142Y-80726190D01*
X95438095Y-80726190D01*
X94295238Y-80630952D02*
X94390476Y-80583333D01*
X94438095Y-80535714D01*
X94485714Y-80440476D01*
X94485714Y-80392857D01*
X94438095Y-80297619D01*
X94390476Y-80250000D01*
X94295238Y-80202380D01*
X94104761Y-80202380D01*
X94009523Y-80250000D01*
X93961904Y-80297619D01*
X93914285Y-80392857D01*
X93914285Y-80440476D01*
X93961904Y-80535714D01*
X94009523Y-80583333D01*
X94104761Y-80630952D01*
X94295238Y-80630952D01*
X94390476Y-80678571D01*
X94438095Y-80726190D01*
X94485714Y-80821428D01*
X94485714Y-81011904D01*
X94438095Y-81107142D01*
X94390476Y-81154761D01*
X94295238Y-81202380D01*
X94104761Y-81202380D01*
X94009523Y-81154761D01*
X93961904Y-81107142D01*
X93914285Y-81011904D01*
X93914285Y-80821428D01*
X93961904Y-80726190D01*
X94009523Y-80678571D01*
X94104761Y-80630952D01*
X101630357Y-81407142D02*
X101677976Y-81454761D01*
X101820833Y-81502380D01*
X101916071Y-81502380D01*
X102058928Y-81454761D01*
X102154166Y-81359523D01*
X102201785Y-81264285D01*
X102249404Y-81073809D01*
X102249404Y-80930952D01*
X102201785Y-80740476D01*
X102154166Y-80645238D01*
X102058928Y-80550000D01*
X101916071Y-80502380D01*
X101820833Y-80502380D01*
X101677976Y-80550000D01*
X101630357Y-80597619D01*
X100677976Y-81502380D02*
X101249404Y-81502380D01*
X100963690Y-81502380D02*
X100963690Y-80502380D01*
X101058928Y-80645238D01*
X101154166Y-80740476D01*
X101249404Y-80788095D01*
X100297023Y-80597619D02*
X100249404Y-80550000D01*
X100154166Y-80502380D01*
X99916071Y-80502380D01*
X99820833Y-80550000D01*
X99773214Y-80597619D01*
X99725595Y-80692857D01*
X99725595Y-80788095D01*
X99773214Y-80930952D01*
X100344642Y-81502380D01*
X99725595Y-81502380D01*
X93152380Y-82783333D02*
X92676190Y-82450000D01*
X93152380Y-82211904D02*
X92152380Y-82211904D01*
X92152380Y-82592857D01*
X92200000Y-82688095D01*
X92247619Y-82735714D01*
X92342857Y-82783333D01*
X92485714Y-82783333D01*
X92580952Y-82735714D01*
X92628571Y-82688095D01*
X92676190Y-82592857D01*
X92676190Y-82211904D01*
X93152380Y-83259523D02*
X93152380Y-83450000D01*
X93104761Y-83545238D01*
X93057142Y-83592857D01*
X92914285Y-83688095D01*
X92723809Y-83735714D01*
X92342857Y-83735714D01*
X92247619Y-83688095D01*
X92200000Y-83640476D01*
X92152380Y-83545238D01*
X92152380Y-83354761D01*
X92200000Y-83259523D01*
X92247619Y-83211904D01*
X92342857Y-83164285D01*
X92580952Y-83164285D01*
X92676190Y-83211904D01*
X92723809Y-83259523D01*
X92771428Y-83354761D01*
X92771428Y-83545238D01*
X92723809Y-83640476D01*
X92676190Y-83688095D01*
X92580952Y-83735714D01*
X81933333Y-123752380D02*
X81933333Y-124466666D01*
X81980952Y-124609523D01*
X82076190Y-124704761D01*
X82219047Y-124752380D01*
X82314285Y-124752380D01*
X80933333Y-124752380D02*
X81504761Y-124752380D01*
X81219047Y-124752380D02*
X81219047Y-123752380D01*
X81314285Y-123895238D01*
X81409523Y-123990476D01*
X81504761Y-124038095D01*
X94105357Y-110657142D02*
X94152976Y-110704761D01*
X94295833Y-110752380D01*
X94391071Y-110752380D01*
X94533928Y-110704761D01*
X94629166Y-110609523D01*
X94676785Y-110514285D01*
X94724404Y-110323809D01*
X94724404Y-110180952D01*
X94676785Y-109990476D01*
X94629166Y-109895238D01*
X94533928Y-109800000D01*
X94391071Y-109752380D01*
X94295833Y-109752380D01*
X94152976Y-109800000D01*
X94105357Y-109847619D01*
X93152976Y-110752380D02*
X93724404Y-110752380D01*
X93438690Y-110752380D02*
X93438690Y-109752380D01*
X93533928Y-109895238D01*
X93629166Y-109990476D01*
X93724404Y-110038095D01*
X92819642Y-109752380D02*
X92152976Y-109752380D01*
X92581547Y-110752380D01*
X115688095Y-70302380D02*
X115688095Y-69302380D01*
X115450000Y-69302380D01*
X115307142Y-69350000D01*
X115211904Y-69445238D01*
X115164285Y-69540476D01*
X115116666Y-69730952D01*
X115116666Y-69873809D01*
X115164285Y-70064285D01*
X115211904Y-70159523D01*
X115307142Y-70254761D01*
X115450000Y-70302380D01*
X115688095Y-70302380D01*
X114783333Y-69302380D02*
X114164285Y-69302380D01*
X114497619Y-69683333D01*
X114354761Y-69683333D01*
X114259523Y-69730952D01*
X114211904Y-69778571D01*
X114164285Y-69873809D01*
X114164285Y-70111904D01*
X114211904Y-70207142D01*
X114259523Y-70254761D01*
X114354761Y-70302380D01*
X114640476Y-70302380D01*
X114735714Y-70254761D01*
X114783333Y-70207142D01*
X124295238Y-68097619D02*
X124390476Y-68050000D01*
X124485714Y-67954761D01*
X124628571Y-67811904D01*
X124723809Y-67764285D01*
X124819047Y-67764285D01*
X124771428Y-68002380D02*
X124866666Y-67954761D01*
X124961904Y-67859523D01*
X125009523Y-67669047D01*
X125009523Y-67335714D01*
X124961904Y-67145238D01*
X124866666Y-67050000D01*
X124771428Y-67002380D01*
X124580952Y-67002380D01*
X124485714Y-67050000D01*
X124390476Y-67145238D01*
X124342857Y-67335714D01*
X124342857Y-67669047D01*
X124390476Y-67859523D01*
X124485714Y-67954761D01*
X124580952Y-68002380D01*
X124771428Y-68002380D01*
X123961904Y-67097619D02*
X123914285Y-67050000D01*
X123819047Y-67002380D01*
X123580952Y-67002380D01*
X123485714Y-67050000D01*
X123438095Y-67097619D01*
X123390476Y-67192857D01*
X123390476Y-67288095D01*
X123438095Y-67430952D01*
X124009523Y-68002380D01*
X123390476Y-68002380D01*
X115116666Y-68502380D02*
X115450000Y-68026190D01*
X115688095Y-68502380D02*
X115688095Y-67502380D01*
X115307142Y-67502380D01*
X115211904Y-67550000D01*
X115164285Y-67597619D01*
X115116666Y-67692857D01*
X115116666Y-67835714D01*
X115164285Y-67930952D01*
X115211904Y-67978571D01*
X115307142Y-68026190D01*
X115688095Y-68026190D01*
X114211904Y-67502380D02*
X114688095Y-67502380D01*
X114735714Y-67978571D01*
X114688095Y-67930952D01*
X114592857Y-67883333D01*
X114354761Y-67883333D01*
X114259523Y-67930952D01*
X114211904Y-67978571D01*
X114164285Y-68073809D01*
X114164285Y-68311904D01*
X114211904Y-68407142D01*
X114259523Y-68454761D01*
X114354761Y-68502380D01*
X114592857Y-68502380D01*
X114688095Y-68454761D01*
X114735714Y-68407142D01*
X117391904Y-104952380D02*
X117391904Y-105761904D01*
X117344285Y-105857142D01*
X117296666Y-105904761D01*
X117201428Y-105952380D01*
X117010952Y-105952380D01*
X116915714Y-105904761D01*
X116868095Y-105857142D01*
X116820476Y-105761904D01*
X116820476Y-104952380D01*
X115915714Y-104952380D02*
X116106190Y-104952380D01*
X116201428Y-105000000D01*
X116249047Y-105047619D01*
X116344285Y-105190476D01*
X116391904Y-105380952D01*
X116391904Y-105761904D01*
X116344285Y-105857142D01*
X116296666Y-105904761D01*
X116201428Y-105952380D01*
X116010952Y-105952380D01*
X115915714Y-105904761D01*
X115868095Y-105857142D01*
X115820476Y-105761904D01*
X115820476Y-105523809D01*
X115868095Y-105428571D01*
X115915714Y-105380952D01*
X116010952Y-105333333D01*
X116201428Y-105333333D01*
X116296666Y-105380952D01*
X116344285Y-105428571D01*
X116391904Y-105523809D01*
X106657142Y-106027142D02*
X106704761Y-105979523D01*
X106752380Y-105836666D01*
X106752380Y-105741428D01*
X106704761Y-105598571D01*
X106609523Y-105503333D01*
X106514285Y-105455714D01*
X106323809Y-105408095D01*
X106180952Y-105408095D01*
X105990476Y-105455714D01*
X105895238Y-105503333D01*
X105800000Y-105598571D01*
X105752380Y-105741428D01*
X105752380Y-105836666D01*
X105800000Y-105979523D01*
X105847619Y-106027142D01*
X105847619Y-106408095D02*
X105800000Y-106455714D01*
X105752380Y-106550952D01*
X105752380Y-106789047D01*
X105800000Y-106884285D01*
X105847619Y-106931904D01*
X105942857Y-106979523D01*
X106038095Y-106979523D01*
X106180952Y-106931904D01*
X106752380Y-106360476D01*
X106752380Y-106979523D01*
X106085714Y-107836666D02*
X106752380Y-107836666D01*
X105704761Y-107598571D02*
X106419047Y-107360476D01*
X106419047Y-107979523D01*
X123567857Y-110857142D02*
X123615476Y-110904761D01*
X123758333Y-110952380D01*
X123853571Y-110952380D01*
X123996428Y-110904761D01*
X124091666Y-110809523D01*
X124139285Y-110714285D01*
X124186904Y-110523809D01*
X124186904Y-110380952D01*
X124139285Y-110190476D01*
X124091666Y-110095238D01*
X123996428Y-110000000D01*
X123853571Y-109952380D01*
X123758333Y-109952380D01*
X123615476Y-110000000D01*
X123567857Y-110047619D01*
X123186904Y-110047619D02*
X123139285Y-110000000D01*
X123044047Y-109952380D01*
X122805952Y-109952380D01*
X122710714Y-110000000D01*
X122663095Y-110047619D01*
X122615476Y-110142857D01*
X122615476Y-110238095D01*
X122663095Y-110380952D01*
X123234523Y-110952380D01*
X122615476Y-110952380D01*
X121710714Y-109952380D02*
X122186904Y-109952380D01*
X122234523Y-110428571D01*
X122186904Y-110380952D01*
X122091666Y-110333333D01*
X121853571Y-110333333D01*
X121758333Y-110380952D01*
X121710714Y-110428571D01*
X121663095Y-110523809D01*
X121663095Y-110761904D01*
X121710714Y-110857142D01*
X121758333Y-110904761D01*
X121853571Y-110952380D01*
X122091666Y-110952380D01*
X122186904Y-110904761D01*
X122234523Y-110857142D01*
X123567857Y-112357142D02*
X123615476Y-112404761D01*
X123758333Y-112452380D01*
X123853571Y-112452380D01*
X123996428Y-112404761D01*
X124091666Y-112309523D01*
X124139285Y-112214285D01*
X124186904Y-112023809D01*
X124186904Y-111880952D01*
X124139285Y-111690476D01*
X124091666Y-111595238D01*
X123996428Y-111500000D01*
X123853571Y-111452380D01*
X123758333Y-111452380D01*
X123615476Y-111500000D01*
X123567857Y-111547619D01*
X123186904Y-111547619D02*
X123139285Y-111500000D01*
X123044047Y-111452380D01*
X122805952Y-111452380D01*
X122710714Y-111500000D01*
X122663095Y-111547619D01*
X122615476Y-111642857D01*
X122615476Y-111738095D01*
X122663095Y-111880952D01*
X123234523Y-112452380D01*
X122615476Y-112452380D01*
X122282142Y-111452380D02*
X121663095Y-111452380D01*
X121996428Y-111833333D01*
X121853571Y-111833333D01*
X121758333Y-111880952D01*
X121710714Y-111928571D01*
X121663095Y-112023809D01*
X121663095Y-112261904D01*
X121710714Y-112357142D01*
X121758333Y-112404761D01*
X121853571Y-112452380D01*
X122139285Y-112452380D01*
X122234523Y-112404761D01*
X122282142Y-112357142D01*
X108187142Y-106027142D02*
X108234761Y-105979523D01*
X108282380Y-105836666D01*
X108282380Y-105741428D01*
X108234761Y-105598571D01*
X108139523Y-105503333D01*
X108044285Y-105455714D01*
X107853809Y-105408095D01*
X107710952Y-105408095D01*
X107520476Y-105455714D01*
X107425238Y-105503333D01*
X107330000Y-105598571D01*
X107282380Y-105741428D01*
X107282380Y-105836666D01*
X107330000Y-105979523D01*
X107377619Y-106027142D01*
X107377619Y-106408095D02*
X107330000Y-106455714D01*
X107282380Y-106550952D01*
X107282380Y-106789047D01*
X107330000Y-106884285D01*
X107377619Y-106931904D01*
X107472857Y-106979523D01*
X107568095Y-106979523D01*
X107710952Y-106931904D01*
X108282380Y-106360476D01*
X108282380Y-106979523D01*
X107282380Y-107836666D02*
X107282380Y-107646190D01*
X107330000Y-107550952D01*
X107377619Y-107503333D01*
X107520476Y-107408095D01*
X107710952Y-107360476D01*
X108091904Y-107360476D01*
X108187142Y-107408095D01*
X108234761Y-107455714D01*
X108282380Y-107550952D01*
X108282380Y-107741428D01*
X108234761Y-107836666D01*
X108187142Y-107884285D01*
X108091904Y-107931904D01*
X107853809Y-107931904D01*
X107758571Y-107884285D01*
X107710952Y-107836666D01*
X107663333Y-107741428D01*
X107663333Y-107550952D01*
X107710952Y-107455714D01*
X107758571Y-107408095D01*
X107853809Y-107360476D01*
D11*
X97337500Y-102040000D02*
X105397500Y-102040000D01*
X105397500Y-102040000D02*
X105397500Y-106560000D01*
X105397500Y-106560000D02*
X97337500Y-106560000D01*
X97337500Y-86790000D02*
X105397500Y-86790000D01*
X105397500Y-86790000D02*
X105397500Y-91310000D01*
X105397500Y-91310000D02*
X97337500Y-91310000D01*
X106937221Y-78790000D02*
X107262779Y-78790000D01*
X106937221Y-79810000D02*
X107262779Y-79810000D01*
X109730000Y-103820279D02*
X109730000Y-103494721D01*
X108710000Y-103820279D02*
X108710000Y-103494721D01*
X94549721Y-87010000D02*
X94875279Y-87010000D01*
X94549721Y-85990000D02*
X94875279Y-85990000D01*
X105562779Y-110090000D02*
X105237221Y-110090000D01*
X105562779Y-111110000D02*
X105237221Y-111110000D01*
X100210000Y-117362779D02*
X100210000Y-117037221D01*
X99190000Y-117362779D02*
X99190000Y-117037221D01*
X105562779Y-112090000D02*
X105237221Y-112090000D01*
X105562779Y-113110000D02*
X105237221Y-113110000D01*
X102910000Y-117362779D02*
X102910000Y-117037221D01*
X101890000Y-117362779D02*
X101890000Y-117037221D01*
X105550279Y-114090000D02*
X105224721Y-114090000D01*
X105550279Y-115110000D02*
X105224721Y-115110000D01*
X105550279Y-116090000D02*
X105224721Y-116090000D01*
X105550279Y-117110000D02*
X105224721Y-117110000D01*
X94549721Y-85510000D02*
X94875279Y-85510000D01*
X94549721Y-84490000D02*
X94875279Y-84490000D01*
X99600000Y-114510000D02*
X101100000Y-114510000D01*
X99600000Y-114510000D02*
X98100000Y-114510000D01*
X99600000Y-111290000D02*
X98100000Y-111290000D01*
X99600000Y-111290000D02*
X102475000Y-111290000D01*
X97510000Y-117362779D02*
X97510000Y-117037221D01*
X96490000Y-117362779D02*
X96490000Y-117037221D01*
X105322500Y-66240000D02*
X105322500Y-70760000D01*
X105322500Y-70760000D02*
X97262500Y-70760000D01*
X97262500Y-66240000D02*
X105322500Y-66240000D01*
X106497936Y-76510000D02*
X107702064Y-76510000D01*
X106497936Y-74690000D02*
X107702064Y-74690000D01*
X106924721Y-78210000D02*
X107250279Y-78210000D01*
X106924721Y-77190000D02*
X107250279Y-77190000D01*
X106824721Y-98490000D02*
X107150279Y-98490000D01*
X106824721Y-99510000D02*
X107150279Y-99510000D01*
X106397936Y-94490000D02*
X107602064Y-94490000D01*
X106397936Y-96310000D02*
X107602064Y-96310000D01*
X106824721Y-96890000D02*
X107150279Y-96890000D01*
X106824721Y-97910000D02*
X107150279Y-97910000D01*
X94537221Y-82510000D02*
X94862779Y-82510000D01*
X94537221Y-81490000D02*
X94862779Y-81490000D01*
X97337500Y-81890000D02*
X105397500Y-81890000D01*
X105397500Y-86410000D02*
X97337500Y-86410000D01*
X105397500Y-81890000D02*
X105397500Y-86410000D01*
X94549721Y-84010000D02*
X94875279Y-84010000D01*
X94549721Y-82990000D02*
X94875279Y-82990000D01*
X80064500Y-123601100D02*
X81394500Y-123601100D01*
X78794500Y-123601100D02*
X78794500Y-121001100D01*
X76194500Y-123601100D02*
X76194500Y-72681100D01*
X81394500Y-121001100D02*
X81394500Y-72681100D01*
X78794500Y-121001100D02*
X81394500Y-121001100D01*
X76194500Y-72681100D02*
X81394500Y-72681100D01*
X76194500Y-123601100D02*
X78794500Y-123601100D01*
X81394500Y-123601100D02*
X81394500Y-122271100D01*
X96425279Y-110860000D02*
X96099721Y-110860000D01*
X96425279Y-109840000D02*
X96099721Y-109840000D01*
X116352500Y-70535000D02*
X116352500Y-69065000D01*
X118637500Y-70535000D02*
X116352500Y-70535000D01*
X116352500Y-69065000D02*
X118637500Y-69065000D01*
X123030000Y-69660000D02*
X122100000Y-69660000D01*
X123030000Y-69660000D02*
X123030000Y-68200000D01*
X119870000Y-69660000D02*
X120800000Y-69660000D01*
X119870000Y-69660000D02*
X119870000Y-67500000D01*
X117674721Y-67440000D02*
X118000279Y-67440000D01*
X117674721Y-68460000D02*
X118000279Y-68460000D01*
X114040000Y-102590000D02*
X114040000Y-103850000D01*
X117800000Y-109410000D02*
X114040000Y-109410000D01*
X114040000Y-109410000D02*
X114040000Y-108150000D01*
X120050000Y-102590000D02*
X114040000Y-102590000D01*
X109730000Y-106534420D02*
X109730000Y-106815580D01*
X108710000Y-106534420D02*
X108710000Y-106815580D01*
X119859420Y-111010000D02*
X120140580Y-111010000D01*
X119859420Y-109990000D02*
X120140580Y-109990000D01*
X119859420Y-111490000D02*
X120140580Y-111490000D01*
X119859420Y-112510000D02*
X120140580Y-112510000D01*
X110240000Y-106534420D02*
X110240000Y-106815580D01*
X111260000Y-106534420D02*
X111260000Y-106815580D01*
M02*
