G04 #@! TF.GenerationSoftware,KiCad,Pcbnew,6.0.5-a6ca702e91~116~ubuntu20.04.1*
G04 #@! TF.CreationDate,2022-05-10T22:13:07+02:00*
G04 #@! TF.ProjectId,rysboard,72797362-6f61-4726-942e-6b696361645f,4.2*
G04 #@! TF.SameCoordinates,Original*
G04 #@! TF.FileFunction,Paste,Top*
G04 #@! TF.FilePolarity,Positive*
%FSLAX46Y46*%
G04 Gerber Fmt 4.6, Leading zero omitted, Abs format (unit mm)*
G04 Created by KiCad (PCBNEW 6.0.5-a6ca702e91~116~ubuntu20.04.1) date 2022-05-10 22:13:07*
%MOMM*%
%LPD*%
G01*
G04 APERTURE LIST*
G04 Aperture macros list*
%AMRoundRect*
0 Rectangle with rounded corners*
0 $1 Rounding radius*
0 $2 $3 $4 $5 $6 $7 $8 $9 X,Y pos of 4 corners*
0 Add a 4 corners polygon primitive as box body*
4,1,4,$2,$3,$4,$5,$6,$7,$8,$9,$2,$3,0*
0 Add four circle primitives for the rounded corners*
1,1,$1+$1,$2,$3*
1,1,$1+$1,$4,$5*
1,1,$1+$1,$6,$7*
1,1,$1+$1,$8,$9*
0 Add four rect primitives between the rounded corners*
20,1,$1+$1,$2,$3,$4,$5,0*
20,1,$1+$1,$4,$5,$6,$7,0*
20,1,$1+$1,$6,$7,$8,$9,0*
20,1,$1+$1,$8,$9,$2,$3,0*%
G04 Aperture macros list end*
%ADD10RoundRect,0.243750X0.243750X0.456250X-0.243750X0.456250X-0.243750X-0.456250X0.243750X-0.456250X0*%
%ADD11RoundRect,0.250000X-0.375000X-0.625000X0.375000X-0.625000X0.375000X0.625000X-0.375000X0.625000X0*%
%ADD12RoundRect,0.218750X-0.218750X-0.256250X0.218750X-0.256250X0.218750X0.256250X-0.218750X0.256250X0*%
%ADD13RoundRect,0.218750X0.256250X-0.218750X0.256250X0.218750X-0.256250X0.218750X-0.256250X-0.218750X0*%
%ADD14RoundRect,0.218750X-0.256250X0.218750X-0.256250X-0.218750X0.256250X-0.218750X0.256250X0.218750X0*%
%ADD15RoundRect,0.218750X0.218750X0.256250X-0.218750X0.256250X-0.218750X-0.256250X0.218750X-0.256250X0*%
%ADD16R,1.400000X1.400000*%
%ADD17R,1.100000X0.400000*%
%ADD18RoundRect,0.243750X-0.456250X0.243750X-0.456250X-0.243750X0.456250X-0.243750X0.456250X0.243750X0*%
%ADD19R,2.300000X2.500000*%
%ADD20RoundRect,0.250000X-0.625000X0.375000X-0.625000X-0.375000X0.625000X-0.375000X0.625000X0.375000X0*%
%ADD21R,1.910000X0.610000*%
%ADD22R,0.723000X0.930000*%
%ADD23R,0.800000X0.900000*%
%ADD24RoundRect,0.243750X-0.243750X-0.456250X0.243750X-0.456250X0.243750X0.456250X-0.243750X0.456250X0*%
%ADD25R,0.650000X0.400000*%
%ADD26R,3.500000X2.300000*%
G04 APERTURE END LIST*
D10*
X110200000Y-94000000D03*
X108325000Y-94000000D03*
X110200000Y-73800000D03*
X108325000Y-73800000D03*
D11*
X119100000Y-113800000D03*
X121900000Y-113800000D03*
X119100000Y-116200000D03*
X121900000Y-116200000D03*
D12*
X119712500Y-118200000D03*
X121287500Y-118200000D03*
D13*
X106200000Y-117500000D03*
X106200000Y-115925000D03*
X107800000Y-117487500D03*
X107800000Y-115912500D03*
D14*
X106200000Y-77700000D03*
X106200000Y-79275000D03*
D15*
X111700000Y-117500000D03*
X110125000Y-117500000D03*
X114875000Y-116700000D03*
X113300000Y-116700000D03*
D13*
X123300000Y-123400000D03*
X123300000Y-121825000D03*
D16*
X100100000Y-93115000D03*
X100100000Y-100235000D03*
X101800000Y-94895000D03*
X101800000Y-93115000D03*
X101800000Y-96675000D03*
X101800000Y-98455000D03*
X101800000Y-100235000D03*
X100100000Y-96675000D03*
X100100000Y-98455000D03*
X100100000Y-94895000D03*
D17*
X103800000Y-100900000D03*
X103800000Y-100250000D03*
X103800000Y-99600000D03*
X103800000Y-98950000D03*
X103800000Y-98300000D03*
X103800000Y-97650000D03*
X103800000Y-97000000D03*
X103800000Y-96350000D03*
X103800000Y-95700000D03*
X103800000Y-95050000D03*
X103800000Y-94400000D03*
X103800000Y-93750000D03*
X103800000Y-93100000D03*
X103800000Y-92450000D03*
X98100000Y-92450000D03*
X98100000Y-93100000D03*
X98100000Y-93750000D03*
X98100000Y-94400000D03*
X98100000Y-95050000D03*
X98100000Y-95700000D03*
X98100000Y-96350000D03*
X98100000Y-97000000D03*
X98100000Y-97650000D03*
X98100000Y-98300000D03*
X98100000Y-98950000D03*
X98100000Y-99600000D03*
X98100000Y-100250000D03*
X98100000Y-100900000D03*
D18*
X119240000Y-126470000D03*
X119240000Y-128345000D03*
X121300000Y-126462500D03*
X121300000Y-128337500D03*
X123350000Y-126460000D03*
X123350000Y-128335000D03*
D13*
X119300000Y-123400000D03*
X119300000Y-121825000D03*
D19*
X126600000Y-110700000D03*
X126600000Y-115000000D03*
D20*
X127600000Y-118200000D03*
X127600000Y-121000000D03*
D16*
X101800000Y-72940000D03*
X100100000Y-80060000D03*
X101800000Y-80060000D03*
X100100000Y-78280000D03*
X101800000Y-76500000D03*
X100100000Y-72940000D03*
X100100000Y-74720000D03*
X101800000Y-74720000D03*
X101800000Y-78280000D03*
X100100000Y-76500000D03*
D17*
X103800000Y-80725000D03*
X103800000Y-80075000D03*
X103800000Y-79425000D03*
X103800000Y-78775000D03*
X103800000Y-78125000D03*
X103800000Y-77475000D03*
X103800000Y-76825000D03*
X103800000Y-76175000D03*
X103800000Y-75525000D03*
X103800000Y-74875000D03*
X103800000Y-74225000D03*
X103800000Y-73575000D03*
X103800000Y-72925000D03*
X103800000Y-72275000D03*
X98100000Y-72275000D03*
X98100000Y-72925000D03*
X98100000Y-73575000D03*
X98100000Y-74225000D03*
X98100000Y-74875000D03*
X98100000Y-75525000D03*
X98100000Y-76175000D03*
X98100000Y-76825000D03*
X98100000Y-77475000D03*
X98100000Y-78125000D03*
X98100000Y-78775000D03*
X98100000Y-79425000D03*
X98100000Y-80075000D03*
X98100000Y-80725000D03*
D21*
X115404000Y-114583000D03*
X115404000Y-113313000D03*
X115404000Y-112043000D03*
X115404000Y-110773000D03*
X109844000Y-110773000D03*
X109844000Y-112043000D03*
X109844000Y-113313000D03*
X109844000Y-114583000D03*
D22*
X113226500Y-111903000D03*
X113226500Y-113453000D03*
X112021500Y-111903000D03*
X112021500Y-113453000D03*
D13*
X121300000Y-123400000D03*
X121300000Y-121825000D03*
D23*
X110250000Y-75600000D03*
X108350000Y-75600000D03*
X109300000Y-77600000D03*
D14*
X106200000Y-74612500D03*
X106200000Y-76187500D03*
D15*
X110300000Y-79200000D03*
X108725000Y-79200000D03*
D23*
X110250000Y-95800000D03*
X108350000Y-95800000D03*
X109300000Y-97800000D03*
D14*
X106200000Y-94812500D03*
X106200000Y-96387500D03*
X106200000Y-97912500D03*
X106200000Y-99487500D03*
D15*
X110075000Y-99400000D03*
X108500000Y-99400000D03*
D10*
X86800000Y-67000000D03*
X84925000Y-67000000D03*
D24*
X92062500Y-67000000D03*
X93937500Y-67000000D03*
D15*
X93800000Y-68900000D03*
X92225000Y-68900000D03*
D12*
X92225000Y-70500000D03*
X93800000Y-70500000D03*
D15*
X86587500Y-70500000D03*
X85012500Y-70500000D03*
X86587500Y-68900000D03*
X85012500Y-68900000D03*
D25*
X88500000Y-68350000D03*
X88500000Y-69000000D03*
X88500000Y-69650000D03*
X90400000Y-69650000D03*
X90400000Y-69000000D03*
X90400000Y-68350000D03*
D17*
X96950000Y-85425000D03*
X96950000Y-86075000D03*
X96950000Y-86725000D03*
X96950000Y-87375000D03*
X101250000Y-87375000D03*
X101250000Y-86725000D03*
X101250000Y-86075000D03*
X101250000Y-85425000D03*
D26*
X101700000Y-110600000D03*
X101700000Y-116600000D03*
D20*
X89800000Y-114500000D03*
X89800000Y-117300000D03*
D19*
X95700000Y-112350000D03*
X95700000Y-116650000D03*
D20*
X92200000Y-114500000D03*
X92200000Y-117300000D03*
M02*
