G75*
%MOIN*%
%OFA0B0*%
%FSLAX25Y25*%
%IPPOS*%
%LPD*%
%AMOC8*
5,1,8,0,0,1.08239X$1,22.5*
%
%ADD10C,0.00500*%
D10*
X0005000Y0001800D02*
X0005000Y0216800D01*
X0230000Y0216800D01*
X0231208Y0216785D01*
X0232416Y0216742D01*
X0233622Y0216669D01*
X0234826Y0216567D01*
X0236027Y0216435D01*
X0237224Y0216275D01*
X0238418Y0216086D01*
X0239606Y0215869D01*
X0240789Y0215622D01*
X0241966Y0215347D01*
X0243135Y0215044D01*
X0244297Y0214712D01*
X0245451Y0214353D01*
X0246595Y0213966D01*
X0247730Y0213551D01*
X0248855Y0213109D01*
X0249968Y0212640D01*
X0251070Y0212144D01*
X0252160Y0211621D01*
X0253236Y0211073D01*
X0254299Y0210498D01*
X0255348Y0209898D01*
X0256382Y0209273D01*
X0257401Y0208624D01*
X0258403Y0207949D01*
X0259389Y0207251D01*
X0260358Y0206529D01*
X0261309Y0205784D01*
X0262242Y0205016D01*
X0263156Y0204226D01*
X0264051Y0203413D01*
X0264926Y0202580D01*
X0265780Y0201726D01*
X0266613Y0200851D01*
X0267426Y0199956D01*
X0268216Y0199042D01*
X0268984Y0198109D01*
X0269729Y0197158D01*
X0270451Y0196189D01*
X0271149Y0195203D01*
X0271824Y0194201D01*
X0272473Y0193182D01*
X0273098Y0192148D01*
X0273698Y0191099D01*
X0274273Y0190036D01*
X0274821Y0188960D01*
X0275344Y0187870D01*
X0275840Y0186768D01*
X0276309Y0185655D01*
X0276751Y0184530D01*
X0277166Y0183395D01*
X0277553Y0182251D01*
X0277912Y0181097D01*
X0278244Y0179935D01*
X0278547Y0178766D01*
X0278822Y0177589D01*
X0279069Y0176406D01*
X0279286Y0175218D01*
X0279475Y0174024D01*
X0279635Y0172827D01*
X0279767Y0171626D01*
X0279869Y0170422D01*
X0279942Y0169216D01*
X0279985Y0168008D01*
X0280000Y0166800D01*
X0280000Y0051800D01*
X0279985Y0050592D01*
X0279942Y0049384D01*
X0279869Y0048178D01*
X0279767Y0046974D01*
X0279635Y0045773D01*
X0279475Y0044576D01*
X0279286Y0043382D01*
X0279069Y0042194D01*
X0278822Y0041011D01*
X0278547Y0039834D01*
X0278244Y0038665D01*
X0277912Y0037503D01*
X0277553Y0036349D01*
X0277166Y0035205D01*
X0276751Y0034070D01*
X0276309Y0032945D01*
X0275840Y0031832D01*
X0275344Y0030730D01*
X0274821Y0029640D01*
X0274273Y0028564D01*
X0273698Y0027501D01*
X0273098Y0026452D01*
X0272473Y0025418D01*
X0271824Y0024399D01*
X0271149Y0023397D01*
X0270451Y0022411D01*
X0269729Y0021442D01*
X0268984Y0020491D01*
X0268216Y0019558D01*
X0267426Y0018644D01*
X0266613Y0017749D01*
X0265780Y0016874D01*
X0264926Y0016020D01*
X0264051Y0015187D01*
X0263156Y0014374D01*
X0262242Y0013584D01*
X0261309Y0012816D01*
X0260358Y0012071D01*
X0259389Y0011349D01*
X0258403Y0010651D01*
X0257401Y0009976D01*
X0256382Y0009327D01*
X0255348Y0008702D01*
X0254299Y0008102D01*
X0253236Y0007527D01*
X0252160Y0006979D01*
X0251070Y0006456D01*
X0249968Y0005960D01*
X0248855Y0005491D01*
X0247730Y0005049D01*
X0246595Y0004634D01*
X0245451Y0004247D01*
X0244297Y0003888D01*
X0243135Y0003556D01*
X0241966Y0003253D01*
X0240789Y0002978D01*
X0239606Y0002731D01*
X0238418Y0002514D01*
X0237224Y0002325D01*
X0236027Y0002165D01*
X0234826Y0002033D01*
X0233622Y0001931D01*
X0232416Y0001858D01*
X0231208Y0001815D01*
X0230000Y0001800D01*
X0005000Y0001800D01*
M02*
