G75*
%MOIN*%
%OFA0B0*%
%FSLAX25Y25*%
%IPPOS*%
%LPD*%
%AMOC8*
5,1,8,0,0,1.08239X$1,22.5*
%
%ADD10R,0.03937X0.09646*%
%ADD11R,0.09646X0.03937*%
%ADD12R,0.06299X0.10236*%
%ADD13R,0.06024X0.06024*%
%ADD14C,0.06024*%
%ADD15C,0.06000*%
%ADD16R,0.04331X0.03937*%
%ADD17R,0.03150X0.03150*%
%ADD18R,0.05906X0.05906*%
%ADD19C,0.05906*%
%ADD20R,0.05906X0.05118*%
%ADD21R,0.04800X0.04800*%
%ADD22C,0.04800*%
%ADD23R,0.03937X0.04331*%
%ADD24C,0.02400*%
%ADD25C,0.01600*%
%ADD26C,0.04000*%
%ADD27C,0.01200*%
%ADD28C,0.02000*%
%ADD29C,0.01000*%
%ADD30C,0.03569*%
%ADD31C,0.02978*%
D10*
X0228504Y0054103D03*
X0234016Y0054103D03*
X0239528Y0054103D03*
X0245039Y0054103D03*
X0250551Y0054103D03*
X0256063Y0054103D03*
X0261575Y0054103D03*
X0267087Y0054103D03*
X0267087Y0104497D03*
X0261575Y0104497D03*
X0256063Y0104497D03*
X0250551Y0104497D03*
X0245039Y0104497D03*
X0239528Y0104497D03*
X0234016Y0104497D03*
X0228504Y0104497D03*
D11*
X0219469Y0098591D03*
X0219469Y0093080D03*
X0219469Y0087568D03*
X0219469Y0082056D03*
X0219469Y0076544D03*
X0219469Y0071032D03*
X0219469Y0065520D03*
X0219469Y0060009D03*
D12*
X0192500Y0167213D03*
X0192500Y0181387D03*
X0173750Y0181387D03*
X0173750Y0167213D03*
D13*
X0258406Y0166800D03*
X0156250Y0047144D03*
X0071250Y0047144D03*
D14*
X0083061Y0047144D03*
X0083061Y0058956D03*
X0071250Y0058956D03*
X0156250Y0058956D03*
X0168061Y0058956D03*
X0168061Y0047144D03*
X0246594Y0166800D03*
X0246594Y0178611D03*
X0258406Y0178611D03*
D15*
X0220500Y0159300D02*
X0214500Y0159300D01*
X0214500Y0149300D02*
X0220500Y0149300D01*
X0220500Y0139300D02*
X0214500Y0139300D01*
X0214500Y0129300D02*
X0220500Y0129300D01*
X0220500Y0119300D02*
X0214500Y0119300D01*
X0189250Y0118050D02*
X0183250Y0118050D01*
X0183250Y0128050D02*
X0189250Y0128050D01*
X0189250Y0138050D02*
X0183250Y0138050D01*
X0183250Y0148050D02*
X0189250Y0148050D01*
X0139250Y0148050D02*
X0133250Y0148050D01*
X0133250Y0138050D02*
X0139250Y0138050D01*
X0139250Y0128050D02*
X0133250Y0128050D01*
X0133250Y0118050D02*
X0139250Y0118050D01*
X0139250Y0108050D02*
X0133250Y0108050D01*
X0133250Y0098050D02*
X0139250Y0098050D01*
X0139250Y0088050D02*
X0133250Y0088050D01*
X0133250Y0078050D02*
X0139250Y0078050D01*
X0104250Y0078050D02*
X0098250Y0078050D01*
X0098250Y0088050D02*
X0104250Y0088050D01*
X0104250Y0098050D02*
X0098250Y0098050D01*
X0098250Y0108050D02*
X0104250Y0108050D01*
X0104250Y0118050D02*
X0098250Y0118050D01*
X0098250Y0128050D02*
X0104250Y0128050D01*
X0104250Y0138050D02*
X0098250Y0138050D01*
X0098250Y0148050D02*
X0104250Y0148050D01*
X0054250Y0148050D02*
X0048250Y0148050D01*
X0048250Y0138050D02*
X0054250Y0138050D01*
X0054250Y0128050D02*
X0048250Y0128050D01*
X0048250Y0118050D02*
X0054250Y0118050D01*
X0054250Y0108050D02*
X0048250Y0108050D01*
X0048250Y0098050D02*
X0054250Y0098050D01*
X0054250Y0088050D02*
X0048250Y0088050D01*
X0048250Y0078050D02*
X0054250Y0078050D01*
X0183250Y0078050D02*
X0189250Y0078050D01*
X0189250Y0088050D02*
X0183250Y0088050D01*
X0183250Y0098050D02*
X0189250Y0098050D01*
X0189250Y0108050D02*
X0183250Y0108050D01*
D16*
X0246250Y0129704D03*
X0246250Y0136396D03*
X0246250Y0142204D03*
X0246250Y0148896D03*
X0262500Y0148896D03*
X0262500Y0142204D03*
X0262500Y0136396D03*
X0262500Y0129704D03*
X0275000Y0129704D03*
X0275000Y0136396D03*
X0275000Y0142204D03*
X0275000Y0148896D03*
X0251250Y0045146D03*
X0251250Y0038454D03*
X0262500Y0040146D03*
X0268750Y0040146D03*
X0268750Y0033454D03*
X0262500Y0033454D03*
D17*
X0257953Y0028050D03*
X0257953Y0023050D03*
X0252047Y0023050D03*
X0252047Y0028050D03*
D18*
X0015000Y0009300D03*
X0015000Y0199300D03*
D19*
X0025000Y0199300D03*
X0035000Y0199300D03*
X0045000Y0199300D03*
X0055000Y0199300D03*
X0065000Y0199300D03*
X0075000Y0199300D03*
X0085000Y0199300D03*
X0095000Y0199300D03*
X0105000Y0199300D03*
X0115000Y0199300D03*
X0125000Y0199300D03*
X0135000Y0199300D03*
X0145000Y0199300D03*
X0155000Y0199300D03*
X0165000Y0199300D03*
X0175000Y0199300D03*
X0185000Y0199300D03*
X0195000Y0199300D03*
X0205000Y0199300D03*
X0215000Y0199300D03*
X0225000Y0199300D03*
X0235000Y0199300D03*
X0235000Y0209300D03*
X0225000Y0209300D03*
X0215000Y0209300D03*
X0205000Y0209300D03*
X0195000Y0209300D03*
X0185000Y0209300D03*
X0175000Y0209300D03*
X0165000Y0209300D03*
X0155000Y0209300D03*
X0145000Y0209300D03*
X0135000Y0209300D03*
X0125000Y0209300D03*
X0115000Y0209300D03*
X0105000Y0209300D03*
X0095000Y0209300D03*
X0085000Y0209300D03*
X0075000Y0209300D03*
X0065000Y0209300D03*
X0055000Y0209300D03*
X0045000Y0209300D03*
X0035000Y0209300D03*
X0025000Y0209300D03*
X0015000Y0209300D03*
X0015000Y0019300D03*
X0025000Y0019300D03*
X0035000Y0019300D03*
X0045000Y0019300D03*
X0055000Y0019300D03*
X0065000Y0019300D03*
X0065000Y0009300D03*
X0055000Y0009300D03*
X0045000Y0009300D03*
X0035000Y0009300D03*
X0025000Y0009300D03*
X0075000Y0009300D03*
X0085000Y0009300D03*
X0095000Y0009300D03*
X0105000Y0009300D03*
X0115000Y0009300D03*
X0115000Y0019300D03*
X0105000Y0019300D03*
X0095000Y0019300D03*
X0085000Y0019300D03*
X0075000Y0019300D03*
X0125000Y0019300D03*
X0135000Y0019300D03*
X0145000Y0019300D03*
X0155000Y0019300D03*
X0165000Y0019300D03*
X0165000Y0009300D03*
X0155000Y0009300D03*
X0145000Y0009300D03*
X0135000Y0009300D03*
X0125000Y0009300D03*
X0175000Y0009300D03*
X0185000Y0009300D03*
X0195000Y0009300D03*
X0205000Y0009300D03*
X0215000Y0009300D03*
X0215000Y0019300D03*
X0205000Y0019300D03*
X0195000Y0019300D03*
X0185000Y0019300D03*
X0175000Y0019300D03*
X0225000Y0019300D03*
X0235000Y0019300D03*
X0235000Y0009300D03*
X0225000Y0009300D03*
D20*
X0123750Y0131810D03*
X0123750Y0139290D03*
D21*
X0099498Y0179300D03*
X0048248Y0179300D03*
X0018750Y0155048D03*
X0018750Y0105048D03*
X0018750Y0054674D03*
X0153248Y0179300D03*
D22*
X0145374Y0179300D03*
X0137500Y0179300D03*
X0129626Y0179300D03*
X0121752Y0179300D03*
X0091624Y0179300D03*
X0083750Y0179300D03*
X0075876Y0179300D03*
X0068002Y0179300D03*
X0040374Y0179300D03*
X0032500Y0179300D03*
X0024626Y0179300D03*
X0016752Y0179300D03*
X0018750Y0147174D03*
X0018750Y0139300D03*
X0018750Y0131426D03*
X0018750Y0123552D03*
X0018750Y0097174D03*
X0018750Y0089300D03*
X0018750Y0081426D03*
X0018750Y0073552D03*
X0018750Y0046800D03*
X0018750Y0038926D03*
D23*
X0031654Y0039300D03*
X0038346Y0039300D03*
X0038346Y0046800D03*
X0031654Y0046800D03*
D24*
X0038750Y0054300D02*
X0045000Y0048050D01*
X0045000Y0019300D01*
X0038750Y0054300D02*
X0019124Y0054300D01*
X0018750Y0054674D01*
X0136250Y0098050D02*
X0136250Y0108050D01*
X0226250Y0125550D02*
X0233750Y0118050D01*
X0233750Y0105024D01*
X0234277Y0104497D01*
X0226250Y0125550D02*
X0226250Y0183050D01*
X0218750Y0190550D01*
X0158750Y0190550D01*
X0153248Y0185048D01*
X0153248Y0179300D01*
X0147500Y0173050D02*
X0162500Y0173050D01*
X0170000Y0180550D01*
X0172913Y0180550D01*
X0173750Y0181387D01*
X0147500Y0173050D02*
X0145374Y0175176D01*
X0145374Y0179300D01*
X0225000Y0019300D02*
X0235000Y0019300D01*
X0235000Y0009300D01*
X0225000Y0009300D01*
D25*
X0007650Y0004450D02*
X0007650Y0071299D01*
X0008357Y0070591D01*
X0012107Y0066841D01*
X0013173Y0066400D01*
X0028799Y0066400D01*
X0037299Y0057900D01*
X0023406Y0057900D01*
X0023185Y0058434D01*
X0022509Y0059109D01*
X0021627Y0059474D01*
X0015873Y0059474D01*
X0014991Y0059109D01*
X0014315Y0058434D01*
X0013950Y0057551D01*
X0013950Y0051797D01*
X0014315Y0050915D01*
X0014991Y0050239D01*
X0015281Y0050119D01*
X0014681Y0049519D01*
X0013950Y0047755D01*
X0013950Y0045845D01*
X0014681Y0044081D01*
X0016031Y0042731D01*
X0016547Y0042517D01*
X0016014Y0042130D01*
X0015546Y0041662D01*
X0015158Y0041127D01*
X0014858Y0040538D01*
X0014653Y0039909D01*
X0014550Y0039257D01*
X0014550Y0038926D01*
X0018750Y0038926D01*
X0022950Y0038926D01*
X0022950Y0039257D01*
X0022847Y0039909D01*
X0022642Y0040538D01*
X0022342Y0041127D01*
X0021954Y0041662D01*
X0021486Y0042130D01*
X0020953Y0042517D01*
X0021469Y0042731D01*
X0022538Y0043800D01*
X0027433Y0043800D01*
X0027650Y0043275D01*
X0028300Y0042626D01*
X0028245Y0042571D01*
X0028008Y0042160D01*
X0027885Y0041702D01*
X0027885Y0039484D01*
X0031469Y0039484D01*
X0031469Y0039116D01*
X0027885Y0039116D01*
X0027885Y0036898D01*
X0028008Y0036440D01*
X0028245Y0036029D01*
X0028580Y0035694D01*
X0028990Y0035457D01*
X0029448Y0035335D01*
X0031469Y0035335D01*
X0031469Y0039116D01*
X0031838Y0039116D01*
X0031838Y0035335D01*
X0033859Y0035335D01*
X0034317Y0035457D01*
X0034535Y0035583D01*
X0035018Y0035100D01*
X0035346Y0034964D01*
X0035346Y0031389D01*
X0027865Y0023907D01*
X0026065Y0024653D01*
X0023935Y0024653D01*
X0021968Y0023838D01*
X0020462Y0022332D01*
X0019647Y0020365D01*
X0019647Y0020340D01*
X0019636Y0020413D01*
X0019405Y0021124D01*
X0019065Y0021791D01*
X0018625Y0022396D01*
X0018096Y0022925D01*
X0017491Y0023365D01*
X0016824Y0023705D01*
X0016113Y0023936D01*
X0015374Y0024053D01*
X0015184Y0024053D01*
X0015184Y0019484D01*
X0014816Y0019484D01*
X0014816Y0019116D01*
X0015184Y0019116D01*
X0015184Y0014547D01*
X0015374Y0014547D01*
X0016113Y0014664D01*
X0016824Y0014895D01*
X0017491Y0015235D01*
X0018096Y0015675D01*
X0018625Y0016204D01*
X0019065Y0016809D01*
X0019405Y0017476D01*
X0019636Y0018187D01*
X0019647Y0018260D01*
X0019647Y0018235D01*
X0020462Y0016268D01*
X0021968Y0014762D01*
X0023084Y0014300D01*
X0021968Y0013838D01*
X0020462Y0012332D01*
X0019753Y0010619D01*
X0019753Y0012490D01*
X0019630Y0012948D01*
X0019393Y0013358D01*
X0019058Y0013693D01*
X0018648Y0013930D01*
X0018190Y0014053D01*
X0015184Y0014053D01*
X0015184Y0009484D01*
X0014816Y0009484D01*
X0014816Y0009116D01*
X0015184Y0009116D01*
X0015184Y0004547D01*
X0018190Y0004547D01*
X0018648Y0004670D01*
X0019058Y0004907D01*
X0019393Y0005242D01*
X0019630Y0005652D01*
X0019753Y0006110D01*
X0019753Y0007981D01*
X0020462Y0006268D01*
X0021968Y0004762D01*
X0022722Y0004450D01*
X0007650Y0004450D01*
X0007650Y0005694D02*
X0010359Y0005694D01*
X0010370Y0005652D02*
X0010607Y0005242D01*
X0010942Y0004907D01*
X0011352Y0004670D01*
X0011810Y0004547D01*
X0014816Y0004547D01*
X0014816Y0009116D01*
X0010247Y0009116D01*
X0010247Y0006110D01*
X0010370Y0005652D01*
X0010247Y0007293D02*
X0007650Y0007293D01*
X0007650Y0008891D02*
X0010247Y0008891D01*
X0010247Y0009484D02*
X0014816Y0009484D01*
X0014816Y0014053D01*
X0011810Y0014053D01*
X0011352Y0013930D01*
X0010942Y0013693D01*
X0010607Y0013358D01*
X0010370Y0012948D01*
X0010247Y0012490D01*
X0010247Y0009484D01*
X0010247Y0010490D02*
X0007650Y0010490D01*
X0007650Y0012088D02*
X0010247Y0012088D01*
X0010936Y0013687D02*
X0007650Y0013687D01*
X0007650Y0015285D02*
X0012440Y0015285D01*
X0012509Y0015235D02*
X0011904Y0015675D01*
X0011375Y0016204D01*
X0010935Y0016809D01*
X0010595Y0017476D01*
X0010364Y0018187D01*
X0010247Y0018926D01*
X0010247Y0019116D01*
X0014816Y0019116D01*
X0014816Y0014547D01*
X0014626Y0014547D01*
X0013887Y0014664D01*
X0013176Y0014895D01*
X0012509Y0015235D01*
X0010897Y0016884D02*
X0007650Y0016884D01*
X0007650Y0018482D02*
X0010318Y0018482D01*
X0010247Y0019484D02*
X0014816Y0019484D01*
X0014816Y0024053D01*
X0014626Y0024053D01*
X0013887Y0023936D01*
X0013176Y0023705D01*
X0012509Y0023365D01*
X0011904Y0022925D01*
X0011375Y0022396D01*
X0010935Y0021791D01*
X0010595Y0021124D01*
X0010364Y0020413D01*
X0010247Y0019674D01*
X0010247Y0019484D01*
X0010312Y0020081D02*
X0007650Y0020081D01*
X0007650Y0021679D02*
X0010878Y0021679D01*
X0012389Y0023278D02*
X0007650Y0023278D01*
X0007650Y0024876D02*
X0028834Y0024876D01*
X0030432Y0026475D02*
X0007650Y0026475D01*
X0007650Y0028073D02*
X0032031Y0028073D01*
X0033629Y0029672D02*
X0007650Y0029672D01*
X0007650Y0031270D02*
X0035228Y0031270D01*
X0035346Y0032869D02*
X0007650Y0032869D01*
X0007650Y0034467D02*
X0035346Y0034467D01*
X0031838Y0036066D02*
X0031469Y0036066D01*
X0031469Y0037664D02*
X0031838Y0037664D01*
X0031469Y0039263D02*
X0022949Y0039263D01*
X0022950Y0038926D02*
X0018750Y0038926D01*
X0018750Y0038926D01*
X0018750Y0038926D01*
X0018750Y0034726D01*
X0019081Y0034726D01*
X0019734Y0034829D01*
X0020362Y0035034D01*
X0020951Y0035334D01*
X0021486Y0035722D01*
X0021954Y0036190D01*
X0022342Y0036725D01*
X0022642Y0037314D01*
X0022847Y0037942D01*
X0022950Y0038595D01*
X0022950Y0038926D01*
X0022756Y0037664D02*
X0027885Y0037664D01*
X0028224Y0036066D02*
X0021829Y0036066D01*
X0018750Y0036066D02*
X0018750Y0036066D01*
X0018750Y0034726D02*
X0018419Y0034726D01*
X0017766Y0034829D01*
X0017138Y0035034D01*
X0016549Y0035334D01*
X0016014Y0035722D01*
X0015546Y0036190D01*
X0015158Y0036725D01*
X0014858Y0037314D01*
X0014653Y0037942D01*
X0014550Y0038595D01*
X0014550Y0038926D01*
X0018750Y0038926D01*
X0018750Y0038926D01*
X0018750Y0034726D01*
X0018750Y0037664D02*
X0018750Y0037664D01*
X0015671Y0036066D02*
X0007650Y0036066D01*
X0007650Y0037664D02*
X0014744Y0037664D01*
X0014551Y0039263D02*
X0007650Y0039263D01*
X0007650Y0040861D02*
X0015022Y0040861D01*
X0016468Y0042460D02*
X0007650Y0042460D01*
X0007650Y0044058D02*
X0014703Y0044058D01*
X0014028Y0045657D02*
X0007650Y0045657D01*
X0007650Y0047255D02*
X0013950Y0047255D01*
X0014405Y0048854D02*
X0007650Y0048854D01*
X0007650Y0050452D02*
X0014778Y0050452D01*
X0013950Y0052051D02*
X0007650Y0052051D01*
X0007650Y0053649D02*
X0013950Y0053649D01*
X0013950Y0055248D02*
X0007650Y0055248D01*
X0007650Y0056846D02*
X0013950Y0056846D01*
X0014327Y0058445D02*
X0007650Y0058445D01*
X0007650Y0060043D02*
X0035155Y0060043D01*
X0036754Y0058445D02*
X0023173Y0058445D01*
X0030360Y0064839D02*
X0007650Y0064839D01*
X0007650Y0066437D02*
X0013083Y0066437D01*
X0010913Y0068036D02*
X0007650Y0068036D01*
X0007650Y0069634D02*
X0009314Y0069634D01*
X0007716Y0071233D02*
X0007650Y0071233D01*
X0007650Y0063240D02*
X0031958Y0063240D01*
X0033557Y0061642D02*
X0007650Y0061642D01*
X0021032Y0042460D02*
X0028181Y0042460D01*
X0027885Y0040861D02*
X0022478Y0040861D01*
X0021408Y0023278D02*
X0017611Y0023278D01*
X0019122Y0021679D02*
X0020192Y0021679D01*
X0020207Y0016884D02*
X0019103Y0016884D01*
X0017560Y0015285D02*
X0021445Y0015285D01*
X0021817Y0013687D02*
X0019064Y0013687D01*
X0019753Y0012088D02*
X0020361Y0012088D01*
X0020038Y0007293D02*
X0019753Y0007293D01*
X0019641Y0005694D02*
X0021036Y0005694D01*
X0015184Y0005694D02*
X0014816Y0005694D01*
X0014816Y0007293D02*
X0015184Y0007293D01*
X0015184Y0008891D02*
X0014816Y0008891D01*
X0014816Y0010490D02*
X0015184Y0010490D01*
X0015184Y0012088D02*
X0014816Y0012088D01*
X0014816Y0013687D02*
X0015184Y0013687D01*
X0015184Y0015285D02*
X0014816Y0015285D01*
X0014816Y0016884D02*
X0015184Y0016884D01*
X0015184Y0018482D02*
X0014816Y0018482D01*
X0014816Y0020081D02*
X0015184Y0020081D01*
X0015184Y0021679D02*
X0014816Y0021679D01*
X0014816Y0023278D02*
X0015184Y0023278D01*
X0059350Y0059051D02*
X0026643Y0091758D01*
X0025700Y0092149D01*
X0027458Y0093907D01*
X0027900Y0094973D01*
X0027900Y0133627D01*
X0027458Y0134693D01*
X0026643Y0135508D01*
X0023550Y0138601D01*
X0023550Y0139999D01*
X0027458Y0143907D01*
X0027900Y0144973D01*
X0027900Y0146127D01*
X0027900Y0170599D01*
X0031801Y0174500D01*
X0033199Y0174500D01*
X0038357Y0169341D01*
X0039423Y0168900D01*
X0076827Y0168900D01*
X0077893Y0169341D01*
X0078708Y0170157D01*
X0083051Y0174500D01*
X0084449Y0174500D01*
X0089607Y0169341D01*
X0090673Y0168900D01*
X0130577Y0168900D01*
X0131643Y0169341D01*
X0132458Y0170157D01*
X0136801Y0174500D01*
X0138455Y0174500D01*
X0140219Y0175231D01*
X0141569Y0176581D01*
X0141783Y0177097D01*
X0142170Y0176564D01*
X0142638Y0176096D01*
X0143173Y0175708D01*
X0143762Y0175408D01*
X0144391Y0175203D01*
X0145043Y0175100D01*
X0145374Y0175100D01*
X0145705Y0175100D01*
X0146358Y0175203D01*
X0146986Y0175408D01*
X0147575Y0175708D01*
X0148110Y0176096D01*
X0148448Y0176434D01*
X0148448Y0176423D01*
X0148813Y0175541D01*
X0149489Y0174865D01*
X0150371Y0174500D01*
X0156125Y0174500D01*
X0157008Y0174865D01*
X0157683Y0175541D01*
X0158048Y0176423D01*
X0158048Y0182177D01*
X0157683Y0183059D01*
X0157017Y0183725D01*
X0160241Y0186950D01*
X0168856Y0186950D01*
X0168800Y0186742D01*
X0168800Y0182161D01*
X0172975Y0182161D01*
X0172975Y0180612D01*
X0168800Y0180612D01*
X0168800Y0176032D01*
X0168923Y0175574D01*
X0169160Y0175163D01*
X0169495Y0174828D01*
X0169855Y0174620D01*
X0169241Y0174366D01*
X0168566Y0173691D01*
X0168200Y0172809D01*
X0168200Y0169950D01*
X0141625Y0169950D01*
X0140008Y0169280D01*
X0138770Y0168042D01*
X0123177Y0152450D01*
X0107487Y0152450D01*
X0107309Y0152628D01*
X0105324Y0153450D01*
X0097176Y0153450D01*
X0095191Y0152628D01*
X0093672Y0151109D01*
X0092850Y0149124D01*
X0092850Y0146976D01*
X0093672Y0144991D01*
X0095191Y0143472D01*
X0097043Y0142705D01*
X0096407Y0142498D01*
X0095734Y0142155D01*
X0095123Y0141711D01*
X0094589Y0141177D01*
X0094145Y0140566D01*
X0093802Y0139893D01*
X0093568Y0139174D01*
X0093450Y0138428D01*
X0093450Y0138250D01*
X0101050Y0138250D01*
X0101050Y0137850D01*
X0093450Y0137850D01*
X0093450Y0137672D01*
X0093568Y0136926D01*
X0093802Y0136207D01*
X0094145Y0135534D01*
X0094589Y0134923D01*
X0095123Y0134389D01*
X0095734Y0133945D01*
X0096407Y0133602D01*
X0097043Y0133395D01*
X0095191Y0132628D01*
X0095013Y0132450D01*
X0090375Y0132450D01*
X0088758Y0131780D01*
X0087520Y0130542D01*
X0066270Y0109292D01*
X0065600Y0107675D01*
X0065600Y0076123D01*
X0061258Y0071780D01*
X0061258Y0071780D01*
X0060020Y0070542D01*
X0059350Y0068925D01*
X0059350Y0059051D01*
X0059350Y0060043D02*
X0058358Y0060043D01*
X0059350Y0061642D02*
X0056759Y0061642D01*
X0055161Y0063240D02*
X0059350Y0063240D01*
X0059350Y0064839D02*
X0053562Y0064839D01*
X0051964Y0066437D02*
X0059350Y0066437D01*
X0059350Y0068036D02*
X0050365Y0068036D01*
X0048767Y0069634D02*
X0059644Y0069634D01*
X0060710Y0071233D02*
X0047168Y0071233D01*
X0047176Y0072650D02*
X0055324Y0072650D01*
X0057309Y0073472D01*
X0058828Y0074991D01*
X0059650Y0076976D01*
X0059650Y0079124D01*
X0058828Y0081109D01*
X0057309Y0082628D01*
X0056290Y0083050D01*
X0057309Y0083472D01*
X0058828Y0084991D01*
X0059650Y0086976D01*
X0059650Y0089124D01*
X0058828Y0091109D01*
X0057309Y0092628D01*
X0056290Y0093050D01*
X0057309Y0093472D01*
X0058828Y0094991D01*
X0059650Y0096976D01*
X0059650Y0099124D01*
X0058828Y0101109D01*
X0057309Y0102628D01*
X0056290Y0103050D01*
X0057309Y0103472D01*
X0058828Y0104991D01*
X0059650Y0106976D01*
X0059650Y0109124D01*
X0058828Y0111109D01*
X0057309Y0112628D01*
X0056290Y0113050D01*
X0057309Y0113472D01*
X0058828Y0114991D01*
X0059650Y0116976D01*
X0059650Y0119124D01*
X0058828Y0121109D01*
X0057309Y0122628D01*
X0056290Y0123050D01*
X0057309Y0123472D01*
X0058828Y0124991D01*
X0059650Y0126976D01*
X0059650Y0129124D01*
X0058828Y0131109D01*
X0057309Y0132628D01*
X0056290Y0133050D01*
X0057309Y0133472D01*
X0058828Y0134991D01*
X0059650Y0136976D01*
X0059650Y0139124D01*
X0058828Y0141109D01*
X0057309Y0142628D01*
X0056290Y0143050D01*
X0057309Y0143472D01*
X0058828Y0144991D01*
X0059650Y0146976D01*
X0059650Y0149124D01*
X0058828Y0151109D01*
X0057309Y0152628D01*
X0055324Y0153450D01*
X0047176Y0153450D01*
X0045191Y0152628D01*
X0043672Y0151109D01*
X0042850Y0149124D01*
X0042850Y0146976D01*
X0043672Y0144991D01*
X0045191Y0143472D01*
X0046210Y0143050D01*
X0045191Y0142628D01*
X0043672Y0141109D01*
X0042850Y0139124D01*
X0042850Y0136976D01*
X0043672Y0134991D01*
X0045191Y0133472D01*
X0046210Y0133050D01*
X0045191Y0132628D01*
X0043672Y0131109D01*
X0042850Y0129124D01*
X0042850Y0126976D01*
X0043672Y0124991D01*
X0045191Y0123472D01*
X0046210Y0123050D01*
X0045191Y0122628D01*
X0043672Y0121109D01*
X0042850Y0119124D01*
X0042850Y0116976D01*
X0043672Y0114991D01*
X0045191Y0113472D01*
X0046210Y0113050D01*
X0045191Y0112628D01*
X0043672Y0111109D01*
X0042850Y0109124D01*
X0042850Y0106976D01*
X0043672Y0104991D01*
X0045191Y0103472D01*
X0046210Y0103050D01*
X0045191Y0102628D01*
X0043672Y0101109D01*
X0042850Y0099124D01*
X0042850Y0096976D01*
X0043672Y0094991D01*
X0045191Y0093472D01*
X0046210Y0093050D01*
X0045191Y0092628D01*
X0043672Y0091109D01*
X0042850Y0089124D01*
X0042850Y0086976D01*
X0043672Y0084991D01*
X0045191Y0083472D01*
X0046210Y0083050D01*
X0045191Y0082628D01*
X0043672Y0081109D01*
X0042850Y0079124D01*
X0042850Y0076976D01*
X0043672Y0074991D01*
X0045191Y0073472D01*
X0047176Y0072650D01*
X0046738Y0072832D02*
X0045570Y0072832D01*
X0044233Y0074430D02*
X0043971Y0074430D01*
X0043242Y0076029D02*
X0042373Y0076029D01*
X0042850Y0077627D02*
X0040774Y0077627D01*
X0039176Y0079226D02*
X0042892Y0079226D01*
X0043554Y0080824D02*
X0037577Y0080824D01*
X0035979Y0082423D02*
X0044986Y0082423D01*
X0044642Y0084021D02*
X0034380Y0084021D01*
X0032782Y0085620D02*
X0043412Y0085620D01*
X0042850Y0087218D02*
X0031183Y0087218D01*
X0029585Y0088817D02*
X0042850Y0088817D01*
X0043385Y0090415D02*
X0027986Y0090415D01*
X0026027Y0092014D02*
X0044577Y0092014D01*
X0045051Y0093612D02*
X0027163Y0093612D01*
X0027900Y0095211D02*
X0043581Y0095211D01*
X0042919Y0096809D02*
X0027900Y0096809D01*
X0027900Y0098408D02*
X0042850Y0098408D01*
X0043215Y0100006D02*
X0027900Y0100006D01*
X0027900Y0101605D02*
X0044168Y0101605D01*
X0045840Y0103203D02*
X0027900Y0103203D01*
X0027900Y0104802D02*
X0043861Y0104802D01*
X0043088Y0106400D02*
X0027900Y0106400D01*
X0027900Y0107999D02*
X0042850Y0107999D01*
X0043046Y0109597D02*
X0027900Y0109597D01*
X0027900Y0111196D02*
X0043759Y0111196D01*
X0045593Y0112794D02*
X0027900Y0112794D01*
X0027900Y0114393D02*
X0044270Y0114393D01*
X0043258Y0115991D02*
X0027900Y0115991D01*
X0027900Y0117590D02*
X0042850Y0117590D01*
X0042877Y0119188D02*
X0027900Y0119188D01*
X0027900Y0120787D02*
X0043539Y0120787D01*
X0044949Y0122385D02*
X0027900Y0122385D01*
X0027900Y0123984D02*
X0044679Y0123984D01*
X0043427Y0125582D02*
X0027900Y0125582D01*
X0027900Y0127181D02*
X0042850Y0127181D01*
X0042850Y0128779D02*
X0027900Y0128779D01*
X0027900Y0130378D02*
X0043369Y0130378D01*
X0044540Y0131976D02*
X0027900Y0131976D01*
X0027900Y0133575D02*
X0045088Y0133575D01*
X0043597Y0135173D02*
X0026978Y0135173D01*
X0025379Y0136772D02*
X0042934Y0136772D01*
X0042850Y0138370D02*
X0023781Y0138370D01*
X0023550Y0139969D02*
X0043200Y0139969D01*
X0044131Y0141568D02*
X0025119Y0141568D01*
X0026717Y0143166D02*
X0045930Y0143166D01*
X0043899Y0144765D02*
X0027814Y0144765D01*
X0027900Y0146363D02*
X0043104Y0146363D01*
X0042850Y0147962D02*
X0027900Y0147962D01*
X0027900Y0149560D02*
X0043031Y0149560D01*
X0043722Y0151159D02*
X0027900Y0151159D01*
X0027900Y0152757D02*
X0045503Y0152757D01*
X0056997Y0152757D02*
X0095503Y0152757D01*
X0093722Y0151159D02*
X0058778Y0151159D01*
X0059469Y0149560D02*
X0093031Y0149560D01*
X0092850Y0147962D02*
X0059650Y0147962D01*
X0059396Y0146363D02*
X0093104Y0146363D01*
X0093899Y0144765D02*
X0058601Y0144765D01*
X0056570Y0143166D02*
X0095930Y0143166D01*
X0094979Y0141568D02*
X0058369Y0141568D01*
X0059300Y0139969D02*
X0093841Y0139969D01*
X0093450Y0138370D02*
X0059650Y0138370D01*
X0059566Y0136772D02*
X0093618Y0136772D01*
X0094407Y0135173D02*
X0058903Y0135173D01*
X0057412Y0133575D02*
X0096490Y0133575D01*
X0101450Y0137850D02*
X0101450Y0138250D01*
X0109050Y0138250D01*
X0109050Y0138428D01*
X0108932Y0139174D01*
X0108698Y0139893D01*
X0108355Y0140566D01*
X0107911Y0141177D01*
X0107377Y0141711D01*
X0106766Y0142155D01*
X0106093Y0142498D01*
X0105457Y0142705D01*
X0107309Y0143472D01*
X0107487Y0143650D01*
X0119204Y0143650D01*
X0118763Y0143209D01*
X0118397Y0142327D01*
X0118397Y0136254D01*
X0118689Y0135550D01*
X0118397Y0134846D01*
X0118397Y0128773D01*
X0118763Y0127891D01*
X0119438Y0127216D01*
X0120320Y0126851D01*
X0120850Y0126851D01*
X0120850Y0119973D01*
X0121291Y0118907D01*
X0128881Y0111318D01*
X0128672Y0111109D01*
X0127850Y0109124D01*
X0127850Y0106976D01*
X0128672Y0104991D01*
X0130191Y0103472D01*
X0131210Y0103050D01*
X0130191Y0102628D01*
X0128672Y0101109D01*
X0127850Y0099124D01*
X0127850Y0096976D01*
X0128672Y0094991D01*
X0130191Y0093472D01*
X0131210Y0093050D01*
X0130191Y0092628D01*
X0128672Y0091109D01*
X0127850Y0089124D01*
X0127850Y0086976D01*
X0128672Y0084991D01*
X0130191Y0083472D01*
X0131210Y0083050D01*
X0130191Y0082628D01*
X0128672Y0081109D01*
X0127850Y0079124D01*
X0127850Y0076976D01*
X0128672Y0074991D01*
X0130191Y0073472D01*
X0132176Y0072650D01*
X0140324Y0072650D01*
X0142309Y0073472D01*
X0143828Y0074991D01*
X0144350Y0076252D01*
X0144350Y0050925D01*
X0145020Y0049308D01*
X0146258Y0048070D01*
X0150913Y0043414D01*
X0150943Y0043402D01*
X0151204Y0042773D01*
X0151879Y0042098D01*
X0152761Y0041733D01*
X0159739Y0041733D01*
X0160621Y0042098D01*
X0161296Y0042773D01*
X0161662Y0043655D01*
X0161662Y0050634D01*
X0161296Y0051516D01*
X0160621Y0052191D01*
X0159739Y0052556D01*
X0154216Y0052556D01*
X0153150Y0053623D01*
X0153150Y0054402D01*
X0153184Y0054368D01*
X0155174Y0053544D01*
X0157326Y0053544D01*
X0159316Y0054368D01*
X0160838Y0055890D01*
X0161662Y0057879D01*
X0161662Y0060032D01*
X0160838Y0062021D01*
X0160650Y0062209D01*
X0160650Y0093727D01*
X0163661Y0096738D01*
X0163661Y0062209D01*
X0163473Y0062021D01*
X0162649Y0060032D01*
X0162649Y0057879D01*
X0163473Y0055890D01*
X0164995Y0054368D01*
X0166985Y0053544D01*
X0169138Y0053544D01*
X0170600Y0054149D01*
X0170600Y0051950D01*
X0169138Y0052556D01*
X0166985Y0052556D01*
X0164995Y0051732D01*
X0163473Y0050210D01*
X0162649Y0048221D01*
X0162649Y0046068D01*
X0163473Y0044079D01*
X0164995Y0042557D01*
X0166985Y0041733D01*
X0169138Y0041733D01*
X0171127Y0042557D01*
X0171314Y0042744D01*
X0173720Y0042744D01*
X0175337Y0043414D01*
X0177492Y0045570D01*
X0178730Y0046808D01*
X0179400Y0048425D01*
X0179400Y0075183D01*
X0179589Y0074923D01*
X0180123Y0074389D01*
X0180734Y0073945D01*
X0181407Y0073602D01*
X0182126Y0073368D01*
X0182872Y0073250D01*
X0186050Y0073250D01*
X0186050Y0077850D01*
X0186450Y0077850D01*
X0186450Y0078250D01*
X0194050Y0078250D01*
X0194050Y0078428D01*
X0193932Y0079174D01*
X0193698Y0079893D01*
X0193355Y0080566D01*
X0192911Y0081177D01*
X0192377Y0081711D01*
X0191766Y0082155D01*
X0191093Y0082498D01*
X0190457Y0082705D01*
X0192309Y0083472D01*
X0193828Y0084991D01*
X0194650Y0086976D01*
X0194650Y0089124D01*
X0193828Y0091109D01*
X0192309Y0092628D01*
X0191290Y0093050D01*
X0192309Y0093472D01*
X0193828Y0094991D01*
X0194650Y0096976D01*
X0194650Y0099124D01*
X0193828Y0101109D01*
X0192309Y0102628D01*
X0191290Y0103050D01*
X0192309Y0103472D01*
X0193828Y0104991D01*
X0194650Y0106976D01*
X0194650Y0109124D01*
X0193828Y0111109D01*
X0192309Y0112628D01*
X0191290Y0113050D01*
X0192309Y0113472D01*
X0193828Y0114991D01*
X0194650Y0116976D01*
X0194650Y0119124D01*
X0193828Y0121109D01*
X0192309Y0122628D01*
X0191290Y0123050D01*
X0192309Y0123472D01*
X0193828Y0124991D01*
X0194650Y0126976D01*
X0194650Y0129124D01*
X0193828Y0131109D01*
X0192309Y0132628D01*
X0190457Y0133395D01*
X0191093Y0133602D01*
X0191766Y0133945D01*
X0192377Y0134389D01*
X0192911Y0134923D01*
X0193355Y0135534D01*
X0193698Y0136207D01*
X0193932Y0136926D01*
X0194050Y0137672D01*
X0194050Y0137850D01*
X0186450Y0137850D01*
X0186450Y0138250D01*
X0194050Y0138250D01*
X0194050Y0138428D01*
X0193932Y0139174D01*
X0193698Y0139893D01*
X0193355Y0140566D01*
X0192911Y0141177D01*
X0192377Y0141711D01*
X0191766Y0142155D01*
X0191093Y0142498D01*
X0190457Y0142705D01*
X0192309Y0143472D01*
X0193828Y0144991D01*
X0194650Y0146976D01*
X0194650Y0149124D01*
X0193828Y0151109D01*
X0192805Y0152132D01*
X0194992Y0154320D01*
X0196230Y0155558D01*
X0196900Y0157175D01*
X0196900Y0160015D01*
X0197009Y0160061D01*
X0197684Y0160736D01*
X0198050Y0161618D01*
X0198050Y0172809D01*
X0197684Y0173691D01*
X0197009Y0174366D01*
X0196395Y0174620D01*
X0196755Y0174828D01*
X0197090Y0175163D01*
X0197327Y0175574D01*
X0197450Y0176032D01*
X0197450Y0180612D01*
X0193275Y0180612D01*
X0193275Y0182161D01*
X0197450Y0182161D01*
X0197450Y0186742D01*
X0197394Y0186950D01*
X0217259Y0186950D01*
X0222650Y0181559D01*
X0222650Y0164254D01*
X0221574Y0164700D01*
X0213426Y0164700D01*
X0211441Y0163878D01*
X0209922Y0162359D01*
X0209100Y0160374D01*
X0209100Y0158226D01*
X0209922Y0156241D01*
X0211441Y0154722D01*
X0212460Y0154300D01*
X0211441Y0153878D01*
X0209922Y0152359D01*
X0209100Y0150374D01*
X0209100Y0148226D01*
X0209922Y0146241D01*
X0211441Y0144722D01*
X0212460Y0144300D01*
X0211441Y0143878D01*
X0209922Y0142359D01*
X0209100Y0140374D01*
X0209100Y0138226D01*
X0209922Y0136241D01*
X0211441Y0134722D01*
X0213293Y0133955D01*
X0212657Y0133748D01*
X0211984Y0133405D01*
X0211373Y0132961D01*
X0210839Y0132427D01*
X0210395Y0131816D01*
X0210052Y0131143D01*
X0209818Y0130424D01*
X0209700Y0129678D01*
X0209700Y0129500D01*
X0217300Y0129500D01*
X0217300Y0129100D01*
X0209700Y0129100D01*
X0209700Y0128922D01*
X0209818Y0128176D01*
X0210052Y0127457D01*
X0210395Y0126784D01*
X0210839Y0126173D01*
X0211373Y0125639D01*
X0211984Y0125195D01*
X0212657Y0124852D01*
X0213293Y0124645D01*
X0211441Y0123878D01*
X0209922Y0122359D01*
X0209100Y0120374D01*
X0209100Y0118226D01*
X0209922Y0116241D01*
X0211441Y0114722D01*
X0213426Y0113900D01*
X0221574Y0113900D01*
X0223559Y0114722D01*
X0225078Y0116241D01*
X0225900Y0118226D01*
X0225900Y0120374D01*
X0225593Y0121116D01*
X0230150Y0116559D01*
X0230150Y0111120D01*
X0228688Y0111120D01*
X0228688Y0104681D01*
X0228320Y0104681D01*
X0228320Y0111120D01*
X0226298Y0111120D01*
X0225841Y0110997D01*
X0225430Y0110760D01*
X0225095Y0110425D01*
X0224858Y0110014D01*
X0224735Y0109557D01*
X0224735Y0104681D01*
X0228320Y0104681D01*
X0228320Y0104313D01*
X0224735Y0104313D01*
X0224735Y0102960D01*
X0214168Y0102960D01*
X0213286Y0102594D01*
X0212611Y0101919D01*
X0212246Y0101037D01*
X0212246Y0096145D01*
X0212374Y0095835D01*
X0212246Y0095525D01*
X0212246Y0090634D01*
X0212374Y0090324D01*
X0212246Y0090014D01*
X0212246Y0085122D01*
X0212374Y0084812D01*
X0212246Y0084502D01*
X0212246Y0079610D01*
X0212374Y0079300D01*
X0212246Y0078990D01*
X0212246Y0074098D01*
X0212374Y0073788D01*
X0212246Y0073478D01*
X0212246Y0068586D01*
X0212374Y0068276D01*
X0212246Y0067966D01*
X0212246Y0063075D01*
X0212611Y0062192D01*
X0212846Y0061958D01*
X0212846Y0060193D01*
X0219284Y0060193D01*
X0219284Y0059824D01*
X0219653Y0059824D01*
X0219653Y0056240D01*
X0224135Y0056240D01*
X0224135Y0048928D01*
X0217507Y0042300D01*
X0188750Y0042300D01*
X0188453Y0042597D01*
X0187024Y0043189D01*
X0185476Y0043189D01*
X0184047Y0042597D01*
X0182953Y0041503D01*
X0182361Y0040074D01*
X0182361Y0038550D01*
X0181250Y0038550D01*
X0180953Y0038847D01*
X0179524Y0039439D01*
X0177976Y0039439D01*
X0176547Y0038847D01*
X0175453Y0037753D01*
X0174861Y0036324D01*
X0174861Y0034776D01*
X0175453Y0033347D01*
X0176547Y0032253D01*
X0177641Y0031800D01*
X0176547Y0031347D01*
X0175453Y0030253D01*
X0174861Y0028824D01*
X0174861Y0027276D01*
X0175453Y0025847D01*
X0176547Y0024753D01*
X0177976Y0024161D01*
X0179524Y0024161D01*
X0180953Y0024753D01*
X0181250Y0025050D01*
X0220257Y0025050D01*
X0218539Y0023331D01*
X0218032Y0023838D01*
X0216065Y0024653D01*
X0213935Y0024653D01*
X0211968Y0023838D01*
X0210462Y0022332D01*
X0210000Y0021216D01*
X0209538Y0022332D01*
X0208032Y0023838D01*
X0206065Y0024653D01*
X0203935Y0024653D01*
X0201968Y0023838D01*
X0200462Y0022332D01*
X0200000Y0021216D01*
X0199538Y0022332D01*
X0198032Y0023838D01*
X0196065Y0024653D01*
X0193935Y0024653D01*
X0191968Y0023838D01*
X0190462Y0022332D01*
X0190000Y0021216D01*
X0189538Y0022332D01*
X0188032Y0023838D01*
X0186065Y0024653D01*
X0183935Y0024653D01*
X0181968Y0023838D01*
X0180462Y0022332D01*
X0179647Y0020365D01*
X0179647Y0020340D01*
X0179636Y0020413D01*
X0179405Y0021124D01*
X0179065Y0021791D01*
X0178625Y0022396D01*
X0178096Y0022925D01*
X0177491Y0023365D01*
X0176824Y0023705D01*
X0176113Y0023936D01*
X0175374Y0024053D01*
X0175184Y0024053D01*
X0175184Y0019484D01*
X0174816Y0019484D01*
X0174816Y0024053D01*
X0174626Y0024053D01*
X0173887Y0023936D01*
X0173176Y0023705D01*
X0172509Y0023365D01*
X0171904Y0022925D01*
X0171375Y0022396D01*
X0170935Y0021791D01*
X0170595Y0021124D01*
X0170364Y0020413D01*
X0170353Y0020340D01*
X0170353Y0020365D01*
X0169538Y0022332D01*
X0168032Y0023838D01*
X0166065Y0024653D01*
X0163935Y0024653D01*
X0161968Y0023838D01*
X0160462Y0022332D01*
X0160000Y0021216D01*
X0159538Y0022332D01*
X0158032Y0023838D01*
X0156065Y0024653D01*
X0153935Y0024653D01*
X0151968Y0023838D01*
X0150462Y0022332D01*
X0150000Y0021216D01*
X0149538Y0022332D01*
X0148032Y0023838D01*
X0146065Y0024653D01*
X0143935Y0024653D01*
X0141968Y0023838D01*
X0140462Y0022332D01*
X0140000Y0021216D01*
X0139538Y0022332D01*
X0138032Y0023838D01*
X0136065Y0024653D01*
X0133935Y0024653D01*
X0131968Y0023838D01*
X0130462Y0022332D01*
X0130000Y0021216D01*
X0129538Y0022332D01*
X0128032Y0023838D01*
X0126065Y0024653D01*
X0123935Y0024653D01*
X0121968Y0023838D01*
X0120462Y0022332D01*
X0120000Y0021216D01*
X0119538Y0022332D01*
X0118032Y0023838D01*
X0116065Y0024653D01*
X0113935Y0024653D01*
X0111968Y0023838D01*
X0110462Y0022332D01*
X0110000Y0021216D01*
X0109538Y0022332D01*
X0108032Y0023838D01*
X0106065Y0024653D01*
X0103935Y0024653D01*
X0103803Y0024598D01*
X0094143Y0034258D01*
X0093077Y0034700D01*
X0074951Y0034700D01*
X0067919Y0041733D01*
X0074739Y0041733D01*
X0075621Y0042098D01*
X0076296Y0042773D01*
X0076662Y0043655D01*
X0076662Y0050634D01*
X0076296Y0051516D01*
X0075621Y0052191D01*
X0074739Y0052556D01*
X0072966Y0052556D01*
X0071979Y0053544D01*
X0072326Y0053544D01*
X0074316Y0054368D01*
X0075838Y0055890D01*
X0076662Y0057879D01*
X0076662Y0060032D01*
X0075838Y0062021D01*
X0075650Y0062209D01*
X0075650Y0063727D01*
X0078661Y0066738D01*
X0078661Y0062209D01*
X0078473Y0062021D01*
X0077649Y0060032D01*
X0077649Y0057879D01*
X0078473Y0055890D01*
X0079995Y0054368D01*
X0081985Y0053544D01*
X0084138Y0053544D01*
X0085600Y0054149D01*
X0085600Y0053623D01*
X0084418Y0052440D01*
X0084138Y0052556D01*
X0081985Y0052556D01*
X0079995Y0051732D01*
X0078473Y0050210D01*
X0077649Y0048221D01*
X0077649Y0046068D01*
X0078473Y0044079D01*
X0079995Y0042557D01*
X0081985Y0041733D01*
X0084138Y0041733D01*
X0086127Y0042557D01*
X0086381Y0042812D01*
X0087837Y0043414D01*
X0092492Y0048070D01*
X0093730Y0049308D01*
X0094400Y0050925D01*
X0094400Y0075183D01*
X0094589Y0074923D01*
X0095123Y0074389D01*
X0095734Y0073945D01*
X0096407Y0073602D01*
X0097126Y0073368D01*
X0097872Y0073250D01*
X0101050Y0073250D01*
X0101050Y0077850D01*
X0101450Y0077850D01*
X0101450Y0078250D01*
X0109050Y0078250D01*
X0109050Y0078428D01*
X0108932Y0079174D01*
X0108698Y0079893D01*
X0108355Y0080566D01*
X0107911Y0081177D01*
X0107377Y0081711D01*
X0106766Y0082155D01*
X0106093Y0082498D01*
X0105457Y0082705D01*
X0107309Y0083472D01*
X0108828Y0084991D01*
X0109650Y0086976D01*
X0109650Y0089124D01*
X0108828Y0091109D01*
X0107309Y0092628D01*
X0106290Y0093050D01*
X0107309Y0093472D01*
X0108828Y0094991D01*
X0109650Y0096976D01*
X0109650Y0099124D01*
X0108828Y0101109D01*
X0107309Y0102628D01*
X0106290Y0103050D01*
X0107309Y0103472D01*
X0108828Y0104991D01*
X0109650Y0106976D01*
X0109650Y0109124D01*
X0108828Y0111109D01*
X0107309Y0112628D01*
X0106290Y0113050D01*
X0107309Y0113472D01*
X0108828Y0114991D01*
X0109650Y0116976D01*
X0109650Y0119124D01*
X0108828Y0121109D01*
X0107309Y0122628D01*
X0106290Y0123050D01*
X0107309Y0123472D01*
X0108828Y0124991D01*
X0109650Y0126976D01*
X0109650Y0129124D01*
X0108828Y0131109D01*
X0107309Y0132628D01*
X0105457Y0133395D01*
X0106093Y0133602D01*
X0106766Y0133945D01*
X0107377Y0134389D01*
X0107911Y0134923D01*
X0108355Y0135534D01*
X0108698Y0136207D01*
X0108932Y0136926D01*
X0109050Y0137672D01*
X0109050Y0137850D01*
X0101450Y0137850D01*
X0106010Y0133575D02*
X0118397Y0133575D01*
X0118397Y0131976D02*
X0107960Y0131976D01*
X0109131Y0130378D02*
X0118397Y0130378D01*
X0118397Y0128779D02*
X0109650Y0128779D01*
X0109650Y0127181D02*
X0119523Y0127181D01*
X0120850Y0125582D02*
X0109073Y0125582D01*
X0107821Y0123984D02*
X0120850Y0123984D01*
X0120850Y0122385D02*
X0107551Y0122385D01*
X0108961Y0120787D02*
X0120850Y0120787D01*
X0121175Y0119188D02*
X0109623Y0119188D01*
X0109650Y0117590D02*
X0122609Y0117590D01*
X0124207Y0115991D02*
X0109242Y0115991D01*
X0108230Y0114393D02*
X0125806Y0114393D01*
X0127404Y0112794D02*
X0106907Y0112794D01*
X0108741Y0111196D02*
X0128759Y0111196D01*
X0128046Y0109597D02*
X0109454Y0109597D01*
X0109650Y0107999D02*
X0127850Y0107999D01*
X0128088Y0106400D02*
X0109412Y0106400D01*
X0108638Y0104802D02*
X0128861Y0104802D01*
X0130840Y0103203D02*
X0106660Y0103203D01*
X0108332Y0101605D02*
X0129168Y0101605D01*
X0128215Y0100006D02*
X0109285Y0100006D01*
X0109650Y0098408D02*
X0127850Y0098408D01*
X0127919Y0096809D02*
X0109581Y0096809D01*
X0108919Y0095211D02*
X0128581Y0095211D01*
X0130051Y0093612D02*
X0107449Y0093612D01*
X0107923Y0092014D02*
X0129577Y0092014D01*
X0128385Y0090415D02*
X0109115Y0090415D01*
X0109650Y0088817D02*
X0127850Y0088817D01*
X0127850Y0087218D02*
X0109650Y0087218D01*
X0109088Y0085620D02*
X0128412Y0085620D01*
X0129642Y0084021D02*
X0107858Y0084021D01*
X0106241Y0082423D02*
X0129986Y0082423D01*
X0128554Y0080824D02*
X0108168Y0080824D01*
X0108915Y0079226D02*
X0127892Y0079226D01*
X0127850Y0077627D02*
X0109043Y0077627D01*
X0109050Y0077672D02*
X0108932Y0076926D01*
X0108698Y0076207D01*
X0108355Y0075534D01*
X0107911Y0074923D01*
X0107377Y0074389D01*
X0106766Y0073945D01*
X0106093Y0073602D01*
X0105374Y0073368D01*
X0104628Y0073250D01*
X0101450Y0073250D01*
X0101450Y0077850D01*
X0109050Y0077850D01*
X0109050Y0077672D01*
X0108607Y0076029D02*
X0128242Y0076029D01*
X0129233Y0074430D02*
X0107418Y0074430D01*
X0101450Y0074430D02*
X0101050Y0074430D01*
X0101050Y0076029D02*
X0101450Y0076029D01*
X0101450Y0077627D02*
X0101050Y0077627D01*
X0095082Y0074430D02*
X0094400Y0074430D01*
X0094400Y0072832D02*
X0131738Y0072832D01*
X0140762Y0072832D02*
X0144350Y0072832D01*
X0144350Y0074430D02*
X0143267Y0074430D01*
X0144258Y0076029D02*
X0144350Y0076029D01*
X0144350Y0071233D02*
X0094400Y0071233D01*
X0094400Y0069634D02*
X0144350Y0069634D01*
X0144350Y0068036D02*
X0094400Y0068036D01*
X0094400Y0066437D02*
X0144350Y0066437D01*
X0144350Y0064839D02*
X0094400Y0064839D01*
X0094400Y0063240D02*
X0144350Y0063240D01*
X0144350Y0061642D02*
X0094400Y0061642D01*
X0094400Y0060043D02*
X0144350Y0060043D01*
X0144350Y0058445D02*
X0094400Y0058445D01*
X0094400Y0056846D02*
X0144350Y0056846D01*
X0144350Y0055248D02*
X0094400Y0055248D01*
X0094400Y0053649D02*
X0144350Y0053649D01*
X0144350Y0052051D02*
X0094400Y0052051D01*
X0094204Y0050452D02*
X0144546Y0050452D01*
X0145474Y0048854D02*
X0093276Y0048854D01*
X0091678Y0047255D02*
X0147072Y0047255D01*
X0148671Y0045657D02*
X0090079Y0045657D01*
X0088481Y0044058D02*
X0150269Y0044058D01*
X0151517Y0042460D02*
X0085893Y0042460D01*
X0080229Y0042460D02*
X0075983Y0042460D01*
X0076662Y0044058D02*
X0078494Y0044058D01*
X0077820Y0045657D02*
X0076662Y0045657D01*
X0076662Y0047255D02*
X0077649Y0047255D01*
X0077911Y0048854D02*
X0076662Y0048854D01*
X0076662Y0050452D02*
X0078715Y0050452D01*
X0080764Y0052051D02*
X0075761Y0052051D01*
X0075196Y0055248D02*
X0079115Y0055248D01*
X0078077Y0056846D02*
X0076234Y0056846D01*
X0076662Y0058445D02*
X0077649Y0058445D01*
X0077654Y0060043D02*
X0076657Y0060043D01*
X0075995Y0061642D02*
X0078316Y0061642D01*
X0078661Y0063240D02*
X0075650Y0063240D01*
X0076761Y0064839D02*
X0078661Y0064839D01*
X0078661Y0066437D02*
X0078360Y0066437D01*
X0081729Y0053649D02*
X0072582Y0053649D01*
X0084393Y0053649D02*
X0085600Y0053649D01*
X0068790Y0040861D02*
X0182687Y0040861D01*
X0182361Y0039263D02*
X0179949Y0039263D01*
X0177551Y0039263D02*
X0070388Y0039263D01*
X0071987Y0037664D02*
X0175416Y0037664D01*
X0174861Y0036066D02*
X0073585Y0036066D01*
X0093639Y0034467D02*
X0174989Y0034467D01*
X0175931Y0032869D02*
X0095532Y0032869D01*
X0097131Y0031270D02*
X0176470Y0031270D01*
X0175212Y0029672D02*
X0098729Y0029672D01*
X0100328Y0028073D02*
X0174861Y0028073D01*
X0175193Y0026475D02*
X0101927Y0026475D01*
X0103525Y0024876D02*
X0176424Y0024876D01*
X0177611Y0023278D02*
X0181408Y0023278D01*
X0181076Y0024876D02*
X0220084Y0024876D01*
X0227204Y0023511D02*
X0244993Y0041300D01*
X0247513Y0041300D01*
X0247407Y0041117D01*
X0247285Y0040659D01*
X0247285Y0038638D01*
X0251066Y0038638D01*
X0251066Y0038269D01*
X0251434Y0038269D01*
X0251434Y0034685D01*
X0253652Y0034685D01*
X0254110Y0034808D01*
X0254521Y0035045D01*
X0254856Y0035380D01*
X0255093Y0035790D01*
X0255215Y0036248D01*
X0255215Y0038269D01*
X0251434Y0038269D01*
X0251434Y0038638D01*
X0255215Y0038638D01*
X0255215Y0040659D01*
X0255093Y0041117D01*
X0254967Y0041335D01*
X0255450Y0041818D01*
X0255667Y0042343D01*
X0256296Y0042603D01*
X0257949Y0044257D01*
X0258793Y0045101D01*
X0259250Y0046203D01*
X0259250Y0047187D01*
X0259391Y0047246D01*
X0259626Y0047480D01*
X0261391Y0047480D01*
X0261391Y0053919D01*
X0261759Y0053919D01*
X0261759Y0054287D01*
X0266902Y0054287D01*
X0266902Y0053919D01*
X0265343Y0053919D01*
X0261759Y0053919D01*
X0261759Y0047480D01*
X0263780Y0047480D01*
X0264238Y0047603D01*
X0264331Y0047656D01*
X0264423Y0047603D01*
X0264881Y0047480D01*
X0265002Y0047480D01*
X0262037Y0044515D01*
X0259857Y0044515D01*
X0258975Y0044150D01*
X0258300Y0043474D01*
X0257935Y0042592D01*
X0257935Y0037701D01*
X0258300Y0036818D01*
X0258318Y0036800D01*
X0258300Y0036782D01*
X0257935Y0035899D01*
X0257935Y0032025D01*
X0255901Y0032025D01*
X0255018Y0031659D01*
X0254535Y0031176D01*
X0254317Y0031302D01*
X0253859Y0031425D01*
X0252047Y0031425D01*
X0250235Y0031425D01*
X0249778Y0031302D01*
X0249367Y0031065D01*
X0249032Y0030730D01*
X0248795Y0030320D01*
X0248672Y0029862D01*
X0248672Y0028050D01*
X0252047Y0028050D01*
X0252047Y0028050D01*
X0248672Y0028050D01*
X0248672Y0026238D01*
X0248795Y0025780D01*
X0248928Y0025550D01*
X0248795Y0025320D01*
X0248672Y0024862D01*
X0248672Y0023050D01*
X0252047Y0023050D01*
X0252047Y0023050D01*
X0248672Y0023050D01*
X0248672Y0021238D01*
X0248795Y0020780D01*
X0249032Y0020370D01*
X0249367Y0020035D01*
X0249778Y0019798D01*
X0250235Y0019675D01*
X0252047Y0019675D01*
X0252047Y0023050D01*
X0252047Y0026425D01*
X0252047Y0028050D01*
X0252047Y0028050D01*
X0252047Y0031425D01*
X0252047Y0028050D01*
X0252047Y0028050D01*
X0252047Y0023050D01*
X0252047Y0023050D01*
X0252047Y0023050D01*
X0252047Y0019675D01*
X0253859Y0019675D01*
X0254317Y0019798D01*
X0254535Y0019924D01*
X0255018Y0019441D01*
X0255901Y0019075D01*
X0260005Y0019075D01*
X0260887Y0019441D01*
X0261496Y0020050D01*
X0261847Y0020050D01*
X0262949Y0020507D01*
X0263793Y0021351D01*
X0270449Y0028007D01*
X0271277Y0028834D01*
X0270373Y0027060D01*
X0266005Y0021049D01*
X0260751Y0015795D01*
X0254740Y0011427D01*
X0248120Y0008054D01*
X0241054Y0005758D01*
X0237374Y0005175D01*
X0237491Y0005235D01*
X0238096Y0005675D01*
X0238625Y0006204D01*
X0239065Y0006809D01*
X0239405Y0007476D01*
X0239636Y0008187D01*
X0239753Y0008926D01*
X0239753Y0009116D01*
X0235184Y0009116D01*
X0235184Y0009484D01*
X0234816Y0009484D01*
X0234816Y0009116D01*
X0230247Y0009116D01*
X0230247Y0008926D01*
X0230364Y0008187D01*
X0230595Y0007476D01*
X0230935Y0006809D01*
X0231375Y0006204D01*
X0231904Y0005675D01*
X0232509Y0005235D01*
X0233176Y0004895D01*
X0233887Y0004664D01*
X0234017Y0004644D01*
X0233715Y0004596D01*
X0230000Y0004450D01*
X0217278Y0004450D01*
X0218032Y0004762D01*
X0219538Y0006268D01*
X0220353Y0008235D01*
X0220353Y0008260D01*
X0220364Y0008187D01*
X0220595Y0007476D01*
X0220935Y0006809D01*
X0221375Y0006204D01*
X0221904Y0005675D01*
X0222509Y0005235D01*
X0223176Y0004895D01*
X0223887Y0004664D01*
X0224626Y0004547D01*
X0224816Y0004547D01*
X0224816Y0009116D01*
X0225184Y0009116D01*
X0225184Y0004547D01*
X0225374Y0004547D01*
X0226113Y0004664D01*
X0226824Y0004895D01*
X0227491Y0005235D01*
X0228096Y0005675D01*
X0228625Y0006204D01*
X0229065Y0006809D01*
X0229405Y0007476D01*
X0229636Y0008187D01*
X0229753Y0008926D01*
X0229753Y0009116D01*
X0225184Y0009116D01*
X0225184Y0009484D01*
X0224816Y0009484D01*
X0224816Y0014053D01*
X0224626Y0014053D01*
X0223887Y0013936D01*
X0223176Y0013705D01*
X0222954Y0013591D01*
X0223000Y0013703D01*
X0223000Y0014985D01*
X0223176Y0014895D01*
X0223887Y0014664D01*
X0224626Y0014547D01*
X0224816Y0014547D01*
X0224816Y0019116D01*
X0225184Y0019116D01*
X0225184Y0014547D01*
X0225374Y0014547D01*
X0226113Y0014664D01*
X0226824Y0014895D01*
X0227491Y0015235D01*
X0228096Y0015675D01*
X0228625Y0016204D01*
X0229065Y0016809D01*
X0229405Y0017476D01*
X0229636Y0018187D01*
X0229753Y0018926D01*
X0229753Y0019116D01*
X0225184Y0019116D01*
X0225184Y0019484D01*
X0229753Y0019484D01*
X0229753Y0019674D01*
X0229636Y0020413D01*
X0229405Y0021124D01*
X0229065Y0021791D01*
X0228625Y0022396D01*
X0228096Y0022925D01*
X0227491Y0023365D01*
X0227204Y0023511D01*
X0227611Y0023278D02*
X0232389Y0023278D01*
X0232509Y0023365D02*
X0231904Y0022925D01*
X0231375Y0022396D01*
X0230935Y0021791D01*
X0230595Y0021124D01*
X0230364Y0020413D01*
X0230247Y0019674D01*
X0230247Y0019484D01*
X0234816Y0019484D01*
X0234816Y0019116D01*
X0235184Y0019116D01*
X0235184Y0014547D01*
X0235374Y0014547D01*
X0236113Y0014664D01*
X0236824Y0014895D01*
X0237491Y0015235D01*
X0238096Y0015675D01*
X0238625Y0016204D01*
X0239065Y0016809D01*
X0239405Y0017476D01*
X0239636Y0018187D01*
X0239753Y0018926D01*
X0239753Y0019116D01*
X0235184Y0019116D01*
X0235184Y0019484D01*
X0239753Y0019484D01*
X0239753Y0019674D01*
X0239636Y0020413D01*
X0239405Y0021124D01*
X0239065Y0021791D01*
X0238625Y0022396D01*
X0238096Y0022925D01*
X0237491Y0023365D01*
X0236824Y0023705D01*
X0236113Y0023936D01*
X0235374Y0024053D01*
X0235184Y0024053D01*
X0235184Y0019484D01*
X0234816Y0019484D01*
X0234816Y0024053D01*
X0234626Y0024053D01*
X0233887Y0023936D01*
X0233176Y0023705D01*
X0232509Y0023365D01*
X0234816Y0023278D02*
X0235184Y0023278D01*
X0235184Y0021679D02*
X0234816Y0021679D01*
X0234816Y0020081D02*
X0235184Y0020081D01*
X0234816Y0019116D02*
X0230247Y0019116D01*
X0230247Y0018926D01*
X0230364Y0018187D01*
X0230595Y0017476D01*
X0230935Y0016809D01*
X0231375Y0016204D01*
X0231904Y0015675D01*
X0232509Y0015235D01*
X0233176Y0014895D01*
X0233887Y0014664D01*
X0234626Y0014547D01*
X0234816Y0014547D01*
X0234816Y0019116D01*
X0234816Y0018482D02*
X0235184Y0018482D01*
X0235184Y0016884D02*
X0234816Y0016884D01*
X0234816Y0015285D02*
X0235184Y0015285D01*
X0235184Y0014053D02*
X0235184Y0009484D01*
X0239753Y0009484D01*
X0239753Y0009674D01*
X0239636Y0010413D01*
X0239405Y0011124D01*
X0239065Y0011791D01*
X0238625Y0012396D01*
X0238096Y0012925D01*
X0237491Y0013365D01*
X0236824Y0013705D01*
X0236113Y0013936D01*
X0235374Y0014053D01*
X0235184Y0014053D01*
X0235184Y0013687D02*
X0234816Y0013687D01*
X0234816Y0014053D02*
X0234626Y0014053D01*
X0233887Y0013936D01*
X0233176Y0013705D01*
X0232509Y0013365D01*
X0231904Y0012925D01*
X0231375Y0012396D01*
X0230935Y0011791D01*
X0230595Y0011124D01*
X0230364Y0010413D01*
X0230247Y0009674D01*
X0230247Y0009484D01*
X0234816Y0009484D01*
X0234816Y0014053D01*
X0233140Y0013687D02*
X0226860Y0013687D01*
X0226824Y0013705D02*
X0226113Y0013936D01*
X0225374Y0014053D01*
X0225184Y0014053D01*
X0225184Y0009484D01*
X0229753Y0009484D01*
X0229753Y0009674D01*
X0229636Y0010413D01*
X0229405Y0011124D01*
X0229065Y0011791D01*
X0228625Y0012396D01*
X0228096Y0012925D01*
X0227491Y0013365D01*
X0226824Y0013705D01*
X0225184Y0013687D02*
X0224816Y0013687D01*
X0224816Y0015285D02*
X0225184Y0015285D01*
X0225184Y0016884D02*
X0224816Y0016884D01*
X0224816Y0018482D02*
X0225184Y0018482D01*
X0229103Y0016884D02*
X0230897Y0016884D01*
X0230318Y0018482D02*
X0229682Y0018482D01*
X0229688Y0020081D02*
X0230312Y0020081D01*
X0230878Y0021679D02*
X0229122Y0021679D01*
X0228569Y0024876D02*
X0248676Y0024876D01*
X0248672Y0023278D02*
X0237611Y0023278D01*
X0239122Y0021679D02*
X0248672Y0021679D01*
X0249321Y0020081D02*
X0239688Y0020081D01*
X0239682Y0018482D02*
X0263439Y0018482D01*
X0261921Y0020081D02*
X0265037Y0020081D01*
X0264122Y0021679D02*
X0266463Y0021679D01*
X0265720Y0023278D02*
X0267625Y0023278D01*
X0267319Y0024876D02*
X0268786Y0024876D01*
X0268917Y0026475D02*
X0269948Y0026475D01*
X0270516Y0028073D02*
X0270889Y0028073D01*
X0273315Y0032835D02*
X0273315Y0035899D01*
X0272950Y0036782D01*
X0272931Y0036800D01*
X0272950Y0036818D01*
X0273315Y0037701D01*
X0273315Y0042592D01*
X0272950Y0043474D01*
X0272635Y0043789D01*
X0274169Y0045323D01*
X0275013Y0046167D01*
X0275469Y0047269D01*
X0275469Y0064927D01*
X0275013Y0066030D01*
X0257543Y0083499D01*
X0256699Y0084343D01*
X0255597Y0084800D01*
X0226568Y0084800D01*
X0226563Y0084812D01*
X0226691Y0085122D01*
X0226691Y0090014D01*
X0226563Y0090324D01*
X0226691Y0090634D01*
X0226691Y0095525D01*
X0226563Y0095835D01*
X0226691Y0096145D01*
X0226691Y0097874D01*
X0228320Y0097874D01*
X0228320Y0104313D01*
X0228688Y0104313D01*
X0228688Y0097874D01*
X0230453Y0097874D01*
X0230688Y0097639D01*
X0231570Y0097274D01*
X0236462Y0097274D01*
X0236772Y0097402D01*
X0237082Y0097274D01*
X0241973Y0097274D01*
X0242283Y0097402D01*
X0242593Y0097274D01*
X0247485Y0097274D01*
X0247795Y0097402D01*
X0248105Y0097274D01*
X0248724Y0097274D01*
X0247953Y0096503D01*
X0247361Y0095074D01*
X0247361Y0093526D01*
X0247953Y0092097D01*
X0249047Y0091003D01*
X0250476Y0090411D01*
X0252024Y0090411D01*
X0253453Y0091003D01*
X0254547Y0092097D01*
X0255139Y0093526D01*
X0255139Y0093946D01*
X0258467Y0097274D01*
X0258509Y0097274D01*
X0258819Y0097402D01*
X0259129Y0097274D01*
X0264021Y0097274D01*
X0264331Y0097402D01*
X0264641Y0097274D01*
X0269533Y0097274D01*
X0270415Y0097639D01*
X0271090Y0098315D01*
X0271455Y0099197D01*
X0271455Y0109797D01*
X0271090Y0110679D01*
X0270415Y0111354D01*
X0269533Y0111720D01*
X0264641Y0111720D01*
X0264331Y0111591D01*
X0264021Y0111720D01*
X0259129Y0111720D01*
X0258819Y0111591D01*
X0258509Y0111720D01*
X0253617Y0111720D01*
X0253307Y0111591D01*
X0252997Y0111720D01*
X0248105Y0111720D01*
X0247795Y0111591D01*
X0247485Y0111720D01*
X0242593Y0111720D01*
X0242283Y0111591D01*
X0241973Y0111720D01*
X0237350Y0111720D01*
X0237350Y0118766D01*
X0236802Y0120089D01*
X0235789Y0121102D01*
X0229850Y0127041D01*
X0229850Y0183766D01*
X0229302Y0185089D01*
X0228289Y0186102D01*
X0220789Y0193602D01*
X0219466Y0194150D01*
X0216554Y0194150D01*
X0218032Y0194762D01*
X0219538Y0196268D01*
X0220000Y0197384D01*
X0220462Y0196268D01*
X0221968Y0194762D01*
X0223935Y0193947D01*
X0226065Y0193947D01*
X0228032Y0194762D01*
X0229538Y0196268D01*
X0230000Y0197384D01*
X0230462Y0196268D01*
X0231968Y0194762D01*
X0233935Y0193947D01*
X0236065Y0193947D01*
X0238032Y0194762D01*
X0239538Y0196268D01*
X0240353Y0198235D01*
X0240353Y0200365D01*
X0239538Y0202332D01*
X0238032Y0203838D01*
X0236916Y0204300D01*
X0238032Y0204762D01*
X0239538Y0206268D01*
X0240353Y0208235D01*
X0240353Y0210365D01*
X0239538Y0212332D01*
X0238647Y0213223D01*
X0241054Y0212842D01*
X0248120Y0210546D01*
X0254740Y0207173D01*
X0260751Y0202805D01*
X0266005Y0197551D01*
X0270373Y0191540D01*
X0273746Y0184920D01*
X0274407Y0182886D01*
X0266699Y0190593D01*
X0265597Y0191050D01*
X0250653Y0191050D01*
X0249551Y0190593D01*
X0245801Y0186843D01*
X0245801Y0186843D01*
X0244957Y0185999D01*
X0244500Y0184897D01*
X0244500Y0183601D01*
X0243529Y0183199D01*
X0242007Y0181677D01*
X0241183Y0179687D01*
X0241183Y0177535D01*
X0242007Y0175545D01*
X0243529Y0174023D01*
X0245518Y0173199D01*
X0247671Y0173199D01*
X0249660Y0174023D01*
X0251182Y0175545D01*
X0252006Y0177535D01*
X0252006Y0179687D01*
X0251182Y0181677D01*
X0250500Y0182359D01*
X0250500Y0183057D01*
X0252493Y0185050D01*
X0263757Y0185050D01*
X0272000Y0176807D01*
X0272000Y0153117D01*
X0271475Y0152900D01*
X0270800Y0152224D01*
X0270435Y0151342D01*
X0270435Y0146451D01*
X0270800Y0145568D01*
X0270818Y0145550D01*
X0270800Y0145532D01*
X0270435Y0144649D01*
X0270435Y0143131D01*
X0269582Y0143484D01*
X0267918Y0143484D01*
X0267065Y0143131D01*
X0267065Y0144649D01*
X0266700Y0145532D01*
X0266681Y0145550D01*
X0266700Y0145568D01*
X0267065Y0146451D01*
X0267065Y0151342D01*
X0266700Y0152224D01*
X0266025Y0152900D01*
X0265542Y0153100D01*
X0270449Y0158007D01*
X0271293Y0158851D01*
X0271750Y0159953D01*
X0271750Y0168863D01*
X0271293Y0169966D01*
X0263790Y0177469D01*
X0263817Y0177535D01*
X0263817Y0179687D01*
X0262993Y0181677D01*
X0261471Y0183199D01*
X0259482Y0184023D01*
X0257329Y0184023D01*
X0255340Y0183199D01*
X0253818Y0181677D01*
X0252994Y0179687D01*
X0252994Y0177535D01*
X0253818Y0175545D01*
X0255340Y0174023D01*
X0257329Y0173199D01*
X0259482Y0173199D01*
X0259548Y0173226D01*
X0261162Y0171612D01*
X0258609Y0171612D01*
X0258609Y0167004D01*
X0258202Y0167004D01*
X0258202Y0171612D01*
X0255157Y0171612D01*
X0254699Y0171489D01*
X0254288Y0171252D01*
X0253953Y0170917D01*
X0253716Y0170507D01*
X0253594Y0170049D01*
X0253594Y0167004D01*
X0258201Y0167004D01*
X0258201Y0166596D01*
X0253594Y0166596D01*
X0253594Y0163551D01*
X0253716Y0163093D01*
X0253953Y0162683D01*
X0254288Y0162348D01*
X0249796Y0162348D01*
X0249660Y0162212D02*
X0251182Y0163734D01*
X0252006Y0165724D01*
X0252006Y0167876D01*
X0251182Y0169866D01*
X0249660Y0171388D01*
X0247671Y0172212D01*
X0245518Y0172212D01*
X0243529Y0171388D01*
X0242007Y0169866D01*
X0241183Y0167876D01*
X0241183Y0165724D01*
X0242007Y0163734D01*
X0243250Y0162491D01*
X0243250Y0153117D01*
X0242725Y0152900D01*
X0242050Y0152224D01*
X0241685Y0151342D01*
X0241685Y0146451D01*
X0242050Y0145568D01*
X0242068Y0145550D01*
X0242050Y0145532D01*
X0241685Y0144649D01*
X0241685Y0143484D01*
X0240418Y0143484D01*
X0238880Y0142847D01*
X0237703Y0141670D01*
X0237066Y0140132D01*
X0237066Y0138468D01*
X0237703Y0136930D01*
X0238880Y0135753D01*
X0240418Y0135116D01*
X0241685Y0135116D01*
X0241685Y0133951D01*
X0242050Y0133068D01*
X0242533Y0132585D01*
X0242407Y0132367D01*
X0242285Y0131909D01*
X0242285Y0129888D01*
X0246066Y0129888D01*
X0246066Y0129519D01*
X0246434Y0129519D01*
X0246434Y0125935D01*
X0248652Y0125935D01*
X0249110Y0126058D01*
X0249521Y0126295D01*
X0249856Y0126630D01*
X0250093Y0127040D01*
X0250215Y0127498D01*
X0250215Y0129519D01*
X0246434Y0129519D01*
X0246434Y0129888D01*
X0250215Y0129888D01*
X0250215Y0131909D01*
X0250093Y0132367D01*
X0249967Y0132585D01*
X0250450Y0133068D01*
X0250815Y0133951D01*
X0250815Y0138842D01*
X0250626Y0139300D01*
X0250815Y0139758D01*
X0250815Y0144649D01*
X0250450Y0145532D01*
X0250431Y0145550D01*
X0250450Y0145568D01*
X0250815Y0146451D01*
X0250815Y0151342D01*
X0250450Y0152224D01*
X0249775Y0152900D01*
X0249250Y0153117D01*
X0249250Y0162042D01*
X0249660Y0162212D01*
X0249250Y0160750D02*
X0264707Y0160750D01*
X0265750Y0161793D02*
X0259957Y0155999D01*
X0259500Y0154897D01*
X0259500Y0153117D01*
X0258975Y0152900D01*
X0258300Y0152224D01*
X0257935Y0151342D01*
X0257935Y0146451D01*
X0258300Y0145568D01*
X0258318Y0145550D01*
X0258300Y0145532D01*
X0257935Y0144649D01*
X0257935Y0143484D01*
X0256668Y0143484D01*
X0255130Y0142847D01*
X0253953Y0141670D01*
X0253316Y0140132D01*
X0253316Y0138468D01*
X0253953Y0136930D01*
X0255130Y0135753D01*
X0256668Y0135116D01*
X0257935Y0135116D01*
X0257935Y0133951D01*
X0258300Y0133068D01*
X0258783Y0132585D01*
X0258657Y0132367D01*
X0258535Y0131909D01*
X0258535Y0129888D01*
X0262316Y0129888D01*
X0262316Y0129519D01*
X0262684Y0129519D01*
X0262684Y0125935D01*
X0264902Y0125935D01*
X0265360Y0126058D01*
X0265771Y0126295D01*
X0266106Y0126630D01*
X0266343Y0127040D01*
X0266465Y0127498D01*
X0266465Y0129519D01*
X0262684Y0129519D01*
X0262684Y0129888D01*
X0266465Y0129888D01*
X0266465Y0131909D01*
X0266343Y0132367D01*
X0266217Y0132585D01*
X0266700Y0133068D01*
X0267065Y0133951D01*
X0267065Y0135469D01*
X0267918Y0135116D01*
X0269582Y0135116D01*
X0270435Y0135469D01*
X0270435Y0133951D01*
X0270800Y0133068D01*
X0271283Y0132585D01*
X0271157Y0132367D01*
X0271035Y0131909D01*
X0271035Y0129888D01*
X0274816Y0129888D01*
X0274816Y0129519D01*
X0275184Y0129519D01*
X0275184Y0125935D01*
X0277350Y0125935D01*
X0277350Y0051800D01*
X0277204Y0048085D01*
X0276042Y0040746D01*
X0273746Y0033680D01*
X0273315Y0032835D01*
X0273315Y0032869D02*
X0273332Y0032869D01*
X0273315Y0034467D02*
X0274002Y0034467D01*
X0274521Y0036066D02*
X0273246Y0036066D01*
X0273300Y0037664D02*
X0275040Y0037664D01*
X0275560Y0039263D02*
X0273315Y0039263D01*
X0273315Y0040861D02*
X0276060Y0040861D01*
X0276313Y0042460D02*
X0273315Y0042460D01*
X0272904Y0044058D02*
X0276566Y0044058D01*
X0276819Y0045657D02*
X0274503Y0045657D01*
X0274169Y0045323D02*
X0274169Y0045323D01*
X0275463Y0047255D02*
X0277073Y0047255D01*
X0277234Y0048854D02*
X0275469Y0048854D01*
X0275469Y0050452D02*
X0277297Y0050452D01*
X0277350Y0052051D02*
X0275469Y0052051D01*
X0275469Y0053649D02*
X0277350Y0053649D01*
X0277350Y0055248D02*
X0275469Y0055248D01*
X0275469Y0056846D02*
X0277350Y0056846D01*
X0277350Y0058445D02*
X0275469Y0058445D01*
X0275469Y0060043D02*
X0277350Y0060043D01*
X0277350Y0061642D02*
X0275469Y0061642D01*
X0275469Y0063240D02*
X0277350Y0063240D01*
X0277350Y0064839D02*
X0275469Y0064839D01*
X0274605Y0066437D02*
X0277350Y0066437D01*
X0277350Y0068036D02*
X0273007Y0068036D01*
X0271408Y0069634D02*
X0277350Y0069634D01*
X0277350Y0071233D02*
X0269810Y0071233D01*
X0268211Y0072832D02*
X0277350Y0072832D01*
X0277350Y0074430D02*
X0266613Y0074430D01*
X0265014Y0076029D02*
X0277350Y0076029D01*
X0277350Y0077627D02*
X0263416Y0077627D01*
X0261817Y0079226D02*
X0277350Y0079226D01*
X0277350Y0080824D02*
X0260219Y0080824D01*
X0258620Y0082423D02*
X0277350Y0082423D01*
X0277350Y0084021D02*
X0257022Y0084021D01*
X0252034Y0090415D02*
X0277350Y0090415D01*
X0277350Y0088817D02*
X0226691Y0088817D01*
X0226691Y0087218D02*
X0277350Y0087218D01*
X0277350Y0085620D02*
X0226691Y0085620D01*
X0226601Y0090415D02*
X0250466Y0090415D01*
X0248037Y0092014D02*
X0226691Y0092014D01*
X0226691Y0093612D02*
X0247361Y0093612D01*
X0247418Y0095211D02*
X0226691Y0095211D01*
X0226691Y0096809D02*
X0248259Y0096809D01*
X0255139Y0093612D02*
X0277350Y0093612D01*
X0277350Y0092014D02*
X0254463Y0092014D01*
X0256403Y0095211D02*
X0277350Y0095211D01*
X0277350Y0096809D02*
X0258002Y0096809D01*
X0271128Y0098408D02*
X0277350Y0098408D01*
X0277350Y0100006D02*
X0271455Y0100006D01*
X0271455Y0101605D02*
X0277350Y0101605D01*
X0277350Y0103203D02*
X0271455Y0103203D01*
X0271455Y0104802D02*
X0277350Y0104802D01*
X0277350Y0106400D02*
X0271455Y0106400D01*
X0271455Y0107999D02*
X0277350Y0107999D01*
X0277350Y0109597D02*
X0271455Y0109597D01*
X0270573Y0111196D02*
X0277350Y0111196D01*
X0277350Y0112794D02*
X0237350Y0112794D01*
X0237350Y0114393D02*
X0277350Y0114393D01*
X0277350Y0115991D02*
X0237350Y0115991D01*
X0237350Y0117590D02*
X0277350Y0117590D01*
X0277350Y0119188D02*
X0237175Y0119188D01*
X0236104Y0120787D02*
X0277350Y0120787D01*
X0277350Y0122385D02*
X0234506Y0122385D01*
X0232907Y0123984D02*
X0277350Y0123984D01*
X0277350Y0125582D02*
X0231309Y0125582D01*
X0229850Y0127181D02*
X0242370Y0127181D01*
X0242407Y0127040D02*
X0242644Y0126630D01*
X0242979Y0126295D01*
X0243390Y0126058D01*
X0243848Y0125935D01*
X0246066Y0125935D01*
X0246066Y0129519D01*
X0242285Y0129519D01*
X0242285Y0127498D01*
X0242407Y0127040D01*
X0242285Y0128779D02*
X0229850Y0128779D01*
X0229850Y0130378D02*
X0242285Y0130378D01*
X0242303Y0131976D02*
X0229850Y0131976D01*
X0229850Y0133575D02*
X0241840Y0133575D01*
X0240278Y0135173D02*
X0229850Y0135173D01*
X0229850Y0136772D02*
X0237861Y0136772D01*
X0237106Y0138370D02*
X0229850Y0138370D01*
X0229850Y0139969D02*
X0237066Y0139969D01*
X0237660Y0141568D02*
X0229850Y0141568D01*
X0229850Y0143166D02*
X0239649Y0143166D01*
X0241732Y0144765D02*
X0229850Y0144765D01*
X0229850Y0146363D02*
X0241721Y0146363D01*
X0241685Y0147962D02*
X0229850Y0147962D01*
X0229850Y0149560D02*
X0241685Y0149560D01*
X0241685Y0151159D02*
X0229850Y0151159D01*
X0229850Y0152757D02*
X0242583Y0152757D01*
X0243250Y0154356D02*
X0229850Y0154356D01*
X0229850Y0155954D02*
X0243250Y0155954D01*
X0243250Y0157553D02*
X0229850Y0157553D01*
X0229850Y0159151D02*
X0243250Y0159151D01*
X0243250Y0160750D02*
X0229850Y0160750D01*
X0229850Y0162348D02*
X0243250Y0162348D01*
X0241919Y0163947D02*
X0229850Y0163947D01*
X0229850Y0165545D02*
X0241257Y0165545D01*
X0241183Y0167144D02*
X0229850Y0167144D01*
X0229850Y0168742D02*
X0241541Y0168742D01*
X0242482Y0170341D02*
X0229850Y0170341D01*
X0229850Y0171939D02*
X0244860Y0171939D01*
X0244701Y0173538D02*
X0229850Y0173538D01*
X0229850Y0175136D02*
X0242416Y0175136D01*
X0241514Y0176735D02*
X0229850Y0176735D01*
X0229850Y0178333D02*
X0241183Y0178333D01*
X0241284Y0179932D02*
X0229850Y0179932D01*
X0229850Y0181530D02*
X0241946Y0181530D01*
X0243459Y0183129D02*
X0229850Y0183129D01*
X0229452Y0184727D02*
X0244500Y0184727D01*
X0245283Y0186326D02*
X0228065Y0186326D01*
X0226467Y0187924D02*
X0246882Y0187924D01*
X0248480Y0189523D02*
X0224868Y0189523D01*
X0223270Y0191121D02*
X0270586Y0191121D01*
X0271400Y0189523D02*
X0267770Y0189523D01*
X0269368Y0187924D02*
X0272215Y0187924D01*
X0273029Y0186326D02*
X0270967Y0186326D01*
X0272565Y0184727D02*
X0273808Y0184727D01*
X0274164Y0183129D02*
X0274328Y0183129D01*
X0268876Y0179932D02*
X0263716Y0179932D01*
X0263817Y0178333D02*
X0270474Y0178333D01*
X0272000Y0176735D02*
X0264524Y0176735D01*
X0266123Y0175136D02*
X0272000Y0175136D01*
X0272000Y0173538D02*
X0267721Y0173538D01*
X0269320Y0171939D02*
X0272000Y0171939D01*
X0272000Y0170341D02*
X0270918Y0170341D01*
X0271750Y0168742D02*
X0272000Y0168742D01*
X0272000Y0167144D02*
X0271750Y0167144D01*
X0271750Y0165545D02*
X0272000Y0165545D01*
X0272000Y0163947D02*
X0271750Y0163947D01*
X0271750Y0162348D02*
X0272000Y0162348D01*
X0272000Y0160750D02*
X0271750Y0160750D01*
X0272000Y0159151D02*
X0271418Y0159151D01*
X0272000Y0157553D02*
X0269995Y0157553D01*
X0268397Y0155954D02*
X0272000Y0155954D01*
X0272000Y0154356D02*
X0266798Y0154356D01*
X0266167Y0152757D02*
X0271333Y0152757D01*
X0270435Y0151159D02*
X0267065Y0151159D01*
X0267065Y0149560D02*
X0270435Y0149560D01*
X0270435Y0147962D02*
X0267065Y0147962D01*
X0267029Y0146363D02*
X0270471Y0146363D01*
X0270482Y0144765D02*
X0267018Y0144765D01*
X0267065Y0143166D02*
X0267149Y0143166D01*
X0270351Y0143166D02*
X0270435Y0143166D01*
X0270435Y0135173D02*
X0269722Y0135173D01*
X0270590Y0133575D02*
X0266910Y0133575D01*
X0267065Y0135173D02*
X0267778Y0135173D01*
X0266447Y0131976D02*
X0271053Y0131976D01*
X0271035Y0130378D02*
X0266465Y0130378D01*
X0266465Y0128779D02*
X0271035Y0128779D01*
X0271035Y0129519D02*
X0271035Y0127498D01*
X0271157Y0127040D01*
X0271394Y0126630D01*
X0271729Y0126295D01*
X0272140Y0126058D01*
X0272598Y0125935D01*
X0274816Y0125935D01*
X0274816Y0129519D01*
X0271035Y0129519D01*
X0271120Y0127181D02*
X0266380Y0127181D01*
X0262684Y0127181D02*
X0262316Y0127181D01*
X0262316Y0125935D02*
X0260098Y0125935D01*
X0259640Y0126058D01*
X0259229Y0126295D01*
X0258894Y0126630D01*
X0258657Y0127040D01*
X0258535Y0127498D01*
X0258535Y0129519D01*
X0262316Y0129519D01*
X0262316Y0125935D01*
X0262316Y0128779D02*
X0262684Y0128779D01*
X0258535Y0128779D02*
X0250215Y0128779D01*
X0250215Y0130378D02*
X0258535Y0130378D01*
X0258553Y0131976D02*
X0250197Y0131976D01*
X0250660Y0133575D02*
X0258090Y0133575D01*
X0256528Y0135173D02*
X0250815Y0135173D01*
X0250815Y0136772D02*
X0254111Y0136772D01*
X0253356Y0138370D02*
X0250815Y0138370D01*
X0250815Y0139969D02*
X0253316Y0139969D01*
X0253910Y0141568D02*
X0250815Y0141568D01*
X0250815Y0143166D02*
X0255899Y0143166D01*
X0257982Y0144765D02*
X0250768Y0144765D01*
X0250779Y0146363D02*
X0257971Y0146363D01*
X0257935Y0147962D02*
X0250815Y0147962D01*
X0250815Y0149560D02*
X0257935Y0149560D01*
X0257935Y0151159D02*
X0250815Y0151159D01*
X0249917Y0152757D02*
X0258833Y0152757D01*
X0259500Y0154356D02*
X0249250Y0154356D01*
X0249250Y0155954D02*
X0259938Y0155954D01*
X0261510Y0157553D02*
X0249250Y0157553D01*
X0249250Y0159151D02*
X0263108Y0159151D01*
X0265750Y0161793D02*
X0265750Y0167024D01*
X0263217Y0169557D01*
X0263217Y0167004D01*
X0258610Y0167004D01*
X0258610Y0166596D01*
X0263217Y0166596D01*
X0263217Y0163551D01*
X0263095Y0163093D01*
X0262858Y0162683D01*
X0262523Y0162348D01*
X0265750Y0162348D01*
X0265750Y0163947D02*
X0263217Y0163947D01*
X0263217Y0165545D02*
X0265750Y0165545D01*
X0265630Y0167144D02*
X0263217Y0167144D01*
X0263217Y0168742D02*
X0264032Y0168742D01*
X0260835Y0171939D02*
X0248329Y0171939D01*
X0248488Y0173538D02*
X0256512Y0173538D01*
X0254227Y0175136D02*
X0250773Y0175136D01*
X0251675Y0176735D02*
X0253325Y0176735D01*
X0252994Y0178333D02*
X0252006Y0178333D01*
X0251905Y0179932D02*
X0253095Y0179932D01*
X0253757Y0181530D02*
X0251243Y0181530D01*
X0250571Y0183129D02*
X0255270Y0183129D01*
X0252170Y0184727D02*
X0264080Y0184727D01*
X0265679Y0183129D02*
X0261541Y0183129D01*
X0263054Y0181530D02*
X0267277Y0181530D01*
X0269516Y0192720D02*
X0221671Y0192720D01*
X0223039Y0194318D02*
X0216961Y0194318D01*
X0219187Y0195917D02*
X0220813Y0195917D01*
X0226961Y0194318D02*
X0233039Y0194318D01*
X0230813Y0195917D02*
X0229187Y0195917D01*
X0236961Y0194318D02*
X0268354Y0194318D01*
X0267193Y0195917D02*
X0239187Y0195917D01*
X0240055Y0197515D02*
X0266031Y0197515D01*
X0264443Y0199114D02*
X0240353Y0199114D01*
X0240209Y0200712D02*
X0262844Y0200712D01*
X0261246Y0202311D02*
X0239547Y0202311D01*
X0237859Y0203909D02*
X0259232Y0203909D01*
X0257031Y0205508D02*
X0238778Y0205508D01*
X0239885Y0207106D02*
X0254831Y0207106D01*
X0251733Y0208705D02*
X0240353Y0208705D01*
X0240353Y0210303D02*
X0248595Y0210303D01*
X0243946Y0211902D02*
X0239716Y0211902D01*
X0241054Y0212842D02*
X0241054Y0212842D01*
X0217883Y0186326D02*
X0197450Y0186326D01*
X0197450Y0184727D02*
X0219482Y0184727D01*
X0221080Y0183129D02*
X0197450Y0183129D01*
X0197450Y0179932D02*
X0222650Y0179932D01*
X0222650Y0181530D02*
X0193275Y0181530D01*
X0191725Y0181530D02*
X0174525Y0181530D01*
X0174525Y0182161D02*
X0174525Y0180612D01*
X0178700Y0180612D01*
X0178700Y0176032D01*
X0178577Y0175574D01*
X0178340Y0175163D01*
X0178005Y0174828D01*
X0177645Y0174620D01*
X0178259Y0174366D01*
X0178934Y0173691D01*
X0179300Y0172809D01*
X0179300Y0171613D01*
X0186950Y0171613D01*
X0186950Y0172809D01*
X0187316Y0173691D01*
X0187991Y0174366D01*
X0188605Y0174620D01*
X0188245Y0174828D01*
X0187910Y0175163D01*
X0187673Y0175574D01*
X0187550Y0176032D01*
X0187550Y0180612D01*
X0191725Y0180612D01*
X0191725Y0182161D01*
X0187550Y0182161D01*
X0187550Y0186742D01*
X0187606Y0186950D01*
X0178644Y0186950D01*
X0178700Y0186742D01*
X0178700Y0182161D01*
X0174525Y0182161D01*
X0172975Y0181530D02*
X0158048Y0181530D01*
X0158048Y0179932D02*
X0168800Y0179932D01*
X0168800Y0178333D02*
X0158048Y0178333D01*
X0158048Y0176735D02*
X0168800Y0176735D01*
X0169187Y0175136D02*
X0157278Y0175136D01*
X0149218Y0175136D02*
X0145933Y0175136D01*
X0145374Y0175136D02*
X0145374Y0175136D01*
X0145374Y0175100D02*
X0145374Y0179300D01*
X0145374Y0183500D01*
X0145043Y0183500D01*
X0144391Y0183397D01*
X0143762Y0183192D01*
X0143173Y0182892D01*
X0142638Y0182504D01*
X0142170Y0182036D01*
X0141783Y0181503D01*
X0141569Y0182019D01*
X0140219Y0183369D01*
X0138455Y0184100D01*
X0136545Y0184100D01*
X0134781Y0183369D01*
X0133563Y0182151D01*
X0132345Y0183369D01*
X0130581Y0184100D01*
X0128671Y0184100D01*
X0126907Y0183369D01*
X0125689Y0182151D01*
X0124471Y0183369D01*
X0122707Y0184100D01*
X0121195Y0184100D01*
X0110951Y0194343D01*
X0109849Y0194800D01*
X0108070Y0194800D01*
X0109538Y0196268D01*
X0110000Y0197384D01*
X0110462Y0196268D01*
X0111968Y0194762D01*
X0113935Y0193947D01*
X0116065Y0193947D01*
X0118032Y0194762D01*
X0119538Y0196268D01*
X0120000Y0197384D01*
X0120462Y0196268D01*
X0121968Y0194762D01*
X0123935Y0193947D01*
X0126065Y0193947D01*
X0128032Y0194762D01*
X0129538Y0196268D01*
X0130000Y0197384D01*
X0130462Y0196268D01*
X0131968Y0194762D01*
X0133935Y0193947D01*
X0136065Y0193947D01*
X0138032Y0194762D01*
X0139538Y0196268D01*
X0140000Y0197384D01*
X0140462Y0196268D01*
X0141968Y0194762D01*
X0143935Y0193947D01*
X0146065Y0193947D01*
X0148032Y0194762D01*
X0149538Y0196268D01*
X0150000Y0197384D01*
X0150462Y0196268D01*
X0151968Y0194762D01*
X0153935Y0193947D01*
X0156065Y0193947D01*
X0158032Y0194762D01*
X0159538Y0196268D01*
X0160000Y0197384D01*
X0160462Y0196268D01*
X0161968Y0194762D01*
X0163446Y0194150D01*
X0158034Y0194150D01*
X0156711Y0193602D01*
X0155698Y0192589D01*
X0150196Y0187087D01*
X0149648Y0185764D01*
X0149648Y0183801D01*
X0149489Y0183735D01*
X0148813Y0183059D01*
X0148448Y0182177D01*
X0148448Y0182166D01*
X0148110Y0182504D01*
X0147575Y0182892D01*
X0146986Y0183192D01*
X0146358Y0183397D01*
X0145705Y0183500D01*
X0145374Y0183500D01*
X0145374Y0179300D01*
X0145374Y0179300D01*
X0145374Y0179300D01*
X0145374Y0175100D01*
X0144815Y0175136D02*
X0139991Y0175136D01*
X0141633Y0176735D02*
X0142046Y0176735D01*
X0145374Y0176735D02*
X0145374Y0176735D01*
X0145374Y0178333D02*
X0145374Y0178333D01*
X0145374Y0179932D02*
X0145374Y0179932D01*
X0145374Y0181530D02*
X0145374Y0181530D01*
X0145374Y0183129D02*
X0145374Y0183129D01*
X0143637Y0183129D02*
X0140459Y0183129D01*
X0141772Y0181530D02*
X0141803Y0181530D01*
X0147111Y0183129D02*
X0148883Y0183129D01*
X0149648Y0184727D02*
X0120567Y0184727D01*
X0118969Y0186326D02*
X0149881Y0186326D01*
X0151033Y0187924D02*
X0117370Y0187924D01*
X0115772Y0189523D02*
X0152632Y0189523D01*
X0154230Y0191121D02*
X0114173Y0191121D01*
X0112575Y0192720D02*
X0155829Y0192720D01*
X0156961Y0194318D02*
X0163039Y0194318D01*
X0160813Y0195917D02*
X0159187Y0195917D01*
X0153039Y0194318D02*
X0146961Y0194318D01*
X0149187Y0195917D02*
X0150813Y0195917D01*
X0143039Y0194318D02*
X0136961Y0194318D01*
X0139187Y0195917D02*
X0140813Y0195917D01*
X0133039Y0194318D02*
X0126961Y0194318D01*
X0129187Y0195917D02*
X0130813Y0195917D01*
X0123039Y0194318D02*
X0116961Y0194318D01*
X0119187Y0195917D02*
X0120813Y0195917D01*
X0113039Y0194318D02*
X0110976Y0194318D01*
X0110813Y0195917D02*
X0109187Y0195917D01*
X0124711Y0183129D02*
X0126667Y0183129D01*
X0132585Y0183129D02*
X0134541Y0183129D01*
X0135839Y0173538D02*
X0168502Y0173538D01*
X0168200Y0171939D02*
X0134240Y0171939D01*
X0132642Y0170341D02*
X0168200Y0170341D01*
X0168394Y0161150D02*
X0168566Y0160736D01*
X0169241Y0160061D01*
X0170123Y0159695D01*
X0177377Y0159695D01*
X0178259Y0160061D01*
X0178934Y0160736D01*
X0179300Y0161618D01*
X0179300Y0162813D01*
X0186950Y0162813D01*
X0186950Y0161618D01*
X0187316Y0160736D01*
X0187991Y0160061D01*
X0188100Y0160015D01*
X0188100Y0159873D01*
X0182520Y0154292D01*
X0182170Y0153448D01*
X0180191Y0152628D01*
X0178672Y0151109D01*
X0177850Y0149124D01*
X0177850Y0146976D01*
X0178672Y0144991D01*
X0180191Y0143472D01*
X0182043Y0142705D01*
X0181407Y0142498D01*
X0180734Y0142155D01*
X0180123Y0141711D01*
X0179589Y0141177D01*
X0179145Y0140566D01*
X0178802Y0139893D01*
X0178568Y0139174D01*
X0178450Y0138428D01*
X0178450Y0138250D01*
X0186050Y0138250D01*
X0186050Y0137850D01*
X0178450Y0137850D01*
X0178450Y0137672D01*
X0178568Y0136926D01*
X0178802Y0136207D01*
X0179145Y0135534D01*
X0179589Y0134923D01*
X0180123Y0134389D01*
X0180734Y0133945D01*
X0181407Y0133602D01*
X0182043Y0133395D01*
X0180191Y0132628D01*
X0180013Y0132450D01*
X0177875Y0132450D01*
X0176258Y0131780D01*
X0175020Y0130542D01*
X0145020Y0100542D01*
X0144541Y0099387D01*
X0143828Y0101109D01*
X0142309Y0102628D01*
X0141290Y0103050D01*
X0142309Y0103472D01*
X0143828Y0104991D01*
X0144650Y0106976D01*
X0144650Y0109124D01*
X0143828Y0111109D01*
X0142309Y0112628D01*
X0141290Y0113050D01*
X0142309Y0113472D01*
X0143828Y0114991D01*
X0144650Y0116976D01*
X0144650Y0119124D01*
X0143828Y0121109D01*
X0142309Y0122628D01*
X0141290Y0123050D01*
X0142309Y0123472D01*
X0143828Y0124991D01*
X0144650Y0126976D01*
X0144650Y0129124D01*
X0143828Y0131109D01*
X0142309Y0132628D01*
X0141290Y0133050D01*
X0142309Y0133472D01*
X0143828Y0134991D01*
X0144650Y0136976D01*
X0144650Y0139124D01*
X0143828Y0141109D01*
X0142309Y0142628D01*
X0141290Y0143050D01*
X0142309Y0143472D01*
X0143828Y0144991D01*
X0144650Y0146976D01*
X0144650Y0149124D01*
X0143828Y0151109D01*
X0142309Y0152628D01*
X0140324Y0153450D01*
X0136623Y0153450D01*
X0144323Y0161150D01*
X0168394Y0161150D01*
X0168560Y0160750D02*
X0143922Y0160750D01*
X0142324Y0159151D02*
X0187379Y0159151D01*
X0187310Y0160750D02*
X0178940Y0160750D01*
X0179300Y0162348D02*
X0186950Y0162348D01*
X0185780Y0157553D02*
X0140725Y0157553D01*
X0139127Y0155954D02*
X0184182Y0155954D01*
X0182583Y0154356D02*
X0137528Y0154356D01*
X0141997Y0152757D02*
X0180503Y0152757D01*
X0178722Y0151159D02*
X0143778Y0151159D01*
X0144469Y0149560D02*
X0178031Y0149560D01*
X0177850Y0147962D02*
X0144650Y0147962D01*
X0144396Y0146363D02*
X0178104Y0146363D01*
X0178899Y0144765D02*
X0143601Y0144765D01*
X0141570Y0143166D02*
X0180930Y0143166D01*
X0179979Y0141568D02*
X0143369Y0141568D01*
X0144300Y0139969D02*
X0178841Y0139969D01*
X0178450Y0138370D02*
X0144650Y0138370D01*
X0144566Y0136772D02*
X0178618Y0136772D01*
X0179407Y0135173D02*
X0143903Y0135173D01*
X0142412Y0133575D02*
X0181490Y0133575D01*
X0176732Y0131976D02*
X0142960Y0131976D01*
X0144131Y0130378D02*
X0174855Y0130378D01*
X0173257Y0128779D02*
X0144650Y0128779D01*
X0144650Y0127181D02*
X0171658Y0127181D01*
X0170060Y0125582D02*
X0144073Y0125582D01*
X0142821Y0123984D02*
X0168461Y0123984D01*
X0166863Y0122385D02*
X0142551Y0122385D01*
X0143961Y0120787D02*
X0165264Y0120787D01*
X0163666Y0119188D02*
X0144623Y0119188D01*
X0144650Y0117590D02*
X0162067Y0117590D01*
X0160469Y0115991D02*
X0144242Y0115991D01*
X0143230Y0114393D02*
X0158870Y0114393D01*
X0157272Y0112794D02*
X0141907Y0112794D01*
X0143741Y0111196D02*
X0155673Y0111196D01*
X0154075Y0109597D02*
X0144454Y0109597D01*
X0144650Y0107999D02*
X0152476Y0107999D01*
X0150878Y0106400D02*
X0144412Y0106400D01*
X0143638Y0104802D02*
X0149279Y0104802D01*
X0147681Y0103203D02*
X0141660Y0103203D01*
X0143332Y0101605D02*
X0146082Y0101605D01*
X0144798Y0100006D02*
X0144285Y0100006D01*
X0160650Y0093612D02*
X0163661Y0093612D01*
X0163661Y0092014D02*
X0160650Y0092014D01*
X0160650Y0090415D02*
X0163661Y0090415D01*
X0163661Y0088817D02*
X0160650Y0088817D01*
X0160650Y0087218D02*
X0163661Y0087218D01*
X0163661Y0085620D02*
X0160650Y0085620D01*
X0160650Y0084021D02*
X0163661Y0084021D01*
X0163661Y0082423D02*
X0160650Y0082423D01*
X0160650Y0080824D02*
X0163661Y0080824D01*
X0163661Y0079226D02*
X0160650Y0079226D01*
X0160650Y0077627D02*
X0163661Y0077627D01*
X0163661Y0076029D02*
X0160650Y0076029D01*
X0160650Y0074430D02*
X0163661Y0074430D01*
X0163661Y0072832D02*
X0160650Y0072832D01*
X0160650Y0071233D02*
X0163661Y0071233D01*
X0163661Y0069634D02*
X0160650Y0069634D01*
X0160650Y0068036D02*
X0163661Y0068036D01*
X0163661Y0066437D02*
X0160650Y0066437D01*
X0160650Y0064839D02*
X0163661Y0064839D01*
X0163661Y0063240D02*
X0160650Y0063240D01*
X0160995Y0061642D02*
X0163316Y0061642D01*
X0162654Y0060043D02*
X0161657Y0060043D01*
X0161662Y0058445D02*
X0162649Y0058445D01*
X0163077Y0056846D02*
X0161234Y0056846D01*
X0160196Y0055248D02*
X0164115Y0055248D01*
X0166729Y0053649D02*
X0157582Y0053649D01*
X0154918Y0053649D02*
X0153150Y0053649D01*
X0160761Y0052051D02*
X0165764Y0052051D01*
X0163715Y0050452D02*
X0161662Y0050452D01*
X0161662Y0048854D02*
X0162911Y0048854D01*
X0162649Y0047255D02*
X0161662Y0047255D01*
X0161662Y0045657D02*
X0162820Y0045657D01*
X0163494Y0044058D02*
X0161662Y0044058D01*
X0160983Y0042460D02*
X0165229Y0042460D01*
X0170893Y0042460D02*
X0183910Y0042460D01*
X0188590Y0042460D02*
X0217667Y0042460D01*
X0219266Y0044058D02*
X0175981Y0044058D01*
X0177579Y0045657D02*
X0220864Y0045657D01*
X0222463Y0047255D02*
X0178916Y0047255D01*
X0179400Y0048854D02*
X0224061Y0048854D01*
X0224135Y0050452D02*
X0179400Y0050452D01*
X0179400Y0052051D02*
X0224135Y0052051D01*
X0224135Y0053649D02*
X0179400Y0053649D01*
X0179400Y0055248D02*
X0224135Y0055248D01*
X0219653Y0056846D02*
X0219284Y0056846D01*
X0219284Y0056240D02*
X0219284Y0059824D01*
X0212846Y0059824D01*
X0212846Y0057803D01*
X0212968Y0057345D01*
X0213205Y0056935D01*
X0213540Y0056600D01*
X0213951Y0056363D01*
X0214409Y0056240D01*
X0219284Y0056240D01*
X0219284Y0058445D02*
X0219653Y0058445D01*
X0219653Y0059824D02*
X0224310Y0059824D01*
X0224462Y0060193D01*
X0219653Y0060193D01*
X0219653Y0059824D01*
X0219653Y0060043D02*
X0224401Y0060043D01*
X0226091Y0061326D02*
X0226091Y0061958D01*
X0226326Y0062192D01*
X0226691Y0063075D01*
X0226691Y0067966D01*
X0226563Y0068276D01*
X0226691Y0068586D01*
X0226691Y0073478D01*
X0226563Y0073788D01*
X0226568Y0073800D01*
X0255007Y0073800D01*
X0267462Y0061345D01*
X0267462Y0060726D01*
X0267271Y0060726D01*
X0267271Y0054287D01*
X0266902Y0054287D01*
X0266902Y0060726D01*
X0264881Y0060726D01*
X0264423Y0060603D01*
X0264331Y0060550D01*
X0264238Y0060603D01*
X0263780Y0060726D01*
X0261759Y0060726D01*
X0261759Y0054287D01*
X0261391Y0054287D01*
X0261391Y0060726D01*
X0259626Y0060726D01*
X0259391Y0060961D01*
X0258509Y0061326D01*
X0253617Y0061326D01*
X0252735Y0060961D01*
X0252500Y0060726D01*
X0250735Y0060726D01*
X0250735Y0054287D01*
X0250367Y0054287D01*
X0250367Y0060726D01*
X0248602Y0060726D01*
X0248367Y0060961D01*
X0247485Y0061326D01*
X0242593Y0061326D01*
X0242283Y0061198D01*
X0241973Y0061326D01*
X0237082Y0061326D01*
X0236772Y0061198D01*
X0236462Y0061326D01*
X0231570Y0061326D01*
X0231260Y0061198D01*
X0230950Y0061326D01*
X0226091Y0061326D01*
X0226091Y0061642D02*
X0267165Y0061642D01*
X0267271Y0060043D02*
X0266902Y0060043D01*
X0266902Y0058445D02*
X0267271Y0058445D01*
X0267271Y0056846D02*
X0266902Y0056846D01*
X0266902Y0055248D02*
X0267271Y0055248D01*
X0261759Y0055248D02*
X0261391Y0055248D01*
X0261391Y0056846D02*
X0261759Y0056846D01*
X0261759Y0058445D02*
X0261391Y0058445D01*
X0261391Y0060043D02*
X0261759Y0060043D01*
X0265567Y0063240D02*
X0226691Y0063240D01*
X0226691Y0064839D02*
X0263968Y0064839D01*
X0262370Y0066437D02*
X0226691Y0066437D01*
X0226662Y0068036D02*
X0260771Y0068036D01*
X0259173Y0069634D02*
X0226691Y0069634D01*
X0226691Y0071233D02*
X0257574Y0071233D01*
X0255976Y0072832D02*
X0226691Y0072832D01*
X0212246Y0072832D02*
X0179400Y0072832D01*
X0179400Y0074430D02*
X0180082Y0074430D01*
X0179400Y0071233D02*
X0212246Y0071233D01*
X0212246Y0069634D02*
X0179400Y0069634D01*
X0179400Y0068036D02*
X0212275Y0068036D01*
X0212246Y0066437D02*
X0179400Y0066437D01*
X0179400Y0064839D02*
X0212246Y0064839D01*
X0212246Y0063240D02*
X0179400Y0063240D01*
X0179400Y0061642D02*
X0212846Y0061642D01*
X0212846Y0058445D02*
X0179400Y0058445D01*
X0179400Y0060043D02*
X0219284Y0060043D01*
X0213294Y0056846D02*
X0179400Y0056846D01*
X0170600Y0053649D02*
X0169393Y0053649D01*
X0170358Y0052051D02*
X0170600Y0052051D01*
X0186450Y0073250D02*
X0189628Y0073250D01*
X0190374Y0073368D01*
X0191093Y0073602D01*
X0191766Y0073945D01*
X0192377Y0074389D01*
X0192911Y0074923D01*
X0193355Y0075534D01*
X0193698Y0076207D01*
X0193932Y0076926D01*
X0194050Y0077672D01*
X0194050Y0077850D01*
X0186450Y0077850D01*
X0186450Y0073250D01*
X0186450Y0074430D02*
X0186050Y0074430D01*
X0186050Y0076029D02*
X0186450Y0076029D01*
X0186450Y0077627D02*
X0186050Y0077627D01*
X0192418Y0074430D02*
X0212246Y0074430D01*
X0212246Y0076029D02*
X0193607Y0076029D01*
X0194043Y0077627D02*
X0212246Y0077627D01*
X0212343Y0079226D02*
X0193915Y0079226D01*
X0193168Y0080824D02*
X0212246Y0080824D01*
X0212246Y0082423D02*
X0191241Y0082423D01*
X0192858Y0084021D02*
X0212246Y0084021D01*
X0212246Y0085620D02*
X0194088Y0085620D01*
X0194650Y0087218D02*
X0212246Y0087218D01*
X0212246Y0088817D02*
X0194650Y0088817D01*
X0194115Y0090415D02*
X0212336Y0090415D01*
X0212246Y0092014D02*
X0192923Y0092014D01*
X0192449Y0093612D02*
X0212246Y0093612D01*
X0212246Y0095211D02*
X0193919Y0095211D01*
X0194581Y0096809D02*
X0212246Y0096809D01*
X0212246Y0098408D02*
X0194650Y0098408D01*
X0194285Y0100006D02*
X0212246Y0100006D01*
X0212481Y0101605D02*
X0193332Y0101605D01*
X0191660Y0103203D02*
X0224735Y0103203D01*
X0224735Y0104802D02*
X0193638Y0104802D01*
X0194412Y0106400D02*
X0224735Y0106400D01*
X0224735Y0107999D02*
X0194650Y0107999D01*
X0194454Y0109597D02*
X0224746Y0109597D01*
X0228320Y0109597D02*
X0228688Y0109597D01*
X0228688Y0107999D02*
X0228320Y0107999D01*
X0228320Y0106400D02*
X0228688Y0106400D01*
X0228688Y0104802D02*
X0228320Y0104802D01*
X0228320Y0103203D02*
X0228688Y0103203D01*
X0228688Y0101605D02*
X0228320Y0101605D01*
X0228320Y0100006D02*
X0228688Y0100006D01*
X0228688Y0098408D02*
X0228320Y0098408D01*
X0230150Y0111196D02*
X0193741Y0111196D01*
X0191907Y0112794D02*
X0230150Y0112794D01*
X0230150Y0114393D02*
X0222764Y0114393D01*
X0224828Y0115991D02*
X0230150Y0115991D01*
X0229119Y0117590D02*
X0225637Y0117590D01*
X0225900Y0119188D02*
X0227520Y0119188D01*
X0225922Y0120787D02*
X0225729Y0120787D01*
X0212236Y0114393D02*
X0193230Y0114393D01*
X0194242Y0115991D02*
X0210172Y0115991D01*
X0209363Y0117590D02*
X0194650Y0117590D01*
X0194623Y0119188D02*
X0209100Y0119188D01*
X0209271Y0120787D02*
X0193961Y0120787D01*
X0192551Y0122385D02*
X0209949Y0122385D01*
X0211697Y0123984D02*
X0192821Y0123984D01*
X0194073Y0125582D02*
X0211451Y0125582D01*
X0210193Y0127181D02*
X0194650Y0127181D01*
X0194650Y0128779D02*
X0209723Y0128779D01*
X0209811Y0130378D02*
X0194131Y0130378D01*
X0192960Y0131976D02*
X0210511Y0131976D01*
X0212317Y0133575D02*
X0191010Y0133575D01*
X0193093Y0135173D02*
X0210990Y0135173D01*
X0209702Y0136772D02*
X0193882Y0136772D01*
X0194050Y0138370D02*
X0209100Y0138370D01*
X0209100Y0139969D02*
X0193659Y0139969D01*
X0192521Y0141568D02*
X0209594Y0141568D01*
X0210729Y0143166D02*
X0191570Y0143166D01*
X0193601Y0144765D02*
X0211399Y0144765D01*
X0209872Y0146363D02*
X0194396Y0146363D01*
X0194650Y0147962D02*
X0209209Y0147962D01*
X0209100Y0149560D02*
X0194469Y0149560D01*
X0193778Y0151159D02*
X0209425Y0151159D01*
X0210320Y0152757D02*
X0193430Y0152757D01*
X0195028Y0154356D02*
X0212326Y0154356D01*
X0210209Y0155954D02*
X0196394Y0155954D01*
X0196900Y0157553D02*
X0209379Y0157553D01*
X0209100Y0159151D02*
X0196900Y0159151D01*
X0197690Y0160750D02*
X0209256Y0160750D01*
X0209918Y0162348D02*
X0198050Y0162348D01*
X0198050Y0163947D02*
X0211607Y0163947D01*
X0222650Y0165545D02*
X0198050Y0165545D01*
X0198050Y0167144D02*
X0222650Y0167144D01*
X0222650Y0168742D02*
X0198050Y0168742D01*
X0198050Y0170341D02*
X0222650Y0170341D01*
X0222650Y0171939D02*
X0198050Y0171939D01*
X0197748Y0173538D02*
X0222650Y0173538D01*
X0222650Y0175136D02*
X0197063Y0175136D01*
X0197450Y0176735D02*
X0222650Y0176735D01*
X0222650Y0178333D02*
X0197450Y0178333D01*
X0187550Y0178333D02*
X0178700Y0178333D01*
X0178700Y0176735D02*
X0187550Y0176735D01*
X0187937Y0175136D02*
X0178313Y0175136D01*
X0178998Y0173538D02*
X0187252Y0173538D01*
X0186950Y0171939D02*
X0179300Y0171939D01*
X0178700Y0179932D02*
X0187550Y0179932D01*
X0187550Y0183129D02*
X0178700Y0183129D01*
X0178700Y0184727D02*
X0187550Y0184727D01*
X0187550Y0186326D02*
X0178700Y0186326D01*
X0168800Y0186326D02*
X0159617Y0186326D01*
X0158018Y0184727D02*
X0168800Y0184727D01*
X0168800Y0183129D02*
X0157613Y0183129D01*
X0139470Y0168742D02*
X0027900Y0168742D01*
X0027900Y0167144D02*
X0137871Y0167144D01*
X0136273Y0165545D02*
X0027900Y0165545D01*
X0027900Y0163947D02*
X0134674Y0163947D01*
X0133076Y0162348D02*
X0027900Y0162348D01*
X0027900Y0160750D02*
X0131477Y0160750D01*
X0129879Y0159151D02*
X0027900Y0159151D01*
X0027900Y0157553D02*
X0128280Y0157553D01*
X0126682Y0155954D02*
X0027900Y0155954D01*
X0027900Y0154356D02*
X0125083Y0154356D01*
X0123485Y0152757D02*
X0106997Y0152757D01*
X0106570Y0143166D02*
X0118745Y0143166D01*
X0118397Y0141568D02*
X0107521Y0141568D01*
X0108659Y0139969D02*
X0118397Y0139969D01*
X0118397Y0138370D02*
X0109050Y0138370D01*
X0108882Y0136772D02*
X0118397Y0136772D01*
X0118533Y0135173D02*
X0108093Y0135173D01*
X0089232Y0131976D02*
X0057960Y0131976D01*
X0059131Y0130378D02*
X0087355Y0130378D01*
X0087520Y0130542D02*
X0087520Y0130542D01*
X0085757Y0128779D02*
X0059650Y0128779D01*
X0059650Y0127181D02*
X0084158Y0127181D01*
X0082560Y0125582D02*
X0059073Y0125582D01*
X0057821Y0123984D02*
X0080961Y0123984D01*
X0079363Y0122385D02*
X0057551Y0122385D01*
X0058961Y0120787D02*
X0077764Y0120787D01*
X0076166Y0119188D02*
X0059623Y0119188D01*
X0059650Y0117590D02*
X0074567Y0117590D01*
X0072969Y0115991D02*
X0059242Y0115991D01*
X0058230Y0114393D02*
X0071370Y0114393D01*
X0069772Y0112794D02*
X0056907Y0112794D01*
X0058741Y0111196D02*
X0068173Y0111196D01*
X0066575Y0109597D02*
X0059454Y0109597D01*
X0059650Y0107999D02*
X0065734Y0107999D01*
X0065600Y0106400D02*
X0059412Y0106400D01*
X0058638Y0104802D02*
X0065600Y0104802D01*
X0065600Y0103203D02*
X0056660Y0103203D01*
X0058332Y0101605D02*
X0065600Y0101605D01*
X0065600Y0100006D02*
X0059285Y0100006D01*
X0059650Y0098408D02*
X0065600Y0098408D01*
X0065600Y0096809D02*
X0059581Y0096809D01*
X0058919Y0095211D02*
X0065600Y0095211D01*
X0065600Y0093612D02*
X0057449Y0093612D01*
X0057923Y0092014D02*
X0065600Y0092014D01*
X0065600Y0090415D02*
X0059115Y0090415D01*
X0059650Y0088817D02*
X0065600Y0088817D01*
X0065600Y0087218D02*
X0059650Y0087218D01*
X0059088Y0085620D02*
X0065600Y0085620D01*
X0065600Y0084021D02*
X0057858Y0084021D01*
X0057514Y0082423D02*
X0065600Y0082423D01*
X0065600Y0080824D02*
X0058946Y0080824D01*
X0059608Y0079226D02*
X0065600Y0079226D01*
X0065600Y0077627D02*
X0059650Y0077627D01*
X0059258Y0076029D02*
X0065506Y0076029D01*
X0063908Y0074430D02*
X0058267Y0074430D01*
X0055762Y0072832D02*
X0062309Y0072832D01*
X0013950Y0122853D02*
X0007650Y0116553D01*
X0007650Y0214150D01*
X0022722Y0214150D01*
X0021968Y0213838D01*
X0020462Y0212332D01*
X0019647Y0210365D01*
X0019647Y0210340D01*
X0019636Y0210413D01*
X0019405Y0211124D01*
X0019065Y0211791D01*
X0018625Y0212396D01*
X0018096Y0212925D01*
X0017491Y0213365D01*
X0016824Y0213705D01*
X0016113Y0213936D01*
X0015374Y0214053D01*
X0015184Y0214053D01*
X0015184Y0209484D01*
X0014816Y0209484D01*
X0014816Y0209116D01*
X0015184Y0209116D01*
X0015184Y0204547D01*
X0015374Y0204547D01*
X0016113Y0204664D01*
X0016824Y0204895D01*
X0017491Y0205235D01*
X0018096Y0205675D01*
X0018625Y0206204D01*
X0019065Y0206809D01*
X0019405Y0207476D01*
X0019636Y0208187D01*
X0019647Y0208260D01*
X0019647Y0208235D01*
X0020462Y0206268D01*
X0021968Y0204762D01*
X0023084Y0204300D01*
X0021968Y0203838D01*
X0020462Y0202332D01*
X0019753Y0200619D01*
X0019753Y0202490D01*
X0019630Y0202948D01*
X0019393Y0203358D01*
X0019058Y0203693D01*
X0018648Y0203930D01*
X0018190Y0204053D01*
X0015184Y0204053D01*
X0015184Y0199484D01*
X0014816Y0199484D01*
X0014816Y0199116D01*
X0015184Y0199116D01*
X0015184Y0194547D01*
X0018190Y0194547D01*
X0018648Y0194670D01*
X0019058Y0194907D01*
X0019393Y0195242D01*
X0019630Y0195652D01*
X0019753Y0196110D01*
X0019753Y0197981D01*
X0020462Y0196268D01*
X0021968Y0194762D01*
X0023935Y0193947D01*
X0026065Y0193947D01*
X0028032Y0194762D01*
X0029538Y0196268D01*
X0030000Y0197384D01*
X0030462Y0196268D01*
X0031968Y0194762D01*
X0033935Y0193947D01*
X0036065Y0193947D01*
X0038032Y0194762D01*
X0039538Y0196268D01*
X0040000Y0197384D01*
X0040462Y0196268D01*
X0041968Y0194762D01*
X0042000Y0194749D01*
X0042000Y0193043D01*
X0040007Y0191050D01*
X0026903Y0191050D01*
X0025801Y0190593D01*
X0024957Y0189749D01*
X0018839Y0183631D01*
X0017707Y0184100D01*
X0015797Y0184100D01*
X0014033Y0183369D01*
X0012683Y0182019D01*
X0011952Y0180255D01*
X0011952Y0178345D01*
X0012683Y0176581D01*
X0014033Y0175231D01*
X0015746Y0174521D01*
X0011291Y0170067D01*
X0010850Y0169001D01*
X0010850Y0136223D01*
X0011291Y0135157D01*
X0012107Y0134341D01*
X0013985Y0132464D01*
X0013950Y0132381D01*
X0013950Y0130471D01*
X0014681Y0128707D01*
X0015899Y0127489D01*
X0014681Y0126271D01*
X0013950Y0124507D01*
X0013950Y0122853D01*
X0013482Y0122385D02*
X0007650Y0122385D01*
X0007650Y0120787D02*
X0011884Y0120787D01*
X0010285Y0119188D02*
X0007650Y0119188D01*
X0007650Y0117590D02*
X0008687Y0117590D01*
X0007650Y0123984D02*
X0013950Y0123984D01*
X0014396Y0125582D02*
X0007650Y0125582D01*
X0007650Y0127181D02*
X0015591Y0127181D01*
X0014651Y0128779D02*
X0007650Y0128779D01*
X0007650Y0130378D02*
X0013989Y0130378D01*
X0013950Y0131976D02*
X0007650Y0131976D01*
X0007650Y0133575D02*
X0012874Y0133575D01*
X0011285Y0135173D02*
X0007650Y0135173D01*
X0007650Y0136772D02*
X0010850Y0136772D01*
X0010850Y0138370D02*
X0007650Y0138370D01*
X0007650Y0139969D02*
X0010850Y0139969D01*
X0010850Y0141568D02*
X0007650Y0141568D01*
X0007650Y0143166D02*
X0010850Y0143166D01*
X0010850Y0144765D02*
X0007650Y0144765D01*
X0007650Y0146363D02*
X0010850Y0146363D01*
X0010850Y0147962D02*
X0007650Y0147962D01*
X0007650Y0149560D02*
X0010850Y0149560D01*
X0010850Y0151159D02*
X0007650Y0151159D01*
X0007650Y0152757D02*
X0010850Y0152757D01*
X0010850Y0154356D02*
X0007650Y0154356D01*
X0007650Y0155954D02*
X0010850Y0155954D01*
X0010850Y0157553D02*
X0007650Y0157553D01*
X0007650Y0159151D02*
X0010850Y0159151D01*
X0010850Y0160750D02*
X0007650Y0160750D01*
X0007650Y0162348D02*
X0010850Y0162348D01*
X0010850Y0163947D02*
X0007650Y0163947D01*
X0007650Y0165545D02*
X0010850Y0165545D01*
X0010850Y0167144D02*
X0007650Y0167144D01*
X0007650Y0168742D02*
X0010850Y0168742D01*
X0011565Y0170341D02*
X0007650Y0170341D01*
X0007650Y0171939D02*
X0013164Y0171939D01*
X0014763Y0173538D02*
X0007650Y0173538D01*
X0007650Y0175136D02*
X0014261Y0175136D01*
X0012619Y0176735D02*
X0007650Y0176735D01*
X0007650Y0178333D02*
X0011957Y0178333D01*
X0011952Y0179932D02*
X0007650Y0179932D01*
X0007650Y0181530D02*
X0012480Y0181530D01*
X0013793Y0183129D02*
X0007650Y0183129D01*
X0007650Y0184727D02*
X0019935Y0184727D01*
X0021533Y0186326D02*
X0007650Y0186326D01*
X0007650Y0187924D02*
X0023132Y0187924D01*
X0024730Y0189523D02*
X0007650Y0189523D01*
X0007650Y0191121D02*
X0040079Y0191121D01*
X0041677Y0192720D02*
X0007650Y0192720D01*
X0007650Y0194318D02*
X0023039Y0194318D01*
X0020813Y0195917D02*
X0019701Y0195917D01*
X0019753Y0197515D02*
X0019945Y0197515D01*
X0019791Y0200712D02*
X0019753Y0200712D01*
X0019753Y0202311D02*
X0020453Y0202311D01*
X0022141Y0203909D02*
X0018683Y0203909D01*
X0017867Y0205508D02*
X0021222Y0205508D01*
X0020115Y0207106D02*
X0019216Y0207106D01*
X0015184Y0207106D02*
X0014816Y0207106D01*
X0014816Y0205508D02*
X0015184Y0205508D01*
X0014816Y0204547D02*
X0014816Y0209116D01*
X0010247Y0209116D01*
X0010247Y0208926D01*
X0010364Y0208187D01*
X0010595Y0207476D01*
X0010935Y0206809D01*
X0011375Y0206204D01*
X0011904Y0205675D01*
X0012509Y0205235D01*
X0013176Y0204895D01*
X0013887Y0204664D01*
X0014626Y0204547D01*
X0014816Y0204547D01*
X0014816Y0204053D02*
X0011810Y0204053D01*
X0011352Y0203930D01*
X0010942Y0203693D01*
X0010607Y0203358D01*
X0010370Y0202948D01*
X0010247Y0202490D01*
X0010247Y0199484D01*
X0014816Y0199484D01*
X0014816Y0204053D01*
X0014816Y0203909D02*
X0015184Y0203909D01*
X0015184Y0202311D02*
X0014816Y0202311D01*
X0014816Y0200712D02*
X0015184Y0200712D01*
X0015184Y0199114D02*
X0014816Y0199114D01*
X0014816Y0199116D02*
X0014816Y0194547D01*
X0011810Y0194547D01*
X0011352Y0194670D01*
X0010942Y0194907D01*
X0010607Y0195242D01*
X0010370Y0195652D01*
X0010247Y0196110D01*
X0010247Y0199116D01*
X0014816Y0199116D01*
X0014816Y0197515D02*
X0015184Y0197515D01*
X0015184Y0195917D02*
X0014816Y0195917D01*
X0010299Y0195917D02*
X0007650Y0195917D01*
X0007650Y0197515D02*
X0010247Y0197515D01*
X0010247Y0199114D02*
X0007650Y0199114D01*
X0007650Y0200712D02*
X0010247Y0200712D01*
X0010247Y0202311D02*
X0007650Y0202311D01*
X0007650Y0203909D02*
X0011317Y0203909D01*
X0012133Y0205508D02*
X0007650Y0205508D01*
X0007650Y0207106D02*
X0010784Y0207106D01*
X0010282Y0208705D02*
X0007650Y0208705D01*
X0007650Y0210303D02*
X0010347Y0210303D01*
X0010364Y0210413D02*
X0010247Y0209674D01*
X0010247Y0209484D01*
X0014816Y0209484D01*
X0014816Y0214053D01*
X0014626Y0214053D01*
X0013887Y0213936D01*
X0013176Y0213705D01*
X0012509Y0213365D01*
X0011904Y0212925D01*
X0011375Y0212396D01*
X0010935Y0211791D01*
X0010595Y0211124D01*
X0010364Y0210413D01*
X0011016Y0211902D02*
X0007650Y0211902D01*
X0007650Y0213501D02*
X0012775Y0213501D01*
X0014816Y0213501D02*
X0015184Y0213501D01*
X0015184Y0211902D02*
X0014816Y0211902D01*
X0014816Y0210303D02*
X0015184Y0210303D01*
X0015184Y0208705D02*
X0014816Y0208705D01*
X0018984Y0211902D02*
X0020284Y0211902D01*
X0021631Y0213501D02*
X0017225Y0213501D01*
X0029187Y0195917D02*
X0030813Y0195917D01*
X0033039Y0194318D02*
X0026961Y0194318D01*
X0036961Y0194318D02*
X0042000Y0194318D01*
X0040813Y0195917D02*
X0039187Y0195917D01*
X0034161Y0173538D02*
X0030839Y0173538D01*
X0029240Y0171939D02*
X0035760Y0171939D01*
X0037358Y0170341D02*
X0027900Y0170341D01*
X0078892Y0170341D02*
X0088608Y0170341D01*
X0087010Y0171939D02*
X0080490Y0171939D01*
X0082089Y0173538D02*
X0085411Y0173538D01*
X0162133Y0095211D02*
X0163661Y0095211D01*
X0242955Y0039263D02*
X0247285Y0039263D01*
X0247285Y0038269D02*
X0247285Y0036248D01*
X0247407Y0035790D01*
X0247644Y0035380D01*
X0247979Y0035045D01*
X0248390Y0034808D01*
X0248848Y0034685D01*
X0251066Y0034685D01*
X0251066Y0038269D01*
X0247285Y0038269D01*
X0247285Y0037664D02*
X0241357Y0037664D01*
X0239758Y0036066D02*
X0247333Y0036066D01*
X0251066Y0036066D02*
X0251434Y0036066D01*
X0251434Y0037664D02*
X0251066Y0037664D01*
X0255215Y0037664D02*
X0257950Y0037664D01*
X0257935Y0039263D02*
X0255215Y0039263D01*
X0255161Y0040861D02*
X0257935Y0040861D01*
X0257935Y0042460D02*
X0255950Y0042460D01*
X0257751Y0044058D02*
X0258884Y0044058D01*
X0259024Y0045657D02*
X0263179Y0045657D01*
X0264777Y0047255D02*
X0259401Y0047255D01*
X0261391Y0048854D02*
X0261759Y0048854D01*
X0261759Y0050452D02*
X0261391Y0050452D01*
X0261391Y0052051D02*
X0261759Y0052051D01*
X0261759Y0053649D02*
X0261391Y0053649D01*
X0250735Y0055248D02*
X0250367Y0055248D01*
X0250367Y0056846D02*
X0250735Y0056846D01*
X0250735Y0058445D02*
X0250367Y0058445D01*
X0250367Y0060043D02*
X0250735Y0060043D01*
X0247339Y0040861D02*
X0244554Y0040861D01*
X0238160Y0034467D02*
X0257935Y0034467D01*
X0257935Y0032869D02*
X0236561Y0032869D01*
X0234963Y0031270D02*
X0249722Y0031270D01*
X0248672Y0029672D02*
X0233364Y0029672D01*
X0231766Y0028073D02*
X0248672Y0028073D01*
X0248672Y0026475D02*
X0230167Y0026475D01*
X0239103Y0016884D02*
X0261840Y0016884D01*
X0260050Y0015285D02*
X0237560Y0015285D01*
X0236860Y0013687D02*
X0257850Y0013687D01*
X0255650Y0012088D02*
X0238849Y0012088D01*
X0239611Y0010490D02*
X0252900Y0010490D01*
X0249762Y0008891D02*
X0239747Y0008891D01*
X0239311Y0007293D02*
X0245776Y0007293D01*
X0240648Y0005694D02*
X0238115Y0005694D01*
X0235184Y0010490D02*
X0234816Y0010490D01*
X0234816Y0012088D02*
X0235184Y0012088D01*
X0231151Y0012088D02*
X0228849Y0012088D01*
X0229611Y0010490D02*
X0230389Y0010490D01*
X0230253Y0008891D02*
X0229747Y0008891D01*
X0229311Y0007293D02*
X0230689Y0007293D01*
X0231885Y0005694D02*
X0228115Y0005694D01*
X0225184Y0005694D02*
X0224816Y0005694D01*
X0224816Y0007293D02*
X0225184Y0007293D01*
X0225184Y0008891D02*
X0224816Y0008891D01*
X0224816Y0010490D02*
X0225184Y0010490D01*
X0225184Y0012088D02*
X0224816Y0012088D01*
X0223140Y0013687D02*
X0222993Y0013687D01*
X0227560Y0015285D02*
X0232440Y0015285D01*
X0220689Y0007293D02*
X0219962Y0007293D01*
X0218964Y0005694D02*
X0221885Y0005694D01*
X0210192Y0021679D02*
X0209808Y0021679D01*
X0208592Y0023278D02*
X0211408Y0023278D01*
X0201408Y0023278D02*
X0198592Y0023278D01*
X0199808Y0021679D02*
X0200192Y0021679D01*
X0191408Y0023278D02*
X0188592Y0023278D01*
X0189808Y0021679D02*
X0190192Y0021679D01*
X0180192Y0021679D02*
X0179122Y0021679D01*
X0175184Y0021679D02*
X0174816Y0021679D01*
X0174816Y0020081D02*
X0175184Y0020081D01*
X0175184Y0023278D02*
X0174816Y0023278D01*
X0172389Y0023278D02*
X0168592Y0023278D01*
X0169808Y0021679D02*
X0170878Y0021679D01*
X0161408Y0023278D02*
X0158592Y0023278D01*
X0159808Y0021679D02*
X0160192Y0021679D01*
X0151408Y0023278D02*
X0148592Y0023278D01*
X0149808Y0021679D02*
X0150192Y0021679D01*
X0141408Y0023278D02*
X0138592Y0023278D01*
X0139808Y0021679D02*
X0140192Y0021679D01*
X0131408Y0023278D02*
X0128592Y0023278D01*
X0129808Y0021679D02*
X0130192Y0021679D01*
X0121408Y0023278D02*
X0118592Y0023278D01*
X0119808Y0021679D02*
X0120192Y0021679D01*
X0111408Y0023278D02*
X0108592Y0023278D01*
X0109808Y0021679D02*
X0110192Y0021679D01*
X0252047Y0021679D02*
X0252047Y0021679D01*
X0252047Y0020081D02*
X0252047Y0020081D01*
X0252047Y0023278D02*
X0252047Y0023278D01*
X0252047Y0024876D02*
X0252047Y0024876D01*
X0252047Y0026475D02*
X0252047Y0026475D01*
X0252047Y0028073D02*
X0252047Y0028073D01*
X0252047Y0029672D02*
X0252047Y0029672D01*
X0252047Y0031270D02*
X0252047Y0031270D01*
X0254372Y0031270D02*
X0254629Y0031270D01*
X0255166Y0036066D02*
X0258004Y0036066D01*
X0258620Y0127181D02*
X0250130Y0127181D01*
X0246434Y0127181D02*
X0246066Y0127181D01*
X0246066Y0128779D02*
X0246434Y0128779D01*
X0274816Y0128779D02*
X0275184Y0128779D01*
X0275184Y0127181D02*
X0274816Y0127181D01*
X0262112Y0162111D02*
X0261654Y0161988D01*
X0258609Y0161988D01*
X0258609Y0166596D01*
X0258202Y0166596D01*
X0258202Y0161988D01*
X0255157Y0161988D01*
X0254699Y0162111D01*
X0254288Y0162348D01*
X0253594Y0163947D02*
X0251270Y0163947D01*
X0251932Y0165545D02*
X0253594Y0165545D01*
X0253594Y0167144D02*
X0252006Y0167144D01*
X0251648Y0168742D02*
X0253594Y0168742D01*
X0253672Y0170341D02*
X0250707Y0170341D01*
X0258202Y0170341D02*
X0258609Y0170341D01*
X0258609Y0168742D02*
X0258202Y0168742D01*
X0258202Y0167144D02*
X0258609Y0167144D01*
X0258609Y0165545D02*
X0258202Y0165545D01*
X0258202Y0163947D02*
X0258609Y0163947D01*
X0258609Y0162348D02*
X0258202Y0162348D01*
X0262112Y0162111D02*
X0262523Y0162348D01*
D26*
X0201250Y0172637D02*
X0201250Y0148050D01*
X0196250Y0143050D01*
X0196250Y0138050D01*
X0186250Y0138050D01*
X0196250Y0138050D02*
X0196250Y0103050D01*
X0196250Y0081800D01*
X0192500Y0078050D01*
X0186250Y0078050D01*
X0186250Y0053050D01*
X0172913Y0039713D01*
X0112087Y0039713D01*
X0101250Y0050550D01*
X0101250Y0078050D01*
X0103750Y0078050D01*
X0110000Y0084300D01*
X0110000Y0085588D01*
X0110057Y0085645D01*
X0110057Y0132993D01*
X0105000Y0138050D01*
X0101250Y0138050D01*
X0101250Y0148050D02*
X0125000Y0148050D01*
X0142500Y0165550D01*
X0172087Y0165550D01*
X0173750Y0167213D01*
X0192500Y0167213D01*
X0192500Y0158050D01*
X0186250Y0151800D01*
X0186250Y0148050D01*
X0186250Y0128050D02*
X0178750Y0128050D01*
X0148750Y0098050D01*
X0148750Y0051800D01*
X0153406Y0047144D01*
X0156250Y0047144D01*
X0168061Y0047144D02*
X0172844Y0047144D01*
X0175000Y0049300D01*
X0175000Y0091800D01*
X0181250Y0098050D01*
X0186250Y0098050D01*
X0186250Y0108050D02*
X0180000Y0108050D01*
X0168061Y0096111D01*
X0168061Y0058956D01*
X0156250Y0058956D02*
X0156250Y0095550D01*
X0178750Y0118050D01*
X0186250Y0118050D01*
X0201250Y0172637D02*
X0192500Y0181387D01*
X0173750Y0181387D01*
X0101250Y0128050D02*
X0091250Y0128050D01*
X0070000Y0106800D01*
X0070000Y0074300D01*
X0063750Y0068050D01*
X0063750Y0055550D01*
X0071250Y0048050D01*
X0071250Y0047144D01*
X0083061Y0047144D02*
X0085344Y0047144D01*
X0090000Y0051800D01*
X0090000Y0090550D01*
X0097500Y0098050D01*
X0101250Y0098050D01*
X0101250Y0108050D02*
X0096250Y0108050D01*
X0083061Y0094861D01*
X0083061Y0058956D01*
X0071250Y0058956D02*
X0071250Y0065550D01*
X0076250Y0070550D01*
X0076250Y0100550D01*
X0093750Y0118050D01*
X0101250Y0118050D01*
X0172913Y0039713D02*
X0175000Y0037627D01*
X0175000Y0019300D01*
D27*
X0180000Y0014300D02*
X0185000Y0019300D01*
X0180000Y0014300D02*
X0142500Y0014300D01*
X0140000Y0011800D01*
X0140000Y0006800D01*
X0137500Y0004300D01*
X0033750Y0004300D01*
X0030000Y0008050D01*
X0030000Y0021800D01*
X0038346Y0030146D01*
X0038346Y0039300D01*
X0038346Y0046800D01*
X0031654Y0046800D02*
X0018750Y0046800D01*
X0019124Y0039300D02*
X0018750Y0038926D01*
X0019124Y0039300D02*
X0031654Y0039300D01*
X0178750Y0035550D02*
X0220000Y0035550D01*
X0235000Y0050550D01*
X0235000Y0053119D01*
X0234016Y0054103D01*
X0228750Y0053857D02*
X0228504Y0054103D01*
X0228750Y0053857D02*
X0228750Y0049300D01*
X0218750Y0039300D01*
X0186250Y0039300D01*
X0186250Y0031800D02*
X0221250Y0031800D01*
X0240000Y0050550D01*
X0240000Y0053631D01*
X0239528Y0054103D01*
X0245000Y0054064D02*
X0245000Y0050550D01*
X0222500Y0028050D01*
X0178750Y0028050D01*
X0215000Y0009300D02*
X0220000Y0014300D01*
X0220000Y0020550D01*
X0243750Y0044300D01*
X0250404Y0044300D01*
X0251250Y0045146D01*
X0254596Y0045146D01*
X0256250Y0046800D01*
X0256250Y0053916D01*
X0256063Y0054103D01*
X0245039Y0054103D02*
X0245000Y0054064D01*
X0262500Y0040735D02*
X0270462Y0048697D01*
X0270462Y0062588D01*
X0256250Y0076800D01*
X0219724Y0076800D01*
X0219469Y0076544D01*
X0219724Y0081800D02*
X0219469Y0082056D01*
X0219724Y0081800D02*
X0255000Y0081800D01*
X0272469Y0064331D01*
X0272469Y0047866D01*
X0268750Y0044147D01*
X0268750Y0040146D01*
X0262500Y0040146D02*
X0262500Y0040735D01*
X0262500Y0033454D02*
X0262500Y0030550D01*
X0260000Y0028050D01*
X0257953Y0028050D01*
X0257953Y0023050D02*
X0261250Y0023050D01*
X0268750Y0030550D01*
X0268750Y0033454D01*
X0252047Y0028050D02*
X0252047Y0023050D01*
X0252047Y0028050D02*
X0251497Y0028050D01*
X0247623Y0031923D01*
X0251250Y0094300D02*
X0256063Y0099113D01*
X0256063Y0104497D01*
X0252500Y0129704D02*
X0246250Y0129704D01*
X0252500Y0129704D02*
X0252500Y0154300D01*
X0258750Y0160550D01*
X0258750Y0166456D01*
X0258406Y0166800D01*
X0246594Y0166800D02*
X0246250Y0166456D01*
X0246250Y0148896D01*
X0246250Y0142204D02*
X0246250Y0136396D01*
X0245846Y0139300D02*
X0241250Y0139300D01*
X0245846Y0139300D02*
X0246250Y0142204D01*
X0257500Y0139300D02*
X0259596Y0139300D01*
X0262500Y0142204D01*
X0262500Y0136396D01*
X0268750Y0139300D02*
X0272096Y0139300D01*
X0275000Y0142204D01*
X0275000Y0136396D01*
X0275000Y0129704D02*
X0262500Y0129704D01*
X0252500Y0129704D01*
X0262500Y0148896D02*
X0262500Y0154300D01*
X0268750Y0160550D01*
X0268750Y0168267D01*
X0258406Y0178611D01*
X0247500Y0179517D02*
X0247500Y0184300D01*
X0251250Y0188050D01*
X0265000Y0188050D01*
X0275000Y0178050D01*
X0275000Y0148896D01*
X0246594Y0178611D02*
X0247500Y0179517D01*
X0121752Y0179300D02*
X0109252Y0191800D01*
X0056250Y0191800D01*
X0055000Y0193050D01*
X0055000Y0199300D01*
X0050000Y0204300D02*
X0050000Y0191800D01*
X0053750Y0188050D01*
X0063750Y0188050D01*
X0068002Y0183798D01*
X0068002Y0179300D01*
X0045000Y0191800D02*
X0045000Y0199300D01*
X0050000Y0204300D02*
X0045000Y0209300D01*
X0045000Y0191800D02*
X0041250Y0188050D01*
X0027500Y0188050D01*
X0018750Y0179300D01*
X0016752Y0179300D01*
X0024395Y0179069D02*
X0024626Y0179300D01*
D28*
X0192500Y0078050D02*
X0210541Y0060009D01*
X0219469Y0060009D01*
X0223304Y0060009D01*
X0225672Y0062378D01*
X0250551Y0062378D01*
X0261575Y0062378D01*
X0261575Y0054103D01*
X0261575Y0045911D01*
X0258528Y0042863D01*
X0258528Y0042828D01*
X0253750Y0038050D01*
X0251654Y0038050D01*
X0251250Y0038454D01*
X0251250Y0035550D01*
X0247623Y0031923D01*
X0235000Y0019300D01*
X0250551Y0054103D02*
X0250551Y0062378D01*
X0261575Y0054103D02*
X0267087Y0054103D01*
X0245039Y0104497D02*
X0239528Y0104497D01*
X0234277Y0104497D01*
X0234016Y0104497D01*
X0228504Y0104497D02*
X0197697Y0104497D01*
X0196250Y0103050D01*
D29*
X0136250Y0108050D02*
X0123750Y0120550D01*
X0123750Y0131810D01*
X0123750Y0139290D02*
X0132510Y0148050D01*
X0136250Y0148050D01*
X0130000Y0171800D02*
X0091250Y0171800D01*
X0083750Y0179300D01*
X0076250Y0171800D01*
X0040000Y0171800D01*
X0032500Y0179300D01*
X0025000Y0171800D01*
X0025000Y0145550D01*
X0018750Y0139300D01*
X0025000Y0133050D01*
X0025000Y0095550D01*
X0018750Y0089300D01*
X0025000Y0089300D01*
X0060000Y0054300D01*
X0060000Y0045550D01*
X0073750Y0031800D01*
X0092500Y0031800D01*
X0105000Y0019300D01*
X0100000Y0014300D02*
X0105000Y0009300D01*
X0100000Y0014300D02*
X0092500Y0014300D01*
X0090000Y0016800D01*
X0090000Y0021800D01*
X0083750Y0028050D01*
X0072812Y0028050D01*
X0056250Y0044612D01*
X0056250Y0053050D01*
X0027500Y0081800D01*
X0019124Y0081800D01*
X0018750Y0081426D01*
X0018750Y0081800D01*
X0012500Y0088050D01*
X0012500Y0112059D01*
X0022457Y0122016D01*
X0022457Y0127633D01*
X0022500Y0127676D01*
X0018750Y0131426D01*
X0018750Y0131800D01*
X0013750Y0136800D01*
X0013750Y0168424D01*
X0024395Y0179069D01*
X0024626Y0179300D02*
X0025000Y0179300D01*
X0028750Y0183050D01*
X0058868Y0183050D01*
X0066425Y0175493D01*
X0072069Y0175493D01*
X0075876Y0179300D01*
X0076250Y0179300D01*
X0080000Y0183050D01*
X0106250Y0183050D01*
X0113750Y0175550D01*
X0125876Y0175550D01*
X0129626Y0179300D01*
X0130000Y0171800D02*
X0137500Y0179300D01*
X0018750Y0123552D02*
X0010000Y0114802D01*
X0010000Y0073050D01*
X0013750Y0069300D01*
X0030000Y0069300D01*
X0048750Y0050550D01*
X0048750Y0041800D01*
X0071250Y0019300D01*
X0075000Y0019300D01*
X0071250Y0024300D02*
X0052525Y0043025D01*
X0052525Y0051775D01*
X0031250Y0073050D01*
X0019252Y0073050D01*
X0018750Y0073552D01*
X0071250Y0024300D02*
X0080000Y0024300D01*
X0085000Y0019300D01*
D30*
X0241250Y0139300D03*
X0257500Y0139300D03*
X0268750Y0139300D03*
D31*
X0251250Y0094300D03*
X0186250Y0039300D03*
X0178750Y0035550D03*
X0186250Y0031800D03*
X0178750Y0028050D03*
M02*
