%TF.GenerationSoftware,KiCad,Pcbnew,(5.1.6)-1*%
%TF.CreationDate,2021-02-23T14:27:07+01:00*%
%TF.ProjectId,STM32G030K8T6_Board,53544d33-3247-4303-9330-4b3854365f42,rev?*%
%TF.SameCoordinates,Original*%
%TF.FileFunction,Copper,L1,Top*%
%TF.FilePolarity,Positive*%
%FSLAX46Y46*%
G04 Gerber Fmt 4.6, Leading zero omitted, Abs format (unit mm)*
G04 Created by KiCad (PCBNEW (5.1.6)-1) date 2021-02-23 14:27:07*
%MOMM*%
%LPD*%
G01*
G04 APERTURE LIST*
%TA.AperFunction,NonConductor*%
%ADD10C,0.125000*%
%TD*%
%TA.AperFunction,ComponentPad*%
%ADD11R,1.700000X1.700000*%
%TD*%
%TA.AperFunction,ComponentPad*%
%ADD12O,1.700000X1.700000*%
%TD*%
%TA.AperFunction,SMDPad,CuDef*%
%ADD13R,0.900000X0.800000*%
%TD*%
%TA.AperFunction,ViaPad*%
%ADD14C,0.800000*%
%TD*%
%TA.AperFunction,Conductor*%
%ADD15C,0.400000*%
%TD*%
%TA.AperFunction,Conductor*%
%ADD16C,2.000000*%
%TD*%
%TA.AperFunction,Conductor*%
%ADD17C,0.250000*%
%TD*%
%TA.AperFunction,Conductor*%
%ADD18C,0.220000*%
%TD*%
G04 APERTURE END LIST*
D10*
X127202380Y-43288690D02*
X127202380Y-42788690D01*
X127202380Y-43026785D02*
X127488095Y-43026785D01*
X127488095Y-43288690D02*
X127488095Y-42788690D01*
X127940476Y-42955357D02*
X127940476Y-43288690D01*
X127726190Y-42955357D02*
X127726190Y-43217261D01*
X127750000Y-43264880D01*
X127797619Y-43288690D01*
X127869047Y-43288690D01*
X127916666Y-43264880D01*
X127940476Y-43241071D01*
X128178571Y-43288690D02*
X128178571Y-42788690D01*
X128178571Y-42979166D02*
X128226190Y-42955357D01*
X128321428Y-42955357D01*
X128369047Y-42979166D01*
X128392857Y-43002976D01*
X128416666Y-43050595D01*
X128416666Y-43193452D01*
X128392857Y-43241071D01*
X128369047Y-43264880D01*
X128321428Y-43288690D01*
X128226190Y-43288690D01*
X128178571Y-43264880D01*
X128821428Y-43264880D02*
X128773809Y-43288690D01*
X128678571Y-43288690D01*
X128630952Y-43264880D01*
X128607142Y-43217261D01*
X128607142Y-43026785D01*
X128630952Y-42979166D01*
X128678571Y-42955357D01*
X128773809Y-42955357D01*
X128821428Y-42979166D01*
X128845238Y-43026785D01*
X128845238Y-43074404D01*
X128607142Y-43122023D01*
X129059523Y-43288690D02*
X129059523Y-42955357D01*
X129059523Y-43050595D02*
X129083333Y-43002976D01*
X129107142Y-42979166D01*
X129154761Y-42955357D01*
X129202380Y-42955357D01*
X129297619Y-42955357D02*
X129488095Y-42955357D01*
X129369047Y-42788690D02*
X129369047Y-43217261D01*
X129392857Y-43264880D01*
X129440476Y-43288690D01*
X129488095Y-43288690D01*
X127000000Y-44163690D02*
X127000000Y-43663690D01*
X127285714Y-44163690D02*
X127071428Y-43877976D01*
X127285714Y-43663690D02*
X127000000Y-43949404D01*
X127571428Y-44163690D02*
X127523809Y-44139880D01*
X127500000Y-44116071D01*
X127476190Y-44068452D01*
X127476190Y-43925595D01*
X127500000Y-43877976D01*
X127523809Y-43854166D01*
X127571428Y-43830357D01*
X127642857Y-43830357D01*
X127690476Y-43854166D01*
X127714285Y-43877976D01*
X127738095Y-43925595D01*
X127738095Y-44068452D01*
X127714285Y-44116071D01*
X127690476Y-44139880D01*
X127642857Y-44163690D01*
X127571428Y-44163690D01*
X127904761Y-43830357D02*
X128000000Y-44163690D01*
X128095238Y-43925595D01*
X128190476Y-44163690D01*
X128285714Y-43830357D01*
X128690476Y-44163690D02*
X128690476Y-43901785D01*
X128666666Y-43854166D01*
X128619047Y-43830357D01*
X128523809Y-43830357D01*
X128476190Y-43854166D01*
X128690476Y-44139880D02*
X128642857Y-44163690D01*
X128523809Y-44163690D01*
X128476190Y-44139880D01*
X128452380Y-44092261D01*
X128452380Y-44044642D01*
X128476190Y-43997023D01*
X128523809Y-43973214D01*
X128642857Y-43973214D01*
X128690476Y-43949404D01*
X129000000Y-44163690D02*
X128952380Y-44139880D01*
X128928571Y-44092261D01*
X128928571Y-43663690D01*
X129166666Y-44139880D02*
X129214285Y-44163690D01*
X129309523Y-44163690D01*
X129357142Y-44139880D01*
X129380952Y-44092261D01*
X129380952Y-44068452D01*
X129357142Y-44020833D01*
X129309523Y-43997023D01*
X129238095Y-43997023D01*
X129190476Y-43973214D01*
X129166666Y-43925595D01*
X129166666Y-43901785D01*
X129190476Y-43854166D01*
X129238095Y-43830357D01*
X129309523Y-43830357D01*
X129357142Y-43854166D01*
X129595238Y-44163690D02*
X129595238Y-43663690D01*
X129642857Y-43973214D02*
X129785714Y-44163690D01*
X129785714Y-43830357D02*
X129595238Y-44020833D01*
X130000000Y-44163690D02*
X130000000Y-43830357D01*
X130000000Y-43663690D02*
X129976190Y-43687500D01*
X130000000Y-43711309D01*
X130023809Y-43687500D01*
X130000000Y-43663690D01*
X130000000Y-43711309D01*
D11*
%TO.P,J4,1*%
%TO.N,/PA1*%
X111760000Y-78740000D03*
D12*
%TO.P,J4,2*%
%TO.N,/PA0*%
X111760000Y-76200000D03*
%TO.P,J4,3*%
%TO.N,/PC15*%
X111760000Y-73660000D03*
%TO.P,J4,4*%
%TO.N,/PC14*%
X111760000Y-71120000D03*
%TO.P,J4,5*%
%TO.N,/PB9*%
X111760000Y-68580000D03*
%TO.P,J4,6*%
%TO.N,/PB8*%
X111760000Y-66040000D03*
%TO.P,J4,7*%
%TO.N,/PB7*%
X111760000Y-63500000D03*
%TO.P,J4,8*%
%TO.N,/PB6*%
X111760000Y-60960000D03*
%TO.P,J4,9*%
%TO.N,/PB5*%
X111760000Y-58420000D03*
%TO.P,J4,10*%
%TO.N,/PB4*%
X111760000Y-55880000D03*
%TO.P,J4,11*%
%TO.N,/PB3*%
X111760000Y-53340000D03*
%TO.P,J4,12*%
%TO.N,/PA15*%
X111760000Y-50800000D03*
%TO.P,J4,13*%
%TO.N,GND*%
X111760000Y-48260000D03*
%TO.P,J4,14*%
%TO.N,+3V3*%
X111760000Y-45720000D03*
%TO.P,J4,15*%
%TO.N,GND*%
X111760000Y-43180000D03*
%TD*%
%TO.P,C4,2*%
%TO.N,GND*%
%TA.AperFunction,SMDPad,CuDef*%
G36*
G01*
X130125000Y-71575000D02*
X128875000Y-71575000D01*
G75*
G02*
X128625000Y-71325000I0J250000D01*
G01*
X128625000Y-70400000D01*
G75*
G02*
X128875000Y-70150000I250000J0D01*
G01*
X130125000Y-70150000D01*
G75*
G02*
X130375000Y-70400000I0J-250000D01*
G01*
X130375000Y-71325000D01*
G75*
G02*
X130125000Y-71575000I-250000J0D01*
G01*
G37*
%TD.AperFunction*%
%TO.P,C4,1*%
%TO.N,VDC*%
%TA.AperFunction,SMDPad,CuDef*%
G36*
G01*
X130125000Y-74550000D02*
X128875000Y-74550000D01*
G75*
G02*
X128625000Y-74300000I0J250000D01*
G01*
X128625000Y-73375000D01*
G75*
G02*
X128875000Y-73125000I250000J0D01*
G01*
X130125000Y-73125000D01*
G75*
G02*
X130375000Y-73375000I0J-250000D01*
G01*
X130375000Y-74300000D01*
G75*
G02*
X130125000Y-74550000I-250000J0D01*
G01*
G37*
%TD.AperFunction*%
%TD*%
%TO.P,C6,1*%
%TO.N,+3V3*%
%TA.AperFunction,SMDPad,CuDef*%
G36*
G01*
X116502424Y-60136307D02*
X117386307Y-59252423D01*
G75*
G02*
X117739861Y-59252423I176777J-176777D01*
G01*
X118393935Y-59906497D01*
G75*
G02*
X118393935Y-60260051I-176777J-176777D01*
G01*
X117510051Y-61143935D01*
G75*
G02*
X117156497Y-61143935I-176777J176777D01*
G01*
X116502423Y-60489861D01*
G75*
G02*
X116502423Y-60136307I176777J176777D01*
G01*
G37*
%TD.AperFunction*%
%TO.P,C6,2*%
%TO.N,GND*%
%TA.AperFunction,SMDPad,CuDef*%
G36*
G01*
X118606066Y-62239949D02*
X119489949Y-61356065D01*
G75*
G02*
X119843503Y-61356065I176777J-176777D01*
G01*
X120497577Y-62010139D01*
G75*
G02*
X120497577Y-62363693I-176777J-176777D01*
G01*
X119613693Y-63247577D01*
G75*
G02*
X119260139Y-63247577I-176777J176777D01*
G01*
X118606065Y-62593503D01*
G75*
G02*
X118606065Y-62239949I176777J176777D01*
G01*
G37*
%TD.AperFunction*%
%TD*%
D11*
%TO.P,J1,1*%
%TO.N,/PA2*%
X134620000Y-78740000D03*
D12*
%TO.P,J1,2*%
%TO.N,/PA3*%
X134620000Y-76200000D03*
%TO.P,J1,3*%
%TO.N,/PA4*%
X134620000Y-73660000D03*
%TO.P,J1,4*%
%TO.N,/PA5*%
X134620000Y-71120000D03*
%TO.P,J1,5*%
%TO.N,/PA6*%
X134620000Y-68580000D03*
%TO.P,J1,6*%
%TO.N,/PA7*%
X134620000Y-66040000D03*
%TO.P,J1,7*%
%TO.N,/PB0*%
X134620000Y-63500000D03*
%TO.P,J1,8*%
%TO.N,/PB1*%
X134620000Y-60960000D03*
%TO.P,J1,9*%
%TO.N,/PB2*%
X134620000Y-58420000D03*
%TO.P,J1,10*%
%TO.N,/PA8*%
X134620000Y-55880000D03*
%TO.P,J1,11*%
%TO.N,/PC6*%
X134620000Y-53340000D03*
%TO.P,J1,12*%
%TO.N,/PA11*%
X134620000Y-50800000D03*
%TO.P,J1,13*%
%TO.N,/PA12*%
X134620000Y-48260000D03*
%TO.P,J1,14*%
%TO.N,GND*%
X134620000Y-45720000D03*
%TO.P,J1,15*%
%TO.N,+3V3*%
X134620000Y-43180000D03*
%TD*%
D11*
%TO.P,J2,1*%
%TO.N,+3V3*%
X134620000Y-39000000D03*
D12*
%TO.P,J2,2*%
%TO.N,GND*%
X132080000Y-39000000D03*
%TO.P,J2,3*%
%TO.N,/PA9*%
X129540000Y-39000000D03*
%TO.P,J2,4*%
%TO.N,/PA10*%
X127000000Y-39000000D03*
%TD*%
D11*
%TO.P,J3,1*%
%TO.N,/MCU_RST*%
X121920000Y-39000000D03*
D12*
%TO.P,J3,2*%
%TO.N,/SWDIO*%
X119380000Y-39000000D03*
%TO.P,J3,3*%
%TO.N,GND*%
X116840000Y-39000000D03*
%TO.P,J3,4*%
%TO.N,/SWCLK*%
X114300000Y-39000000D03*
%TO.P,J3,5*%
%TO.N,+3V3*%
X111760000Y-39000000D03*
%TD*%
%TO.P,J5,4*%
%TO.N,GND*%
X119380000Y-79000000D03*
%TO.P,J5,3*%
X121920000Y-79000000D03*
%TO.P,J5,2*%
%TO.N,VDC*%
X124460000Y-79000000D03*
D11*
%TO.P,J5,1*%
X127000000Y-79000000D03*
%TD*%
D13*
%TO.P,Q1,1*%
%TO.N,GND*%
X123050000Y-73000000D03*
%TO.P,Q1,2*%
%TO.N,Net-(C5-Pad1)*%
X123050000Y-74900000D03*
%TO.P,Q1,3*%
%TO.N,VDC*%
X125050000Y-73950000D03*
%TD*%
%TO.P,R1,1*%
%TO.N,VDC*%
%TA.AperFunction,SMDPad,CuDef*%
G36*
G01*
X127625000Y-74550000D02*
X126375000Y-74550000D01*
G75*
G02*
X126125000Y-74300000I0J250000D01*
G01*
X126125000Y-73375000D01*
G75*
G02*
X126375000Y-73125000I250000J0D01*
G01*
X127625000Y-73125000D01*
G75*
G02*
X127875000Y-73375000I0J-250000D01*
G01*
X127875000Y-74300000D01*
G75*
G02*
X127625000Y-74550000I-250000J0D01*
G01*
G37*
%TD.AperFunction*%
%TO.P,R1,2*%
%TO.N,GND*%
%TA.AperFunction,SMDPad,CuDef*%
G36*
G01*
X127625000Y-71575000D02*
X126375000Y-71575000D01*
G75*
G02*
X126125000Y-71325000I0J250000D01*
G01*
X126125000Y-70400000D01*
G75*
G02*
X126375000Y-70150000I250000J0D01*
G01*
X127625000Y-70150000D01*
G75*
G02*
X127875000Y-70400000I0J-250000D01*
G01*
X127875000Y-71325000D01*
G75*
G02*
X127625000Y-71575000I-250000J0D01*
G01*
G37*
%TD.AperFunction*%
%TD*%
%TO.P,U1,1*%
%TO.N,/PB9*%
%TA.AperFunction,SMDPad,CuDef*%
G36*
G01*
X117125988Y-56840990D02*
X116949212Y-56664213D01*
G75*
G02*
X116949212Y-56487437I88388J88388D01*
G01*
X117833095Y-55603554D01*
G75*
G02*
X118009871Y-55603554I88388J-88388D01*
G01*
X118186648Y-55780331D01*
G75*
G02*
X118186648Y-55957107I-88388J-88388D01*
G01*
X117302765Y-56840990D01*
G75*
G02*
X117125989Y-56840990I-88388J88388D01*
G01*
G37*
%TD.AperFunction*%
%TO.P,U1,2*%
%TO.N,/PC14*%
%TA.AperFunction,SMDPad,CuDef*%
G36*
G01*
X117691674Y-57406675D02*
X117514898Y-57229898D01*
G75*
G02*
X117514898Y-57053122I88388J88388D01*
G01*
X118398781Y-56169239D01*
G75*
G02*
X118575557Y-56169239I88388J-88388D01*
G01*
X118752334Y-56346016D01*
G75*
G02*
X118752334Y-56522792I-88388J-88388D01*
G01*
X117868451Y-57406675D01*
G75*
G02*
X117691675Y-57406675I-88388J88388D01*
G01*
G37*
%TD.AperFunction*%
%TO.P,U1,3*%
%TO.N,/PC15*%
%TA.AperFunction,SMDPad,CuDef*%
G36*
G01*
X118257359Y-57972361D02*
X118080583Y-57795584D01*
G75*
G02*
X118080583Y-57618808I88388J88388D01*
G01*
X118964466Y-56734925D01*
G75*
G02*
X119141242Y-56734925I88388J-88388D01*
G01*
X119318019Y-56911702D01*
G75*
G02*
X119318019Y-57088478I-88388J-88388D01*
G01*
X118434136Y-57972361D01*
G75*
G02*
X118257360Y-57972361I-88388J88388D01*
G01*
G37*
%TD.AperFunction*%
%TO.P,U1,4*%
%TO.N,+3V3*%
%TA.AperFunction,SMDPad,CuDef*%
G36*
G01*
X118823044Y-58538046D02*
X118646268Y-58361269D01*
G75*
G02*
X118646268Y-58184493I88388J88388D01*
G01*
X119530151Y-57300610D01*
G75*
G02*
X119706927Y-57300610I88388J-88388D01*
G01*
X119883704Y-57477387D01*
G75*
G02*
X119883704Y-57654163I-88388J-88388D01*
G01*
X118999821Y-58538046D01*
G75*
G02*
X118823045Y-58538046I-88388J88388D01*
G01*
G37*
%TD.AperFunction*%
%TO.P,U1,5*%
%TO.N,GND*%
%TA.AperFunction,SMDPad,CuDef*%
G36*
G01*
X119388730Y-59103732D02*
X119211954Y-58926955D01*
G75*
G02*
X119211954Y-58750179I88388J88388D01*
G01*
X120095837Y-57866296D01*
G75*
G02*
X120272613Y-57866296I88388J-88388D01*
G01*
X120449390Y-58043073D01*
G75*
G02*
X120449390Y-58219849I-88388J-88388D01*
G01*
X119565507Y-59103732D01*
G75*
G02*
X119388731Y-59103732I-88388J88388D01*
G01*
G37*
%TD.AperFunction*%
%TO.P,U1,6*%
%TO.N,/MCU_RST*%
%TA.AperFunction,SMDPad,CuDef*%
G36*
G01*
X119954415Y-59669417D02*
X119777639Y-59492640D01*
G75*
G02*
X119777639Y-59315864I88388J88388D01*
G01*
X120661522Y-58431981D01*
G75*
G02*
X120838298Y-58431981I88388J-88388D01*
G01*
X121015075Y-58608758D01*
G75*
G02*
X121015075Y-58785534I-88388J-88388D01*
G01*
X120131192Y-59669417D01*
G75*
G02*
X119954416Y-59669417I-88388J88388D01*
G01*
G37*
%TD.AperFunction*%
%TO.P,U1,7*%
%TO.N,/PA0*%
%TA.AperFunction,SMDPad,CuDef*%
G36*
G01*
X120520101Y-60235102D02*
X120343325Y-60058325D01*
G75*
G02*
X120343325Y-59881549I88388J88388D01*
G01*
X121227208Y-58997666D01*
G75*
G02*
X121403984Y-58997666I88388J-88388D01*
G01*
X121580761Y-59174443D01*
G75*
G02*
X121580761Y-59351219I-88388J-88388D01*
G01*
X120696878Y-60235102D01*
G75*
G02*
X120520102Y-60235102I-88388J88388D01*
G01*
G37*
%TD.AperFunction*%
%TO.P,U1,8*%
%TO.N,/PA1*%
%TA.AperFunction,SMDPad,CuDef*%
G36*
G01*
X121085786Y-60800788D02*
X120909010Y-60624011D01*
G75*
G02*
X120909010Y-60447235I88388J88388D01*
G01*
X121792893Y-59563352D01*
G75*
G02*
X121969669Y-59563352I88388J-88388D01*
G01*
X122146446Y-59740129D01*
G75*
G02*
X122146446Y-59916905I-88388J-88388D01*
G01*
X121262563Y-60800788D01*
G75*
G02*
X121085787Y-60800788I-88388J88388D01*
G01*
G37*
%TD.AperFunction*%
%TO.P,U1,9*%
%TO.N,/PA2*%
%TA.AperFunction,SMDPad,CuDef*%
G36*
G01*
X123737437Y-60800788D02*
X122853554Y-59916905D01*
G75*
G02*
X122853554Y-59740129I88388J88388D01*
G01*
X123030331Y-59563352D01*
G75*
G02*
X123207107Y-59563352I88388J-88388D01*
G01*
X124090990Y-60447235D01*
G75*
G02*
X124090990Y-60624011I-88388J-88388D01*
G01*
X123914213Y-60800788D01*
G75*
G02*
X123737437Y-60800788I-88388J88388D01*
G01*
G37*
%TD.AperFunction*%
%TO.P,U1,10*%
%TO.N,/PA3*%
%TA.AperFunction,SMDPad,CuDef*%
G36*
G01*
X124303122Y-60235102D02*
X123419239Y-59351219D01*
G75*
G02*
X123419239Y-59174443I88388J88388D01*
G01*
X123596016Y-58997666D01*
G75*
G02*
X123772792Y-58997666I88388J-88388D01*
G01*
X124656675Y-59881549D01*
G75*
G02*
X124656675Y-60058325I-88388J-88388D01*
G01*
X124479898Y-60235102D01*
G75*
G02*
X124303122Y-60235102I-88388J88388D01*
G01*
G37*
%TD.AperFunction*%
%TO.P,U1,11*%
%TO.N,/PA4*%
%TA.AperFunction,SMDPad,CuDef*%
G36*
G01*
X124868808Y-59669417D02*
X123984925Y-58785534D01*
G75*
G02*
X123984925Y-58608758I88388J88388D01*
G01*
X124161702Y-58431981D01*
G75*
G02*
X124338478Y-58431981I88388J-88388D01*
G01*
X125222361Y-59315864D01*
G75*
G02*
X125222361Y-59492640I-88388J-88388D01*
G01*
X125045584Y-59669417D01*
G75*
G02*
X124868808Y-59669417I-88388J88388D01*
G01*
G37*
%TD.AperFunction*%
%TO.P,U1,12*%
%TO.N,/PA5*%
%TA.AperFunction,SMDPad,CuDef*%
G36*
G01*
X125434493Y-59103732D02*
X124550610Y-58219849D01*
G75*
G02*
X124550610Y-58043073I88388J88388D01*
G01*
X124727387Y-57866296D01*
G75*
G02*
X124904163Y-57866296I88388J-88388D01*
G01*
X125788046Y-58750179D01*
G75*
G02*
X125788046Y-58926955I-88388J-88388D01*
G01*
X125611269Y-59103732D01*
G75*
G02*
X125434493Y-59103732I-88388J88388D01*
G01*
G37*
%TD.AperFunction*%
%TO.P,U1,13*%
%TO.N,/PA6*%
%TA.AperFunction,SMDPad,CuDef*%
G36*
G01*
X126000179Y-58538046D02*
X125116296Y-57654163D01*
G75*
G02*
X125116296Y-57477387I88388J88388D01*
G01*
X125293073Y-57300610D01*
G75*
G02*
X125469849Y-57300610I88388J-88388D01*
G01*
X126353732Y-58184493D01*
G75*
G02*
X126353732Y-58361269I-88388J-88388D01*
G01*
X126176955Y-58538046D01*
G75*
G02*
X126000179Y-58538046I-88388J88388D01*
G01*
G37*
%TD.AperFunction*%
%TO.P,U1,14*%
%TO.N,/PA7*%
%TA.AperFunction,SMDPad,CuDef*%
G36*
G01*
X126565864Y-57972361D02*
X125681981Y-57088478D01*
G75*
G02*
X125681981Y-56911702I88388J88388D01*
G01*
X125858758Y-56734925D01*
G75*
G02*
X126035534Y-56734925I88388J-88388D01*
G01*
X126919417Y-57618808D01*
G75*
G02*
X126919417Y-57795584I-88388J-88388D01*
G01*
X126742640Y-57972361D01*
G75*
G02*
X126565864Y-57972361I-88388J88388D01*
G01*
G37*
%TD.AperFunction*%
%TO.P,U1,15*%
%TO.N,/PB0*%
%TA.AperFunction,SMDPad,CuDef*%
G36*
G01*
X127131549Y-57406675D02*
X126247666Y-56522792D01*
G75*
G02*
X126247666Y-56346016I88388J88388D01*
G01*
X126424443Y-56169239D01*
G75*
G02*
X126601219Y-56169239I88388J-88388D01*
G01*
X127485102Y-57053122D01*
G75*
G02*
X127485102Y-57229898I-88388J-88388D01*
G01*
X127308325Y-57406675D01*
G75*
G02*
X127131549Y-57406675I-88388J88388D01*
G01*
G37*
%TD.AperFunction*%
%TO.P,U1,16*%
%TO.N,/PB1*%
%TA.AperFunction,SMDPad,CuDef*%
G36*
G01*
X127697235Y-56840990D02*
X126813352Y-55957107D01*
G75*
G02*
X126813352Y-55780331I88388J88388D01*
G01*
X126990129Y-55603554D01*
G75*
G02*
X127166905Y-55603554I88388J-88388D01*
G01*
X128050788Y-56487437D01*
G75*
G02*
X128050788Y-56664213I-88388J-88388D01*
G01*
X127874011Y-56840990D01*
G75*
G02*
X127697235Y-56840990I-88388J88388D01*
G01*
G37*
%TD.AperFunction*%
%TO.P,U1,17*%
%TO.N,/PB2*%
%TA.AperFunction,SMDPad,CuDef*%
G36*
G01*
X126990128Y-54896446D02*
X126813352Y-54719669D01*
G75*
G02*
X126813352Y-54542893I88388J88388D01*
G01*
X127697235Y-53659010D01*
G75*
G02*
X127874011Y-53659010I88388J-88388D01*
G01*
X128050788Y-53835787D01*
G75*
G02*
X128050788Y-54012563I-88388J-88388D01*
G01*
X127166905Y-54896446D01*
G75*
G02*
X126990129Y-54896446I-88388J88388D01*
G01*
G37*
%TD.AperFunction*%
%TO.P,U1,18*%
%TO.N,/PA8*%
%TA.AperFunction,SMDPad,CuDef*%
G36*
G01*
X126424442Y-54330761D02*
X126247666Y-54153984D01*
G75*
G02*
X126247666Y-53977208I88388J88388D01*
G01*
X127131549Y-53093325D01*
G75*
G02*
X127308325Y-53093325I88388J-88388D01*
G01*
X127485102Y-53270102D01*
G75*
G02*
X127485102Y-53446878I-88388J-88388D01*
G01*
X126601219Y-54330761D01*
G75*
G02*
X126424443Y-54330761I-88388J88388D01*
G01*
G37*
%TD.AperFunction*%
%TO.P,U1,19*%
%TO.N,/PA9*%
%TA.AperFunction,SMDPad,CuDef*%
G36*
G01*
X125858757Y-53765075D02*
X125681981Y-53588298D01*
G75*
G02*
X125681981Y-53411522I88388J88388D01*
G01*
X126565864Y-52527639D01*
G75*
G02*
X126742640Y-52527639I88388J-88388D01*
G01*
X126919417Y-52704416D01*
G75*
G02*
X126919417Y-52881192I-88388J-88388D01*
G01*
X126035534Y-53765075D01*
G75*
G02*
X125858758Y-53765075I-88388J88388D01*
G01*
G37*
%TD.AperFunction*%
%TO.P,U1,20*%
%TO.N,/PC6*%
%TA.AperFunction,SMDPad,CuDef*%
G36*
G01*
X125293072Y-53199390D02*
X125116296Y-53022613D01*
G75*
G02*
X125116296Y-52845837I88388J88388D01*
G01*
X126000179Y-51961954D01*
G75*
G02*
X126176955Y-51961954I88388J-88388D01*
G01*
X126353732Y-52138731D01*
G75*
G02*
X126353732Y-52315507I-88388J-88388D01*
G01*
X125469849Y-53199390D01*
G75*
G02*
X125293073Y-53199390I-88388J88388D01*
G01*
G37*
%TD.AperFunction*%
%TO.P,U1,21*%
%TO.N,/PA10*%
%TA.AperFunction,SMDPad,CuDef*%
G36*
G01*
X124727386Y-52633704D02*
X124550610Y-52456927D01*
G75*
G02*
X124550610Y-52280151I88388J88388D01*
G01*
X125434493Y-51396268D01*
G75*
G02*
X125611269Y-51396268I88388J-88388D01*
G01*
X125788046Y-51573045D01*
G75*
G02*
X125788046Y-51749821I-88388J-88388D01*
G01*
X124904163Y-52633704D01*
G75*
G02*
X124727387Y-52633704I-88388J88388D01*
G01*
G37*
%TD.AperFunction*%
%TO.P,U1,22*%
%TO.N,/PA11*%
%TA.AperFunction,SMDPad,CuDef*%
G36*
G01*
X124161701Y-52068019D02*
X123984925Y-51891242D01*
G75*
G02*
X123984925Y-51714466I88388J88388D01*
G01*
X124868808Y-50830583D01*
G75*
G02*
X125045584Y-50830583I88388J-88388D01*
G01*
X125222361Y-51007360D01*
G75*
G02*
X125222361Y-51184136I-88388J-88388D01*
G01*
X124338478Y-52068019D01*
G75*
G02*
X124161702Y-52068019I-88388J88388D01*
G01*
G37*
%TD.AperFunction*%
%TO.P,U1,23*%
%TO.N,/PA12*%
%TA.AperFunction,SMDPad,CuDef*%
G36*
G01*
X123596015Y-51502334D02*
X123419239Y-51325557D01*
G75*
G02*
X123419239Y-51148781I88388J88388D01*
G01*
X124303122Y-50264898D01*
G75*
G02*
X124479898Y-50264898I88388J-88388D01*
G01*
X124656675Y-50441675D01*
G75*
G02*
X124656675Y-50618451I-88388J-88388D01*
G01*
X123772792Y-51502334D01*
G75*
G02*
X123596016Y-51502334I-88388J88388D01*
G01*
G37*
%TD.AperFunction*%
%TO.P,U1,24*%
%TO.N,/SWDIO*%
%TA.AperFunction,SMDPad,CuDef*%
G36*
G01*
X123030330Y-50936648D02*
X122853554Y-50759871D01*
G75*
G02*
X122853554Y-50583095I88388J88388D01*
G01*
X123737437Y-49699212D01*
G75*
G02*
X123914213Y-49699212I88388J-88388D01*
G01*
X124090990Y-49875989D01*
G75*
G02*
X124090990Y-50052765I-88388J-88388D01*
G01*
X123207107Y-50936648D01*
G75*
G02*
X123030331Y-50936648I-88388J88388D01*
G01*
G37*
%TD.AperFunction*%
%TO.P,U1,25*%
%TO.N,/SWCLK*%
%TA.AperFunction,SMDPad,CuDef*%
G36*
G01*
X121792893Y-50936648D02*
X120909010Y-50052765D01*
G75*
G02*
X120909010Y-49875989I88388J88388D01*
G01*
X121085787Y-49699212D01*
G75*
G02*
X121262563Y-49699212I88388J-88388D01*
G01*
X122146446Y-50583095D01*
G75*
G02*
X122146446Y-50759871I-88388J-88388D01*
G01*
X121969669Y-50936648D01*
G75*
G02*
X121792893Y-50936648I-88388J88388D01*
G01*
G37*
%TD.AperFunction*%
%TO.P,U1,26*%
%TO.N,/PA15*%
%TA.AperFunction,SMDPad,CuDef*%
G36*
G01*
X121227208Y-51502334D02*
X120343325Y-50618451D01*
G75*
G02*
X120343325Y-50441675I88388J88388D01*
G01*
X120520102Y-50264898D01*
G75*
G02*
X120696878Y-50264898I88388J-88388D01*
G01*
X121580761Y-51148781D01*
G75*
G02*
X121580761Y-51325557I-88388J-88388D01*
G01*
X121403984Y-51502334D01*
G75*
G02*
X121227208Y-51502334I-88388J88388D01*
G01*
G37*
%TD.AperFunction*%
%TO.P,U1,27*%
%TO.N,/PB3*%
%TA.AperFunction,SMDPad,CuDef*%
G36*
G01*
X120661522Y-52068019D02*
X119777639Y-51184136D01*
G75*
G02*
X119777639Y-51007360I88388J88388D01*
G01*
X119954416Y-50830583D01*
G75*
G02*
X120131192Y-50830583I88388J-88388D01*
G01*
X121015075Y-51714466D01*
G75*
G02*
X121015075Y-51891242I-88388J-88388D01*
G01*
X120838298Y-52068019D01*
G75*
G02*
X120661522Y-52068019I-88388J88388D01*
G01*
G37*
%TD.AperFunction*%
%TO.P,U1,28*%
%TO.N,/PB4*%
%TA.AperFunction,SMDPad,CuDef*%
G36*
G01*
X120095837Y-52633704D02*
X119211954Y-51749821D01*
G75*
G02*
X119211954Y-51573045I88388J88388D01*
G01*
X119388731Y-51396268D01*
G75*
G02*
X119565507Y-51396268I88388J-88388D01*
G01*
X120449390Y-52280151D01*
G75*
G02*
X120449390Y-52456927I-88388J-88388D01*
G01*
X120272613Y-52633704D01*
G75*
G02*
X120095837Y-52633704I-88388J88388D01*
G01*
G37*
%TD.AperFunction*%
%TO.P,U1,29*%
%TO.N,/PB5*%
%TA.AperFunction,SMDPad,CuDef*%
G36*
G01*
X119530151Y-53199390D02*
X118646268Y-52315507D01*
G75*
G02*
X118646268Y-52138731I88388J88388D01*
G01*
X118823045Y-51961954D01*
G75*
G02*
X118999821Y-51961954I88388J-88388D01*
G01*
X119883704Y-52845837D01*
G75*
G02*
X119883704Y-53022613I-88388J-88388D01*
G01*
X119706927Y-53199390D01*
G75*
G02*
X119530151Y-53199390I-88388J88388D01*
G01*
G37*
%TD.AperFunction*%
%TO.P,U1,30*%
%TO.N,/PB6*%
%TA.AperFunction,SMDPad,CuDef*%
G36*
G01*
X118964466Y-53765075D02*
X118080583Y-52881192D01*
G75*
G02*
X118080583Y-52704416I88388J88388D01*
G01*
X118257360Y-52527639D01*
G75*
G02*
X118434136Y-52527639I88388J-88388D01*
G01*
X119318019Y-53411522D01*
G75*
G02*
X119318019Y-53588298I-88388J-88388D01*
G01*
X119141242Y-53765075D01*
G75*
G02*
X118964466Y-53765075I-88388J88388D01*
G01*
G37*
%TD.AperFunction*%
%TO.P,U1,31*%
%TO.N,/PB7*%
%TA.AperFunction,SMDPad,CuDef*%
G36*
G01*
X118398781Y-54330761D02*
X117514898Y-53446878D01*
G75*
G02*
X117514898Y-53270102I88388J88388D01*
G01*
X117691675Y-53093325D01*
G75*
G02*
X117868451Y-53093325I88388J-88388D01*
G01*
X118752334Y-53977208D01*
G75*
G02*
X118752334Y-54153984I-88388J-88388D01*
G01*
X118575557Y-54330761D01*
G75*
G02*
X118398781Y-54330761I-88388J88388D01*
G01*
G37*
%TD.AperFunction*%
%TO.P,U1,32*%
%TO.N,/PB8*%
%TA.AperFunction,SMDPad,CuDef*%
G36*
G01*
X117833095Y-54896446D02*
X116949212Y-54012563D01*
G75*
G02*
X116949212Y-53835787I88388J88388D01*
G01*
X117125989Y-53659010D01*
G75*
G02*
X117302765Y-53659010I88388J-88388D01*
G01*
X118186648Y-54542893D01*
G75*
G02*
X118186648Y-54719669I-88388J-88388D01*
G01*
X118009871Y-54896446D01*
G75*
G02*
X117833095Y-54896446I-88388J88388D01*
G01*
G37*
%TD.AperFunction*%
%TD*%
%TO.P,C2,1*%
%TO.N,+3V3*%
%TA.AperFunction,SMDPad,CuDef*%
G36*
G01*
X115200000Y-65725000D02*
X115200000Y-64475000D01*
G75*
G02*
X115450000Y-64225000I250000J0D01*
G01*
X116375000Y-64225000D01*
G75*
G02*
X116625000Y-64475000I0J-250000D01*
G01*
X116625000Y-65725000D01*
G75*
G02*
X116375000Y-65975000I-250000J0D01*
G01*
X115450000Y-65975000D01*
G75*
G02*
X115200000Y-65725000I0J250000D01*
G01*
G37*
%TD.AperFunction*%
%TO.P,C2,2*%
%TO.N,GND*%
%TA.AperFunction,SMDPad,CuDef*%
G36*
G01*
X118175000Y-65725000D02*
X118175000Y-64475000D01*
G75*
G02*
X118425000Y-64225000I250000J0D01*
G01*
X119350000Y-64225000D01*
G75*
G02*
X119600000Y-64475000I0J-250000D01*
G01*
X119600000Y-65725000D01*
G75*
G02*
X119350000Y-65975000I-250000J0D01*
G01*
X118425000Y-65975000D01*
G75*
G02*
X118175000Y-65725000I0J250000D01*
G01*
G37*
%TD.AperFunction*%
%TD*%
D14*
%TO.N,GND*%
X118887500Y-67500000D03*
X118172653Y-41847347D03*
X116840000Y-43180000D03*
X120650000Y-41910000D03*
X123050000Y-73000000D03*
X123935000Y-66975000D03*
%TO.N,+3V3*%
X115912500Y-67500000D03*
%TO.N,Net-(C5-Pad1)*%
X123050000Y-74900000D03*
%TO.N,/PA0*%
X115943530Y-62943530D03*
X120200000Y-60300000D03*
%TO.N,/PA1*%
X122000000Y-60800000D03*
X114624078Y-69300000D03*
%TO.N,/PA9*%
X127600000Y-51900000D03*
%TO.N,/PA10*%
X126900000Y-50300000D03*
%TO.N,/MCU_RST*%
X121700000Y-57700000D03*
%TD*%
D15*
%TO.N,GND*%
X118887500Y-62966142D02*
X119551821Y-62301821D01*
X118887500Y-65100000D02*
X118887500Y-62966142D01*
X119341017Y-62091017D02*
X119551821Y-62301821D01*
X119341017Y-58974669D02*
X119341017Y-62091017D01*
X119830672Y-58485014D02*
X119341017Y-58974669D01*
X118887500Y-65100000D02*
X118887500Y-67500000D01*
X127000000Y-70862500D02*
X129500000Y-70862500D01*
X116840000Y-39000000D02*
X116840000Y-40514694D01*
X116840000Y-40514694D02*
X118172653Y-41847347D01*
X116840000Y-43180000D02*
X111760000Y-43180000D01*
%TO.N,+3V3*%
X117448179Y-59736135D02*
X119264986Y-57919328D01*
X117448179Y-60198179D02*
X117448179Y-59736135D01*
X115912500Y-65100000D02*
X115912500Y-67500000D01*
X115912500Y-65100000D02*
X115912500Y-64287500D01*
X117448179Y-62751821D02*
X117448179Y-60198179D01*
X115912500Y-64287500D02*
X117448179Y-62751821D01*
D16*
%TO.N,VDC*%
X124460000Y-79000000D02*
X127000000Y-79000000D01*
X127000000Y-76337500D02*
X129500000Y-73837500D01*
X127000000Y-79000000D02*
X127000000Y-76337500D01*
X127000000Y-76460000D02*
X127000000Y-76337500D01*
X124460000Y-79000000D02*
X127000000Y-76460000D01*
X127000000Y-73837500D02*
X127000000Y-76460000D01*
X127000000Y-73837500D02*
X129500000Y-73837500D01*
X126887500Y-73950000D02*
X127000000Y-73837500D01*
X125050000Y-73950000D02*
X126887500Y-73950000D01*
D17*
%TO.N,/PB9*%
X115177728Y-56222272D02*
X117567930Y-56222272D01*
X114735039Y-56664961D02*
X115177728Y-56222272D01*
X113458916Y-66881084D02*
X113458916Y-63073904D01*
X111760000Y-68580000D02*
X113458916Y-66881084D01*
X113458916Y-63073904D02*
X114735039Y-61797779D01*
X114735039Y-61797779D02*
X114735039Y-56664961D01*
%TO.N,/PC14*%
X111760000Y-70319002D02*
X111760000Y-71120000D01*
X112935001Y-69144001D02*
X111760000Y-70319002D01*
X112935001Y-68041409D02*
X112935001Y-69144001D01*
X113908925Y-67067485D02*
X112935001Y-68041409D01*
X113908926Y-63260302D02*
X113908925Y-67067485D01*
X115197388Y-57202612D02*
X115185049Y-57214951D01*
X118133616Y-56787957D02*
X117718961Y-57202612D01*
X117718961Y-57202612D02*
X115197388Y-57202612D01*
X115185049Y-57214951D02*
X115185049Y-61984179D01*
X115185049Y-61984179D02*
X113908926Y-63260302D01*
%TO.N,/PC15*%
X113398916Y-72021084D02*
X111760000Y-73660000D01*
X113398916Y-68213904D02*
X113398916Y-72021084D01*
X114358935Y-67253885D02*
X113398916Y-68213904D01*
X118699301Y-57353643D02*
X118381118Y-57353643D01*
X116104190Y-59630571D02*
X116104190Y-61757564D01*
X118381118Y-57353643D02*
X116104190Y-59630571D01*
X116104190Y-61757564D02*
X114358935Y-63502819D01*
X114358935Y-63502819D02*
X114358935Y-67253885D01*
%TO.N,/PA0*%
X111760000Y-76200000D02*
X113899078Y-74060922D01*
X113899078Y-68350152D02*
X114808945Y-67440285D01*
X113899078Y-74060922D02*
X113899078Y-68350152D01*
X114808945Y-67440285D02*
X114808945Y-64078115D01*
X114808945Y-64078115D02*
X115943530Y-62943530D01*
X120278427Y-60300000D02*
X120962043Y-59616384D01*
X120200000Y-60300000D02*
X120278427Y-60300000D01*
%TO.N,/PA1*%
X121527728Y-60182070D02*
X121527728Y-60327728D01*
X121527728Y-60327728D02*
X122000000Y-60800000D01*
X114624078Y-75875922D02*
X111760000Y-78740000D01*
X114624078Y-69300000D02*
X114624078Y-75875922D01*
%TO.N,/PA2*%
X132036070Y-76156070D02*
X134620000Y-78740000D01*
X123472272Y-60182070D02*
X123472272Y-60535623D01*
X132036070Y-69099421D02*
X132036070Y-76156070D01*
X123472272Y-60535623D02*
X132036070Y-69099421D01*
%TO.N,/PA3*%
X134620000Y-76200000D02*
X132486080Y-74066080D01*
X132486080Y-74066080D02*
X132486080Y-68713920D01*
X132486080Y-68713920D02*
X131999980Y-68227820D01*
X124821573Y-60400000D02*
X124037957Y-59616384D01*
X125300000Y-60400000D02*
X124821573Y-60400000D01*
X131999980Y-67099980D02*
X125300000Y-60400000D01*
X131999980Y-68227820D02*
X131999980Y-67099980D01*
%TO.N,/PA4*%
X134620000Y-73660000D02*
X132994989Y-72034989D01*
X132994989Y-68531399D02*
X132449990Y-67986400D01*
X132994989Y-72034989D02*
X132994989Y-68531399D01*
X132449990Y-66897046D02*
X124603643Y-59050699D01*
X132449990Y-67986400D02*
X132449990Y-66897046D01*
%TO.N,/PA5*%
X134620000Y-71120000D02*
X133444999Y-69944999D01*
X132900000Y-67800000D02*
X132900000Y-66036410D01*
X133444999Y-69944999D02*
X133444999Y-68344999D01*
X133444999Y-68344999D02*
X132900000Y-67800000D01*
X126884314Y-60200000D02*
X125169328Y-58485014D01*
X127063590Y-60200000D02*
X126884314Y-60200000D01*
X132900000Y-66036410D02*
X127063590Y-60200000D01*
%TO.N,/PA6*%
X125735014Y-57919328D02*
X125735014Y-58235014D01*
X134620000Y-68580000D02*
X133400000Y-67360000D01*
X133400000Y-65900000D02*
X133050000Y-65550000D01*
X133400000Y-67360000D02*
X133400000Y-65900000D01*
X125735014Y-58235014D02*
X133050000Y-65550000D01*
X133050000Y-65550000D02*
X133100000Y-65600000D01*
%TO.N,/PA7*%
X134620000Y-65672944D02*
X134620000Y-66040000D01*
X126300699Y-57353643D02*
X134620000Y-65672944D01*
%TO.N,/PB0*%
X133578427Y-63500000D02*
X134620000Y-63500000D01*
X126866384Y-56787957D02*
X133578427Y-63500000D01*
%TO.N,/PB1*%
X132169798Y-60960000D02*
X127432070Y-56222272D01*
X134620000Y-60960000D02*
X132169798Y-60960000D01*
%TO.N,/PA9*%
X126300699Y-53146357D02*
X126353643Y-53146357D01*
X126353643Y-53146357D02*
X127600000Y-51900000D01*
%TO.N,/PA10*%
X125169328Y-52014986D02*
X125185014Y-52014986D01*
X125185014Y-52014986D02*
X126900000Y-50300000D01*
%TO.N,/MCU_RST*%
X120396357Y-59050699D02*
X120396357Y-59003643D01*
X120396357Y-59003643D02*
X121700000Y-57700000D01*
%TO.N,/SWDIO*%
X123472272Y-50317930D02*
X123472272Y-46072272D01*
X119380000Y-41980000D02*
X119380000Y-39000000D01*
X123472272Y-46072272D02*
X119380000Y-41980000D01*
%TO.N,/SWCLK*%
X121527728Y-46227728D02*
X114300000Y-39000000D01*
X121527728Y-50317930D02*
X121527728Y-46227728D01*
%TO.N,/PB8*%
X117567930Y-54277728D02*
X116158682Y-54277728D01*
X114285031Y-56151379D02*
X114285030Y-61611380D01*
X116158682Y-54277728D02*
X114285031Y-56151379D01*
X112935001Y-64864999D02*
X111760000Y-66040000D01*
X112935001Y-62961409D02*
X112935001Y-64864999D01*
X114285030Y-61611380D02*
X112935001Y-62961409D01*
%TO.N,/PB7*%
X111760000Y-63500000D02*
X113835021Y-61424979D01*
X113835021Y-61424979D02*
X113835021Y-55964979D01*
X117718961Y-53297388D02*
X118133616Y-53712043D01*
X116502612Y-53297388D02*
X117718961Y-53297388D01*
X113835021Y-55964979D02*
X116502612Y-53297388D01*
%TO.N,/PB6*%
X118284647Y-52731703D02*
X116404707Y-52731703D01*
X118699301Y-53146357D02*
X118284647Y-52731703D01*
X116404707Y-52731703D02*
X113385011Y-55751399D01*
X113385011Y-59334989D02*
X113385011Y-55751399D01*
X111760000Y-60960000D02*
X113385011Y-59334989D01*
%TO.N,/PB5*%
X118850331Y-52166017D02*
X116333983Y-52166017D01*
X119264986Y-52580672D02*
X118850331Y-52166017D01*
X116333983Y-52166017D02*
X112935001Y-55564999D01*
X112935001Y-57244999D02*
X111760000Y-58420000D01*
X112935001Y-55564999D02*
X112935001Y-57244999D01*
%TO.N,/PB4*%
X116039668Y-51600332D02*
X111760000Y-55880000D01*
X119416018Y-51600332D02*
X116039668Y-51600332D01*
X119830672Y-52014986D02*
X119416018Y-51600332D01*
%TO.N,/PB3*%
X114065354Y-51034646D02*
X111760000Y-53340000D01*
X119981702Y-51034646D02*
X114065354Y-51034646D01*
X120396357Y-51449301D02*
X119981702Y-51034646D01*
%TO.N,/PA15*%
X112091039Y-50468961D02*
X111760000Y-50800000D01*
X120547388Y-50468961D02*
X112091039Y-50468961D01*
X120962043Y-50883616D02*
X120547388Y-50468961D01*
%TO.N,/PA12*%
X124037957Y-50565433D02*
X126343390Y-48260000D01*
X126343390Y-48260000D02*
X134620000Y-48260000D01*
X124037957Y-50883616D02*
X124037957Y-50565433D01*
%TO.N,/PA11*%
X124603643Y-51449301D02*
X124650699Y-51449301D01*
X124650699Y-51449301D02*
X127389990Y-48710010D01*
X132530010Y-48710010D02*
X134620000Y-50800000D01*
X127389990Y-48710010D02*
X132530010Y-48710010D01*
%TO.N,/PC6*%
X126149669Y-52166017D02*
X126149669Y-52150331D01*
X125735014Y-52580672D02*
X126149669Y-52166017D01*
X126149669Y-52150331D02*
X127500000Y-50800000D01*
X132080000Y-50800000D02*
X134620000Y-53340000D01*
X127500000Y-50800000D02*
X132080000Y-50800000D01*
%TO.N,/PA8*%
X134620000Y-55880000D02*
X131880000Y-55880000D01*
X127281039Y-53297388D02*
X126866384Y-53712043D01*
X129297388Y-53297388D02*
X127281039Y-53297388D01*
X131880000Y-55880000D02*
X129297388Y-53297388D01*
%TO.N,/PB2*%
X127432070Y-54277728D02*
X131054342Y-57900000D01*
X131054342Y-57900000D02*
X131054342Y-57954342D01*
X131520000Y-58420000D02*
X134620000Y-58420000D01*
X131054342Y-57954342D02*
X131520000Y-58420000D01*
%TD*%
D18*
%TO.N,GND*%
G36*
X136640000Y-80845000D02*
G01*
X109655000Y-80845000D01*
X109655000Y-77890000D01*
X110548259Y-77890000D01*
X110548259Y-79590000D01*
X110555210Y-79660572D01*
X110575795Y-79728432D01*
X110609223Y-79790973D01*
X110654210Y-79845790D01*
X110709027Y-79890777D01*
X110771568Y-79924205D01*
X110839428Y-79944790D01*
X110910000Y-79951741D01*
X112610000Y-79951741D01*
X112680572Y-79944790D01*
X112748432Y-79924205D01*
X112810973Y-79890777D01*
X112865790Y-79845790D01*
X112910777Y-79790973D01*
X112944205Y-79728432D01*
X112964790Y-79660572D01*
X112971741Y-79590000D01*
X112971741Y-79204087D01*
X118187334Y-79204087D01*
X118250066Y-79432843D01*
X118356221Y-79644965D01*
X118501719Y-79832302D01*
X118680969Y-79987654D01*
X118887082Y-80105051D01*
X119112138Y-80179981D01*
X119175914Y-80192665D01*
X119365000Y-80119900D01*
X119365000Y-79015000D01*
X119395000Y-79015000D01*
X119395000Y-80119900D01*
X119584086Y-80192665D01*
X119647862Y-80179981D01*
X119872918Y-80105051D01*
X120079031Y-79987654D01*
X120258281Y-79832302D01*
X120403779Y-79644965D01*
X120509934Y-79432843D01*
X120572666Y-79204087D01*
X120727334Y-79204087D01*
X120790066Y-79432843D01*
X120896221Y-79644965D01*
X121041719Y-79832302D01*
X121220969Y-79987654D01*
X121427082Y-80105051D01*
X121652138Y-80179981D01*
X121715914Y-80192665D01*
X121905000Y-80119900D01*
X121905000Y-79015000D01*
X120800092Y-79015000D01*
X120727334Y-79204087D01*
X120572666Y-79204087D01*
X120499908Y-79015000D01*
X119395000Y-79015000D01*
X119365000Y-79015000D01*
X118260092Y-79015000D01*
X118187334Y-79204087D01*
X112971741Y-79204087D01*
X112971741Y-78795913D01*
X118187334Y-78795913D01*
X118260092Y-78985000D01*
X119365000Y-78985000D01*
X119365000Y-77880100D01*
X119395000Y-77880100D01*
X119395000Y-78985000D01*
X120499908Y-78985000D01*
X120572666Y-78795913D01*
X120727334Y-78795913D01*
X120800092Y-78985000D01*
X121905000Y-78985000D01*
X121905000Y-77880100D01*
X121935000Y-77880100D01*
X121935000Y-78985000D01*
X121955000Y-78985000D01*
X121955000Y-79015000D01*
X121935000Y-79015000D01*
X121935000Y-80119900D01*
X122124086Y-80192665D01*
X122187862Y-80179981D01*
X122412918Y-80105051D01*
X122619031Y-79987654D01*
X122798281Y-79832302D01*
X122943779Y-79644965D01*
X123049934Y-79432843D01*
X123112666Y-79204087D01*
X123039909Y-79015002D01*
X123094898Y-79015002D01*
X123119678Y-79266607D01*
X123197445Y-79522968D01*
X123323730Y-79759231D01*
X123493682Y-79966318D01*
X123700769Y-80136270D01*
X123937032Y-80262555D01*
X124193393Y-80340322D01*
X124393191Y-80360000D01*
X124393194Y-80360000D01*
X124460000Y-80366580D01*
X124526806Y-80360000D01*
X126933191Y-80360000D01*
X127000000Y-80366580D01*
X127066809Y-80360000D01*
X127266607Y-80340322D01*
X127522968Y-80262555D01*
X127618034Y-80211741D01*
X127850000Y-80211741D01*
X127920572Y-80204790D01*
X127988432Y-80184205D01*
X128050973Y-80150777D01*
X128105790Y-80105790D01*
X128150777Y-80050973D01*
X128184205Y-79988432D01*
X128204790Y-79920572D01*
X128211741Y-79850000D01*
X128211741Y-79618034D01*
X128262555Y-79522968D01*
X128340322Y-79266607D01*
X128366580Y-79000000D01*
X128360000Y-78933191D01*
X128360000Y-76900830D01*
X130414428Y-74846403D01*
X130452168Y-74815431D01*
X130464865Y-74808644D01*
X130557566Y-74732566D01*
X130633644Y-74639865D01*
X130690175Y-74534103D01*
X130716985Y-74445724D01*
X130762555Y-74360468D01*
X130840322Y-74104107D01*
X130866580Y-73837500D01*
X130840322Y-73570893D01*
X130762555Y-73314532D01*
X130716985Y-73229276D01*
X130690175Y-73140897D01*
X130633644Y-73035135D01*
X130557566Y-72942434D01*
X130464865Y-72866356D01*
X130452168Y-72859569D01*
X130259231Y-72701230D01*
X130022968Y-72574945D01*
X129766607Y-72497178D01*
X129566809Y-72477500D01*
X129566806Y-72477500D01*
X129500000Y-72470920D01*
X129433193Y-72477500D01*
X127066809Y-72477500D01*
X127000000Y-72470920D01*
X126999999Y-72470920D01*
X126978062Y-72473081D01*
X126933191Y-72477500D01*
X126733393Y-72497178D01*
X126477032Y-72574945D01*
X126448866Y-72590000D01*
X124983191Y-72590000D01*
X124783393Y-72609678D01*
X124527032Y-72687445D01*
X124290769Y-72813730D01*
X124083682Y-72983682D01*
X123913730Y-73190769D01*
X123861088Y-73289255D01*
X123860000Y-73105000D01*
X123770000Y-73015000D01*
X123065000Y-73015000D01*
X123065000Y-73670000D01*
X123155000Y-73760000D01*
X123500000Y-73761742D01*
X123570572Y-73754791D01*
X123638433Y-73734206D01*
X123700973Y-73700777D01*
X123708581Y-73694533D01*
X123683420Y-73950000D01*
X123708581Y-74205467D01*
X123700973Y-74199223D01*
X123638432Y-74165795D01*
X123570572Y-74145210D01*
X123500000Y-74138259D01*
X122600000Y-74138259D01*
X122529428Y-74145210D01*
X122461568Y-74165795D01*
X122399027Y-74199223D01*
X122344210Y-74244210D01*
X122299223Y-74299027D01*
X122265795Y-74361568D01*
X122245210Y-74429428D01*
X122238259Y-74500000D01*
X122238259Y-75300000D01*
X122245210Y-75370572D01*
X122265795Y-75438432D01*
X122299223Y-75500973D01*
X122344210Y-75555790D01*
X122399027Y-75600777D01*
X122461568Y-75634205D01*
X122529428Y-75654790D01*
X122600000Y-75661741D01*
X123500000Y-75661741D01*
X123570572Y-75654790D01*
X123638432Y-75634205D01*
X123700973Y-75600777D01*
X123755790Y-75555790D01*
X123800777Y-75500973D01*
X123834205Y-75438432D01*
X123854790Y-75370572D01*
X123861741Y-75300000D01*
X123861741Y-74611966D01*
X123913730Y-74709231D01*
X124083682Y-74916318D01*
X124290769Y-75086270D01*
X124527032Y-75212555D01*
X124783393Y-75290322D01*
X124983191Y-75310000D01*
X125640001Y-75310000D01*
X125640001Y-75896668D01*
X123545578Y-77991092D01*
X123493682Y-78033682D01*
X123323730Y-78240769D01*
X123197445Y-78477032D01*
X123119678Y-78733393D01*
X123094898Y-78984998D01*
X123039909Y-78984998D01*
X123112666Y-78795913D01*
X123049934Y-78567157D01*
X122943779Y-78355035D01*
X122798281Y-78167698D01*
X122619031Y-78012346D01*
X122412918Y-77894949D01*
X122187862Y-77820019D01*
X122124086Y-77807335D01*
X121935000Y-77880100D01*
X121905000Y-77880100D01*
X121715914Y-77807335D01*
X121652138Y-77820019D01*
X121427082Y-77894949D01*
X121220969Y-78012346D01*
X121041719Y-78167698D01*
X120896221Y-78355035D01*
X120790066Y-78567157D01*
X120727334Y-78795913D01*
X120572666Y-78795913D01*
X120509934Y-78567157D01*
X120403779Y-78355035D01*
X120258281Y-78167698D01*
X120079031Y-78012346D01*
X119872918Y-77894949D01*
X119647862Y-77820019D01*
X119584086Y-77807335D01*
X119395000Y-77880100D01*
X119365000Y-77880100D01*
X119175914Y-77807335D01*
X119112138Y-77820019D01*
X118887082Y-77894949D01*
X118680969Y-78012346D01*
X118501719Y-78167698D01*
X118356221Y-78355035D01*
X118250066Y-78567157D01*
X118187334Y-78795913D01*
X112971741Y-78795913D01*
X112971741Y-78214152D01*
X114950182Y-76235712D01*
X114968684Y-76220528D01*
X114990952Y-76193394D01*
X115029291Y-76146678D01*
X115069798Y-76070894D01*
X115074327Y-76062421D01*
X115102060Y-75970998D01*
X115109078Y-75899742D01*
X115109078Y-75899739D01*
X115111424Y-75875922D01*
X115109078Y-75852105D01*
X115109078Y-73400000D01*
X122238258Y-73400000D01*
X122245209Y-73470572D01*
X122265794Y-73538433D01*
X122299223Y-73600973D01*
X122344210Y-73655790D01*
X122399027Y-73700777D01*
X122461567Y-73734206D01*
X122529428Y-73754791D01*
X122600000Y-73761742D01*
X122945000Y-73760000D01*
X123035000Y-73670000D01*
X123035000Y-73015000D01*
X122330000Y-73015000D01*
X122240000Y-73105000D01*
X122238258Y-73400000D01*
X115109078Y-73400000D01*
X115109078Y-72600000D01*
X122238258Y-72600000D01*
X122240000Y-72895000D01*
X122330000Y-72985000D01*
X123035000Y-72985000D01*
X123035000Y-72330000D01*
X123065000Y-72330000D01*
X123065000Y-72985000D01*
X123770000Y-72985000D01*
X123860000Y-72895000D01*
X123861742Y-72600000D01*
X123854791Y-72529428D01*
X123834206Y-72461567D01*
X123800777Y-72399027D01*
X123755790Y-72344210D01*
X123700973Y-72299223D01*
X123638433Y-72265794D01*
X123570572Y-72245209D01*
X123500000Y-72238258D01*
X123155000Y-72240000D01*
X123065000Y-72330000D01*
X123035000Y-72330000D01*
X122945000Y-72240000D01*
X122600000Y-72238258D01*
X122529428Y-72245209D01*
X122461567Y-72265794D01*
X122399027Y-72299223D01*
X122344210Y-72344210D01*
X122299223Y-72399027D01*
X122265794Y-72461567D01*
X122245209Y-72529428D01*
X122238258Y-72600000D01*
X115109078Y-72600000D01*
X115109078Y-71575000D01*
X125763258Y-71575000D01*
X125770209Y-71645572D01*
X125790794Y-71713433D01*
X125824223Y-71775973D01*
X125869210Y-71830790D01*
X125924027Y-71875777D01*
X125986567Y-71909206D01*
X126054428Y-71929791D01*
X126125000Y-71936742D01*
X126895000Y-71935000D01*
X126985000Y-71845000D01*
X126985000Y-70877500D01*
X127015000Y-70877500D01*
X127015000Y-71845000D01*
X127105000Y-71935000D01*
X127875000Y-71936742D01*
X127945572Y-71929791D01*
X128013433Y-71909206D01*
X128075973Y-71875777D01*
X128130790Y-71830790D01*
X128175777Y-71775973D01*
X128209206Y-71713433D01*
X128229791Y-71645572D01*
X128236742Y-71575000D01*
X128263258Y-71575000D01*
X128270209Y-71645572D01*
X128290794Y-71713433D01*
X128324223Y-71775973D01*
X128369210Y-71830790D01*
X128424027Y-71875777D01*
X128486567Y-71909206D01*
X128554428Y-71929791D01*
X128625000Y-71936742D01*
X129395000Y-71935000D01*
X129485000Y-71845000D01*
X129485000Y-70877500D01*
X129515000Y-70877500D01*
X129515000Y-71845000D01*
X129605000Y-71935000D01*
X130375000Y-71936742D01*
X130445572Y-71929791D01*
X130513433Y-71909206D01*
X130575973Y-71875777D01*
X130630790Y-71830790D01*
X130675777Y-71775973D01*
X130709206Y-71713433D01*
X130729791Y-71645572D01*
X130736742Y-71575000D01*
X130735000Y-70967500D01*
X130645000Y-70877500D01*
X129515000Y-70877500D01*
X129485000Y-70877500D01*
X128355000Y-70877500D01*
X128265000Y-70967500D01*
X128263258Y-71575000D01*
X128236742Y-71575000D01*
X128235000Y-70967500D01*
X128145000Y-70877500D01*
X127015000Y-70877500D01*
X126985000Y-70877500D01*
X125855000Y-70877500D01*
X125765000Y-70967500D01*
X125763258Y-71575000D01*
X115109078Y-71575000D01*
X115109078Y-70150000D01*
X125763258Y-70150000D01*
X125765000Y-70757500D01*
X125855000Y-70847500D01*
X126985000Y-70847500D01*
X126985000Y-69880000D01*
X127015000Y-69880000D01*
X127015000Y-70847500D01*
X128145000Y-70847500D01*
X128235000Y-70757500D01*
X128236742Y-70150000D01*
X128263258Y-70150000D01*
X128265000Y-70757500D01*
X128355000Y-70847500D01*
X129485000Y-70847500D01*
X129485000Y-69880000D01*
X129515000Y-69880000D01*
X129515000Y-70847500D01*
X130645000Y-70847500D01*
X130735000Y-70757500D01*
X130736742Y-70150000D01*
X130729791Y-70079428D01*
X130709206Y-70011567D01*
X130675777Y-69949027D01*
X130630790Y-69894210D01*
X130575973Y-69849223D01*
X130513433Y-69815794D01*
X130445572Y-69795209D01*
X130375000Y-69788258D01*
X129605000Y-69790000D01*
X129515000Y-69880000D01*
X129485000Y-69880000D01*
X129395000Y-69790000D01*
X128625000Y-69788258D01*
X128554428Y-69795209D01*
X128486567Y-69815794D01*
X128424027Y-69849223D01*
X128369210Y-69894210D01*
X128324223Y-69949027D01*
X128290794Y-70011567D01*
X128270209Y-70079428D01*
X128263258Y-70150000D01*
X128236742Y-70150000D01*
X128229791Y-70079428D01*
X128209206Y-70011567D01*
X128175777Y-69949027D01*
X128130790Y-69894210D01*
X128075973Y-69849223D01*
X128013433Y-69815794D01*
X127945572Y-69795209D01*
X127875000Y-69788258D01*
X127105000Y-69790000D01*
X127015000Y-69880000D01*
X126985000Y-69880000D01*
X126895000Y-69790000D01*
X126125000Y-69788258D01*
X126054428Y-69795209D01*
X125986567Y-69815794D01*
X125924027Y-69849223D01*
X125869210Y-69894210D01*
X125824223Y-69949027D01*
X125790794Y-70011567D01*
X125770209Y-70079428D01*
X125763258Y-70150000D01*
X115109078Y-70150000D01*
X115109078Y-69889802D01*
X115214408Y-69784472D01*
X115297581Y-69659995D01*
X115354871Y-69521684D01*
X115384078Y-69374853D01*
X115384078Y-69225147D01*
X115354871Y-69078316D01*
X115297581Y-68940005D01*
X115214408Y-68815528D01*
X115108550Y-68709670D01*
X114984073Y-68626497D01*
X114845762Y-68569207D01*
X114698931Y-68540000D01*
X114549225Y-68540000D01*
X114402394Y-68569207D01*
X114384078Y-68576794D01*
X114384078Y-68551045D01*
X115135044Y-67800079D01*
X115153551Y-67784891D01*
X115189662Y-67740889D01*
X115238997Y-67859995D01*
X115322170Y-67984472D01*
X115428028Y-68090330D01*
X115552505Y-68173503D01*
X115690816Y-68230793D01*
X115837647Y-68260000D01*
X115987353Y-68260000D01*
X116134184Y-68230793D01*
X116272495Y-68173503D01*
X116396972Y-68090330D01*
X116502830Y-67984472D01*
X116586003Y-67859995D01*
X116643293Y-67721684D01*
X116672500Y-67574853D01*
X116672500Y-67425147D01*
X116643293Y-67278316D01*
X116586003Y-67140005D01*
X116502830Y-67015528D01*
X116472500Y-66985198D01*
X116472500Y-66327138D01*
X116494345Y-66324987D01*
X116609103Y-66290175D01*
X116714865Y-66233644D01*
X116807566Y-66157566D01*
X116883644Y-66064865D01*
X116931677Y-65975000D01*
X117813258Y-65975000D01*
X117820209Y-66045572D01*
X117840794Y-66113433D01*
X117874223Y-66175973D01*
X117919210Y-66230790D01*
X117974027Y-66275777D01*
X118036567Y-66309206D01*
X118104428Y-66329791D01*
X118175000Y-66336742D01*
X118782500Y-66335000D01*
X118872500Y-66245000D01*
X118872500Y-65115000D01*
X118902500Y-65115000D01*
X118902500Y-66245000D01*
X118992500Y-66335000D01*
X119600000Y-66336742D01*
X119670572Y-66329791D01*
X119738433Y-66309206D01*
X119800973Y-66275777D01*
X119855790Y-66230790D01*
X119900777Y-66175973D01*
X119934206Y-66113433D01*
X119954791Y-66045572D01*
X119961742Y-65975000D01*
X119960000Y-65205000D01*
X119870000Y-65115000D01*
X118902500Y-65115000D01*
X118872500Y-65115000D01*
X117905000Y-65115000D01*
X117815000Y-65205000D01*
X117813258Y-65975000D01*
X116931677Y-65975000D01*
X116940175Y-65959103D01*
X116974987Y-65844345D01*
X116986741Y-65725000D01*
X116986741Y-64475000D01*
X116974987Y-64355655D01*
X116940175Y-64240897D01*
X116931678Y-64225000D01*
X117813258Y-64225000D01*
X117815000Y-64995000D01*
X117905000Y-65085000D01*
X118872500Y-65085000D01*
X118872500Y-63955000D01*
X118902500Y-63955000D01*
X118902500Y-65085000D01*
X119870000Y-65085000D01*
X119960000Y-64995000D01*
X119961742Y-64225000D01*
X119954791Y-64154428D01*
X119934206Y-64086567D01*
X119900777Y-64024027D01*
X119855790Y-63969210D01*
X119800973Y-63924223D01*
X119738433Y-63890794D01*
X119670572Y-63870209D01*
X119600000Y-63863258D01*
X118992500Y-63865000D01*
X118902500Y-63955000D01*
X118872500Y-63955000D01*
X118782500Y-63865000D01*
X118175000Y-63863258D01*
X118104428Y-63870209D01*
X118036567Y-63890794D01*
X117974027Y-63924223D01*
X117919210Y-63969210D01*
X117874223Y-64024027D01*
X117840794Y-64086567D01*
X117820209Y-64154428D01*
X117813258Y-64225000D01*
X116931678Y-64225000D01*
X116883644Y-64135135D01*
X116871555Y-64120404D01*
X117824716Y-63167244D01*
X117846074Y-63149716D01*
X117863602Y-63128358D01*
X117863608Y-63128352D01*
X117868767Y-63122065D01*
X118752790Y-63122065D01*
X118752790Y-63249344D01*
X119181126Y-63680143D01*
X119235943Y-63725130D01*
X119298484Y-63758559D01*
X119366344Y-63779144D01*
X119436916Y-63786095D01*
X119507488Y-63779144D01*
X119575349Y-63758559D01*
X119637889Y-63725130D01*
X119692706Y-63680143D01*
X120235947Y-63134439D01*
X120235947Y-63007160D01*
X119551821Y-62323034D01*
X118752790Y-63122065D01*
X117868767Y-63122065D01*
X117916054Y-63064446D01*
X117943848Y-63012446D01*
X117968054Y-62967160D01*
X118000076Y-62861600D01*
X118008179Y-62779327D01*
X118008179Y-62779318D01*
X118010887Y-62751822D01*
X118008179Y-62724326D01*
X118008179Y-62416726D01*
X118067547Y-62416726D01*
X118074498Y-62487298D01*
X118095083Y-62555158D01*
X118128512Y-62617699D01*
X118173499Y-62672516D01*
X118604298Y-63100852D01*
X118731577Y-63100852D01*
X119530608Y-62301821D01*
X119573034Y-62301821D01*
X120257160Y-62985947D01*
X120384439Y-62985947D01*
X120930143Y-62442706D01*
X120975130Y-62387889D01*
X121008559Y-62325349D01*
X121029144Y-62257488D01*
X121036095Y-62186916D01*
X121029144Y-62116344D01*
X121008559Y-62048484D01*
X120975130Y-61985943D01*
X120930143Y-61931126D01*
X120499344Y-61502790D01*
X120372065Y-61502790D01*
X119573034Y-62301821D01*
X119530608Y-62301821D01*
X118846482Y-61617695D01*
X118719203Y-61617695D01*
X118173499Y-62160936D01*
X118128512Y-62215753D01*
X118095083Y-62278293D01*
X118074498Y-62346154D01*
X118067547Y-62416726D01*
X118008179Y-62416726D01*
X118008179Y-61157385D01*
X118649724Y-60515840D01*
X118725802Y-60423139D01*
X118782333Y-60317377D01*
X118817145Y-60202619D01*
X118828899Y-60083274D01*
X118817145Y-59963929D01*
X118782333Y-59849171D01*
X118725802Y-59743409D01*
X118649724Y-59650708D01*
X118487645Y-59488629D01*
X118874930Y-59101343D01*
X118971537Y-59195656D01*
X119098816Y-59195656D01*
X119809459Y-58485014D01*
X119795317Y-58470872D01*
X119816530Y-58449659D01*
X119830672Y-58463801D01*
X120541314Y-57753158D01*
X120541314Y-57625879D01*
X120440016Y-57522117D01*
X120385199Y-57477130D01*
X120322658Y-57443701D01*
X120258583Y-57424264D01*
X120245006Y-57379507D01*
X120200026Y-57295356D01*
X120139494Y-57221597D01*
X119962717Y-57044820D01*
X119888958Y-56984288D01*
X119804807Y-56939308D01*
X119713497Y-56911610D01*
X119707600Y-56911029D01*
X119707019Y-56905132D01*
X119679321Y-56813822D01*
X119634341Y-56729671D01*
X119573809Y-56655912D01*
X119397032Y-56479135D01*
X119323273Y-56418603D01*
X119239122Y-56373623D01*
X119147812Y-56345925D01*
X119141915Y-56345344D01*
X119141334Y-56339446D01*
X119113636Y-56248136D01*
X119068656Y-56163985D01*
X119008124Y-56090226D01*
X118831347Y-55913449D01*
X118757588Y-55852917D01*
X118673437Y-55807937D01*
X118582127Y-55780239D01*
X118576229Y-55779658D01*
X118575648Y-55773761D01*
X118547950Y-55682451D01*
X118502970Y-55598300D01*
X118442438Y-55524541D01*
X118265661Y-55347764D01*
X118191902Y-55287232D01*
X118122246Y-55250000D01*
X118191902Y-55212768D01*
X118265661Y-55152236D01*
X118442438Y-54975459D01*
X118502970Y-54901700D01*
X118547950Y-54817549D01*
X118575648Y-54726239D01*
X118576229Y-54720342D01*
X118582127Y-54719761D01*
X118673437Y-54692063D01*
X118757588Y-54647083D01*
X118831347Y-54586551D01*
X119008124Y-54409774D01*
X119068656Y-54336015D01*
X119113636Y-54251864D01*
X119141334Y-54160554D01*
X119141915Y-54154656D01*
X119147812Y-54154075D01*
X119239122Y-54126377D01*
X119323273Y-54081397D01*
X119397032Y-54020865D01*
X119573809Y-53844088D01*
X119634341Y-53770329D01*
X119679321Y-53686178D01*
X119707019Y-53594868D01*
X119707600Y-53588971D01*
X119713497Y-53588390D01*
X119804807Y-53560692D01*
X119888958Y-53515712D01*
X119962717Y-53455180D01*
X120139494Y-53278403D01*
X120200026Y-53204644D01*
X120245006Y-53120493D01*
X120272704Y-53029183D01*
X120273285Y-53023285D01*
X120279183Y-53022704D01*
X120370493Y-52995006D01*
X120454644Y-52950026D01*
X120528403Y-52889494D01*
X120705180Y-52712717D01*
X120765712Y-52638958D01*
X120810692Y-52554807D01*
X120838390Y-52463497D01*
X120838971Y-52457600D01*
X120844868Y-52457019D01*
X120936178Y-52429321D01*
X121020329Y-52384341D01*
X121094088Y-52323809D01*
X121270865Y-52147032D01*
X121331397Y-52073273D01*
X121376377Y-51989122D01*
X121404075Y-51897812D01*
X121404656Y-51891915D01*
X121410554Y-51891334D01*
X121501864Y-51863636D01*
X121586015Y-51818656D01*
X121659774Y-51758124D01*
X121836551Y-51581347D01*
X121897083Y-51507588D01*
X121942063Y-51423437D01*
X121969761Y-51332127D01*
X121970342Y-51326229D01*
X121976239Y-51325648D01*
X122067549Y-51297950D01*
X122151700Y-51252970D01*
X122225459Y-51192438D01*
X122402236Y-51015661D01*
X122462768Y-50941902D01*
X122500000Y-50872246D01*
X122537232Y-50941902D01*
X122597764Y-51015661D01*
X122774541Y-51192438D01*
X122848300Y-51252970D01*
X122932451Y-51297950D01*
X123023761Y-51325648D01*
X123029658Y-51326229D01*
X123030239Y-51332127D01*
X123057937Y-51423437D01*
X123102917Y-51507588D01*
X123163449Y-51581347D01*
X123340226Y-51758124D01*
X123413985Y-51818656D01*
X123498136Y-51863636D01*
X123589446Y-51891334D01*
X123595344Y-51891915D01*
X123595925Y-51897812D01*
X123623623Y-51989122D01*
X123668603Y-52073273D01*
X123729135Y-52147032D01*
X123905912Y-52323809D01*
X123979671Y-52384341D01*
X124063822Y-52429321D01*
X124155132Y-52457019D01*
X124161029Y-52457600D01*
X124161610Y-52463497D01*
X124189308Y-52554807D01*
X124234288Y-52638958D01*
X124294820Y-52712717D01*
X124471597Y-52889494D01*
X124545356Y-52950026D01*
X124629507Y-52995006D01*
X124720817Y-53022704D01*
X124726715Y-53023285D01*
X124727296Y-53029183D01*
X124754994Y-53120493D01*
X124799974Y-53204644D01*
X124860506Y-53278403D01*
X125037283Y-53455180D01*
X125111042Y-53515712D01*
X125195193Y-53560692D01*
X125286503Y-53588390D01*
X125292400Y-53588971D01*
X125292981Y-53594868D01*
X125320679Y-53686178D01*
X125365659Y-53770329D01*
X125426191Y-53844088D01*
X125602968Y-54020865D01*
X125676727Y-54081397D01*
X125760878Y-54126377D01*
X125852188Y-54154075D01*
X125858085Y-54154656D01*
X125858666Y-54160554D01*
X125886364Y-54251864D01*
X125931344Y-54336015D01*
X125991876Y-54409774D01*
X126168653Y-54586551D01*
X126242412Y-54647083D01*
X126326563Y-54692063D01*
X126417873Y-54719761D01*
X126423771Y-54720342D01*
X126424352Y-54726239D01*
X126452050Y-54817549D01*
X126497030Y-54901700D01*
X126557562Y-54975459D01*
X126734339Y-55152236D01*
X126808098Y-55212768D01*
X126877754Y-55250000D01*
X126808098Y-55287232D01*
X126734339Y-55347764D01*
X126557562Y-55524541D01*
X126497030Y-55598300D01*
X126452050Y-55682451D01*
X126424352Y-55773761D01*
X126423771Y-55779658D01*
X126417873Y-55780239D01*
X126326563Y-55807937D01*
X126242412Y-55852917D01*
X126168653Y-55913449D01*
X125991876Y-56090226D01*
X125931344Y-56163985D01*
X125886364Y-56248136D01*
X125858666Y-56339446D01*
X125858085Y-56345344D01*
X125852188Y-56345925D01*
X125760878Y-56373623D01*
X125676727Y-56418603D01*
X125602968Y-56479135D01*
X125426191Y-56655912D01*
X125365659Y-56729671D01*
X125320679Y-56813822D01*
X125292981Y-56905132D01*
X125292400Y-56911029D01*
X125286503Y-56911610D01*
X125195193Y-56939308D01*
X125111042Y-56984288D01*
X125037283Y-57044820D01*
X124860506Y-57221597D01*
X124799974Y-57295356D01*
X124754994Y-57379507D01*
X124727296Y-57470817D01*
X124726715Y-57476715D01*
X124720817Y-57477296D01*
X124629507Y-57504994D01*
X124545356Y-57549974D01*
X124471597Y-57610506D01*
X124294820Y-57787283D01*
X124234288Y-57861042D01*
X124189308Y-57945193D01*
X124161610Y-58036503D01*
X124161029Y-58042400D01*
X124155132Y-58042981D01*
X124063822Y-58070679D01*
X123979671Y-58115659D01*
X123905912Y-58176191D01*
X123729135Y-58352968D01*
X123668603Y-58426727D01*
X123623623Y-58510878D01*
X123595925Y-58602188D01*
X123595344Y-58608085D01*
X123589446Y-58608666D01*
X123498136Y-58636364D01*
X123413985Y-58681344D01*
X123340226Y-58741876D01*
X123163449Y-58918653D01*
X123102917Y-58992412D01*
X123057937Y-59076563D01*
X123030239Y-59167873D01*
X123029658Y-59173771D01*
X123023761Y-59174352D01*
X122932451Y-59202050D01*
X122848300Y-59247030D01*
X122774541Y-59307562D01*
X122597764Y-59484339D01*
X122537232Y-59558098D01*
X122500000Y-59627754D01*
X122462768Y-59558098D01*
X122402236Y-59484339D01*
X122225459Y-59307562D01*
X122151700Y-59247030D01*
X122067549Y-59202050D01*
X121976239Y-59174352D01*
X121970342Y-59173771D01*
X121969761Y-59167873D01*
X121942063Y-59076563D01*
X121897083Y-58992412D01*
X121836551Y-58918653D01*
X121659774Y-58741876D01*
X121586015Y-58681344D01*
X121501864Y-58636364D01*
X121461710Y-58624184D01*
X121625894Y-58460000D01*
X121774853Y-58460000D01*
X121921684Y-58430793D01*
X122059995Y-58373503D01*
X122184472Y-58290330D01*
X122290330Y-58184472D01*
X122373503Y-58059995D01*
X122430793Y-57921684D01*
X122460000Y-57774853D01*
X122460000Y-57625147D01*
X122430793Y-57478316D01*
X122373503Y-57340005D01*
X122290330Y-57215528D01*
X122184472Y-57109670D01*
X122059995Y-57026497D01*
X121921684Y-56969207D01*
X121774853Y-56940000D01*
X121625147Y-56940000D01*
X121478316Y-56969207D01*
X121340005Y-57026497D01*
X121215528Y-57109670D01*
X121109670Y-57215528D01*
X121026497Y-57340005D01*
X120969207Y-57478316D01*
X120940000Y-57625147D01*
X120940000Y-57774106D01*
X120813793Y-57900313D01*
X120793569Y-57875670D01*
X120689807Y-57774372D01*
X120562528Y-57774372D01*
X119851885Y-58485014D01*
X119866028Y-58499157D01*
X119844815Y-58520370D01*
X119830672Y-58506227D01*
X119120030Y-59216870D01*
X119120030Y-59344149D01*
X119221328Y-59447911D01*
X119276145Y-59492898D01*
X119338686Y-59526327D01*
X119402761Y-59545763D01*
X119416337Y-59590520D01*
X119461317Y-59674671D01*
X119521849Y-59748430D01*
X119601370Y-59827951D01*
X119526497Y-59940005D01*
X119469207Y-60078316D01*
X119440000Y-60225147D01*
X119440000Y-60374853D01*
X119469207Y-60521684D01*
X119526497Y-60659995D01*
X119609670Y-60784472D01*
X119644895Y-60819697D01*
X119596154Y-60824498D01*
X119528293Y-60845083D01*
X119465753Y-60878512D01*
X119410936Y-60923499D01*
X118867695Y-61469203D01*
X118867695Y-61596482D01*
X119551821Y-62280608D01*
X120350852Y-61481577D01*
X120350852Y-61354298D01*
X120041741Y-61043409D01*
X120125147Y-61060000D01*
X120274853Y-61060000D01*
X120421684Y-61030793D01*
X120559995Y-60973503D01*
X120672049Y-60898630D01*
X120829997Y-61056578D01*
X120903756Y-61117110D01*
X120987907Y-61162090D01*
X121079217Y-61189788D01*
X121174175Y-61199141D01*
X121269133Y-61189788D01*
X121333382Y-61170299D01*
X121409670Y-61284472D01*
X121515528Y-61390330D01*
X121640005Y-61473503D01*
X121778316Y-61530793D01*
X121925147Y-61560000D01*
X122074853Y-61560000D01*
X122221684Y-61530793D01*
X122359995Y-61473503D01*
X122484472Y-61390330D01*
X122590330Y-61284472D01*
X122673503Y-61159995D01*
X122730793Y-61021684D01*
X122760000Y-60874853D01*
X122760000Y-60725147D01*
X122730793Y-60578316D01*
X122673503Y-60440005D01*
X122590330Y-60315528D01*
X122484472Y-60209670D01*
X122411762Y-60161087D01*
X122462768Y-60098936D01*
X122500000Y-60029280D01*
X122537232Y-60098936D01*
X122597764Y-60172695D01*
X122987574Y-60562505D01*
X122994290Y-60630699D01*
X123016807Y-60704923D01*
X123022024Y-60722122D01*
X123067059Y-60806378D01*
X123103063Y-60850249D01*
X123127667Y-60880229D01*
X123146169Y-60895413D01*
X131551070Y-69300314D01*
X131551071Y-76132243D01*
X131548724Y-76156070D01*
X131558089Y-76251146D01*
X131585822Y-76342569D01*
X131630857Y-76426825D01*
X131676280Y-76482173D01*
X131691465Y-76500676D01*
X131709967Y-76515860D01*
X133408259Y-78214153D01*
X133408259Y-79590000D01*
X133415210Y-79660572D01*
X133435795Y-79728432D01*
X133469223Y-79790973D01*
X133514210Y-79845790D01*
X133569027Y-79890777D01*
X133631568Y-79924205D01*
X133699428Y-79944790D01*
X133770000Y-79951741D01*
X135470000Y-79951741D01*
X135540572Y-79944790D01*
X135608432Y-79924205D01*
X135670973Y-79890777D01*
X135725790Y-79845790D01*
X135770777Y-79790973D01*
X135804205Y-79728432D01*
X135824790Y-79660572D01*
X135831741Y-79590000D01*
X135831741Y-77890000D01*
X135824790Y-77819428D01*
X135804205Y-77751568D01*
X135770777Y-77689027D01*
X135725790Y-77634210D01*
X135670973Y-77589223D01*
X135608432Y-77555795D01*
X135540572Y-77535210D01*
X135470000Y-77528259D01*
X134094153Y-77528259D01*
X132521070Y-75955177D01*
X132521070Y-74786963D01*
X133493012Y-75758906D01*
X133456499Y-75847056D01*
X133410000Y-76080825D01*
X133410000Y-76319175D01*
X133456499Y-76552944D01*
X133547712Y-76773150D01*
X133680131Y-76971330D01*
X133848670Y-77139869D01*
X134046850Y-77272288D01*
X134267056Y-77363501D01*
X134500825Y-77410000D01*
X134739175Y-77410000D01*
X134972944Y-77363501D01*
X135193150Y-77272288D01*
X135391330Y-77139869D01*
X135559869Y-76971330D01*
X135692288Y-76773150D01*
X135783501Y-76552944D01*
X135830000Y-76319175D01*
X135830000Y-76080825D01*
X135783501Y-75847056D01*
X135692288Y-75626850D01*
X135559869Y-75428670D01*
X135391330Y-75260131D01*
X135193150Y-75127712D01*
X134972944Y-75036499D01*
X134739175Y-74990000D01*
X134500825Y-74990000D01*
X134267056Y-75036499D01*
X134178906Y-75073012D01*
X132971080Y-73865187D01*
X132971080Y-72696973D01*
X133493012Y-73218906D01*
X133456499Y-73307056D01*
X133410000Y-73540825D01*
X133410000Y-73779175D01*
X133456499Y-74012944D01*
X133547712Y-74233150D01*
X133680131Y-74431330D01*
X133848670Y-74599869D01*
X134046850Y-74732288D01*
X134267056Y-74823501D01*
X134500825Y-74870000D01*
X134739175Y-74870000D01*
X134972944Y-74823501D01*
X135193150Y-74732288D01*
X135391330Y-74599869D01*
X135559869Y-74431330D01*
X135692288Y-74233150D01*
X135783501Y-74012944D01*
X135830000Y-73779175D01*
X135830000Y-73540825D01*
X135783501Y-73307056D01*
X135692288Y-73086850D01*
X135559869Y-72888670D01*
X135391330Y-72720131D01*
X135193150Y-72587712D01*
X134972944Y-72496499D01*
X134739175Y-72450000D01*
X134500825Y-72450000D01*
X134267056Y-72496499D01*
X134178906Y-72533012D01*
X133479989Y-71834096D01*
X133479989Y-71529653D01*
X133547712Y-71693150D01*
X133680131Y-71891330D01*
X133848670Y-72059869D01*
X134046850Y-72192288D01*
X134267056Y-72283501D01*
X134500825Y-72330000D01*
X134739175Y-72330000D01*
X134972944Y-72283501D01*
X135193150Y-72192288D01*
X135391330Y-72059869D01*
X135559869Y-71891330D01*
X135692288Y-71693150D01*
X135783501Y-71472944D01*
X135830000Y-71239175D01*
X135830000Y-71000825D01*
X135783501Y-70767056D01*
X135692288Y-70546850D01*
X135559869Y-70348670D01*
X135391330Y-70180131D01*
X135193150Y-70047712D01*
X134972944Y-69956499D01*
X134739175Y-69910000D01*
X134500825Y-69910000D01*
X134267056Y-69956499D01*
X134178905Y-69993012D01*
X133929999Y-69744106D01*
X133929999Y-69574211D01*
X134046850Y-69652288D01*
X134267056Y-69743501D01*
X134500825Y-69790000D01*
X134739175Y-69790000D01*
X134972944Y-69743501D01*
X135193150Y-69652288D01*
X135391330Y-69519869D01*
X135559869Y-69351330D01*
X135692288Y-69153150D01*
X135783501Y-68932944D01*
X135830000Y-68699175D01*
X135830000Y-68460825D01*
X135783501Y-68227056D01*
X135692288Y-68006850D01*
X135559869Y-67808670D01*
X135391330Y-67640131D01*
X135193150Y-67507712D01*
X134972944Y-67416499D01*
X134739175Y-67370000D01*
X134500825Y-67370000D01*
X134267056Y-67416499D01*
X134178906Y-67453012D01*
X133885000Y-67159107D01*
X133885000Y-67004144D01*
X134046850Y-67112288D01*
X134267056Y-67203501D01*
X134500825Y-67250000D01*
X134739175Y-67250000D01*
X134972944Y-67203501D01*
X135193150Y-67112288D01*
X135391330Y-66979869D01*
X135559869Y-66811330D01*
X135692288Y-66613150D01*
X135783501Y-66392944D01*
X135830000Y-66159175D01*
X135830000Y-65920825D01*
X135783501Y-65687056D01*
X135692288Y-65466850D01*
X135559869Y-65268670D01*
X135391330Y-65100131D01*
X135193150Y-64967712D01*
X134972944Y-64876499D01*
X134739175Y-64830000D01*
X134500825Y-64830000D01*
X134469233Y-64836284D01*
X134303749Y-64670800D01*
X134500825Y-64710000D01*
X134739175Y-64710000D01*
X134972944Y-64663501D01*
X135193150Y-64572288D01*
X135391330Y-64439869D01*
X135559869Y-64271330D01*
X135692288Y-64073150D01*
X135783501Y-63852944D01*
X135830000Y-63619175D01*
X135830000Y-63380825D01*
X135783501Y-63147056D01*
X135692288Y-62926850D01*
X135559869Y-62728670D01*
X135391330Y-62560131D01*
X135193150Y-62427712D01*
X134972944Y-62336499D01*
X134739175Y-62290000D01*
X134500825Y-62290000D01*
X134267056Y-62336499D01*
X134046850Y-62427712D01*
X133848670Y-62560131D01*
X133680131Y-62728670D01*
X133605173Y-62840853D01*
X132209320Y-61445000D01*
X133511199Y-61445000D01*
X133547712Y-61533150D01*
X133680131Y-61731330D01*
X133848670Y-61899869D01*
X134046850Y-62032288D01*
X134267056Y-62123501D01*
X134500825Y-62170000D01*
X134739175Y-62170000D01*
X134972944Y-62123501D01*
X135193150Y-62032288D01*
X135391330Y-61899869D01*
X135559869Y-61731330D01*
X135692288Y-61533150D01*
X135783501Y-61312944D01*
X135830000Y-61079175D01*
X135830000Y-60840825D01*
X135783501Y-60607056D01*
X135692288Y-60386850D01*
X135559869Y-60188670D01*
X135391330Y-60020131D01*
X135193150Y-59887712D01*
X134972944Y-59796499D01*
X134739175Y-59750000D01*
X134500825Y-59750000D01*
X134267056Y-59796499D01*
X134046850Y-59887712D01*
X133848670Y-60020131D01*
X133680131Y-60188670D01*
X133547712Y-60386850D01*
X133511199Y-60475000D01*
X132370691Y-60475000D01*
X128446696Y-56551005D01*
X128439788Y-56480867D01*
X128412090Y-56389557D01*
X128367110Y-56305406D01*
X128306578Y-56231647D01*
X127422695Y-55347764D01*
X127348936Y-55287232D01*
X127279280Y-55250000D01*
X127348936Y-55212768D01*
X127422695Y-55152236D01*
X127521690Y-55053241D01*
X130601830Y-58133381D01*
X130604093Y-58140841D01*
X130649129Y-58225097D01*
X130709736Y-58298948D01*
X130728243Y-58314136D01*
X131160210Y-58746104D01*
X131175394Y-58764606D01*
X131193896Y-58779790D01*
X131249244Y-58825213D01*
X131256728Y-58829213D01*
X131333501Y-58870249D01*
X131424924Y-58897982D01*
X131496180Y-58905000D01*
X131496183Y-58905000D01*
X131520000Y-58907346D01*
X131543817Y-58905000D01*
X133511199Y-58905000D01*
X133547712Y-58993150D01*
X133680131Y-59191330D01*
X133848670Y-59359869D01*
X134046850Y-59492288D01*
X134267056Y-59583501D01*
X134500825Y-59630000D01*
X134739175Y-59630000D01*
X134972944Y-59583501D01*
X135193150Y-59492288D01*
X135391330Y-59359869D01*
X135559869Y-59191330D01*
X135692288Y-58993150D01*
X135783501Y-58772944D01*
X135830000Y-58539175D01*
X135830000Y-58300825D01*
X135783501Y-58067056D01*
X135692288Y-57846850D01*
X135559869Y-57648670D01*
X135391330Y-57480131D01*
X135193150Y-57347712D01*
X134972944Y-57256499D01*
X134739175Y-57210000D01*
X134500825Y-57210000D01*
X134267056Y-57256499D01*
X134046850Y-57347712D01*
X133848670Y-57480131D01*
X133680131Y-57648670D01*
X133547712Y-57846850D01*
X133511199Y-57935000D01*
X131720894Y-57935000D01*
X131506854Y-57720961D01*
X131504591Y-57713501D01*
X131469886Y-57648573D01*
X131459555Y-57629244D01*
X131438634Y-57603752D01*
X131398948Y-57555394D01*
X131380441Y-57540206D01*
X128207583Y-54367348D01*
X128306578Y-54268353D01*
X128367110Y-54194594D01*
X128412090Y-54110443D01*
X128439788Y-54019133D01*
X128449141Y-53924175D01*
X128439788Y-53829217D01*
X128425583Y-53782388D01*
X129096495Y-53782388D01*
X131520210Y-56206104D01*
X131535394Y-56224606D01*
X131553896Y-56239790D01*
X131609244Y-56285213D01*
X131638052Y-56300611D01*
X131693501Y-56330249D01*
X131784924Y-56357982D01*
X131856180Y-56365000D01*
X131856183Y-56365000D01*
X131880000Y-56367346D01*
X131903817Y-56365000D01*
X133511199Y-56365000D01*
X133547712Y-56453150D01*
X133680131Y-56651330D01*
X133848670Y-56819869D01*
X134046850Y-56952288D01*
X134267056Y-57043501D01*
X134500825Y-57090000D01*
X134739175Y-57090000D01*
X134972944Y-57043501D01*
X135193150Y-56952288D01*
X135391330Y-56819869D01*
X135559869Y-56651330D01*
X135692288Y-56453150D01*
X135783501Y-56232944D01*
X135830000Y-55999175D01*
X135830000Y-55760825D01*
X135783501Y-55527056D01*
X135692288Y-55306850D01*
X135559869Y-55108670D01*
X135391330Y-54940131D01*
X135193150Y-54807712D01*
X134972944Y-54716499D01*
X134739175Y-54670000D01*
X134500825Y-54670000D01*
X134267056Y-54716499D01*
X134046850Y-54807712D01*
X133848670Y-54940131D01*
X133680131Y-55108670D01*
X133547712Y-55306850D01*
X133511199Y-55395000D01*
X132080894Y-55395000D01*
X129657182Y-52971289D01*
X129641994Y-52952782D01*
X129568143Y-52892175D01*
X129483887Y-52847139D01*
X129392464Y-52819406D01*
X129321208Y-52812388D01*
X129321205Y-52812388D01*
X129297388Y-52810042D01*
X129273571Y-52812388D01*
X127533473Y-52812388D01*
X127490356Y-52777003D01*
X127437267Y-52748626D01*
X127525894Y-52660000D01*
X127674853Y-52660000D01*
X127821684Y-52630793D01*
X127959995Y-52573503D01*
X128084472Y-52490330D01*
X128190330Y-52384472D01*
X128273503Y-52259995D01*
X128330793Y-52121684D01*
X128360000Y-51974853D01*
X128360000Y-51825147D01*
X128330793Y-51678316D01*
X128273503Y-51540005D01*
X128190330Y-51415528D01*
X128084472Y-51309670D01*
X128047551Y-51285000D01*
X131879107Y-51285000D01*
X133493012Y-52898905D01*
X133456499Y-52987056D01*
X133410000Y-53220825D01*
X133410000Y-53459175D01*
X133456499Y-53692944D01*
X133547712Y-53913150D01*
X133680131Y-54111330D01*
X133848670Y-54279869D01*
X134046850Y-54412288D01*
X134267056Y-54503501D01*
X134500825Y-54550000D01*
X134739175Y-54550000D01*
X134972944Y-54503501D01*
X135193150Y-54412288D01*
X135391330Y-54279869D01*
X135559869Y-54111330D01*
X135692288Y-53913150D01*
X135783501Y-53692944D01*
X135830000Y-53459175D01*
X135830000Y-53220825D01*
X135783501Y-52987056D01*
X135692288Y-52766850D01*
X135559869Y-52568670D01*
X135391330Y-52400131D01*
X135193150Y-52267712D01*
X134972944Y-52176499D01*
X134739175Y-52130000D01*
X134500825Y-52130000D01*
X134267056Y-52176499D01*
X134178905Y-52213012D01*
X132439794Y-50473901D01*
X132424606Y-50455394D01*
X132350755Y-50394787D01*
X132266499Y-50349751D01*
X132175076Y-50322018D01*
X132103820Y-50315000D01*
X132103817Y-50315000D01*
X132080000Y-50312654D01*
X132056183Y-50315000D01*
X127660000Y-50315000D01*
X127660000Y-50225147D01*
X127630793Y-50078316D01*
X127573503Y-49940005D01*
X127490330Y-49815528D01*
X127384472Y-49709670D01*
X127259995Y-49626497D01*
X127188861Y-49597032D01*
X127590883Y-49195010D01*
X132329117Y-49195010D01*
X133493012Y-50358905D01*
X133456499Y-50447056D01*
X133410000Y-50680825D01*
X133410000Y-50919175D01*
X133456499Y-51152944D01*
X133547712Y-51373150D01*
X133680131Y-51571330D01*
X133848670Y-51739869D01*
X134046850Y-51872288D01*
X134267056Y-51963501D01*
X134500825Y-52010000D01*
X134739175Y-52010000D01*
X134972944Y-51963501D01*
X135193150Y-51872288D01*
X135391330Y-51739869D01*
X135559869Y-51571330D01*
X135692288Y-51373150D01*
X135783501Y-51152944D01*
X135830000Y-50919175D01*
X135830000Y-50680825D01*
X135783501Y-50447056D01*
X135692288Y-50226850D01*
X135559869Y-50028670D01*
X135391330Y-49860131D01*
X135193150Y-49727712D01*
X134972944Y-49636499D01*
X134739175Y-49590000D01*
X134500825Y-49590000D01*
X134267056Y-49636499D01*
X134178905Y-49673012D01*
X133250893Y-48745000D01*
X133511199Y-48745000D01*
X133547712Y-48833150D01*
X133680131Y-49031330D01*
X133848670Y-49199869D01*
X134046850Y-49332288D01*
X134267056Y-49423501D01*
X134500825Y-49470000D01*
X134739175Y-49470000D01*
X134972944Y-49423501D01*
X135193150Y-49332288D01*
X135391330Y-49199869D01*
X135559869Y-49031330D01*
X135692288Y-48833150D01*
X135783501Y-48612944D01*
X135830000Y-48379175D01*
X135830000Y-48140825D01*
X135783501Y-47907056D01*
X135692288Y-47686850D01*
X135559869Y-47488670D01*
X135391330Y-47320131D01*
X135193150Y-47187712D01*
X134972944Y-47096499D01*
X134739175Y-47050000D01*
X134500825Y-47050000D01*
X134267056Y-47096499D01*
X134046850Y-47187712D01*
X133848670Y-47320131D01*
X133680131Y-47488670D01*
X133547712Y-47686850D01*
X133511199Y-47775000D01*
X126367207Y-47775000D01*
X126343390Y-47772654D01*
X126319573Y-47775000D01*
X126319570Y-47775000D01*
X126248314Y-47782018D01*
X126178169Y-47803297D01*
X126156890Y-47809751D01*
X126072634Y-47854787D01*
X126017286Y-47900210D01*
X125998784Y-47915394D01*
X125983600Y-47933896D01*
X124322039Y-49595458D01*
X124170003Y-49443422D01*
X124096244Y-49382890D01*
X124012093Y-49337910D01*
X123957272Y-49321281D01*
X123957272Y-46096089D01*
X123959618Y-46072272D01*
X123957272Y-46048452D01*
X123950254Y-45977196D01*
X123934144Y-45924086D01*
X133427335Y-45924086D01*
X133440019Y-45987862D01*
X133514949Y-46212918D01*
X133632346Y-46419031D01*
X133787698Y-46598281D01*
X133975035Y-46743779D01*
X134187157Y-46849934D01*
X134415913Y-46912666D01*
X134605000Y-46839908D01*
X134605000Y-45735000D01*
X134635000Y-45735000D01*
X134635000Y-46839908D01*
X134824087Y-46912666D01*
X135052843Y-46849934D01*
X135264965Y-46743779D01*
X135452302Y-46598281D01*
X135607654Y-46419031D01*
X135725051Y-46212918D01*
X135799981Y-45987862D01*
X135812665Y-45924086D01*
X135739900Y-45735000D01*
X134635000Y-45735000D01*
X134605000Y-45735000D01*
X133500100Y-45735000D01*
X133427335Y-45924086D01*
X123934144Y-45924086D01*
X123922521Y-45885773D01*
X123922521Y-45885772D01*
X123877485Y-45801516D01*
X123832062Y-45746168D01*
X123816878Y-45727666D01*
X123798376Y-45712482D01*
X123601808Y-45515914D01*
X133427335Y-45515914D01*
X133500100Y-45705000D01*
X134605000Y-45705000D01*
X134605000Y-44600092D01*
X134635000Y-44600092D01*
X134635000Y-45705000D01*
X135739900Y-45705000D01*
X135812665Y-45515914D01*
X135799981Y-45452138D01*
X135725051Y-45227082D01*
X135607654Y-45020969D01*
X135452302Y-44841719D01*
X135264965Y-44696221D01*
X135052843Y-44590066D01*
X134824087Y-44527334D01*
X134635000Y-44600092D01*
X134605000Y-44600092D01*
X134415913Y-44527334D01*
X134187157Y-44590066D01*
X133975035Y-44696221D01*
X133787698Y-44841719D01*
X133632346Y-45020969D01*
X133514949Y-45227082D01*
X133440019Y-45452138D01*
X133427335Y-45515914D01*
X123601808Y-45515914D01*
X120397144Y-42311250D01*
X126458453Y-42311250D01*
X126458453Y-44781250D01*
X130541548Y-44781250D01*
X130541548Y-43060825D01*
X133410000Y-43060825D01*
X133410000Y-43299175D01*
X133456499Y-43532944D01*
X133547712Y-43753150D01*
X133680131Y-43951330D01*
X133848670Y-44119869D01*
X134046850Y-44252288D01*
X134267056Y-44343501D01*
X134500825Y-44390000D01*
X134739175Y-44390000D01*
X134972944Y-44343501D01*
X135193150Y-44252288D01*
X135391330Y-44119869D01*
X135559869Y-43951330D01*
X135692288Y-43753150D01*
X135783501Y-43532944D01*
X135830000Y-43299175D01*
X135830000Y-43060825D01*
X135783501Y-42827056D01*
X135692288Y-42606850D01*
X135559869Y-42408670D01*
X135391330Y-42240131D01*
X135193150Y-42107712D01*
X134972944Y-42016499D01*
X134739175Y-41970000D01*
X134500825Y-41970000D01*
X134267056Y-42016499D01*
X134046850Y-42107712D01*
X133848670Y-42240131D01*
X133680131Y-42408670D01*
X133547712Y-42606850D01*
X133456499Y-42827056D01*
X133410000Y-43060825D01*
X130541548Y-43060825D01*
X130541548Y-42311250D01*
X126458453Y-42311250D01*
X120397144Y-42311250D01*
X119865000Y-41779107D01*
X119865000Y-40108801D01*
X119953150Y-40072288D01*
X120151330Y-39939869D01*
X120319869Y-39771330D01*
X120452288Y-39573150D01*
X120543501Y-39352944D01*
X120590000Y-39119175D01*
X120590000Y-38880825D01*
X120543501Y-38647056D01*
X120452288Y-38426850D01*
X120319869Y-38228670D01*
X120241199Y-38150000D01*
X120708259Y-38150000D01*
X120708259Y-39850000D01*
X120715210Y-39920572D01*
X120735795Y-39988432D01*
X120769223Y-40050973D01*
X120814210Y-40105790D01*
X120869027Y-40150777D01*
X120931568Y-40184205D01*
X120999428Y-40204790D01*
X121070000Y-40211741D01*
X122770000Y-40211741D01*
X122840572Y-40204790D01*
X122908432Y-40184205D01*
X122970973Y-40150777D01*
X123025790Y-40105790D01*
X123070777Y-40050973D01*
X123104205Y-39988432D01*
X123124790Y-39920572D01*
X123131741Y-39850000D01*
X123131741Y-38880825D01*
X125790000Y-38880825D01*
X125790000Y-39119175D01*
X125836499Y-39352944D01*
X125927712Y-39573150D01*
X126060131Y-39771330D01*
X126228670Y-39939869D01*
X126426850Y-40072288D01*
X126647056Y-40163501D01*
X126880825Y-40210000D01*
X127119175Y-40210000D01*
X127352944Y-40163501D01*
X127573150Y-40072288D01*
X127771330Y-39939869D01*
X127939869Y-39771330D01*
X128072288Y-39573150D01*
X128163501Y-39352944D01*
X128210000Y-39119175D01*
X128210000Y-38880825D01*
X128330000Y-38880825D01*
X128330000Y-39119175D01*
X128376499Y-39352944D01*
X128467712Y-39573150D01*
X128600131Y-39771330D01*
X128768670Y-39939869D01*
X128966850Y-40072288D01*
X129187056Y-40163501D01*
X129420825Y-40210000D01*
X129659175Y-40210000D01*
X129892944Y-40163501D01*
X130113150Y-40072288D01*
X130311330Y-39939869D01*
X130479869Y-39771330D01*
X130612288Y-39573150D01*
X130703501Y-39352944D01*
X130733110Y-39204087D01*
X130887334Y-39204087D01*
X130950066Y-39432843D01*
X131056221Y-39644965D01*
X131201719Y-39832302D01*
X131380969Y-39987654D01*
X131587082Y-40105051D01*
X131812138Y-40179981D01*
X131875914Y-40192665D01*
X132065000Y-40119900D01*
X132065000Y-39015000D01*
X132095000Y-39015000D01*
X132095000Y-40119900D01*
X132284086Y-40192665D01*
X132347862Y-40179981D01*
X132572918Y-40105051D01*
X132779031Y-39987654D01*
X132958281Y-39832302D01*
X133103779Y-39644965D01*
X133209934Y-39432843D01*
X133272666Y-39204087D01*
X133199908Y-39015000D01*
X132095000Y-39015000D01*
X132065000Y-39015000D01*
X130960092Y-39015000D01*
X130887334Y-39204087D01*
X130733110Y-39204087D01*
X130750000Y-39119175D01*
X130750000Y-38880825D01*
X130733111Y-38795913D01*
X130887334Y-38795913D01*
X130960092Y-38985000D01*
X132065000Y-38985000D01*
X132065000Y-37880100D01*
X132095000Y-37880100D01*
X132095000Y-38985000D01*
X133199908Y-38985000D01*
X133272666Y-38795913D01*
X133209934Y-38567157D01*
X133103779Y-38355035D01*
X132958281Y-38167698D01*
X132937861Y-38150000D01*
X133408259Y-38150000D01*
X133408259Y-39850000D01*
X133415210Y-39920572D01*
X133435795Y-39988432D01*
X133469223Y-40050973D01*
X133514210Y-40105790D01*
X133569027Y-40150777D01*
X133631568Y-40184205D01*
X133699428Y-40204790D01*
X133770000Y-40211741D01*
X135470000Y-40211741D01*
X135540572Y-40204790D01*
X135608432Y-40184205D01*
X135670973Y-40150777D01*
X135725790Y-40105790D01*
X135770777Y-40050973D01*
X135804205Y-39988432D01*
X135824790Y-39920572D01*
X135831741Y-39850000D01*
X135831741Y-38150000D01*
X135824790Y-38079428D01*
X135804205Y-38011568D01*
X135770777Y-37949027D01*
X135725790Y-37894210D01*
X135670973Y-37849223D01*
X135608432Y-37815795D01*
X135540572Y-37795210D01*
X135470000Y-37788259D01*
X133770000Y-37788259D01*
X133699428Y-37795210D01*
X133631568Y-37815795D01*
X133569027Y-37849223D01*
X133514210Y-37894210D01*
X133469223Y-37949027D01*
X133435795Y-38011568D01*
X133415210Y-38079428D01*
X133408259Y-38150000D01*
X132937861Y-38150000D01*
X132779031Y-38012346D01*
X132572918Y-37894949D01*
X132347862Y-37820019D01*
X132284086Y-37807335D01*
X132095000Y-37880100D01*
X132065000Y-37880100D01*
X131875914Y-37807335D01*
X131812138Y-37820019D01*
X131587082Y-37894949D01*
X131380969Y-38012346D01*
X131201719Y-38167698D01*
X131056221Y-38355035D01*
X130950066Y-38567157D01*
X130887334Y-38795913D01*
X130733111Y-38795913D01*
X130703501Y-38647056D01*
X130612288Y-38426850D01*
X130479869Y-38228670D01*
X130311330Y-38060131D01*
X130113150Y-37927712D01*
X129892944Y-37836499D01*
X129659175Y-37790000D01*
X129420825Y-37790000D01*
X129187056Y-37836499D01*
X128966850Y-37927712D01*
X128768670Y-38060131D01*
X128600131Y-38228670D01*
X128467712Y-38426850D01*
X128376499Y-38647056D01*
X128330000Y-38880825D01*
X128210000Y-38880825D01*
X128163501Y-38647056D01*
X128072288Y-38426850D01*
X127939869Y-38228670D01*
X127771330Y-38060131D01*
X127573150Y-37927712D01*
X127352944Y-37836499D01*
X127119175Y-37790000D01*
X126880825Y-37790000D01*
X126647056Y-37836499D01*
X126426850Y-37927712D01*
X126228670Y-38060131D01*
X126060131Y-38228670D01*
X125927712Y-38426850D01*
X125836499Y-38647056D01*
X125790000Y-38880825D01*
X123131741Y-38880825D01*
X123131741Y-38150000D01*
X123124790Y-38079428D01*
X123104205Y-38011568D01*
X123070777Y-37949027D01*
X123025790Y-37894210D01*
X122970973Y-37849223D01*
X122908432Y-37815795D01*
X122840572Y-37795210D01*
X122770000Y-37788259D01*
X121070000Y-37788259D01*
X120999428Y-37795210D01*
X120931568Y-37815795D01*
X120869027Y-37849223D01*
X120814210Y-37894210D01*
X120769223Y-37949027D01*
X120735795Y-38011568D01*
X120715210Y-38079428D01*
X120708259Y-38150000D01*
X120241199Y-38150000D01*
X120151330Y-38060131D01*
X119953150Y-37927712D01*
X119732944Y-37836499D01*
X119499175Y-37790000D01*
X119260825Y-37790000D01*
X119027056Y-37836499D01*
X118806850Y-37927712D01*
X118608670Y-38060131D01*
X118440131Y-38228670D01*
X118307712Y-38426850D01*
X118216499Y-38647056D01*
X118170000Y-38880825D01*
X118170000Y-39119175D01*
X118216499Y-39352944D01*
X118307712Y-39573150D01*
X118440131Y-39771330D01*
X118608670Y-39939869D01*
X118806850Y-40072288D01*
X118895001Y-40108801D01*
X118895000Y-41956183D01*
X118892654Y-41980000D01*
X118895000Y-42003817D01*
X118895000Y-42003819D01*
X118902018Y-42075075D01*
X118929751Y-42166498D01*
X118974787Y-42250755D01*
X119035394Y-42324606D01*
X119053901Y-42339794D01*
X122987273Y-46273167D01*
X122987272Y-49937797D01*
X122597764Y-50327305D01*
X122537232Y-50401064D01*
X122500000Y-50470720D01*
X122462768Y-50401064D01*
X122402236Y-50327305D01*
X122012728Y-49937797D01*
X122012728Y-46251545D01*
X122015074Y-46227728D01*
X122009127Y-46167348D01*
X122005710Y-46132652D01*
X121977977Y-46041229D01*
X121949452Y-45987862D01*
X121932941Y-45956972D01*
X121887518Y-45901624D01*
X121872334Y-45883122D01*
X121853832Y-45867938D01*
X115426988Y-39441094D01*
X115463501Y-39352944D01*
X115493110Y-39204087D01*
X115647334Y-39204087D01*
X115710066Y-39432843D01*
X115816221Y-39644965D01*
X115961719Y-39832302D01*
X116140969Y-39987654D01*
X116347082Y-40105051D01*
X116572138Y-40179981D01*
X116635914Y-40192665D01*
X116825000Y-40119900D01*
X116825000Y-39015000D01*
X116855000Y-39015000D01*
X116855000Y-40119900D01*
X117044086Y-40192665D01*
X117107862Y-40179981D01*
X117332918Y-40105051D01*
X117539031Y-39987654D01*
X117718281Y-39832302D01*
X117863779Y-39644965D01*
X117969934Y-39432843D01*
X118032666Y-39204087D01*
X117959908Y-39015000D01*
X116855000Y-39015000D01*
X116825000Y-39015000D01*
X115720092Y-39015000D01*
X115647334Y-39204087D01*
X115493110Y-39204087D01*
X115510000Y-39119175D01*
X115510000Y-38880825D01*
X115493111Y-38795913D01*
X115647334Y-38795913D01*
X115720092Y-38985000D01*
X116825000Y-38985000D01*
X116825000Y-37880100D01*
X116855000Y-37880100D01*
X116855000Y-38985000D01*
X117959908Y-38985000D01*
X118032666Y-38795913D01*
X117969934Y-38567157D01*
X117863779Y-38355035D01*
X117718281Y-38167698D01*
X117539031Y-38012346D01*
X117332918Y-37894949D01*
X117107862Y-37820019D01*
X117044086Y-37807335D01*
X116855000Y-37880100D01*
X116825000Y-37880100D01*
X116635914Y-37807335D01*
X116572138Y-37820019D01*
X116347082Y-37894949D01*
X116140969Y-38012346D01*
X115961719Y-38167698D01*
X115816221Y-38355035D01*
X115710066Y-38567157D01*
X115647334Y-38795913D01*
X115493111Y-38795913D01*
X115463501Y-38647056D01*
X115372288Y-38426850D01*
X115239869Y-38228670D01*
X115071330Y-38060131D01*
X114873150Y-37927712D01*
X114652944Y-37836499D01*
X114419175Y-37790000D01*
X114180825Y-37790000D01*
X113947056Y-37836499D01*
X113726850Y-37927712D01*
X113528670Y-38060131D01*
X113360131Y-38228670D01*
X113227712Y-38426850D01*
X113136499Y-38647056D01*
X113090000Y-38880825D01*
X113090000Y-39119175D01*
X113136499Y-39352944D01*
X113227712Y-39573150D01*
X113360131Y-39771330D01*
X113528670Y-39939869D01*
X113726850Y-40072288D01*
X113947056Y-40163501D01*
X114180825Y-40210000D01*
X114419175Y-40210000D01*
X114652944Y-40163501D01*
X114741094Y-40126988D01*
X121042729Y-46428623D01*
X121042728Y-49321281D01*
X120987907Y-49337910D01*
X120903756Y-49382890D01*
X120829997Y-49443422D01*
X120653220Y-49620199D01*
X120592688Y-49693958D01*
X120547708Y-49778109D01*
X120520010Y-49869419D01*
X120519429Y-49875317D01*
X120513532Y-49875898D01*
X120422222Y-49903596D01*
X120338071Y-49948576D01*
X120294954Y-49983961D01*
X112655160Y-49983961D01*
X112531330Y-49860131D01*
X112333150Y-49727712D01*
X112112944Y-49636499D01*
X111879175Y-49590000D01*
X111640825Y-49590000D01*
X111407056Y-49636499D01*
X111186850Y-49727712D01*
X110988670Y-49860131D01*
X110820131Y-50028670D01*
X110687712Y-50226850D01*
X110596499Y-50447056D01*
X110550000Y-50680825D01*
X110550000Y-50919175D01*
X110596499Y-51152944D01*
X110687712Y-51373150D01*
X110820131Y-51571330D01*
X110988670Y-51739869D01*
X111186850Y-51872288D01*
X111407056Y-51963501D01*
X111640825Y-52010000D01*
X111879175Y-52010000D01*
X112112944Y-51963501D01*
X112333150Y-51872288D01*
X112531330Y-51739869D01*
X112699869Y-51571330D01*
X112832288Y-51373150D01*
X112923501Y-51152944D01*
X112963081Y-50953961D01*
X113460145Y-50953961D01*
X112201094Y-52213012D01*
X112112944Y-52176499D01*
X111879175Y-52130000D01*
X111640825Y-52130000D01*
X111407056Y-52176499D01*
X111186850Y-52267712D01*
X110988670Y-52400131D01*
X110820131Y-52568670D01*
X110687712Y-52766850D01*
X110596499Y-52987056D01*
X110550000Y-53220825D01*
X110550000Y-53459175D01*
X110596499Y-53692944D01*
X110687712Y-53913150D01*
X110820131Y-54111330D01*
X110988670Y-54279869D01*
X111186850Y-54412288D01*
X111407056Y-54503501D01*
X111640825Y-54550000D01*
X111879175Y-54550000D01*
X112112944Y-54503501D01*
X112333150Y-54412288D01*
X112531330Y-54279869D01*
X112699869Y-54111330D01*
X112832288Y-53913150D01*
X112923501Y-53692944D01*
X112970000Y-53459175D01*
X112970000Y-53220825D01*
X112923501Y-52987056D01*
X112886988Y-52898906D01*
X114266248Y-51519646D01*
X115434460Y-51519646D01*
X112201094Y-54753012D01*
X112112944Y-54716499D01*
X111879175Y-54670000D01*
X111640825Y-54670000D01*
X111407056Y-54716499D01*
X111186850Y-54807712D01*
X110988670Y-54940131D01*
X110820131Y-55108670D01*
X110687712Y-55306850D01*
X110596499Y-55527056D01*
X110550000Y-55760825D01*
X110550000Y-55999175D01*
X110596499Y-56232944D01*
X110687712Y-56453150D01*
X110820131Y-56651330D01*
X110988670Y-56819869D01*
X111186850Y-56952288D01*
X111407056Y-57043501D01*
X111640825Y-57090000D01*
X111879175Y-57090000D01*
X112112944Y-57043501D01*
X112333150Y-56952288D01*
X112450002Y-56874211D01*
X112450002Y-57044105D01*
X112201095Y-57293012D01*
X112112944Y-57256499D01*
X111879175Y-57210000D01*
X111640825Y-57210000D01*
X111407056Y-57256499D01*
X111186850Y-57347712D01*
X110988670Y-57480131D01*
X110820131Y-57648670D01*
X110687712Y-57846850D01*
X110596499Y-58067056D01*
X110550000Y-58300825D01*
X110550000Y-58539175D01*
X110596499Y-58772944D01*
X110687712Y-58993150D01*
X110820131Y-59191330D01*
X110988670Y-59359869D01*
X111186850Y-59492288D01*
X111407056Y-59583501D01*
X111640825Y-59630000D01*
X111879175Y-59630000D01*
X112112944Y-59583501D01*
X112333150Y-59492288D01*
X112531330Y-59359869D01*
X112699869Y-59191330D01*
X112832288Y-58993150D01*
X112900011Y-58829653D01*
X112900011Y-59134095D01*
X112201094Y-59833012D01*
X112112944Y-59796499D01*
X111879175Y-59750000D01*
X111640825Y-59750000D01*
X111407056Y-59796499D01*
X111186850Y-59887712D01*
X110988670Y-60020131D01*
X110820131Y-60188670D01*
X110687712Y-60386850D01*
X110596499Y-60607056D01*
X110550000Y-60840825D01*
X110550000Y-61079175D01*
X110596499Y-61312944D01*
X110687712Y-61533150D01*
X110820131Y-61731330D01*
X110988670Y-61899869D01*
X111186850Y-62032288D01*
X111407056Y-62123501D01*
X111640825Y-62170000D01*
X111879175Y-62170000D01*
X112112944Y-62123501D01*
X112333150Y-62032288D01*
X112531330Y-61899869D01*
X112699869Y-61731330D01*
X112832288Y-61533150D01*
X112923501Y-61312944D01*
X112970000Y-61079175D01*
X112970000Y-60840825D01*
X112923501Y-60607056D01*
X112886988Y-60518906D01*
X113350021Y-60055873D01*
X113350021Y-61224085D01*
X112201094Y-62373012D01*
X112112944Y-62336499D01*
X111879175Y-62290000D01*
X111640825Y-62290000D01*
X111407056Y-62336499D01*
X111186850Y-62427712D01*
X110988670Y-62560131D01*
X110820131Y-62728670D01*
X110687712Y-62926850D01*
X110596499Y-63147056D01*
X110550000Y-63380825D01*
X110550000Y-63619175D01*
X110596499Y-63852944D01*
X110687712Y-64073150D01*
X110820131Y-64271330D01*
X110988670Y-64439869D01*
X111186850Y-64572288D01*
X111407056Y-64663501D01*
X111640825Y-64710000D01*
X111879175Y-64710000D01*
X112112944Y-64663501D01*
X112333150Y-64572288D01*
X112450002Y-64494211D01*
X112450002Y-64664105D01*
X112201095Y-64913012D01*
X112112944Y-64876499D01*
X111879175Y-64830000D01*
X111640825Y-64830000D01*
X111407056Y-64876499D01*
X111186850Y-64967712D01*
X110988670Y-65100131D01*
X110820131Y-65268670D01*
X110687712Y-65466850D01*
X110596499Y-65687056D01*
X110550000Y-65920825D01*
X110550000Y-66159175D01*
X110596499Y-66392944D01*
X110687712Y-66613150D01*
X110820131Y-66811330D01*
X110988670Y-66979869D01*
X111186850Y-67112288D01*
X111407056Y-67203501D01*
X111640825Y-67250000D01*
X111879175Y-67250000D01*
X112112944Y-67203501D01*
X112333150Y-67112288D01*
X112531330Y-66979869D01*
X112699869Y-66811330D01*
X112832288Y-66613150D01*
X112923501Y-66392944D01*
X112970000Y-66159175D01*
X112970000Y-65920825D01*
X112923501Y-65687056D01*
X112886988Y-65598905D01*
X112973916Y-65511977D01*
X112973916Y-66680190D01*
X112201094Y-67453012D01*
X112112944Y-67416499D01*
X111879175Y-67370000D01*
X111640825Y-67370000D01*
X111407056Y-67416499D01*
X111186850Y-67507712D01*
X110988670Y-67640131D01*
X110820131Y-67808670D01*
X110687712Y-68006850D01*
X110596499Y-68227056D01*
X110550000Y-68460825D01*
X110550000Y-68699175D01*
X110596499Y-68932944D01*
X110687712Y-69153150D01*
X110820131Y-69351330D01*
X110988670Y-69519869D01*
X111186850Y-69652288D01*
X111407056Y-69743501D01*
X111609366Y-69783743D01*
X111443948Y-69949161D01*
X111407056Y-69956499D01*
X111186850Y-70047712D01*
X110988670Y-70180131D01*
X110820131Y-70348670D01*
X110687712Y-70546850D01*
X110596499Y-70767056D01*
X110550000Y-71000825D01*
X110550000Y-71239175D01*
X110596499Y-71472944D01*
X110687712Y-71693150D01*
X110820131Y-71891330D01*
X110988670Y-72059869D01*
X111186850Y-72192288D01*
X111407056Y-72283501D01*
X111640825Y-72330000D01*
X111879175Y-72330000D01*
X112112944Y-72283501D01*
X112333150Y-72192288D01*
X112531330Y-72059869D01*
X112699869Y-71891330D01*
X112832288Y-71693150D01*
X112913917Y-71496082D01*
X112913917Y-71820190D01*
X112201095Y-72533012D01*
X112112944Y-72496499D01*
X111879175Y-72450000D01*
X111640825Y-72450000D01*
X111407056Y-72496499D01*
X111186850Y-72587712D01*
X110988670Y-72720131D01*
X110820131Y-72888670D01*
X110687712Y-73086850D01*
X110596499Y-73307056D01*
X110550000Y-73540825D01*
X110550000Y-73779175D01*
X110596499Y-74012944D01*
X110687712Y-74233150D01*
X110820131Y-74431330D01*
X110988670Y-74599869D01*
X111186850Y-74732288D01*
X111407056Y-74823501D01*
X111640825Y-74870000D01*
X111879175Y-74870000D01*
X112112944Y-74823501D01*
X112333150Y-74732288D01*
X112531330Y-74599869D01*
X112699869Y-74431330D01*
X112832288Y-74233150D01*
X112923501Y-74012944D01*
X112970000Y-73779175D01*
X112970000Y-73540825D01*
X112923501Y-73307056D01*
X112886988Y-73218905D01*
X113414078Y-72691815D01*
X113414078Y-73860029D01*
X112201095Y-75073012D01*
X112112944Y-75036499D01*
X111879175Y-74990000D01*
X111640825Y-74990000D01*
X111407056Y-75036499D01*
X111186850Y-75127712D01*
X110988670Y-75260131D01*
X110820131Y-75428670D01*
X110687712Y-75626850D01*
X110596499Y-75847056D01*
X110550000Y-76080825D01*
X110550000Y-76319175D01*
X110596499Y-76552944D01*
X110687712Y-76773150D01*
X110820131Y-76971330D01*
X110988670Y-77139869D01*
X111186850Y-77272288D01*
X111407056Y-77363501D01*
X111640825Y-77410000D01*
X111879175Y-77410000D01*
X112112944Y-77363501D01*
X112333150Y-77272288D01*
X112531330Y-77139869D01*
X112699869Y-76971330D01*
X112832288Y-76773150D01*
X112923501Y-76552944D01*
X112970000Y-76319175D01*
X112970000Y-76080825D01*
X112923501Y-75847056D01*
X112886988Y-75758905D01*
X114139079Y-74506814D01*
X114139079Y-75675027D01*
X112285848Y-77528259D01*
X110910000Y-77528259D01*
X110839428Y-77535210D01*
X110771568Y-77555795D01*
X110709027Y-77589223D01*
X110654210Y-77634210D01*
X110609223Y-77689027D01*
X110575795Y-77751568D01*
X110555210Y-77819428D01*
X110548259Y-77890000D01*
X109655000Y-77890000D01*
X109655000Y-48464086D01*
X110567335Y-48464086D01*
X110580019Y-48527862D01*
X110654949Y-48752918D01*
X110772346Y-48959031D01*
X110927698Y-49138281D01*
X111115035Y-49283779D01*
X111327157Y-49389934D01*
X111555913Y-49452666D01*
X111745000Y-49379908D01*
X111745000Y-48275000D01*
X111775000Y-48275000D01*
X111775000Y-49379908D01*
X111964087Y-49452666D01*
X112192843Y-49389934D01*
X112404965Y-49283779D01*
X112592302Y-49138281D01*
X112747654Y-48959031D01*
X112865051Y-48752918D01*
X112939981Y-48527862D01*
X112952665Y-48464086D01*
X112879900Y-48275000D01*
X111775000Y-48275000D01*
X111745000Y-48275000D01*
X110640100Y-48275000D01*
X110567335Y-48464086D01*
X109655000Y-48464086D01*
X109655000Y-48055914D01*
X110567335Y-48055914D01*
X110640100Y-48245000D01*
X111745000Y-48245000D01*
X111745000Y-47140092D01*
X111775000Y-47140092D01*
X111775000Y-48245000D01*
X112879900Y-48245000D01*
X112952665Y-48055914D01*
X112939981Y-47992138D01*
X112865051Y-47767082D01*
X112747654Y-47560969D01*
X112592302Y-47381719D01*
X112404965Y-47236221D01*
X112192843Y-47130066D01*
X111964087Y-47067334D01*
X111775000Y-47140092D01*
X111745000Y-47140092D01*
X111555913Y-47067334D01*
X111327157Y-47130066D01*
X111115035Y-47236221D01*
X110927698Y-47381719D01*
X110772346Y-47560969D01*
X110654949Y-47767082D01*
X110580019Y-47992138D01*
X110567335Y-48055914D01*
X109655000Y-48055914D01*
X109655000Y-45600825D01*
X110550000Y-45600825D01*
X110550000Y-45839175D01*
X110596499Y-46072944D01*
X110687712Y-46293150D01*
X110820131Y-46491330D01*
X110988670Y-46659869D01*
X111186850Y-46792288D01*
X111407056Y-46883501D01*
X111640825Y-46930000D01*
X111879175Y-46930000D01*
X112112944Y-46883501D01*
X112333150Y-46792288D01*
X112531330Y-46659869D01*
X112699869Y-46491330D01*
X112832288Y-46293150D01*
X112923501Y-46072944D01*
X112970000Y-45839175D01*
X112970000Y-45600825D01*
X112923501Y-45367056D01*
X112832288Y-45146850D01*
X112699869Y-44948670D01*
X112531330Y-44780131D01*
X112333150Y-44647712D01*
X112112944Y-44556499D01*
X111879175Y-44510000D01*
X111640825Y-44510000D01*
X111407056Y-44556499D01*
X111186850Y-44647712D01*
X110988670Y-44780131D01*
X110820131Y-44948670D01*
X110687712Y-45146850D01*
X110596499Y-45367056D01*
X110550000Y-45600825D01*
X109655000Y-45600825D01*
X109655000Y-43384086D01*
X110567335Y-43384086D01*
X110580019Y-43447862D01*
X110654949Y-43672918D01*
X110772346Y-43879031D01*
X110927698Y-44058281D01*
X111115035Y-44203779D01*
X111327157Y-44309934D01*
X111555913Y-44372666D01*
X111745000Y-44299908D01*
X111745000Y-43195000D01*
X111775000Y-43195000D01*
X111775000Y-44299908D01*
X111964087Y-44372666D01*
X112192843Y-44309934D01*
X112404965Y-44203779D01*
X112592302Y-44058281D01*
X112747654Y-43879031D01*
X112865051Y-43672918D01*
X112939981Y-43447862D01*
X112952665Y-43384086D01*
X112879900Y-43195000D01*
X111775000Y-43195000D01*
X111745000Y-43195000D01*
X110640100Y-43195000D01*
X110567335Y-43384086D01*
X109655000Y-43384086D01*
X109655000Y-42975914D01*
X110567335Y-42975914D01*
X110640100Y-43165000D01*
X111745000Y-43165000D01*
X111745000Y-42060092D01*
X111775000Y-42060092D01*
X111775000Y-43165000D01*
X112879900Y-43165000D01*
X112952665Y-42975914D01*
X112939981Y-42912138D01*
X112865051Y-42687082D01*
X112747654Y-42480969D01*
X112592302Y-42301719D01*
X112404965Y-42156221D01*
X112192843Y-42050066D01*
X111964087Y-41987334D01*
X111775000Y-42060092D01*
X111745000Y-42060092D01*
X111555913Y-41987334D01*
X111327157Y-42050066D01*
X111115035Y-42156221D01*
X110927698Y-42301719D01*
X110772346Y-42480969D01*
X110654949Y-42687082D01*
X110580019Y-42912138D01*
X110567335Y-42975914D01*
X109655000Y-42975914D01*
X109655000Y-38880825D01*
X110550000Y-38880825D01*
X110550000Y-39119175D01*
X110596499Y-39352944D01*
X110687712Y-39573150D01*
X110820131Y-39771330D01*
X110988670Y-39939869D01*
X111186850Y-40072288D01*
X111407056Y-40163501D01*
X111640825Y-40210000D01*
X111879175Y-40210000D01*
X112112944Y-40163501D01*
X112333150Y-40072288D01*
X112531330Y-39939869D01*
X112699869Y-39771330D01*
X112832288Y-39573150D01*
X112923501Y-39352944D01*
X112970000Y-39119175D01*
X112970000Y-38880825D01*
X112923501Y-38647056D01*
X112832288Y-38426850D01*
X112699869Y-38228670D01*
X112531330Y-38060131D01*
X112333150Y-37927712D01*
X112112944Y-37836499D01*
X111879175Y-37790000D01*
X111640825Y-37790000D01*
X111407056Y-37836499D01*
X111186850Y-37927712D01*
X110988670Y-38060131D01*
X110820131Y-38228670D01*
X110687712Y-38426850D01*
X110596499Y-38647056D01*
X110550000Y-38880825D01*
X109655000Y-38880825D01*
X109655000Y-36108582D01*
X122035438Y-35995000D01*
X136640000Y-35995000D01*
X136640000Y-80845000D01*
G37*
X136640000Y-80845000D02*
X109655000Y-80845000D01*
X109655000Y-77890000D01*
X110548259Y-77890000D01*
X110548259Y-79590000D01*
X110555210Y-79660572D01*
X110575795Y-79728432D01*
X110609223Y-79790973D01*
X110654210Y-79845790D01*
X110709027Y-79890777D01*
X110771568Y-79924205D01*
X110839428Y-79944790D01*
X110910000Y-79951741D01*
X112610000Y-79951741D01*
X112680572Y-79944790D01*
X112748432Y-79924205D01*
X112810973Y-79890777D01*
X112865790Y-79845790D01*
X112910777Y-79790973D01*
X112944205Y-79728432D01*
X112964790Y-79660572D01*
X112971741Y-79590000D01*
X112971741Y-79204087D01*
X118187334Y-79204087D01*
X118250066Y-79432843D01*
X118356221Y-79644965D01*
X118501719Y-79832302D01*
X118680969Y-79987654D01*
X118887082Y-80105051D01*
X119112138Y-80179981D01*
X119175914Y-80192665D01*
X119365000Y-80119900D01*
X119365000Y-79015000D01*
X119395000Y-79015000D01*
X119395000Y-80119900D01*
X119584086Y-80192665D01*
X119647862Y-80179981D01*
X119872918Y-80105051D01*
X120079031Y-79987654D01*
X120258281Y-79832302D01*
X120403779Y-79644965D01*
X120509934Y-79432843D01*
X120572666Y-79204087D01*
X120727334Y-79204087D01*
X120790066Y-79432843D01*
X120896221Y-79644965D01*
X121041719Y-79832302D01*
X121220969Y-79987654D01*
X121427082Y-80105051D01*
X121652138Y-80179981D01*
X121715914Y-80192665D01*
X121905000Y-80119900D01*
X121905000Y-79015000D01*
X120800092Y-79015000D01*
X120727334Y-79204087D01*
X120572666Y-79204087D01*
X120499908Y-79015000D01*
X119395000Y-79015000D01*
X119365000Y-79015000D01*
X118260092Y-79015000D01*
X118187334Y-79204087D01*
X112971741Y-79204087D01*
X112971741Y-78795913D01*
X118187334Y-78795913D01*
X118260092Y-78985000D01*
X119365000Y-78985000D01*
X119365000Y-77880100D01*
X119395000Y-77880100D01*
X119395000Y-78985000D01*
X120499908Y-78985000D01*
X120572666Y-78795913D01*
X120727334Y-78795913D01*
X120800092Y-78985000D01*
X121905000Y-78985000D01*
X121905000Y-77880100D01*
X121935000Y-77880100D01*
X121935000Y-78985000D01*
X121955000Y-78985000D01*
X121955000Y-79015000D01*
X121935000Y-79015000D01*
X121935000Y-80119900D01*
X122124086Y-80192665D01*
X122187862Y-80179981D01*
X122412918Y-80105051D01*
X122619031Y-79987654D01*
X122798281Y-79832302D01*
X122943779Y-79644965D01*
X123049934Y-79432843D01*
X123112666Y-79204087D01*
X123039909Y-79015002D01*
X123094898Y-79015002D01*
X123119678Y-79266607D01*
X123197445Y-79522968D01*
X123323730Y-79759231D01*
X123493682Y-79966318D01*
X123700769Y-80136270D01*
X123937032Y-80262555D01*
X124193393Y-80340322D01*
X124393191Y-80360000D01*
X124393194Y-80360000D01*
X124460000Y-80366580D01*
X124526806Y-80360000D01*
X126933191Y-80360000D01*
X127000000Y-80366580D01*
X127066809Y-80360000D01*
X127266607Y-80340322D01*
X127522968Y-80262555D01*
X127618034Y-80211741D01*
X127850000Y-80211741D01*
X127920572Y-80204790D01*
X127988432Y-80184205D01*
X128050973Y-80150777D01*
X128105790Y-80105790D01*
X128150777Y-80050973D01*
X128184205Y-79988432D01*
X128204790Y-79920572D01*
X128211741Y-79850000D01*
X128211741Y-79618034D01*
X128262555Y-79522968D01*
X128340322Y-79266607D01*
X128366580Y-79000000D01*
X128360000Y-78933191D01*
X128360000Y-76900830D01*
X130414428Y-74846403D01*
X130452168Y-74815431D01*
X130464865Y-74808644D01*
X130557566Y-74732566D01*
X130633644Y-74639865D01*
X130690175Y-74534103D01*
X130716985Y-74445724D01*
X130762555Y-74360468D01*
X130840322Y-74104107D01*
X130866580Y-73837500D01*
X130840322Y-73570893D01*
X130762555Y-73314532D01*
X130716985Y-73229276D01*
X130690175Y-73140897D01*
X130633644Y-73035135D01*
X130557566Y-72942434D01*
X130464865Y-72866356D01*
X130452168Y-72859569D01*
X130259231Y-72701230D01*
X130022968Y-72574945D01*
X129766607Y-72497178D01*
X129566809Y-72477500D01*
X129566806Y-72477500D01*
X129500000Y-72470920D01*
X129433193Y-72477500D01*
X127066809Y-72477500D01*
X127000000Y-72470920D01*
X126999999Y-72470920D01*
X126978062Y-72473081D01*
X126933191Y-72477500D01*
X126733393Y-72497178D01*
X126477032Y-72574945D01*
X126448866Y-72590000D01*
X124983191Y-72590000D01*
X124783393Y-72609678D01*
X124527032Y-72687445D01*
X124290769Y-72813730D01*
X124083682Y-72983682D01*
X123913730Y-73190769D01*
X123861088Y-73289255D01*
X123860000Y-73105000D01*
X123770000Y-73015000D01*
X123065000Y-73015000D01*
X123065000Y-73670000D01*
X123155000Y-73760000D01*
X123500000Y-73761742D01*
X123570572Y-73754791D01*
X123638433Y-73734206D01*
X123700973Y-73700777D01*
X123708581Y-73694533D01*
X123683420Y-73950000D01*
X123708581Y-74205467D01*
X123700973Y-74199223D01*
X123638432Y-74165795D01*
X123570572Y-74145210D01*
X123500000Y-74138259D01*
X122600000Y-74138259D01*
X122529428Y-74145210D01*
X122461568Y-74165795D01*
X122399027Y-74199223D01*
X122344210Y-74244210D01*
X122299223Y-74299027D01*
X122265795Y-74361568D01*
X122245210Y-74429428D01*
X122238259Y-74500000D01*
X122238259Y-75300000D01*
X122245210Y-75370572D01*
X122265795Y-75438432D01*
X122299223Y-75500973D01*
X122344210Y-75555790D01*
X122399027Y-75600777D01*
X122461568Y-75634205D01*
X122529428Y-75654790D01*
X122600000Y-75661741D01*
X123500000Y-75661741D01*
X123570572Y-75654790D01*
X123638432Y-75634205D01*
X123700973Y-75600777D01*
X123755790Y-75555790D01*
X123800777Y-75500973D01*
X123834205Y-75438432D01*
X123854790Y-75370572D01*
X123861741Y-75300000D01*
X123861741Y-74611966D01*
X123913730Y-74709231D01*
X124083682Y-74916318D01*
X124290769Y-75086270D01*
X124527032Y-75212555D01*
X124783393Y-75290322D01*
X124983191Y-75310000D01*
X125640001Y-75310000D01*
X125640001Y-75896668D01*
X123545578Y-77991092D01*
X123493682Y-78033682D01*
X123323730Y-78240769D01*
X123197445Y-78477032D01*
X123119678Y-78733393D01*
X123094898Y-78984998D01*
X123039909Y-78984998D01*
X123112666Y-78795913D01*
X123049934Y-78567157D01*
X122943779Y-78355035D01*
X122798281Y-78167698D01*
X122619031Y-78012346D01*
X122412918Y-77894949D01*
X122187862Y-77820019D01*
X122124086Y-77807335D01*
X121935000Y-77880100D01*
X121905000Y-77880100D01*
X121715914Y-77807335D01*
X121652138Y-77820019D01*
X121427082Y-77894949D01*
X121220969Y-78012346D01*
X121041719Y-78167698D01*
X120896221Y-78355035D01*
X120790066Y-78567157D01*
X120727334Y-78795913D01*
X120572666Y-78795913D01*
X120509934Y-78567157D01*
X120403779Y-78355035D01*
X120258281Y-78167698D01*
X120079031Y-78012346D01*
X119872918Y-77894949D01*
X119647862Y-77820019D01*
X119584086Y-77807335D01*
X119395000Y-77880100D01*
X119365000Y-77880100D01*
X119175914Y-77807335D01*
X119112138Y-77820019D01*
X118887082Y-77894949D01*
X118680969Y-78012346D01*
X118501719Y-78167698D01*
X118356221Y-78355035D01*
X118250066Y-78567157D01*
X118187334Y-78795913D01*
X112971741Y-78795913D01*
X112971741Y-78214152D01*
X114950182Y-76235712D01*
X114968684Y-76220528D01*
X114990952Y-76193394D01*
X115029291Y-76146678D01*
X115069798Y-76070894D01*
X115074327Y-76062421D01*
X115102060Y-75970998D01*
X115109078Y-75899742D01*
X115109078Y-75899739D01*
X115111424Y-75875922D01*
X115109078Y-75852105D01*
X115109078Y-73400000D01*
X122238258Y-73400000D01*
X122245209Y-73470572D01*
X122265794Y-73538433D01*
X122299223Y-73600973D01*
X122344210Y-73655790D01*
X122399027Y-73700777D01*
X122461567Y-73734206D01*
X122529428Y-73754791D01*
X122600000Y-73761742D01*
X122945000Y-73760000D01*
X123035000Y-73670000D01*
X123035000Y-73015000D01*
X122330000Y-73015000D01*
X122240000Y-73105000D01*
X122238258Y-73400000D01*
X115109078Y-73400000D01*
X115109078Y-72600000D01*
X122238258Y-72600000D01*
X122240000Y-72895000D01*
X122330000Y-72985000D01*
X123035000Y-72985000D01*
X123035000Y-72330000D01*
X123065000Y-72330000D01*
X123065000Y-72985000D01*
X123770000Y-72985000D01*
X123860000Y-72895000D01*
X123861742Y-72600000D01*
X123854791Y-72529428D01*
X123834206Y-72461567D01*
X123800777Y-72399027D01*
X123755790Y-72344210D01*
X123700973Y-72299223D01*
X123638433Y-72265794D01*
X123570572Y-72245209D01*
X123500000Y-72238258D01*
X123155000Y-72240000D01*
X123065000Y-72330000D01*
X123035000Y-72330000D01*
X122945000Y-72240000D01*
X122600000Y-72238258D01*
X122529428Y-72245209D01*
X122461567Y-72265794D01*
X122399027Y-72299223D01*
X122344210Y-72344210D01*
X122299223Y-72399027D01*
X122265794Y-72461567D01*
X122245209Y-72529428D01*
X122238258Y-72600000D01*
X115109078Y-72600000D01*
X115109078Y-71575000D01*
X125763258Y-71575000D01*
X125770209Y-71645572D01*
X125790794Y-71713433D01*
X125824223Y-71775973D01*
X125869210Y-71830790D01*
X125924027Y-71875777D01*
X125986567Y-71909206D01*
X126054428Y-71929791D01*
X126125000Y-71936742D01*
X126895000Y-71935000D01*
X126985000Y-71845000D01*
X126985000Y-70877500D01*
X127015000Y-70877500D01*
X127015000Y-71845000D01*
X127105000Y-71935000D01*
X127875000Y-71936742D01*
X127945572Y-71929791D01*
X128013433Y-71909206D01*
X128075973Y-71875777D01*
X128130790Y-71830790D01*
X128175777Y-71775973D01*
X128209206Y-71713433D01*
X128229791Y-71645572D01*
X128236742Y-71575000D01*
X128263258Y-71575000D01*
X128270209Y-71645572D01*
X128290794Y-71713433D01*
X128324223Y-71775973D01*
X128369210Y-71830790D01*
X128424027Y-71875777D01*
X128486567Y-71909206D01*
X128554428Y-71929791D01*
X128625000Y-71936742D01*
X129395000Y-71935000D01*
X129485000Y-71845000D01*
X129485000Y-70877500D01*
X129515000Y-70877500D01*
X129515000Y-71845000D01*
X129605000Y-71935000D01*
X130375000Y-71936742D01*
X130445572Y-71929791D01*
X130513433Y-71909206D01*
X130575973Y-71875777D01*
X130630790Y-71830790D01*
X130675777Y-71775973D01*
X130709206Y-71713433D01*
X130729791Y-71645572D01*
X130736742Y-71575000D01*
X130735000Y-70967500D01*
X130645000Y-70877500D01*
X129515000Y-70877500D01*
X129485000Y-70877500D01*
X128355000Y-70877500D01*
X128265000Y-70967500D01*
X128263258Y-71575000D01*
X128236742Y-71575000D01*
X128235000Y-70967500D01*
X128145000Y-70877500D01*
X127015000Y-70877500D01*
X126985000Y-70877500D01*
X125855000Y-70877500D01*
X125765000Y-70967500D01*
X125763258Y-71575000D01*
X115109078Y-71575000D01*
X115109078Y-70150000D01*
X125763258Y-70150000D01*
X125765000Y-70757500D01*
X125855000Y-70847500D01*
X126985000Y-70847500D01*
X126985000Y-69880000D01*
X127015000Y-69880000D01*
X127015000Y-70847500D01*
X128145000Y-70847500D01*
X128235000Y-70757500D01*
X128236742Y-70150000D01*
X128263258Y-70150000D01*
X128265000Y-70757500D01*
X128355000Y-70847500D01*
X129485000Y-70847500D01*
X129485000Y-69880000D01*
X129515000Y-69880000D01*
X129515000Y-70847500D01*
X130645000Y-70847500D01*
X130735000Y-70757500D01*
X130736742Y-70150000D01*
X130729791Y-70079428D01*
X130709206Y-70011567D01*
X130675777Y-69949027D01*
X130630790Y-69894210D01*
X130575973Y-69849223D01*
X130513433Y-69815794D01*
X130445572Y-69795209D01*
X130375000Y-69788258D01*
X129605000Y-69790000D01*
X129515000Y-69880000D01*
X129485000Y-69880000D01*
X129395000Y-69790000D01*
X128625000Y-69788258D01*
X128554428Y-69795209D01*
X128486567Y-69815794D01*
X128424027Y-69849223D01*
X128369210Y-69894210D01*
X128324223Y-69949027D01*
X128290794Y-70011567D01*
X128270209Y-70079428D01*
X128263258Y-70150000D01*
X128236742Y-70150000D01*
X128229791Y-70079428D01*
X128209206Y-70011567D01*
X128175777Y-69949027D01*
X128130790Y-69894210D01*
X128075973Y-69849223D01*
X128013433Y-69815794D01*
X127945572Y-69795209D01*
X127875000Y-69788258D01*
X127105000Y-69790000D01*
X127015000Y-69880000D01*
X126985000Y-69880000D01*
X126895000Y-69790000D01*
X126125000Y-69788258D01*
X126054428Y-69795209D01*
X125986567Y-69815794D01*
X125924027Y-69849223D01*
X125869210Y-69894210D01*
X125824223Y-69949027D01*
X125790794Y-70011567D01*
X125770209Y-70079428D01*
X125763258Y-70150000D01*
X115109078Y-70150000D01*
X115109078Y-69889802D01*
X115214408Y-69784472D01*
X115297581Y-69659995D01*
X115354871Y-69521684D01*
X115384078Y-69374853D01*
X115384078Y-69225147D01*
X115354871Y-69078316D01*
X115297581Y-68940005D01*
X115214408Y-68815528D01*
X115108550Y-68709670D01*
X114984073Y-68626497D01*
X114845762Y-68569207D01*
X114698931Y-68540000D01*
X114549225Y-68540000D01*
X114402394Y-68569207D01*
X114384078Y-68576794D01*
X114384078Y-68551045D01*
X115135044Y-67800079D01*
X115153551Y-67784891D01*
X115189662Y-67740889D01*
X115238997Y-67859995D01*
X115322170Y-67984472D01*
X115428028Y-68090330D01*
X115552505Y-68173503D01*
X115690816Y-68230793D01*
X115837647Y-68260000D01*
X115987353Y-68260000D01*
X116134184Y-68230793D01*
X116272495Y-68173503D01*
X116396972Y-68090330D01*
X116502830Y-67984472D01*
X116586003Y-67859995D01*
X116643293Y-67721684D01*
X116672500Y-67574853D01*
X116672500Y-67425147D01*
X116643293Y-67278316D01*
X116586003Y-67140005D01*
X116502830Y-67015528D01*
X116472500Y-66985198D01*
X116472500Y-66327138D01*
X116494345Y-66324987D01*
X116609103Y-66290175D01*
X116714865Y-66233644D01*
X116807566Y-66157566D01*
X116883644Y-66064865D01*
X116931677Y-65975000D01*
X117813258Y-65975000D01*
X117820209Y-66045572D01*
X117840794Y-66113433D01*
X117874223Y-66175973D01*
X117919210Y-66230790D01*
X117974027Y-66275777D01*
X118036567Y-66309206D01*
X118104428Y-66329791D01*
X118175000Y-66336742D01*
X118782500Y-66335000D01*
X118872500Y-66245000D01*
X118872500Y-65115000D01*
X118902500Y-65115000D01*
X118902500Y-66245000D01*
X118992500Y-66335000D01*
X119600000Y-66336742D01*
X119670572Y-66329791D01*
X119738433Y-66309206D01*
X119800973Y-66275777D01*
X119855790Y-66230790D01*
X119900777Y-66175973D01*
X119934206Y-66113433D01*
X119954791Y-66045572D01*
X119961742Y-65975000D01*
X119960000Y-65205000D01*
X119870000Y-65115000D01*
X118902500Y-65115000D01*
X118872500Y-65115000D01*
X117905000Y-65115000D01*
X117815000Y-65205000D01*
X117813258Y-65975000D01*
X116931677Y-65975000D01*
X116940175Y-65959103D01*
X116974987Y-65844345D01*
X116986741Y-65725000D01*
X116986741Y-64475000D01*
X116974987Y-64355655D01*
X116940175Y-64240897D01*
X116931678Y-64225000D01*
X117813258Y-64225000D01*
X117815000Y-64995000D01*
X117905000Y-65085000D01*
X118872500Y-65085000D01*
X118872500Y-63955000D01*
X118902500Y-63955000D01*
X118902500Y-65085000D01*
X119870000Y-65085000D01*
X119960000Y-64995000D01*
X119961742Y-64225000D01*
X119954791Y-64154428D01*
X119934206Y-64086567D01*
X119900777Y-64024027D01*
X119855790Y-63969210D01*
X119800973Y-63924223D01*
X119738433Y-63890794D01*
X119670572Y-63870209D01*
X119600000Y-63863258D01*
X118992500Y-63865000D01*
X118902500Y-63955000D01*
X118872500Y-63955000D01*
X118782500Y-63865000D01*
X118175000Y-63863258D01*
X118104428Y-63870209D01*
X118036567Y-63890794D01*
X117974027Y-63924223D01*
X117919210Y-63969210D01*
X117874223Y-64024027D01*
X117840794Y-64086567D01*
X117820209Y-64154428D01*
X117813258Y-64225000D01*
X116931678Y-64225000D01*
X116883644Y-64135135D01*
X116871555Y-64120404D01*
X117824716Y-63167244D01*
X117846074Y-63149716D01*
X117863602Y-63128358D01*
X117863608Y-63128352D01*
X117868767Y-63122065D01*
X118752790Y-63122065D01*
X118752790Y-63249344D01*
X119181126Y-63680143D01*
X119235943Y-63725130D01*
X119298484Y-63758559D01*
X119366344Y-63779144D01*
X119436916Y-63786095D01*
X119507488Y-63779144D01*
X119575349Y-63758559D01*
X119637889Y-63725130D01*
X119692706Y-63680143D01*
X120235947Y-63134439D01*
X120235947Y-63007160D01*
X119551821Y-62323034D01*
X118752790Y-63122065D01*
X117868767Y-63122065D01*
X117916054Y-63064446D01*
X117943848Y-63012446D01*
X117968054Y-62967160D01*
X118000076Y-62861600D01*
X118008179Y-62779327D01*
X118008179Y-62779318D01*
X118010887Y-62751822D01*
X118008179Y-62724326D01*
X118008179Y-62416726D01*
X118067547Y-62416726D01*
X118074498Y-62487298D01*
X118095083Y-62555158D01*
X118128512Y-62617699D01*
X118173499Y-62672516D01*
X118604298Y-63100852D01*
X118731577Y-63100852D01*
X119530608Y-62301821D01*
X119573034Y-62301821D01*
X120257160Y-62985947D01*
X120384439Y-62985947D01*
X120930143Y-62442706D01*
X120975130Y-62387889D01*
X121008559Y-62325349D01*
X121029144Y-62257488D01*
X121036095Y-62186916D01*
X121029144Y-62116344D01*
X121008559Y-62048484D01*
X120975130Y-61985943D01*
X120930143Y-61931126D01*
X120499344Y-61502790D01*
X120372065Y-61502790D01*
X119573034Y-62301821D01*
X119530608Y-62301821D01*
X118846482Y-61617695D01*
X118719203Y-61617695D01*
X118173499Y-62160936D01*
X118128512Y-62215753D01*
X118095083Y-62278293D01*
X118074498Y-62346154D01*
X118067547Y-62416726D01*
X118008179Y-62416726D01*
X118008179Y-61157385D01*
X118649724Y-60515840D01*
X118725802Y-60423139D01*
X118782333Y-60317377D01*
X118817145Y-60202619D01*
X118828899Y-60083274D01*
X118817145Y-59963929D01*
X118782333Y-59849171D01*
X118725802Y-59743409D01*
X118649724Y-59650708D01*
X118487645Y-59488629D01*
X118874930Y-59101343D01*
X118971537Y-59195656D01*
X119098816Y-59195656D01*
X119809459Y-58485014D01*
X119795317Y-58470872D01*
X119816530Y-58449659D01*
X119830672Y-58463801D01*
X120541314Y-57753158D01*
X120541314Y-57625879D01*
X120440016Y-57522117D01*
X120385199Y-57477130D01*
X120322658Y-57443701D01*
X120258583Y-57424264D01*
X120245006Y-57379507D01*
X120200026Y-57295356D01*
X120139494Y-57221597D01*
X119962717Y-57044820D01*
X119888958Y-56984288D01*
X119804807Y-56939308D01*
X119713497Y-56911610D01*
X119707600Y-56911029D01*
X119707019Y-56905132D01*
X119679321Y-56813822D01*
X119634341Y-56729671D01*
X119573809Y-56655912D01*
X119397032Y-56479135D01*
X119323273Y-56418603D01*
X119239122Y-56373623D01*
X119147812Y-56345925D01*
X119141915Y-56345344D01*
X119141334Y-56339446D01*
X119113636Y-56248136D01*
X119068656Y-56163985D01*
X119008124Y-56090226D01*
X118831347Y-55913449D01*
X118757588Y-55852917D01*
X118673437Y-55807937D01*
X118582127Y-55780239D01*
X118576229Y-55779658D01*
X118575648Y-55773761D01*
X118547950Y-55682451D01*
X118502970Y-55598300D01*
X118442438Y-55524541D01*
X118265661Y-55347764D01*
X118191902Y-55287232D01*
X118122246Y-55250000D01*
X118191902Y-55212768D01*
X118265661Y-55152236D01*
X118442438Y-54975459D01*
X118502970Y-54901700D01*
X118547950Y-54817549D01*
X118575648Y-54726239D01*
X118576229Y-54720342D01*
X118582127Y-54719761D01*
X118673437Y-54692063D01*
X118757588Y-54647083D01*
X118831347Y-54586551D01*
X119008124Y-54409774D01*
X119068656Y-54336015D01*
X119113636Y-54251864D01*
X119141334Y-54160554D01*
X119141915Y-54154656D01*
X119147812Y-54154075D01*
X119239122Y-54126377D01*
X119323273Y-54081397D01*
X119397032Y-54020865D01*
X119573809Y-53844088D01*
X119634341Y-53770329D01*
X119679321Y-53686178D01*
X119707019Y-53594868D01*
X119707600Y-53588971D01*
X119713497Y-53588390D01*
X119804807Y-53560692D01*
X119888958Y-53515712D01*
X119962717Y-53455180D01*
X120139494Y-53278403D01*
X120200026Y-53204644D01*
X120245006Y-53120493D01*
X120272704Y-53029183D01*
X120273285Y-53023285D01*
X120279183Y-53022704D01*
X120370493Y-52995006D01*
X120454644Y-52950026D01*
X120528403Y-52889494D01*
X120705180Y-52712717D01*
X120765712Y-52638958D01*
X120810692Y-52554807D01*
X120838390Y-52463497D01*
X120838971Y-52457600D01*
X120844868Y-52457019D01*
X120936178Y-52429321D01*
X121020329Y-52384341D01*
X121094088Y-52323809D01*
X121270865Y-52147032D01*
X121331397Y-52073273D01*
X121376377Y-51989122D01*
X121404075Y-51897812D01*
X121404656Y-51891915D01*
X121410554Y-51891334D01*
X121501864Y-51863636D01*
X121586015Y-51818656D01*
X121659774Y-51758124D01*
X121836551Y-51581347D01*
X121897083Y-51507588D01*
X121942063Y-51423437D01*
X121969761Y-51332127D01*
X121970342Y-51326229D01*
X121976239Y-51325648D01*
X122067549Y-51297950D01*
X122151700Y-51252970D01*
X122225459Y-51192438D01*
X122402236Y-51015661D01*
X122462768Y-50941902D01*
X122500000Y-50872246D01*
X122537232Y-50941902D01*
X122597764Y-51015661D01*
X122774541Y-51192438D01*
X122848300Y-51252970D01*
X122932451Y-51297950D01*
X123023761Y-51325648D01*
X123029658Y-51326229D01*
X123030239Y-51332127D01*
X123057937Y-51423437D01*
X123102917Y-51507588D01*
X123163449Y-51581347D01*
X123340226Y-51758124D01*
X123413985Y-51818656D01*
X123498136Y-51863636D01*
X123589446Y-51891334D01*
X123595344Y-51891915D01*
X123595925Y-51897812D01*
X123623623Y-51989122D01*
X123668603Y-52073273D01*
X123729135Y-52147032D01*
X123905912Y-52323809D01*
X123979671Y-52384341D01*
X124063822Y-52429321D01*
X124155132Y-52457019D01*
X124161029Y-52457600D01*
X124161610Y-52463497D01*
X124189308Y-52554807D01*
X124234288Y-52638958D01*
X124294820Y-52712717D01*
X124471597Y-52889494D01*
X124545356Y-52950026D01*
X124629507Y-52995006D01*
X124720817Y-53022704D01*
X124726715Y-53023285D01*
X124727296Y-53029183D01*
X124754994Y-53120493D01*
X124799974Y-53204644D01*
X124860506Y-53278403D01*
X125037283Y-53455180D01*
X125111042Y-53515712D01*
X125195193Y-53560692D01*
X125286503Y-53588390D01*
X125292400Y-53588971D01*
X125292981Y-53594868D01*
X125320679Y-53686178D01*
X125365659Y-53770329D01*
X125426191Y-53844088D01*
X125602968Y-54020865D01*
X125676727Y-54081397D01*
X125760878Y-54126377D01*
X125852188Y-54154075D01*
X125858085Y-54154656D01*
X125858666Y-54160554D01*
X125886364Y-54251864D01*
X125931344Y-54336015D01*
X125991876Y-54409774D01*
X126168653Y-54586551D01*
X126242412Y-54647083D01*
X126326563Y-54692063D01*
X126417873Y-54719761D01*
X126423771Y-54720342D01*
X126424352Y-54726239D01*
X126452050Y-54817549D01*
X126497030Y-54901700D01*
X126557562Y-54975459D01*
X126734339Y-55152236D01*
X126808098Y-55212768D01*
X126877754Y-55250000D01*
X126808098Y-55287232D01*
X126734339Y-55347764D01*
X126557562Y-55524541D01*
X126497030Y-55598300D01*
X126452050Y-55682451D01*
X126424352Y-55773761D01*
X126423771Y-55779658D01*
X126417873Y-55780239D01*
X126326563Y-55807937D01*
X126242412Y-55852917D01*
X126168653Y-55913449D01*
X125991876Y-56090226D01*
X125931344Y-56163985D01*
X125886364Y-56248136D01*
X125858666Y-56339446D01*
X125858085Y-56345344D01*
X125852188Y-56345925D01*
X125760878Y-56373623D01*
X125676727Y-56418603D01*
X125602968Y-56479135D01*
X125426191Y-56655912D01*
X125365659Y-56729671D01*
X125320679Y-56813822D01*
X125292981Y-56905132D01*
X125292400Y-56911029D01*
X125286503Y-56911610D01*
X125195193Y-56939308D01*
X125111042Y-56984288D01*
X125037283Y-57044820D01*
X124860506Y-57221597D01*
X124799974Y-57295356D01*
X124754994Y-57379507D01*
X124727296Y-57470817D01*
X124726715Y-57476715D01*
X124720817Y-57477296D01*
X124629507Y-57504994D01*
X124545356Y-57549974D01*
X124471597Y-57610506D01*
X124294820Y-57787283D01*
X124234288Y-57861042D01*
X124189308Y-57945193D01*
X124161610Y-58036503D01*
X124161029Y-58042400D01*
X124155132Y-58042981D01*
X124063822Y-58070679D01*
X123979671Y-58115659D01*
X123905912Y-58176191D01*
X123729135Y-58352968D01*
X123668603Y-58426727D01*
X123623623Y-58510878D01*
X123595925Y-58602188D01*
X123595344Y-58608085D01*
X123589446Y-58608666D01*
X123498136Y-58636364D01*
X123413985Y-58681344D01*
X123340226Y-58741876D01*
X123163449Y-58918653D01*
X123102917Y-58992412D01*
X123057937Y-59076563D01*
X123030239Y-59167873D01*
X123029658Y-59173771D01*
X123023761Y-59174352D01*
X122932451Y-59202050D01*
X122848300Y-59247030D01*
X122774541Y-59307562D01*
X122597764Y-59484339D01*
X122537232Y-59558098D01*
X122500000Y-59627754D01*
X122462768Y-59558098D01*
X122402236Y-59484339D01*
X122225459Y-59307562D01*
X122151700Y-59247030D01*
X122067549Y-59202050D01*
X121976239Y-59174352D01*
X121970342Y-59173771D01*
X121969761Y-59167873D01*
X121942063Y-59076563D01*
X121897083Y-58992412D01*
X121836551Y-58918653D01*
X121659774Y-58741876D01*
X121586015Y-58681344D01*
X121501864Y-58636364D01*
X121461710Y-58624184D01*
X121625894Y-58460000D01*
X121774853Y-58460000D01*
X121921684Y-58430793D01*
X122059995Y-58373503D01*
X122184472Y-58290330D01*
X122290330Y-58184472D01*
X122373503Y-58059995D01*
X122430793Y-57921684D01*
X122460000Y-57774853D01*
X122460000Y-57625147D01*
X122430793Y-57478316D01*
X122373503Y-57340005D01*
X122290330Y-57215528D01*
X122184472Y-57109670D01*
X122059995Y-57026497D01*
X121921684Y-56969207D01*
X121774853Y-56940000D01*
X121625147Y-56940000D01*
X121478316Y-56969207D01*
X121340005Y-57026497D01*
X121215528Y-57109670D01*
X121109670Y-57215528D01*
X121026497Y-57340005D01*
X120969207Y-57478316D01*
X120940000Y-57625147D01*
X120940000Y-57774106D01*
X120813793Y-57900313D01*
X120793569Y-57875670D01*
X120689807Y-57774372D01*
X120562528Y-57774372D01*
X119851885Y-58485014D01*
X119866028Y-58499157D01*
X119844815Y-58520370D01*
X119830672Y-58506227D01*
X119120030Y-59216870D01*
X119120030Y-59344149D01*
X119221328Y-59447911D01*
X119276145Y-59492898D01*
X119338686Y-59526327D01*
X119402761Y-59545763D01*
X119416337Y-59590520D01*
X119461317Y-59674671D01*
X119521849Y-59748430D01*
X119601370Y-59827951D01*
X119526497Y-59940005D01*
X119469207Y-60078316D01*
X119440000Y-60225147D01*
X119440000Y-60374853D01*
X119469207Y-60521684D01*
X119526497Y-60659995D01*
X119609670Y-60784472D01*
X119644895Y-60819697D01*
X119596154Y-60824498D01*
X119528293Y-60845083D01*
X119465753Y-60878512D01*
X119410936Y-60923499D01*
X118867695Y-61469203D01*
X118867695Y-61596482D01*
X119551821Y-62280608D01*
X120350852Y-61481577D01*
X120350852Y-61354298D01*
X120041741Y-61043409D01*
X120125147Y-61060000D01*
X120274853Y-61060000D01*
X120421684Y-61030793D01*
X120559995Y-60973503D01*
X120672049Y-60898630D01*
X120829997Y-61056578D01*
X120903756Y-61117110D01*
X120987907Y-61162090D01*
X121079217Y-61189788D01*
X121174175Y-61199141D01*
X121269133Y-61189788D01*
X121333382Y-61170299D01*
X121409670Y-61284472D01*
X121515528Y-61390330D01*
X121640005Y-61473503D01*
X121778316Y-61530793D01*
X121925147Y-61560000D01*
X122074853Y-61560000D01*
X122221684Y-61530793D01*
X122359995Y-61473503D01*
X122484472Y-61390330D01*
X122590330Y-61284472D01*
X122673503Y-61159995D01*
X122730793Y-61021684D01*
X122760000Y-60874853D01*
X122760000Y-60725147D01*
X122730793Y-60578316D01*
X122673503Y-60440005D01*
X122590330Y-60315528D01*
X122484472Y-60209670D01*
X122411762Y-60161087D01*
X122462768Y-60098936D01*
X122500000Y-60029280D01*
X122537232Y-60098936D01*
X122597764Y-60172695D01*
X122987574Y-60562505D01*
X122994290Y-60630699D01*
X123016807Y-60704923D01*
X123022024Y-60722122D01*
X123067059Y-60806378D01*
X123103063Y-60850249D01*
X123127667Y-60880229D01*
X123146169Y-60895413D01*
X131551070Y-69300314D01*
X131551071Y-76132243D01*
X131548724Y-76156070D01*
X131558089Y-76251146D01*
X131585822Y-76342569D01*
X131630857Y-76426825D01*
X131676280Y-76482173D01*
X131691465Y-76500676D01*
X131709967Y-76515860D01*
X133408259Y-78214153D01*
X133408259Y-79590000D01*
X133415210Y-79660572D01*
X133435795Y-79728432D01*
X133469223Y-79790973D01*
X133514210Y-79845790D01*
X133569027Y-79890777D01*
X133631568Y-79924205D01*
X133699428Y-79944790D01*
X133770000Y-79951741D01*
X135470000Y-79951741D01*
X135540572Y-79944790D01*
X135608432Y-79924205D01*
X135670973Y-79890777D01*
X135725790Y-79845790D01*
X135770777Y-79790973D01*
X135804205Y-79728432D01*
X135824790Y-79660572D01*
X135831741Y-79590000D01*
X135831741Y-77890000D01*
X135824790Y-77819428D01*
X135804205Y-77751568D01*
X135770777Y-77689027D01*
X135725790Y-77634210D01*
X135670973Y-77589223D01*
X135608432Y-77555795D01*
X135540572Y-77535210D01*
X135470000Y-77528259D01*
X134094153Y-77528259D01*
X132521070Y-75955177D01*
X132521070Y-74786963D01*
X133493012Y-75758906D01*
X133456499Y-75847056D01*
X133410000Y-76080825D01*
X133410000Y-76319175D01*
X133456499Y-76552944D01*
X133547712Y-76773150D01*
X133680131Y-76971330D01*
X133848670Y-77139869D01*
X134046850Y-77272288D01*
X134267056Y-77363501D01*
X134500825Y-77410000D01*
X134739175Y-77410000D01*
X134972944Y-77363501D01*
X135193150Y-77272288D01*
X135391330Y-77139869D01*
X135559869Y-76971330D01*
X135692288Y-76773150D01*
X135783501Y-76552944D01*
X135830000Y-76319175D01*
X135830000Y-76080825D01*
X135783501Y-75847056D01*
X135692288Y-75626850D01*
X135559869Y-75428670D01*
X135391330Y-75260131D01*
X135193150Y-75127712D01*
X134972944Y-75036499D01*
X134739175Y-74990000D01*
X134500825Y-74990000D01*
X134267056Y-75036499D01*
X134178906Y-75073012D01*
X132971080Y-73865187D01*
X132971080Y-72696973D01*
X133493012Y-73218906D01*
X133456499Y-73307056D01*
X133410000Y-73540825D01*
X133410000Y-73779175D01*
X133456499Y-74012944D01*
X133547712Y-74233150D01*
X133680131Y-74431330D01*
X133848670Y-74599869D01*
X134046850Y-74732288D01*
X134267056Y-74823501D01*
X134500825Y-74870000D01*
X134739175Y-74870000D01*
X134972944Y-74823501D01*
X135193150Y-74732288D01*
X135391330Y-74599869D01*
X135559869Y-74431330D01*
X135692288Y-74233150D01*
X135783501Y-74012944D01*
X135830000Y-73779175D01*
X135830000Y-73540825D01*
X135783501Y-73307056D01*
X135692288Y-73086850D01*
X135559869Y-72888670D01*
X135391330Y-72720131D01*
X135193150Y-72587712D01*
X134972944Y-72496499D01*
X134739175Y-72450000D01*
X134500825Y-72450000D01*
X134267056Y-72496499D01*
X134178906Y-72533012D01*
X133479989Y-71834096D01*
X133479989Y-71529653D01*
X133547712Y-71693150D01*
X133680131Y-71891330D01*
X133848670Y-72059869D01*
X134046850Y-72192288D01*
X134267056Y-72283501D01*
X134500825Y-72330000D01*
X134739175Y-72330000D01*
X134972944Y-72283501D01*
X135193150Y-72192288D01*
X135391330Y-72059869D01*
X135559869Y-71891330D01*
X135692288Y-71693150D01*
X135783501Y-71472944D01*
X135830000Y-71239175D01*
X135830000Y-71000825D01*
X135783501Y-70767056D01*
X135692288Y-70546850D01*
X135559869Y-70348670D01*
X135391330Y-70180131D01*
X135193150Y-70047712D01*
X134972944Y-69956499D01*
X134739175Y-69910000D01*
X134500825Y-69910000D01*
X134267056Y-69956499D01*
X134178905Y-69993012D01*
X133929999Y-69744106D01*
X133929999Y-69574211D01*
X134046850Y-69652288D01*
X134267056Y-69743501D01*
X134500825Y-69790000D01*
X134739175Y-69790000D01*
X134972944Y-69743501D01*
X135193150Y-69652288D01*
X135391330Y-69519869D01*
X135559869Y-69351330D01*
X135692288Y-69153150D01*
X135783501Y-68932944D01*
X135830000Y-68699175D01*
X135830000Y-68460825D01*
X135783501Y-68227056D01*
X135692288Y-68006850D01*
X135559869Y-67808670D01*
X135391330Y-67640131D01*
X135193150Y-67507712D01*
X134972944Y-67416499D01*
X134739175Y-67370000D01*
X134500825Y-67370000D01*
X134267056Y-67416499D01*
X134178906Y-67453012D01*
X133885000Y-67159107D01*
X133885000Y-67004144D01*
X134046850Y-67112288D01*
X134267056Y-67203501D01*
X134500825Y-67250000D01*
X134739175Y-67250000D01*
X134972944Y-67203501D01*
X135193150Y-67112288D01*
X135391330Y-66979869D01*
X135559869Y-66811330D01*
X135692288Y-66613150D01*
X135783501Y-66392944D01*
X135830000Y-66159175D01*
X135830000Y-65920825D01*
X135783501Y-65687056D01*
X135692288Y-65466850D01*
X135559869Y-65268670D01*
X135391330Y-65100131D01*
X135193150Y-64967712D01*
X134972944Y-64876499D01*
X134739175Y-64830000D01*
X134500825Y-64830000D01*
X134469233Y-64836284D01*
X134303749Y-64670800D01*
X134500825Y-64710000D01*
X134739175Y-64710000D01*
X134972944Y-64663501D01*
X135193150Y-64572288D01*
X135391330Y-64439869D01*
X135559869Y-64271330D01*
X135692288Y-64073150D01*
X135783501Y-63852944D01*
X135830000Y-63619175D01*
X135830000Y-63380825D01*
X135783501Y-63147056D01*
X135692288Y-62926850D01*
X135559869Y-62728670D01*
X135391330Y-62560131D01*
X135193150Y-62427712D01*
X134972944Y-62336499D01*
X134739175Y-62290000D01*
X134500825Y-62290000D01*
X134267056Y-62336499D01*
X134046850Y-62427712D01*
X133848670Y-62560131D01*
X133680131Y-62728670D01*
X133605173Y-62840853D01*
X132209320Y-61445000D01*
X133511199Y-61445000D01*
X133547712Y-61533150D01*
X133680131Y-61731330D01*
X133848670Y-61899869D01*
X134046850Y-62032288D01*
X134267056Y-62123501D01*
X134500825Y-62170000D01*
X134739175Y-62170000D01*
X134972944Y-62123501D01*
X135193150Y-62032288D01*
X135391330Y-61899869D01*
X135559869Y-61731330D01*
X135692288Y-61533150D01*
X135783501Y-61312944D01*
X135830000Y-61079175D01*
X135830000Y-60840825D01*
X135783501Y-60607056D01*
X135692288Y-60386850D01*
X135559869Y-60188670D01*
X135391330Y-60020131D01*
X135193150Y-59887712D01*
X134972944Y-59796499D01*
X134739175Y-59750000D01*
X134500825Y-59750000D01*
X134267056Y-59796499D01*
X134046850Y-59887712D01*
X133848670Y-60020131D01*
X133680131Y-60188670D01*
X133547712Y-60386850D01*
X133511199Y-60475000D01*
X132370691Y-60475000D01*
X128446696Y-56551005D01*
X128439788Y-56480867D01*
X128412090Y-56389557D01*
X128367110Y-56305406D01*
X128306578Y-56231647D01*
X127422695Y-55347764D01*
X127348936Y-55287232D01*
X127279280Y-55250000D01*
X127348936Y-55212768D01*
X127422695Y-55152236D01*
X127521690Y-55053241D01*
X130601830Y-58133381D01*
X130604093Y-58140841D01*
X130649129Y-58225097D01*
X130709736Y-58298948D01*
X130728243Y-58314136D01*
X131160210Y-58746104D01*
X131175394Y-58764606D01*
X131193896Y-58779790D01*
X131249244Y-58825213D01*
X131256728Y-58829213D01*
X131333501Y-58870249D01*
X131424924Y-58897982D01*
X131496180Y-58905000D01*
X131496183Y-58905000D01*
X131520000Y-58907346D01*
X131543817Y-58905000D01*
X133511199Y-58905000D01*
X133547712Y-58993150D01*
X133680131Y-59191330D01*
X133848670Y-59359869D01*
X134046850Y-59492288D01*
X134267056Y-59583501D01*
X134500825Y-59630000D01*
X134739175Y-59630000D01*
X134972944Y-59583501D01*
X135193150Y-59492288D01*
X135391330Y-59359869D01*
X135559869Y-59191330D01*
X135692288Y-58993150D01*
X135783501Y-58772944D01*
X135830000Y-58539175D01*
X135830000Y-58300825D01*
X135783501Y-58067056D01*
X135692288Y-57846850D01*
X135559869Y-57648670D01*
X135391330Y-57480131D01*
X135193150Y-57347712D01*
X134972944Y-57256499D01*
X134739175Y-57210000D01*
X134500825Y-57210000D01*
X134267056Y-57256499D01*
X134046850Y-57347712D01*
X133848670Y-57480131D01*
X133680131Y-57648670D01*
X133547712Y-57846850D01*
X133511199Y-57935000D01*
X131720894Y-57935000D01*
X131506854Y-57720961D01*
X131504591Y-57713501D01*
X131469886Y-57648573D01*
X131459555Y-57629244D01*
X131438634Y-57603752D01*
X131398948Y-57555394D01*
X131380441Y-57540206D01*
X128207583Y-54367348D01*
X128306578Y-54268353D01*
X128367110Y-54194594D01*
X128412090Y-54110443D01*
X128439788Y-54019133D01*
X128449141Y-53924175D01*
X128439788Y-53829217D01*
X128425583Y-53782388D01*
X129096495Y-53782388D01*
X131520210Y-56206104D01*
X131535394Y-56224606D01*
X131553896Y-56239790D01*
X131609244Y-56285213D01*
X131638052Y-56300611D01*
X131693501Y-56330249D01*
X131784924Y-56357982D01*
X131856180Y-56365000D01*
X131856183Y-56365000D01*
X131880000Y-56367346D01*
X131903817Y-56365000D01*
X133511199Y-56365000D01*
X133547712Y-56453150D01*
X133680131Y-56651330D01*
X133848670Y-56819869D01*
X134046850Y-56952288D01*
X134267056Y-57043501D01*
X134500825Y-57090000D01*
X134739175Y-57090000D01*
X134972944Y-57043501D01*
X135193150Y-56952288D01*
X135391330Y-56819869D01*
X135559869Y-56651330D01*
X135692288Y-56453150D01*
X135783501Y-56232944D01*
X135830000Y-55999175D01*
X135830000Y-55760825D01*
X135783501Y-55527056D01*
X135692288Y-55306850D01*
X135559869Y-55108670D01*
X135391330Y-54940131D01*
X135193150Y-54807712D01*
X134972944Y-54716499D01*
X134739175Y-54670000D01*
X134500825Y-54670000D01*
X134267056Y-54716499D01*
X134046850Y-54807712D01*
X133848670Y-54940131D01*
X133680131Y-55108670D01*
X133547712Y-55306850D01*
X133511199Y-55395000D01*
X132080894Y-55395000D01*
X129657182Y-52971289D01*
X129641994Y-52952782D01*
X129568143Y-52892175D01*
X129483887Y-52847139D01*
X129392464Y-52819406D01*
X129321208Y-52812388D01*
X129321205Y-52812388D01*
X129297388Y-52810042D01*
X129273571Y-52812388D01*
X127533473Y-52812388D01*
X127490356Y-52777003D01*
X127437267Y-52748626D01*
X127525894Y-52660000D01*
X127674853Y-52660000D01*
X127821684Y-52630793D01*
X127959995Y-52573503D01*
X128084472Y-52490330D01*
X128190330Y-52384472D01*
X128273503Y-52259995D01*
X128330793Y-52121684D01*
X128360000Y-51974853D01*
X128360000Y-51825147D01*
X128330793Y-51678316D01*
X128273503Y-51540005D01*
X128190330Y-51415528D01*
X128084472Y-51309670D01*
X128047551Y-51285000D01*
X131879107Y-51285000D01*
X133493012Y-52898905D01*
X133456499Y-52987056D01*
X133410000Y-53220825D01*
X133410000Y-53459175D01*
X133456499Y-53692944D01*
X133547712Y-53913150D01*
X133680131Y-54111330D01*
X133848670Y-54279869D01*
X134046850Y-54412288D01*
X134267056Y-54503501D01*
X134500825Y-54550000D01*
X134739175Y-54550000D01*
X134972944Y-54503501D01*
X135193150Y-54412288D01*
X135391330Y-54279869D01*
X135559869Y-54111330D01*
X135692288Y-53913150D01*
X135783501Y-53692944D01*
X135830000Y-53459175D01*
X135830000Y-53220825D01*
X135783501Y-52987056D01*
X135692288Y-52766850D01*
X135559869Y-52568670D01*
X135391330Y-52400131D01*
X135193150Y-52267712D01*
X134972944Y-52176499D01*
X134739175Y-52130000D01*
X134500825Y-52130000D01*
X134267056Y-52176499D01*
X134178905Y-52213012D01*
X132439794Y-50473901D01*
X132424606Y-50455394D01*
X132350755Y-50394787D01*
X132266499Y-50349751D01*
X132175076Y-50322018D01*
X132103820Y-50315000D01*
X132103817Y-50315000D01*
X132080000Y-50312654D01*
X132056183Y-50315000D01*
X127660000Y-50315000D01*
X127660000Y-50225147D01*
X127630793Y-50078316D01*
X127573503Y-49940005D01*
X127490330Y-49815528D01*
X127384472Y-49709670D01*
X127259995Y-49626497D01*
X127188861Y-49597032D01*
X127590883Y-49195010D01*
X132329117Y-49195010D01*
X133493012Y-50358905D01*
X133456499Y-50447056D01*
X133410000Y-50680825D01*
X133410000Y-50919175D01*
X133456499Y-51152944D01*
X133547712Y-51373150D01*
X133680131Y-51571330D01*
X133848670Y-51739869D01*
X134046850Y-51872288D01*
X134267056Y-51963501D01*
X134500825Y-52010000D01*
X134739175Y-52010000D01*
X134972944Y-51963501D01*
X135193150Y-51872288D01*
X135391330Y-51739869D01*
X135559869Y-51571330D01*
X135692288Y-51373150D01*
X135783501Y-51152944D01*
X135830000Y-50919175D01*
X135830000Y-50680825D01*
X135783501Y-50447056D01*
X135692288Y-50226850D01*
X135559869Y-50028670D01*
X135391330Y-49860131D01*
X135193150Y-49727712D01*
X134972944Y-49636499D01*
X134739175Y-49590000D01*
X134500825Y-49590000D01*
X134267056Y-49636499D01*
X134178905Y-49673012D01*
X133250893Y-48745000D01*
X133511199Y-48745000D01*
X133547712Y-48833150D01*
X133680131Y-49031330D01*
X133848670Y-49199869D01*
X134046850Y-49332288D01*
X134267056Y-49423501D01*
X134500825Y-49470000D01*
X134739175Y-49470000D01*
X134972944Y-49423501D01*
X135193150Y-49332288D01*
X135391330Y-49199869D01*
X135559869Y-49031330D01*
X135692288Y-48833150D01*
X135783501Y-48612944D01*
X135830000Y-48379175D01*
X135830000Y-48140825D01*
X135783501Y-47907056D01*
X135692288Y-47686850D01*
X135559869Y-47488670D01*
X135391330Y-47320131D01*
X135193150Y-47187712D01*
X134972944Y-47096499D01*
X134739175Y-47050000D01*
X134500825Y-47050000D01*
X134267056Y-47096499D01*
X134046850Y-47187712D01*
X133848670Y-47320131D01*
X133680131Y-47488670D01*
X133547712Y-47686850D01*
X133511199Y-47775000D01*
X126367207Y-47775000D01*
X126343390Y-47772654D01*
X126319573Y-47775000D01*
X126319570Y-47775000D01*
X126248314Y-47782018D01*
X126178169Y-47803297D01*
X126156890Y-47809751D01*
X126072634Y-47854787D01*
X126017286Y-47900210D01*
X125998784Y-47915394D01*
X125983600Y-47933896D01*
X124322039Y-49595458D01*
X124170003Y-49443422D01*
X124096244Y-49382890D01*
X124012093Y-49337910D01*
X123957272Y-49321281D01*
X123957272Y-46096089D01*
X123959618Y-46072272D01*
X123957272Y-46048452D01*
X123950254Y-45977196D01*
X123934144Y-45924086D01*
X133427335Y-45924086D01*
X133440019Y-45987862D01*
X133514949Y-46212918D01*
X133632346Y-46419031D01*
X133787698Y-46598281D01*
X133975035Y-46743779D01*
X134187157Y-46849934D01*
X134415913Y-46912666D01*
X134605000Y-46839908D01*
X134605000Y-45735000D01*
X134635000Y-45735000D01*
X134635000Y-46839908D01*
X134824087Y-46912666D01*
X135052843Y-46849934D01*
X135264965Y-46743779D01*
X135452302Y-46598281D01*
X135607654Y-46419031D01*
X135725051Y-46212918D01*
X135799981Y-45987862D01*
X135812665Y-45924086D01*
X135739900Y-45735000D01*
X134635000Y-45735000D01*
X134605000Y-45735000D01*
X133500100Y-45735000D01*
X133427335Y-45924086D01*
X123934144Y-45924086D01*
X123922521Y-45885773D01*
X123922521Y-45885772D01*
X123877485Y-45801516D01*
X123832062Y-45746168D01*
X123816878Y-45727666D01*
X123798376Y-45712482D01*
X123601808Y-45515914D01*
X133427335Y-45515914D01*
X133500100Y-45705000D01*
X134605000Y-45705000D01*
X134605000Y-44600092D01*
X134635000Y-44600092D01*
X134635000Y-45705000D01*
X135739900Y-45705000D01*
X135812665Y-45515914D01*
X135799981Y-45452138D01*
X135725051Y-45227082D01*
X135607654Y-45020969D01*
X135452302Y-44841719D01*
X135264965Y-44696221D01*
X135052843Y-44590066D01*
X134824087Y-44527334D01*
X134635000Y-44600092D01*
X134605000Y-44600092D01*
X134415913Y-44527334D01*
X134187157Y-44590066D01*
X133975035Y-44696221D01*
X133787698Y-44841719D01*
X133632346Y-45020969D01*
X133514949Y-45227082D01*
X133440019Y-45452138D01*
X133427335Y-45515914D01*
X123601808Y-45515914D01*
X120397144Y-42311250D01*
X126458453Y-42311250D01*
X126458453Y-44781250D01*
X130541548Y-44781250D01*
X130541548Y-43060825D01*
X133410000Y-43060825D01*
X133410000Y-43299175D01*
X133456499Y-43532944D01*
X133547712Y-43753150D01*
X133680131Y-43951330D01*
X133848670Y-44119869D01*
X134046850Y-44252288D01*
X134267056Y-44343501D01*
X134500825Y-44390000D01*
X134739175Y-44390000D01*
X134972944Y-44343501D01*
X135193150Y-44252288D01*
X135391330Y-44119869D01*
X135559869Y-43951330D01*
X135692288Y-43753150D01*
X135783501Y-43532944D01*
X135830000Y-43299175D01*
X135830000Y-43060825D01*
X135783501Y-42827056D01*
X135692288Y-42606850D01*
X135559869Y-42408670D01*
X135391330Y-42240131D01*
X135193150Y-42107712D01*
X134972944Y-42016499D01*
X134739175Y-41970000D01*
X134500825Y-41970000D01*
X134267056Y-42016499D01*
X134046850Y-42107712D01*
X133848670Y-42240131D01*
X133680131Y-42408670D01*
X133547712Y-42606850D01*
X133456499Y-42827056D01*
X133410000Y-43060825D01*
X130541548Y-43060825D01*
X130541548Y-42311250D01*
X126458453Y-42311250D01*
X120397144Y-42311250D01*
X119865000Y-41779107D01*
X119865000Y-40108801D01*
X119953150Y-40072288D01*
X120151330Y-39939869D01*
X120319869Y-39771330D01*
X120452288Y-39573150D01*
X120543501Y-39352944D01*
X120590000Y-39119175D01*
X120590000Y-38880825D01*
X120543501Y-38647056D01*
X120452288Y-38426850D01*
X120319869Y-38228670D01*
X120241199Y-38150000D01*
X120708259Y-38150000D01*
X120708259Y-39850000D01*
X120715210Y-39920572D01*
X120735795Y-39988432D01*
X120769223Y-40050973D01*
X120814210Y-40105790D01*
X120869027Y-40150777D01*
X120931568Y-40184205D01*
X120999428Y-40204790D01*
X121070000Y-40211741D01*
X122770000Y-40211741D01*
X122840572Y-40204790D01*
X122908432Y-40184205D01*
X122970973Y-40150777D01*
X123025790Y-40105790D01*
X123070777Y-40050973D01*
X123104205Y-39988432D01*
X123124790Y-39920572D01*
X123131741Y-39850000D01*
X123131741Y-38880825D01*
X125790000Y-38880825D01*
X125790000Y-39119175D01*
X125836499Y-39352944D01*
X125927712Y-39573150D01*
X126060131Y-39771330D01*
X126228670Y-39939869D01*
X126426850Y-40072288D01*
X126647056Y-40163501D01*
X126880825Y-40210000D01*
X127119175Y-40210000D01*
X127352944Y-40163501D01*
X127573150Y-40072288D01*
X127771330Y-39939869D01*
X127939869Y-39771330D01*
X128072288Y-39573150D01*
X128163501Y-39352944D01*
X128210000Y-39119175D01*
X128210000Y-38880825D01*
X128330000Y-38880825D01*
X128330000Y-39119175D01*
X128376499Y-39352944D01*
X128467712Y-39573150D01*
X128600131Y-39771330D01*
X128768670Y-39939869D01*
X128966850Y-40072288D01*
X129187056Y-40163501D01*
X129420825Y-40210000D01*
X129659175Y-40210000D01*
X129892944Y-40163501D01*
X130113150Y-40072288D01*
X130311330Y-39939869D01*
X130479869Y-39771330D01*
X130612288Y-39573150D01*
X130703501Y-39352944D01*
X130733110Y-39204087D01*
X130887334Y-39204087D01*
X130950066Y-39432843D01*
X131056221Y-39644965D01*
X131201719Y-39832302D01*
X131380969Y-39987654D01*
X131587082Y-40105051D01*
X131812138Y-40179981D01*
X131875914Y-40192665D01*
X132065000Y-40119900D01*
X132065000Y-39015000D01*
X132095000Y-39015000D01*
X132095000Y-40119900D01*
X132284086Y-40192665D01*
X132347862Y-40179981D01*
X132572918Y-40105051D01*
X132779031Y-39987654D01*
X132958281Y-39832302D01*
X133103779Y-39644965D01*
X133209934Y-39432843D01*
X133272666Y-39204087D01*
X133199908Y-39015000D01*
X132095000Y-39015000D01*
X132065000Y-39015000D01*
X130960092Y-39015000D01*
X130887334Y-39204087D01*
X130733110Y-39204087D01*
X130750000Y-39119175D01*
X130750000Y-38880825D01*
X130733111Y-38795913D01*
X130887334Y-38795913D01*
X130960092Y-38985000D01*
X132065000Y-38985000D01*
X132065000Y-37880100D01*
X132095000Y-37880100D01*
X132095000Y-38985000D01*
X133199908Y-38985000D01*
X133272666Y-38795913D01*
X133209934Y-38567157D01*
X133103779Y-38355035D01*
X132958281Y-38167698D01*
X132937861Y-38150000D01*
X133408259Y-38150000D01*
X133408259Y-39850000D01*
X133415210Y-39920572D01*
X133435795Y-39988432D01*
X133469223Y-40050973D01*
X133514210Y-40105790D01*
X133569027Y-40150777D01*
X133631568Y-40184205D01*
X133699428Y-40204790D01*
X133770000Y-40211741D01*
X135470000Y-40211741D01*
X135540572Y-40204790D01*
X135608432Y-40184205D01*
X135670973Y-40150777D01*
X135725790Y-40105790D01*
X135770777Y-40050973D01*
X135804205Y-39988432D01*
X135824790Y-39920572D01*
X135831741Y-39850000D01*
X135831741Y-38150000D01*
X135824790Y-38079428D01*
X135804205Y-38011568D01*
X135770777Y-37949027D01*
X135725790Y-37894210D01*
X135670973Y-37849223D01*
X135608432Y-37815795D01*
X135540572Y-37795210D01*
X135470000Y-37788259D01*
X133770000Y-37788259D01*
X133699428Y-37795210D01*
X133631568Y-37815795D01*
X133569027Y-37849223D01*
X133514210Y-37894210D01*
X133469223Y-37949027D01*
X133435795Y-38011568D01*
X133415210Y-38079428D01*
X133408259Y-38150000D01*
X132937861Y-38150000D01*
X132779031Y-38012346D01*
X132572918Y-37894949D01*
X132347862Y-37820019D01*
X132284086Y-37807335D01*
X132095000Y-37880100D01*
X132065000Y-37880100D01*
X131875914Y-37807335D01*
X131812138Y-37820019D01*
X131587082Y-37894949D01*
X131380969Y-38012346D01*
X131201719Y-38167698D01*
X131056221Y-38355035D01*
X130950066Y-38567157D01*
X130887334Y-38795913D01*
X130733111Y-38795913D01*
X130703501Y-38647056D01*
X130612288Y-38426850D01*
X130479869Y-38228670D01*
X130311330Y-38060131D01*
X130113150Y-37927712D01*
X129892944Y-37836499D01*
X129659175Y-37790000D01*
X129420825Y-37790000D01*
X129187056Y-37836499D01*
X128966850Y-37927712D01*
X128768670Y-38060131D01*
X128600131Y-38228670D01*
X128467712Y-38426850D01*
X128376499Y-38647056D01*
X128330000Y-38880825D01*
X128210000Y-38880825D01*
X128163501Y-38647056D01*
X128072288Y-38426850D01*
X127939869Y-38228670D01*
X127771330Y-38060131D01*
X127573150Y-37927712D01*
X127352944Y-37836499D01*
X127119175Y-37790000D01*
X126880825Y-37790000D01*
X126647056Y-37836499D01*
X126426850Y-37927712D01*
X126228670Y-38060131D01*
X126060131Y-38228670D01*
X125927712Y-38426850D01*
X125836499Y-38647056D01*
X125790000Y-38880825D01*
X123131741Y-38880825D01*
X123131741Y-38150000D01*
X123124790Y-38079428D01*
X123104205Y-38011568D01*
X123070777Y-37949027D01*
X123025790Y-37894210D01*
X122970973Y-37849223D01*
X122908432Y-37815795D01*
X122840572Y-37795210D01*
X122770000Y-37788259D01*
X121070000Y-37788259D01*
X120999428Y-37795210D01*
X120931568Y-37815795D01*
X120869027Y-37849223D01*
X120814210Y-37894210D01*
X120769223Y-37949027D01*
X120735795Y-38011568D01*
X120715210Y-38079428D01*
X120708259Y-38150000D01*
X120241199Y-38150000D01*
X120151330Y-38060131D01*
X119953150Y-37927712D01*
X119732944Y-37836499D01*
X119499175Y-37790000D01*
X119260825Y-37790000D01*
X119027056Y-37836499D01*
X118806850Y-37927712D01*
X118608670Y-38060131D01*
X118440131Y-38228670D01*
X118307712Y-38426850D01*
X118216499Y-38647056D01*
X118170000Y-38880825D01*
X118170000Y-39119175D01*
X118216499Y-39352944D01*
X118307712Y-39573150D01*
X118440131Y-39771330D01*
X118608670Y-39939869D01*
X118806850Y-40072288D01*
X118895001Y-40108801D01*
X118895000Y-41956183D01*
X118892654Y-41980000D01*
X118895000Y-42003817D01*
X118895000Y-42003819D01*
X118902018Y-42075075D01*
X118929751Y-42166498D01*
X118974787Y-42250755D01*
X119035394Y-42324606D01*
X119053901Y-42339794D01*
X122987273Y-46273167D01*
X122987272Y-49937797D01*
X122597764Y-50327305D01*
X122537232Y-50401064D01*
X122500000Y-50470720D01*
X122462768Y-50401064D01*
X122402236Y-50327305D01*
X122012728Y-49937797D01*
X122012728Y-46251545D01*
X122015074Y-46227728D01*
X122009127Y-46167348D01*
X122005710Y-46132652D01*
X121977977Y-46041229D01*
X121949452Y-45987862D01*
X121932941Y-45956972D01*
X121887518Y-45901624D01*
X121872334Y-45883122D01*
X121853832Y-45867938D01*
X115426988Y-39441094D01*
X115463501Y-39352944D01*
X115493110Y-39204087D01*
X115647334Y-39204087D01*
X115710066Y-39432843D01*
X115816221Y-39644965D01*
X115961719Y-39832302D01*
X116140969Y-39987654D01*
X116347082Y-40105051D01*
X116572138Y-40179981D01*
X116635914Y-40192665D01*
X116825000Y-40119900D01*
X116825000Y-39015000D01*
X116855000Y-39015000D01*
X116855000Y-40119900D01*
X117044086Y-40192665D01*
X117107862Y-40179981D01*
X117332918Y-40105051D01*
X117539031Y-39987654D01*
X117718281Y-39832302D01*
X117863779Y-39644965D01*
X117969934Y-39432843D01*
X118032666Y-39204087D01*
X117959908Y-39015000D01*
X116855000Y-39015000D01*
X116825000Y-39015000D01*
X115720092Y-39015000D01*
X115647334Y-39204087D01*
X115493110Y-39204087D01*
X115510000Y-39119175D01*
X115510000Y-38880825D01*
X115493111Y-38795913D01*
X115647334Y-38795913D01*
X115720092Y-38985000D01*
X116825000Y-38985000D01*
X116825000Y-37880100D01*
X116855000Y-37880100D01*
X116855000Y-38985000D01*
X117959908Y-38985000D01*
X118032666Y-38795913D01*
X117969934Y-38567157D01*
X117863779Y-38355035D01*
X117718281Y-38167698D01*
X117539031Y-38012346D01*
X117332918Y-37894949D01*
X117107862Y-37820019D01*
X117044086Y-37807335D01*
X116855000Y-37880100D01*
X116825000Y-37880100D01*
X116635914Y-37807335D01*
X116572138Y-37820019D01*
X116347082Y-37894949D01*
X116140969Y-38012346D01*
X115961719Y-38167698D01*
X115816221Y-38355035D01*
X115710066Y-38567157D01*
X115647334Y-38795913D01*
X115493111Y-38795913D01*
X115463501Y-38647056D01*
X115372288Y-38426850D01*
X115239869Y-38228670D01*
X115071330Y-38060131D01*
X114873150Y-37927712D01*
X114652944Y-37836499D01*
X114419175Y-37790000D01*
X114180825Y-37790000D01*
X113947056Y-37836499D01*
X113726850Y-37927712D01*
X113528670Y-38060131D01*
X113360131Y-38228670D01*
X113227712Y-38426850D01*
X113136499Y-38647056D01*
X113090000Y-38880825D01*
X113090000Y-39119175D01*
X113136499Y-39352944D01*
X113227712Y-39573150D01*
X113360131Y-39771330D01*
X113528670Y-39939869D01*
X113726850Y-40072288D01*
X113947056Y-40163501D01*
X114180825Y-40210000D01*
X114419175Y-40210000D01*
X114652944Y-40163501D01*
X114741094Y-40126988D01*
X121042729Y-46428623D01*
X121042728Y-49321281D01*
X120987907Y-49337910D01*
X120903756Y-49382890D01*
X120829997Y-49443422D01*
X120653220Y-49620199D01*
X120592688Y-49693958D01*
X120547708Y-49778109D01*
X120520010Y-49869419D01*
X120519429Y-49875317D01*
X120513532Y-49875898D01*
X120422222Y-49903596D01*
X120338071Y-49948576D01*
X120294954Y-49983961D01*
X112655160Y-49983961D01*
X112531330Y-49860131D01*
X112333150Y-49727712D01*
X112112944Y-49636499D01*
X111879175Y-49590000D01*
X111640825Y-49590000D01*
X111407056Y-49636499D01*
X111186850Y-49727712D01*
X110988670Y-49860131D01*
X110820131Y-50028670D01*
X110687712Y-50226850D01*
X110596499Y-50447056D01*
X110550000Y-50680825D01*
X110550000Y-50919175D01*
X110596499Y-51152944D01*
X110687712Y-51373150D01*
X110820131Y-51571330D01*
X110988670Y-51739869D01*
X111186850Y-51872288D01*
X111407056Y-51963501D01*
X111640825Y-52010000D01*
X111879175Y-52010000D01*
X112112944Y-51963501D01*
X112333150Y-51872288D01*
X112531330Y-51739869D01*
X112699869Y-51571330D01*
X112832288Y-51373150D01*
X112923501Y-51152944D01*
X112963081Y-50953961D01*
X113460145Y-50953961D01*
X112201094Y-52213012D01*
X112112944Y-52176499D01*
X111879175Y-52130000D01*
X111640825Y-52130000D01*
X111407056Y-52176499D01*
X111186850Y-52267712D01*
X110988670Y-52400131D01*
X110820131Y-52568670D01*
X110687712Y-52766850D01*
X110596499Y-52987056D01*
X110550000Y-53220825D01*
X110550000Y-53459175D01*
X110596499Y-53692944D01*
X110687712Y-53913150D01*
X110820131Y-54111330D01*
X110988670Y-54279869D01*
X111186850Y-54412288D01*
X111407056Y-54503501D01*
X111640825Y-54550000D01*
X111879175Y-54550000D01*
X112112944Y-54503501D01*
X112333150Y-54412288D01*
X112531330Y-54279869D01*
X112699869Y-54111330D01*
X112832288Y-53913150D01*
X112923501Y-53692944D01*
X112970000Y-53459175D01*
X112970000Y-53220825D01*
X112923501Y-52987056D01*
X112886988Y-52898906D01*
X114266248Y-51519646D01*
X115434460Y-51519646D01*
X112201094Y-54753012D01*
X112112944Y-54716499D01*
X111879175Y-54670000D01*
X111640825Y-54670000D01*
X111407056Y-54716499D01*
X111186850Y-54807712D01*
X110988670Y-54940131D01*
X110820131Y-55108670D01*
X110687712Y-55306850D01*
X110596499Y-55527056D01*
X110550000Y-55760825D01*
X110550000Y-55999175D01*
X110596499Y-56232944D01*
X110687712Y-56453150D01*
X110820131Y-56651330D01*
X110988670Y-56819869D01*
X111186850Y-56952288D01*
X111407056Y-57043501D01*
X111640825Y-57090000D01*
X111879175Y-57090000D01*
X112112944Y-57043501D01*
X112333150Y-56952288D01*
X112450002Y-56874211D01*
X112450002Y-57044105D01*
X112201095Y-57293012D01*
X112112944Y-57256499D01*
X111879175Y-57210000D01*
X111640825Y-57210000D01*
X111407056Y-57256499D01*
X111186850Y-57347712D01*
X110988670Y-57480131D01*
X110820131Y-57648670D01*
X110687712Y-57846850D01*
X110596499Y-58067056D01*
X110550000Y-58300825D01*
X110550000Y-58539175D01*
X110596499Y-58772944D01*
X110687712Y-58993150D01*
X110820131Y-59191330D01*
X110988670Y-59359869D01*
X111186850Y-59492288D01*
X111407056Y-59583501D01*
X111640825Y-59630000D01*
X111879175Y-59630000D01*
X112112944Y-59583501D01*
X112333150Y-59492288D01*
X112531330Y-59359869D01*
X112699869Y-59191330D01*
X112832288Y-58993150D01*
X112900011Y-58829653D01*
X112900011Y-59134095D01*
X112201094Y-59833012D01*
X112112944Y-59796499D01*
X111879175Y-59750000D01*
X111640825Y-59750000D01*
X111407056Y-59796499D01*
X111186850Y-59887712D01*
X110988670Y-60020131D01*
X110820131Y-60188670D01*
X110687712Y-60386850D01*
X110596499Y-60607056D01*
X110550000Y-60840825D01*
X110550000Y-61079175D01*
X110596499Y-61312944D01*
X110687712Y-61533150D01*
X110820131Y-61731330D01*
X110988670Y-61899869D01*
X111186850Y-62032288D01*
X111407056Y-62123501D01*
X111640825Y-62170000D01*
X111879175Y-62170000D01*
X112112944Y-62123501D01*
X112333150Y-62032288D01*
X112531330Y-61899869D01*
X112699869Y-61731330D01*
X112832288Y-61533150D01*
X112923501Y-61312944D01*
X112970000Y-61079175D01*
X112970000Y-60840825D01*
X112923501Y-60607056D01*
X112886988Y-60518906D01*
X113350021Y-60055873D01*
X113350021Y-61224085D01*
X112201094Y-62373012D01*
X112112944Y-62336499D01*
X111879175Y-62290000D01*
X111640825Y-62290000D01*
X111407056Y-62336499D01*
X111186850Y-62427712D01*
X110988670Y-62560131D01*
X110820131Y-62728670D01*
X110687712Y-62926850D01*
X110596499Y-63147056D01*
X110550000Y-63380825D01*
X110550000Y-63619175D01*
X110596499Y-63852944D01*
X110687712Y-64073150D01*
X110820131Y-64271330D01*
X110988670Y-64439869D01*
X111186850Y-64572288D01*
X111407056Y-64663501D01*
X111640825Y-64710000D01*
X111879175Y-64710000D01*
X112112944Y-64663501D01*
X112333150Y-64572288D01*
X112450002Y-64494211D01*
X112450002Y-64664105D01*
X112201095Y-64913012D01*
X112112944Y-64876499D01*
X111879175Y-64830000D01*
X111640825Y-64830000D01*
X111407056Y-64876499D01*
X111186850Y-64967712D01*
X110988670Y-65100131D01*
X110820131Y-65268670D01*
X110687712Y-65466850D01*
X110596499Y-65687056D01*
X110550000Y-65920825D01*
X110550000Y-66159175D01*
X110596499Y-66392944D01*
X110687712Y-66613150D01*
X110820131Y-66811330D01*
X110988670Y-66979869D01*
X111186850Y-67112288D01*
X111407056Y-67203501D01*
X111640825Y-67250000D01*
X111879175Y-67250000D01*
X112112944Y-67203501D01*
X112333150Y-67112288D01*
X112531330Y-66979869D01*
X112699869Y-66811330D01*
X112832288Y-66613150D01*
X112923501Y-66392944D01*
X112970000Y-66159175D01*
X112970000Y-65920825D01*
X112923501Y-65687056D01*
X112886988Y-65598905D01*
X112973916Y-65511977D01*
X112973916Y-66680190D01*
X112201094Y-67453012D01*
X112112944Y-67416499D01*
X111879175Y-67370000D01*
X111640825Y-67370000D01*
X111407056Y-67416499D01*
X111186850Y-67507712D01*
X110988670Y-67640131D01*
X110820131Y-67808670D01*
X110687712Y-68006850D01*
X110596499Y-68227056D01*
X110550000Y-68460825D01*
X110550000Y-68699175D01*
X110596499Y-68932944D01*
X110687712Y-69153150D01*
X110820131Y-69351330D01*
X110988670Y-69519869D01*
X111186850Y-69652288D01*
X111407056Y-69743501D01*
X111609366Y-69783743D01*
X111443948Y-69949161D01*
X111407056Y-69956499D01*
X111186850Y-70047712D01*
X110988670Y-70180131D01*
X110820131Y-70348670D01*
X110687712Y-70546850D01*
X110596499Y-70767056D01*
X110550000Y-71000825D01*
X110550000Y-71239175D01*
X110596499Y-71472944D01*
X110687712Y-71693150D01*
X110820131Y-71891330D01*
X110988670Y-72059869D01*
X111186850Y-72192288D01*
X111407056Y-72283501D01*
X111640825Y-72330000D01*
X111879175Y-72330000D01*
X112112944Y-72283501D01*
X112333150Y-72192288D01*
X112531330Y-72059869D01*
X112699869Y-71891330D01*
X112832288Y-71693150D01*
X112913917Y-71496082D01*
X112913917Y-71820190D01*
X112201095Y-72533012D01*
X112112944Y-72496499D01*
X111879175Y-72450000D01*
X111640825Y-72450000D01*
X111407056Y-72496499D01*
X111186850Y-72587712D01*
X110988670Y-72720131D01*
X110820131Y-72888670D01*
X110687712Y-73086850D01*
X110596499Y-73307056D01*
X110550000Y-73540825D01*
X110550000Y-73779175D01*
X110596499Y-74012944D01*
X110687712Y-74233150D01*
X110820131Y-74431330D01*
X110988670Y-74599869D01*
X111186850Y-74732288D01*
X111407056Y-74823501D01*
X111640825Y-74870000D01*
X111879175Y-74870000D01*
X112112944Y-74823501D01*
X112333150Y-74732288D01*
X112531330Y-74599869D01*
X112699869Y-74431330D01*
X112832288Y-74233150D01*
X112923501Y-74012944D01*
X112970000Y-73779175D01*
X112970000Y-73540825D01*
X112923501Y-73307056D01*
X112886988Y-73218905D01*
X113414078Y-72691815D01*
X113414078Y-73860029D01*
X112201095Y-75073012D01*
X112112944Y-75036499D01*
X111879175Y-74990000D01*
X111640825Y-74990000D01*
X111407056Y-75036499D01*
X111186850Y-75127712D01*
X110988670Y-75260131D01*
X110820131Y-75428670D01*
X110687712Y-75626850D01*
X110596499Y-75847056D01*
X110550000Y-76080825D01*
X110550000Y-76319175D01*
X110596499Y-76552944D01*
X110687712Y-76773150D01*
X110820131Y-76971330D01*
X110988670Y-77139869D01*
X111186850Y-77272288D01*
X111407056Y-77363501D01*
X111640825Y-77410000D01*
X111879175Y-77410000D01*
X112112944Y-77363501D01*
X112333150Y-77272288D01*
X112531330Y-77139869D01*
X112699869Y-76971330D01*
X112832288Y-76773150D01*
X112923501Y-76552944D01*
X112970000Y-76319175D01*
X112970000Y-76080825D01*
X112923501Y-75847056D01*
X112886988Y-75758905D01*
X114139079Y-74506814D01*
X114139079Y-75675027D01*
X112285848Y-77528259D01*
X110910000Y-77528259D01*
X110839428Y-77535210D01*
X110771568Y-77555795D01*
X110709027Y-77589223D01*
X110654210Y-77634210D01*
X110609223Y-77689027D01*
X110575795Y-77751568D01*
X110555210Y-77819428D01*
X110548259Y-77890000D01*
X109655000Y-77890000D01*
X109655000Y-48464086D01*
X110567335Y-48464086D01*
X110580019Y-48527862D01*
X110654949Y-48752918D01*
X110772346Y-48959031D01*
X110927698Y-49138281D01*
X111115035Y-49283779D01*
X111327157Y-49389934D01*
X111555913Y-49452666D01*
X111745000Y-49379908D01*
X111745000Y-48275000D01*
X111775000Y-48275000D01*
X111775000Y-49379908D01*
X111964087Y-49452666D01*
X112192843Y-49389934D01*
X112404965Y-49283779D01*
X112592302Y-49138281D01*
X112747654Y-48959031D01*
X112865051Y-48752918D01*
X112939981Y-48527862D01*
X112952665Y-48464086D01*
X112879900Y-48275000D01*
X111775000Y-48275000D01*
X111745000Y-48275000D01*
X110640100Y-48275000D01*
X110567335Y-48464086D01*
X109655000Y-48464086D01*
X109655000Y-48055914D01*
X110567335Y-48055914D01*
X110640100Y-48245000D01*
X111745000Y-48245000D01*
X111745000Y-47140092D01*
X111775000Y-47140092D01*
X111775000Y-48245000D01*
X112879900Y-48245000D01*
X112952665Y-48055914D01*
X112939981Y-47992138D01*
X112865051Y-47767082D01*
X112747654Y-47560969D01*
X112592302Y-47381719D01*
X112404965Y-47236221D01*
X112192843Y-47130066D01*
X111964087Y-47067334D01*
X111775000Y-47140092D01*
X111745000Y-47140092D01*
X111555913Y-47067334D01*
X111327157Y-47130066D01*
X111115035Y-47236221D01*
X110927698Y-47381719D01*
X110772346Y-47560969D01*
X110654949Y-47767082D01*
X110580019Y-47992138D01*
X110567335Y-48055914D01*
X109655000Y-48055914D01*
X109655000Y-45600825D01*
X110550000Y-45600825D01*
X110550000Y-45839175D01*
X110596499Y-46072944D01*
X110687712Y-46293150D01*
X110820131Y-46491330D01*
X110988670Y-46659869D01*
X111186850Y-46792288D01*
X111407056Y-46883501D01*
X111640825Y-46930000D01*
X111879175Y-46930000D01*
X112112944Y-46883501D01*
X112333150Y-46792288D01*
X112531330Y-46659869D01*
X112699869Y-46491330D01*
X112832288Y-46293150D01*
X112923501Y-46072944D01*
X112970000Y-45839175D01*
X112970000Y-45600825D01*
X112923501Y-45367056D01*
X112832288Y-45146850D01*
X112699869Y-44948670D01*
X112531330Y-44780131D01*
X112333150Y-44647712D01*
X112112944Y-44556499D01*
X111879175Y-44510000D01*
X111640825Y-44510000D01*
X111407056Y-44556499D01*
X111186850Y-44647712D01*
X110988670Y-44780131D01*
X110820131Y-44948670D01*
X110687712Y-45146850D01*
X110596499Y-45367056D01*
X110550000Y-45600825D01*
X109655000Y-45600825D01*
X109655000Y-43384086D01*
X110567335Y-43384086D01*
X110580019Y-43447862D01*
X110654949Y-43672918D01*
X110772346Y-43879031D01*
X110927698Y-44058281D01*
X111115035Y-44203779D01*
X111327157Y-44309934D01*
X111555913Y-44372666D01*
X111745000Y-44299908D01*
X111745000Y-43195000D01*
X111775000Y-43195000D01*
X111775000Y-44299908D01*
X111964087Y-44372666D01*
X112192843Y-44309934D01*
X112404965Y-44203779D01*
X112592302Y-44058281D01*
X112747654Y-43879031D01*
X112865051Y-43672918D01*
X112939981Y-43447862D01*
X112952665Y-43384086D01*
X112879900Y-43195000D01*
X111775000Y-43195000D01*
X111745000Y-43195000D01*
X110640100Y-43195000D01*
X110567335Y-43384086D01*
X109655000Y-43384086D01*
X109655000Y-42975914D01*
X110567335Y-42975914D01*
X110640100Y-43165000D01*
X111745000Y-43165000D01*
X111745000Y-42060092D01*
X111775000Y-42060092D01*
X111775000Y-43165000D01*
X112879900Y-43165000D01*
X112952665Y-42975914D01*
X112939981Y-42912138D01*
X112865051Y-42687082D01*
X112747654Y-42480969D01*
X112592302Y-42301719D01*
X112404965Y-42156221D01*
X112192843Y-42050066D01*
X111964087Y-41987334D01*
X111775000Y-42060092D01*
X111745000Y-42060092D01*
X111555913Y-41987334D01*
X111327157Y-42050066D01*
X111115035Y-42156221D01*
X110927698Y-42301719D01*
X110772346Y-42480969D01*
X110654949Y-42687082D01*
X110580019Y-42912138D01*
X110567335Y-42975914D01*
X109655000Y-42975914D01*
X109655000Y-38880825D01*
X110550000Y-38880825D01*
X110550000Y-39119175D01*
X110596499Y-39352944D01*
X110687712Y-39573150D01*
X110820131Y-39771330D01*
X110988670Y-39939869D01*
X111186850Y-40072288D01*
X111407056Y-40163501D01*
X111640825Y-40210000D01*
X111879175Y-40210000D01*
X112112944Y-40163501D01*
X112333150Y-40072288D01*
X112531330Y-39939869D01*
X112699869Y-39771330D01*
X112832288Y-39573150D01*
X112923501Y-39352944D01*
X112970000Y-39119175D01*
X112970000Y-38880825D01*
X112923501Y-38647056D01*
X112832288Y-38426850D01*
X112699869Y-38228670D01*
X112531330Y-38060131D01*
X112333150Y-37927712D01*
X112112944Y-37836499D01*
X111879175Y-37790000D01*
X111640825Y-37790000D01*
X111407056Y-37836499D01*
X111186850Y-37927712D01*
X110988670Y-38060131D01*
X110820131Y-38228670D01*
X110687712Y-38426850D01*
X110596499Y-38647056D01*
X110550000Y-38880825D01*
X109655000Y-38880825D01*
X109655000Y-36108582D01*
X122035438Y-35995000D01*
X136640000Y-35995000D01*
X136640000Y-80845000D01*
%TD*%
M02*
