%TF.GenerationSoftware,KiCad,Pcbnew,(5.1.6)-1*%
%TF.CreationDate,2021-02-23T14:27:07+01:00*%
%TF.ProjectId,STM32G030K8T6_Board,53544d33-3247-4303-9330-4b3854365f42,rev?*%
%TF.SameCoordinates,Original*%
%TF.FileFunction,Paste,Top*%
%TF.FilePolarity,Positive*%
%FSLAX46Y46*%
G04 Gerber Fmt 4.6, Leading zero omitted, Abs format (unit mm)*
G04 Created by KiCad (PCBNEW (5.1.6)-1) date 2021-02-23 14:27:07*
%MOMM*%
%LPD*%
G01*
G04 APERTURE LIST*
%ADD10R,0.900000X0.800000*%
G04 APERTURE END LIST*
%TO.C,C4*%
G36*
G01*
X130125000Y-71575000D02*
X128875000Y-71575000D01*
G75*
G02*
X128625000Y-71325000I0J250000D01*
G01*
X128625000Y-70400000D01*
G75*
G02*
X128875000Y-70150000I250000J0D01*
G01*
X130125000Y-70150000D01*
G75*
G02*
X130375000Y-70400000I0J-250000D01*
G01*
X130375000Y-71325000D01*
G75*
G02*
X130125000Y-71575000I-250000J0D01*
G01*
G37*
G36*
G01*
X130125000Y-74550000D02*
X128875000Y-74550000D01*
G75*
G02*
X128625000Y-74300000I0J250000D01*
G01*
X128625000Y-73375000D01*
G75*
G02*
X128875000Y-73125000I250000J0D01*
G01*
X130125000Y-73125000D01*
G75*
G02*
X130375000Y-73375000I0J-250000D01*
G01*
X130375000Y-74300000D01*
G75*
G02*
X130125000Y-74550000I-250000J0D01*
G01*
G37*
%TD*%
%TO.C,C6*%
G36*
G01*
X116502424Y-60136307D02*
X117386307Y-59252423D01*
G75*
G02*
X117739861Y-59252423I176777J-176777D01*
G01*
X118393935Y-59906497D01*
G75*
G02*
X118393935Y-60260051I-176777J-176777D01*
G01*
X117510051Y-61143935D01*
G75*
G02*
X117156497Y-61143935I-176777J176777D01*
G01*
X116502423Y-60489861D01*
G75*
G02*
X116502423Y-60136307I176777J176777D01*
G01*
G37*
G36*
G01*
X118606066Y-62239949D02*
X119489949Y-61356065D01*
G75*
G02*
X119843503Y-61356065I176777J-176777D01*
G01*
X120497577Y-62010139D01*
G75*
G02*
X120497577Y-62363693I-176777J-176777D01*
G01*
X119613693Y-63247577D01*
G75*
G02*
X119260139Y-63247577I-176777J176777D01*
G01*
X118606065Y-62593503D01*
G75*
G02*
X118606065Y-62239949I176777J176777D01*
G01*
G37*
%TD*%
D10*
%TO.C,Q1*%
X123050000Y-73000000D03*
X123050000Y-74900000D03*
X125050000Y-73950000D03*
%TD*%
%TO.C,R1*%
G36*
G01*
X127625000Y-74550000D02*
X126375000Y-74550000D01*
G75*
G02*
X126125000Y-74300000I0J250000D01*
G01*
X126125000Y-73375000D01*
G75*
G02*
X126375000Y-73125000I250000J0D01*
G01*
X127625000Y-73125000D01*
G75*
G02*
X127875000Y-73375000I0J-250000D01*
G01*
X127875000Y-74300000D01*
G75*
G02*
X127625000Y-74550000I-250000J0D01*
G01*
G37*
G36*
G01*
X127625000Y-71575000D02*
X126375000Y-71575000D01*
G75*
G02*
X126125000Y-71325000I0J250000D01*
G01*
X126125000Y-70400000D01*
G75*
G02*
X126375000Y-70150000I250000J0D01*
G01*
X127625000Y-70150000D01*
G75*
G02*
X127875000Y-70400000I0J-250000D01*
G01*
X127875000Y-71325000D01*
G75*
G02*
X127625000Y-71575000I-250000J0D01*
G01*
G37*
%TD*%
%TO.C,U1*%
G36*
G01*
X117125988Y-56840990D02*
X116949212Y-56664213D01*
G75*
G02*
X116949212Y-56487437I88388J88388D01*
G01*
X117833095Y-55603554D01*
G75*
G02*
X118009871Y-55603554I88388J-88388D01*
G01*
X118186648Y-55780331D01*
G75*
G02*
X118186648Y-55957107I-88388J-88388D01*
G01*
X117302765Y-56840990D01*
G75*
G02*
X117125989Y-56840990I-88388J88388D01*
G01*
G37*
G36*
G01*
X117691674Y-57406675D02*
X117514898Y-57229898D01*
G75*
G02*
X117514898Y-57053122I88388J88388D01*
G01*
X118398781Y-56169239D01*
G75*
G02*
X118575557Y-56169239I88388J-88388D01*
G01*
X118752334Y-56346016D01*
G75*
G02*
X118752334Y-56522792I-88388J-88388D01*
G01*
X117868451Y-57406675D01*
G75*
G02*
X117691675Y-57406675I-88388J88388D01*
G01*
G37*
G36*
G01*
X118257359Y-57972361D02*
X118080583Y-57795584D01*
G75*
G02*
X118080583Y-57618808I88388J88388D01*
G01*
X118964466Y-56734925D01*
G75*
G02*
X119141242Y-56734925I88388J-88388D01*
G01*
X119318019Y-56911702D01*
G75*
G02*
X119318019Y-57088478I-88388J-88388D01*
G01*
X118434136Y-57972361D01*
G75*
G02*
X118257360Y-57972361I-88388J88388D01*
G01*
G37*
G36*
G01*
X118823044Y-58538046D02*
X118646268Y-58361269D01*
G75*
G02*
X118646268Y-58184493I88388J88388D01*
G01*
X119530151Y-57300610D01*
G75*
G02*
X119706927Y-57300610I88388J-88388D01*
G01*
X119883704Y-57477387D01*
G75*
G02*
X119883704Y-57654163I-88388J-88388D01*
G01*
X118999821Y-58538046D01*
G75*
G02*
X118823045Y-58538046I-88388J88388D01*
G01*
G37*
G36*
G01*
X119388730Y-59103732D02*
X119211954Y-58926955D01*
G75*
G02*
X119211954Y-58750179I88388J88388D01*
G01*
X120095837Y-57866296D01*
G75*
G02*
X120272613Y-57866296I88388J-88388D01*
G01*
X120449390Y-58043073D01*
G75*
G02*
X120449390Y-58219849I-88388J-88388D01*
G01*
X119565507Y-59103732D01*
G75*
G02*
X119388731Y-59103732I-88388J88388D01*
G01*
G37*
G36*
G01*
X119954415Y-59669417D02*
X119777639Y-59492640D01*
G75*
G02*
X119777639Y-59315864I88388J88388D01*
G01*
X120661522Y-58431981D01*
G75*
G02*
X120838298Y-58431981I88388J-88388D01*
G01*
X121015075Y-58608758D01*
G75*
G02*
X121015075Y-58785534I-88388J-88388D01*
G01*
X120131192Y-59669417D01*
G75*
G02*
X119954416Y-59669417I-88388J88388D01*
G01*
G37*
G36*
G01*
X120520101Y-60235102D02*
X120343325Y-60058325D01*
G75*
G02*
X120343325Y-59881549I88388J88388D01*
G01*
X121227208Y-58997666D01*
G75*
G02*
X121403984Y-58997666I88388J-88388D01*
G01*
X121580761Y-59174443D01*
G75*
G02*
X121580761Y-59351219I-88388J-88388D01*
G01*
X120696878Y-60235102D01*
G75*
G02*
X120520102Y-60235102I-88388J88388D01*
G01*
G37*
G36*
G01*
X121085786Y-60800788D02*
X120909010Y-60624011D01*
G75*
G02*
X120909010Y-60447235I88388J88388D01*
G01*
X121792893Y-59563352D01*
G75*
G02*
X121969669Y-59563352I88388J-88388D01*
G01*
X122146446Y-59740129D01*
G75*
G02*
X122146446Y-59916905I-88388J-88388D01*
G01*
X121262563Y-60800788D01*
G75*
G02*
X121085787Y-60800788I-88388J88388D01*
G01*
G37*
G36*
G01*
X123737437Y-60800788D02*
X122853554Y-59916905D01*
G75*
G02*
X122853554Y-59740129I88388J88388D01*
G01*
X123030331Y-59563352D01*
G75*
G02*
X123207107Y-59563352I88388J-88388D01*
G01*
X124090990Y-60447235D01*
G75*
G02*
X124090990Y-60624011I-88388J-88388D01*
G01*
X123914213Y-60800788D01*
G75*
G02*
X123737437Y-60800788I-88388J88388D01*
G01*
G37*
G36*
G01*
X124303122Y-60235102D02*
X123419239Y-59351219D01*
G75*
G02*
X123419239Y-59174443I88388J88388D01*
G01*
X123596016Y-58997666D01*
G75*
G02*
X123772792Y-58997666I88388J-88388D01*
G01*
X124656675Y-59881549D01*
G75*
G02*
X124656675Y-60058325I-88388J-88388D01*
G01*
X124479898Y-60235102D01*
G75*
G02*
X124303122Y-60235102I-88388J88388D01*
G01*
G37*
G36*
G01*
X124868808Y-59669417D02*
X123984925Y-58785534D01*
G75*
G02*
X123984925Y-58608758I88388J88388D01*
G01*
X124161702Y-58431981D01*
G75*
G02*
X124338478Y-58431981I88388J-88388D01*
G01*
X125222361Y-59315864D01*
G75*
G02*
X125222361Y-59492640I-88388J-88388D01*
G01*
X125045584Y-59669417D01*
G75*
G02*
X124868808Y-59669417I-88388J88388D01*
G01*
G37*
G36*
G01*
X125434493Y-59103732D02*
X124550610Y-58219849D01*
G75*
G02*
X124550610Y-58043073I88388J88388D01*
G01*
X124727387Y-57866296D01*
G75*
G02*
X124904163Y-57866296I88388J-88388D01*
G01*
X125788046Y-58750179D01*
G75*
G02*
X125788046Y-58926955I-88388J-88388D01*
G01*
X125611269Y-59103732D01*
G75*
G02*
X125434493Y-59103732I-88388J88388D01*
G01*
G37*
G36*
G01*
X126000179Y-58538046D02*
X125116296Y-57654163D01*
G75*
G02*
X125116296Y-57477387I88388J88388D01*
G01*
X125293073Y-57300610D01*
G75*
G02*
X125469849Y-57300610I88388J-88388D01*
G01*
X126353732Y-58184493D01*
G75*
G02*
X126353732Y-58361269I-88388J-88388D01*
G01*
X126176955Y-58538046D01*
G75*
G02*
X126000179Y-58538046I-88388J88388D01*
G01*
G37*
G36*
G01*
X126565864Y-57972361D02*
X125681981Y-57088478D01*
G75*
G02*
X125681981Y-56911702I88388J88388D01*
G01*
X125858758Y-56734925D01*
G75*
G02*
X126035534Y-56734925I88388J-88388D01*
G01*
X126919417Y-57618808D01*
G75*
G02*
X126919417Y-57795584I-88388J-88388D01*
G01*
X126742640Y-57972361D01*
G75*
G02*
X126565864Y-57972361I-88388J88388D01*
G01*
G37*
G36*
G01*
X127131549Y-57406675D02*
X126247666Y-56522792D01*
G75*
G02*
X126247666Y-56346016I88388J88388D01*
G01*
X126424443Y-56169239D01*
G75*
G02*
X126601219Y-56169239I88388J-88388D01*
G01*
X127485102Y-57053122D01*
G75*
G02*
X127485102Y-57229898I-88388J-88388D01*
G01*
X127308325Y-57406675D01*
G75*
G02*
X127131549Y-57406675I-88388J88388D01*
G01*
G37*
G36*
G01*
X127697235Y-56840990D02*
X126813352Y-55957107D01*
G75*
G02*
X126813352Y-55780331I88388J88388D01*
G01*
X126990129Y-55603554D01*
G75*
G02*
X127166905Y-55603554I88388J-88388D01*
G01*
X128050788Y-56487437D01*
G75*
G02*
X128050788Y-56664213I-88388J-88388D01*
G01*
X127874011Y-56840990D01*
G75*
G02*
X127697235Y-56840990I-88388J88388D01*
G01*
G37*
G36*
G01*
X126990128Y-54896446D02*
X126813352Y-54719669D01*
G75*
G02*
X126813352Y-54542893I88388J88388D01*
G01*
X127697235Y-53659010D01*
G75*
G02*
X127874011Y-53659010I88388J-88388D01*
G01*
X128050788Y-53835787D01*
G75*
G02*
X128050788Y-54012563I-88388J-88388D01*
G01*
X127166905Y-54896446D01*
G75*
G02*
X126990129Y-54896446I-88388J88388D01*
G01*
G37*
G36*
G01*
X126424442Y-54330761D02*
X126247666Y-54153984D01*
G75*
G02*
X126247666Y-53977208I88388J88388D01*
G01*
X127131549Y-53093325D01*
G75*
G02*
X127308325Y-53093325I88388J-88388D01*
G01*
X127485102Y-53270102D01*
G75*
G02*
X127485102Y-53446878I-88388J-88388D01*
G01*
X126601219Y-54330761D01*
G75*
G02*
X126424443Y-54330761I-88388J88388D01*
G01*
G37*
G36*
G01*
X125858757Y-53765075D02*
X125681981Y-53588298D01*
G75*
G02*
X125681981Y-53411522I88388J88388D01*
G01*
X126565864Y-52527639D01*
G75*
G02*
X126742640Y-52527639I88388J-88388D01*
G01*
X126919417Y-52704416D01*
G75*
G02*
X126919417Y-52881192I-88388J-88388D01*
G01*
X126035534Y-53765075D01*
G75*
G02*
X125858758Y-53765075I-88388J88388D01*
G01*
G37*
G36*
G01*
X125293072Y-53199390D02*
X125116296Y-53022613D01*
G75*
G02*
X125116296Y-52845837I88388J88388D01*
G01*
X126000179Y-51961954D01*
G75*
G02*
X126176955Y-51961954I88388J-88388D01*
G01*
X126353732Y-52138731D01*
G75*
G02*
X126353732Y-52315507I-88388J-88388D01*
G01*
X125469849Y-53199390D01*
G75*
G02*
X125293073Y-53199390I-88388J88388D01*
G01*
G37*
G36*
G01*
X124727386Y-52633704D02*
X124550610Y-52456927D01*
G75*
G02*
X124550610Y-52280151I88388J88388D01*
G01*
X125434493Y-51396268D01*
G75*
G02*
X125611269Y-51396268I88388J-88388D01*
G01*
X125788046Y-51573045D01*
G75*
G02*
X125788046Y-51749821I-88388J-88388D01*
G01*
X124904163Y-52633704D01*
G75*
G02*
X124727387Y-52633704I-88388J88388D01*
G01*
G37*
G36*
G01*
X124161701Y-52068019D02*
X123984925Y-51891242D01*
G75*
G02*
X123984925Y-51714466I88388J88388D01*
G01*
X124868808Y-50830583D01*
G75*
G02*
X125045584Y-50830583I88388J-88388D01*
G01*
X125222361Y-51007360D01*
G75*
G02*
X125222361Y-51184136I-88388J-88388D01*
G01*
X124338478Y-52068019D01*
G75*
G02*
X124161702Y-52068019I-88388J88388D01*
G01*
G37*
G36*
G01*
X123596015Y-51502334D02*
X123419239Y-51325557D01*
G75*
G02*
X123419239Y-51148781I88388J88388D01*
G01*
X124303122Y-50264898D01*
G75*
G02*
X124479898Y-50264898I88388J-88388D01*
G01*
X124656675Y-50441675D01*
G75*
G02*
X124656675Y-50618451I-88388J-88388D01*
G01*
X123772792Y-51502334D01*
G75*
G02*
X123596016Y-51502334I-88388J88388D01*
G01*
G37*
G36*
G01*
X123030330Y-50936648D02*
X122853554Y-50759871D01*
G75*
G02*
X122853554Y-50583095I88388J88388D01*
G01*
X123737437Y-49699212D01*
G75*
G02*
X123914213Y-49699212I88388J-88388D01*
G01*
X124090990Y-49875989D01*
G75*
G02*
X124090990Y-50052765I-88388J-88388D01*
G01*
X123207107Y-50936648D01*
G75*
G02*
X123030331Y-50936648I-88388J88388D01*
G01*
G37*
G36*
G01*
X121792893Y-50936648D02*
X120909010Y-50052765D01*
G75*
G02*
X120909010Y-49875989I88388J88388D01*
G01*
X121085787Y-49699212D01*
G75*
G02*
X121262563Y-49699212I88388J-88388D01*
G01*
X122146446Y-50583095D01*
G75*
G02*
X122146446Y-50759871I-88388J-88388D01*
G01*
X121969669Y-50936648D01*
G75*
G02*
X121792893Y-50936648I-88388J88388D01*
G01*
G37*
G36*
G01*
X121227208Y-51502334D02*
X120343325Y-50618451D01*
G75*
G02*
X120343325Y-50441675I88388J88388D01*
G01*
X120520102Y-50264898D01*
G75*
G02*
X120696878Y-50264898I88388J-88388D01*
G01*
X121580761Y-51148781D01*
G75*
G02*
X121580761Y-51325557I-88388J-88388D01*
G01*
X121403984Y-51502334D01*
G75*
G02*
X121227208Y-51502334I-88388J88388D01*
G01*
G37*
G36*
G01*
X120661522Y-52068019D02*
X119777639Y-51184136D01*
G75*
G02*
X119777639Y-51007360I88388J88388D01*
G01*
X119954416Y-50830583D01*
G75*
G02*
X120131192Y-50830583I88388J-88388D01*
G01*
X121015075Y-51714466D01*
G75*
G02*
X121015075Y-51891242I-88388J-88388D01*
G01*
X120838298Y-52068019D01*
G75*
G02*
X120661522Y-52068019I-88388J88388D01*
G01*
G37*
G36*
G01*
X120095837Y-52633704D02*
X119211954Y-51749821D01*
G75*
G02*
X119211954Y-51573045I88388J88388D01*
G01*
X119388731Y-51396268D01*
G75*
G02*
X119565507Y-51396268I88388J-88388D01*
G01*
X120449390Y-52280151D01*
G75*
G02*
X120449390Y-52456927I-88388J-88388D01*
G01*
X120272613Y-52633704D01*
G75*
G02*
X120095837Y-52633704I-88388J88388D01*
G01*
G37*
G36*
G01*
X119530151Y-53199390D02*
X118646268Y-52315507D01*
G75*
G02*
X118646268Y-52138731I88388J88388D01*
G01*
X118823045Y-51961954D01*
G75*
G02*
X118999821Y-51961954I88388J-88388D01*
G01*
X119883704Y-52845837D01*
G75*
G02*
X119883704Y-53022613I-88388J-88388D01*
G01*
X119706927Y-53199390D01*
G75*
G02*
X119530151Y-53199390I-88388J88388D01*
G01*
G37*
G36*
G01*
X118964466Y-53765075D02*
X118080583Y-52881192D01*
G75*
G02*
X118080583Y-52704416I88388J88388D01*
G01*
X118257360Y-52527639D01*
G75*
G02*
X118434136Y-52527639I88388J-88388D01*
G01*
X119318019Y-53411522D01*
G75*
G02*
X119318019Y-53588298I-88388J-88388D01*
G01*
X119141242Y-53765075D01*
G75*
G02*
X118964466Y-53765075I-88388J88388D01*
G01*
G37*
G36*
G01*
X118398781Y-54330761D02*
X117514898Y-53446878D01*
G75*
G02*
X117514898Y-53270102I88388J88388D01*
G01*
X117691675Y-53093325D01*
G75*
G02*
X117868451Y-53093325I88388J-88388D01*
G01*
X118752334Y-53977208D01*
G75*
G02*
X118752334Y-54153984I-88388J-88388D01*
G01*
X118575557Y-54330761D01*
G75*
G02*
X118398781Y-54330761I-88388J88388D01*
G01*
G37*
G36*
G01*
X117833095Y-54896446D02*
X116949212Y-54012563D01*
G75*
G02*
X116949212Y-53835787I88388J88388D01*
G01*
X117125989Y-53659010D01*
G75*
G02*
X117302765Y-53659010I88388J-88388D01*
G01*
X118186648Y-54542893D01*
G75*
G02*
X118186648Y-54719669I-88388J-88388D01*
G01*
X118009871Y-54896446D01*
G75*
G02*
X117833095Y-54896446I-88388J88388D01*
G01*
G37*
%TD*%
%TO.C,C2*%
G36*
G01*
X115200000Y-65725000D02*
X115200000Y-64475000D01*
G75*
G02*
X115450000Y-64225000I250000J0D01*
G01*
X116375000Y-64225000D01*
G75*
G02*
X116625000Y-64475000I0J-250000D01*
G01*
X116625000Y-65725000D01*
G75*
G02*
X116375000Y-65975000I-250000J0D01*
G01*
X115450000Y-65975000D01*
G75*
G02*
X115200000Y-65725000I0J250000D01*
G01*
G37*
G36*
G01*
X118175000Y-65725000D02*
X118175000Y-64475000D01*
G75*
G02*
X118425000Y-64225000I250000J0D01*
G01*
X119350000Y-64225000D01*
G75*
G02*
X119600000Y-64475000I0J-250000D01*
G01*
X119600000Y-65725000D01*
G75*
G02*
X119350000Y-65975000I-250000J0D01*
G01*
X118425000Y-65975000D01*
G75*
G02*
X118175000Y-65725000I0J250000D01*
G01*
G37*
%TD*%
M02*
