%TF.GenerationSoftware,KiCad,Pcbnew,(5.1.6)-1*%
%TF.CreationDate,2021-02-23T14:27:08+01:00*%
%TF.ProjectId,STM32G030K8T6_Board,53544d33-3247-4303-9330-4b3854365f42,rev?*%
%TF.SameCoordinates,Original*%
%TF.FileFunction,Soldermask,Top*%
%TF.FilePolarity,Negative*%
%FSLAX46Y46*%
G04 Gerber Fmt 4.6, Leading zero omitted, Abs format (unit mm)*
G04 Created by KiCad (PCBNEW (5.1.6)-1) date 2021-02-23 14:27:08*
%MOMM*%
%LPD*%
G01*
G04 APERTURE LIST*
%ADD10R,1.800000X1.800000*%
%ADD11O,1.800000X1.800000*%
%ADD12R,1.000000X0.900000*%
G04 APERTURE END LIST*
D10*
%TO.C,J4*%
X111760000Y-78740000D03*
D11*
X111760000Y-76200000D03*
X111760000Y-73660000D03*
X111760000Y-71120000D03*
X111760000Y-68580000D03*
X111760000Y-66040000D03*
X111760000Y-63500000D03*
X111760000Y-60960000D03*
X111760000Y-58420000D03*
X111760000Y-55880000D03*
X111760000Y-53340000D03*
X111760000Y-50800000D03*
X111760000Y-48260000D03*
X111760000Y-45720000D03*
X111760000Y-43180000D03*
%TD*%
%TO.C,C4*%
G36*
G01*
X130157456Y-71625000D02*
X128842544Y-71625000D01*
G75*
G02*
X128575000Y-71357456I0J267544D01*
G01*
X128575000Y-70367544D01*
G75*
G02*
X128842544Y-70100000I267544J0D01*
G01*
X130157456Y-70100000D01*
G75*
G02*
X130425000Y-70367544I0J-267544D01*
G01*
X130425000Y-71357456D01*
G75*
G02*
X130157456Y-71625000I-267544J0D01*
G01*
G37*
G36*
G01*
X130157456Y-74600000D02*
X128842544Y-74600000D01*
G75*
G02*
X128575000Y-74332456I0J267544D01*
G01*
X128575000Y-73342544D01*
G75*
G02*
X128842544Y-73075000I267544J0D01*
G01*
X130157456Y-73075000D01*
G75*
G02*
X130425000Y-73342544I0J-267544D01*
G01*
X130425000Y-74332456D01*
G75*
G02*
X130157456Y-74600000I-267544J0D01*
G01*
G37*
%TD*%
%TO.C,C6*%
G36*
G01*
X116444118Y-60123902D02*
X117373902Y-59194119D01*
G75*
G02*
X117752266Y-59194119I189182J-189182D01*
G01*
X118452239Y-59894092D01*
G75*
G02*
X118452239Y-60272456I-189182J-189182D01*
G01*
X117522456Y-61202239D01*
G75*
G02*
X117144092Y-61202239I-189182J189182D01*
G01*
X116444119Y-60502266D01*
G75*
G02*
X116444119Y-60123902I189182J189182D01*
G01*
G37*
G36*
G01*
X118547760Y-62227544D02*
X119477544Y-61297761D01*
G75*
G02*
X119855908Y-61297761I189182J-189182D01*
G01*
X120555881Y-61997734D01*
G75*
G02*
X120555881Y-62376098I-189182J-189182D01*
G01*
X119626098Y-63305881D01*
G75*
G02*
X119247734Y-63305881I-189182J189182D01*
G01*
X118547761Y-62605908D01*
G75*
G02*
X118547761Y-62227544I189182J189182D01*
G01*
G37*
%TD*%
D10*
%TO.C,J1*%
X134620000Y-78740000D03*
D11*
X134620000Y-76200000D03*
X134620000Y-73660000D03*
X134620000Y-71120000D03*
X134620000Y-68580000D03*
X134620000Y-66040000D03*
X134620000Y-63500000D03*
X134620000Y-60960000D03*
X134620000Y-58420000D03*
X134620000Y-55880000D03*
X134620000Y-53340000D03*
X134620000Y-50800000D03*
X134620000Y-48260000D03*
X134620000Y-45720000D03*
X134620000Y-43180000D03*
%TD*%
D10*
%TO.C,J2*%
X134620000Y-39000000D03*
D11*
X132080000Y-39000000D03*
X129540000Y-39000000D03*
X127000000Y-39000000D03*
%TD*%
D10*
%TO.C,J3*%
X121920000Y-39000000D03*
D11*
X119380000Y-39000000D03*
X116840000Y-39000000D03*
X114300000Y-39000000D03*
X111760000Y-39000000D03*
%TD*%
%TO.C,J5*%
X119380000Y-79000000D03*
X121920000Y-79000000D03*
X124460000Y-79000000D03*
D10*
X127000000Y-79000000D03*
%TD*%
D12*
%TO.C,Q1*%
X123050000Y-73000000D03*
X123050000Y-74900000D03*
X125050000Y-73950000D03*
%TD*%
%TO.C,R1*%
G36*
G01*
X127657456Y-74600000D02*
X126342544Y-74600000D01*
G75*
G02*
X126075000Y-74332456I0J267544D01*
G01*
X126075000Y-73342544D01*
G75*
G02*
X126342544Y-73075000I267544J0D01*
G01*
X127657456Y-73075000D01*
G75*
G02*
X127925000Y-73342544I0J-267544D01*
G01*
X127925000Y-74332456D01*
G75*
G02*
X127657456Y-74600000I-267544J0D01*
G01*
G37*
G36*
G01*
X127657456Y-71625000D02*
X126342544Y-71625000D01*
G75*
G02*
X126075000Y-71357456I0J267544D01*
G01*
X126075000Y-70367544D01*
G75*
G02*
X126342544Y-70100000I267544J0D01*
G01*
X127657456Y-70100000D01*
G75*
G02*
X127925000Y-70367544I0J-267544D01*
G01*
X127925000Y-71357456D01*
G75*
G02*
X127657456Y-71625000I-267544J0D01*
G01*
G37*
%TD*%
%TO.C,U1*%
G36*
G01*
X117108311Y-56894023D02*
X116896179Y-56681891D01*
G75*
G02*
X116896179Y-56469759I106066J106066D01*
G01*
X117815417Y-55550521D01*
G75*
G02*
X118027549Y-55550521I106066J-106066D01*
G01*
X118239681Y-55762653D01*
G75*
G02*
X118239681Y-55974785I-106066J-106066D01*
G01*
X117320443Y-56894023D01*
G75*
G02*
X117108311Y-56894023I-106066J106066D01*
G01*
G37*
G36*
G01*
X117673997Y-57459708D02*
X117461865Y-57247576D01*
G75*
G02*
X117461865Y-57035444I106066J106066D01*
G01*
X118381103Y-56116206D01*
G75*
G02*
X118593235Y-56116206I106066J-106066D01*
G01*
X118805367Y-56328338D01*
G75*
G02*
X118805367Y-56540470I-106066J-106066D01*
G01*
X117886129Y-57459708D01*
G75*
G02*
X117673997Y-57459708I-106066J106066D01*
G01*
G37*
G36*
G01*
X118239682Y-58025394D02*
X118027550Y-57813262D01*
G75*
G02*
X118027550Y-57601130I106066J106066D01*
G01*
X118946788Y-56681892D01*
G75*
G02*
X119158920Y-56681892I106066J-106066D01*
G01*
X119371052Y-56894024D01*
G75*
G02*
X119371052Y-57106156I-106066J-106066D01*
G01*
X118451814Y-58025394D01*
G75*
G02*
X118239682Y-58025394I-106066J106066D01*
G01*
G37*
G36*
G01*
X118805367Y-58591079D02*
X118593235Y-58378947D01*
G75*
G02*
X118593235Y-58166815I106066J106066D01*
G01*
X119512473Y-57247577D01*
G75*
G02*
X119724605Y-57247577I106066J-106066D01*
G01*
X119936737Y-57459709D01*
G75*
G02*
X119936737Y-57671841I-106066J-106066D01*
G01*
X119017499Y-58591079D01*
G75*
G02*
X118805367Y-58591079I-106066J106066D01*
G01*
G37*
G36*
G01*
X119371053Y-59156765D02*
X119158921Y-58944633D01*
G75*
G02*
X119158921Y-58732501I106066J106066D01*
G01*
X120078159Y-57813263D01*
G75*
G02*
X120290291Y-57813263I106066J-106066D01*
G01*
X120502423Y-58025395D01*
G75*
G02*
X120502423Y-58237527I-106066J-106066D01*
G01*
X119583185Y-59156765D01*
G75*
G02*
X119371053Y-59156765I-106066J106066D01*
G01*
G37*
G36*
G01*
X119936738Y-59722450D02*
X119724606Y-59510318D01*
G75*
G02*
X119724606Y-59298186I106066J106066D01*
G01*
X120643844Y-58378948D01*
G75*
G02*
X120855976Y-58378948I106066J-106066D01*
G01*
X121068108Y-58591080D01*
G75*
G02*
X121068108Y-58803212I-106066J-106066D01*
G01*
X120148870Y-59722450D01*
G75*
G02*
X119936738Y-59722450I-106066J106066D01*
G01*
G37*
G36*
G01*
X120502424Y-60288135D02*
X120290292Y-60076003D01*
G75*
G02*
X120290292Y-59863871I106066J106066D01*
G01*
X121209530Y-58944633D01*
G75*
G02*
X121421662Y-58944633I106066J-106066D01*
G01*
X121633794Y-59156765D01*
G75*
G02*
X121633794Y-59368897I-106066J-106066D01*
G01*
X120714556Y-60288135D01*
G75*
G02*
X120502424Y-60288135I-106066J106066D01*
G01*
G37*
G36*
G01*
X121068109Y-60853821D02*
X120855977Y-60641689D01*
G75*
G02*
X120855977Y-60429557I106066J106066D01*
G01*
X121775215Y-59510319D01*
G75*
G02*
X121987347Y-59510319I106066J-106066D01*
G01*
X122199479Y-59722451D01*
G75*
G02*
X122199479Y-59934583I-106066J-106066D01*
G01*
X121280241Y-60853821D01*
G75*
G02*
X121068109Y-60853821I-106066J106066D01*
G01*
G37*
G36*
G01*
X123719759Y-60853821D02*
X122800521Y-59934583D01*
G75*
G02*
X122800521Y-59722451I106066J106066D01*
G01*
X123012653Y-59510319D01*
G75*
G02*
X123224785Y-59510319I106066J-106066D01*
G01*
X124144023Y-60429557D01*
G75*
G02*
X124144023Y-60641689I-106066J-106066D01*
G01*
X123931891Y-60853821D01*
G75*
G02*
X123719759Y-60853821I-106066J106066D01*
G01*
G37*
G36*
G01*
X124285444Y-60288135D02*
X123366206Y-59368897D01*
G75*
G02*
X123366206Y-59156765I106066J106066D01*
G01*
X123578338Y-58944633D01*
G75*
G02*
X123790470Y-58944633I106066J-106066D01*
G01*
X124709708Y-59863871D01*
G75*
G02*
X124709708Y-60076003I-106066J-106066D01*
G01*
X124497576Y-60288135D01*
G75*
G02*
X124285444Y-60288135I-106066J106066D01*
G01*
G37*
G36*
G01*
X124851130Y-59722450D02*
X123931892Y-58803212D01*
G75*
G02*
X123931892Y-58591080I106066J106066D01*
G01*
X124144024Y-58378948D01*
G75*
G02*
X124356156Y-58378948I106066J-106066D01*
G01*
X125275394Y-59298186D01*
G75*
G02*
X125275394Y-59510318I-106066J-106066D01*
G01*
X125063262Y-59722450D01*
G75*
G02*
X124851130Y-59722450I-106066J106066D01*
G01*
G37*
G36*
G01*
X125416815Y-59156765D02*
X124497577Y-58237527D01*
G75*
G02*
X124497577Y-58025395I106066J106066D01*
G01*
X124709709Y-57813263D01*
G75*
G02*
X124921841Y-57813263I106066J-106066D01*
G01*
X125841079Y-58732501D01*
G75*
G02*
X125841079Y-58944633I-106066J-106066D01*
G01*
X125628947Y-59156765D01*
G75*
G02*
X125416815Y-59156765I-106066J106066D01*
G01*
G37*
G36*
G01*
X125982501Y-58591079D02*
X125063263Y-57671841D01*
G75*
G02*
X125063263Y-57459709I106066J106066D01*
G01*
X125275395Y-57247577D01*
G75*
G02*
X125487527Y-57247577I106066J-106066D01*
G01*
X126406765Y-58166815D01*
G75*
G02*
X126406765Y-58378947I-106066J-106066D01*
G01*
X126194633Y-58591079D01*
G75*
G02*
X125982501Y-58591079I-106066J106066D01*
G01*
G37*
G36*
G01*
X126548186Y-58025394D02*
X125628948Y-57106156D01*
G75*
G02*
X125628948Y-56894024I106066J106066D01*
G01*
X125841080Y-56681892D01*
G75*
G02*
X126053212Y-56681892I106066J-106066D01*
G01*
X126972450Y-57601130D01*
G75*
G02*
X126972450Y-57813262I-106066J-106066D01*
G01*
X126760318Y-58025394D01*
G75*
G02*
X126548186Y-58025394I-106066J106066D01*
G01*
G37*
G36*
G01*
X127113871Y-57459708D02*
X126194633Y-56540470D01*
G75*
G02*
X126194633Y-56328338I106066J106066D01*
G01*
X126406765Y-56116206D01*
G75*
G02*
X126618897Y-56116206I106066J-106066D01*
G01*
X127538135Y-57035444D01*
G75*
G02*
X127538135Y-57247576I-106066J-106066D01*
G01*
X127326003Y-57459708D01*
G75*
G02*
X127113871Y-57459708I-106066J106066D01*
G01*
G37*
G36*
G01*
X127679557Y-56894023D02*
X126760319Y-55974785D01*
G75*
G02*
X126760319Y-55762653I106066J106066D01*
G01*
X126972451Y-55550521D01*
G75*
G02*
X127184583Y-55550521I106066J-106066D01*
G01*
X128103821Y-56469759D01*
G75*
G02*
X128103821Y-56681891I-106066J-106066D01*
G01*
X127891689Y-56894023D01*
G75*
G02*
X127679557Y-56894023I-106066J106066D01*
G01*
G37*
G36*
G01*
X126972451Y-54949479D02*
X126760319Y-54737347D01*
G75*
G02*
X126760319Y-54525215I106066J106066D01*
G01*
X127679557Y-53605977D01*
G75*
G02*
X127891689Y-53605977I106066J-106066D01*
G01*
X128103821Y-53818109D01*
G75*
G02*
X128103821Y-54030241I-106066J-106066D01*
G01*
X127184583Y-54949479D01*
G75*
G02*
X126972451Y-54949479I-106066J106066D01*
G01*
G37*
G36*
G01*
X126406765Y-54383794D02*
X126194633Y-54171662D01*
G75*
G02*
X126194633Y-53959530I106066J106066D01*
G01*
X127113871Y-53040292D01*
G75*
G02*
X127326003Y-53040292I106066J-106066D01*
G01*
X127538135Y-53252424D01*
G75*
G02*
X127538135Y-53464556I-106066J-106066D01*
G01*
X126618897Y-54383794D01*
G75*
G02*
X126406765Y-54383794I-106066J106066D01*
G01*
G37*
G36*
G01*
X125841080Y-53818108D02*
X125628948Y-53605976D01*
G75*
G02*
X125628948Y-53393844I106066J106066D01*
G01*
X126548186Y-52474606D01*
G75*
G02*
X126760318Y-52474606I106066J-106066D01*
G01*
X126972450Y-52686738D01*
G75*
G02*
X126972450Y-52898870I-106066J-106066D01*
G01*
X126053212Y-53818108D01*
G75*
G02*
X125841080Y-53818108I-106066J106066D01*
G01*
G37*
G36*
G01*
X125275395Y-53252423D02*
X125063263Y-53040291D01*
G75*
G02*
X125063263Y-52828159I106066J106066D01*
G01*
X125982501Y-51908921D01*
G75*
G02*
X126194633Y-51908921I106066J-106066D01*
G01*
X126406765Y-52121053D01*
G75*
G02*
X126406765Y-52333185I-106066J-106066D01*
G01*
X125487527Y-53252423D01*
G75*
G02*
X125275395Y-53252423I-106066J106066D01*
G01*
G37*
G36*
G01*
X124709709Y-52686737D02*
X124497577Y-52474605D01*
G75*
G02*
X124497577Y-52262473I106066J106066D01*
G01*
X125416815Y-51343235D01*
G75*
G02*
X125628947Y-51343235I106066J-106066D01*
G01*
X125841079Y-51555367D01*
G75*
G02*
X125841079Y-51767499I-106066J-106066D01*
G01*
X124921841Y-52686737D01*
G75*
G02*
X124709709Y-52686737I-106066J106066D01*
G01*
G37*
G36*
G01*
X124144024Y-52121052D02*
X123931892Y-51908920D01*
G75*
G02*
X123931892Y-51696788I106066J106066D01*
G01*
X124851130Y-50777550D01*
G75*
G02*
X125063262Y-50777550I106066J-106066D01*
G01*
X125275394Y-50989682D01*
G75*
G02*
X125275394Y-51201814I-106066J-106066D01*
G01*
X124356156Y-52121052D01*
G75*
G02*
X124144024Y-52121052I-106066J106066D01*
G01*
G37*
G36*
G01*
X123578338Y-51555367D02*
X123366206Y-51343235D01*
G75*
G02*
X123366206Y-51131103I106066J106066D01*
G01*
X124285444Y-50211865D01*
G75*
G02*
X124497576Y-50211865I106066J-106066D01*
G01*
X124709708Y-50423997D01*
G75*
G02*
X124709708Y-50636129I-106066J-106066D01*
G01*
X123790470Y-51555367D01*
G75*
G02*
X123578338Y-51555367I-106066J106066D01*
G01*
G37*
G36*
G01*
X123012653Y-50989681D02*
X122800521Y-50777549D01*
G75*
G02*
X122800521Y-50565417I106066J106066D01*
G01*
X123719759Y-49646179D01*
G75*
G02*
X123931891Y-49646179I106066J-106066D01*
G01*
X124144023Y-49858311D01*
G75*
G02*
X124144023Y-50070443I-106066J-106066D01*
G01*
X123224785Y-50989681D01*
G75*
G02*
X123012653Y-50989681I-106066J106066D01*
G01*
G37*
G36*
G01*
X121775215Y-50989681D02*
X120855977Y-50070443D01*
G75*
G02*
X120855977Y-49858311I106066J106066D01*
G01*
X121068109Y-49646179D01*
G75*
G02*
X121280241Y-49646179I106066J-106066D01*
G01*
X122199479Y-50565417D01*
G75*
G02*
X122199479Y-50777549I-106066J-106066D01*
G01*
X121987347Y-50989681D01*
G75*
G02*
X121775215Y-50989681I-106066J106066D01*
G01*
G37*
G36*
G01*
X121209530Y-51555367D02*
X120290292Y-50636129D01*
G75*
G02*
X120290292Y-50423997I106066J106066D01*
G01*
X120502424Y-50211865D01*
G75*
G02*
X120714556Y-50211865I106066J-106066D01*
G01*
X121633794Y-51131103D01*
G75*
G02*
X121633794Y-51343235I-106066J-106066D01*
G01*
X121421662Y-51555367D01*
G75*
G02*
X121209530Y-51555367I-106066J106066D01*
G01*
G37*
G36*
G01*
X120643844Y-52121052D02*
X119724606Y-51201814D01*
G75*
G02*
X119724606Y-50989682I106066J106066D01*
G01*
X119936738Y-50777550D01*
G75*
G02*
X120148870Y-50777550I106066J-106066D01*
G01*
X121068108Y-51696788D01*
G75*
G02*
X121068108Y-51908920I-106066J-106066D01*
G01*
X120855976Y-52121052D01*
G75*
G02*
X120643844Y-52121052I-106066J106066D01*
G01*
G37*
G36*
G01*
X120078159Y-52686737D02*
X119158921Y-51767499D01*
G75*
G02*
X119158921Y-51555367I106066J106066D01*
G01*
X119371053Y-51343235D01*
G75*
G02*
X119583185Y-51343235I106066J-106066D01*
G01*
X120502423Y-52262473D01*
G75*
G02*
X120502423Y-52474605I-106066J-106066D01*
G01*
X120290291Y-52686737D01*
G75*
G02*
X120078159Y-52686737I-106066J106066D01*
G01*
G37*
G36*
G01*
X119512473Y-53252423D02*
X118593235Y-52333185D01*
G75*
G02*
X118593235Y-52121053I106066J106066D01*
G01*
X118805367Y-51908921D01*
G75*
G02*
X119017499Y-51908921I106066J-106066D01*
G01*
X119936737Y-52828159D01*
G75*
G02*
X119936737Y-53040291I-106066J-106066D01*
G01*
X119724605Y-53252423D01*
G75*
G02*
X119512473Y-53252423I-106066J106066D01*
G01*
G37*
G36*
G01*
X118946788Y-53818108D02*
X118027550Y-52898870D01*
G75*
G02*
X118027550Y-52686738I106066J106066D01*
G01*
X118239682Y-52474606D01*
G75*
G02*
X118451814Y-52474606I106066J-106066D01*
G01*
X119371052Y-53393844D01*
G75*
G02*
X119371052Y-53605976I-106066J-106066D01*
G01*
X119158920Y-53818108D01*
G75*
G02*
X118946788Y-53818108I-106066J106066D01*
G01*
G37*
G36*
G01*
X118381103Y-54383794D02*
X117461865Y-53464556D01*
G75*
G02*
X117461865Y-53252424I106066J106066D01*
G01*
X117673997Y-53040292D01*
G75*
G02*
X117886129Y-53040292I106066J-106066D01*
G01*
X118805367Y-53959530D01*
G75*
G02*
X118805367Y-54171662I-106066J-106066D01*
G01*
X118593235Y-54383794D01*
G75*
G02*
X118381103Y-54383794I-106066J106066D01*
G01*
G37*
G36*
G01*
X117815417Y-54949479D02*
X116896179Y-54030241D01*
G75*
G02*
X116896179Y-53818109I106066J106066D01*
G01*
X117108311Y-53605977D01*
G75*
G02*
X117320443Y-53605977I106066J-106066D01*
G01*
X118239681Y-54525215D01*
G75*
G02*
X118239681Y-54737347I-106066J-106066D01*
G01*
X118027549Y-54949479D01*
G75*
G02*
X117815417Y-54949479I-106066J106066D01*
G01*
G37*
%TD*%
%TO.C,C2*%
G36*
G01*
X115150000Y-65757456D02*
X115150000Y-64442544D01*
G75*
G02*
X115417544Y-64175000I267544J0D01*
G01*
X116407456Y-64175000D01*
G75*
G02*
X116675000Y-64442544I0J-267544D01*
G01*
X116675000Y-65757456D01*
G75*
G02*
X116407456Y-66025000I-267544J0D01*
G01*
X115417544Y-66025000D01*
G75*
G02*
X115150000Y-65757456I0J267544D01*
G01*
G37*
G36*
G01*
X118125000Y-65757456D02*
X118125000Y-64442544D01*
G75*
G02*
X118392544Y-64175000I267544J0D01*
G01*
X119382456Y-64175000D01*
G75*
G02*
X119650000Y-64442544I0J-267544D01*
G01*
X119650000Y-65757456D01*
G75*
G02*
X119382456Y-66025000I-267544J0D01*
G01*
X118392544Y-66025000D01*
G75*
G02*
X118125000Y-65757456I0J267544D01*
G01*
G37*
%TD*%
M02*
