G04 #@! TF.GenerationSoftware,KiCad,Pcbnew,(5.1.6)-1*
G04 #@! TF.CreationDate,2021-04-03T13:21:31+02:00*
G04 #@! TF.ProjectId,rysboard,72797362-6f61-4726-942e-6b696361645f,4.2*
G04 #@! TF.SameCoordinates,Original*
G04 #@! TF.FileFunction,Copper,L3,Inr*
G04 #@! TF.FilePolarity,Positive*
%FSLAX46Y46*%
G04 Gerber Fmt 4.6, Leading zero omitted, Abs format (unit mm)*
G04 Created by KiCad (PCBNEW (5.1.6)-1) date 2021-04-03 13:21:31*
%MOMM*%
%LPD*%
G01*
G04 APERTURE LIST*
G04 #@! TA.AperFunction,ViaPad*
%ADD10O,1.500000X2.020000*%
G04 #@! TD*
G04 #@! TA.AperFunction,ViaPad*
%ADD11C,5.400000*%
G04 #@! TD*
G04 #@! TA.AperFunction,ViaPad*
%ADD12C,0.600000*%
G04 #@! TD*
G04 #@! TA.AperFunction,ViaPad*
%ADD13O,0.800000X1.300000*%
G04 #@! TD*
G04 #@! TA.AperFunction,ViaPad*
%ADD14O,1.700000X1.700000*%
G04 #@! TD*
G04 #@! TA.AperFunction,ViaPad*
%ADD15R,1.700000X1.700000*%
G04 #@! TD*
G04 #@! TA.AperFunction,ViaPad*
%ADD16C,1.500000*%
G04 #@! TD*
G04 #@! TA.AperFunction,ViaPad*
%ADD17O,0.850000X0.850000*%
G04 #@! TD*
G04 #@! TA.AperFunction,ViaPad*
%ADD18R,0.850000X0.850000*%
G04 #@! TD*
G04 #@! TA.AperFunction,ViaPad*
%ADD19C,0.402000*%
G04 #@! TD*
G04 #@! TA.AperFunction,ViaPad*
%ADD20C,0.500000*%
G04 #@! TD*
G04 #@! TA.AperFunction,ViaPad*
%ADD21C,0.750000*%
G04 #@! TD*
G04 #@! TA.AperFunction,Conductor*
%ADD22C,0.400000*%
G04 #@! TD*
G04 #@! TA.AperFunction,Conductor*
%ADD23C,0.350000*%
G04 #@! TD*
G04 #@! TA.AperFunction,Conductor*
%ADD24C,0.250000*%
G04 #@! TD*
G04 #@! TA.AperFunction,Conductor*
%ADD25C,0.200000*%
G04 #@! TD*
G04 APERTURE END LIST*
D10*
X115400000Y-94025000D03*
X118400000Y-94025000D03*
X121400000Y-94025000D03*
G04 #@! TA.AperFunction,ViaPad*
G36*
G01*
X125150000Y-93265000D02*
X125150000Y-94785000D01*
G75*
G02*
X124900000Y-95035000I-250000J0D01*
G01*
X123900000Y-95035000D01*
G75*
G02*
X123650000Y-94785000I0J250000D01*
G01*
X123650000Y-93265000D01*
G75*
G02*
X123900000Y-93015000I250000J0D01*
G01*
X124900000Y-93015000D01*
G75*
G02*
X125150000Y-93265000I0J-250000D01*
G01*
G37*
G04 #@! TD.AperFunction*
D11*
X127800000Y-127150000D03*
X78800000Y-69150000D03*
X78800000Y-127150000D03*
D10*
X115400000Y-78640000D03*
X118400000Y-78640000D03*
X121400000Y-78640000D03*
G04 #@! TA.AperFunction,ViaPad*
G36*
G01*
X125150000Y-77880000D02*
X125150000Y-79400000D01*
G75*
G02*
X124900000Y-79650000I-250000J0D01*
G01*
X123900000Y-79650000D01*
G75*
G02*
X123650000Y-79400000I0J250000D01*
G01*
X123650000Y-77880000D01*
G75*
G02*
X123900000Y-77630000I250000J0D01*
G01*
X124900000Y-77630000D01*
G75*
G02*
X125150000Y-77880000I0J-250000D01*
G01*
G37*
G04 #@! TD.AperFunction*
D12*
X102250000Y-72050000D03*
X100950000Y-72050000D03*
X99650000Y-72050000D03*
X102250000Y-73830000D03*
X100950000Y-73830000D03*
X99650000Y-73830000D03*
X102250000Y-75610000D03*
X100950000Y-75610000D03*
X99650000Y-75610000D03*
X102250000Y-77390000D03*
X100950000Y-77390000D03*
X99650000Y-77390000D03*
X102250000Y-79170000D03*
X100950000Y-79170000D03*
X99650000Y-79170000D03*
X99650000Y-80950000D03*
X100950000Y-80950000D03*
X102250000Y-80950000D03*
X102250000Y-90925000D03*
X100950000Y-90925000D03*
X99650000Y-90925000D03*
X102250000Y-92705000D03*
X100950000Y-92705000D03*
X99650000Y-92705000D03*
X102250000Y-94485000D03*
X100950000Y-94485000D03*
X99650000Y-94485000D03*
X102250000Y-96265000D03*
X100950000Y-96265000D03*
X99650000Y-96265000D03*
X102250000Y-98045000D03*
X100950000Y-98045000D03*
X99650000Y-98045000D03*
X99650000Y-99825000D03*
X100950000Y-99825000D03*
X102250000Y-99825000D03*
D13*
X89492000Y-104990000D03*
X88242000Y-104990000D03*
X86992000Y-104990000D03*
X85742000Y-104990000D03*
G04 #@! TA.AperFunction,ViaPad*
G36*
G01*
X84092000Y-105440000D02*
X84092000Y-104540000D01*
G75*
G02*
X84292000Y-104340000I200000J0D01*
G01*
X84692000Y-104340000D01*
G75*
G02*
X84892000Y-104540000I0J-200000D01*
G01*
X84892000Y-105440000D01*
G75*
G02*
X84692000Y-105640000I-200000J0D01*
G01*
X84292000Y-105640000D01*
G75*
G02*
X84092000Y-105440000I0J200000D01*
G01*
G37*
G04 #@! TD.AperFunction*
X89492000Y-79082000D03*
X88242000Y-79082000D03*
X86992000Y-79082000D03*
X85742000Y-79082000D03*
G04 #@! TA.AperFunction,ViaPad*
G36*
G01*
X84092000Y-79532000D02*
X84092000Y-78632000D01*
G75*
G02*
X84292000Y-78432000I200000J0D01*
G01*
X84692000Y-78432000D01*
G75*
G02*
X84892000Y-78632000I0J-200000D01*
G01*
X84892000Y-79532000D01*
G75*
G02*
X84692000Y-79732000I-200000J0D01*
G01*
X84292000Y-79732000D01*
G75*
G02*
X84092000Y-79532000I0J200000D01*
G01*
G37*
G04 #@! TD.AperFunction*
X89492000Y-83400000D03*
X88242000Y-83400000D03*
X86992000Y-83400000D03*
X85742000Y-83400000D03*
G04 #@! TA.AperFunction,ViaPad*
G36*
G01*
X84092000Y-83850000D02*
X84092000Y-82950000D01*
G75*
G02*
X84292000Y-82750000I200000J0D01*
G01*
X84692000Y-82750000D01*
G75*
G02*
X84892000Y-82950000I0J-200000D01*
G01*
X84892000Y-83850000D01*
G75*
G02*
X84692000Y-84050000I-200000J0D01*
G01*
X84292000Y-84050000D01*
G75*
G02*
X84092000Y-83850000I0J200000D01*
G01*
G37*
G04 #@! TD.AperFunction*
X89492000Y-87718000D03*
X88242000Y-87718000D03*
X86992000Y-87718000D03*
X85742000Y-87718000D03*
G04 #@! TA.AperFunction,ViaPad*
G36*
G01*
X84092000Y-88168000D02*
X84092000Y-87268000D01*
G75*
G02*
X84292000Y-87068000I200000J0D01*
G01*
X84692000Y-87068000D01*
G75*
G02*
X84892000Y-87268000I0J-200000D01*
G01*
X84892000Y-88168000D01*
G75*
G02*
X84692000Y-88368000I-200000J0D01*
G01*
X84292000Y-88368000D01*
G75*
G02*
X84092000Y-88168000I0J200000D01*
G01*
G37*
G04 #@! TD.AperFunction*
X89492000Y-92036000D03*
X88242000Y-92036000D03*
X86992000Y-92036000D03*
X85742000Y-92036000D03*
G04 #@! TA.AperFunction,ViaPad*
G36*
G01*
X84092000Y-92486000D02*
X84092000Y-91586000D01*
G75*
G02*
X84292000Y-91386000I200000J0D01*
G01*
X84692000Y-91386000D01*
G75*
G02*
X84892000Y-91586000I0J-200000D01*
G01*
X84892000Y-92486000D01*
G75*
G02*
X84692000Y-92686000I-200000J0D01*
G01*
X84292000Y-92686000D01*
G75*
G02*
X84092000Y-92486000I0J200000D01*
G01*
G37*
G04 #@! TD.AperFunction*
X89492000Y-96354000D03*
X88242000Y-96354000D03*
X86992000Y-96354000D03*
X85742000Y-96354000D03*
G04 #@! TA.AperFunction,ViaPad*
G36*
G01*
X84092000Y-96804000D02*
X84092000Y-95904000D01*
G75*
G02*
X84292000Y-95704000I200000J0D01*
G01*
X84692000Y-95704000D01*
G75*
G02*
X84892000Y-95904000I0J-200000D01*
G01*
X84892000Y-96804000D01*
G75*
G02*
X84692000Y-97004000I-200000J0D01*
G01*
X84292000Y-97004000D01*
G75*
G02*
X84092000Y-96804000I0J200000D01*
G01*
G37*
G04 #@! TD.AperFunction*
X89492000Y-100672000D03*
X88242000Y-100672000D03*
X86992000Y-100672000D03*
X85742000Y-100672000D03*
G04 #@! TA.AperFunction,ViaPad*
G36*
G01*
X84092000Y-101122000D02*
X84092000Y-100222000D01*
G75*
G02*
X84292000Y-100022000I200000J0D01*
G01*
X84692000Y-100022000D01*
G75*
G02*
X84892000Y-100222000I0J-200000D01*
G01*
X84892000Y-101122000D01*
G75*
G02*
X84692000Y-101322000I-200000J0D01*
G01*
X84292000Y-101322000D01*
G75*
G02*
X84092000Y-101122000I0J200000D01*
G01*
G37*
G04 #@! TD.AperFunction*
D14*
X77524500Y-74011100D03*
X80064500Y-74011100D03*
X77524500Y-76551100D03*
X80064500Y-76551100D03*
X77524500Y-79091100D03*
X80064500Y-79091100D03*
X77524500Y-81631100D03*
X80064500Y-81631100D03*
X77524500Y-84171100D03*
X80064500Y-84171100D03*
X77524500Y-86711100D03*
X80064500Y-86711100D03*
X77524500Y-89251100D03*
X80064500Y-89251100D03*
X77524500Y-91791100D03*
X80064500Y-91791100D03*
X77524500Y-94331100D03*
X80064500Y-94331100D03*
X77524500Y-96871100D03*
X80064500Y-96871100D03*
X77524500Y-99411100D03*
X80064500Y-99411100D03*
X77524500Y-101951100D03*
X80064500Y-101951100D03*
X77524500Y-104491100D03*
X80064500Y-104491100D03*
X77524500Y-107031100D03*
X80064500Y-107031100D03*
X77524500Y-109571100D03*
X80064500Y-109571100D03*
X77524500Y-112111100D03*
X80064500Y-112111100D03*
X77524500Y-114651100D03*
X80064500Y-114651100D03*
X77524500Y-117191100D03*
X80064500Y-117191100D03*
X77524500Y-119731100D03*
X80064500Y-119731100D03*
X77524500Y-122271100D03*
D15*
X80064500Y-122271100D03*
D11*
X127800000Y-69150000D03*
D16*
X102856000Y-122800000D03*
G04 #@! TA.AperFunction,ViaPad*
G36*
G01*
X103606000Y-125300000D02*
X103606000Y-126300000D01*
G75*
G02*
X103356000Y-126550000I-250000J0D01*
G01*
X102356000Y-126550000D01*
G75*
G02*
X102106000Y-126300000I0J250000D01*
G01*
X102106000Y-125300000D01*
G75*
G02*
X102356000Y-125050000I250000J0D01*
G01*
X103356000Y-125050000D01*
G75*
G02*
X103606000Y-125300000I0J-250000D01*
G01*
G37*
G04 #@! TD.AperFunction*
X94856000Y-122800000D03*
G04 #@! TA.AperFunction,ViaPad*
G36*
G01*
X95606000Y-125300000D02*
X95606000Y-126300000D01*
G75*
G02*
X95356000Y-126550000I-250000J0D01*
G01*
X94356000Y-126550000D01*
G75*
G02*
X94106000Y-126300000I0J250000D01*
G01*
X94106000Y-125300000D01*
G75*
G02*
X94356000Y-125050000I250000J0D01*
G01*
X95356000Y-125050000D01*
G75*
G02*
X95606000Y-125300000I0J-250000D01*
G01*
G37*
G04 #@! TD.AperFunction*
X86856000Y-122800000D03*
G04 #@! TA.AperFunction,ViaPad*
G36*
G01*
X87606000Y-125300000D02*
X87606000Y-126300000D01*
G75*
G02*
X87356000Y-126550000I-250000J0D01*
G01*
X86356000Y-126550000D01*
G75*
G02*
X86106000Y-126300000I0J250000D01*
G01*
X86106000Y-125300000D01*
G75*
G02*
X86356000Y-125050000I250000J0D01*
G01*
X87356000Y-125050000D01*
G75*
G02*
X87606000Y-125300000I0J-250000D01*
G01*
G37*
G04 #@! TD.AperFunction*
X110856000Y-122800000D03*
G04 #@! TA.AperFunction,ViaPad*
G36*
G01*
X111606000Y-125300000D02*
X111606000Y-126300000D01*
G75*
G02*
X111356000Y-126550000I-250000J0D01*
G01*
X110356000Y-126550000D01*
G75*
G02*
X110106000Y-126300000I0J250000D01*
G01*
X110106000Y-125300000D01*
G75*
G02*
X110356000Y-125050000I250000J0D01*
G01*
X111356000Y-125050000D01*
G75*
G02*
X111606000Y-125300000I0J-250000D01*
G01*
G37*
G04 #@! TD.AperFunction*
D14*
X127530000Y-99000000D03*
X124990000Y-99000000D03*
D15*
X122450000Y-99000000D03*
D14*
X110600000Y-189030000D03*
D15*
X110600000Y-186490000D03*
D17*
X128635001Y-103425001D03*
D18*
X128635001Y-102425001D03*
D17*
X128630000Y-105570000D03*
D18*
X128630000Y-106570000D03*
D19*
X99953500Y-108846500D03*
X99253500Y-108846500D03*
X99253500Y-109346500D03*
X99253500Y-109846500D03*
X99253500Y-110346500D03*
X99273250Y-110826750D03*
X99953500Y-109346500D03*
X99953500Y-109846500D03*
X99953500Y-110346500D03*
X99953500Y-110846500D03*
X98553500Y-108846500D03*
X98553500Y-109346500D03*
X98553500Y-109846500D03*
X98553500Y-110346500D03*
X98553500Y-110846500D03*
D20*
X91974990Y-107825010D03*
X91350000Y-108150000D03*
X90900000Y-108600000D03*
X90450000Y-109050000D03*
X90050000Y-109450000D03*
X89600000Y-109900000D03*
X90100000Y-110300000D03*
X90500000Y-109900000D03*
X91000000Y-109400000D03*
X91450000Y-108950000D03*
X92150010Y-108849990D03*
X92149990Y-109650010D03*
X91600000Y-109900000D03*
X91200000Y-110300000D03*
X90700000Y-110800000D03*
D19*
X105372500Y-97030000D03*
X106510000Y-77740000D03*
X96930000Y-73580000D03*
X96930000Y-92450000D03*
X104502882Y-96215958D03*
X104540000Y-97600000D03*
X104640000Y-78751000D03*
X104630000Y-77460000D03*
X96750000Y-72280000D03*
X96750000Y-72929001D03*
X96090000Y-72929001D03*
X96750000Y-78800000D03*
X96090000Y-78800000D03*
X96750000Y-79449001D03*
X96090000Y-79449001D03*
X106190000Y-72900000D03*
X105530000Y-72900000D03*
X106190000Y-73549001D03*
X105530000Y-73549001D03*
X106190000Y-79420000D03*
X105530000Y-79420000D03*
X106190000Y-80069001D03*
X105530000Y-80069001D03*
X96040999Y-97640000D03*
X96040999Y-98300000D03*
X96690000Y-97640000D03*
X96690000Y-98300000D03*
X96090000Y-91829001D03*
X96750000Y-91829001D03*
X96090000Y-91180000D03*
X96750000Y-91180000D03*
X105530000Y-98949001D03*
X106190000Y-98949001D03*
X105530000Y-98300000D03*
X106190000Y-98300000D03*
X105530000Y-91800999D03*
X106180000Y-91800999D03*
X106190000Y-92460000D03*
X105530000Y-92460000D03*
X96090000Y-72280000D03*
X94300000Y-101820000D03*
X95700000Y-113700000D03*
X102600000Y-113300000D03*
D20*
X115906001Y-119280000D03*
X82891980Y-85390000D03*
D19*
X96930000Y-77480000D03*
X96930000Y-96360000D03*
X96930000Y-74880000D03*
X96930000Y-93750000D03*
X96930000Y-74220000D03*
X96930000Y-94400000D03*
X104769673Y-98139673D03*
X104707938Y-79321408D03*
X96930000Y-93100000D03*
X96930000Y-75530000D03*
X96930000Y-95700000D03*
X96930000Y-76820000D03*
X96930000Y-97000000D03*
X96930000Y-78130000D03*
D20*
X91950000Y-111620000D03*
D19*
X115750000Y-113110000D03*
X92730000Y-105280000D03*
X111930000Y-98980000D03*
X90802500Y-95807500D03*
D20*
X118450000Y-102200000D03*
D19*
X123410000Y-127730000D03*
X102850000Y-114600000D03*
X101950000Y-114650000D03*
X112520000Y-113089989D03*
D20*
X87650000Y-118800000D03*
X91200000Y-116550000D03*
X97900000Y-123300000D03*
X94050000Y-119650000D03*
D19*
X121720000Y-113090000D03*
X122390000Y-113040990D03*
X93130000Y-99010000D03*
X120480000Y-110700000D03*
X119420000Y-110020000D03*
D20*
X123495000Y-104880000D03*
X103400000Y-119300000D03*
X105850000Y-119300000D03*
D19*
X115400000Y-110040000D03*
X113689000Y-106550000D03*
X99960000Y-113401010D03*
X99500000Y-113401010D03*
X100420000Y-113401010D03*
X99040000Y-113401010D03*
X100419007Y-113861010D03*
X100419007Y-114321010D03*
X100419007Y-114781010D03*
X99966418Y-114781010D03*
X99500000Y-114781010D03*
X99040000Y-114781010D03*
X99966418Y-114321010D03*
X99500000Y-114321010D03*
X99040000Y-114321010D03*
X99040000Y-113861010D03*
X99500000Y-113861010D03*
X99966418Y-113861010D03*
X96580000Y-114420000D03*
D20*
X109240487Y-116888158D03*
D19*
X92456000Y-115824000D03*
X112800000Y-116560000D03*
X125520000Y-103230000D03*
X95520000Y-112930000D03*
X125803121Y-107540000D03*
X92590000Y-106340000D03*
X126660000Y-105160000D03*
X128270000Y-111252000D03*
X92964000Y-126492000D03*
D20*
X85090000Y-108966000D03*
D19*
X128270000Y-112776000D03*
X83940000Y-125250000D03*
X128270000Y-114300000D03*
D20*
X120950000Y-114300000D03*
X118210000Y-113089989D03*
D19*
X123520000Y-102050000D03*
X129057500Y-109372500D03*
D20*
X91969998Y-103880000D03*
D19*
X115330000Y-106210000D03*
D20*
X94550000Y-115200000D03*
D19*
X100835008Y-115472602D03*
D20*
X120000000Y-125720000D03*
X121820000Y-125340000D03*
X123700000Y-125750000D03*
D19*
X125290000Y-122720000D03*
X125450000Y-110710000D03*
X124800000Y-123140000D03*
X122960000Y-113040989D03*
X125450000Y-111262003D03*
X125703222Y-122354003D03*
D20*
X99750000Y-124750000D03*
D19*
X89910000Y-124850000D03*
X93900000Y-114050000D03*
X115560000Y-105440000D03*
X85930000Y-121870000D03*
X95605713Y-114643951D03*
X115550000Y-103900000D03*
X115480000Y-111088989D03*
X93240000Y-97200000D03*
D20*
X94300000Y-104300000D03*
D19*
X94370000Y-109660000D03*
D21*
X98600000Y-116700000D03*
X98600000Y-117500000D03*
X98600000Y-118300000D03*
X106650000Y-110790000D03*
X107450000Y-110790000D03*
X108250000Y-110790000D03*
D19*
X95120000Y-109190000D03*
D20*
X113960000Y-102900000D03*
D19*
X102300000Y-68920000D03*
X128080286Y-110108927D03*
D20*
X91150000Y-101410000D03*
D19*
X114551001Y-108900000D03*
D22*
X111930000Y-108354471D02*
X115565529Y-111990000D01*
X111930000Y-98980000D02*
X111930000Y-108354471D01*
X115565529Y-112925529D02*
X115750000Y-113110000D01*
X115565529Y-111990000D02*
X115565529Y-112925529D01*
X88290000Y-107530000D02*
X90540000Y-105280000D01*
X84489999Y-109254001D02*
X84489999Y-108340001D01*
X84801999Y-109566001D02*
X84489999Y-109254001D01*
X111830000Y-116350000D02*
X111520000Y-116350000D01*
X95219991Y-119699991D02*
X85086001Y-109566001D01*
X112430000Y-115750000D02*
X111830000Y-116350000D01*
X102140009Y-119699991D02*
X95219991Y-119699991D01*
X115565529Y-112925529D02*
X115565529Y-114142604D01*
X109170001Y-118699999D02*
X103140001Y-118699999D01*
X90540000Y-105280000D02*
X92730000Y-105280000D01*
X85300000Y-107530000D02*
X88290000Y-107530000D01*
X113958133Y-115750000D02*
X112430000Y-115750000D01*
X115565529Y-114142604D02*
X113958133Y-115750000D01*
X85086001Y-109566001D02*
X84801999Y-109566001D01*
X84489999Y-108340001D02*
X85300000Y-107530000D01*
X111520000Y-116350000D02*
X109170001Y-118699999D01*
X103140001Y-118699999D02*
X102140009Y-119699991D01*
D23*
X118730000Y-102480000D02*
X118450000Y-102200000D01*
X121946002Y-102480000D02*
X118730000Y-102480000D01*
X124070001Y-104603999D02*
X121946002Y-102480000D01*
X124040000Y-108550000D02*
X124070001Y-108519999D01*
X125976001Y-110486001D02*
X124040000Y-108550000D01*
X125976001Y-111753999D02*
X125976001Y-110486001D01*
X124932997Y-123666001D02*
X125169706Y-123666001D01*
X123124999Y-125473999D02*
X124932997Y-123666001D01*
X125169706Y-123666001D02*
X126229223Y-122606484D01*
X123124999Y-127444999D02*
X123124999Y-125473999D01*
X124650000Y-112440000D02*
X125290000Y-112440000D01*
X123410000Y-127730000D02*
X123124999Y-127444999D01*
X124070001Y-108519999D02*
X124070001Y-104603999D01*
X126229223Y-122606484D02*
X126229223Y-122101522D01*
X124305020Y-120177319D02*
X124305020Y-112784980D01*
X126229223Y-122101522D02*
X124305020Y-120177319D01*
X124305020Y-112784980D02*
X124650000Y-112440000D01*
X125290000Y-112440000D02*
X125976001Y-111753999D01*
D24*
X111851990Y-120225001D02*
X118986991Y-113090000D01*
X107748297Y-123825003D02*
X111348298Y-120225001D01*
X107729299Y-123825003D02*
X107748297Y-123825003D01*
X107344312Y-124209990D02*
X107729299Y-123825003D01*
X100167690Y-123824989D02*
X100552691Y-124209990D01*
X100552691Y-124209990D02*
X107344312Y-124209990D01*
X99332310Y-123824989D02*
X100167690Y-123824989D01*
X82860000Y-115150000D02*
X82860000Y-122011002D01*
X82860000Y-122011002D02*
X85058987Y-124209990D01*
X90304170Y-123973989D02*
X90513169Y-124182988D01*
X118986991Y-113090000D02*
X119110000Y-113090000D01*
X111348298Y-120225001D02*
X111851990Y-120225001D01*
X89264312Y-124209990D02*
X89500312Y-123973989D01*
X119110000Y-113090000D02*
X121720000Y-113090000D01*
X77524500Y-112111100D02*
X78649501Y-113236101D01*
X80946101Y-113236101D02*
X82860000Y-115150000D01*
X85058987Y-124209990D02*
X89264312Y-124209990D01*
X78649501Y-113236101D02*
X80946101Y-113236101D01*
X89500312Y-123973989D02*
X90304170Y-123973989D01*
X90513169Y-124182988D02*
X98974312Y-124182988D01*
X98974312Y-124182988D02*
X99332310Y-123824989D01*
X122390000Y-113124482D02*
X122390000Y-113040990D01*
X122149245Y-113566001D02*
X122390000Y-113325246D01*
X119076688Y-113566001D02*
X122149245Y-113566001D01*
X111513987Y-120625011D02*
X112017679Y-120625011D01*
X112017679Y-120625011D02*
X119076688Y-113566001D01*
X107913987Y-124225011D02*
X111513987Y-120625011D01*
X107894989Y-124225011D02*
X107913987Y-124225011D01*
X100360000Y-124610000D02*
X107510000Y-124610000D01*
X99497999Y-124224999D02*
X100002001Y-124224999D01*
X107510000Y-124610000D02*
X107894989Y-124225011D01*
X90138481Y-124373999D02*
X90347480Y-124582998D01*
X90347480Y-124582998D02*
X99140000Y-124582998D01*
X100002001Y-124224999D02*
X100360000Y-124582998D01*
X89590000Y-124450000D02*
X89666001Y-124373999D01*
X89666001Y-124373999D02*
X90138481Y-124373999D01*
X122390000Y-113325246D02*
X122390000Y-113040990D01*
X100360000Y-124582998D02*
X100360000Y-124610000D01*
X99140000Y-124582998D02*
X99497999Y-124224999D01*
X82188290Y-115968300D02*
X78841700Y-115968300D01*
X78841700Y-115968300D02*
X77524500Y-114651100D01*
X82459990Y-116240000D02*
X82188290Y-115968300D01*
X89666001Y-124373999D02*
X89666001Y-124389517D01*
X89445518Y-124610000D02*
X84893300Y-124610000D01*
X89666001Y-124389517D02*
X89445518Y-124610000D01*
X82459990Y-122176691D02*
X82459990Y-116240000D01*
X84893300Y-124610000D02*
X82459990Y-122176691D01*
X81789990Y-104261590D02*
X80604501Y-103076101D01*
X81789990Y-109095689D02*
X81789990Y-104261590D01*
X78649501Y-103076101D02*
X77524500Y-101951100D01*
X93269312Y-120575011D02*
X81789990Y-109095689D01*
X120480000Y-110700000D02*
X119257288Y-110700000D01*
X80604501Y-103076101D02*
X78649501Y-103076101D01*
X119257288Y-110700000D02*
X117219990Y-112737298D01*
X117219990Y-112737298D02*
X117219990Y-113725605D01*
X93269312Y-120575011D02*
X109866891Y-120575011D01*
X109866891Y-120575011D02*
X111016920Y-119424981D01*
X111016920Y-119424981D02*
X111520614Y-119424981D01*
X111520614Y-119424981D02*
X117219990Y-113725605D01*
X78649501Y-97996101D02*
X77524500Y-96871100D01*
X82190000Y-108930000D02*
X82190000Y-99740000D01*
X93435001Y-120175001D02*
X82190000Y-108930000D01*
X82190000Y-99740000D02*
X80446101Y-97996101D01*
X119420000Y-110020000D02*
X119371590Y-110020000D01*
X80446101Y-97996101D02*
X78649501Y-97996101D01*
X119371590Y-110020000D02*
X116819980Y-112571609D01*
X116819980Y-112571609D02*
X116819980Y-113559917D01*
X116819980Y-113559917D02*
X111354926Y-119024971D01*
X110851231Y-119024971D02*
X110060000Y-119816204D01*
X111354926Y-119024971D02*
X110851231Y-119024971D01*
X110043796Y-119816204D02*
X109684999Y-120175001D01*
X110060000Y-119816204D02*
X110043796Y-119816204D01*
X109684999Y-120175001D02*
X93435001Y-120175001D01*
X78649501Y-110696101D02*
X77524500Y-109571100D01*
X117957999Y-112564988D02*
X117620000Y-112902987D01*
X119319494Y-112564988D02*
X117957999Y-112564988D01*
X82824704Y-110696101D02*
X78649501Y-110696101D01*
X123495000Y-104880000D02*
X123495000Y-108389482D01*
X123495000Y-108389482D02*
X119319494Y-112564988D01*
X117620000Y-113891293D02*
X111686302Y-119824991D01*
X111686302Y-119824991D02*
X111182609Y-119824991D01*
X117620000Y-112902987D02*
X117620000Y-113891293D01*
X110032581Y-120975021D02*
X93103623Y-120975021D01*
X111182609Y-119824991D02*
X110032581Y-120975021D01*
X93103623Y-120975021D02*
X82824704Y-110696101D01*
D25*
X125089001Y-122519001D02*
X125089001Y-122499001D01*
X125290000Y-122720000D02*
X125089001Y-122519001D01*
X125089001Y-122499001D02*
X123530000Y-120940000D01*
X125165744Y-110710000D02*
X125450000Y-110710000D01*
X123530000Y-112345744D02*
X125165744Y-110710000D01*
X123530000Y-120940000D02*
X123530000Y-112345744D01*
X122960000Y-113040989D02*
X123179990Y-113260979D01*
X123179990Y-121519990D02*
X124800000Y-123140000D01*
X123179990Y-113260979D02*
X123179990Y-121519990D01*
X125450000Y-111262003D02*
X125108729Y-111262003D01*
X125108729Y-111262003D02*
X123880010Y-112490722D01*
X123880010Y-112490722D02*
X123880010Y-120550010D01*
X125684003Y-122354003D02*
X125703222Y-122354003D01*
X123880010Y-120550010D02*
X125684003Y-122354003D01*
M02*
