M48
; DRILL file {KiCad (5.1.6)-1} date 05/13/21 15:09:34
; FORMAT={-:-/ absolute / metric / decimal}
; #@! TF.CreationDate,2021-05-13T15:09:34+02:00
; #@! TF.GenerationSoftware,Kicad,Pcbnew,(5.1.6)-1
FMAT,2
METRIC
T1C0.202
T2C0.300
T3C0.500
T4C0.650
T5C1.000
T6C1.020
T7C2.700
T8C1.000
T9C1.270
%
G90
G05
T1
X82.666Y-103.85
X83.32Y-103.84
X83.83Y-103.34
X85.2Y-113.8
X89.1Y-126.776
X89.278Y-117.693
X89.9Y-118.6
X90.25Y-95.531
X91.5Y-107.6
X91.61Y-118.75
X91.8Y-101.4
X91.825Y-117.775
X91.95Y-73.63
X92.25Y-108.725
X92.29Y-92.17
X92.61Y-122.89
X92.73Y-105.28
X93.038Y-110.187
X93.125Y-108.7
X93.225Y-128.525
X94.35Y-105.251
X95.99Y-119.33
X96.041Y-97.64
X96.041Y-98.3
X96.09Y-72.28
X96.09Y-72.929
X96.09Y-78.8
X96.09Y-79.449
X96.09Y-91.18
X96.09Y-91.829
X96.43Y-83.87
X96.44Y-87.45
X96.638Y-121.451
X96.638Y-126.7
X96.638Y-129.1
X96.69Y-97.64
X96.69Y-98.3
X96.75Y-72.28
X96.75Y-72.929
X96.75Y-78.8
X96.75Y-79.449
X96.75Y-91.18
X96.75Y-91.829
X96.93Y-73.58
X96.93Y-74.22
X96.93Y-74.88
X96.93Y-75.53
X96.93Y-76.82
X96.93Y-77.48
X96.93Y-78.13
X96.93Y-92.45
X96.93Y-93.1
X96.93Y-93.75
X96.93Y-94.4
X96.93Y-95.7
X96.93Y-96.36
X96.93Y-97.0
X97.29Y-122.97
X98.688Y-108.835
X98.688Y-109.312
X98.688Y-109.812
X98.688Y-110.312
X98.8Y-116.2
X98.851Y-89.149
X98.86Y-88.5
X99.953Y-108.846
X99.953Y-109.346
X99.953Y-109.846
X99.953Y-110.346
X101.0Y-126.7
X101.0Y-129.1
X102.3Y-68.92
X102.7Y-113.2
X104.503Y-96.216
X104.54Y-97.6
X104.63Y-77.46
X104.64Y-78.751
X104.708Y-79.321
X104.77Y-98.14
X104.95Y-85.38
X105.373Y-97.03
X105.53Y-72.9
X105.53Y-73.549
X105.53Y-79.42
X105.53Y-80.069
X105.53Y-91.801
X105.53Y-92.46
X105.53Y-98.3
X105.53Y-98.949
X106.18Y-91.801
X106.19Y-72.9
X106.19Y-73.549
X106.19Y-79.42
X106.19Y-80.069
X106.19Y-92.46
X106.19Y-98.3
X106.19Y-98.949
X106.24Y-85.37
X106.27Y-88.83
X106.51Y-77.74
X107.1Y-111.4
X108.0Y-118.6
X108.74Y-87.04
X108.774Y-84.17
X109.4Y-115.0
X110.2Y-101.856
X111.1Y-105.3
X111.2Y-107.8
X111.7Y-107.8
X111.8Y-111.4
X111.93Y-98.98
X112.0Y-97.9
X112.2Y-107.8
X112.7Y-107.8
X113.2Y-107.8
X114.0Y-95.3
X114.501Y-108.6
X115.0Y-111.6
X115.3Y-104.8
X115.33Y-106.21
X115.4Y-110.04
X117.9Y-105.749
X119.42Y-110.02
X120.48Y-110.7
X120.75Y-102.375
X121.72Y-113.09
X122.25Y-114.3
X122.39Y-113.041
X122.96Y-113.041
X123.41Y-127.73
X123.52Y-102.05
X124.8Y-123.14
X125.09Y-105.14
X125.29Y-122.72
X125.45Y-110.71
X125.45Y-111.262
X125.52Y-103.23
X125.703Y-122.354
X125.803Y-107.54
X126.66Y-105.16
X128.08Y-110.109
X128.27Y-111.252
X128.27Y-112.776
X128.27Y-114.3
X129.058Y-109.372
T2
X76.544Y-71.975
X76.544Y-123.975
X81.094Y-71.975
X81.744Y-67.425
X81.744Y-70.675
X81.744Y-75.875
X81.744Y-90.175
X81.744Y-92.125
X81.744Y-99.275
X81.744Y-129.175
X82.394Y-68.725
X82.394Y-72.625
X82.394Y-97.325
X82.394Y-127.875
X82.6Y-74.8
X82.892Y-85.39
X83.044Y-66.775
X83.044Y-70.025
X83.044Y-77.825
X83.044Y-98.625
X83.694Y-68.075
X83.694Y-71.325
X83.694Y-75.875
X84.344Y-69.375
X84.994Y-66.775
X84.994Y-73.275
X85.644Y-75.875
X85.644Y-80.425
X85.644Y-84.975
X86.294Y-67.425
X86.294Y-77.175
X86.294Y-93.425
X86.944Y-70.675
X86.944Y-90.175
X87.15Y-116.42
X87.594Y-66.775
X87.594Y-75.875
X87.875Y-110.675
X87.875Y-113.25
X87.88Y-116.87
X87.905Y-111.945
X88.244Y-73.275
X88.244Y-77.175
X88.244Y-90.825
X88.894Y-67.425
X88.894Y-70.675
X88.894Y-102.525
X89.544Y-75.875
X89.544Y-77.825
X90.175Y-113.25
X90.18Y-111.995
X90.194Y-66.775
X90.194Y-80.425
X90.194Y-84.975
X90.194Y-89.525
X90.194Y-93.425
X90.2Y-110.7
X90.844Y-76.525
X90.844Y-78.475
X90.844Y-81.725
X90.844Y-83.675
X90.844Y-86.275
X90.844Y-88.225
X90.844Y-90.825
X90.844Y-100.575
X90.844Y-105.775
X91.4Y-116.764
X91.494Y-79.775
X91.494Y-96.025
X92.025Y-115.1
X92.12Y-111.09
X92.144Y-66.775
X92.4Y-116.764
X93.4Y-116.764
X93.444Y-67.425
X93.444Y-69.375
X93.444Y-75.225
X93.444Y-79.125
X93.444Y-81.075
X93.444Y-83.025
X93.444Y-88.225
X93.444Y-90.175
X96.044Y-68.725
X96.044Y-70.675
X96.694Y-88.875
X97.344Y-69.375
X98.644Y-68.725
X98.76Y-113.5
X98.76Y-114.35
X99.294Y-70.025
X100.594Y-106.425
X102.544Y-70.025
X102.544Y-102.525
X102.544Y-106.425
X103.06Y-115.76
X103.194Y-87.575
X103.844Y-107.075
X104.0Y-118.0
X104.494Y-66.775
X104.6Y-70.199
X104.6Y-118.0
X105.2Y-118.0
X105.794Y-67.425
X105.8Y-118.0
X106.444Y-106.425
X106.925Y-69.625
X107.094Y-66.775
X109.044Y-66.775
X110.994Y-66.775
X111.6Y-72.949
X112.2Y-73.6
X112.944Y-66.775
X114.894Y-66.775
X114.894Y-86.925
X114.894Y-88.875
X114.894Y-94.725
X115.544Y-90.175
X115.544Y-118.775
X115.544Y-128.525
X115.825Y-67.825
X116.194Y-87.575
X116.194Y-120.075
X116.844Y-66.775
X116.844Y-72.625
X116.844Y-74.575
X116.844Y-76.525
X116.844Y-88.875
X116.844Y-90.825
X116.844Y-117.475
X116.844Y-127.875
X117.494Y-68.075
X117.494Y-86.925
X117.494Y-129.175
X118.144Y-73.275
X118.144Y-75.225
X118.144Y-88.225
X118.144Y-90.175
X118.794Y-66.775
X118.794Y-76.525
X118.794Y-117.475
X118.794Y-127.875
X119.444Y-68.075
X119.444Y-73.925
X119.444Y-86.925
X119.444Y-88.875
X119.444Y-129.175
X120.0Y-125.72
X120.094Y-75.225
X120.094Y-77.175
X120.094Y-90.175
X120.744Y-66.775
X120.744Y-73.275
X120.744Y-87.575
X120.95Y-114.3
X121.394Y-68.075
X121.394Y-74.575
X121.394Y-76.525
X121.394Y-88.875
X121.82Y-125.34
X122.0Y-72.125
X122.044Y-83.025
X122.044Y-86.925
X122.044Y-90.175
X122.1Y-70.375
X122.5Y-69.625
X122.694Y-66.775
X122.694Y-73.275
X122.694Y-75.225
X122.694Y-77.175
X122.694Y-88.225
X123.344Y-68.075
X123.344Y-81.725
X123.344Y-89.525
X123.495Y-104.88
X123.7Y-125.75
X123.994Y-72.625
X123.994Y-74.575
X123.994Y-76.525
X123.994Y-83.025
X123.994Y-86.925
X123.994Y-129.175
X124.644Y-66.775
X124.644Y-68.725
X124.644Y-81.075
X124.644Y-88.225
X124.644Y-90.175
X124.644Y-94.075
X124.644Y-126.575
X125.294Y-73.275
X125.294Y-75.225
X125.294Y-82.375
X125.294Y-124.625
X125.944Y-76.525
X125.944Y-78.475
X125.944Y-80.425
X125.944Y-86.925
X125.944Y-88.875
X125.944Y-90.825
X125.944Y-92.775
X125.944Y-94.725
X126.594Y-73.925
X126.594Y-83.025
X126.594Y-123.975
X127.244Y-75.225
X127.244Y-77.175
X127.244Y-79.125
X127.244Y-87.575
X127.244Y-89.525
X127.244Y-91.475
X127.244Y-122.025
X127.894Y-72.625
X127.894Y-82.375
X127.894Y-123.325
X128.544Y-75.875
X128.544Y-77.825
X128.544Y-83.675
X128.544Y-86.925
X128.544Y-88.875
X128.544Y-90.825
X128.544Y-92.775
X128.544Y-116.175
X128.544Y-118.125
X128.544Y-120.075
X129.194Y-73.275
X129.194Y-79.125
X129.194Y-81.075
X129.194Y-84.975
X129.194Y-94.075
X129.194Y-121.375
X129.194Y-123.975
X129.844Y-71.975
X129.844Y-74.575
X129.844Y-116.825
X129.844Y-118.775
X129.844Y-122.675
X99.65Y-72.05
X99.65Y-73.83
X99.65Y-75.61
X99.65Y-77.39
X99.65Y-79.17
X99.65Y-80.95
X100.95Y-72.05
X100.95Y-73.83
X100.95Y-75.61
X100.95Y-77.39
X100.95Y-79.17
X100.95Y-80.95
X102.25Y-72.05
X102.25Y-73.83
X102.25Y-75.61
X102.25Y-77.39
X102.25Y-79.17
X102.25Y-80.95
X99.65Y-90.925
X99.65Y-92.705
X99.65Y-94.485
X99.65Y-96.265
X99.65Y-98.045
X99.65Y-99.825
X100.95Y-90.925
X100.95Y-92.705
X100.95Y-94.485
X100.95Y-96.265
X100.95Y-98.045
X100.95Y-99.825
X102.25Y-90.925
X102.25Y-92.705
X102.25Y-94.485
X102.25Y-96.265
X102.25Y-98.045
X102.25Y-99.825
T3
X84.492Y-83.4
X85.742Y-83.4
X86.992Y-83.4
X88.242Y-83.4
X89.492Y-83.4
X84.492Y-87.718
X85.742Y-87.718
X86.992Y-87.718
X88.242Y-87.718
X89.492Y-87.718
X84.492Y-79.082
X85.742Y-79.082
X86.992Y-79.082
X88.242Y-79.082
X89.492Y-79.082
X84.492Y-92.036
X85.742Y-92.036
X86.992Y-92.036
X88.242Y-92.036
X89.492Y-92.036
X84.492Y-96.354
X85.742Y-96.354
X86.992Y-96.354
X88.242Y-96.354
X89.492Y-96.354
X84.492Y-104.99
X85.742Y-104.99
X86.992Y-104.99
X88.242Y-104.99
X89.492Y-104.99
X84.492Y-100.672
X85.742Y-100.672
X86.992Y-100.672
X88.242Y-100.672
X89.492Y-100.672
T4
X128.635Y-102.0
X128.635Y-103.27
X128.63Y-105.73
X128.63Y-107.0
T5
X77.525Y-74.011
X77.525Y-76.551
X77.525Y-79.091
X77.525Y-81.631
X77.525Y-84.171
X77.525Y-86.711
X77.525Y-89.251
X77.525Y-91.791
X77.525Y-94.331
X77.525Y-96.871
X77.525Y-99.411
X77.525Y-101.951
X77.525Y-104.491
X77.525Y-107.031
X77.525Y-109.571
X77.525Y-112.111
X77.525Y-114.651
X77.525Y-117.191
X77.525Y-119.731
X77.525Y-122.271
X80.064Y-74.011
X80.064Y-76.551
X80.064Y-79.091
X80.064Y-81.631
X80.064Y-84.171
X80.064Y-86.711
X80.064Y-89.251
X80.064Y-91.791
X80.064Y-94.331
X80.064Y-96.871
X80.064Y-99.411
X80.064Y-101.951
X80.064Y-104.491
X80.064Y-107.031
X80.064Y-109.571
X80.064Y-112.111
X80.064Y-114.651
X80.064Y-117.191
X80.064Y-119.731
X80.064Y-122.271
X86.856Y-122.8
X86.856Y-125.8
X110.856Y-122.8
X110.856Y-125.8
X86.46Y-68.96
X89.0Y-68.96
X94.856Y-122.8
X94.856Y-125.8
X102.856Y-122.8
X102.856Y-125.8
X122.625Y-97.75
X125.165Y-97.75
X127.705Y-97.75
T6
X115.4Y-78.64
X118.4Y-78.64
X121.4Y-78.64
X124.4Y-78.64
X115.4Y-92.0
X118.4Y-92.0
X121.4Y-92.0
X124.4Y-92.0
T7
X127.8Y-127.15
X78.8Y-69.15
X127.8Y-69.15
X78.8Y-127.15
T8
X83.856Y-121.86
X89.856Y-121.86
X107.856Y-121.86
X113.856Y-121.86
X91.856Y-121.86
X97.856Y-121.86
X99.856Y-121.86
X105.856Y-121.86
T9
X112.4Y-80.6
X127.4Y-80.6
X112.4Y-93.96
X127.4Y-93.96
T0
M30
