G04 #@! TF.GenerationSoftware,KiCad,Pcbnew,(5.1.6)-1*
G04 #@! TF.CreationDate,2021-05-13T15:09:40+02:00*
G04 #@! TF.ProjectId,rysboard,72797362-6f61-4726-942e-6b696361645f,4.2*
G04 #@! TF.SameCoordinates,Original*
G04 #@! TF.FileFunction,Soldermask,Bot*
G04 #@! TF.FilePolarity,Negative*
%FSLAX46Y46*%
G04 Gerber Fmt 4.6, Leading zero omitted, Abs format (unit mm)*
G04 Created by KiCad (PCBNEW (5.1.6)-1) date 2021-05-13 15:09:40*
%MOMM*%
%LPD*%
G01*
G04 APERTURE LIST*
%ADD10C,1.500000*%
%ADD11C,1.000000*%
%ADD12R,0.620000X0.250000*%
%ADD13R,1.300000X2.500000*%
%ADD14O,1.500000X2.020000*%
%ADD15C,1.270000*%
%ADD16C,5.400000*%
%ADD17O,0.800000X1.300000*%
%ADD18O,1.700000X1.700000*%
%ADD19R,1.700000X1.700000*%
%ADD20R,1.050000X0.700000*%
%ADD21R,0.520000X0.700000*%
%ADD22R,3.810000X1.650000*%
%ADD23R,1.020000X0.610000*%
%ADD24R,1.270000X0.610000*%
%ADD25R,3.450000X3.450000*%
%ADD26R,0.800000X0.900000*%
%ADD27R,1.000000X1.000000*%
%ADD28O,1.000000X1.000000*%
%ADD29R,0.610000X1.270000*%
%ADD30R,0.610000X1.020000*%
%ADD31R,1.650000X3.810000*%
%ADD32R,1.050000X0.400000*%
%ADD33R,0.900000X0.800000*%
%ADD34R,0.200000X0.200000*%
G04 APERTURE END LIST*
D10*
X94856000Y-122800000D03*
G36*
G01*
X95606000Y-125300000D02*
X95606000Y-126300000D01*
G75*
G02*
X95356000Y-126550000I-250000J0D01*
G01*
X94356000Y-126550000D01*
G75*
G02*
X94106000Y-126300000I0J250000D01*
G01*
X94106000Y-125300000D01*
G75*
G02*
X94356000Y-125050000I250000J0D01*
G01*
X95356000Y-125050000D01*
G75*
G02*
X95606000Y-125300000I0J-250000D01*
G01*
G37*
D11*
X91856000Y-121860000D03*
X97856000Y-121860000D03*
D12*
X120940000Y-69625000D03*
X120940000Y-70125000D03*
X120940000Y-70625000D03*
X120940000Y-71125000D03*
X120940000Y-71625000D03*
X120940000Y-72125000D03*
X118160000Y-72125000D03*
X118160000Y-71625000D03*
X118160000Y-71125000D03*
X118160000Y-70625000D03*
X118160000Y-70125000D03*
X118160000Y-69625000D03*
D13*
X119550000Y-70875000D03*
D10*
X110856000Y-122800000D03*
G36*
G01*
X111606000Y-125300000D02*
X111606000Y-126300000D01*
G75*
G02*
X111356000Y-126550000I-250000J0D01*
G01*
X110356000Y-126550000D01*
G75*
G02*
X110106000Y-126300000I0J250000D01*
G01*
X110106000Y-125300000D01*
G75*
G02*
X110356000Y-125050000I250000J0D01*
G01*
X111356000Y-125050000D01*
G75*
G02*
X111606000Y-125300000I0J-250000D01*
G01*
G37*
D11*
X107856000Y-121860000D03*
X113856000Y-121860000D03*
D10*
X86856000Y-122800000D03*
G36*
G01*
X87606000Y-125300000D02*
X87606000Y-126300000D01*
G75*
G02*
X87356000Y-126550000I-250000J0D01*
G01*
X86356000Y-126550000D01*
G75*
G02*
X86106000Y-126300000I0J250000D01*
G01*
X86106000Y-125300000D01*
G75*
G02*
X86356000Y-125050000I250000J0D01*
G01*
X87356000Y-125050000D01*
G75*
G02*
X87606000Y-125300000I0J-250000D01*
G01*
G37*
D11*
X83856000Y-121860000D03*
X89856000Y-121860000D03*
D14*
X115400000Y-92000000D03*
X118400000Y-92000000D03*
X121400000Y-92000000D03*
G36*
G01*
X125150000Y-91240000D02*
X125150000Y-92760000D01*
G75*
G02*
X124900000Y-93010000I-250000J0D01*
G01*
X123900000Y-93010000D01*
G75*
G02*
X123650000Y-92760000I0J250000D01*
G01*
X123650000Y-91240000D01*
G75*
G02*
X123900000Y-90990000I250000J0D01*
G01*
X124900000Y-90990000D01*
G75*
G02*
X125150000Y-91240000I0J-250000D01*
G01*
G37*
D15*
X112400000Y-93960000D03*
X127400000Y-93960000D03*
D16*
X127800000Y-127150000D03*
X78800000Y-69150000D03*
X78800000Y-127150000D03*
D14*
X115400000Y-78640000D03*
X118400000Y-78640000D03*
X121400000Y-78640000D03*
G36*
G01*
X125150000Y-77880000D02*
X125150000Y-79400000D01*
G75*
G02*
X124900000Y-79650000I-250000J0D01*
G01*
X123900000Y-79650000D01*
G75*
G02*
X123650000Y-79400000I0J250000D01*
G01*
X123650000Y-77880000D01*
G75*
G02*
X123900000Y-77630000I250000J0D01*
G01*
X124900000Y-77630000D01*
G75*
G02*
X125150000Y-77880000I0J-250000D01*
G01*
G37*
D15*
X112400000Y-80600000D03*
X127400000Y-80600000D03*
D17*
X89492000Y-104990000D03*
X88242000Y-104990000D03*
X86992000Y-104990000D03*
X85742000Y-104990000D03*
G36*
G01*
X84092000Y-105440000D02*
X84092000Y-104540000D01*
G75*
G02*
X84292000Y-104340000I200000J0D01*
G01*
X84692000Y-104340000D01*
G75*
G02*
X84892000Y-104540000I0J-200000D01*
G01*
X84892000Y-105440000D01*
G75*
G02*
X84692000Y-105640000I-200000J0D01*
G01*
X84292000Y-105640000D01*
G75*
G02*
X84092000Y-105440000I0J200000D01*
G01*
G37*
X89492000Y-79082000D03*
X88242000Y-79082000D03*
X86992000Y-79082000D03*
X85742000Y-79082000D03*
G36*
G01*
X84092000Y-79532000D02*
X84092000Y-78632000D01*
G75*
G02*
X84292000Y-78432000I200000J0D01*
G01*
X84692000Y-78432000D01*
G75*
G02*
X84892000Y-78632000I0J-200000D01*
G01*
X84892000Y-79532000D01*
G75*
G02*
X84692000Y-79732000I-200000J0D01*
G01*
X84292000Y-79732000D01*
G75*
G02*
X84092000Y-79532000I0J200000D01*
G01*
G37*
X89492000Y-83400000D03*
X88242000Y-83400000D03*
X86992000Y-83400000D03*
X85742000Y-83400000D03*
G36*
G01*
X84092000Y-83850000D02*
X84092000Y-82950000D01*
G75*
G02*
X84292000Y-82750000I200000J0D01*
G01*
X84692000Y-82750000D01*
G75*
G02*
X84892000Y-82950000I0J-200000D01*
G01*
X84892000Y-83850000D01*
G75*
G02*
X84692000Y-84050000I-200000J0D01*
G01*
X84292000Y-84050000D01*
G75*
G02*
X84092000Y-83850000I0J200000D01*
G01*
G37*
X89492000Y-87718000D03*
X88242000Y-87718000D03*
X86992000Y-87718000D03*
X85742000Y-87718000D03*
G36*
G01*
X84092000Y-88168000D02*
X84092000Y-87268000D01*
G75*
G02*
X84292000Y-87068000I200000J0D01*
G01*
X84692000Y-87068000D01*
G75*
G02*
X84892000Y-87268000I0J-200000D01*
G01*
X84892000Y-88168000D01*
G75*
G02*
X84692000Y-88368000I-200000J0D01*
G01*
X84292000Y-88368000D01*
G75*
G02*
X84092000Y-88168000I0J200000D01*
G01*
G37*
X89492000Y-92036000D03*
X88242000Y-92036000D03*
X86992000Y-92036000D03*
X85742000Y-92036000D03*
G36*
G01*
X84092000Y-92486000D02*
X84092000Y-91586000D01*
G75*
G02*
X84292000Y-91386000I200000J0D01*
G01*
X84692000Y-91386000D01*
G75*
G02*
X84892000Y-91586000I0J-200000D01*
G01*
X84892000Y-92486000D01*
G75*
G02*
X84692000Y-92686000I-200000J0D01*
G01*
X84292000Y-92686000D01*
G75*
G02*
X84092000Y-92486000I0J200000D01*
G01*
G37*
X89492000Y-96354000D03*
X88242000Y-96354000D03*
X86992000Y-96354000D03*
X85742000Y-96354000D03*
G36*
G01*
X84092000Y-96804000D02*
X84092000Y-95904000D01*
G75*
G02*
X84292000Y-95704000I200000J0D01*
G01*
X84692000Y-95704000D01*
G75*
G02*
X84892000Y-95904000I0J-200000D01*
G01*
X84892000Y-96804000D01*
G75*
G02*
X84692000Y-97004000I-200000J0D01*
G01*
X84292000Y-97004000D01*
G75*
G02*
X84092000Y-96804000I0J200000D01*
G01*
G37*
X89492000Y-100672000D03*
X88242000Y-100672000D03*
X86992000Y-100672000D03*
X85742000Y-100672000D03*
G36*
G01*
X84092000Y-101122000D02*
X84092000Y-100222000D01*
G75*
G02*
X84292000Y-100022000I200000J0D01*
G01*
X84692000Y-100022000D01*
G75*
G02*
X84892000Y-100222000I0J-200000D01*
G01*
X84892000Y-101122000D01*
G75*
G02*
X84692000Y-101322000I-200000J0D01*
G01*
X84292000Y-101322000D01*
G75*
G02*
X84092000Y-101122000I0J200000D01*
G01*
G37*
D18*
X77524500Y-74011100D03*
X80064500Y-74011100D03*
X77524500Y-76551100D03*
X80064500Y-76551100D03*
X77524500Y-79091100D03*
X80064500Y-79091100D03*
X77524500Y-81631100D03*
X80064500Y-81631100D03*
X77524500Y-84171100D03*
X80064500Y-84171100D03*
X77524500Y-86711100D03*
X80064500Y-86711100D03*
X77524500Y-89251100D03*
X80064500Y-89251100D03*
X77524500Y-91791100D03*
X80064500Y-91791100D03*
X77524500Y-94331100D03*
X80064500Y-94331100D03*
X77524500Y-96871100D03*
X80064500Y-96871100D03*
X77524500Y-99411100D03*
X80064500Y-99411100D03*
X77524500Y-101951100D03*
X80064500Y-101951100D03*
X77524500Y-104491100D03*
X80064500Y-104491100D03*
X77524500Y-107031100D03*
X80064500Y-107031100D03*
X77524500Y-109571100D03*
X80064500Y-109571100D03*
X77524500Y-112111100D03*
X80064500Y-112111100D03*
X77524500Y-114651100D03*
X80064500Y-114651100D03*
X77524500Y-117191100D03*
X80064500Y-117191100D03*
X77524500Y-119731100D03*
X80064500Y-119731100D03*
X77524500Y-122271100D03*
D19*
X80064500Y-122271100D03*
D16*
X127800000Y-69150000D03*
D10*
X102856000Y-122800000D03*
G36*
G01*
X103606000Y-125300000D02*
X103606000Y-126300000D01*
G75*
G02*
X103356000Y-126550000I-250000J0D01*
G01*
X102356000Y-126550000D01*
G75*
G02*
X102106000Y-126300000I0J250000D01*
G01*
X102106000Y-125300000D01*
G75*
G02*
X102356000Y-125050000I250000J0D01*
G01*
X103356000Y-125050000D01*
G75*
G02*
X103606000Y-125300000I0J-250000D01*
G01*
G37*
D11*
X99856000Y-121860000D03*
X105856000Y-121860000D03*
G36*
G01*
X98725000Y-95545000D02*
X98725000Y-93495000D01*
G75*
G02*
X98975000Y-93245000I250000J0D01*
G01*
X100550000Y-93245000D01*
G75*
G02*
X100800000Y-93495000I0J-250000D01*
G01*
X100800000Y-95545000D01*
G75*
G02*
X100550000Y-95795000I-250000J0D01*
G01*
X98975000Y-95795000D01*
G75*
G02*
X98725000Y-95545000I0J250000D01*
G01*
G37*
G36*
G01*
X92500000Y-95545000D02*
X92500000Y-93495000D01*
G75*
G02*
X92750000Y-93245000I250000J0D01*
G01*
X94325000Y-93245000D01*
G75*
G02*
X94575000Y-93495000I0J-250000D01*
G01*
X94575000Y-95545000D01*
G75*
G02*
X94325000Y-95795000I-250000J0D01*
G01*
X92750000Y-95795000D01*
G75*
G02*
X92500000Y-95545000I0J250000D01*
G01*
G37*
G36*
G01*
X103427500Y-76155000D02*
X103427500Y-78205000D01*
G75*
G02*
X103177500Y-78455000I-250000J0D01*
G01*
X101602500Y-78455000D01*
G75*
G02*
X101352500Y-78205000I0J250000D01*
G01*
X101352500Y-76155000D01*
G75*
G02*
X101602500Y-75905000I250000J0D01*
G01*
X103177500Y-75905000D01*
G75*
G02*
X103427500Y-76155000I0J-250000D01*
G01*
G37*
G36*
G01*
X109652500Y-76155000D02*
X109652500Y-78205000D01*
G75*
G02*
X109402500Y-78455000I-250000J0D01*
G01*
X107827500Y-78455000D01*
G75*
G02*
X107577500Y-78205000I0J250000D01*
G01*
X107577500Y-76155000D01*
G75*
G02*
X107827500Y-75905000I250000J0D01*
G01*
X109402500Y-75905000D01*
G75*
G02*
X109652500Y-76155000I0J-250000D01*
G01*
G37*
G36*
G01*
X103395000Y-93425000D02*
X103395000Y-95475000D01*
G75*
G02*
X103145000Y-95725000I-250000J0D01*
G01*
X101570000Y-95725000D01*
G75*
G02*
X101320000Y-95475000I0J250000D01*
G01*
X101320000Y-93425000D01*
G75*
G02*
X101570000Y-93175000I250000J0D01*
G01*
X103145000Y-93175000D01*
G75*
G02*
X103395000Y-93425000I0J-250000D01*
G01*
G37*
G36*
G01*
X109620000Y-93425000D02*
X109620000Y-95475000D01*
G75*
G02*
X109370000Y-95725000I-250000J0D01*
G01*
X107795000Y-95725000D01*
G75*
G02*
X107545000Y-95475000I0J250000D01*
G01*
X107545000Y-93425000D01*
G75*
G02*
X107795000Y-93175000I250000J0D01*
G01*
X109370000Y-93175000D01*
G75*
G02*
X109620000Y-93425000I0J-250000D01*
G01*
G37*
G36*
G01*
X98695000Y-78265000D02*
X98695000Y-76215000D01*
G75*
G02*
X98945000Y-75965000I250000J0D01*
G01*
X100520000Y-75965000D01*
G75*
G02*
X100770000Y-76215000I0J-250000D01*
G01*
X100770000Y-78265000D01*
G75*
G02*
X100520000Y-78515000I-250000J0D01*
G01*
X98945000Y-78515000D01*
G75*
G02*
X98695000Y-78265000I0J250000D01*
G01*
G37*
G36*
G01*
X92470000Y-78265000D02*
X92470000Y-76215000D01*
G75*
G02*
X92720000Y-75965000I250000J0D01*
G01*
X94295000Y-75965000D01*
G75*
G02*
X94545000Y-76215000I0J-250000D01*
G01*
X94545000Y-78265000D01*
G75*
G02*
X94295000Y-78515000I-250000J0D01*
G01*
X92720000Y-78515000D01*
G75*
G02*
X92470000Y-78265000I0J250000D01*
G01*
G37*
G36*
G01*
X113296250Y-100100000D02*
X112783750Y-100100000D01*
G75*
G02*
X112565000Y-99881250I0J218750D01*
G01*
X112565000Y-99443750D01*
G75*
G02*
X112783750Y-99225000I218750J0D01*
G01*
X113296250Y-99225000D01*
G75*
G02*
X113515000Y-99443750I0J-218750D01*
G01*
X113515000Y-99881250D01*
G75*
G02*
X113296250Y-100100000I-218750J0D01*
G01*
G37*
G36*
G01*
X113296250Y-101675000D02*
X112783750Y-101675000D01*
G75*
G02*
X112565000Y-101456250I0J218750D01*
G01*
X112565000Y-101018750D01*
G75*
G02*
X112783750Y-100800000I218750J0D01*
G01*
X113296250Y-100800000D01*
G75*
G02*
X113515000Y-101018750I0J-218750D01*
G01*
X113515000Y-101456250D01*
G75*
G02*
X113296250Y-101675000I-218750J0D01*
G01*
G37*
G36*
G01*
X119966250Y-100410000D02*
X119453750Y-100410000D01*
G75*
G02*
X119235000Y-100191250I0J218750D01*
G01*
X119235000Y-99753750D01*
G75*
G02*
X119453750Y-99535000I218750J0D01*
G01*
X119966250Y-99535000D01*
G75*
G02*
X120185000Y-99753750I0J-218750D01*
G01*
X120185000Y-100191250D01*
G75*
G02*
X119966250Y-100410000I-218750J0D01*
G01*
G37*
G36*
G01*
X119966250Y-101985000D02*
X119453750Y-101985000D01*
G75*
G02*
X119235000Y-101766250I0J218750D01*
G01*
X119235000Y-101328750D01*
G75*
G02*
X119453750Y-101110000I218750J0D01*
G01*
X119966250Y-101110000D01*
G75*
G02*
X120185000Y-101328750I0J-218750D01*
G01*
X120185000Y-101766250D01*
G75*
G02*
X119966250Y-101985000I-218750J0D01*
G01*
G37*
G36*
G01*
X115568750Y-70175000D02*
X116081250Y-70175000D01*
G75*
G02*
X116300000Y-70393750I0J-218750D01*
G01*
X116300000Y-70831250D01*
G75*
G02*
X116081250Y-71050000I-218750J0D01*
G01*
X115568750Y-71050000D01*
G75*
G02*
X115350000Y-70831250I0J218750D01*
G01*
X115350000Y-70393750D01*
G75*
G02*
X115568750Y-70175000I218750J0D01*
G01*
G37*
G36*
G01*
X115568750Y-68600000D02*
X116081250Y-68600000D01*
G75*
G02*
X116300000Y-68818750I0J-218750D01*
G01*
X116300000Y-69256250D01*
G75*
G02*
X116081250Y-69475000I-218750J0D01*
G01*
X115568750Y-69475000D01*
G75*
G02*
X115350000Y-69256250I0J218750D01*
G01*
X115350000Y-68818750D01*
G75*
G02*
X115568750Y-68600000I218750J0D01*
G01*
G37*
G36*
G01*
X92475000Y-70000000D02*
X92475000Y-71250000D01*
G75*
G02*
X92225000Y-71500000I-250000J0D01*
G01*
X91475000Y-71500000D01*
G75*
G02*
X91225000Y-71250000I0J250000D01*
G01*
X91225000Y-70000000D01*
G75*
G02*
X91475000Y-69750000I250000J0D01*
G01*
X92225000Y-69750000D01*
G75*
G02*
X92475000Y-70000000I0J-250000D01*
G01*
G37*
G36*
G01*
X95275000Y-70000000D02*
X95275000Y-71250000D01*
G75*
G02*
X95025000Y-71500000I-250000J0D01*
G01*
X94275000Y-71500000D01*
G75*
G02*
X94025000Y-71250000I0J250000D01*
G01*
X94025000Y-70000000D01*
G75*
G02*
X94275000Y-69750000I250000J0D01*
G01*
X95025000Y-69750000D01*
G75*
G02*
X95275000Y-70000000I0J-250000D01*
G01*
G37*
G36*
G01*
X98075000Y-81785000D02*
X98075000Y-80535000D01*
G75*
G02*
X98325000Y-80285000I250000J0D01*
G01*
X99075000Y-80285000D01*
G75*
G02*
X99325000Y-80535000I0J-250000D01*
G01*
X99325000Y-81785000D01*
G75*
G02*
X99075000Y-82035000I-250000J0D01*
G01*
X98325000Y-82035000D01*
G75*
G02*
X98075000Y-81785000I0J250000D01*
G01*
G37*
G36*
G01*
X95275000Y-81785000D02*
X95275000Y-80535000D01*
G75*
G02*
X95525000Y-80285000I250000J0D01*
G01*
X96275000Y-80285000D01*
G75*
G02*
X96525000Y-80535000I0J-250000D01*
G01*
X96525000Y-81785000D01*
G75*
G02*
X96275000Y-82035000I-250000J0D01*
G01*
X95525000Y-82035000D01*
G75*
G02*
X95275000Y-81785000I0J250000D01*
G01*
G37*
G36*
G01*
X104085000Y-80685000D02*
X104085000Y-81935000D01*
G75*
G02*
X103835000Y-82185000I-250000J0D01*
G01*
X103085000Y-82185000D01*
G75*
G02*
X102835000Y-81935000I0J250000D01*
G01*
X102835000Y-80685000D01*
G75*
G02*
X103085000Y-80435000I250000J0D01*
G01*
X103835000Y-80435000D01*
G75*
G02*
X104085000Y-80685000I0J-250000D01*
G01*
G37*
G36*
G01*
X106885000Y-80685000D02*
X106885000Y-81935000D01*
G75*
G02*
X106635000Y-82185000I-250000J0D01*
G01*
X105885000Y-82185000D01*
G75*
G02*
X105635000Y-81935000I0J250000D01*
G01*
X105635000Y-80685000D01*
G75*
G02*
X105885000Y-80435000I250000J0D01*
G01*
X106635000Y-80435000D01*
G75*
G02*
X106885000Y-80685000I0J-250000D01*
G01*
G37*
G36*
G01*
X122524000Y-104142250D02*
X122524000Y-103629750D01*
G75*
G02*
X122742750Y-103411000I218750J0D01*
G01*
X123180250Y-103411000D01*
G75*
G02*
X123399000Y-103629750I0J-218750D01*
G01*
X123399000Y-104142250D01*
G75*
G02*
X123180250Y-104361000I-218750J0D01*
G01*
X122742750Y-104361000D01*
G75*
G02*
X122524000Y-104142250I0J218750D01*
G01*
G37*
G36*
G01*
X120949000Y-104142250D02*
X120949000Y-103629750D01*
G75*
G02*
X121167750Y-103411000I218750J0D01*
G01*
X121605250Y-103411000D01*
G75*
G02*
X121824000Y-103629750I0J-218750D01*
G01*
X121824000Y-104142250D01*
G75*
G02*
X121605250Y-104361000I-218750J0D01*
G01*
X121167750Y-104361000D01*
G75*
G02*
X120949000Y-104142250I0J218750D01*
G01*
G37*
G36*
G01*
X124875000Y-95543750D02*
X124875000Y-96056250D01*
G75*
G02*
X124656250Y-96275000I-218750J0D01*
G01*
X124218750Y-96275000D01*
G75*
G02*
X124000000Y-96056250I0J218750D01*
G01*
X124000000Y-95543750D01*
G75*
G02*
X124218750Y-95325000I218750J0D01*
G01*
X124656250Y-95325000D01*
G75*
G02*
X124875000Y-95543750I0J-218750D01*
G01*
G37*
G36*
G01*
X126450000Y-95543750D02*
X126450000Y-96056250D01*
G75*
G02*
X126231250Y-96275000I-218750J0D01*
G01*
X125793750Y-96275000D01*
G75*
G02*
X125575000Y-96056250I0J218750D01*
G01*
X125575000Y-95543750D01*
G75*
G02*
X125793750Y-95325000I218750J0D01*
G01*
X126231250Y-95325000D01*
G75*
G02*
X126450000Y-95543750I0J-218750D01*
G01*
G37*
D20*
X110875000Y-101200000D03*
D21*
X111790000Y-101200000D03*
D18*
X127705000Y-97750000D03*
X125165000Y-97750000D03*
D19*
X122625000Y-97750000D03*
D22*
X111590000Y-68545000D03*
X111590000Y-70805000D03*
D23*
X113695000Y-71580000D03*
X113695000Y-70310000D03*
X113695000Y-69040000D03*
X113695000Y-67770000D03*
D24*
X108230000Y-67770000D03*
X108230000Y-69040000D03*
X108230000Y-70310000D03*
X108230000Y-71580000D03*
G36*
G01*
X91563750Y-124150000D02*
X92076250Y-124150000D01*
G75*
G02*
X92295000Y-124368750I0J-218750D01*
G01*
X92295000Y-124806250D01*
G75*
G02*
X92076250Y-125025000I-218750J0D01*
G01*
X91563750Y-125025000D01*
G75*
G02*
X91345000Y-124806250I0J218750D01*
G01*
X91345000Y-124368750D01*
G75*
G02*
X91563750Y-124150000I218750J0D01*
G01*
G37*
G36*
G01*
X91563750Y-122575000D02*
X92076250Y-122575000D01*
G75*
G02*
X92295000Y-122793750I0J-218750D01*
G01*
X92295000Y-123231250D01*
G75*
G02*
X92076250Y-123450000I-218750J0D01*
G01*
X91563750Y-123450000D01*
G75*
G02*
X91345000Y-123231250I0J218750D01*
G01*
X91345000Y-122793750D01*
G75*
G02*
X91563750Y-122575000I218750J0D01*
G01*
G37*
G36*
G01*
X116830000Y-106723750D02*
X116830000Y-107236250D01*
G75*
G02*
X116611250Y-107455000I-218750J0D01*
G01*
X116173750Y-107455000D01*
G75*
G02*
X115955000Y-107236250I0J218750D01*
G01*
X115955000Y-106723750D01*
G75*
G02*
X116173750Y-106505000I218750J0D01*
G01*
X116611250Y-106505000D01*
G75*
G02*
X116830000Y-106723750I0J-218750D01*
G01*
G37*
G36*
G01*
X118405000Y-106723750D02*
X118405000Y-107236250D01*
G75*
G02*
X118186250Y-107455000I-218750J0D01*
G01*
X117748750Y-107455000D01*
G75*
G02*
X117530000Y-107236250I0J218750D01*
G01*
X117530000Y-106723750D01*
G75*
G02*
X117748750Y-106505000I218750J0D01*
G01*
X118186250Y-106505000D01*
G75*
G02*
X118405000Y-106723750I0J-218750D01*
G01*
G37*
G36*
G01*
X116750000Y-104543750D02*
X116750000Y-105056250D01*
G75*
G02*
X116531250Y-105275000I-218750J0D01*
G01*
X116093750Y-105275000D01*
G75*
G02*
X115875000Y-105056250I0J218750D01*
G01*
X115875000Y-104543750D01*
G75*
G02*
X116093750Y-104325000I218750J0D01*
G01*
X116531250Y-104325000D01*
G75*
G02*
X116750000Y-104543750I0J-218750D01*
G01*
G37*
G36*
G01*
X118325000Y-104543750D02*
X118325000Y-105056250D01*
G75*
G02*
X118106250Y-105275000I-218750J0D01*
G01*
X117668750Y-105275000D01*
G75*
G02*
X117450000Y-105056250I0J218750D01*
G01*
X117450000Y-104543750D01*
G75*
G02*
X117668750Y-104325000I218750J0D01*
G01*
X118106250Y-104325000D01*
G75*
G02*
X118325000Y-104543750I0J-218750D01*
G01*
G37*
G36*
G01*
X117510000Y-108776250D02*
X117510000Y-108263750D01*
G75*
G02*
X117728750Y-108045000I218750J0D01*
G01*
X118166250Y-108045000D01*
G75*
G02*
X118385000Y-108263750I0J-218750D01*
G01*
X118385000Y-108776250D01*
G75*
G02*
X118166250Y-108995000I-218750J0D01*
G01*
X117728750Y-108995000D01*
G75*
G02*
X117510000Y-108776250I0J218750D01*
G01*
G37*
G36*
G01*
X115935000Y-108776250D02*
X115935000Y-108263750D01*
G75*
G02*
X116153750Y-108045000I218750J0D01*
G01*
X116591250Y-108045000D01*
G75*
G02*
X116810000Y-108263750I0J-218750D01*
G01*
X116810000Y-108776250D01*
G75*
G02*
X116591250Y-108995000I-218750J0D01*
G01*
X116153750Y-108995000D01*
G75*
G02*
X115935000Y-108776250I0J218750D01*
G01*
G37*
G36*
G01*
X124453750Y-103487500D02*
X124966250Y-103487500D01*
G75*
G02*
X125185000Y-103706250I0J-218750D01*
G01*
X125185000Y-104143750D01*
G75*
G02*
X124966250Y-104362500I-218750J0D01*
G01*
X124453750Y-104362500D01*
G75*
G02*
X124235000Y-104143750I0J218750D01*
G01*
X124235000Y-103706250D01*
G75*
G02*
X124453750Y-103487500I218750J0D01*
G01*
G37*
G36*
G01*
X124453750Y-101912500D02*
X124966250Y-101912500D01*
G75*
G02*
X125185000Y-102131250I0J-218750D01*
G01*
X125185000Y-102568750D01*
G75*
G02*
X124966250Y-102787500I-218750J0D01*
G01*
X124453750Y-102787500D01*
G75*
G02*
X124235000Y-102568750I0J218750D01*
G01*
X124235000Y-102131250D01*
G75*
G02*
X124453750Y-101912500I218750J0D01*
G01*
G37*
G36*
G01*
X127920000Y-108333750D02*
X127920000Y-108846250D01*
G75*
G02*
X127701250Y-109065000I-218750J0D01*
G01*
X127263750Y-109065000D01*
G75*
G02*
X127045000Y-108846250I0J218750D01*
G01*
X127045000Y-108333750D01*
G75*
G02*
X127263750Y-108115000I218750J0D01*
G01*
X127701250Y-108115000D01*
G75*
G02*
X127920000Y-108333750I0J-218750D01*
G01*
G37*
G36*
G01*
X129495000Y-108333750D02*
X129495000Y-108846250D01*
G75*
G02*
X129276250Y-109065000I-218750J0D01*
G01*
X128838750Y-109065000D01*
G75*
G02*
X128620000Y-108846250I0J218750D01*
G01*
X128620000Y-108333750D01*
G75*
G02*
X128838750Y-108115000I218750J0D01*
G01*
X129276250Y-108115000D01*
G75*
G02*
X129495000Y-108333750I0J-218750D01*
G01*
G37*
G36*
G01*
X126494250Y-102774000D02*
X125981750Y-102774000D01*
G75*
G02*
X125763000Y-102555250I0J218750D01*
G01*
X125763000Y-102117750D01*
G75*
G02*
X125981750Y-101899000I218750J0D01*
G01*
X126494250Y-101899000D01*
G75*
G02*
X126713000Y-102117750I0J-218750D01*
G01*
X126713000Y-102555250D01*
G75*
G02*
X126494250Y-102774000I-218750J0D01*
G01*
G37*
G36*
G01*
X126494250Y-104349000D02*
X125981750Y-104349000D01*
G75*
G02*
X125763000Y-104130250I0J218750D01*
G01*
X125763000Y-103692750D01*
G75*
G02*
X125981750Y-103474000I218750J0D01*
G01*
X126494250Y-103474000D01*
G75*
G02*
X126713000Y-103692750I0J-218750D01*
G01*
X126713000Y-104130250D01*
G75*
G02*
X126494250Y-104349000I-218750J0D01*
G01*
G37*
G36*
G01*
X128610000Y-111916250D02*
X128610000Y-111403750D01*
G75*
G02*
X128828750Y-111185000I218750J0D01*
G01*
X129266250Y-111185000D01*
G75*
G02*
X129485000Y-111403750I0J-218750D01*
G01*
X129485000Y-111916250D01*
G75*
G02*
X129266250Y-112135000I-218750J0D01*
G01*
X128828750Y-112135000D01*
G75*
G02*
X128610000Y-111916250I0J218750D01*
G01*
G37*
G36*
G01*
X127035000Y-111916250D02*
X127035000Y-111403750D01*
G75*
G02*
X127253750Y-111185000I218750J0D01*
G01*
X127691250Y-111185000D01*
G75*
G02*
X127910000Y-111403750I0J-218750D01*
G01*
X127910000Y-111916250D01*
G75*
G02*
X127691250Y-112135000I-218750J0D01*
G01*
X127253750Y-112135000D01*
G75*
G02*
X127035000Y-111916250I0J218750D01*
G01*
G37*
G36*
G01*
X117520000Y-111846250D02*
X117520000Y-111333750D01*
G75*
G02*
X117738750Y-111115000I218750J0D01*
G01*
X118176250Y-111115000D01*
G75*
G02*
X118395000Y-111333750I0J-218750D01*
G01*
X118395000Y-111846250D01*
G75*
G02*
X118176250Y-112065000I-218750J0D01*
G01*
X117738750Y-112065000D01*
G75*
G02*
X117520000Y-111846250I0J218750D01*
G01*
G37*
G36*
G01*
X115945000Y-111846250D02*
X115945000Y-111333750D01*
G75*
G02*
X116163750Y-111115000I218750J0D01*
G01*
X116601250Y-111115000D01*
G75*
G02*
X116820000Y-111333750I0J-218750D01*
G01*
X116820000Y-111846250D01*
G75*
G02*
X116601250Y-112065000I-218750J0D01*
G01*
X116163750Y-112065000D01*
G75*
G02*
X115945000Y-111846250I0J218750D01*
G01*
G37*
G36*
G01*
X128620000Y-113446250D02*
X128620000Y-112933750D01*
G75*
G02*
X128838750Y-112715000I218750J0D01*
G01*
X129276250Y-112715000D01*
G75*
G02*
X129495000Y-112933750I0J-218750D01*
G01*
X129495000Y-113446250D01*
G75*
G02*
X129276250Y-113665000I-218750J0D01*
G01*
X128838750Y-113665000D01*
G75*
G02*
X128620000Y-113446250I0J218750D01*
G01*
G37*
G36*
G01*
X127045000Y-113446250D02*
X127045000Y-112933750D01*
G75*
G02*
X127263750Y-112715000I218750J0D01*
G01*
X127701250Y-112715000D01*
G75*
G02*
X127920000Y-112933750I0J-218750D01*
G01*
X127920000Y-113446250D01*
G75*
G02*
X127701250Y-113665000I-218750J0D01*
G01*
X127263750Y-113665000D01*
G75*
G02*
X127045000Y-113446250I0J218750D01*
G01*
G37*
G36*
G01*
X128630000Y-114966250D02*
X128630000Y-114453750D01*
G75*
G02*
X128848750Y-114235000I218750J0D01*
G01*
X129286250Y-114235000D01*
G75*
G02*
X129505000Y-114453750I0J-218750D01*
G01*
X129505000Y-114966250D01*
G75*
G02*
X129286250Y-115185000I-218750J0D01*
G01*
X128848750Y-115185000D01*
G75*
G02*
X128630000Y-114966250I0J218750D01*
G01*
G37*
G36*
G01*
X127055000Y-114966250D02*
X127055000Y-114453750D01*
G75*
G02*
X127273750Y-114235000I218750J0D01*
G01*
X127711250Y-114235000D01*
G75*
G02*
X127930000Y-114453750I0J-218750D01*
G01*
X127930000Y-114966250D01*
G75*
G02*
X127711250Y-115185000I-218750J0D01*
G01*
X127273750Y-115185000D01*
G75*
G02*
X127055000Y-114966250I0J218750D01*
G01*
G37*
G36*
G01*
X117510000Y-110296250D02*
X117510000Y-109783750D01*
G75*
G02*
X117728750Y-109565000I218750J0D01*
G01*
X118166250Y-109565000D01*
G75*
G02*
X118385000Y-109783750I0J-218750D01*
G01*
X118385000Y-110296250D01*
G75*
G02*
X118166250Y-110515000I-218750J0D01*
G01*
X117728750Y-110515000D01*
G75*
G02*
X117510000Y-110296250I0J218750D01*
G01*
G37*
G36*
G01*
X115935000Y-110296250D02*
X115935000Y-109783750D01*
G75*
G02*
X116153750Y-109565000I218750J0D01*
G01*
X116591250Y-109565000D01*
G75*
G02*
X116810000Y-109783750I0J-218750D01*
G01*
X116810000Y-110296250D01*
G75*
G02*
X116591250Y-110515000I-218750J0D01*
G01*
X116153750Y-110515000D01*
G75*
G02*
X115935000Y-110296250I0J218750D01*
G01*
G37*
G36*
G01*
X122066250Y-123390000D02*
X121553750Y-123390000D01*
G75*
G02*
X121335000Y-123171250I0J218750D01*
G01*
X121335000Y-122733750D01*
G75*
G02*
X121553750Y-122515000I218750J0D01*
G01*
X122066250Y-122515000D01*
G75*
G02*
X122285000Y-122733750I0J-218750D01*
G01*
X122285000Y-123171250D01*
G75*
G02*
X122066250Y-123390000I-218750J0D01*
G01*
G37*
G36*
G01*
X122066250Y-124965000D02*
X121553750Y-124965000D01*
G75*
G02*
X121335000Y-124746250I0J218750D01*
G01*
X121335000Y-124308750D01*
G75*
G02*
X121553750Y-124090000I218750J0D01*
G01*
X122066250Y-124090000D01*
G75*
G02*
X122285000Y-124308750I0J-218750D01*
G01*
X122285000Y-124746250D01*
G75*
G02*
X122066250Y-124965000I-218750J0D01*
G01*
G37*
G36*
G01*
X123596250Y-123390000D02*
X123083750Y-123390000D01*
G75*
G02*
X122865000Y-123171250I0J218750D01*
G01*
X122865000Y-122733750D01*
G75*
G02*
X123083750Y-122515000I218750J0D01*
G01*
X123596250Y-122515000D01*
G75*
G02*
X123815000Y-122733750I0J-218750D01*
G01*
X123815000Y-123171250D01*
G75*
G02*
X123596250Y-123390000I-218750J0D01*
G01*
G37*
G36*
G01*
X123596250Y-124965000D02*
X123083750Y-124965000D01*
G75*
G02*
X122865000Y-124746250I0J218750D01*
G01*
X122865000Y-124308750D01*
G75*
G02*
X123083750Y-124090000I218750J0D01*
G01*
X123596250Y-124090000D01*
G75*
G02*
X123815000Y-124308750I0J-218750D01*
G01*
X123815000Y-124746250D01*
G75*
G02*
X123596250Y-124965000I-218750J0D01*
G01*
G37*
G36*
G01*
X120536250Y-123400000D02*
X120023750Y-123400000D01*
G75*
G02*
X119805000Y-123181250I0J218750D01*
G01*
X119805000Y-122743750D01*
G75*
G02*
X120023750Y-122525000I218750J0D01*
G01*
X120536250Y-122525000D01*
G75*
G02*
X120755000Y-122743750I0J-218750D01*
G01*
X120755000Y-123181250D01*
G75*
G02*
X120536250Y-123400000I-218750J0D01*
G01*
G37*
G36*
G01*
X120536250Y-124975000D02*
X120023750Y-124975000D01*
G75*
G02*
X119805000Y-124756250I0J218750D01*
G01*
X119805000Y-124318750D01*
G75*
G02*
X120023750Y-124100000I218750J0D01*
G01*
X120536250Y-124100000D01*
G75*
G02*
X120755000Y-124318750I0J-218750D01*
G01*
X120755000Y-124756250D01*
G75*
G02*
X120536250Y-124975000I-218750J0D01*
G01*
G37*
D25*
X122720000Y-108270000D03*
G36*
G01*
X119907500Y-106395000D02*
X120657500Y-106395000D01*
G75*
G02*
X120720000Y-106457500I0J-62500D01*
G01*
X120720000Y-106582500D01*
G75*
G02*
X120657500Y-106645000I-62500J0D01*
G01*
X119907500Y-106645000D01*
G75*
G02*
X119845000Y-106582500I0J62500D01*
G01*
X119845000Y-106457500D01*
G75*
G02*
X119907500Y-106395000I62500J0D01*
G01*
G37*
G36*
G01*
X119907500Y-106895000D02*
X120657500Y-106895000D01*
G75*
G02*
X120720000Y-106957500I0J-62500D01*
G01*
X120720000Y-107082500D01*
G75*
G02*
X120657500Y-107145000I-62500J0D01*
G01*
X119907500Y-107145000D01*
G75*
G02*
X119845000Y-107082500I0J62500D01*
G01*
X119845000Y-106957500D01*
G75*
G02*
X119907500Y-106895000I62500J0D01*
G01*
G37*
G36*
G01*
X119907500Y-107395000D02*
X120657500Y-107395000D01*
G75*
G02*
X120720000Y-107457500I0J-62500D01*
G01*
X120720000Y-107582500D01*
G75*
G02*
X120657500Y-107645000I-62500J0D01*
G01*
X119907500Y-107645000D01*
G75*
G02*
X119845000Y-107582500I0J62500D01*
G01*
X119845000Y-107457500D01*
G75*
G02*
X119907500Y-107395000I62500J0D01*
G01*
G37*
G36*
G01*
X119907500Y-107895000D02*
X120657500Y-107895000D01*
G75*
G02*
X120720000Y-107957500I0J-62500D01*
G01*
X120720000Y-108082500D01*
G75*
G02*
X120657500Y-108145000I-62500J0D01*
G01*
X119907500Y-108145000D01*
G75*
G02*
X119845000Y-108082500I0J62500D01*
G01*
X119845000Y-107957500D01*
G75*
G02*
X119907500Y-107895000I62500J0D01*
G01*
G37*
G36*
G01*
X119907500Y-108395000D02*
X120657500Y-108395000D01*
G75*
G02*
X120720000Y-108457500I0J-62500D01*
G01*
X120720000Y-108582500D01*
G75*
G02*
X120657500Y-108645000I-62500J0D01*
G01*
X119907500Y-108645000D01*
G75*
G02*
X119845000Y-108582500I0J62500D01*
G01*
X119845000Y-108457500D01*
G75*
G02*
X119907500Y-108395000I62500J0D01*
G01*
G37*
G36*
G01*
X119907500Y-108895000D02*
X120657500Y-108895000D01*
G75*
G02*
X120720000Y-108957500I0J-62500D01*
G01*
X120720000Y-109082500D01*
G75*
G02*
X120657500Y-109145000I-62500J0D01*
G01*
X119907500Y-109145000D01*
G75*
G02*
X119845000Y-109082500I0J62500D01*
G01*
X119845000Y-108957500D01*
G75*
G02*
X119907500Y-108895000I62500J0D01*
G01*
G37*
G36*
G01*
X119907500Y-109395000D02*
X120657500Y-109395000D01*
G75*
G02*
X120720000Y-109457500I0J-62500D01*
G01*
X120720000Y-109582500D01*
G75*
G02*
X120657500Y-109645000I-62500J0D01*
G01*
X119907500Y-109645000D01*
G75*
G02*
X119845000Y-109582500I0J62500D01*
G01*
X119845000Y-109457500D01*
G75*
G02*
X119907500Y-109395000I62500J0D01*
G01*
G37*
G36*
G01*
X119907500Y-109895000D02*
X120657500Y-109895000D01*
G75*
G02*
X120720000Y-109957500I0J-62500D01*
G01*
X120720000Y-110082500D01*
G75*
G02*
X120657500Y-110145000I-62500J0D01*
G01*
X119907500Y-110145000D01*
G75*
G02*
X119845000Y-110082500I0J62500D01*
G01*
X119845000Y-109957500D01*
G75*
G02*
X119907500Y-109895000I62500J0D01*
G01*
G37*
G36*
G01*
X120907500Y-110270000D02*
X121032500Y-110270000D01*
G75*
G02*
X121095000Y-110332500I0J-62500D01*
G01*
X121095000Y-111082500D01*
G75*
G02*
X121032500Y-111145000I-62500J0D01*
G01*
X120907500Y-111145000D01*
G75*
G02*
X120845000Y-111082500I0J62500D01*
G01*
X120845000Y-110332500D01*
G75*
G02*
X120907500Y-110270000I62500J0D01*
G01*
G37*
G36*
G01*
X121407500Y-110270000D02*
X121532500Y-110270000D01*
G75*
G02*
X121595000Y-110332500I0J-62500D01*
G01*
X121595000Y-111082500D01*
G75*
G02*
X121532500Y-111145000I-62500J0D01*
G01*
X121407500Y-111145000D01*
G75*
G02*
X121345000Y-111082500I0J62500D01*
G01*
X121345000Y-110332500D01*
G75*
G02*
X121407500Y-110270000I62500J0D01*
G01*
G37*
G36*
G01*
X121907500Y-110270000D02*
X122032500Y-110270000D01*
G75*
G02*
X122095000Y-110332500I0J-62500D01*
G01*
X122095000Y-111082500D01*
G75*
G02*
X122032500Y-111145000I-62500J0D01*
G01*
X121907500Y-111145000D01*
G75*
G02*
X121845000Y-111082500I0J62500D01*
G01*
X121845000Y-110332500D01*
G75*
G02*
X121907500Y-110270000I62500J0D01*
G01*
G37*
G36*
G01*
X122407500Y-110270000D02*
X122532500Y-110270000D01*
G75*
G02*
X122595000Y-110332500I0J-62500D01*
G01*
X122595000Y-111082500D01*
G75*
G02*
X122532500Y-111145000I-62500J0D01*
G01*
X122407500Y-111145000D01*
G75*
G02*
X122345000Y-111082500I0J62500D01*
G01*
X122345000Y-110332500D01*
G75*
G02*
X122407500Y-110270000I62500J0D01*
G01*
G37*
G36*
G01*
X122907500Y-110270000D02*
X123032500Y-110270000D01*
G75*
G02*
X123095000Y-110332500I0J-62500D01*
G01*
X123095000Y-111082500D01*
G75*
G02*
X123032500Y-111145000I-62500J0D01*
G01*
X122907500Y-111145000D01*
G75*
G02*
X122845000Y-111082500I0J62500D01*
G01*
X122845000Y-110332500D01*
G75*
G02*
X122907500Y-110270000I62500J0D01*
G01*
G37*
G36*
G01*
X123407500Y-110270000D02*
X123532500Y-110270000D01*
G75*
G02*
X123595000Y-110332500I0J-62500D01*
G01*
X123595000Y-111082500D01*
G75*
G02*
X123532500Y-111145000I-62500J0D01*
G01*
X123407500Y-111145000D01*
G75*
G02*
X123345000Y-111082500I0J62500D01*
G01*
X123345000Y-110332500D01*
G75*
G02*
X123407500Y-110270000I62500J0D01*
G01*
G37*
G36*
G01*
X123907500Y-110270000D02*
X124032500Y-110270000D01*
G75*
G02*
X124095000Y-110332500I0J-62500D01*
G01*
X124095000Y-111082500D01*
G75*
G02*
X124032500Y-111145000I-62500J0D01*
G01*
X123907500Y-111145000D01*
G75*
G02*
X123845000Y-111082500I0J62500D01*
G01*
X123845000Y-110332500D01*
G75*
G02*
X123907500Y-110270000I62500J0D01*
G01*
G37*
G36*
G01*
X124407500Y-110270000D02*
X124532500Y-110270000D01*
G75*
G02*
X124595000Y-110332500I0J-62500D01*
G01*
X124595000Y-111082500D01*
G75*
G02*
X124532500Y-111145000I-62500J0D01*
G01*
X124407500Y-111145000D01*
G75*
G02*
X124345000Y-111082500I0J62500D01*
G01*
X124345000Y-110332500D01*
G75*
G02*
X124407500Y-110270000I62500J0D01*
G01*
G37*
G36*
G01*
X124782500Y-109895000D02*
X125532500Y-109895000D01*
G75*
G02*
X125595000Y-109957500I0J-62500D01*
G01*
X125595000Y-110082500D01*
G75*
G02*
X125532500Y-110145000I-62500J0D01*
G01*
X124782500Y-110145000D01*
G75*
G02*
X124720000Y-110082500I0J62500D01*
G01*
X124720000Y-109957500D01*
G75*
G02*
X124782500Y-109895000I62500J0D01*
G01*
G37*
G36*
G01*
X124782500Y-109395000D02*
X125532500Y-109395000D01*
G75*
G02*
X125595000Y-109457500I0J-62500D01*
G01*
X125595000Y-109582500D01*
G75*
G02*
X125532500Y-109645000I-62500J0D01*
G01*
X124782500Y-109645000D01*
G75*
G02*
X124720000Y-109582500I0J62500D01*
G01*
X124720000Y-109457500D01*
G75*
G02*
X124782500Y-109395000I62500J0D01*
G01*
G37*
G36*
G01*
X124782500Y-108895000D02*
X125532500Y-108895000D01*
G75*
G02*
X125595000Y-108957500I0J-62500D01*
G01*
X125595000Y-109082500D01*
G75*
G02*
X125532500Y-109145000I-62500J0D01*
G01*
X124782500Y-109145000D01*
G75*
G02*
X124720000Y-109082500I0J62500D01*
G01*
X124720000Y-108957500D01*
G75*
G02*
X124782500Y-108895000I62500J0D01*
G01*
G37*
G36*
G01*
X124782500Y-108395000D02*
X125532500Y-108395000D01*
G75*
G02*
X125595000Y-108457500I0J-62500D01*
G01*
X125595000Y-108582500D01*
G75*
G02*
X125532500Y-108645000I-62500J0D01*
G01*
X124782500Y-108645000D01*
G75*
G02*
X124720000Y-108582500I0J62500D01*
G01*
X124720000Y-108457500D01*
G75*
G02*
X124782500Y-108395000I62500J0D01*
G01*
G37*
G36*
G01*
X124782500Y-107895000D02*
X125532500Y-107895000D01*
G75*
G02*
X125595000Y-107957500I0J-62500D01*
G01*
X125595000Y-108082500D01*
G75*
G02*
X125532500Y-108145000I-62500J0D01*
G01*
X124782500Y-108145000D01*
G75*
G02*
X124720000Y-108082500I0J62500D01*
G01*
X124720000Y-107957500D01*
G75*
G02*
X124782500Y-107895000I62500J0D01*
G01*
G37*
G36*
G01*
X124782500Y-107395000D02*
X125532500Y-107395000D01*
G75*
G02*
X125595000Y-107457500I0J-62500D01*
G01*
X125595000Y-107582500D01*
G75*
G02*
X125532500Y-107645000I-62500J0D01*
G01*
X124782500Y-107645000D01*
G75*
G02*
X124720000Y-107582500I0J62500D01*
G01*
X124720000Y-107457500D01*
G75*
G02*
X124782500Y-107395000I62500J0D01*
G01*
G37*
G36*
G01*
X124782500Y-106895000D02*
X125532500Y-106895000D01*
G75*
G02*
X125595000Y-106957500I0J-62500D01*
G01*
X125595000Y-107082500D01*
G75*
G02*
X125532500Y-107145000I-62500J0D01*
G01*
X124782500Y-107145000D01*
G75*
G02*
X124720000Y-107082500I0J62500D01*
G01*
X124720000Y-106957500D01*
G75*
G02*
X124782500Y-106895000I62500J0D01*
G01*
G37*
G36*
G01*
X124782500Y-106395000D02*
X125532500Y-106395000D01*
G75*
G02*
X125595000Y-106457500I0J-62500D01*
G01*
X125595000Y-106582500D01*
G75*
G02*
X125532500Y-106645000I-62500J0D01*
G01*
X124782500Y-106645000D01*
G75*
G02*
X124720000Y-106582500I0J62500D01*
G01*
X124720000Y-106457500D01*
G75*
G02*
X124782500Y-106395000I62500J0D01*
G01*
G37*
G36*
G01*
X124407500Y-105395000D02*
X124532500Y-105395000D01*
G75*
G02*
X124595000Y-105457500I0J-62500D01*
G01*
X124595000Y-106207500D01*
G75*
G02*
X124532500Y-106270000I-62500J0D01*
G01*
X124407500Y-106270000D01*
G75*
G02*
X124345000Y-106207500I0J62500D01*
G01*
X124345000Y-105457500D01*
G75*
G02*
X124407500Y-105395000I62500J0D01*
G01*
G37*
G36*
G01*
X123907500Y-105395000D02*
X124032500Y-105395000D01*
G75*
G02*
X124095000Y-105457500I0J-62500D01*
G01*
X124095000Y-106207500D01*
G75*
G02*
X124032500Y-106270000I-62500J0D01*
G01*
X123907500Y-106270000D01*
G75*
G02*
X123845000Y-106207500I0J62500D01*
G01*
X123845000Y-105457500D01*
G75*
G02*
X123907500Y-105395000I62500J0D01*
G01*
G37*
G36*
G01*
X123407500Y-105395000D02*
X123532500Y-105395000D01*
G75*
G02*
X123595000Y-105457500I0J-62500D01*
G01*
X123595000Y-106207500D01*
G75*
G02*
X123532500Y-106270000I-62500J0D01*
G01*
X123407500Y-106270000D01*
G75*
G02*
X123345000Y-106207500I0J62500D01*
G01*
X123345000Y-105457500D01*
G75*
G02*
X123407500Y-105395000I62500J0D01*
G01*
G37*
G36*
G01*
X122907500Y-105395000D02*
X123032500Y-105395000D01*
G75*
G02*
X123095000Y-105457500I0J-62500D01*
G01*
X123095000Y-106207500D01*
G75*
G02*
X123032500Y-106270000I-62500J0D01*
G01*
X122907500Y-106270000D01*
G75*
G02*
X122845000Y-106207500I0J62500D01*
G01*
X122845000Y-105457500D01*
G75*
G02*
X122907500Y-105395000I62500J0D01*
G01*
G37*
G36*
G01*
X122407500Y-105395000D02*
X122532500Y-105395000D01*
G75*
G02*
X122595000Y-105457500I0J-62500D01*
G01*
X122595000Y-106207500D01*
G75*
G02*
X122532500Y-106270000I-62500J0D01*
G01*
X122407500Y-106270000D01*
G75*
G02*
X122345000Y-106207500I0J62500D01*
G01*
X122345000Y-105457500D01*
G75*
G02*
X122407500Y-105395000I62500J0D01*
G01*
G37*
G36*
G01*
X121907500Y-105395000D02*
X122032500Y-105395000D01*
G75*
G02*
X122095000Y-105457500I0J-62500D01*
G01*
X122095000Y-106207500D01*
G75*
G02*
X122032500Y-106270000I-62500J0D01*
G01*
X121907500Y-106270000D01*
G75*
G02*
X121845000Y-106207500I0J62500D01*
G01*
X121845000Y-105457500D01*
G75*
G02*
X121907500Y-105395000I62500J0D01*
G01*
G37*
G36*
G01*
X121407500Y-105395000D02*
X121532500Y-105395000D01*
G75*
G02*
X121595000Y-105457500I0J-62500D01*
G01*
X121595000Y-106207500D01*
G75*
G02*
X121532500Y-106270000I-62500J0D01*
G01*
X121407500Y-106270000D01*
G75*
G02*
X121345000Y-106207500I0J62500D01*
G01*
X121345000Y-105457500D01*
G75*
G02*
X121407500Y-105395000I62500J0D01*
G01*
G37*
G36*
G01*
X120907500Y-105395000D02*
X121032500Y-105395000D01*
G75*
G02*
X121095000Y-105457500I0J-62500D01*
G01*
X121095000Y-106207500D01*
G75*
G02*
X121032500Y-106270000I-62500J0D01*
G01*
X120907500Y-106270000D01*
G75*
G02*
X120845000Y-106207500I0J62500D01*
G01*
X120845000Y-105457500D01*
G75*
G02*
X120907500Y-105395000I62500J0D01*
G01*
G37*
G36*
G01*
X103275000Y-105355001D02*
X103275000Y-102504999D01*
G75*
G02*
X103524999Y-102255000I249999J0D01*
G01*
X104375001Y-102255000D01*
G75*
G02*
X104625000Y-102504999I0J-249999D01*
G01*
X104625000Y-105355001D01*
G75*
G02*
X104375001Y-105605000I-249999J0D01*
G01*
X103524999Y-105605000D01*
G75*
G02*
X103275000Y-105355001I0J249999D01*
G01*
G37*
G36*
G01*
X97475000Y-105355001D02*
X97475000Y-102504999D01*
G75*
G02*
X97724999Y-102255000I249999J0D01*
G01*
X98575001Y-102255000D01*
G75*
G02*
X98825000Y-102504999I0J-249999D01*
G01*
X98825000Y-105355001D01*
G75*
G02*
X98575001Y-105605000I-249999J0D01*
G01*
X97724999Y-105605000D01*
G75*
G02*
X97475000Y-105355001I0J249999D01*
G01*
G37*
D18*
X89000000Y-68960000D03*
D19*
X86460000Y-68960000D03*
G36*
G01*
X127920000Y-109863750D02*
X127920000Y-110376250D01*
G75*
G02*
X127701250Y-110595000I-218750J0D01*
G01*
X127263750Y-110595000D01*
G75*
G02*
X127045000Y-110376250I0J218750D01*
G01*
X127045000Y-109863750D01*
G75*
G02*
X127263750Y-109645000I218750J0D01*
G01*
X127701250Y-109645000D01*
G75*
G02*
X127920000Y-109863750I0J-218750D01*
G01*
G37*
G36*
G01*
X129495000Y-109863750D02*
X129495000Y-110376250D01*
G75*
G02*
X129276250Y-110595000I-218750J0D01*
G01*
X128838750Y-110595000D01*
G75*
G02*
X128620000Y-110376250I0J218750D01*
G01*
X128620000Y-109863750D01*
G75*
G02*
X128838750Y-109645000I218750J0D01*
G01*
X129276250Y-109645000D01*
G75*
G02*
X129495000Y-109863750I0J-218750D01*
G01*
G37*
G36*
G01*
X100529999Y-70390000D02*
X101430001Y-70390000D01*
G75*
G02*
X101680000Y-70639999I0J-249999D01*
G01*
X101680000Y-71290001D01*
G75*
G02*
X101430001Y-71540000I-249999J0D01*
G01*
X100529999Y-71540000D01*
G75*
G02*
X100280000Y-71290001I0J249999D01*
G01*
X100280000Y-70639999D01*
G75*
G02*
X100529999Y-70390000I249999J0D01*
G01*
G37*
G36*
G01*
X100529999Y-68340000D02*
X101430001Y-68340000D01*
G75*
G02*
X101680000Y-68589999I0J-249999D01*
G01*
X101680000Y-69240001D01*
G75*
G02*
X101430001Y-69490000I-249999J0D01*
G01*
X100529999Y-69490000D01*
G75*
G02*
X100280000Y-69240001I0J249999D01*
G01*
X100280000Y-68589999D01*
G75*
G02*
X100529999Y-68340000I249999J0D01*
G01*
G37*
D26*
X115430000Y-100040000D03*
X117330000Y-100040000D03*
X116380000Y-102040000D03*
G36*
G01*
X95250000Y-67650000D02*
X95250000Y-68900000D01*
G75*
G02*
X95000000Y-69150000I-250000J0D01*
G01*
X94250000Y-69150000D01*
G75*
G02*
X94000000Y-68900000I0J250000D01*
G01*
X94000000Y-67650000D01*
G75*
G02*
X94250000Y-67400000I250000J0D01*
G01*
X95000000Y-67400000D01*
G75*
G02*
X95250000Y-67650000I0J-250000D01*
G01*
G37*
G36*
G01*
X92450000Y-67650000D02*
X92450000Y-68900000D01*
G75*
G02*
X92200000Y-69150000I-250000J0D01*
G01*
X91450000Y-69150000D01*
G75*
G02*
X91200000Y-68900000I0J250000D01*
G01*
X91200000Y-67650000D01*
G75*
G02*
X91450000Y-67400000I250000J0D01*
G01*
X92200000Y-67400000D01*
G75*
G02*
X92450000Y-67650000I0J-250000D01*
G01*
G37*
D27*
X128635001Y-102000000D03*
D28*
X128635001Y-103270000D03*
X128630000Y-105730000D03*
D27*
X128630000Y-107000000D03*
D29*
X90955000Y-115320000D03*
X89685000Y-115320000D03*
X88415000Y-115320000D03*
X87145000Y-115320000D03*
D30*
X87145000Y-109855000D03*
X88415000Y-109855000D03*
X89685000Y-109855000D03*
X90955000Y-109855000D03*
D31*
X90180000Y-111960000D03*
X87920000Y-111960000D03*
D26*
X111250000Y-104400000D03*
X113150000Y-104400000D03*
X112200000Y-106400000D03*
G36*
G01*
X91895000Y-119343750D02*
X91895000Y-119856250D01*
G75*
G02*
X91676250Y-120075000I-218750J0D01*
G01*
X91238750Y-120075000D01*
G75*
G02*
X91020000Y-119856250I0J218750D01*
G01*
X91020000Y-119343750D01*
G75*
G02*
X91238750Y-119125000I218750J0D01*
G01*
X91676250Y-119125000D01*
G75*
G02*
X91895000Y-119343750I0J-218750D01*
G01*
G37*
G36*
G01*
X90320000Y-119343750D02*
X90320000Y-119856250D01*
G75*
G02*
X90101250Y-120075000I-218750J0D01*
G01*
X89663750Y-120075000D01*
G75*
G02*
X89445000Y-119856250I0J218750D01*
G01*
X89445000Y-119343750D01*
G75*
G02*
X89663750Y-119125000I218750J0D01*
G01*
X90101250Y-119125000D01*
G75*
G02*
X90320000Y-119343750I0J-218750D01*
G01*
G37*
G36*
G01*
X99573750Y-124120000D02*
X100086250Y-124120000D01*
G75*
G02*
X100305000Y-124338750I0J-218750D01*
G01*
X100305000Y-124776250D01*
G75*
G02*
X100086250Y-124995000I-218750J0D01*
G01*
X99573750Y-124995000D01*
G75*
G02*
X99355000Y-124776250I0J218750D01*
G01*
X99355000Y-124338750D01*
G75*
G02*
X99573750Y-124120000I218750J0D01*
G01*
G37*
G36*
G01*
X99573750Y-122545000D02*
X100086250Y-122545000D01*
G75*
G02*
X100305000Y-122763750I0J-218750D01*
G01*
X100305000Y-123201250D01*
G75*
G02*
X100086250Y-123420000I-218750J0D01*
G01*
X99573750Y-123420000D01*
G75*
G02*
X99355000Y-123201250I0J218750D01*
G01*
X99355000Y-122763750D01*
G75*
G02*
X99573750Y-122545000I218750J0D01*
G01*
G37*
G36*
G01*
X97943750Y-122545000D02*
X98456250Y-122545000D01*
G75*
G02*
X98675000Y-122763750I0J-218750D01*
G01*
X98675000Y-123201250D01*
G75*
G02*
X98456250Y-123420000I-218750J0D01*
G01*
X97943750Y-123420000D01*
G75*
G02*
X97725000Y-123201250I0J218750D01*
G01*
X97725000Y-122763750D01*
G75*
G02*
X97943750Y-122545000I218750J0D01*
G01*
G37*
G36*
G01*
X97943750Y-124120000D02*
X98456250Y-124120000D01*
G75*
G02*
X98675000Y-124338750I0J-218750D01*
G01*
X98675000Y-124776250D01*
G75*
G02*
X98456250Y-124995000I-218750J0D01*
G01*
X97943750Y-124995000D01*
G75*
G02*
X97725000Y-124776250I0J218750D01*
G01*
X97725000Y-124338750D01*
G75*
G02*
X97943750Y-124120000I218750J0D01*
G01*
G37*
G36*
G01*
X97640000Y-118636250D02*
X97640000Y-118123750D01*
G75*
G02*
X97858750Y-117905000I218750J0D01*
G01*
X98296250Y-117905000D01*
G75*
G02*
X98515000Y-118123750I0J-218750D01*
G01*
X98515000Y-118636250D01*
G75*
G02*
X98296250Y-118855000I-218750J0D01*
G01*
X97858750Y-118855000D01*
G75*
G02*
X97640000Y-118636250I0J218750D01*
G01*
G37*
G36*
G01*
X96065000Y-118636250D02*
X96065000Y-118123750D01*
G75*
G02*
X96283750Y-117905000I218750J0D01*
G01*
X96721250Y-117905000D01*
G75*
G02*
X96940000Y-118123750I0J-218750D01*
G01*
X96940000Y-118636250D01*
G75*
G02*
X96721250Y-118855000I-218750J0D01*
G01*
X96283750Y-118855000D01*
G75*
G02*
X96065000Y-118636250I0J218750D01*
G01*
G37*
G36*
G01*
X100480000Y-115503750D02*
X100480000Y-116016250D01*
G75*
G02*
X100261250Y-116235000I-218750J0D01*
G01*
X99823750Y-116235000D01*
G75*
G02*
X99605000Y-116016250I0J218750D01*
G01*
X99605000Y-115503750D01*
G75*
G02*
X99823750Y-115285000I218750J0D01*
G01*
X100261250Y-115285000D01*
G75*
G02*
X100480000Y-115503750I0J-218750D01*
G01*
G37*
G36*
G01*
X102055000Y-115503750D02*
X102055000Y-116016250D01*
G75*
G02*
X101836250Y-116235000I-218750J0D01*
G01*
X101398750Y-116235000D01*
G75*
G02*
X101180000Y-116016250I0J218750D01*
G01*
X101180000Y-115503750D01*
G75*
G02*
X101398750Y-115285000I218750J0D01*
G01*
X101836250Y-115285000D01*
G75*
G02*
X102055000Y-115503750I0J-218750D01*
G01*
G37*
G36*
G01*
X102055000Y-117033750D02*
X102055000Y-117546250D01*
G75*
G02*
X101836250Y-117765000I-218750J0D01*
G01*
X101398750Y-117765000D01*
G75*
G02*
X101180000Y-117546250I0J218750D01*
G01*
X101180000Y-117033750D01*
G75*
G02*
X101398750Y-116815000I218750J0D01*
G01*
X101836250Y-116815000D01*
G75*
G02*
X102055000Y-117033750I0J-218750D01*
G01*
G37*
G36*
G01*
X100480000Y-117033750D02*
X100480000Y-117546250D01*
G75*
G02*
X100261250Y-117765000I-218750J0D01*
G01*
X99823750Y-117765000D01*
G75*
G02*
X99605000Y-117546250I0J218750D01*
G01*
X99605000Y-117033750D01*
G75*
G02*
X99823750Y-116815000I218750J0D01*
G01*
X100261250Y-116815000D01*
G75*
G02*
X100480000Y-117033750I0J-218750D01*
G01*
G37*
G36*
G01*
X109656250Y-118025000D02*
X109143750Y-118025000D01*
G75*
G02*
X108925000Y-117806250I0J218750D01*
G01*
X108925000Y-117368750D01*
G75*
G02*
X109143750Y-117150000I218750J0D01*
G01*
X109656250Y-117150000D01*
G75*
G02*
X109875000Y-117368750I0J-218750D01*
G01*
X109875000Y-117806250D01*
G75*
G02*
X109656250Y-118025000I-218750J0D01*
G01*
G37*
G36*
G01*
X109656250Y-116450000D02*
X109143750Y-116450000D01*
G75*
G02*
X108925000Y-116231250I0J218750D01*
G01*
X108925000Y-115793750D01*
G75*
G02*
X109143750Y-115575000I218750J0D01*
G01*
X109656250Y-115575000D01*
G75*
G02*
X109875000Y-115793750I0J-218750D01*
G01*
X109875000Y-116231250D01*
G75*
G02*
X109656250Y-116450000I-218750J0D01*
G01*
G37*
G36*
G01*
X92100000Y-72343750D02*
X92100000Y-72856250D01*
G75*
G02*
X91881250Y-73075000I-218750J0D01*
G01*
X91443750Y-73075000D01*
G75*
G02*
X91225000Y-72856250I0J218750D01*
G01*
X91225000Y-72343750D01*
G75*
G02*
X91443750Y-72125000I218750J0D01*
G01*
X91881250Y-72125000D01*
G75*
G02*
X92100000Y-72343750I0J-218750D01*
G01*
G37*
G36*
G01*
X93675000Y-72343750D02*
X93675000Y-72856250D01*
G75*
G02*
X93456250Y-73075000I-218750J0D01*
G01*
X93018750Y-73075000D01*
G75*
G02*
X92800000Y-72856250I0J218750D01*
G01*
X92800000Y-72343750D01*
G75*
G02*
X93018750Y-72125000I218750J0D01*
G01*
X93456250Y-72125000D01*
G75*
G02*
X93675000Y-72343750I0J-218750D01*
G01*
G37*
G36*
G01*
X90650000Y-71518750D02*
X90650000Y-72031250D01*
G75*
G02*
X90431250Y-72250000I-218750J0D01*
G01*
X89993750Y-72250000D01*
G75*
G02*
X89775000Y-72031250I0J218750D01*
G01*
X89775000Y-71518750D01*
G75*
G02*
X89993750Y-71300000I218750J0D01*
G01*
X90431250Y-71300000D01*
G75*
G02*
X90650000Y-71518750I0J-218750D01*
G01*
G37*
G36*
G01*
X89075000Y-71518750D02*
X89075000Y-72031250D01*
G75*
G02*
X88856250Y-72250000I-218750J0D01*
G01*
X88418750Y-72250000D01*
G75*
G02*
X88200000Y-72031250I0J218750D01*
G01*
X88200000Y-71518750D01*
G75*
G02*
X88418750Y-71300000I218750J0D01*
G01*
X88856250Y-71300000D01*
G75*
G02*
X89075000Y-71518750I0J-218750D01*
G01*
G37*
G36*
G01*
X85175000Y-72031250D02*
X85175000Y-71518750D01*
G75*
G02*
X85393750Y-71300000I218750J0D01*
G01*
X85831250Y-71300000D01*
G75*
G02*
X86050000Y-71518750I0J-218750D01*
G01*
X86050000Y-72031250D01*
G75*
G02*
X85831250Y-72250000I-218750J0D01*
G01*
X85393750Y-72250000D01*
G75*
G02*
X85175000Y-72031250I0J218750D01*
G01*
G37*
G36*
G01*
X86750000Y-72031250D02*
X86750000Y-71518750D01*
G75*
G02*
X86968750Y-71300000I218750J0D01*
G01*
X87406250Y-71300000D01*
G75*
G02*
X87625000Y-71518750I0J-218750D01*
G01*
X87625000Y-72031250D01*
G75*
G02*
X87406250Y-72250000I-218750J0D01*
G01*
X86968750Y-72250000D01*
G75*
G02*
X86750000Y-72031250I0J218750D01*
G01*
G37*
D13*
X96475000Y-114850000D03*
D12*
X95085000Y-113600000D03*
X95085000Y-114100000D03*
X95085000Y-114600000D03*
X95085000Y-115100000D03*
X95085000Y-115600000D03*
X95085000Y-116100000D03*
X97865000Y-116100000D03*
X97865000Y-115600000D03*
X97865000Y-115100000D03*
X97865000Y-114600000D03*
X97865000Y-114100000D03*
X97865000Y-113600000D03*
D32*
X94930000Y-118330000D03*
X94930000Y-118980000D03*
X94930000Y-119630000D03*
X93030000Y-119630000D03*
X93030000Y-118980000D03*
X93030000Y-118330000D03*
D33*
X116300000Y-98020001D03*
X116300000Y-96120001D03*
X118300000Y-97070001D03*
G36*
G01*
X112743750Y-95875000D02*
X113256250Y-95875000D01*
G75*
G02*
X113475000Y-96093750I0J-218750D01*
G01*
X113475000Y-96531250D01*
G75*
G02*
X113256250Y-96750000I-218750J0D01*
G01*
X112743750Y-96750000D01*
G75*
G02*
X112525000Y-96531250I0J218750D01*
G01*
X112525000Y-96093750D01*
G75*
G02*
X112743750Y-95875000I218750J0D01*
G01*
G37*
G36*
G01*
X112743750Y-97450000D02*
X113256250Y-97450000D01*
G75*
G02*
X113475000Y-97668750I0J-218750D01*
G01*
X113475000Y-98106250D01*
G75*
G02*
X113256250Y-98325000I-218750J0D01*
G01*
X112743750Y-98325000D01*
G75*
G02*
X112525000Y-98106250I0J218750D01*
G01*
X112525000Y-97668750D01*
G75*
G02*
X112743750Y-97450000I218750J0D01*
G01*
G37*
G36*
G01*
X87615000Y-118665000D02*
X87615000Y-117415000D01*
G75*
G02*
X87865000Y-117165000I250000J0D01*
G01*
X88615000Y-117165000D01*
G75*
G02*
X88865000Y-117415000I0J-250000D01*
G01*
X88865000Y-118665000D01*
G75*
G02*
X88615000Y-118915000I-250000J0D01*
G01*
X87865000Y-118915000D01*
G75*
G02*
X87615000Y-118665000I0J250000D01*
G01*
G37*
G36*
G01*
X84815000Y-118665000D02*
X84815000Y-117415000D01*
G75*
G02*
X85065000Y-117165000I250000J0D01*
G01*
X85815000Y-117165000D01*
G75*
G02*
X86065000Y-117415000I0J-250000D01*
G01*
X86065000Y-118665000D01*
G75*
G02*
X85815000Y-118915000I-250000J0D01*
G01*
X85065000Y-118915000D01*
G75*
G02*
X84815000Y-118665000I0J250000D01*
G01*
G37*
G36*
G01*
X93056250Y-114275000D02*
X92543750Y-114275000D01*
G75*
G02*
X92325000Y-114056250I0J218750D01*
G01*
X92325000Y-113618750D01*
G75*
G02*
X92543750Y-113400000I218750J0D01*
G01*
X93056250Y-113400000D01*
G75*
G02*
X93275000Y-113618750I0J-218750D01*
G01*
X93275000Y-114056250D01*
G75*
G02*
X93056250Y-114275000I-218750J0D01*
G01*
G37*
G36*
G01*
X93056250Y-112700000D02*
X92543750Y-112700000D01*
G75*
G02*
X92325000Y-112481250I0J218750D01*
G01*
X92325000Y-112043750D01*
G75*
G02*
X92543750Y-111825000I218750J0D01*
G01*
X93056250Y-111825000D01*
G75*
G02*
X93275000Y-112043750I0J-218750D01*
G01*
X93275000Y-112481250D01*
G75*
G02*
X93056250Y-112700000I-218750J0D01*
G01*
G37*
G36*
G01*
X108800000Y-125150000D02*
X108800000Y-126400000D01*
G75*
G02*
X108550000Y-126650000I-250000J0D01*
G01*
X107800000Y-126650000D01*
G75*
G02*
X107550000Y-126400000I0J250000D01*
G01*
X107550000Y-125150000D01*
G75*
G02*
X107800000Y-124900000I250000J0D01*
G01*
X108550000Y-124900000D01*
G75*
G02*
X108800000Y-125150000I0J-250000D01*
G01*
G37*
G36*
G01*
X106000000Y-125150000D02*
X106000000Y-126400000D01*
G75*
G02*
X105750000Y-126650000I-250000J0D01*
G01*
X105000000Y-126650000D01*
G75*
G02*
X104750000Y-126400000I0J250000D01*
G01*
X104750000Y-125150000D01*
G75*
G02*
X105000000Y-124900000I250000J0D01*
G01*
X105750000Y-124900000D01*
G75*
G02*
X106000000Y-125150000I0J-250000D01*
G01*
G37*
D34*
X111850000Y-109250000D03*
X112200000Y-109250000D03*
X112550000Y-109250000D03*
X112550000Y-110150000D03*
X112200000Y-110150000D03*
X111850000Y-110150000D03*
G36*
G01*
X114343750Y-97450000D02*
X114856250Y-97450000D01*
G75*
G02*
X115075000Y-97668750I0J-218750D01*
G01*
X115075000Y-98106250D01*
G75*
G02*
X114856250Y-98325000I-218750J0D01*
G01*
X114343750Y-98325000D01*
G75*
G02*
X114125000Y-98106250I0J218750D01*
G01*
X114125000Y-97668750D01*
G75*
G02*
X114343750Y-97450000I218750J0D01*
G01*
G37*
G36*
G01*
X114343750Y-95875000D02*
X114856250Y-95875000D01*
G75*
G02*
X115075000Y-96093750I0J-218750D01*
G01*
X115075000Y-96531250D01*
G75*
G02*
X114856250Y-96750000I-218750J0D01*
G01*
X114343750Y-96750000D01*
G75*
G02*
X114125000Y-96531250I0J218750D01*
G01*
X114125000Y-96093750D01*
G75*
G02*
X114343750Y-95875000I218750J0D01*
G01*
G37*
G36*
G01*
X89913750Y-122575000D02*
X90426250Y-122575000D01*
G75*
G02*
X90645000Y-122793750I0J-218750D01*
G01*
X90645000Y-123231250D01*
G75*
G02*
X90426250Y-123450000I-218750J0D01*
G01*
X89913750Y-123450000D01*
G75*
G02*
X89695000Y-123231250I0J218750D01*
G01*
X89695000Y-122793750D01*
G75*
G02*
X89913750Y-122575000I218750J0D01*
G01*
G37*
G36*
G01*
X89913750Y-124150000D02*
X90426250Y-124150000D01*
G75*
G02*
X90645000Y-124368750I0J-218750D01*
G01*
X90645000Y-124806250D01*
G75*
G02*
X90426250Y-125025000I-218750J0D01*
G01*
X89913750Y-125025000D01*
G75*
G02*
X89695000Y-124806250I0J218750D01*
G01*
X89695000Y-124368750D01*
G75*
G02*
X89913750Y-124150000I218750J0D01*
G01*
G37*
G36*
G01*
X101180000Y-114496250D02*
X101180000Y-113983750D01*
G75*
G02*
X101398750Y-113765000I218750J0D01*
G01*
X101836250Y-113765000D01*
G75*
G02*
X102055000Y-113983750I0J-218750D01*
G01*
X102055000Y-114496250D01*
G75*
G02*
X101836250Y-114715000I-218750J0D01*
G01*
X101398750Y-114715000D01*
G75*
G02*
X101180000Y-114496250I0J218750D01*
G01*
G37*
G36*
G01*
X99605000Y-114496250D02*
X99605000Y-113983750D01*
G75*
G02*
X99823750Y-113765000I218750J0D01*
G01*
X100261250Y-113765000D01*
G75*
G02*
X100480000Y-113983750I0J-218750D01*
G01*
X100480000Y-114496250D01*
G75*
G02*
X100261250Y-114715000I-218750J0D01*
G01*
X99823750Y-114715000D01*
G75*
G02*
X99605000Y-114496250I0J218750D01*
G01*
G37*
G36*
G01*
X109656250Y-121025000D02*
X109143750Y-121025000D01*
G75*
G02*
X108925000Y-120806250I0J218750D01*
G01*
X108925000Y-120368750D01*
G75*
G02*
X109143750Y-120150000I218750J0D01*
G01*
X109656250Y-120150000D01*
G75*
G02*
X109875000Y-120368750I0J-218750D01*
G01*
X109875000Y-120806250D01*
G75*
G02*
X109656250Y-121025000I-218750J0D01*
G01*
G37*
G36*
G01*
X109656250Y-119450000D02*
X109143750Y-119450000D01*
G75*
G02*
X108925000Y-119231250I0J218750D01*
G01*
X108925000Y-118793750D01*
G75*
G02*
X109143750Y-118575000I218750J0D01*
G01*
X109656250Y-118575000D01*
G75*
G02*
X109875000Y-118793750I0J-218750D01*
G01*
X109875000Y-119231250D01*
G75*
G02*
X109656250Y-119450000I-218750J0D01*
G01*
G37*
G36*
G01*
X84943750Y-110775000D02*
X85456250Y-110775000D01*
G75*
G02*
X85675000Y-110993750I0J-218750D01*
G01*
X85675000Y-111431250D01*
G75*
G02*
X85456250Y-111650000I-218750J0D01*
G01*
X84943750Y-111650000D01*
G75*
G02*
X84725000Y-111431250I0J218750D01*
G01*
X84725000Y-110993750D01*
G75*
G02*
X84943750Y-110775000I218750J0D01*
G01*
G37*
G36*
G01*
X84943750Y-112350000D02*
X85456250Y-112350000D01*
G75*
G02*
X85675000Y-112568750I0J-218750D01*
G01*
X85675000Y-113006250D01*
G75*
G02*
X85456250Y-113225000I-218750J0D01*
G01*
X84943750Y-113225000D01*
G75*
G02*
X84725000Y-113006250I0J218750D01*
G01*
X84725000Y-112568750D01*
G75*
G02*
X84943750Y-112350000I218750J0D01*
G01*
G37*
G36*
G01*
X90450000Y-127956250D02*
X90450000Y-127443750D01*
G75*
G02*
X90668750Y-127225000I218750J0D01*
G01*
X91106250Y-127225000D01*
G75*
G02*
X91325000Y-127443750I0J-218750D01*
G01*
X91325000Y-127956250D01*
G75*
G02*
X91106250Y-128175000I-218750J0D01*
G01*
X90668750Y-128175000D01*
G75*
G02*
X90450000Y-127956250I0J218750D01*
G01*
G37*
G36*
G01*
X88875000Y-127956250D02*
X88875000Y-127443750D01*
G75*
G02*
X89093750Y-127225000I218750J0D01*
G01*
X89531250Y-127225000D01*
G75*
G02*
X89750000Y-127443750I0J-218750D01*
G01*
X89750000Y-127956250D01*
G75*
G02*
X89531250Y-128175000I-218750J0D01*
G01*
X89093750Y-128175000D01*
G75*
G02*
X88875000Y-127956250I0J218750D01*
G01*
G37*
G36*
G01*
X99675000Y-112756250D02*
X99675000Y-112243750D01*
G75*
G02*
X99893750Y-112025000I218750J0D01*
G01*
X100331250Y-112025000D01*
G75*
G02*
X100550000Y-112243750I0J-218750D01*
G01*
X100550000Y-112756250D01*
G75*
G02*
X100331250Y-112975000I-218750J0D01*
G01*
X99893750Y-112975000D01*
G75*
G02*
X99675000Y-112756250I0J218750D01*
G01*
G37*
G36*
G01*
X101250000Y-112756250D02*
X101250000Y-112243750D01*
G75*
G02*
X101468750Y-112025000I218750J0D01*
G01*
X101906250Y-112025000D01*
G75*
G02*
X102125000Y-112243750I0J-218750D01*
G01*
X102125000Y-112756250D01*
G75*
G02*
X101906250Y-112975000I-218750J0D01*
G01*
X101468750Y-112975000D01*
G75*
G02*
X101250000Y-112756250I0J218750D01*
G01*
G37*
G36*
G01*
X96550001Y-111200000D02*
X95649999Y-111200000D01*
G75*
G02*
X95400000Y-110950001I0J249999D01*
G01*
X95400000Y-110299999D01*
G75*
G02*
X95649999Y-110050000I249999J0D01*
G01*
X96550001Y-110050000D01*
G75*
G02*
X96800000Y-110299999I0J-249999D01*
G01*
X96800000Y-110950001D01*
G75*
G02*
X96550001Y-111200000I-249999J0D01*
G01*
G37*
G36*
G01*
X96550001Y-109150000D02*
X95649999Y-109150000D01*
G75*
G02*
X95400000Y-108900001I0J249999D01*
G01*
X95400000Y-108249999D01*
G75*
G02*
X95649999Y-108000000I249999J0D01*
G01*
X96550001Y-108000000D01*
G75*
G02*
X96800000Y-108249999I0J-249999D01*
G01*
X96800000Y-108900001D01*
G75*
G02*
X96550001Y-109150000I-249999J0D01*
G01*
G37*
G36*
G01*
X110724400Y-106753950D02*
X110724400Y-107266450D01*
G75*
G02*
X110505650Y-107485200I-218750J0D01*
G01*
X110068150Y-107485200D01*
G75*
G02*
X109849400Y-107266450I0J218750D01*
G01*
X109849400Y-106753950D01*
G75*
G02*
X110068150Y-106535200I218750J0D01*
G01*
X110505650Y-106535200D01*
G75*
G02*
X110724400Y-106753950I0J-218750D01*
G01*
G37*
G36*
G01*
X109149400Y-106753950D02*
X109149400Y-107266450D01*
G75*
G02*
X108930650Y-107485200I-218750J0D01*
G01*
X108493150Y-107485200D01*
G75*
G02*
X108274400Y-107266450I0J218750D01*
G01*
X108274400Y-106753950D01*
G75*
G02*
X108493150Y-106535200I218750J0D01*
G01*
X108930650Y-106535200D01*
G75*
G02*
X109149400Y-106753950I0J-218750D01*
G01*
G37*
G36*
G01*
X111950000Y-102643750D02*
X111950000Y-103156250D01*
G75*
G02*
X111731250Y-103375000I-218750J0D01*
G01*
X111293750Y-103375000D01*
G75*
G02*
X111075000Y-103156250I0J218750D01*
G01*
X111075000Y-102643750D01*
G75*
G02*
X111293750Y-102425000I218750J0D01*
G01*
X111731250Y-102425000D01*
G75*
G02*
X111950000Y-102643750I0J-218750D01*
G01*
G37*
G36*
G01*
X113525000Y-102643750D02*
X113525000Y-103156250D01*
G75*
G02*
X113306250Y-103375000I-218750J0D01*
G01*
X112868750Y-103375000D01*
G75*
G02*
X112650000Y-103156250I0J218750D01*
G01*
X112650000Y-102643750D01*
G75*
G02*
X112868750Y-102425000I218750J0D01*
G01*
X113306250Y-102425000D01*
G75*
G02*
X113525000Y-102643750I0J-218750D01*
G01*
G37*
G36*
G01*
X96475000Y-120156250D02*
X96475000Y-119643750D01*
G75*
G02*
X96693750Y-119425000I218750J0D01*
G01*
X97131250Y-119425000D01*
G75*
G02*
X97350000Y-119643750I0J-218750D01*
G01*
X97350000Y-120156250D01*
G75*
G02*
X97131250Y-120375000I-218750J0D01*
G01*
X96693750Y-120375000D01*
G75*
G02*
X96475000Y-120156250I0J218750D01*
G01*
G37*
G36*
G01*
X98050000Y-120156250D02*
X98050000Y-119643750D01*
G75*
G02*
X98268750Y-119425000I218750J0D01*
G01*
X98706250Y-119425000D01*
G75*
G02*
X98925000Y-119643750I0J-218750D01*
G01*
X98925000Y-120156250D01*
G75*
G02*
X98706250Y-120375000I-218750J0D01*
G01*
X98268750Y-120375000D01*
G75*
G02*
X98050000Y-120156250I0J218750D01*
G01*
G37*
G36*
G01*
X92442080Y-87327801D02*
X92442080Y-84477799D01*
G75*
G02*
X92692079Y-84227800I249999J0D01*
G01*
X93542081Y-84227800D01*
G75*
G02*
X93792080Y-84477799I0J-249999D01*
G01*
X93792080Y-87327801D01*
G75*
G02*
X93542081Y-87577800I-249999J0D01*
G01*
X92692079Y-87577800D01*
G75*
G02*
X92442080Y-87327801I0J249999D01*
G01*
G37*
G36*
G01*
X98242080Y-87327801D02*
X98242080Y-84477799D01*
G75*
G02*
X98492079Y-84227800I249999J0D01*
G01*
X99342081Y-84227800D01*
G75*
G02*
X99592080Y-84477799I0J-249999D01*
G01*
X99592080Y-87327801D01*
G75*
G02*
X99342081Y-87577800I-249999J0D01*
G01*
X98492079Y-87577800D01*
G75*
G02*
X98242080Y-87327801I0J249999D01*
G01*
G37*
G36*
G01*
X109727960Y-90208161D02*
X109727960Y-87358159D01*
G75*
G02*
X109977959Y-87108160I249999J0D01*
G01*
X110827961Y-87108160D01*
G75*
G02*
X111077960Y-87358159I0J-249999D01*
G01*
X111077960Y-90208161D01*
G75*
G02*
X110827961Y-90458160I-249999J0D01*
G01*
X109977959Y-90458160D01*
G75*
G02*
X109727960Y-90208161I0J249999D01*
G01*
G37*
G36*
G01*
X103927960Y-90208161D02*
X103927960Y-87358159D01*
G75*
G02*
X104177959Y-87108160I249999J0D01*
G01*
X105027961Y-87108160D01*
G75*
G02*
X105277960Y-87358159I0J-249999D01*
G01*
X105277960Y-90208161D01*
G75*
G02*
X105027961Y-90458160I-249999J0D01*
G01*
X104177959Y-90458160D01*
G75*
G02*
X103927960Y-90208161I0J249999D01*
G01*
G37*
M02*
