M48
; DRILL file {KiCad (5.1.6)-1} date 06/07/21 15:45:24
; FORMAT={-:-/ absolute / metric / decimal}
; #@! TF.CreationDate,2021-06-07T15:45:24+02:00
; #@! TF.GenerationSoftware,Kicad,Pcbnew,(5.1.6)-1
FMAT,2
METRIC
T1C0.202
T2C0.300
T3C0.500
T4C0.650
T5C1.000
T6C1.020
T7C2.700
T8C1.000
T9C1.270
%
G90
G05
T1
X76.348Y-71.662
X76.348Y-123.55
X78.556Y-82.702
X78.556Y-105.886
X78.556Y-108.094
X81.316Y-66.694
X81.316Y-71.662
X81.316Y-74.974
X81.316Y-90.982
X81.316Y-111.406
X81.316Y-120.79
X81.316Y-129.622
X81.868Y-70.006
X81.868Y-77.182
X81.868Y-85.462
X81.868Y-92.638
X81.868Y-98.71
X81.868Y-100.918
X82.42Y-67.798
X82.42Y-72.766
X82.42Y-97.054
X82.42Y-127.414
X82.666Y-103.85
X82.972Y-71.11
X82.972Y-78.286
X82.972Y-129.07
X83.32Y-103.84
X83.524Y-66.694
X83.524Y-68.902
X83.524Y-105.886
X83.83Y-103.34
X84.076Y-72.214
X84.628Y-67.798
X84.628Y-70.006
X84.628Y-90.43
X85.18Y-74.422
X85.18Y-80.494
X85.18Y-84.91
X85.2Y-113.8
X85.732Y-66.694
X85.732Y-76.078
X86.284Y-81.598
X86.284Y-86.014
X86.284Y-89.878
X86.284Y-93.742
X86.284Y-97.606
X86.836Y-70.558
X86.836Y-72.766
X86.836Y-77.182
X87.388Y-67.246
X87.94Y-74.974
X87.94Y-90.43
X88.492Y-76.63
X88.492Y-102.574
X89.044Y-66.694
X89.044Y-70.558
X89.044Y-72.766
X89.1Y-126.776
X89.278Y-117.693
X89.596Y-77.734
X89.9Y-118.6
X90.148Y-80.494
X90.148Y-84.91
X90.148Y-89.326
X90.148Y-93.742
X90.148Y-97.606
X90.148Y-102.022
X90.25Y-95.531
X90.7Y-67.246
X90.7Y-69.454
X90.7Y-74.974
X90.7Y-78.838
X90.7Y-82.15
X90.7Y-86.566
X90.7Y-90.982
X90.7Y-100.366
X90.7Y-105.886
X91.252Y-76.63
X91.252Y-83.806
X91.252Y-88.222
X91.252Y-92.638
X91.252Y-95.95
X91.5Y-107.6
X91.61Y-118.75
X91.8Y-101.4
X91.825Y-117.775
X91.95Y-73.63
X92.25Y-108.725
X92.29Y-92.17
X92.356Y-66.694
X92.356Y-97.606
X92.61Y-122.89
X92.73Y-105.28
X92.908Y-68.35
X92.908Y-70.558
X92.908Y-74.974
X92.908Y-79.39
X92.908Y-81.598
X92.908Y-88.774
X92.908Y-90.982
X92.908Y-106.438
X93.038Y-110.187
X93.125Y-108.7
X93.225Y-128.525
X93.46Y-83.254
X94.012Y-80.494
X94.012Y-89.878
X94.35Y-105.251
X94.564Y-66.694
X95.668Y-68.902
X95.668Y-104.23
X95.99Y-119.33
X96.041Y-97.64
X96.041Y-98.3
X96.09Y-72.28
X96.09Y-72.929
X96.09Y-78.8
X96.09Y-79.449
X96.09Y-91.18
X96.09Y-91.829
X96.22Y-70.558
X96.22Y-82.702
X96.22Y-88.774
X96.43Y-83.87
X96.44Y-87.45
X96.638Y-121.451
X96.638Y-126.7
X96.638Y-129.1
X96.69Y-97.64
X96.69Y-98.3
X96.75Y-72.28
X96.75Y-72.929
X96.75Y-78.8
X96.75Y-79.449
X96.75Y-91.18
X96.75Y-91.829
X96.772Y-106.99
X96.93Y-73.58
X96.93Y-74.22
X96.93Y-74.88
X96.93Y-75.53
X96.93Y-76.82
X96.93Y-77.48
X96.93Y-78.13
X96.93Y-92.45
X96.93Y-93.1
X96.93Y-93.75
X96.93Y-94.4
X96.93Y-95.7
X96.93Y-96.36
X96.93Y-97.0
X97.29Y-122.97
X97.324Y-68.35
X97.876Y-70.006
X98.688Y-108.835
X98.688Y-109.312
X98.688Y-109.812
X98.688Y-110.312
X98.8Y-116.2
X98.851Y-89.149
X98.86Y-88.5
X98.98Y-68.902
X99.953Y-108.846
X99.953Y-109.346
X99.953Y-109.846
X99.953Y-110.346
X100.084Y-105.886
X101.0Y-126.7
X101.0Y-129.1
X101.74Y-102.022
X101.74Y-106.438
X102.292Y-70.006
X102.3Y-68.92
X102.7Y-113.2
X103.396Y-87.67
X103.948Y-106.438
X104.5Y-66.694
X104.503Y-96.216
X104.54Y-97.6
X104.63Y-77.46
X104.64Y-78.751
X104.708Y-79.321
X104.77Y-98.14
X104.95Y-85.38
X105.373Y-97.03
X105.53Y-72.9
X105.53Y-73.549
X105.53Y-79.42
X105.53Y-80.069
X105.53Y-91.801
X105.53Y-92.46
X105.53Y-98.3
X105.53Y-98.949
X105.604Y-67.798
X105.604Y-102.022
X105.604Y-105.886
X106.18Y-91.801
X106.19Y-72.9
X106.19Y-73.549
X106.19Y-79.42
X106.19Y-80.069
X106.19Y-92.46
X106.19Y-98.3
X106.19Y-98.949
X106.24Y-85.37
X106.27Y-88.83
X106.708Y-66.694
X106.708Y-106.99
X107.1Y-111.4
X108.0Y-118.6
X108.74Y-87.04
X108.774Y-84.17
X108.916Y-66.694
X109.4Y-115.0
X110.2Y-101.856
X110.572Y-67.246
X111.1Y-105.3
X111.2Y-107.8
X111.676Y-74.974
X111.676Y-77.182
X111.7Y-107.8
X111.8Y-111.4
X111.93Y-98.98
X112.0Y-97.9
X112.2Y-107.8
X112.228Y-66.694
X112.7Y-107.8
X112.78Y-76.078
X112.78Y-78.286
X113.2Y-107.8
X113.884Y-87.118
X114.0Y-95.3
X114.436Y-66.694
X114.436Y-88.774
X114.501Y-108.6
X114.988Y-94.846
X115.0Y-111.6
X115.3Y-104.8
X115.33Y-106.21
X115.4Y-110.04
X115.54Y-87.67
X115.54Y-89.878
X115.54Y-118.582
X115.54Y-127.966
X116.092Y-129.622
X116.644Y-66.694
X116.644Y-72.766
X116.644Y-74.974
X116.644Y-77.182
X116.644Y-88.774
X116.644Y-117.478
X116.644Y-119.686
X117.196Y-87.118
X117.196Y-90.43
X117.196Y-128.518
X117.748Y-67.798
X117.748Y-73.87
X117.748Y-76.078
X117.9Y-105.749
X118.3Y-88.222
X118.3Y-129.622
X118.852Y-66.694
X118.852Y-72.766
X118.852Y-74.974
X118.852Y-89.878
X118.852Y-116.926
X118.852Y-127.966
X119.404Y-68.35
X119.404Y-76.63
X119.404Y-87.118
X119.42Y-110.02
X119.956Y-73.87
X119.956Y-88.774
X119.956Y-90.982
X119.956Y-129.07
X120.48Y-110.7
X120.508Y-67.246
X120.508Y-75.526
X120.75Y-102.375
X121.06Y-72.766
X121.06Y-87.67
X121.06Y-89.878
X121.06Y-115.822
X121.612Y-68.35
X121.612Y-74.422
X121.612Y-76.63
X121.612Y-83.254
X121.612Y-129.622
X121.72Y-113.09
X122.164Y-66.694
X122.164Y-88.774
X122.25Y-114.3
X122.39Y-113.041
X122.716Y-73.318
X122.716Y-75.526
X122.716Y-82.15
X122.716Y-87.118
X122.716Y-90.43
X122.96Y-113.041
X123.268Y-67.798
X123.268Y-70.558
X123.41Y-127.73
X123.52Y-102.05
X123.82Y-74.422
X123.82Y-76.63
X123.82Y-81.046
X123.82Y-83.254
X123.82Y-88.222
X123.82Y-94.294
X123.82Y-126.862
X123.82Y-129.07
X124.372Y-66.694
X124.372Y-68.902
X124.372Y-72.766
X124.372Y-89.878
X124.8Y-123.14
X124.924Y-75.526
X124.924Y-82.15
X124.924Y-87.118
X124.924Y-119.134
X124.924Y-125.206
X125.09Y-105.14
X125.29Y-122.72
X125.45Y-110.71
X125.45Y-111.262
X125.476Y-73.87
X125.476Y-80.494
X125.476Y-88.774
X125.476Y-93.742
X125.476Y-129.622
X125.52Y-103.23
X125.703Y-122.354
X125.803Y-107.54
X126.028Y-76.63
X126.028Y-78.838
X126.028Y-83.254
X126.028Y-90.43
X126.028Y-124.102
X126.361Y-108.529
X126.58Y-74.974
X126.58Y-87.67
X126.58Y-92.086
X126.66Y-105.16
X127.132Y-77.734
X127.132Y-82.15
X127.132Y-89.326
X127.132Y-121.894
X127.684Y-72.766
X127.684Y-76.078
X127.684Y-90.982
X127.684Y-123.55
X128.08Y-110.109
X128.236Y-78.838
X128.236Y-83.254
X128.236Y-87.118
X128.236Y-92.638
X128.236Y-120.79
X128.27Y-111.252
X128.27Y-112.776
X128.27Y-114.3
X128.788Y-73.87
X128.788Y-77.182
X128.788Y-80.494
X128.788Y-88.774
X128.788Y-94.294
X128.788Y-115.822
X128.788Y-122.446
X129.058Y-109.372
X129.34Y-72.214
X129.34Y-82.15
X129.34Y-84.358
X129.34Y-90.43
X129.34Y-124.102
X129.892Y-74.974
X129.892Y-116.926
X129.892Y-119.686
T2
X82.6Y-74.8
X82.892Y-85.39
X87.15Y-116.42
X87.875Y-110.675
X87.875Y-113.25
X87.88Y-116.87
X87.905Y-111.945
X90.175Y-113.25
X90.18Y-111.995
X90.2Y-110.7
X91.4Y-116.764
X92.025Y-115.1
X92.12Y-111.09
X92.4Y-116.764
X93.4Y-116.764
X98.76Y-113.5
X98.76Y-114.35
X103.06Y-115.76
X104.0Y-118.0
X104.6Y-70.199
X104.6Y-118.0
X105.2Y-118.0
X105.8Y-118.0
X106.925Y-69.625
X111.6Y-72.949
X112.2Y-73.6
X115.825Y-67.825
X120.0Y-125.72
X120.95Y-114.3
X121.82Y-125.34
X122.0Y-72.125
X122.1Y-70.375
X122.5Y-69.625
X123.495Y-104.88
X123.7Y-125.75
X99.65Y-90.925
X99.65Y-92.705
X99.65Y-94.485
X99.65Y-96.265
X99.65Y-98.045
X99.65Y-99.825
X100.95Y-90.925
X100.95Y-92.705
X100.95Y-94.485
X100.95Y-96.265
X100.95Y-98.045
X100.95Y-99.825
X102.25Y-90.925
X102.25Y-92.705
X102.25Y-94.485
X102.25Y-96.265
X102.25Y-98.045
X102.25Y-99.825
X99.65Y-72.05
X99.65Y-73.83
X99.65Y-75.61
X99.65Y-77.39
X99.65Y-79.17
X99.65Y-80.95
X100.95Y-72.05
X100.95Y-73.83
X100.95Y-75.61
X100.95Y-77.39
X100.95Y-79.17
X100.95Y-80.95
X102.25Y-72.05
X102.25Y-73.83
X102.25Y-75.61
X102.25Y-77.39
X102.25Y-79.17
X102.25Y-80.95
T3
X84.492Y-83.4
X85.742Y-83.4
X86.992Y-83.4
X88.242Y-83.4
X89.492Y-83.4
X84.492Y-92.036
X85.742Y-92.036
X86.992Y-92.036
X88.242Y-92.036
X89.492Y-92.036
X84.492Y-87.718
X85.742Y-87.718
X86.992Y-87.718
X88.242Y-87.718
X89.492Y-87.718
X84.492Y-100.672
X85.742Y-100.672
X86.992Y-100.672
X88.242Y-100.672
X89.492Y-100.672
X84.492Y-79.082
X85.742Y-79.082
X86.992Y-79.082
X88.242Y-79.082
X89.492Y-79.082
X84.492Y-104.99
X85.742Y-104.99
X86.992Y-104.99
X88.242Y-104.99
X89.492Y-104.99
X84.492Y-96.354
X85.742Y-96.354
X86.992Y-96.354
X88.242Y-96.354
X89.492Y-96.354
T4
X128.63Y-105.73
X128.63Y-107.0
X128.778Y-118.237
X128.778Y-119.507
X128.635Y-102.0
X128.635Y-103.27
T5
X110.856Y-122.8
X110.856Y-125.8
X122.625Y-97.75
X125.165Y-97.75
X127.705Y-97.75
X86.856Y-122.8
X86.856Y-125.8
X94.856Y-122.8
X94.856Y-125.8
X77.525Y-74.011
X77.525Y-76.551
X77.525Y-79.091
X77.525Y-81.631
X77.525Y-84.171
X77.525Y-86.711
X77.525Y-89.251
X77.525Y-91.791
X77.525Y-94.331
X77.525Y-96.871
X77.525Y-99.411
X77.525Y-101.951
X77.525Y-104.491
X77.525Y-107.031
X77.525Y-109.571
X77.525Y-112.111
X77.525Y-114.651
X77.525Y-117.191
X77.525Y-119.731
X77.525Y-122.271
X80.064Y-74.011
X80.064Y-76.551
X80.064Y-79.091
X80.064Y-81.631
X80.064Y-84.171
X80.064Y-86.711
X80.064Y-89.251
X80.064Y-91.791
X80.064Y-94.331
X80.064Y-96.871
X80.064Y-99.411
X80.064Y-101.951
X80.064Y-104.491
X80.064Y-107.031
X80.064Y-109.571
X80.064Y-112.111
X80.064Y-114.651
X80.064Y-117.191
X80.064Y-119.731
X80.064Y-122.271
X86.46Y-68.96
X89.0Y-68.96
X102.856Y-122.8
X102.856Y-125.8
T6
X115.4Y-92.0
X118.4Y-92.0
X121.4Y-92.0
X124.4Y-92.0
X115.4Y-78.64
X118.4Y-78.64
X121.4Y-78.64
X124.4Y-78.64
T7
X78.8Y-127.15
X127.8Y-127.15
X78.8Y-69.15
X127.8Y-69.15
T8
X107.856Y-121.86
X113.856Y-121.86
X83.856Y-121.86
X89.856Y-121.86
X91.856Y-121.86
X97.856Y-121.86
X99.856Y-121.86
X105.856Y-121.86
T9
X112.4Y-93.96
X127.4Y-93.96
X112.4Y-80.6
X127.4Y-80.6
T0
M30
