G04 #@! TF.GenerationSoftware,KiCad,Pcbnew,(5.1.6)-1*
G04 #@! TF.CreationDate,2021-05-24T10:09:48+02:00*
G04 #@! TF.ProjectId,rysboard,72797362-6f61-4726-942e-6b696361645f,4.2*
G04 #@! TF.SameCoordinates,Original*
G04 #@! TF.FileFunction,Legend,Bot*
G04 #@! TF.FilePolarity,Positive*
%FSLAX46Y46*%
G04 Gerber Fmt 4.6, Leading zero omitted, Abs format (unit mm)*
G04 Created by KiCad (PCBNEW (5.1.6)-1) date 2021-05-24 10:09:48*
%MOMM*%
%LPD*%
G01*
G04 APERTURE LIST*
%ADD10C,0.100000*%
%ADD11C,0.200000*%
%ADD12C,0.120000*%
%ADD13C,0.125000*%
%ADD14C,0.150000*%
%ADD15C,0.254000*%
G04 APERTURE END LIST*
D10*
X119550000Y-69375000D02*
X118160000Y-69375000D01*
X118160000Y-69375000D02*
X118160000Y-69375000D01*
X118160000Y-69375000D02*
X119550000Y-69375000D01*
X119550000Y-69375000D02*
X119550000Y-69375000D01*
X120940000Y-69375000D02*
X119550000Y-69375000D01*
X119550000Y-69375000D02*
X119550000Y-69375000D01*
X119550000Y-69375000D02*
X120940000Y-69375000D01*
X120940000Y-69375000D02*
X120940000Y-69375000D01*
X120940000Y-72375000D02*
X118160000Y-72375000D01*
X118160000Y-72375000D02*
X118160000Y-72375000D01*
X118160000Y-72375000D02*
X120940000Y-72375000D01*
X120940000Y-72375000D02*
X120940000Y-72375000D01*
D11*
X122050000Y-69575000D02*
X122050000Y-69575000D01*
X121950000Y-69575000D02*
X121950000Y-69575000D01*
X122050000Y-69575000D02*
X122050000Y-69575000D01*
X121950000Y-69575000D02*
G75*
G03*
X122050000Y-69575000I50000J0D01*
G01*
X122050000Y-69575000D02*
G75*
G03*
X121950000Y-69575000I-50000J0D01*
G01*
X121950000Y-69575000D02*
G75*
G03*
X122050000Y-69575000I50000J0D01*
G01*
D12*
X76194500Y-123601100D02*
X78794500Y-123601100D01*
X76194500Y-123601100D02*
X76194500Y-72681100D01*
X76194500Y-72681100D02*
X81394500Y-72681100D01*
X81394500Y-121001100D02*
X81394500Y-72681100D01*
X78794500Y-121001100D02*
X81394500Y-121001100D01*
X78794500Y-123601100D02*
X78794500Y-121001100D01*
X81394500Y-123601100D02*
X81394500Y-122271100D01*
X80064500Y-123601100D02*
X81394500Y-123601100D01*
X100300000Y-96780000D02*
X92240000Y-96780000D01*
X92240000Y-96780000D02*
X92240000Y-92260000D01*
X92240000Y-92260000D02*
X100300000Y-92260000D01*
X101852500Y-74920000D02*
X109912500Y-74920000D01*
X109912500Y-74920000D02*
X109912500Y-79440000D01*
X109912500Y-79440000D02*
X101852500Y-79440000D01*
X101820000Y-92190000D02*
X109880000Y-92190000D01*
X109880000Y-92190000D02*
X109880000Y-96710000D01*
X109880000Y-96710000D02*
X101820000Y-96710000D01*
X100270000Y-79500000D02*
X92210000Y-79500000D01*
X92210000Y-79500000D02*
X92210000Y-74980000D01*
X92210000Y-74980000D02*
X100270000Y-74980000D01*
X113550000Y-100612779D02*
X113550000Y-100287221D01*
X112530000Y-100612779D02*
X112530000Y-100287221D01*
X120220000Y-100922779D02*
X120220000Y-100597221D01*
X119200000Y-100922779D02*
X119200000Y-100597221D01*
X115315000Y-69662221D02*
X115315000Y-69987779D01*
X116335000Y-69662221D02*
X116335000Y-69987779D01*
X93852064Y-69715000D02*
X92647936Y-69715000D01*
X93852064Y-71535000D02*
X92647936Y-71535000D01*
X96697936Y-82070000D02*
X97902064Y-82070000D01*
X96697936Y-80250000D02*
X97902064Y-80250000D01*
X105462064Y-80400000D02*
X104257936Y-80400000D01*
X105462064Y-82220000D02*
X104257936Y-82220000D01*
X122011221Y-104396000D02*
X122336779Y-104396000D01*
X122011221Y-103376000D02*
X122336779Y-103376000D01*
X125387779Y-95290000D02*
X125062221Y-95290000D01*
X125387779Y-96310000D02*
X125062221Y-96310000D01*
X107500000Y-72245000D02*
X113845000Y-72245000D01*
X107955000Y-67105000D02*
X113845000Y-67105000D01*
X91310000Y-123637221D02*
X91310000Y-123962779D01*
X92330000Y-123637221D02*
X92330000Y-123962779D01*
X117342779Y-106470000D02*
X117017221Y-106470000D01*
X117342779Y-107490000D02*
X117017221Y-107490000D01*
X117262779Y-104290000D02*
X116937221Y-104290000D01*
X117262779Y-105310000D02*
X116937221Y-105310000D01*
X116997221Y-109030000D02*
X117322779Y-109030000D01*
X116997221Y-108010000D02*
X117322779Y-108010000D01*
X124200000Y-102974721D02*
X124200000Y-103300279D01*
X125220000Y-102974721D02*
X125220000Y-103300279D01*
X128562779Y-108080000D02*
X128237221Y-108080000D01*
X128562779Y-109100000D02*
X128237221Y-109100000D01*
X126748000Y-103286779D02*
X126748000Y-102961221D01*
X125728000Y-103286779D02*
X125728000Y-102961221D01*
X128097221Y-112170000D02*
X128422779Y-112170000D01*
X128097221Y-111150000D02*
X128422779Y-111150000D01*
X117007221Y-112100000D02*
X117332779Y-112100000D01*
X117007221Y-111080000D02*
X117332779Y-111080000D01*
X128107221Y-113700000D02*
X128432779Y-113700000D01*
X128107221Y-112680000D02*
X128432779Y-112680000D01*
X128117221Y-115220000D02*
X128442779Y-115220000D01*
X128117221Y-114200000D02*
X128442779Y-114200000D01*
X116997221Y-110550000D02*
X117322779Y-110550000D01*
X116997221Y-109530000D02*
X117322779Y-109530000D01*
X122320000Y-123902779D02*
X122320000Y-123577221D01*
X121300000Y-123902779D02*
X121300000Y-123577221D01*
X123850000Y-123902779D02*
X123850000Y-123577221D01*
X122830000Y-123902779D02*
X122830000Y-123577221D01*
X120790000Y-123912779D02*
X120790000Y-123587221D01*
X119770000Y-123912779D02*
X119770000Y-123587221D01*
X120110000Y-110405000D02*
X120110000Y-110880000D01*
X120110000Y-110880000D02*
X120585000Y-110880000D01*
X125330000Y-106135000D02*
X125330000Y-105660000D01*
X125330000Y-105660000D02*
X124855000Y-105660000D01*
X125330000Y-110405000D02*
X125330000Y-110880000D01*
X125330000Y-110880000D02*
X124855000Y-110880000D01*
X120110000Y-106135000D02*
X120110000Y-105660000D01*
X98997936Y-105640000D02*
X103102064Y-105640000D01*
X98997936Y-102220000D02*
X103102064Y-102220000D01*
X128432779Y-109610000D02*
X128107221Y-109610000D01*
X128432779Y-110630000D02*
X128107221Y-110630000D01*
X100270000Y-69678748D02*
X100270000Y-70201252D01*
X101690000Y-69678748D02*
X101690000Y-70201252D01*
X93827064Y-69185000D02*
X92622936Y-69185000D01*
X93827064Y-67365000D02*
X92622936Y-67365000D01*
X91620000Y-116050000D02*
X91620000Y-109705000D01*
X86480000Y-115595000D02*
X86480000Y-109705000D01*
X113780000Y-106160000D02*
X112850000Y-106160000D01*
X110620000Y-106160000D02*
X111550000Y-106160000D01*
X110620000Y-106160000D02*
X110620000Y-104000000D01*
X113780000Y-106160000D02*
X113780000Y-104700000D01*
X90832779Y-119090000D02*
X90507221Y-119090000D01*
X90832779Y-120110000D02*
X90507221Y-120110000D01*
X100340000Y-123607221D02*
X100340000Y-123932779D01*
X99320000Y-123607221D02*
X99320000Y-123932779D01*
X97690000Y-123607221D02*
X97690000Y-123932779D01*
X98710000Y-123607221D02*
X98710000Y-123932779D01*
X97127221Y-117870000D02*
X97452779Y-117870000D01*
X97127221Y-118890000D02*
X97452779Y-118890000D01*
X100992779Y-116270000D02*
X100667221Y-116270000D01*
X100992779Y-115250000D02*
X100667221Y-115250000D01*
X100992779Y-116780000D02*
X100667221Y-116780000D01*
X100992779Y-117800000D02*
X100667221Y-117800000D01*
X108890000Y-116962779D02*
X108890000Y-116637221D01*
X109910000Y-116962779D02*
X109910000Y-116637221D01*
X91650000Y-71865000D02*
X93935000Y-71865000D01*
X93935000Y-71865000D02*
X93935000Y-73335000D01*
X93935000Y-73335000D02*
X91650000Y-73335000D01*
X90910000Y-72510000D02*
X88625000Y-72510000D01*
X90910000Y-71040000D02*
X90910000Y-72510000D01*
X88625000Y-71040000D02*
X90910000Y-71040000D01*
X84915000Y-71040000D02*
X87200000Y-71040000D01*
X84915000Y-72510000D02*
X84915000Y-71040000D01*
X87200000Y-72510000D02*
X84915000Y-72510000D01*
D11*
X98975000Y-113550000D02*
X98975000Y-113550000D01*
X98875000Y-113550000D02*
X98875000Y-113550000D01*
X98975000Y-113550000D02*
X98975000Y-113550000D01*
D10*
X97865000Y-116350000D02*
X97865000Y-116350000D01*
X95085000Y-116350000D02*
X97865000Y-116350000D01*
X95085000Y-116350000D02*
X95085000Y-116350000D01*
X97865000Y-116350000D02*
X95085000Y-116350000D01*
X97865000Y-113350000D02*
X97865000Y-113350000D01*
X96475000Y-113350000D02*
X97865000Y-113350000D01*
X96475000Y-113350000D02*
X96475000Y-113350000D01*
X97865000Y-113350000D02*
X96475000Y-113350000D01*
X96475000Y-113350000D02*
X96475000Y-113350000D01*
X95085000Y-113350000D02*
X96475000Y-113350000D01*
X95085000Y-113350000D02*
X95085000Y-113350000D01*
X96475000Y-113350000D02*
X95085000Y-113350000D01*
D11*
X98875000Y-113550000D02*
G75*
G03*
X98975000Y-113550000I50000J0D01*
G01*
X98975000Y-113550000D02*
G75*
G03*
X98875000Y-113550000I-50000J0D01*
G01*
X98875000Y-113550000D02*
G75*
G03*
X98975000Y-113550000I50000J0D01*
G01*
X94055000Y-117980000D02*
X93905000Y-117980000D01*
X93905000Y-117980000D02*
X93905000Y-119980000D01*
X93905000Y-119980000D02*
X94055000Y-119980000D01*
X94055000Y-119980000D02*
X94055000Y-117980000D01*
X95455000Y-117780000D02*
X94405000Y-117780000D01*
D12*
X118060000Y-95490001D02*
X118060000Y-96420001D01*
X118060000Y-98650001D02*
X118060000Y-97720001D01*
X118060000Y-98650001D02*
X115900000Y-98650001D01*
X118060000Y-95490001D02*
X116600000Y-95490001D01*
X112490000Y-96937221D02*
X112490000Y-97262779D01*
X113510000Y-96937221D02*
X113510000Y-97262779D01*
X86237936Y-117130000D02*
X87442064Y-117130000D01*
X86237936Y-118950000D02*
X87442064Y-118950000D01*
X93310000Y-113212779D02*
X93310000Y-112887221D01*
X92290000Y-113212779D02*
X92290000Y-112887221D01*
X107377064Y-124865000D02*
X106172936Y-124865000D01*
X107377064Y-126685000D02*
X106172936Y-126685000D01*
X111600000Y-110100000D02*
X111600000Y-109100000D01*
X112800000Y-110100000D02*
X112800000Y-109300000D01*
X115110000Y-96937221D02*
X115110000Y-97262779D01*
X114090000Y-96937221D02*
X114090000Y-97262779D01*
X89660000Y-123637221D02*
X89660000Y-123962779D01*
X90680000Y-123637221D02*
X90680000Y-123962779D01*
X100667221Y-113730000D02*
X100992779Y-113730000D01*
X100667221Y-114750000D02*
X100992779Y-114750000D01*
X109910000Y-119962779D02*
X109910000Y-119637221D01*
X108890000Y-119962779D02*
X108890000Y-119637221D01*
X84690000Y-111837221D02*
X84690000Y-112162779D01*
X85710000Y-111837221D02*
X85710000Y-112162779D01*
X89937221Y-127190000D02*
X90262779Y-127190000D01*
X89937221Y-128210000D02*
X90262779Y-128210000D01*
X100737221Y-113010000D02*
X101062779Y-113010000D01*
X100737221Y-111990000D02*
X101062779Y-111990000D01*
X96810000Y-109861252D02*
X96810000Y-109338748D01*
X95390000Y-109861252D02*
X95390000Y-109338748D01*
X109662179Y-106500200D02*
X109336621Y-106500200D01*
X109662179Y-107520200D02*
X109336621Y-107520200D01*
X112462779Y-103410000D02*
X112137221Y-103410000D01*
X112462779Y-102390000D02*
X112137221Y-102390000D01*
X97537221Y-120410000D02*
X97862779Y-120410000D01*
X97537221Y-119390000D02*
X97862779Y-119390000D01*
X93965016Y-87612800D02*
X98069144Y-87612800D01*
X93965016Y-84192800D02*
X98069144Y-84192800D01*
X105450896Y-87073160D02*
X109555024Y-87073160D01*
X105450896Y-90493160D02*
X109555024Y-90493160D01*
D11*
X112348000Y-101197000D02*
G75*
G03*
X112348000Y-101197000I-10000J0D01*
G01*
X117889000Y-100913000D02*
X117889000Y-100763000D01*
X117889000Y-100763000D02*
X115029000Y-100763000D01*
X115029000Y-100763000D02*
X115029000Y-100913000D01*
X115029000Y-100913000D02*
X117889000Y-100913000D01*
X117984000Y-102513000D02*
X117984000Y-101263000D01*
D13*
X120033195Y-73327390D02*
X120033195Y-72827390D01*
X119509385Y-73279771D02*
X119533195Y-73303580D01*
X119604623Y-73327390D01*
X119652242Y-73327390D01*
X119723671Y-73303580D01*
X119771290Y-73255961D01*
X119795100Y-73208342D01*
X119818909Y-73113104D01*
X119818909Y-73041676D01*
X119795100Y-72946438D01*
X119771290Y-72898819D01*
X119723671Y-72851200D01*
X119652242Y-72827390D01*
X119604623Y-72827390D01*
X119533195Y-72851200D01*
X119509385Y-72875009D01*
X119318909Y-72875009D02*
X119295100Y-72851200D01*
X119247480Y-72827390D01*
X119128433Y-72827390D01*
X119080814Y-72851200D01*
X119057004Y-72875009D01*
X119033195Y-72922628D01*
X119033195Y-72970247D01*
X119057004Y-73041676D01*
X119342719Y-73327390D01*
X119033195Y-73327390D01*
D14*
X81933333Y-123752380D02*
X81933333Y-124466666D01*
X81980952Y-124609523D01*
X82076190Y-124704761D01*
X82219047Y-124752380D01*
X82314285Y-124752380D01*
X80933333Y-124752380D02*
X81504761Y-124752380D01*
X81219047Y-124752380D02*
X81219047Y-123752380D01*
X81314285Y-123895238D01*
X81409523Y-123990476D01*
X81504761Y-124038095D01*
X96788266Y-94730842D02*
X96835885Y-94778461D01*
X96978742Y-94826080D01*
X97073980Y-94826080D01*
X97216838Y-94778461D01*
X97312076Y-94683223D01*
X97359695Y-94587985D01*
X97407314Y-94397509D01*
X97407314Y-94254652D01*
X97359695Y-94064176D01*
X97312076Y-93968938D01*
X97216838Y-93873700D01*
X97073980Y-93826080D01*
X96978742Y-93826080D01*
X96835885Y-93873700D01*
X96788266Y-93921319D01*
X95883504Y-93826080D02*
X96359695Y-93826080D01*
X96407314Y-94302271D01*
X96359695Y-94254652D01*
X96264457Y-94207033D01*
X96026361Y-94207033D01*
X95931123Y-94254652D01*
X95883504Y-94302271D01*
X95835885Y-94397509D01*
X95835885Y-94635604D01*
X95883504Y-94730842D01*
X95931123Y-94778461D01*
X96026361Y-94826080D01*
X96264457Y-94826080D01*
X96359695Y-94778461D01*
X96407314Y-94730842D01*
X105779866Y-77319142D02*
X105827485Y-77366761D01*
X105970342Y-77414380D01*
X106065580Y-77414380D01*
X106208438Y-77366761D01*
X106303676Y-77271523D01*
X106351295Y-77176285D01*
X106398914Y-76985809D01*
X106398914Y-76842952D01*
X106351295Y-76652476D01*
X106303676Y-76557238D01*
X106208438Y-76462000D01*
X106065580Y-76414380D01*
X105970342Y-76414380D01*
X105827485Y-76462000D01*
X105779866Y-76509619D01*
X104922723Y-76414380D02*
X105113200Y-76414380D01*
X105208438Y-76462000D01*
X105256057Y-76509619D01*
X105351295Y-76652476D01*
X105398914Y-76842952D01*
X105398914Y-77223904D01*
X105351295Y-77319142D01*
X105303676Y-77366761D01*
X105208438Y-77414380D01*
X105017961Y-77414380D01*
X104922723Y-77366761D01*
X104875104Y-77319142D01*
X104827485Y-77223904D01*
X104827485Y-76985809D01*
X104875104Y-76890571D01*
X104922723Y-76842952D01*
X105017961Y-76795333D01*
X105208438Y-76795333D01*
X105303676Y-76842952D01*
X105351295Y-76890571D01*
X105398914Y-76985809D01*
X106154457Y-94730842D02*
X106202076Y-94778461D01*
X106344933Y-94826080D01*
X106440171Y-94826080D01*
X106583028Y-94778461D01*
X106678266Y-94683223D01*
X106725885Y-94587985D01*
X106773504Y-94397509D01*
X106773504Y-94254652D01*
X106725885Y-94064176D01*
X106678266Y-93968938D01*
X106583028Y-93873700D01*
X106440171Y-93826080D01*
X106344933Y-93826080D01*
X106202076Y-93873700D01*
X106154457Y-93921319D01*
X105202076Y-94826080D02*
X105773504Y-94826080D01*
X105487790Y-94826080D02*
X105487790Y-93826080D01*
X105583028Y-93968938D01*
X105678266Y-94064176D01*
X105773504Y-94111795D01*
X104821123Y-93921319D02*
X104773504Y-93873700D01*
X104678266Y-93826080D01*
X104440171Y-93826080D01*
X104344933Y-93873700D01*
X104297314Y-93921319D01*
X104249695Y-94016557D01*
X104249695Y-94111795D01*
X104297314Y-94254652D01*
X104868742Y-94826080D01*
X104249695Y-94826080D01*
X96946957Y-77535042D02*
X96994576Y-77582661D01*
X97137433Y-77630280D01*
X97232671Y-77630280D01*
X97375528Y-77582661D01*
X97470766Y-77487423D01*
X97518385Y-77392185D01*
X97566004Y-77201709D01*
X97566004Y-77058852D01*
X97518385Y-76868376D01*
X97470766Y-76773138D01*
X97375528Y-76677900D01*
X97232671Y-76630280D01*
X97137433Y-76630280D01*
X96994576Y-76677900D01*
X96946957Y-76725519D01*
X95994576Y-77630280D02*
X96566004Y-77630280D01*
X96280290Y-77630280D02*
X96280290Y-76630280D01*
X96375528Y-76773138D01*
X96470766Y-76868376D01*
X96566004Y-76915995D01*
X95661242Y-76630280D02*
X95042195Y-76630280D01*
X95375528Y-77011233D01*
X95232671Y-77011233D01*
X95137433Y-77058852D01*
X95089814Y-77106471D01*
X95042195Y-77201709D01*
X95042195Y-77439804D01*
X95089814Y-77535042D01*
X95137433Y-77582661D01*
X95232671Y-77630280D01*
X95518385Y-77630280D01*
X95613623Y-77582661D01*
X95661242Y-77535042D01*
D13*
X111929028Y-100521271D02*
X111952838Y-100545080D01*
X112024266Y-100568890D01*
X112071885Y-100568890D01*
X112143314Y-100545080D01*
X112190933Y-100497461D01*
X112214742Y-100449842D01*
X112238552Y-100354604D01*
X112238552Y-100283176D01*
X112214742Y-100187938D01*
X112190933Y-100140319D01*
X112143314Y-100092700D01*
X112071885Y-100068890D01*
X112024266Y-100068890D01*
X111952838Y-100092700D01*
X111929028Y-100116509D01*
X111452838Y-100568890D02*
X111738552Y-100568890D01*
X111595695Y-100568890D02*
X111595695Y-100068890D01*
X111643314Y-100140319D01*
X111690933Y-100187938D01*
X111738552Y-100211747D01*
X111000457Y-100068890D02*
X111238552Y-100068890D01*
X111262361Y-100306985D01*
X111238552Y-100283176D01*
X111190933Y-100259366D01*
X111071885Y-100259366D01*
X111024266Y-100283176D01*
X111000457Y-100306985D01*
X110976647Y-100354604D01*
X110976647Y-100473652D01*
X111000457Y-100521271D01*
X111024266Y-100545080D01*
X111071885Y-100568890D01*
X111190933Y-100568890D01*
X111238552Y-100545080D01*
X111262361Y-100521271D01*
X121336571Y-99957771D02*
X121360380Y-99933961D01*
X121384190Y-99862533D01*
X121384190Y-99814914D01*
X121360380Y-99743485D01*
X121312761Y-99695866D01*
X121265142Y-99672057D01*
X121169904Y-99648247D01*
X121098476Y-99648247D01*
X121003238Y-99672057D01*
X120955619Y-99695866D01*
X120908000Y-99743485D01*
X120884190Y-99814914D01*
X120884190Y-99862533D01*
X120908000Y-99933961D01*
X120931809Y-99957771D01*
X120931809Y-100148247D02*
X120908000Y-100172057D01*
X120884190Y-100219676D01*
X120884190Y-100338723D01*
X120908000Y-100386342D01*
X120931809Y-100410152D01*
X120979428Y-100433961D01*
X121027047Y-100433961D01*
X121098476Y-100410152D01*
X121384190Y-100124438D01*
X121384190Y-100433961D01*
X120884190Y-100600628D02*
X120884190Y-100910152D01*
X121074666Y-100743485D01*
X121074666Y-100814914D01*
X121098476Y-100862533D01*
X121122285Y-100886342D01*
X121169904Y-100910152D01*
X121288952Y-100910152D01*
X121336571Y-100886342D01*
X121360380Y-100862533D01*
X121384190Y-100814914D01*
X121384190Y-100672057D01*
X121360380Y-100624438D01*
X121336571Y-100600628D01*
X114961171Y-69503571D02*
X114984980Y-69479761D01*
X115008790Y-69408333D01*
X115008790Y-69360714D01*
X114984980Y-69289285D01*
X114937361Y-69241666D01*
X114889742Y-69217857D01*
X114794504Y-69194047D01*
X114723076Y-69194047D01*
X114627838Y-69217857D01*
X114580219Y-69241666D01*
X114532600Y-69289285D01*
X114508790Y-69360714D01*
X114508790Y-69408333D01*
X114532600Y-69479761D01*
X114556409Y-69503571D01*
X114508790Y-69670238D02*
X114508790Y-69979761D01*
X114699266Y-69813095D01*
X114699266Y-69884523D01*
X114723076Y-69932142D01*
X114746885Y-69955952D01*
X114794504Y-69979761D01*
X114913552Y-69979761D01*
X114961171Y-69955952D01*
X114984980Y-69932142D01*
X115008790Y-69884523D01*
X115008790Y-69741666D01*
X114984980Y-69694047D01*
X114961171Y-69670238D01*
X115008790Y-70455952D02*
X115008790Y-70170238D01*
X115008790Y-70313095D02*
X114508790Y-70313095D01*
X114580219Y-70265476D01*
X114627838Y-70217857D01*
X114651647Y-70170238D01*
D14*
X97493057Y-70931042D02*
X97540676Y-70978661D01*
X97683533Y-71026280D01*
X97778771Y-71026280D01*
X97921628Y-70978661D01*
X98016866Y-70883423D01*
X98064485Y-70788185D01*
X98112104Y-70597709D01*
X98112104Y-70454852D01*
X98064485Y-70264376D01*
X98016866Y-70169138D01*
X97921628Y-70073900D01*
X97778771Y-70026280D01*
X97683533Y-70026280D01*
X97540676Y-70073900D01*
X97493057Y-70121519D01*
X97159723Y-70026280D02*
X96540676Y-70026280D01*
X96874009Y-70407233D01*
X96731152Y-70407233D01*
X96635914Y-70454852D01*
X96588295Y-70502471D01*
X96540676Y-70597709D01*
X96540676Y-70835804D01*
X96588295Y-70931042D01*
X96635914Y-70978661D01*
X96731152Y-71026280D01*
X97016866Y-71026280D01*
X97112104Y-70978661D01*
X97159723Y-70931042D01*
X95683533Y-70359614D02*
X95683533Y-71026280D01*
X95921628Y-69978661D02*
X96159723Y-70692947D01*
X95540676Y-70692947D01*
X97942857Y-83300842D02*
X97990476Y-83348461D01*
X98133333Y-83396080D01*
X98228571Y-83396080D01*
X98371428Y-83348461D01*
X98466666Y-83253223D01*
X98514285Y-83157985D01*
X98561904Y-82967509D01*
X98561904Y-82824652D01*
X98514285Y-82634176D01*
X98466666Y-82538938D01*
X98371428Y-82443700D01*
X98228571Y-82396080D01*
X98133333Y-82396080D01*
X97990476Y-82443700D01*
X97942857Y-82491319D01*
X97085714Y-82729414D02*
X97085714Y-83396080D01*
X97323809Y-82348461D02*
X97561904Y-83062747D01*
X96942857Y-83062747D01*
X96657142Y-82396080D02*
X96038095Y-82396080D01*
X96371428Y-82777033D01*
X96228571Y-82777033D01*
X96133333Y-82824652D01*
X96085714Y-82872271D01*
X96038095Y-82967509D01*
X96038095Y-83205604D01*
X96085714Y-83300842D01*
X96133333Y-83348461D01*
X96228571Y-83396080D01*
X96514285Y-83396080D01*
X96609523Y-83348461D01*
X96657142Y-83300842D01*
X105494057Y-83529442D02*
X105541676Y-83577061D01*
X105684533Y-83624680D01*
X105779771Y-83624680D01*
X105922628Y-83577061D01*
X106017866Y-83481823D01*
X106065485Y-83386585D01*
X106113104Y-83196109D01*
X106113104Y-83053252D01*
X106065485Y-82862776D01*
X106017866Y-82767538D01*
X105922628Y-82672300D01*
X105779771Y-82624680D01*
X105684533Y-82624680D01*
X105541676Y-82672300D01*
X105494057Y-82719919D01*
X104636914Y-82958014D02*
X104636914Y-83624680D01*
X104875009Y-82577061D02*
X105113104Y-83291347D01*
X104494057Y-83291347D01*
X103684533Y-82958014D02*
X103684533Y-83624680D01*
X103922628Y-82577061D02*
X104160723Y-83291347D01*
X103541676Y-83291347D01*
D13*
X120272928Y-104064571D02*
X120296738Y-104088380D01*
X120368166Y-104112190D01*
X120415785Y-104112190D01*
X120487214Y-104088380D01*
X120534833Y-104040761D01*
X120558642Y-103993142D01*
X120582452Y-103897904D01*
X120582452Y-103826476D01*
X120558642Y-103731238D01*
X120534833Y-103683619D01*
X120487214Y-103636000D01*
X120415785Y-103612190D01*
X120368166Y-103612190D01*
X120296738Y-103636000D01*
X120272928Y-103659809D01*
X119844357Y-103778857D02*
X119844357Y-104112190D01*
X119963404Y-103588380D02*
X120082452Y-103945523D01*
X119772928Y-103945523D01*
X119344357Y-103612190D02*
X119582452Y-103612190D01*
X119606261Y-103850285D01*
X119582452Y-103826476D01*
X119534833Y-103802666D01*
X119415785Y-103802666D01*
X119368166Y-103826476D01*
X119344357Y-103850285D01*
X119320547Y-103897904D01*
X119320547Y-104016952D01*
X119344357Y-104064571D01*
X119368166Y-104088380D01*
X119415785Y-104112190D01*
X119534833Y-104112190D01*
X119582452Y-104088380D01*
X119606261Y-104064571D01*
X125543428Y-94869771D02*
X125567238Y-94893580D01*
X125638666Y-94917390D01*
X125686285Y-94917390D01*
X125757714Y-94893580D01*
X125805333Y-94845961D01*
X125829142Y-94798342D01*
X125852952Y-94703104D01*
X125852952Y-94631676D01*
X125829142Y-94536438D01*
X125805333Y-94488819D01*
X125757714Y-94441200D01*
X125686285Y-94417390D01*
X125638666Y-94417390D01*
X125567238Y-94441200D01*
X125543428Y-94465009D01*
X125114857Y-94584057D02*
X125114857Y-94917390D01*
X125233904Y-94393580D02*
X125352952Y-94750723D01*
X125043428Y-94750723D01*
X124638666Y-94417390D02*
X124733904Y-94417390D01*
X124781523Y-94441200D01*
X124805333Y-94465009D01*
X124852952Y-94536438D01*
X124876761Y-94631676D01*
X124876761Y-94822152D01*
X124852952Y-94869771D01*
X124829142Y-94893580D01*
X124781523Y-94917390D01*
X124686285Y-94917390D01*
X124638666Y-94893580D01*
X124614857Y-94869771D01*
X124591047Y-94822152D01*
X124591047Y-94703104D01*
X124614857Y-94655485D01*
X124638666Y-94631676D01*
X124686285Y-94607866D01*
X124781523Y-94607866D01*
X124829142Y-94631676D01*
X124852952Y-94655485D01*
X124876761Y-94703104D01*
X110588419Y-73108309D02*
X110636038Y-73084500D01*
X110683657Y-73036880D01*
X110755085Y-72965452D01*
X110802704Y-72941642D01*
X110850323Y-72941642D01*
X110826514Y-73060690D02*
X110874133Y-73036880D01*
X110921752Y-72989261D01*
X110945561Y-72894023D01*
X110945561Y-72727357D01*
X110921752Y-72632119D01*
X110874133Y-72584500D01*
X110826514Y-72560690D01*
X110731276Y-72560690D01*
X110683657Y-72584500D01*
X110636038Y-72632119D01*
X110612228Y-72727357D01*
X110612228Y-72894023D01*
X110636038Y-72989261D01*
X110683657Y-73036880D01*
X110731276Y-73060690D01*
X110826514Y-73060690D01*
X110183657Y-72560690D02*
X110278895Y-72560690D01*
X110326514Y-72584500D01*
X110350323Y-72608309D01*
X110397942Y-72679738D01*
X110421752Y-72774976D01*
X110421752Y-72965452D01*
X110397942Y-73013071D01*
X110374133Y-73036880D01*
X110326514Y-73060690D01*
X110231276Y-73060690D01*
X110183657Y-73036880D01*
X110159847Y-73013071D01*
X110136038Y-72965452D01*
X110136038Y-72846404D01*
X110159847Y-72798785D01*
X110183657Y-72774976D01*
X110231276Y-72751166D01*
X110326514Y-72751166D01*
X110374133Y-72774976D01*
X110397942Y-72798785D01*
X110421752Y-72846404D01*
D14*
X93810080Y-123582133D02*
X93333890Y-123248800D01*
X93810080Y-123010704D02*
X92810080Y-123010704D01*
X92810080Y-123391657D01*
X92857700Y-123486895D01*
X92905319Y-123534514D01*
X93000557Y-123582133D01*
X93143414Y-123582133D01*
X93238652Y-123534514D01*
X93286271Y-123486895D01*
X93333890Y-123391657D01*
X93333890Y-123010704D01*
X93238652Y-124153561D02*
X93191033Y-124058323D01*
X93143414Y-124010704D01*
X93048176Y-123963085D01*
X93000557Y-123963085D01*
X92905319Y-124010704D01*
X92857700Y-124058323D01*
X92810080Y-124153561D01*
X92810080Y-124344038D01*
X92857700Y-124439276D01*
X92905319Y-124486895D01*
X93000557Y-124534514D01*
X93048176Y-124534514D01*
X93143414Y-124486895D01*
X93191033Y-124439276D01*
X93238652Y-124344038D01*
X93238652Y-124153561D01*
X93286271Y-124058323D01*
X93333890Y-124010704D01*
X93429128Y-123963085D01*
X93619604Y-123963085D01*
X93714842Y-124010704D01*
X93762461Y-124058323D01*
X93810080Y-124153561D01*
X93810080Y-124344038D01*
X93762461Y-124439276D01*
X93714842Y-124486895D01*
X93619604Y-124534514D01*
X93429128Y-124534514D01*
X93333890Y-124486895D01*
X93286271Y-124439276D01*
X93238652Y-124344038D01*
D13*
X117266233Y-106233090D02*
X117432900Y-105994995D01*
X117551947Y-106233090D02*
X117551947Y-105733090D01*
X117361471Y-105733090D01*
X117313852Y-105756900D01*
X117290042Y-105780709D01*
X117266233Y-105828328D01*
X117266233Y-105899757D01*
X117290042Y-105947376D01*
X117313852Y-105971185D01*
X117361471Y-105994995D01*
X117551947Y-105994995D01*
X117028138Y-106233090D02*
X116932900Y-106233090D01*
X116885280Y-106209280D01*
X116861471Y-106185471D01*
X116813852Y-106114042D01*
X116790042Y-106018804D01*
X116790042Y-105828328D01*
X116813852Y-105780709D01*
X116837661Y-105756900D01*
X116885280Y-105733090D01*
X116980519Y-105733090D01*
X117028138Y-105756900D01*
X117051947Y-105780709D01*
X117075757Y-105828328D01*
X117075757Y-105947376D01*
X117051947Y-105994995D01*
X117028138Y-106018804D01*
X116980519Y-106042614D01*
X116885280Y-106042614D01*
X116837661Y-106018804D01*
X116813852Y-105994995D01*
X116790042Y-105947376D01*
X117415428Y-103997890D02*
X117582095Y-103759795D01*
X117701142Y-103997890D02*
X117701142Y-103497890D01*
X117510666Y-103497890D01*
X117463047Y-103521700D01*
X117439238Y-103545509D01*
X117415428Y-103593128D01*
X117415428Y-103664557D01*
X117439238Y-103712176D01*
X117463047Y-103735985D01*
X117510666Y-103759795D01*
X117701142Y-103759795D01*
X116939238Y-103997890D02*
X117224952Y-103997890D01*
X117082095Y-103997890D02*
X117082095Y-103497890D01*
X117129714Y-103569319D01*
X117177333Y-103616938D01*
X117224952Y-103640747D01*
X116463047Y-103997890D02*
X116748761Y-103997890D01*
X116605904Y-103997890D02*
X116605904Y-103497890D01*
X116653523Y-103569319D01*
X116701142Y-103616938D01*
X116748761Y-103640747D01*
D14*
X117813057Y-114752380D02*
X118146390Y-114276190D01*
X118384485Y-114752380D02*
X118384485Y-113752380D01*
X118003533Y-113752380D01*
X117908295Y-113800000D01*
X117860676Y-113847619D01*
X117813057Y-113942857D01*
X117813057Y-114085714D01*
X117860676Y-114180952D01*
X117908295Y-114228571D01*
X118003533Y-114276190D01*
X118384485Y-114276190D01*
X116908295Y-113752380D02*
X117384485Y-113752380D01*
X117432104Y-114228571D01*
X117384485Y-114180952D01*
X117289247Y-114133333D01*
X117051152Y-114133333D01*
X116955914Y-114180952D01*
X116908295Y-114228571D01*
X116860676Y-114323809D01*
X116860676Y-114561904D01*
X116908295Y-114657142D01*
X116955914Y-114704761D01*
X117051152Y-114752380D01*
X117289247Y-114752380D01*
X117384485Y-114704761D01*
X117432104Y-114657142D01*
X116241628Y-113752380D02*
X116146390Y-113752380D01*
X116051152Y-113800000D01*
X116003533Y-113847619D01*
X115955914Y-113942857D01*
X115908295Y-114133333D01*
X115908295Y-114371428D01*
X115955914Y-114561904D01*
X116003533Y-114657142D01*
X116051152Y-114704761D01*
X116146390Y-114752380D01*
X116241628Y-114752380D01*
X116336866Y-114704761D01*
X116384485Y-114657142D01*
X116432104Y-114561904D01*
X116479723Y-114371428D01*
X116479723Y-114133333D01*
X116432104Y-113942857D01*
X116384485Y-113847619D01*
X116336866Y-113800000D01*
X116241628Y-113752380D01*
D13*
X124978290Y-100160971D02*
X124740195Y-99994304D01*
X124978290Y-99875257D02*
X124478290Y-99875257D01*
X124478290Y-100065733D01*
X124502100Y-100113352D01*
X124525909Y-100137161D01*
X124573528Y-100160971D01*
X124644957Y-100160971D01*
X124692576Y-100137161D01*
X124716385Y-100113352D01*
X124740195Y-100065733D01*
X124740195Y-99875257D01*
X124478290Y-100613352D02*
X124478290Y-100375257D01*
X124716385Y-100351447D01*
X124692576Y-100375257D01*
X124668766Y-100422876D01*
X124668766Y-100541923D01*
X124692576Y-100589542D01*
X124716385Y-100613352D01*
X124764004Y-100637161D01*
X124883052Y-100637161D01*
X124930671Y-100613352D01*
X124954480Y-100589542D01*
X124978290Y-100541923D01*
X124978290Y-100422876D01*
X124954480Y-100375257D01*
X124930671Y-100351447D01*
X124478290Y-100803828D02*
X124478290Y-101113352D01*
X124668766Y-100946685D01*
X124668766Y-101018114D01*
X124692576Y-101065733D01*
X124716385Y-101089542D01*
X124764004Y-101113352D01*
X124883052Y-101113352D01*
X124930671Y-101089542D01*
X124954480Y-101065733D01*
X124978290Y-101018114D01*
X124978290Y-100875257D01*
X124954480Y-100827638D01*
X124930671Y-100803828D01*
D14*
X129042857Y-116847880D02*
X129376190Y-116371690D01*
X129614285Y-116847880D02*
X129614285Y-115847880D01*
X129233333Y-115847880D01*
X129138095Y-115895500D01*
X129090476Y-115943119D01*
X129042857Y-116038357D01*
X129042857Y-116181214D01*
X129090476Y-116276452D01*
X129138095Y-116324071D01*
X129233333Y-116371690D01*
X129614285Y-116371690D01*
X128138095Y-115847880D02*
X128614285Y-115847880D01*
X128661904Y-116324071D01*
X128614285Y-116276452D01*
X128519047Y-116228833D01*
X128280952Y-116228833D01*
X128185714Y-116276452D01*
X128138095Y-116324071D01*
X128090476Y-116419309D01*
X128090476Y-116657404D01*
X128138095Y-116752642D01*
X128185714Y-116800261D01*
X128280952Y-116847880D01*
X128519047Y-116847880D01*
X128614285Y-116800261D01*
X128661904Y-116752642D01*
X127185714Y-115847880D02*
X127661904Y-115847880D01*
X127709523Y-116324071D01*
X127661904Y-116276452D01*
X127566666Y-116228833D01*
X127328571Y-116228833D01*
X127233333Y-116276452D01*
X127185714Y-116324071D01*
X127138095Y-116419309D01*
X127138095Y-116657404D01*
X127185714Y-116752642D01*
X127233333Y-116800261D01*
X127328571Y-116847880D01*
X127566666Y-116847880D01*
X127661904Y-116800261D01*
X127709523Y-116752642D01*
D13*
X126464190Y-100160971D02*
X126226095Y-99994304D01*
X126464190Y-99875257D02*
X125964190Y-99875257D01*
X125964190Y-100065733D01*
X125988000Y-100113352D01*
X126011809Y-100137161D01*
X126059428Y-100160971D01*
X126130857Y-100160971D01*
X126178476Y-100137161D01*
X126202285Y-100113352D01*
X126226095Y-100065733D01*
X126226095Y-99875257D01*
X125964190Y-100613352D02*
X125964190Y-100375257D01*
X126202285Y-100351447D01*
X126178476Y-100375257D01*
X126154666Y-100422876D01*
X126154666Y-100541923D01*
X126178476Y-100589542D01*
X126202285Y-100613352D01*
X126249904Y-100637161D01*
X126368952Y-100637161D01*
X126416571Y-100613352D01*
X126440380Y-100589542D01*
X126464190Y-100541923D01*
X126464190Y-100422876D01*
X126440380Y-100375257D01*
X126416571Y-100351447D01*
X125964190Y-100803828D02*
X125964190Y-101137161D01*
X126464190Y-100922876D01*
D14*
X128900157Y-119438680D02*
X129233490Y-118962490D01*
X129471585Y-119438680D02*
X129471585Y-118438680D01*
X129090633Y-118438680D01*
X128995395Y-118486300D01*
X128947776Y-118533919D01*
X128900157Y-118629157D01*
X128900157Y-118772014D01*
X128947776Y-118867252D01*
X128995395Y-118914871D01*
X129090633Y-118962490D01*
X129471585Y-118962490D01*
X128043014Y-118438680D02*
X128233490Y-118438680D01*
X128328728Y-118486300D01*
X128376347Y-118533919D01*
X128471585Y-118676776D01*
X128519204Y-118867252D01*
X128519204Y-119248204D01*
X128471585Y-119343442D01*
X128423966Y-119391061D01*
X128328728Y-119438680D01*
X128138252Y-119438680D01*
X128043014Y-119391061D01*
X127995395Y-119343442D01*
X127947776Y-119248204D01*
X127947776Y-119010109D01*
X127995395Y-118914871D01*
X128043014Y-118867252D01*
X128138252Y-118819633D01*
X128328728Y-118819633D01*
X128423966Y-118867252D01*
X128471585Y-118914871D01*
X128519204Y-119010109D01*
X127614442Y-118438680D02*
X126995395Y-118438680D01*
X127328728Y-118819633D01*
X127185871Y-118819633D01*
X127090633Y-118867252D01*
X127043014Y-118914871D01*
X126995395Y-119010109D01*
X126995395Y-119248204D01*
X127043014Y-119343442D01*
X127090633Y-119391061D01*
X127185871Y-119438680D01*
X127471585Y-119438680D01*
X127566823Y-119391061D01*
X127614442Y-119343442D01*
X117800357Y-117279680D02*
X118133690Y-116803490D01*
X118371785Y-117279680D02*
X118371785Y-116279680D01*
X117990833Y-116279680D01*
X117895595Y-116327300D01*
X117847976Y-116374919D01*
X117800357Y-116470157D01*
X117800357Y-116613014D01*
X117847976Y-116708252D01*
X117895595Y-116755871D01*
X117990833Y-116803490D01*
X118371785Y-116803490D01*
X116943214Y-116279680D02*
X117133690Y-116279680D01*
X117228928Y-116327300D01*
X117276547Y-116374919D01*
X117371785Y-116517776D01*
X117419404Y-116708252D01*
X117419404Y-117089204D01*
X117371785Y-117184442D01*
X117324166Y-117232061D01*
X117228928Y-117279680D01*
X117038452Y-117279680D01*
X116943214Y-117232061D01*
X116895595Y-117184442D01*
X116847976Y-117089204D01*
X116847976Y-116851109D01*
X116895595Y-116755871D01*
X116943214Y-116708252D01*
X117038452Y-116660633D01*
X117228928Y-116660633D01*
X117324166Y-116708252D01*
X117371785Y-116755871D01*
X117419404Y-116851109D01*
X115990833Y-116613014D02*
X115990833Y-117279680D01*
X116228928Y-116232061D02*
X116467023Y-116946347D01*
X115847976Y-116946347D01*
X128900157Y-120708680D02*
X129233490Y-120232490D01*
X129471585Y-120708680D02*
X129471585Y-119708680D01*
X129090633Y-119708680D01*
X128995395Y-119756300D01*
X128947776Y-119803919D01*
X128900157Y-119899157D01*
X128900157Y-120042014D01*
X128947776Y-120137252D01*
X128995395Y-120184871D01*
X129090633Y-120232490D01*
X129471585Y-120232490D01*
X128043014Y-119708680D02*
X128233490Y-119708680D01*
X128328728Y-119756300D01*
X128376347Y-119803919D01*
X128471585Y-119946776D01*
X128519204Y-120137252D01*
X128519204Y-120518204D01*
X128471585Y-120613442D01*
X128423966Y-120661061D01*
X128328728Y-120708680D01*
X128138252Y-120708680D01*
X128043014Y-120661061D01*
X127995395Y-120613442D01*
X127947776Y-120518204D01*
X127947776Y-120280109D01*
X127995395Y-120184871D01*
X128043014Y-120137252D01*
X128138252Y-120089633D01*
X128328728Y-120089633D01*
X128423966Y-120137252D01*
X128471585Y-120184871D01*
X128519204Y-120280109D01*
X127043014Y-119708680D02*
X127519204Y-119708680D01*
X127566823Y-120184871D01*
X127519204Y-120137252D01*
X127423966Y-120089633D01*
X127185871Y-120089633D01*
X127090633Y-120137252D01*
X127043014Y-120184871D01*
X126995395Y-120280109D01*
X126995395Y-120518204D01*
X127043014Y-120613442D01*
X127090633Y-120661061D01*
X127185871Y-120708680D01*
X127423966Y-120708680D01*
X127519204Y-120661061D01*
X127566823Y-120613442D01*
X128836657Y-122029480D02*
X129169990Y-121553290D01*
X129408085Y-122029480D02*
X129408085Y-121029480D01*
X129027133Y-121029480D01*
X128931895Y-121077100D01*
X128884276Y-121124719D01*
X128836657Y-121219957D01*
X128836657Y-121362814D01*
X128884276Y-121458052D01*
X128931895Y-121505671D01*
X129027133Y-121553290D01*
X129408085Y-121553290D01*
X127979514Y-121029480D02*
X128169990Y-121029480D01*
X128265228Y-121077100D01*
X128312847Y-121124719D01*
X128408085Y-121267576D01*
X128455704Y-121458052D01*
X128455704Y-121839004D01*
X128408085Y-121934242D01*
X128360466Y-121981861D01*
X128265228Y-122029480D01*
X128074752Y-122029480D01*
X127979514Y-121981861D01*
X127931895Y-121934242D01*
X127884276Y-121839004D01*
X127884276Y-121600909D01*
X127931895Y-121505671D01*
X127979514Y-121458052D01*
X128074752Y-121410433D01*
X128265228Y-121410433D01*
X128360466Y-121458052D01*
X128408085Y-121505671D01*
X128455704Y-121600909D01*
X127550942Y-121029480D02*
X126884276Y-121029480D01*
X127312847Y-122029480D01*
X117802857Y-115971580D02*
X118136190Y-115495390D01*
X118374285Y-115971580D02*
X118374285Y-114971580D01*
X117993333Y-114971580D01*
X117898095Y-115019200D01*
X117850476Y-115066819D01*
X117802857Y-115162057D01*
X117802857Y-115304914D01*
X117850476Y-115400152D01*
X117898095Y-115447771D01*
X117993333Y-115495390D01*
X118374285Y-115495390D01*
X116945714Y-114971580D02*
X117136190Y-114971580D01*
X117231428Y-115019200D01*
X117279047Y-115066819D01*
X117374285Y-115209676D01*
X117421904Y-115400152D01*
X117421904Y-115781104D01*
X117374285Y-115876342D01*
X117326666Y-115923961D01*
X117231428Y-115971580D01*
X117040952Y-115971580D01*
X116945714Y-115923961D01*
X116898095Y-115876342D01*
X116850476Y-115781104D01*
X116850476Y-115543009D01*
X116898095Y-115447771D01*
X116945714Y-115400152D01*
X117040952Y-115352533D01*
X117231428Y-115352533D01*
X117326666Y-115400152D01*
X117374285Y-115447771D01*
X117421904Y-115543009D01*
X116279047Y-115400152D02*
X116374285Y-115352533D01*
X116421904Y-115304914D01*
X116469523Y-115209676D01*
X116469523Y-115162057D01*
X116421904Y-115066819D01*
X116374285Y-115019200D01*
X116279047Y-114971580D01*
X116088571Y-114971580D01*
X115993333Y-115019200D01*
X115945714Y-115066819D01*
X115898095Y-115162057D01*
X115898095Y-115209676D01*
X115945714Y-115304914D01*
X115993333Y-115352533D01*
X116088571Y-115400152D01*
X116279047Y-115400152D01*
X116374285Y-115447771D01*
X116421904Y-115495390D01*
X116469523Y-115590628D01*
X116469523Y-115781104D01*
X116421904Y-115876342D01*
X116374285Y-115923961D01*
X116279047Y-115971580D01*
X116088571Y-115971580D01*
X115993333Y-115923961D01*
X115945714Y-115876342D01*
X115898095Y-115781104D01*
X115898095Y-115590628D01*
X115945714Y-115495390D01*
X115993333Y-115447771D01*
X116088571Y-115400152D01*
X122270780Y-119372142D02*
X121794590Y-119038809D01*
X122270780Y-118800714D02*
X121270780Y-118800714D01*
X121270780Y-119181666D01*
X121318400Y-119276904D01*
X121366019Y-119324523D01*
X121461257Y-119372142D01*
X121604114Y-119372142D01*
X121699352Y-119324523D01*
X121746971Y-119276904D01*
X121794590Y-119181666D01*
X121794590Y-118800714D01*
X121270780Y-119705476D02*
X121270780Y-120372142D01*
X122270780Y-119943571D01*
X121270780Y-120657857D02*
X121270780Y-121276904D01*
X121651733Y-120943571D01*
X121651733Y-121086428D01*
X121699352Y-121181666D01*
X121746971Y-121229285D01*
X121842209Y-121276904D01*
X122080304Y-121276904D01*
X122175542Y-121229285D01*
X122223161Y-121181666D01*
X122270780Y-121086428D01*
X122270780Y-120800714D01*
X122223161Y-120705476D01*
X122175542Y-120657857D01*
X123794780Y-119334042D02*
X123318590Y-119000709D01*
X123794780Y-118762614D02*
X122794780Y-118762614D01*
X122794780Y-119143566D01*
X122842400Y-119238804D01*
X122890019Y-119286423D01*
X122985257Y-119334042D01*
X123128114Y-119334042D01*
X123223352Y-119286423D01*
X123270971Y-119238804D01*
X123318590Y-119143566D01*
X123318590Y-118762614D01*
X122794780Y-119667376D02*
X122794780Y-120334042D01*
X123794780Y-119905471D01*
X123128114Y-121143566D02*
X123794780Y-121143566D01*
X122747161Y-120905471D02*
X123461447Y-120667376D01*
X123461447Y-121286423D01*
X120734080Y-119435642D02*
X120257890Y-119102309D01*
X120734080Y-118864214D02*
X119734080Y-118864214D01*
X119734080Y-119245166D01*
X119781700Y-119340404D01*
X119829319Y-119388023D01*
X119924557Y-119435642D01*
X120067414Y-119435642D01*
X120162652Y-119388023D01*
X120210271Y-119340404D01*
X120257890Y-119245166D01*
X120257890Y-118864214D01*
X119734080Y-119768976D02*
X119734080Y-120435642D01*
X120734080Y-120007071D01*
X119734080Y-121292785D02*
X119734080Y-120816595D01*
X120210271Y-120768976D01*
X120162652Y-120816595D01*
X120115033Y-120911833D01*
X120115033Y-121149928D01*
X120162652Y-121245166D01*
X120210271Y-121292785D01*
X120305509Y-121340404D01*
X120543604Y-121340404D01*
X120638842Y-121292785D01*
X120686461Y-121245166D01*
X120734080Y-121149928D01*
X120734080Y-120911833D01*
X120686461Y-120816595D01*
X120638842Y-120768976D01*
D13*
X119499890Y-104775047D02*
X119904652Y-104775047D01*
X119952271Y-104798857D01*
X119976080Y-104822666D01*
X119999890Y-104870285D01*
X119999890Y-104965523D01*
X119976080Y-105013142D01*
X119952271Y-105036952D01*
X119904652Y-105060761D01*
X119499890Y-105060761D01*
X119666557Y-105513142D02*
X119999890Y-105513142D01*
X119476080Y-105394095D02*
X119833223Y-105275047D01*
X119833223Y-105584571D01*
D14*
X101645957Y-104414580D02*
X101979290Y-103938390D01*
X102217385Y-104414580D02*
X102217385Y-103414580D01*
X101836433Y-103414580D01*
X101741195Y-103462200D01*
X101693576Y-103509819D01*
X101645957Y-103605057D01*
X101645957Y-103747914D01*
X101693576Y-103843152D01*
X101741195Y-103890771D01*
X101836433Y-103938390D01*
X102217385Y-103938390D01*
X101312623Y-103414580D02*
X100693576Y-103414580D01*
X101026909Y-103795533D01*
X100884052Y-103795533D01*
X100788814Y-103843152D01*
X100741195Y-103890771D01*
X100693576Y-103986009D01*
X100693576Y-104224104D01*
X100741195Y-104319342D01*
X100788814Y-104366961D01*
X100884052Y-104414580D01*
X101169766Y-104414580D01*
X101265004Y-104366961D01*
X101312623Y-104319342D01*
X100074528Y-103414580D02*
X99979290Y-103414580D01*
X99884052Y-103462200D01*
X99836433Y-103509819D01*
X99788814Y-103605057D01*
X99741195Y-103795533D01*
X99741195Y-104033628D01*
X99788814Y-104224104D01*
X99836433Y-104319342D01*
X99884052Y-104366961D01*
X99979290Y-104414580D01*
X100074528Y-104414580D01*
X100169766Y-104366961D01*
X100217385Y-104319342D01*
X100265004Y-104224104D01*
X100312623Y-104033628D01*
X100312623Y-103795533D01*
X100265004Y-103605057D01*
X100217385Y-103509819D01*
X100169766Y-103462200D01*
X100074528Y-103414580D01*
X128900157Y-118155980D02*
X129233490Y-117679790D01*
X129471585Y-118155980D02*
X129471585Y-117155980D01*
X129090633Y-117155980D01*
X128995395Y-117203600D01*
X128947776Y-117251219D01*
X128900157Y-117346457D01*
X128900157Y-117489314D01*
X128947776Y-117584552D01*
X128995395Y-117632171D01*
X129090633Y-117679790D01*
X129471585Y-117679790D01*
X128566823Y-117155980D02*
X127947776Y-117155980D01*
X128281109Y-117536933D01*
X128138252Y-117536933D01*
X128043014Y-117584552D01*
X127995395Y-117632171D01*
X127947776Y-117727409D01*
X127947776Y-117965504D01*
X127995395Y-118060742D01*
X128043014Y-118108361D01*
X128138252Y-118155980D01*
X128423966Y-118155980D01*
X128519204Y-118108361D01*
X128566823Y-118060742D01*
X126995395Y-118155980D02*
X127566823Y-118155980D01*
X127281109Y-118155980D02*
X127281109Y-117155980D01*
X127376347Y-117298838D01*
X127471585Y-117394076D01*
X127566823Y-117441695D01*
X98782380Y-68654285D02*
X98782380Y-69225714D01*
X99782380Y-68940000D02*
X98782380Y-68940000D01*
X99782380Y-69559047D02*
X98782380Y-69559047D01*
X99258571Y-69559047D02*
X99258571Y-70130476D01*
X99782380Y-70130476D02*
X98782380Y-70130476D01*
X99782380Y-71130476D02*
X99782380Y-70559047D01*
X99782380Y-70844761D02*
X98782380Y-70844761D01*
X98925238Y-70749523D01*
X99020476Y-70654285D01*
X99068095Y-70559047D01*
X93602133Y-66616271D02*
X93935466Y-66616271D01*
X93935466Y-67140080D02*
X93935466Y-66140080D01*
X93459276Y-66140080D01*
X93125942Y-66235319D02*
X93078323Y-66187700D01*
X92983085Y-66140080D01*
X92744990Y-66140080D01*
X92649752Y-66187700D01*
X92602133Y-66235319D01*
X92554514Y-66330557D01*
X92554514Y-66425795D01*
X92602133Y-66568652D01*
X93173561Y-67140080D01*
X92554514Y-67140080D01*
X89211138Y-108853219D02*
X89306376Y-108805600D01*
X89401614Y-108710361D01*
X89544471Y-108567504D01*
X89639709Y-108519885D01*
X89734947Y-108519885D01*
X89687328Y-108757980D02*
X89782566Y-108710361D01*
X89877804Y-108615123D01*
X89925423Y-108424647D01*
X89925423Y-108091314D01*
X89877804Y-107900838D01*
X89782566Y-107805600D01*
X89687328Y-107757980D01*
X89496852Y-107757980D01*
X89401614Y-107805600D01*
X89306376Y-107900838D01*
X89258757Y-108091314D01*
X89258757Y-108424647D01*
X89306376Y-108615123D01*
X89401614Y-108710361D01*
X89496852Y-108757980D01*
X89687328Y-108757980D01*
X88782566Y-108757980D02*
X88592090Y-108757980D01*
X88496852Y-108710361D01*
X88449233Y-108662742D01*
X88353995Y-108519885D01*
X88306376Y-108329409D01*
X88306376Y-107948457D01*
X88353995Y-107853219D01*
X88401614Y-107805600D01*
X88496852Y-107757980D01*
X88687328Y-107757980D01*
X88782566Y-107805600D01*
X88830185Y-107853219D01*
X88877804Y-107948457D01*
X88877804Y-108186552D01*
X88830185Y-108281790D01*
X88782566Y-108329409D01*
X88687328Y-108377028D01*
X88496852Y-108377028D01*
X88401614Y-108329409D01*
X88353995Y-108281790D01*
X88306376Y-108186552D01*
X108826228Y-105894119D02*
X108921466Y-105846500D01*
X109016704Y-105751261D01*
X109159561Y-105608404D01*
X109254800Y-105560785D01*
X109350038Y-105560785D01*
X109302419Y-105798880D02*
X109397657Y-105751261D01*
X109492895Y-105656023D01*
X109540514Y-105465547D01*
X109540514Y-105132214D01*
X109492895Y-104941738D01*
X109397657Y-104846500D01*
X109302419Y-104798880D01*
X109111942Y-104798880D01*
X109016704Y-104846500D01*
X108921466Y-104941738D01*
X108873847Y-105132214D01*
X108873847Y-105465547D01*
X108921466Y-105656023D01*
X109016704Y-105751261D01*
X109111942Y-105798880D01*
X109302419Y-105798880D01*
X107921466Y-105798880D02*
X108492895Y-105798880D01*
X108207180Y-105798880D02*
X108207180Y-104798880D01*
X108302419Y-104941738D01*
X108397657Y-105036976D01*
X108492895Y-105084595D01*
X107302419Y-104798880D02*
X107207180Y-104798880D01*
X107111942Y-104846500D01*
X107064323Y-104894119D01*
X107016704Y-104989357D01*
X106969085Y-105179833D01*
X106969085Y-105417928D01*
X107016704Y-105608404D01*
X107064323Y-105703642D01*
X107111942Y-105751261D01*
X107207180Y-105798880D01*
X107302419Y-105798880D01*
X107397657Y-105751261D01*
X107445276Y-105703642D01*
X107492895Y-105608404D01*
X107540514Y-105417928D01*
X107540514Y-105179833D01*
X107492895Y-104989357D01*
X107445276Y-104894119D01*
X107397657Y-104846500D01*
X107302419Y-104798880D01*
X91312857Y-118622380D02*
X91646190Y-118146190D01*
X91884285Y-118622380D02*
X91884285Y-117622380D01*
X91503333Y-117622380D01*
X91408095Y-117670000D01*
X91360476Y-117717619D01*
X91312857Y-117812857D01*
X91312857Y-117955714D01*
X91360476Y-118050952D01*
X91408095Y-118098571D01*
X91503333Y-118146190D01*
X91884285Y-118146190D01*
X90360476Y-118622380D02*
X90931904Y-118622380D01*
X90646190Y-118622380D02*
X90646190Y-117622380D01*
X90741428Y-117765238D01*
X90836666Y-117860476D01*
X90931904Y-117908095D01*
X89455714Y-117622380D02*
X89931904Y-117622380D01*
X89979523Y-118098571D01*
X89931904Y-118050952D01*
X89836666Y-118003333D01*
X89598571Y-118003333D01*
X89503333Y-118050952D01*
X89455714Y-118098571D01*
X89408095Y-118193809D01*
X89408095Y-118431904D01*
X89455714Y-118527142D01*
X89503333Y-118574761D01*
X89598571Y-118622380D01*
X89836666Y-118622380D01*
X89931904Y-118574761D01*
X89979523Y-118527142D01*
X101633280Y-123131342D02*
X101157090Y-122798009D01*
X101633280Y-122559914D02*
X100633280Y-122559914D01*
X100633280Y-122940866D01*
X100680900Y-123036104D01*
X100728519Y-123083723D01*
X100823757Y-123131342D01*
X100966614Y-123131342D01*
X101061852Y-123083723D01*
X101109471Y-123036104D01*
X101157090Y-122940866D01*
X101157090Y-122559914D01*
X101633280Y-124083723D02*
X101633280Y-123512295D01*
X101633280Y-123798009D02*
X100633280Y-123798009D01*
X100776138Y-123702771D01*
X100871376Y-123607533D01*
X100918995Y-123512295D01*
X100633280Y-124940866D02*
X100633280Y-124750390D01*
X100680900Y-124655152D01*
X100728519Y-124607533D01*
X100871376Y-124512295D01*
X101061852Y-124464676D01*
X101442804Y-124464676D01*
X101538042Y-124512295D01*
X101585661Y-124559914D01*
X101633280Y-124655152D01*
X101633280Y-124845628D01*
X101585661Y-124940866D01*
X101538042Y-124988485D01*
X101442804Y-125036104D01*
X101204709Y-125036104D01*
X101109471Y-124988485D01*
X101061852Y-124940866D01*
X101014233Y-124845628D01*
X101014233Y-124655152D01*
X101061852Y-124559914D01*
X101109471Y-124512295D01*
X101204709Y-124464676D01*
X97226380Y-123127142D02*
X96750190Y-122793809D01*
X97226380Y-122555714D02*
X96226380Y-122555714D01*
X96226380Y-122936666D01*
X96274000Y-123031904D01*
X96321619Y-123079523D01*
X96416857Y-123127142D01*
X96559714Y-123127142D01*
X96654952Y-123079523D01*
X96702571Y-123031904D01*
X96750190Y-122936666D01*
X96750190Y-122555714D01*
X97226380Y-124079523D02*
X97226380Y-123508095D01*
X97226380Y-123793809D02*
X96226380Y-123793809D01*
X96369238Y-123698571D01*
X96464476Y-123603333D01*
X96512095Y-123508095D01*
X96226380Y-124412857D02*
X96226380Y-125079523D01*
X97226380Y-124650952D01*
X101010957Y-119286280D02*
X101344290Y-118810090D01*
X101582385Y-119286280D02*
X101582385Y-118286280D01*
X101201433Y-118286280D01*
X101106195Y-118333900D01*
X101058576Y-118381519D01*
X101010957Y-118476757D01*
X101010957Y-118619614D01*
X101058576Y-118714852D01*
X101106195Y-118762471D01*
X101201433Y-118810090D01*
X101582385Y-118810090D01*
X100058576Y-119286280D02*
X100630004Y-119286280D01*
X100344290Y-119286280D02*
X100344290Y-118286280D01*
X100439528Y-118429138D01*
X100534766Y-118524376D01*
X100630004Y-118571995D01*
X99582385Y-119286280D02*
X99391909Y-119286280D01*
X99296671Y-119238661D01*
X99249052Y-119191042D01*
X99153814Y-119048185D01*
X99106195Y-118857709D01*
X99106195Y-118476757D01*
X99153814Y-118381519D01*
X99201433Y-118333900D01*
X99296671Y-118286280D01*
X99487147Y-118286280D01*
X99582385Y-118333900D01*
X99630004Y-118381519D01*
X99677623Y-118476757D01*
X99677623Y-118714852D01*
X99630004Y-118810090D01*
X99582385Y-118857709D01*
X99487147Y-118905328D01*
X99296671Y-118905328D01*
X99201433Y-118857709D01*
X99153814Y-118810090D01*
X99106195Y-118714852D01*
X104617757Y-116149380D02*
X104951090Y-115673190D01*
X105189185Y-116149380D02*
X105189185Y-115149380D01*
X104808233Y-115149380D01*
X104712995Y-115197000D01*
X104665376Y-115244619D01*
X104617757Y-115339857D01*
X104617757Y-115482714D01*
X104665376Y-115577952D01*
X104712995Y-115625571D01*
X104808233Y-115673190D01*
X105189185Y-115673190D01*
X104236804Y-115244619D02*
X104189185Y-115197000D01*
X104093947Y-115149380D01*
X103855852Y-115149380D01*
X103760614Y-115197000D01*
X103712995Y-115244619D01*
X103665376Y-115339857D01*
X103665376Y-115435095D01*
X103712995Y-115577952D01*
X104284423Y-116149380D01*
X103665376Y-116149380D01*
X103284423Y-115244619D02*
X103236804Y-115197000D01*
X103141566Y-115149380D01*
X102903471Y-115149380D01*
X102808233Y-115197000D01*
X102760614Y-115244619D01*
X102712995Y-115339857D01*
X102712995Y-115435095D01*
X102760614Y-115577952D01*
X103332042Y-116149380D01*
X102712995Y-116149380D01*
X104643157Y-117520980D02*
X104976490Y-117044790D01*
X105214585Y-117520980D02*
X105214585Y-116520980D01*
X104833633Y-116520980D01*
X104738395Y-116568600D01*
X104690776Y-116616219D01*
X104643157Y-116711457D01*
X104643157Y-116854314D01*
X104690776Y-116949552D01*
X104738395Y-116997171D01*
X104833633Y-117044790D01*
X105214585Y-117044790D01*
X104262204Y-116616219D02*
X104214585Y-116568600D01*
X104119347Y-116520980D01*
X103881252Y-116520980D01*
X103786014Y-116568600D01*
X103738395Y-116616219D01*
X103690776Y-116711457D01*
X103690776Y-116806695D01*
X103738395Y-116949552D01*
X104309823Y-117520980D01*
X103690776Y-117520980D01*
X103357442Y-116520980D02*
X102738395Y-116520980D01*
X103071728Y-116901933D01*
X102928871Y-116901933D01*
X102833633Y-116949552D01*
X102786014Y-116997171D01*
X102738395Y-117092409D01*
X102738395Y-117330504D01*
X102786014Y-117425742D01*
X102833633Y-117473361D01*
X102928871Y-117520980D01*
X103214585Y-117520980D01*
X103309823Y-117473361D01*
X103357442Y-117425742D01*
X111282380Y-116157142D02*
X110806190Y-115823809D01*
X111282380Y-115585714D02*
X110282380Y-115585714D01*
X110282380Y-115966666D01*
X110330000Y-116061904D01*
X110377619Y-116109523D01*
X110472857Y-116157142D01*
X110615714Y-116157142D01*
X110710952Y-116109523D01*
X110758571Y-116061904D01*
X110806190Y-115966666D01*
X110806190Y-115585714D01*
X110282380Y-116490476D02*
X110282380Y-117109523D01*
X110663333Y-116776190D01*
X110663333Y-116919047D01*
X110710952Y-117014285D01*
X110758571Y-117061904D01*
X110853809Y-117109523D01*
X111091904Y-117109523D01*
X111187142Y-117061904D01*
X111234761Y-117014285D01*
X111282380Y-116919047D01*
X111282380Y-116633333D01*
X111234761Y-116538095D01*
X111187142Y-116490476D01*
X110282380Y-117442857D02*
X110282380Y-118061904D01*
X110663333Y-117728571D01*
X110663333Y-117871428D01*
X110710952Y-117966666D01*
X110758571Y-118014285D01*
X110853809Y-118061904D01*
X111091904Y-118061904D01*
X111187142Y-118014285D01*
X111234761Y-117966666D01*
X111282380Y-117871428D01*
X111282380Y-117585714D01*
X111234761Y-117490476D01*
X111187142Y-117442857D01*
X93232195Y-74569580D02*
X93232195Y-73569580D01*
X92994100Y-73569580D01*
X92851242Y-73617200D01*
X92756004Y-73712438D01*
X92708385Y-73807676D01*
X92660766Y-73998152D01*
X92660766Y-74141009D01*
X92708385Y-74331485D01*
X92756004Y-74426723D01*
X92851242Y-74521961D01*
X92994100Y-74569580D01*
X93232195Y-74569580D01*
X92327433Y-73569580D02*
X91708385Y-73569580D01*
X92041719Y-73950533D01*
X91898861Y-73950533D01*
X91803623Y-73998152D01*
X91756004Y-74045771D01*
X91708385Y-74141009D01*
X91708385Y-74379104D01*
X91756004Y-74474342D01*
X91803623Y-74521961D01*
X91898861Y-74569580D01*
X92184576Y-74569580D01*
X92279814Y-74521961D01*
X92327433Y-74474342D01*
X90163095Y-74480680D02*
X90163095Y-73480680D01*
X89925000Y-73480680D01*
X89782142Y-73528300D01*
X89686904Y-73623538D01*
X89639285Y-73718776D01*
X89591666Y-73909252D01*
X89591666Y-74052109D01*
X89639285Y-74242585D01*
X89686904Y-74337823D01*
X89782142Y-74433061D01*
X89925000Y-74480680D01*
X90163095Y-74480680D01*
X88734523Y-73814014D02*
X88734523Y-74480680D01*
X88972619Y-73433061D02*
X89210714Y-74147347D01*
X88591666Y-74147347D01*
X87586985Y-74467980D02*
X87586985Y-73467980D01*
X87348890Y-73467980D01*
X87206033Y-73515600D01*
X87110795Y-73610838D01*
X87063176Y-73706076D01*
X87015557Y-73896552D01*
X87015557Y-74039409D01*
X87063176Y-74229885D01*
X87110795Y-74325123D01*
X87206033Y-74420361D01*
X87348890Y-74467980D01*
X87586985Y-74467980D01*
X86063176Y-74467980D02*
X86634604Y-74467980D01*
X86348890Y-74467980D02*
X86348890Y-73467980D01*
X86444128Y-73610838D01*
X86539366Y-73706076D01*
X86634604Y-73753695D01*
X85444128Y-73467980D02*
X85348890Y-73467980D01*
X85253652Y-73515600D01*
X85206033Y-73563219D01*
X85158414Y-73658457D01*
X85110795Y-73848933D01*
X85110795Y-74087028D01*
X85158414Y-74277504D01*
X85206033Y-74372742D01*
X85253652Y-74420361D01*
X85348890Y-74467980D01*
X85444128Y-74467980D01*
X85539366Y-74420361D01*
X85586985Y-74372742D01*
X85634604Y-74277504D01*
X85682223Y-74087028D01*
X85682223Y-73848933D01*
X85634604Y-73658457D01*
X85586985Y-73563219D01*
X85539366Y-73515600D01*
X85444128Y-73467980D01*
D15*
X97721661Y-112918723D02*
X97721661Y-111648723D01*
X96391185Y-112797771D02*
X96451661Y-112858247D01*
X96633090Y-112918723D01*
X96754042Y-112918723D01*
X96935471Y-112858247D01*
X97056423Y-112737295D01*
X97116900Y-112616342D01*
X97177376Y-112374438D01*
X97177376Y-112193009D01*
X97116900Y-111951104D01*
X97056423Y-111830152D01*
X96935471Y-111709200D01*
X96754042Y-111648723D01*
X96633090Y-111648723D01*
X96451661Y-111709200D01*
X96391185Y-111769676D01*
X95181661Y-112918723D02*
X95907376Y-112918723D01*
X95544519Y-112918723D02*
X95544519Y-111648723D01*
X95665471Y-111830152D01*
X95786423Y-111951104D01*
X95907376Y-112011580D01*
X94075552Y-121701076D02*
X94196504Y-121640600D01*
X94317457Y-121519647D01*
X94498885Y-121338219D01*
X94619838Y-121277742D01*
X94740790Y-121277742D01*
X94680314Y-121580123D02*
X94801266Y-121519647D01*
X94922219Y-121398695D01*
X94982695Y-121156790D01*
X94982695Y-120733457D01*
X94922219Y-120491552D01*
X94801266Y-120370600D01*
X94680314Y-120310123D01*
X94438409Y-120310123D01*
X94317457Y-120370600D01*
X94196504Y-120491552D01*
X94136028Y-120733457D01*
X94136028Y-121156790D01*
X94196504Y-121398695D01*
X94317457Y-121519647D01*
X94438409Y-121580123D01*
X94680314Y-121580123D01*
X93652219Y-120431076D02*
X93591742Y-120370600D01*
X93470790Y-120310123D01*
X93168409Y-120310123D01*
X93047457Y-120370600D01*
X92986980Y-120431076D01*
X92926504Y-120552028D01*
X92926504Y-120672980D01*
X92986980Y-120854409D01*
X93712695Y-121580123D01*
X92926504Y-121580123D01*
D13*
X117141619Y-97339909D02*
X117189238Y-97316100D01*
X117236857Y-97268480D01*
X117308285Y-97197052D01*
X117355904Y-97173242D01*
X117403523Y-97173242D01*
X117379714Y-97292290D02*
X117427333Y-97268480D01*
X117474952Y-97220861D01*
X117498761Y-97125623D01*
X117498761Y-96958957D01*
X117474952Y-96863719D01*
X117427333Y-96816100D01*
X117379714Y-96792290D01*
X117284476Y-96792290D01*
X117236857Y-96816100D01*
X117189238Y-96863719D01*
X117165428Y-96958957D01*
X117165428Y-97125623D01*
X117189238Y-97220861D01*
X117236857Y-97268480D01*
X117284476Y-97292290D01*
X117379714Y-97292290D01*
X116689238Y-97292290D02*
X116974952Y-97292290D01*
X116832095Y-97292290D02*
X116832095Y-96792290D01*
X116879714Y-96863719D01*
X116927333Y-96911338D01*
X116974952Y-96935147D01*
D14*
X112022380Y-96457142D02*
X111546190Y-96123809D01*
X112022380Y-95885714D02*
X111022380Y-95885714D01*
X111022380Y-96266666D01*
X111070000Y-96361904D01*
X111117619Y-96409523D01*
X111212857Y-96457142D01*
X111355714Y-96457142D01*
X111450952Y-96409523D01*
X111498571Y-96361904D01*
X111546190Y-96266666D01*
X111546190Y-95885714D01*
X111022380Y-96790476D02*
X111022380Y-97409523D01*
X111403333Y-97076190D01*
X111403333Y-97219047D01*
X111450952Y-97314285D01*
X111498571Y-97361904D01*
X111593809Y-97409523D01*
X111831904Y-97409523D01*
X111927142Y-97361904D01*
X111974761Y-97314285D01*
X112022380Y-97219047D01*
X112022380Y-96933333D01*
X111974761Y-96838095D01*
X111927142Y-96790476D01*
X111022380Y-98266666D02*
X111022380Y-98076190D01*
X111070000Y-97980952D01*
X111117619Y-97933333D01*
X111260476Y-97838095D01*
X111450952Y-97790476D01*
X111831904Y-97790476D01*
X111927142Y-97838095D01*
X111974761Y-97885714D01*
X112022380Y-97980952D01*
X112022380Y-98171428D01*
X111974761Y-98266666D01*
X111927142Y-98314285D01*
X111831904Y-98361904D01*
X111593809Y-98361904D01*
X111498571Y-98314285D01*
X111450952Y-98266666D01*
X111403333Y-98171428D01*
X111403333Y-97980952D01*
X111450952Y-97885714D01*
X111498571Y-97838095D01*
X111593809Y-97790476D01*
X87523557Y-120207042D02*
X87571176Y-120254661D01*
X87714033Y-120302280D01*
X87809271Y-120302280D01*
X87952128Y-120254661D01*
X88047366Y-120159423D01*
X88094985Y-120064185D01*
X88142604Y-119873709D01*
X88142604Y-119730852D01*
X88094985Y-119540376D01*
X88047366Y-119445138D01*
X87952128Y-119349900D01*
X87809271Y-119302280D01*
X87714033Y-119302280D01*
X87571176Y-119349900D01*
X87523557Y-119397519D01*
X87142604Y-119397519D02*
X87094985Y-119349900D01*
X86999747Y-119302280D01*
X86761652Y-119302280D01*
X86666414Y-119349900D01*
X86618795Y-119397519D01*
X86571176Y-119492757D01*
X86571176Y-119587995D01*
X86618795Y-119730852D01*
X87190223Y-120302280D01*
X86571176Y-120302280D01*
X86237842Y-119302280D02*
X85571176Y-119302280D01*
X85999747Y-120302280D01*
X93749857Y-113685557D02*
X93702238Y-113733176D01*
X93654619Y-113876033D01*
X93654619Y-113971271D01*
X93702238Y-114114128D01*
X93797476Y-114209366D01*
X93892714Y-114256985D01*
X94083190Y-114304604D01*
X94226047Y-114304604D01*
X94416523Y-114256985D01*
X94511761Y-114209366D01*
X94607000Y-114114128D01*
X94654619Y-113971271D01*
X94654619Y-113876033D01*
X94607000Y-113733176D01*
X94559380Y-113685557D01*
X94559380Y-113304604D02*
X94607000Y-113256985D01*
X94654619Y-113161747D01*
X94654619Y-112923652D01*
X94607000Y-112828414D01*
X94559380Y-112780795D01*
X94464142Y-112733176D01*
X94368904Y-112733176D01*
X94226047Y-112780795D01*
X93654619Y-113352223D01*
X93654619Y-112733176D01*
X94226047Y-112161747D02*
X94273666Y-112256985D01*
X94321285Y-112304604D01*
X94416523Y-112352223D01*
X94464142Y-112352223D01*
X94559380Y-112304604D01*
X94607000Y-112256985D01*
X94654619Y-112161747D01*
X94654619Y-111971271D01*
X94607000Y-111876033D01*
X94559380Y-111828414D01*
X94464142Y-111780795D01*
X94416523Y-111780795D01*
X94321285Y-111828414D01*
X94273666Y-111876033D01*
X94226047Y-111971271D01*
X94226047Y-112161747D01*
X94178428Y-112256985D01*
X94130809Y-112304604D01*
X94035571Y-112352223D01*
X93845095Y-112352223D01*
X93749857Y-112304604D01*
X93702238Y-112256985D01*
X93654619Y-112161747D01*
X93654619Y-111971271D01*
X93702238Y-111876033D01*
X93749857Y-111828414D01*
X93845095Y-111780795D01*
X94035571Y-111780795D01*
X94130809Y-111828414D01*
X94178428Y-111876033D01*
X94226047Y-111971271D01*
X107108333Y-123883571D02*
X107441666Y-123883571D01*
X107441666Y-124407380D02*
X107441666Y-123407380D01*
X106965476Y-123407380D01*
X106060714Y-124407380D02*
X106632142Y-124407380D01*
X106346428Y-124407380D02*
X106346428Y-123407380D01*
X106441666Y-123550238D01*
X106536904Y-123645476D01*
X106632142Y-123693095D01*
X110077238Y-110224819D02*
X110172476Y-110177200D01*
X110267714Y-110081961D01*
X110410571Y-109939104D01*
X110505809Y-109891485D01*
X110601047Y-109891485D01*
X110553428Y-110129580D02*
X110648666Y-110081961D01*
X110743904Y-109986723D01*
X110791523Y-109796247D01*
X110791523Y-109462914D01*
X110743904Y-109272438D01*
X110648666Y-109177200D01*
X110553428Y-109129580D01*
X110362952Y-109129580D01*
X110267714Y-109177200D01*
X110172476Y-109272438D01*
X110124857Y-109462914D01*
X110124857Y-109796247D01*
X110172476Y-109986723D01*
X110267714Y-110081961D01*
X110362952Y-110129580D01*
X110553428Y-110129580D01*
X109791523Y-109129580D02*
X109124857Y-109129580D01*
X109553428Y-110129580D01*
X114758766Y-95118180D02*
X115092100Y-94641990D01*
X115330195Y-95118180D02*
X115330195Y-94118180D01*
X114949242Y-94118180D01*
X114854004Y-94165800D01*
X114806385Y-94213419D01*
X114758766Y-94308657D01*
X114758766Y-94451514D01*
X114806385Y-94546752D01*
X114854004Y-94594371D01*
X114949242Y-94641990D01*
X115330195Y-94641990D01*
X114425433Y-94118180D02*
X113758766Y-94118180D01*
X114187338Y-95118180D01*
X89060280Y-123067842D02*
X88584090Y-122734509D01*
X89060280Y-122496414D02*
X88060280Y-122496414D01*
X88060280Y-122877366D01*
X88107900Y-122972604D01*
X88155519Y-123020223D01*
X88250757Y-123067842D01*
X88393614Y-123067842D01*
X88488852Y-123020223D01*
X88536471Y-122972604D01*
X88584090Y-122877366D01*
X88584090Y-122496414D01*
X89060280Y-124020223D02*
X89060280Y-123448795D01*
X89060280Y-123734509D02*
X88060280Y-123734509D01*
X88203138Y-123639271D01*
X88298376Y-123544033D01*
X88345995Y-123448795D01*
X88060280Y-124639271D02*
X88060280Y-124734509D01*
X88107900Y-124829747D01*
X88155519Y-124877366D01*
X88250757Y-124924985D01*
X88441233Y-124972604D01*
X88679328Y-124972604D01*
X88869804Y-124924985D01*
X88965042Y-124877366D01*
X89012661Y-124829747D01*
X89060280Y-124734509D01*
X89060280Y-124639271D01*
X89012661Y-124544033D01*
X88965042Y-124496414D01*
X88869804Y-124448795D01*
X88679328Y-124401176D01*
X88441233Y-124401176D01*
X88250757Y-124448795D01*
X88155519Y-124496414D01*
X88107900Y-124544033D01*
X88060280Y-124639271D01*
X104630457Y-114726980D02*
X104963790Y-114250790D01*
X105201885Y-114726980D02*
X105201885Y-113726980D01*
X104820933Y-113726980D01*
X104725695Y-113774600D01*
X104678076Y-113822219D01*
X104630457Y-113917457D01*
X104630457Y-114060314D01*
X104678076Y-114155552D01*
X104725695Y-114203171D01*
X104820933Y-114250790D01*
X105201885Y-114250790D01*
X103678076Y-114726980D02*
X104249504Y-114726980D01*
X103963790Y-114726980D02*
X103963790Y-113726980D01*
X104059028Y-113869838D01*
X104154266Y-113965076D01*
X104249504Y-114012695D01*
X103106647Y-114155552D02*
X103201885Y-114107933D01*
X103249504Y-114060314D01*
X103297123Y-113965076D01*
X103297123Y-113917457D01*
X103249504Y-113822219D01*
X103201885Y-113774600D01*
X103106647Y-113726980D01*
X102916171Y-113726980D01*
X102820933Y-113774600D01*
X102773314Y-113822219D01*
X102725695Y-113917457D01*
X102725695Y-113965076D01*
X102773314Y-114060314D01*
X102820933Y-114107933D01*
X102916171Y-114155552D01*
X103106647Y-114155552D01*
X103201885Y-114203171D01*
X103249504Y-114250790D01*
X103297123Y-114346028D01*
X103297123Y-114536504D01*
X103249504Y-114631742D01*
X103201885Y-114679361D01*
X103106647Y-114726980D01*
X102916171Y-114726980D01*
X102820933Y-114679361D01*
X102773314Y-114631742D01*
X102725695Y-114536504D01*
X102725695Y-114346028D01*
X102773314Y-114250790D01*
X102820933Y-114203171D01*
X102916171Y-114155552D01*
X111282380Y-119157142D02*
X110806190Y-118823809D01*
X111282380Y-118585714D02*
X110282380Y-118585714D01*
X110282380Y-118966666D01*
X110330000Y-119061904D01*
X110377619Y-119109523D01*
X110472857Y-119157142D01*
X110615714Y-119157142D01*
X110710952Y-119109523D01*
X110758571Y-119061904D01*
X110806190Y-118966666D01*
X110806190Y-118585714D01*
X110377619Y-119538095D02*
X110330000Y-119585714D01*
X110282380Y-119680952D01*
X110282380Y-119919047D01*
X110330000Y-120014285D01*
X110377619Y-120061904D01*
X110472857Y-120109523D01*
X110568095Y-120109523D01*
X110710952Y-120061904D01*
X111282380Y-119490476D01*
X111282380Y-120109523D01*
X110615714Y-120966666D02*
X111282380Y-120966666D01*
X110234761Y-120728571D02*
X110949047Y-120490476D01*
X110949047Y-121109523D01*
X83751657Y-112402880D02*
X84084990Y-111926690D01*
X84323085Y-112402880D02*
X84323085Y-111402880D01*
X83942133Y-111402880D01*
X83846895Y-111450500D01*
X83799276Y-111498119D01*
X83751657Y-111593357D01*
X83751657Y-111736214D01*
X83799276Y-111831452D01*
X83846895Y-111879071D01*
X83942133Y-111926690D01*
X84323085Y-111926690D01*
X82846895Y-111402880D02*
X83323085Y-111402880D01*
X83370704Y-111879071D01*
X83323085Y-111831452D01*
X83227847Y-111783833D01*
X82989752Y-111783833D01*
X82894514Y-111831452D01*
X82846895Y-111879071D01*
X82799276Y-111974309D01*
X82799276Y-112212404D01*
X82846895Y-112307642D01*
X82894514Y-112355261D01*
X82989752Y-112402880D01*
X83227847Y-112402880D01*
X83323085Y-112355261D01*
X83370704Y-112307642D01*
X82418323Y-111498119D02*
X82370704Y-111450500D01*
X82275466Y-111402880D01*
X82037371Y-111402880D01*
X81942133Y-111450500D01*
X81894514Y-111498119D01*
X81846895Y-111593357D01*
X81846895Y-111688595D01*
X81894514Y-111831452D01*
X82465942Y-112402880D01*
X81846895Y-112402880D01*
X90736657Y-129687580D02*
X91069990Y-129211390D01*
X91308085Y-129687580D02*
X91308085Y-128687580D01*
X90927133Y-128687580D01*
X90831895Y-128735200D01*
X90784276Y-128782819D01*
X90736657Y-128878057D01*
X90736657Y-129020914D01*
X90784276Y-129116152D01*
X90831895Y-129163771D01*
X90927133Y-129211390D01*
X91308085Y-129211390D01*
X89879514Y-128687580D02*
X90069990Y-128687580D01*
X90165228Y-128735200D01*
X90212847Y-128782819D01*
X90308085Y-128925676D01*
X90355704Y-129116152D01*
X90355704Y-129497104D01*
X90308085Y-129592342D01*
X90260466Y-129639961D01*
X90165228Y-129687580D01*
X89974752Y-129687580D01*
X89879514Y-129639961D01*
X89831895Y-129592342D01*
X89784276Y-129497104D01*
X89784276Y-129259009D01*
X89831895Y-129163771D01*
X89879514Y-129116152D01*
X89974752Y-129068533D01*
X90165228Y-129068533D01*
X90260466Y-129116152D01*
X90308085Y-129163771D01*
X90355704Y-129259009D01*
X89403323Y-128782819D02*
X89355704Y-128735200D01*
X89260466Y-128687580D01*
X89022371Y-128687580D01*
X88927133Y-128735200D01*
X88879514Y-128782819D01*
X88831895Y-128878057D01*
X88831895Y-128973295D01*
X88879514Y-129116152D01*
X89450942Y-129687580D01*
X88831895Y-129687580D01*
X104617757Y-112974380D02*
X104951090Y-112498190D01*
X105189185Y-112974380D02*
X105189185Y-111974380D01*
X104808233Y-111974380D01*
X104712995Y-112022000D01*
X104665376Y-112069619D01*
X104617757Y-112164857D01*
X104617757Y-112307714D01*
X104665376Y-112402952D01*
X104712995Y-112450571D01*
X104808233Y-112498190D01*
X105189185Y-112498190D01*
X104284423Y-111974380D02*
X103617757Y-111974380D01*
X104046328Y-112974380D01*
X102712995Y-112974380D02*
X103284423Y-112974380D01*
X102998709Y-112974380D02*
X102998709Y-111974380D01*
X103093947Y-112117238D01*
X103189185Y-112212476D01*
X103284423Y-112260095D01*
X97202380Y-108314285D02*
X97202380Y-108885714D01*
X98202380Y-108600000D02*
X97202380Y-108600000D01*
X98202380Y-109219047D02*
X97202380Y-109219047D01*
X97678571Y-109219047D02*
X97678571Y-109790476D01*
X98202380Y-109790476D02*
X97202380Y-109790476D01*
X97297619Y-110219047D02*
X97250000Y-110266666D01*
X97202380Y-110361904D01*
X97202380Y-110600000D01*
X97250000Y-110695238D01*
X97297619Y-110742857D01*
X97392857Y-110790476D01*
X97488095Y-110790476D01*
X97630952Y-110742857D01*
X98202380Y-110171428D01*
X98202380Y-110790476D01*
X108326157Y-108726242D02*
X108373776Y-108773861D01*
X108516633Y-108821480D01*
X108611871Y-108821480D01*
X108754728Y-108773861D01*
X108849966Y-108678623D01*
X108897585Y-108583385D01*
X108945204Y-108392909D01*
X108945204Y-108250052D01*
X108897585Y-108059576D01*
X108849966Y-107964338D01*
X108754728Y-107869100D01*
X108611871Y-107821480D01*
X108516633Y-107821480D01*
X108373776Y-107869100D01*
X108326157Y-107916719D01*
X107992823Y-107821480D02*
X107373776Y-107821480D01*
X107707109Y-108202433D01*
X107564252Y-108202433D01*
X107469014Y-108250052D01*
X107421395Y-108297671D01*
X107373776Y-108392909D01*
X107373776Y-108631004D01*
X107421395Y-108726242D01*
X107469014Y-108773861D01*
X107564252Y-108821480D01*
X107849966Y-108821480D01*
X107945204Y-108773861D01*
X107992823Y-108726242D01*
X106992823Y-107916719D02*
X106945204Y-107869100D01*
X106849966Y-107821480D01*
X106611871Y-107821480D01*
X106516633Y-107869100D01*
X106469014Y-107916719D01*
X106421395Y-108011957D01*
X106421395Y-108107195D01*
X106469014Y-108250052D01*
X107040442Y-108821480D01*
X106421395Y-108821480D01*
D13*
X110227228Y-103134290D02*
X110393895Y-102896195D01*
X110512942Y-103134290D02*
X110512942Y-102634290D01*
X110322466Y-102634290D01*
X110274847Y-102658100D01*
X110251038Y-102681909D01*
X110227228Y-102729528D01*
X110227228Y-102800957D01*
X110251038Y-102848576D01*
X110274847Y-102872385D01*
X110322466Y-102896195D01*
X110512942Y-102896195D01*
X109798657Y-102634290D02*
X109893895Y-102634290D01*
X109941514Y-102658100D01*
X109965323Y-102681909D01*
X110012942Y-102753338D01*
X110036752Y-102848576D01*
X110036752Y-103039052D01*
X110012942Y-103086671D01*
X109989133Y-103110480D01*
X109941514Y-103134290D01*
X109846276Y-103134290D01*
X109798657Y-103110480D01*
X109774847Y-103086671D01*
X109751038Y-103039052D01*
X109751038Y-102920004D01*
X109774847Y-102872385D01*
X109798657Y-102848576D01*
X109846276Y-102824766D01*
X109941514Y-102824766D01*
X109989133Y-102848576D01*
X110012942Y-102872385D01*
X110036752Y-102920004D01*
X109322466Y-102634290D02*
X109417704Y-102634290D01*
X109465323Y-102658100D01*
X109489133Y-102681909D01*
X109536752Y-102753338D01*
X109560561Y-102848576D01*
X109560561Y-103039052D01*
X109536752Y-103086671D01*
X109512942Y-103110480D01*
X109465323Y-103134290D01*
X109370085Y-103134290D01*
X109322466Y-103110480D01*
X109298657Y-103086671D01*
X109274847Y-103039052D01*
X109274847Y-102920004D01*
X109298657Y-102872385D01*
X109322466Y-102848576D01*
X109370085Y-102824766D01*
X109465323Y-102824766D01*
X109512942Y-102848576D01*
X109536752Y-102872385D01*
X109560561Y-102920004D01*
D14*
X101290357Y-120556280D02*
X101623690Y-120080090D01*
X101861785Y-120556280D02*
X101861785Y-119556280D01*
X101480833Y-119556280D01*
X101385595Y-119603900D01*
X101337976Y-119651519D01*
X101290357Y-119746757D01*
X101290357Y-119889614D01*
X101337976Y-119984852D01*
X101385595Y-120032471D01*
X101480833Y-120080090D01*
X101861785Y-120080090D01*
X100957023Y-119556280D02*
X100290357Y-119556280D01*
X100718928Y-120556280D01*
X99718928Y-119556280D02*
X99623690Y-119556280D01*
X99528452Y-119603900D01*
X99480833Y-119651519D01*
X99433214Y-119746757D01*
X99385595Y-119937233D01*
X99385595Y-120175328D01*
X99433214Y-120365804D01*
X99480833Y-120461042D01*
X99528452Y-120508661D01*
X99623690Y-120556280D01*
X99718928Y-120556280D01*
X99814166Y-120508661D01*
X99861785Y-120461042D01*
X99909404Y-120365804D01*
X99957023Y-120175328D01*
X99957023Y-119937233D01*
X99909404Y-119746757D01*
X99861785Y-119651519D01*
X99814166Y-119603900D01*
X99718928Y-119556280D01*
X96659937Y-88975180D02*
X96993270Y-88498990D01*
X97231365Y-88975180D02*
X97231365Y-87975180D01*
X96850413Y-87975180D01*
X96755175Y-88022800D01*
X96707556Y-88070419D01*
X96659937Y-88165657D01*
X96659937Y-88308514D01*
X96707556Y-88403752D01*
X96755175Y-88451371D01*
X96850413Y-88498990D01*
X97231365Y-88498990D01*
X96278984Y-88070419D02*
X96231365Y-88022800D01*
X96136127Y-87975180D01*
X95898032Y-87975180D01*
X95802794Y-88022800D01*
X95755175Y-88070419D01*
X95707556Y-88165657D01*
X95707556Y-88260895D01*
X95755175Y-88403752D01*
X96326603Y-88975180D01*
X95707556Y-88975180D01*
X95374222Y-87975180D02*
X94707556Y-87975180D01*
X95136127Y-88975180D01*
X108145817Y-91855540D02*
X108479150Y-91379350D01*
X108717245Y-91855540D02*
X108717245Y-90855540D01*
X108336293Y-90855540D01*
X108241055Y-90903160D01*
X108193436Y-90950779D01*
X108145817Y-91046017D01*
X108145817Y-91188874D01*
X108193436Y-91284112D01*
X108241055Y-91331731D01*
X108336293Y-91379350D01*
X108717245Y-91379350D01*
X107812483Y-90855540D02*
X107193436Y-90855540D01*
X107526769Y-91236493D01*
X107383912Y-91236493D01*
X107288674Y-91284112D01*
X107241055Y-91331731D01*
X107193436Y-91426969D01*
X107193436Y-91665064D01*
X107241055Y-91760302D01*
X107288674Y-91807921D01*
X107383912Y-91855540D01*
X107669626Y-91855540D01*
X107764864Y-91807921D01*
X107812483Y-91760302D01*
X106812483Y-90950779D02*
X106764864Y-90903160D01*
X106669626Y-90855540D01*
X106431531Y-90855540D01*
X106336293Y-90903160D01*
X106288674Y-90950779D01*
X106241055Y-91046017D01*
X106241055Y-91141255D01*
X106288674Y-91284112D01*
X106860102Y-91855540D01*
X106241055Y-91855540D01*
D15*
X116099380Y-103070523D02*
X116099380Y-101800523D01*
X115797000Y-101800523D01*
X115615571Y-101861000D01*
X115494619Y-101981952D01*
X115434142Y-102102904D01*
X115373666Y-102344809D01*
X115373666Y-102526238D01*
X115434142Y-102768142D01*
X115494619Y-102889095D01*
X115615571Y-103010047D01*
X115797000Y-103070523D01*
X116099380Y-103070523D01*
X114224619Y-101800523D02*
X114829380Y-101800523D01*
X114889857Y-102405285D01*
X114829380Y-102344809D01*
X114708428Y-102284333D01*
X114406047Y-102284333D01*
X114285095Y-102344809D01*
X114224619Y-102405285D01*
X114164142Y-102526238D01*
X114164142Y-102828619D01*
X114224619Y-102949571D01*
X114285095Y-103010047D01*
X114406047Y-103070523D01*
X114708428Y-103070523D01*
X114829380Y-103010047D01*
X114889857Y-102949571D01*
X117033523Y-99598238D02*
X115763523Y-99598238D01*
X116912571Y-100928714D02*
X116973047Y-100868238D01*
X117033523Y-100686809D01*
X117033523Y-100565857D01*
X116973047Y-100384428D01*
X116852095Y-100263476D01*
X116731142Y-100203000D01*
X116489238Y-100142523D01*
X116307809Y-100142523D01*
X116065904Y-100203000D01*
X115944952Y-100263476D01*
X115824000Y-100384428D01*
X115763523Y-100565857D01*
X115763523Y-100686809D01*
X115824000Y-100868238D01*
X115884476Y-100928714D01*
X115763523Y-101352047D02*
X115763523Y-102138238D01*
X116247333Y-101714904D01*
X116247333Y-101896333D01*
X116307809Y-102017285D01*
X116368285Y-102077761D01*
X116489238Y-102138238D01*
X116791619Y-102138238D01*
X116912571Y-102077761D01*
X116973047Y-102017285D01*
X117033523Y-101896333D01*
X117033523Y-101533476D01*
X116973047Y-101412523D01*
X116912571Y-101352047D01*
M02*
