G04 #@! TF.GenerationSoftware,KiCad,Pcbnew,(5.1.6)-1*
G04 #@! TF.CreationDate,2021-04-23T11:59:38+02:00*
G04 #@! TF.ProjectId,rysboard,72797362-6f61-4726-942e-6b696361645f,4.2*
G04 #@! TF.SameCoordinates,Original*
G04 #@! TF.FileFunction,Soldermask,Top*
G04 #@! TF.FilePolarity,Negative*
%FSLAX46Y46*%
G04 Gerber Fmt 4.6, Leading zero omitted, Abs format (unit mm)*
G04 Created by KiCad (PCBNEW (5.1.6)-1) date 2021-04-23 11:59:38*
%MOMM*%
%LPD*%
G01*
G04 APERTURE LIST*
%ADD10R,0.600000X0.250000*%
%ADD11R,2.500000X0.650000*%
%ADD12R,0.600000X0.800000*%
%ADD13R,0.900000X1.350000*%
%ADD14R,0.500000X0.800000*%
%ADD15R,0.500000X1.050000*%
%ADD16R,1.060000X0.650000*%
%ADD17O,1.500000X2.020000*%
%ADD18C,1.270000*%
%ADD19R,3.500000X2.300000*%
%ADD20C,5.400000*%
%ADD21R,1.205000X1.550000*%
%ADD22R,1.910000X0.610000*%
%ADD23R,2.500000X2.300000*%
%ADD24R,3.400000X9.500000*%
%ADD25R,1.100000X0.400000*%
%ADD26O,0.800000X1.300000*%
%ADD27O,1.700000X1.700000*%
%ADD28R,1.700000X1.700000*%
%ADD29C,1.500000*%
%ADD30C,1.000000*%
%ADD31R,0.800000X0.900000*%
%ADD32R,0.700000X1.050000*%
%ADD33R,0.700000X0.520000*%
%ADD34R,1.100000X1.100000*%
%ADD35R,0.200000X0.200000*%
%ADD36R,3.810000X1.650000*%
%ADD37R,1.020000X0.610000*%
%ADD38R,1.270000X0.610000*%
%ADD39R,1.650000X3.810000*%
%ADD40R,0.610000X1.020000*%
%ADD41R,0.610000X1.270000*%
%ADD42R,1.000000X0.600000*%
%ADD43R,0.500000X0.350000*%
%ADD44O,0.850000X0.850000*%
%ADD45R,0.850000X0.850000*%
G04 APERTURE END LIST*
D10*
X121810000Y-127370000D03*
D11*
X121810000Y-127820000D03*
D12*
X122760000Y-128520000D03*
D13*
X122760000Y-126375000D03*
D14*
X121810000Y-128520000D03*
D15*
X121810000Y-126225000D03*
D12*
X120860000Y-128520000D03*
D13*
X120860000Y-126375000D03*
D16*
X112156000Y-114650000D03*
X112156000Y-115600000D03*
X112156000Y-113700000D03*
X114356000Y-113700000D03*
X114356000Y-114650000D03*
X114356000Y-115600000D03*
D17*
X115400000Y-94025000D03*
X118400000Y-94025000D03*
X121400000Y-94025000D03*
G36*
G01*
X125150000Y-93265000D02*
X125150000Y-94785000D01*
G75*
G02*
X124900000Y-95035000I-250000J0D01*
G01*
X123900000Y-95035000D01*
G75*
G02*
X123650000Y-94785000I0J250000D01*
G01*
X123650000Y-93265000D01*
G75*
G02*
X123900000Y-93015000I250000J0D01*
G01*
X124900000Y-93015000D01*
G75*
G02*
X125150000Y-93265000I0J-250000D01*
G01*
G37*
D18*
X112400000Y-95985000D03*
X127400000Y-95985000D03*
D19*
X111050000Y-109600000D03*
X111050000Y-103600000D03*
G36*
G01*
X106045000Y-108525000D02*
X104795000Y-108525000D01*
G75*
G02*
X104545000Y-108275000I0J250000D01*
G01*
X104545000Y-107525000D01*
G75*
G02*
X104795000Y-107275000I250000J0D01*
G01*
X106045000Y-107275000D01*
G75*
G02*
X106295000Y-107525000I0J-250000D01*
G01*
X106295000Y-108275000D01*
G75*
G02*
X106045000Y-108525000I-250000J0D01*
G01*
G37*
G36*
G01*
X106045000Y-111325000D02*
X104795000Y-111325000D01*
G75*
G02*
X104545000Y-111075000I0J250000D01*
G01*
X104545000Y-110325000D01*
G75*
G02*
X104795000Y-110075000I250000J0D01*
G01*
X106045000Y-110075000D01*
G75*
G02*
X106295000Y-110325000I0J-250000D01*
G01*
X106295000Y-111075000D01*
G75*
G02*
X106045000Y-111325000I-250000J0D01*
G01*
G37*
D20*
X127800000Y-127150000D03*
X78800000Y-69150000D03*
X78800000Y-127150000D03*
D17*
X115400000Y-78640000D03*
X118400000Y-78640000D03*
X121400000Y-78640000D03*
G36*
G01*
X125150000Y-77880000D02*
X125150000Y-79400000D01*
G75*
G02*
X124900000Y-79650000I-250000J0D01*
G01*
X123900000Y-79650000D01*
G75*
G02*
X123650000Y-79400000I0J250000D01*
G01*
X123650000Y-77880000D01*
G75*
G02*
X123900000Y-77630000I250000J0D01*
G01*
X124900000Y-77630000D01*
G75*
G02*
X125150000Y-77880000I0J-250000D01*
G01*
G37*
D18*
X112400000Y-80600000D03*
X127400000Y-80600000D03*
D21*
X98653500Y-109257000D03*
X98653500Y-110807000D03*
X99858500Y-109257000D03*
X99858500Y-110807000D03*
D22*
X102036000Y-108127000D03*
X102036000Y-109397000D03*
X102036000Y-110667000D03*
X102036000Y-111937000D03*
X96476000Y-111937000D03*
X96476000Y-110667000D03*
X96476000Y-109397000D03*
X96476000Y-108127000D03*
D23*
X105650000Y-104300000D03*
X101350000Y-104300000D03*
D24*
X100950000Y-76500000D03*
D25*
X98100000Y-80725000D03*
X98100000Y-80075000D03*
X98100000Y-79425000D03*
X98100000Y-78775000D03*
X98100000Y-78125000D03*
X98100000Y-77475000D03*
X98100000Y-76825000D03*
X98100000Y-76175000D03*
X98100000Y-75525000D03*
X98100000Y-74875000D03*
X98100000Y-74225000D03*
X98100000Y-73575000D03*
X98100000Y-72925000D03*
X98100000Y-72275000D03*
X103800000Y-72275000D03*
X103800000Y-72925000D03*
X103800000Y-73575000D03*
X103800000Y-74225000D03*
X103800000Y-74875000D03*
X103800000Y-75525000D03*
X103800000Y-76175000D03*
X103800000Y-76825000D03*
X103800000Y-77475000D03*
X103800000Y-78125000D03*
X103800000Y-78775000D03*
X103800000Y-79425000D03*
X103800000Y-80075000D03*
X103800000Y-80725000D03*
D24*
X100950000Y-95375000D03*
D25*
X98100000Y-99600000D03*
X98100000Y-98950000D03*
X98100000Y-98300000D03*
X98100000Y-97650000D03*
X98100000Y-97000000D03*
X98100000Y-96350000D03*
X98100000Y-95700000D03*
X98100000Y-95050000D03*
X98100000Y-94400000D03*
X98100000Y-93750000D03*
X98100000Y-93100000D03*
X98100000Y-92450000D03*
X98100000Y-91800000D03*
X98100000Y-91150000D03*
X103800000Y-91150000D03*
X103800000Y-91800000D03*
X103800000Y-92450000D03*
X103800000Y-93100000D03*
X103800000Y-93750000D03*
X103800000Y-94400000D03*
X103800000Y-95050000D03*
X103800000Y-95700000D03*
X103800000Y-96350000D03*
X103800000Y-97000000D03*
X103800000Y-97650000D03*
X103800000Y-98300000D03*
X103800000Y-98950000D03*
X103800000Y-99600000D03*
D26*
X89492000Y-104990000D03*
X88242000Y-104990000D03*
X86992000Y-104990000D03*
X85742000Y-104990000D03*
G36*
G01*
X84092000Y-105440000D02*
X84092000Y-104540000D01*
G75*
G02*
X84292000Y-104340000I200000J0D01*
G01*
X84692000Y-104340000D01*
G75*
G02*
X84892000Y-104540000I0J-200000D01*
G01*
X84892000Y-105440000D01*
G75*
G02*
X84692000Y-105640000I-200000J0D01*
G01*
X84292000Y-105640000D01*
G75*
G02*
X84092000Y-105440000I0J200000D01*
G01*
G37*
X89492000Y-79082000D03*
X88242000Y-79082000D03*
X86992000Y-79082000D03*
X85742000Y-79082000D03*
G36*
G01*
X84092000Y-79532000D02*
X84092000Y-78632000D01*
G75*
G02*
X84292000Y-78432000I200000J0D01*
G01*
X84692000Y-78432000D01*
G75*
G02*
X84892000Y-78632000I0J-200000D01*
G01*
X84892000Y-79532000D01*
G75*
G02*
X84692000Y-79732000I-200000J0D01*
G01*
X84292000Y-79732000D01*
G75*
G02*
X84092000Y-79532000I0J200000D01*
G01*
G37*
X89492000Y-83400000D03*
X88242000Y-83400000D03*
X86992000Y-83400000D03*
X85742000Y-83400000D03*
G36*
G01*
X84092000Y-83850000D02*
X84092000Y-82950000D01*
G75*
G02*
X84292000Y-82750000I200000J0D01*
G01*
X84692000Y-82750000D01*
G75*
G02*
X84892000Y-82950000I0J-200000D01*
G01*
X84892000Y-83850000D01*
G75*
G02*
X84692000Y-84050000I-200000J0D01*
G01*
X84292000Y-84050000D01*
G75*
G02*
X84092000Y-83850000I0J200000D01*
G01*
G37*
X89492000Y-87718000D03*
X88242000Y-87718000D03*
X86992000Y-87718000D03*
X85742000Y-87718000D03*
G36*
G01*
X84092000Y-88168000D02*
X84092000Y-87268000D01*
G75*
G02*
X84292000Y-87068000I200000J0D01*
G01*
X84692000Y-87068000D01*
G75*
G02*
X84892000Y-87268000I0J-200000D01*
G01*
X84892000Y-88168000D01*
G75*
G02*
X84692000Y-88368000I-200000J0D01*
G01*
X84292000Y-88368000D01*
G75*
G02*
X84092000Y-88168000I0J200000D01*
G01*
G37*
X89492000Y-92036000D03*
X88242000Y-92036000D03*
X86992000Y-92036000D03*
X85742000Y-92036000D03*
G36*
G01*
X84092000Y-92486000D02*
X84092000Y-91586000D01*
G75*
G02*
X84292000Y-91386000I200000J0D01*
G01*
X84692000Y-91386000D01*
G75*
G02*
X84892000Y-91586000I0J-200000D01*
G01*
X84892000Y-92486000D01*
G75*
G02*
X84692000Y-92686000I-200000J0D01*
G01*
X84292000Y-92686000D01*
G75*
G02*
X84092000Y-92486000I0J200000D01*
G01*
G37*
X89492000Y-96354000D03*
X88242000Y-96354000D03*
X86992000Y-96354000D03*
X85742000Y-96354000D03*
G36*
G01*
X84092000Y-96804000D02*
X84092000Y-95904000D01*
G75*
G02*
X84292000Y-95704000I200000J0D01*
G01*
X84692000Y-95704000D01*
G75*
G02*
X84892000Y-95904000I0J-200000D01*
G01*
X84892000Y-96804000D01*
G75*
G02*
X84692000Y-97004000I-200000J0D01*
G01*
X84292000Y-97004000D01*
G75*
G02*
X84092000Y-96804000I0J200000D01*
G01*
G37*
X89492000Y-100672000D03*
X88242000Y-100672000D03*
X86992000Y-100672000D03*
X85742000Y-100672000D03*
G36*
G01*
X84092000Y-101122000D02*
X84092000Y-100222000D01*
G75*
G02*
X84292000Y-100022000I200000J0D01*
G01*
X84692000Y-100022000D01*
G75*
G02*
X84892000Y-100222000I0J-200000D01*
G01*
X84892000Y-101122000D01*
G75*
G02*
X84692000Y-101322000I-200000J0D01*
G01*
X84292000Y-101322000D01*
G75*
G02*
X84092000Y-101122000I0J200000D01*
G01*
G37*
D27*
X77524500Y-74011100D03*
X80064500Y-74011100D03*
X77524500Y-76551100D03*
X80064500Y-76551100D03*
X77524500Y-79091100D03*
X80064500Y-79091100D03*
X77524500Y-81631100D03*
X80064500Y-81631100D03*
X77524500Y-84171100D03*
X80064500Y-84171100D03*
X77524500Y-86711100D03*
X80064500Y-86711100D03*
X77524500Y-89251100D03*
X80064500Y-89251100D03*
X77524500Y-91791100D03*
X80064500Y-91791100D03*
X77524500Y-94331100D03*
X80064500Y-94331100D03*
X77524500Y-96871100D03*
X80064500Y-96871100D03*
X77524500Y-99411100D03*
X80064500Y-99411100D03*
X77524500Y-101951100D03*
X80064500Y-101951100D03*
X77524500Y-104491100D03*
X80064500Y-104491100D03*
X77524500Y-107031100D03*
X80064500Y-107031100D03*
X77524500Y-109571100D03*
X80064500Y-109571100D03*
X77524500Y-112111100D03*
X80064500Y-112111100D03*
X77524500Y-114651100D03*
X80064500Y-114651100D03*
X77524500Y-117191100D03*
X80064500Y-117191100D03*
X77524500Y-119731100D03*
X80064500Y-119731100D03*
X77524500Y-122271100D03*
D28*
X80064500Y-122271100D03*
G36*
G01*
X97925000Y-105075000D02*
X99175000Y-105075000D01*
G75*
G02*
X99425000Y-105325000I0J-250000D01*
G01*
X99425000Y-106075000D01*
G75*
G02*
X99175000Y-106325000I-250000J0D01*
G01*
X97925000Y-106325000D01*
G75*
G02*
X97675000Y-106075000I0J250000D01*
G01*
X97675000Y-105325000D01*
G75*
G02*
X97925000Y-105075000I250000J0D01*
G01*
G37*
G36*
G01*
X97925000Y-102275000D02*
X99175000Y-102275000D01*
G75*
G02*
X99425000Y-102525000I0J-250000D01*
G01*
X99425000Y-103275000D01*
G75*
G02*
X99175000Y-103525000I-250000J0D01*
G01*
X97925000Y-103525000D01*
G75*
G02*
X97675000Y-103275000I0J250000D01*
G01*
X97675000Y-102525000D01*
G75*
G02*
X97925000Y-102275000I250000J0D01*
G01*
G37*
G36*
G01*
X95525000Y-105075000D02*
X96775000Y-105075000D01*
G75*
G02*
X97025000Y-105325000I0J-250000D01*
G01*
X97025000Y-106075000D01*
G75*
G02*
X96775000Y-106325000I-250000J0D01*
G01*
X95525000Y-106325000D01*
G75*
G02*
X95275000Y-106075000I0J250000D01*
G01*
X95275000Y-105325000D01*
G75*
G02*
X95525000Y-105075000I250000J0D01*
G01*
G37*
G36*
G01*
X95525000Y-102275000D02*
X96775000Y-102275000D01*
G75*
G02*
X97025000Y-102525000I0J-250000D01*
G01*
X97025000Y-103275000D01*
G75*
G02*
X96775000Y-103525000I-250000J0D01*
G01*
X95525000Y-103525000D01*
G75*
G02*
X95275000Y-103275000I0J250000D01*
G01*
X95275000Y-102525000D01*
G75*
G02*
X95525000Y-102275000I250000J0D01*
G01*
G37*
G36*
G01*
X94656250Y-107550000D02*
X94143750Y-107550000D01*
G75*
G02*
X93925000Y-107331250I0J218750D01*
G01*
X93925000Y-106893750D01*
G75*
G02*
X94143750Y-106675000I218750J0D01*
G01*
X94656250Y-106675000D01*
G75*
G02*
X94875000Y-106893750I0J-218750D01*
G01*
X94875000Y-107331250D01*
G75*
G02*
X94656250Y-107550000I-218750J0D01*
G01*
G37*
G36*
G01*
X94656250Y-109125000D02*
X94143750Y-109125000D01*
G75*
G02*
X93925000Y-108906250I0J218750D01*
G01*
X93925000Y-108468750D01*
G75*
G02*
X94143750Y-108250000I218750J0D01*
G01*
X94656250Y-108250000D01*
G75*
G02*
X94875000Y-108468750I0J-218750D01*
G01*
X94875000Y-108906250D01*
G75*
G02*
X94656250Y-109125000I-218750J0D01*
G01*
G37*
D20*
X127800000Y-69150000D03*
D29*
X102856000Y-122800000D03*
G36*
G01*
X103606000Y-125300000D02*
X103606000Y-126300000D01*
G75*
G02*
X103356000Y-126550000I-250000J0D01*
G01*
X102356000Y-126550000D01*
G75*
G02*
X102106000Y-126300000I0J250000D01*
G01*
X102106000Y-125300000D01*
G75*
G02*
X102356000Y-125050000I250000J0D01*
G01*
X103356000Y-125050000D01*
G75*
G02*
X103606000Y-125300000I0J-250000D01*
G01*
G37*
D30*
X99856000Y-121860000D03*
X105856000Y-121860000D03*
D29*
X94856000Y-122800000D03*
G36*
G01*
X95606000Y-125300000D02*
X95606000Y-126300000D01*
G75*
G02*
X95356000Y-126550000I-250000J0D01*
G01*
X94356000Y-126550000D01*
G75*
G02*
X94106000Y-126300000I0J250000D01*
G01*
X94106000Y-125300000D01*
G75*
G02*
X94356000Y-125050000I250000J0D01*
G01*
X95356000Y-125050000D01*
G75*
G02*
X95606000Y-125300000I0J-250000D01*
G01*
G37*
D30*
X91856000Y-121860000D03*
X97856000Y-121860000D03*
D29*
X86856000Y-122800000D03*
G36*
G01*
X87606000Y-125300000D02*
X87606000Y-126300000D01*
G75*
G02*
X87356000Y-126550000I-250000J0D01*
G01*
X86356000Y-126550000D01*
G75*
G02*
X86106000Y-126300000I0J250000D01*
G01*
X86106000Y-125300000D01*
G75*
G02*
X86356000Y-125050000I250000J0D01*
G01*
X87356000Y-125050000D01*
G75*
G02*
X87606000Y-125300000I0J-250000D01*
G01*
G37*
D30*
X83856000Y-121860000D03*
X89856000Y-121860000D03*
D29*
X110856000Y-122800000D03*
G36*
G01*
X111606000Y-125300000D02*
X111606000Y-126300000D01*
G75*
G02*
X111356000Y-126550000I-250000J0D01*
G01*
X110356000Y-126550000D01*
G75*
G02*
X110106000Y-126300000I0J250000D01*
G01*
X110106000Y-125300000D01*
G75*
G02*
X110356000Y-125050000I250000J0D01*
G01*
X111356000Y-125050000D01*
G75*
G02*
X111606000Y-125300000I0J-250000D01*
G01*
G37*
D30*
X107856000Y-121860000D03*
X113856000Y-121860000D03*
G36*
G01*
X93165000Y-94345000D02*
X94415000Y-94345000D01*
G75*
G02*
X94665000Y-94595000I0J-250000D01*
G01*
X94665000Y-95345000D01*
G75*
G02*
X94415000Y-95595000I-250000J0D01*
G01*
X93165000Y-95595000D01*
G75*
G02*
X92915000Y-95345000I0J250000D01*
G01*
X92915000Y-94595000D01*
G75*
G02*
X93165000Y-94345000I250000J0D01*
G01*
G37*
G36*
G01*
X93165000Y-91545000D02*
X94415000Y-91545000D01*
G75*
G02*
X94665000Y-91795000I0J-250000D01*
G01*
X94665000Y-92545000D01*
G75*
G02*
X94415000Y-92795000I-250000J0D01*
G01*
X93165000Y-92795000D01*
G75*
G02*
X92915000Y-92545000I0J250000D01*
G01*
X92915000Y-91795000D01*
G75*
G02*
X93165000Y-91545000I250000J0D01*
G01*
G37*
G36*
G01*
X106233750Y-93460000D02*
X107146250Y-93460000D01*
G75*
G02*
X107390000Y-93703750I0J-243750D01*
G01*
X107390000Y-94191250D01*
G75*
G02*
X107146250Y-94435000I-243750J0D01*
G01*
X106233750Y-94435000D01*
G75*
G02*
X105990000Y-94191250I0J243750D01*
G01*
X105990000Y-93703750D01*
G75*
G02*
X106233750Y-93460000I243750J0D01*
G01*
G37*
G36*
G01*
X106233750Y-91585000D02*
X107146250Y-91585000D01*
G75*
G02*
X107390000Y-91828750I0J-243750D01*
G01*
X107390000Y-92316250D01*
G75*
G02*
X107146250Y-92560000I-243750J0D01*
G01*
X106233750Y-92560000D01*
G75*
G02*
X105990000Y-92316250I0J243750D01*
G01*
X105990000Y-91828750D01*
G75*
G02*
X106233750Y-91585000I243750J0D01*
G01*
G37*
G36*
G01*
X105810000Y-95253750D02*
X105810000Y-95766250D01*
G75*
G02*
X105591250Y-95985000I-218750J0D01*
G01*
X105153750Y-95985000D01*
G75*
G02*
X104935000Y-95766250I0J218750D01*
G01*
X104935000Y-95253750D01*
G75*
G02*
X105153750Y-95035000I218750J0D01*
G01*
X105591250Y-95035000D01*
G75*
G02*
X105810000Y-95253750I0J-218750D01*
G01*
G37*
G36*
G01*
X107385000Y-95253750D02*
X107385000Y-95766250D01*
G75*
G02*
X107166250Y-95985000I-218750J0D01*
G01*
X106728750Y-95985000D01*
G75*
G02*
X106510000Y-95766250I0J218750D01*
G01*
X106510000Y-95253750D01*
G75*
G02*
X106728750Y-95035000I218750J0D01*
G01*
X107166250Y-95035000D01*
G75*
G02*
X107385000Y-95253750I0J-218750D01*
G01*
G37*
G36*
G01*
X95483750Y-93920000D02*
X95996250Y-93920000D01*
G75*
G02*
X96215000Y-94138750I0J-218750D01*
G01*
X96215000Y-94576250D01*
G75*
G02*
X95996250Y-94795000I-218750J0D01*
G01*
X95483750Y-94795000D01*
G75*
G02*
X95265000Y-94576250I0J218750D01*
G01*
X95265000Y-94138750D01*
G75*
G02*
X95483750Y-93920000I218750J0D01*
G01*
G37*
G36*
G01*
X95483750Y-92345000D02*
X95996250Y-92345000D01*
G75*
G02*
X96215000Y-92563750I0J-218750D01*
G01*
X96215000Y-93001250D01*
G75*
G02*
X95996250Y-93220000I-218750J0D01*
G01*
X95483750Y-93220000D01*
G75*
G02*
X95265000Y-93001250I0J218750D01*
G01*
X95265000Y-92563750D01*
G75*
G02*
X95483750Y-92345000I218750J0D01*
G01*
G37*
G36*
G01*
X108850000Y-97153750D02*
X108850000Y-97666250D01*
G75*
G02*
X108631250Y-97885000I-218750J0D01*
G01*
X108193750Y-97885000D01*
G75*
G02*
X107975000Y-97666250I0J218750D01*
G01*
X107975000Y-97153750D01*
G75*
G02*
X108193750Y-96935000I218750J0D01*
G01*
X108631250Y-96935000D01*
G75*
G02*
X108850000Y-97153750I0J-218750D01*
G01*
G37*
G36*
G01*
X110425000Y-97153750D02*
X110425000Y-97666250D01*
G75*
G02*
X110206250Y-97885000I-218750J0D01*
G01*
X109768750Y-97885000D01*
G75*
G02*
X109550000Y-97666250I0J218750D01*
G01*
X109550000Y-97153750D01*
G75*
G02*
X109768750Y-96935000I218750J0D01*
G01*
X110206250Y-96935000D01*
G75*
G02*
X110425000Y-97153750I0J-218750D01*
G01*
G37*
G36*
G01*
X93145000Y-75795000D02*
X94395000Y-75795000D01*
G75*
G02*
X94645000Y-76045000I0J-250000D01*
G01*
X94645000Y-76795000D01*
G75*
G02*
X94395000Y-77045000I-250000J0D01*
G01*
X93145000Y-77045000D01*
G75*
G02*
X92895000Y-76795000I0J250000D01*
G01*
X92895000Y-76045000D01*
G75*
G02*
X93145000Y-75795000I250000J0D01*
G01*
G37*
G36*
G01*
X93145000Y-72995000D02*
X94395000Y-72995000D01*
G75*
G02*
X94645000Y-73245000I0J-250000D01*
G01*
X94645000Y-73995000D01*
G75*
G02*
X94395000Y-74245000I-250000J0D01*
G01*
X93145000Y-74245000D01*
G75*
G02*
X92895000Y-73995000I0J250000D01*
G01*
X92895000Y-73245000D01*
G75*
G02*
X93145000Y-72995000I250000J0D01*
G01*
G37*
G36*
G01*
X106123750Y-74630000D02*
X107036250Y-74630000D01*
G75*
G02*
X107280000Y-74873750I0J-243750D01*
G01*
X107280000Y-75361250D01*
G75*
G02*
X107036250Y-75605000I-243750J0D01*
G01*
X106123750Y-75605000D01*
G75*
G02*
X105880000Y-75361250I0J243750D01*
G01*
X105880000Y-74873750D01*
G75*
G02*
X106123750Y-74630000I243750J0D01*
G01*
G37*
G36*
G01*
X106123750Y-72755000D02*
X107036250Y-72755000D01*
G75*
G02*
X107280000Y-72998750I0J-243750D01*
G01*
X107280000Y-73486250D01*
G75*
G02*
X107036250Y-73730000I-243750J0D01*
G01*
X106123750Y-73730000D01*
G75*
G02*
X105880000Y-73486250I0J243750D01*
G01*
X105880000Y-72998750D01*
G75*
G02*
X106123750Y-72755000I243750J0D01*
G01*
G37*
G36*
G01*
X105830000Y-76413750D02*
X105830000Y-76926250D01*
G75*
G02*
X105611250Y-77145000I-218750J0D01*
G01*
X105173750Y-77145000D01*
G75*
G02*
X104955000Y-76926250I0J218750D01*
G01*
X104955000Y-76413750D01*
G75*
G02*
X105173750Y-76195000I218750J0D01*
G01*
X105611250Y-76195000D01*
G75*
G02*
X105830000Y-76413750I0J-218750D01*
G01*
G37*
G36*
G01*
X107405000Y-76413750D02*
X107405000Y-76926250D01*
G75*
G02*
X107186250Y-77145000I-218750J0D01*
G01*
X106748750Y-77145000D01*
G75*
G02*
X106530000Y-76926250I0J218750D01*
G01*
X106530000Y-76413750D01*
G75*
G02*
X106748750Y-76195000I218750J0D01*
G01*
X107186250Y-76195000D01*
G75*
G02*
X107405000Y-76413750I0J-218750D01*
G01*
G37*
G36*
G01*
X95403750Y-75190000D02*
X95916250Y-75190000D01*
G75*
G02*
X96135000Y-75408750I0J-218750D01*
G01*
X96135000Y-75846250D01*
G75*
G02*
X95916250Y-76065000I-218750J0D01*
G01*
X95403750Y-76065000D01*
G75*
G02*
X95185000Y-75846250I0J218750D01*
G01*
X95185000Y-75408750D01*
G75*
G02*
X95403750Y-75190000I218750J0D01*
G01*
G37*
G36*
G01*
X95403750Y-73615000D02*
X95916250Y-73615000D01*
G75*
G02*
X96135000Y-73833750I0J-218750D01*
G01*
X96135000Y-74271250D01*
G75*
G02*
X95916250Y-74490000I-218750J0D01*
G01*
X95403750Y-74490000D01*
G75*
G02*
X95185000Y-74271250I0J218750D01*
G01*
X95185000Y-73833750D01*
G75*
G02*
X95403750Y-73615000I218750J0D01*
G01*
G37*
G36*
G01*
X109300000Y-77453750D02*
X109300000Y-77966250D01*
G75*
G02*
X109081250Y-78185000I-218750J0D01*
G01*
X108643750Y-78185000D01*
G75*
G02*
X108425000Y-77966250I0J218750D01*
G01*
X108425000Y-77453750D01*
G75*
G02*
X108643750Y-77235000I218750J0D01*
G01*
X109081250Y-77235000D01*
G75*
G02*
X109300000Y-77453750I0J-218750D01*
G01*
G37*
G36*
G01*
X110875000Y-77453750D02*
X110875000Y-77966250D01*
G75*
G02*
X110656250Y-78185000I-218750J0D01*
G01*
X110218750Y-78185000D01*
G75*
G02*
X110000000Y-77966250I0J218750D01*
G01*
X110000000Y-77453750D01*
G75*
G02*
X110218750Y-77235000I218750J0D01*
G01*
X110656250Y-77235000D01*
G75*
G02*
X110875000Y-77453750I0J-218750D01*
G01*
G37*
G36*
G01*
X118643750Y-120600000D02*
X119156250Y-120600000D01*
G75*
G02*
X119375000Y-120818750I0J-218750D01*
G01*
X119375000Y-121256250D01*
G75*
G02*
X119156250Y-121475000I-218750J0D01*
G01*
X118643750Y-121475000D01*
G75*
G02*
X118425000Y-121256250I0J218750D01*
G01*
X118425000Y-120818750D01*
G75*
G02*
X118643750Y-120600000I218750J0D01*
G01*
G37*
G36*
G01*
X118643750Y-119025000D02*
X119156250Y-119025000D01*
G75*
G02*
X119375000Y-119243750I0J-218750D01*
G01*
X119375000Y-119681250D01*
G75*
G02*
X119156250Y-119900000I-218750J0D01*
G01*
X118643750Y-119900000D01*
G75*
G02*
X118425000Y-119681250I0J218750D01*
G01*
X118425000Y-119243750D01*
G75*
G02*
X118643750Y-119025000I218750J0D01*
G01*
G37*
G36*
G01*
X121550000Y-118106250D02*
X121550000Y-117593750D01*
G75*
G02*
X121768750Y-117375000I218750J0D01*
G01*
X122206250Y-117375000D01*
G75*
G02*
X122425000Y-117593750I0J-218750D01*
G01*
X122425000Y-118106250D01*
G75*
G02*
X122206250Y-118325000I-218750J0D01*
G01*
X121768750Y-118325000D01*
G75*
G02*
X121550000Y-118106250I0J218750D01*
G01*
G37*
G36*
G01*
X119975000Y-118106250D02*
X119975000Y-117593750D01*
G75*
G02*
X120193750Y-117375000I218750J0D01*
G01*
X120631250Y-117375000D01*
G75*
G02*
X120850000Y-117593750I0J-218750D01*
G01*
X120850000Y-118106250D01*
G75*
G02*
X120631250Y-118325000I-218750J0D01*
G01*
X120193750Y-118325000D01*
G75*
G02*
X119975000Y-118106250I0J218750D01*
G01*
G37*
G36*
G01*
X123393750Y-120550000D02*
X123906250Y-120550000D01*
G75*
G02*
X124125000Y-120768750I0J-218750D01*
G01*
X124125000Y-121206250D01*
G75*
G02*
X123906250Y-121425000I-218750J0D01*
G01*
X123393750Y-121425000D01*
G75*
G02*
X123175000Y-121206250I0J218750D01*
G01*
X123175000Y-120768750D01*
G75*
G02*
X123393750Y-120550000I218750J0D01*
G01*
G37*
G36*
G01*
X123393750Y-118975000D02*
X123906250Y-118975000D01*
G75*
G02*
X124125000Y-119193750I0J-218750D01*
G01*
X124125000Y-119631250D01*
G75*
G02*
X123906250Y-119850000I-218750J0D01*
G01*
X123393750Y-119850000D01*
G75*
G02*
X123175000Y-119631250I0J218750D01*
G01*
X123175000Y-119193750D01*
G75*
G02*
X123393750Y-118975000I218750J0D01*
G01*
G37*
G36*
G01*
X115993750Y-115250000D02*
X116506250Y-115250000D01*
G75*
G02*
X116725000Y-115468750I0J-218750D01*
G01*
X116725000Y-115906250D01*
G75*
G02*
X116506250Y-116125000I-218750J0D01*
G01*
X115993750Y-116125000D01*
G75*
G02*
X115775000Y-115906250I0J218750D01*
G01*
X115775000Y-115468750D01*
G75*
G02*
X115993750Y-115250000I218750J0D01*
G01*
G37*
G36*
G01*
X115993750Y-113675000D02*
X116506250Y-113675000D01*
G75*
G02*
X116725000Y-113893750I0J-218750D01*
G01*
X116725000Y-114331250D01*
G75*
G02*
X116506250Y-114550000I-218750J0D01*
G01*
X115993750Y-114550000D01*
G75*
G02*
X115775000Y-114331250I0J218750D01*
G01*
X115775000Y-113893750D01*
G75*
G02*
X115993750Y-113675000I218750J0D01*
G01*
G37*
G36*
G01*
X118012500Y-115400000D02*
X118487500Y-115400000D01*
G75*
G02*
X118725000Y-115637500I0J-237500D01*
G01*
X118725000Y-116212500D01*
G75*
G02*
X118487500Y-116450000I-237500J0D01*
G01*
X118012500Y-116450000D01*
G75*
G02*
X117775000Y-116212500I0J237500D01*
G01*
X117775000Y-115637500D01*
G75*
G02*
X118012500Y-115400000I237500J0D01*
G01*
G37*
G36*
G01*
X118012500Y-113650000D02*
X118487500Y-113650000D01*
G75*
G02*
X118725000Y-113887500I0J-237500D01*
G01*
X118725000Y-114462500D01*
G75*
G02*
X118487500Y-114700000I-237500J0D01*
G01*
X118012500Y-114700000D01*
G75*
G02*
X117775000Y-114462500I0J237500D01*
G01*
X117775000Y-113887500D01*
G75*
G02*
X118012500Y-113650000I237500J0D01*
G01*
G37*
D31*
X109450000Y-95900000D03*
X108500000Y-93900000D03*
X110400000Y-93900000D03*
X109630000Y-76060000D03*
X108680000Y-74060000D03*
X110580000Y-74060000D03*
D32*
X92720000Y-103575000D03*
D33*
X92720000Y-104490000D03*
G36*
G01*
X117356250Y-120500000D02*
X116443750Y-120500000D01*
G75*
G02*
X116200000Y-120256250I0J243750D01*
G01*
X116200000Y-119768750D01*
G75*
G02*
X116443750Y-119525000I243750J0D01*
G01*
X117356250Y-119525000D01*
G75*
G02*
X117600000Y-119768750I0J-243750D01*
G01*
X117600000Y-120256250D01*
G75*
G02*
X117356250Y-120500000I-243750J0D01*
G01*
G37*
G36*
G01*
X117356250Y-122375000D02*
X116443750Y-122375000D01*
G75*
G02*
X116200000Y-122131250I0J243750D01*
G01*
X116200000Y-121643750D01*
G75*
G02*
X116443750Y-121400000I243750J0D01*
G01*
X117356250Y-121400000D01*
G75*
G02*
X117600000Y-121643750I0J-243750D01*
G01*
X117600000Y-122131250D01*
G75*
G02*
X117356250Y-122375000I-243750J0D01*
G01*
G37*
D34*
X126000000Y-120850000D03*
X126000000Y-118050000D03*
G36*
G01*
X91969000Y-117883000D02*
X91969000Y-116633000D01*
G75*
G02*
X92219000Y-116383000I250000J0D01*
G01*
X92969000Y-116383000D01*
G75*
G02*
X93219000Y-116633000I0J-250000D01*
G01*
X93219000Y-117883000D01*
G75*
G02*
X92969000Y-118133000I-250000J0D01*
G01*
X92219000Y-118133000D01*
G75*
G02*
X91969000Y-117883000I0J250000D01*
G01*
G37*
G36*
G01*
X89169000Y-117883000D02*
X89169000Y-116633000D01*
G75*
G02*
X89419000Y-116383000I250000J0D01*
G01*
X90169000Y-116383000D01*
G75*
G02*
X90419000Y-116633000I0J-250000D01*
G01*
X90419000Y-117883000D01*
G75*
G02*
X90169000Y-118133000I-250000J0D01*
G01*
X89419000Y-118133000D01*
G75*
G02*
X89169000Y-117883000I0J250000D01*
G01*
G37*
D27*
X127530000Y-99000000D03*
X124990000Y-99000000D03*
D28*
X122450000Y-99000000D03*
G36*
G01*
X98106000Y-117405000D02*
X98106000Y-117705000D01*
G75*
G02*
X97956000Y-117855000I-150000J0D01*
G01*
X96506000Y-117855000D01*
G75*
G02*
X96356000Y-117705000I0J150000D01*
G01*
X96356000Y-117405000D01*
G75*
G02*
X96506000Y-117255000I150000J0D01*
G01*
X97956000Y-117255000D01*
G75*
G02*
X98106000Y-117405000I0J-150000D01*
G01*
G37*
G36*
G01*
X98106000Y-116135000D02*
X98106000Y-116435000D01*
G75*
G02*
X97956000Y-116585000I-150000J0D01*
G01*
X96506000Y-116585000D01*
G75*
G02*
X96356000Y-116435000I0J150000D01*
G01*
X96356000Y-116135000D01*
G75*
G02*
X96506000Y-115985000I150000J0D01*
G01*
X97956000Y-115985000D01*
G75*
G02*
X98106000Y-116135000I0J-150000D01*
G01*
G37*
G36*
G01*
X98106000Y-114865000D02*
X98106000Y-115165000D01*
G75*
G02*
X97956000Y-115315000I-150000J0D01*
G01*
X96506000Y-115315000D01*
G75*
G02*
X96356000Y-115165000I0J150000D01*
G01*
X96356000Y-114865000D01*
G75*
G02*
X96506000Y-114715000I150000J0D01*
G01*
X97956000Y-114715000D01*
G75*
G02*
X98106000Y-114865000I0J-150000D01*
G01*
G37*
G36*
G01*
X98106000Y-113595000D02*
X98106000Y-113895000D01*
G75*
G02*
X97956000Y-114045000I-150000J0D01*
G01*
X96506000Y-114045000D01*
G75*
G02*
X96356000Y-113895000I0J150000D01*
G01*
X96356000Y-113595000D01*
G75*
G02*
X96506000Y-113445000I150000J0D01*
G01*
X97956000Y-113445000D01*
G75*
G02*
X98106000Y-113595000I0J-150000D01*
G01*
G37*
G36*
G01*
X103256000Y-113595000D02*
X103256000Y-113895000D01*
G75*
G02*
X103106000Y-114045000I-150000J0D01*
G01*
X101656000Y-114045000D01*
G75*
G02*
X101506000Y-113895000I0J150000D01*
G01*
X101506000Y-113595000D01*
G75*
G02*
X101656000Y-113445000I150000J0D01*
G01*
X103106000Y-113445000D01*
G75*
G02*
X103256000Y-113595000I0J-150000D01*
G01*
G37*
G36*
G01*
X103256000Y-114865000D02*
X103256000Y-115165000D01*
G75*
G02*
X103106000Y-115315000I-150000J0D01*
G01*
X101656000Y-115315000D01*
G75*
G02*
X101506000Y-115165000I0J150000D01*
G01*
X101506000Y-114865000D01*
G75*
G02*
X101656000Y-114715000I150000J0D01*
G01*
X103106000Y-114715000D01*
G75*
G02*
X103256000Y-114865000I0J-150000D01*
G01*
G37*
G36*
G01*
X103256000Y-116135000D02*
X103256000Y-116435000D01*
G75*
G02*
X103106000Y-116585000I-150000J0D01*
G01*
X101656000Y-116585000D01*
G75*
G02*
X101506000Y-116435000I0J150000D01*
G01*
X101506000Y-116135000D01*
G75*
G02*
X101656000Y-115985000I150000J0D01*
G01*
X103106000Y-115985000D01*
G75*
G02*
X103256000Y-116135000I0J-150000D01*
G01*
G37*
G36*
G01*
X103256000Y-117405000D02*
X103256000Y-117705000D01*
G75*
G02*
X103106000Y-117855000I-150000J0D01*
G01*
X101656000Y-117855000D01*
G75*
G02*
X101506000Y-117705000I0J150000D01*
G01*
X101506000Y-117405000D01*
G75*
G02*
X101656000Y-117255000I150000J0D01*
G01*
X103106000Y-117255000D01*
G75*
G02*
X103256000Y-117405000I0J-150000D01*
G01*
G37*
D35*
X95150000Y-113700000D03*
X95150000Y-114050000D03*
X95150000Y-114400000D03*
X94250000Y-114400000D03*
X94250000Y-114050000D03*
X94250000Y-113700000D03*
D36*
X106766000Y-114470000D03*
X106766000Y-116730000D03*
D37*
X104661000Y-117505000D03*
X104661000Y-116235000D03*
X104661000Y-114965000D03*
X104661000Y-113695000D03*
D38*
X110126000Y-113695000D03*
X110126000Y-114965000D03*
X110126000Y-116235000D03*
X110126000Y-117505000D03*
D39*
X84584000Y-115508000D03*
X86844000Y-115508000D03*
D40*
X87619000Y-117613000D03*
X86349000Y-117613000D03*
X85079000Y-117613000D03*
X83809000Y-117613000D03*
D41*
X83809000Y-112148000D03*
X85079000Y-112148000D03*
X86349000Y-112148000D03*
X87619000Y-112148000D03*
D42*
X91600000Y-112425000D03*
X91600000Y-113475000D03*
D43*
X90700000Y-113600000D03*
X90700000Y-112950000D03*
X90700000Y-112300000D03*
X92500000Y-112300000D03*
X92500000Y-112950000D03*
X92500000Y-113600000D03*
G36*
G01*
X107780000Y-84566250D02*
X107780000Y-84053750D01*
G75*
G02*
X107998750Y-83835000I218750J0D01*
G01*
X108436250Y-83835000D01*
G75*
G02*
X108655000Y-84053750I0J-218750D01*
G01*
X108655000Y-84566250D01*
G75*
G02*
X108436250Y-84785000I-218750J0D01*
G01*
X107998750Y-84785000D01*
G75*
G02*
X107780000Y-84566250I0J218750D01*
G01*
G37*
G36*
G01*
X106205000Y-84566250D02*
X106205000Y-84053750D01*
G75*
G02*
X106423750Y-83835000I218750J0D01*
G01*
X106861250Y-83835000D01*
G75*
G02*
X107080000Y-84053750I0J-218750D01*
G01*
X107080000Y-84566250D01*
G75*
G02*
X106861250Y-84785000I-218750J0D01*
G01*
X106423750Y-84785000D01*
G75*
G02*
X106205000Y-84566250I0J218750D01*
G01*
G37*
G36*
G01*
X107020000Y-87563750D02*
X107020000Y-88076250D01*
G75*
G02*
X106801250Y-88295000I-218750J0D01*
G01*
X106363750Y-88295000D01*
G75*
G02*
X106145000Y-88076250I0J218750D01*
G01*
X106145000Y-87563750D01*
G75*
G02*
X106363750Y-87345000I218750J0D01*
G01*
X106801250Y-87345000D01*
G75*
G02*
X107020000Y-87563750I0J-218750D01*
G01*
G37*
G36*
G01*
X108595000Y-87563750D02*
X108595000Y-88076250D01*
G75*
G02*
X108376250Y-88295000I-218750J0D01*
G01*
X107938750Y-88295000D01*
G75*
G02*
X107720000Y-88076250I0J218750D01*
G01*
X107720000Y-87563750D01*
G75*
G02*
X107938750Y-87345000I218750J0D01*
G01*
X108376250Y-87345000D01*
G75*
G02*
X108595000Y-87563750I0J-218750D01*
G01*
G37*
G36*
G01*
X109670000Y-98673750D02*
X109670000Y-99186250D01*
G75*
G02*
X109451250Y-99405000I-218750J0D01*
G01*
X109013750Y-99405000D01*
G75*
G02*
X108795000Y-99186250I0J218750D01*
G01*
X108795000Y-98673750D01*
G75*
G02*
X109013750Y-98455000I218750J0D01*
G01*
X109451250Y-98455000D01*
G75*
G02*
X109670000Y-98673750I0J-218750D01*
G01*
G37*
G36*
G01*
X111245000Y-98673750D02*
X111245000Y-99186250D01*
G75*
G02*
X111026250Y-99405000I-218750J0D01*
G01*
X110588750Y-99405000D01*
G75*
G02*
X110370000Y-99186250I0J218750D01*
G01*
X110370000Y-98673750D01*
G75*
G02*
X110588750Y-98455000I218750J0D01*
G01*
X111026250Y-98455000D01*
G75*
G02*
X111245000Y-98673750I0J-218750D01*
G01*
G37*
G36*
G01*
X105810000Y-96773750D02*
X105810000Y-97286250D01*
G75*
G02*
X105591250Y-97505000I-218750J0D01*
G01*
X105153750Y-97505000D01*
G75*
G02*
X104935000Y-97286250I0J218750D01*
G01*
X104935000Y-96773750D01*
G75*
G02*
X105153750Y-96555000I218750J0D01*
G01*
X105591250Y-96555000D01*
G75*
G02*
X105810000Y-96773750I0J-218750D01*
G01*
G37*
G36*
G01*
X107385000Y-96773750D02*
X107385000Y-97286250D01*
G75*
G02*
X107166250Y-97505000I-218750J0D01*
G01*
X106728750Y-97505000D01*
G75*
G02*
X106510000Y-97286250I0J218750D01*
G01*
X106510000Y-96773750D01*
G75*
G02*
X106728750Y-96555000I218750J0D01*
G01*
X107166250Y-96555000D01*
G75*
G02*
X107385000Y-96773750I0J-218750D01*
G01*
G37*
G36*
G01*
X109300000Y-79093750D02*
X109300000Y-79606250D01*
G75*
G02*
X109081250Y-79825000I-218750J0D01*
G01*
X108643750Y-79825000D01*
G75*
G02*
X108425000Y-79606250I0J218750D01*
G01*
X108425000Y-79093750D01*
G75*
G02*
X108643750Y-78875000I218750J0D01*
G01*
X109081250Y-78875000D01*
G75*
G02*
X109300000Y-79093750I0J-218750D01*
G01*
G37*
G36*
G01*
X110875000Y-79093750D02*
X110875000Y-79606250D01*
G75*
G02*
X110656250Y-79825000I-218750J0D01*
G01*
X110218750Y-79825000D01*
G75*
G02*
X110000000Y-79606250I0J218750D01*
G01*
X110000000Y-79093750D01*
G75*
G02*
X110218750Y-78875000I218750J0D01*
G01*
X110656250Y-78875000D01*
G75*
G02*
X110875000Y-79093750I0J-218750D01*
G01*
G37*
G36*
G01*
X106530000Y-78476250D02*
X106530000Y-77963750D01*
G75*
G02*
X106748750Y-77745000I218750J0D01*
G01*
X107186250Y-77745000D01*
G75*
G02*
X107405000Y-77963750I0J-218750D01*
G01*
X107405000Y-78476250D01*
G75*
G02*
X107186250Y-78695000I-218750J0D01*
G01*
X106748750Y-78695000D01*
G75*
G02*
X106530000Y-78476250I0J218750D01*
G01*
G37*
G36*
G01*
X104955000Y-78476250D02*
X104955000Y-77963750D01*
G75*
G02*
X105173750Y-77745000I218750J0D01*
G01*
X105611250Y-77745000D01*
G75*
G02*
X105830000Y-77963750I0J-218750D01*
G01*
X105830000Y-78476250D01*
G75*
G02*
X105611250Y-78695000I-218750J0D01*
G01*
X105173750Y-78695000D01*
G75*
G02*
X104955000Y-78476250I0J218750D01*
G01*
G37*
G36*
G01*
X94606250Y-103150000D02*
X94093750Y-103150000D01*
G75*
G02*
X93875000Y-102931250I0J218750D01*
G01*
X93875000Y-102493750D01*
G75*
G02*
X94093750Y-102275000I218750J0D01*
G01*
X94606250Y-102275000D01*
G75*
G02*
X94825000Y-102493750I0J-218750D01*
G01*
X94825000Y-102931250D01*
G75*
G02*
X94606250Y-103150000I-218750J0D01*
G01*
G37*
G36*
G01*
X94606250Y-104725000D02*
X94093750Y-104725000D01*
G75*
G02*
X93875000Y-104506250I0J218750D01*
G01*
X93875000Y-104068750D01*
G75*
G02*
X94093750Y-103850000I218750J0D01*
G01*
X94606250Y-103850000D01*
G75*
G02*
X94825000Y-104068750I0J-218750D01*
G01*
X94825000Y-104506250D01*
G75*
G02*
X94606250Y-104725000I-218750J0D01*
G01*
G37*
G36*
G01*
X94143750Y-111400000D02*
X94656250Y-111400000D01*
G75*
G02*
X94875000Y-111618750I0J-218750D01*
G01*
X94875000Y-112056250D01*
G75*
G02*
X94656250Y-112275000I-218750J0D01*
G01*
X94143750Y-112275000D01*
G75*
G02*
X93925000Y-112056250I0J218750D01*
G01*
X93925000Y-111618750D01*
G75*
G02*
X94143750Y-111400000I218750J0D01*
G01*
G37*
G36*
G01*
X94143750Y-109825000D02*
X94656250Y-109825000D01*
G75*
G02*
X94875000Y-110043750I0J-218750D01*
G01*
X94875000Y-110481250D01*
G75*
G02*
X94656250Y-110700000I-218750J0D01*
G01*
X94143750Y-110700000D01*
G75*
G02*
X93925000Y-110481250I0J218750D01*
G01*
X93925000Y-110043750D01*
G75*
G02*
X94143750Y-109825000I218750J0D01*
G01*
G37*
G36*
G01*
X120193750Y-120550000D02*
X120706250Y-120550000D01*
G75*
G02*
X120925000Y-120768750I0J-218750D01*
G01*
X120925000Y-121206250D01*
G75*
G02*
X120706250Y-121425000I-218750J0D01*
G01*
X120193750Y-121425000D01*
G75*
G02*
X119975000Y-121206250I0J218750D01*
G01*
X119975000Y-120768750D01*
G75*
G02*
X120193750Y-120550000I218750J0D01*
G01*
G37*
G36*
G01*
X120193750Y-118975000D02*
X120706250Y-118975000D01*
G75*
G02*
X120925000Y-119193750I0J-218750D01*
G01*
X120925000Y-119631250D01*
G75*
G02*
X120706250Y-119850000I-218750J0D01*
G01*
X120193750Y-119850000D01*
G75*
G02*
X119975000Y-119631250I0J218750D01*
G01*
X119975000Y-119193750D01*
G75*
G02*
X120193750Y-118975000I218750J0D01*
G01*
G37*
G36*
G01*
X120425000Y-122475000D02*
X120425000Y-123725000D01*
G75*
G02*
X120175000Y-123975000I-250000J0D01*
G01*
X119250000Y-123975000D01*
G75*
G02*
X119000000Y-123725000I0J250000D01*
G01*
X119000000Y-122475000D01*
G75*
G02*
X119250000Y-122225000I250000J0D01*
G01*
X120175000Y-122225000D01*
G75*
G02*
X120425000Y-122475000I0J-250000D01*
G01*
G37*
G36*
G01*
X123400000Y-122475000D02*
X123400000Y-123725000D01*
G75*
G02*
X123150000Y-123975000I-250000J0D01*
G01*
X122225000Y-123975000D01*
G75*
G02*
X121975000Y-123725000I0J250000D01*
G01*
X121975000Y-122475000D01*
G75*
G02*
X122225000Y-122225000I250000J0D01*
G01*
X123150000Y-122225000D01*
G75*
G02*
X123400000Y-122475000I0J-250000D01*
G01*
G37*
G36*
G01*
X89087750Y-112958000D02*
X89600250Y-112958000D01*
G75*
G02*
X89819000Y-113176750I0J-218750D01*
G01*
X89819000Y-113614250D01*
G75*
G02*
X89600250Y-113833000I-218750J0D01*
G01*
X89087750Y-113833000D01*
G75*
G02*
X88869000Y-113614250I0J218750D01*
G01*
X88869000Y-113176750D01*
G75*
G02*
X89087750Y-112958000I218750J0D01*
G01*
G37*
G36*
G01*
X89087750Y-111383000D02*
X89600250Y-111383000D01*
G75*
G02*
X89819000Y-111601750I0J-218750D01*
G01*
X89819000Y-112039250D01*
G75*
G02*
X89600250Y-112258000I-218750J0D01*
G01*
X89087750Y-112258000D01*
G75*
G02*
X88869000Y-112039250I0J218750D01*
G01*
X88869000Y-111601750D01*
G75*
G02*
X89087750Y-111383000I218750J0D01*
G01*
G37*
G36*
G01*
X91450000Y-114943750D02*
X91450000Y-115456250D01*
G75*
G02*
X91231250Y-115675000I-218750J0D01*
G01*
X90793750Y-115675000D01*
G75*
G02*
X90575000Y-115456250I0J218750D01*
G01*
X90575000Y-114943750D01*
G75*
G02*
X90793750Y-114725000I218750J0D01*
G01*
X91231250Y-114725000D01*
G75*
G02*
X91450000Y-114943750I0J-218750D01*
G01*
G37*
G36*
G01*
X93025000Y-114943750D02*
X93025000Y-115456250D01*
G75*
G02*
X92806250Y-115675000I-218750J0D01*
G01*
X92368750Y-115675000D01*
G75*
G02*
X92150000Y-115456250I0J218750D01*
G01*
X92150000Y-114943750D01*
G75*
G02*
X92368750Y-114725000I218750J0D01*
G01*
X92806250Y-114725000D01*
G75*
G02*
X93025000Y-114943750I0J-218750D01*
G01*
G37*
G36*
G01*
X94856250Y-116600000D02*
X94343750Y-116600000D01*
G75*
G02*
X94125000Y-116381250I0J218750D01*
G01*
X94125000Y-115943750D01*
G75*
G02*
X94343750Y-115725000I218750J0D01*
G01*
X94856250Y-115725000D01*
G75*
G02*
X95075000Y-115943750I0J-218750D01*
G01*
X95075000Y-116381250D01*
G75*
G02*
X94856250Y-116600000I-218750J0D01*
G01*
G37*
G36*
G01*
X94856250Y-118175000D02*
X94343750Y-118175000D01*
G75*
G02*
X94125000Y-117956250I0J218750D01*
G01*
X94125000Y-117518750D01*
G75*
G02*
X94343750Y-117300000I218750J0D01*
G01*
X94856250Y-117300000D01*
G75*
G02*
X95075000Y-117518750I0J-218750D01*
G01*
X95075000Y-117956250D01*
G75*
G02*
X94856250Y-118175000I-218750J0D01*
G01*
G37*
G36*
G01*
X121793750Y-120550000D02*
X122306250Y-120550000D01*
G75*
G02*
X122525000Y-120768750I0J-218750D01*
G01*
X122525000Y-121206250D01*
G75*
G02*
X122306250Y-121425000I-218750J0D01*
G01*
X121793750Y-121425000D01*
G75*
G02*
X121575000Y-121206250I0J218750D01*
G01*
X121575000Y-120768750D01*
G75*
G02*
X121793750Y-120550000I218750J0D01*
G01*
G37*
G36*
G01*
X121793750Y-118975000D02*
X122306250Y-118975000D01*
G75*
G02*
X122525000Y-119193750I0J-218750D01*
G01*
X122525000Y-119631250D01*
G75*
G02*
X122306250Y-119850000I-218750J0D01*
G01*
X121793750Y-119850000D01*
G75*
G02*
X121575000Y-119631250I0J218750D01*
G01*
X121575000Y-119193750D01*
G75*
G02*
X121793750Y-118975000I218750J0D01*
G01*
G37*
G36*
G01*
X107030000Y-85973750D02*
X107030000Y-86486250D01*
G75*
G02*
X106811250Y-86705000I-218750J0D01*
G01*
X106373750Y-86705000D01*
G75*
G02*
X106155000Y-86486250I0J218750D01*
G01*
X106155000Y-85973750D01*
G75*
G02*
X106373750Y-85755000I218750J0D01*
G01*
X106811250Y-85755000D01*
G75*
G02*
X107030000Y-85973750I0J-218750D01*
G01*
G37*
G36*
G01*
X108605000Y-85973750D02*
X108605000Y-86486250D01*
G75*
G02*
X108386250Y-86705000I-218750J0D01*
G01*
X107948750Y-86705000D01*
G75*
G02*
X107730000Y-86486250I0J218750D01*
G01*
X107730000Y-85973750D01*
G75*
G02*
X107948750Y-85755000I218750J0D01*
G01*
X108386250Y-85755000D01*
G75*
G02*
X108605000Y-85973750I0J-218750D01*
G01*
G37*
G36*
G01*
X95990000Y-85096250D02*
X95990000Y-84583750D01*
G75*
G02*
X96208750Y-84365000I218750J0D01*
G01*
X96646250Y-84365000D01*
G75*
G02*
X96865000Y-84583750I0J-218750D01*
G01*
X96865000Y-85096250D01*
G75*
G02*
X96646250Y-85315000I-218750J0D01*
G01*
X96208750Y-85315000D01*
G75*
G02*
X95990000Y-85096250I0J218750D01*
G01*
G37*
G36*
G01*
X94415000Y-85096250D02*
X94415000Y-84583750D01*
G75*
G02*
X94633750Y-84365000I218750J0D01*
G01*
X95071250Y-84365000D01*
G75*
G02*
X95290000Y-84583750I0J-218750D01*
G01*
X95290000Y-85096250D01*
G75*
G02*
X95071250Y-85315000I-218750J0D01*
G01*
X94633750Y-85315000D01*
G75*
G02*
X94415000Y-85096250I0J218750D01*
G01*
G37*
G36*
G01*
X96000000Y-86736250D02*
X96000000Y-86223750D01*
G75*
G02*
X96218750Y-86005000I218750J0D01*
G01*
X96656250Y-86005000D01*
G75*
G02*
X96875000Y-86223750I0J-218750D01*
G01*
X96875000Y-86736250D01*
G75*
G02*
X96656250Y-86955000I-218750J0D01*
G01*
X96218750Y-86955000D01*
G75*
G02*
X96000000Y-86736250I0J218750D01*
G01*
G37*
G36*
G01*
X94425000Y-86736250D02*
X94425000Y-86223750D01*
G75*
G02*
X94643750Y-86005000I218750J0D01*
G01*
X95081250Y-86005000D01*
G75*
G02*
X95300000Y-86223750I0J-218750D01*
G01*
X95300000Y-86736250D01*
G75*
G02*
X95081250Y-86955000I-218750J0D01*
G01*
X94643750Y-86955000D01*
G75*
G02*
X94425000Y-86736250I0J218750D01*
G01*
G37*
G36*
G01*
X124443750Y-115600000D02*
X124956250Y-115600000D01*
G75*
G02*
X125175000Y-115818750I0J-218750D01*
G01*
X125175000Y-116256250D01*
G75*
G02*
X124956250Y-116475000I-218750J0D01*
G01*
X124443750Y-116475000D01*
G75*
G02*
X124225000Y-116256250I0J218750D01*
G01*
X124225000Y-115818750D01*
G75*
G02*
X124443750Y-115600000I218750J0D01*
G01*
G37*
G36*
G01*
X124443750Y-114025000D02*
X124956250Y-114025000D01*
G75*
G02*
X125175000Y-114243750I0J-218750D01*
G01*
X125175000Y-114681250D01*
G75*
G02*
X124956250Y-114900000I-218750J0D01*
G01*
X124443750Y-114900000D01*
G75*
G02*
X124225000Y-114681250I0J218750D01*
G01*
X124225000Y-114243750D01*
G75*
G02*
X124443750Y-114025000I218750J0D01*
G01*
G37*
G36*
G01*
X90410000Y-107846250D02*
X90410000Y-107333750D01*
G75*
G02*
X90628750Y-107115000I218750J0D01*
G01*
X91066250Y-107115000D01*
G75*
G02*
X91285000Y-107333750I0J-218750D01*
G01*
X91285000Y-107846250D01*
G75*
G02*
X91066250Y-108065000I-218750J0D01*
G01*
X90628750Y-108065000D01*
G75*
G02*
X90410000Y-107846250I0J218750D01*
G01*
G37*
G36*
G01*
X88835000Y-107846250D02*
X88835000Y-107333750D01*
G75*
G02*
X89053750Y-107115000I218750J0D01*
G01*
X89491250Y-107115000D01*
G75*
G02*
X89710000Y-107333750I0J-218750D01*
G01*
X89710000Y-107846250D01*
G75*
G02*
X89491250Y-108065000I-218750J0D01*
G01*
X89053750Y-108065000D01*
G75*
G02*
X88835000Y-107846250I0J218750D01*
G01*
G37*
G36*
G01*
X125810000Y-102616250D02*
X125810000Y-102103750D01*
G75*
G02*
X126028750Y-101885000I218750J0D01*
G01*
X126466250Y-101885000D01*
G75*
G02*
X126685000Y-102103750I0J-218750D01*
G01*
X126685000Y-102616250D01*
G75*
G02*
X126466250Y-102835000I-218750J0D01*
G01*
X126028750Y-102835000D01*
G75*
G02*
X125810000Y-102616250I0J218750D01*
G01*
G37*
G36*
G01*
X124235000Y-102616250D02*
X124235000Y-102103750D01*
G75*
G02*
X124453750Y-101885000I218750J0D01*
G01*
X124891250Y-101885000D01*
G75*
G02*
X125110000Y-102103750I0J-218750D01*
G01*
X125110000Y-102616250D01*
G75*
G02*
X124891250Y-102835000I-218750J0D01*
G01*
X124453750Y-102835000D01*
G75*
G02*
X124235000Y-102616250I0J218750D01*
G01*
G37*
G36*
G01*
X125800000Y-104166250D02*
X125800000Y-103653750D01*
G75*
G02*
X126018750Y-103435000I218750J0D01*
G01*
X126456250Y-103435000D01*
G75*
G02*
X126675000Y-103653750I0J-218750D01*
G01*
X126675000Y-104166250D01*
G75*
G02*
X126456250Y-104385000I-218750J0D01*
G01*
X126018750Y-104385000D01*
G75*
G02*
X125800000Y-104166250I0J218750D01*
G01*
G37*
G36*
G01*
X124225000Y-104166250D02*
X124225000Y-103653750D01*
G75*
G02*
X124443750Y-103435000I218750J0D01*
G01*
X124881250Y-103435000D01*
G75*
G02*
X125100000Y-103653750I0J-218750D01*
G01*
X125100000Y-104166250D01*
G75*
G02*
X124881250Y-104385000I-218750J0D01*
G01*
X124443750Y-104385000D01*
G75*
G02*
X124225000Y-104166250I0J218750D01*
G01*
G37*
G36*
G01*
X86772000Y-108709750D02*
X86772000Y-109222250D01*
G75*
G02*
X86553250Y-109441000I-218750J0D01*
G01*
X86115750Y-109441000D01*
G75*
G02*
X85897000Y-109222250I0J218750D01*
G01*
X85897000Y-108709750D01*
G75*
G02*
X86115750Y-108491000I218750J0D01*
G01*
X86553250Y-108491000D01*
G75*
G02*
X86772000Y-108709750I0J-218750D01*
G01*
G37*
G36*
G01*
X88347000Y-108709750D02*
X88347000Y-109222250D01*
G75*
G02*
X88128250Y-109441000I-218750J0D01*
G01*
X87690750Y-109441000D01*
G75*
G02*
X87472000Y-109222250I0J218750D01*
G01*
X87472000Y-108709750D01*
G75*
G02*
X87690750Y-108491000I218750J0D01*
G01*
X88128250Y-108491000D01*
G75*
G02*
X88347000Y-108709750I0J-218750D01*
G01*
G37*
D25*
X103150000Y-84925000D03*
X103150000Y-85575000D03*
X103150000Y-86225000D03*
X103150000Y-86875000D03*
X98850000Y-86875000D03*
X98850000Y-86225000D03*
X98850000Y-85575000D03*
X98850000Y-84925000D03*
D16*
X122250000Y-115250000D03*
X122250000Y-114300000D03*
X122250000Y-116200000D03*
X120050000Y-116200000D03*
X120050000Y-115250000D03*
X120050000Y-114300000D03*
G36*
G01*
X112681000Y-117075000D02*
X112681000Y-118325000D01*
G75*
G02*
X112431000Y-118575000I-250000J0D01*
G01*
X111681000Y-118575000D01*
G75*
G02*
X111431000Y-118325000I0J250000D01*
G01*
X111431000Y-117075000D01*
G75*
G02*
X111681000Y-116825000I250000J0D01*
G01*
X112431000Y-116825000D01*
G75*
G02*
X112681000Y-117075000I0J-250000D01*
G01*
G37*
G36*
G01*
X115481000Y-117075000D02*
X115481000Y-118325000D01*
G75*
G02*
X115231000Y-118575000I-250000J0D01*
G01*
X114481000Y-118575000D01*
G75*
G02*
X114231000Y-118325000I0J250000D01*
G01*
X114231000Y-117075000D01*
G75*
G02*
X114481000Y-116825000I250000J0D01*
G01*
X115231000Y-116825000D01*
G75*
G02*
X115481000Y-117075000I0J-250000D01*
G01*
G37*
G36*
G01*
X95453750Y-100810000D02*
X96366250Y-100810000D01*
G75*
G02*
X96610000Y-101053750I0J-243750D01*
G01*
X96610000Y-101541250D01*
G75*
G02*
X96366250Y-101785000I-243750J0D01*
G01*
X95453750Y-101785000D01*
G75*
G02*
X95210000Y-101541250I0J243750D01*
G01*
X95210000Y-101053750D01*
G75*
G02*
X95453750Y-100810000I243750J0D01*
G01*
G37*
G36*
G01*
X95453750Y-98935000D02*
X96366250Y-98935000D01*
G75*
G02*
X96610000Y-99178750I0J-243750D01*
G01*
X96610000Y-99666250D01*
G75*
G02*
X96366250Y-99910000I-243750J0D01*
G01*
X95453750Y-99910000D01*
G75*
G02*
X95210000Y-99666250I0J243750D01*
G01*
X95210000Y-99178750D01*
G75*
G02*
X95453750Y-98935000I243750J0D01*
G01*
G37*
G36*
G01*
X94486250Y-97110000D02*
X93973750Y-97110000D01*
G75*
G02*
X93755000Y-96891250I0J218750D01*
G01*
X93755000Y-96453750D01*
G75*
G02*
X93973750Y-96235000I218750J0D01*
G01*
X94486250Y-96235000D01*
G75*
G02*
X94705000Y-96453750I0J-218750D01*
G01*
X94705000Y-96891250D01*
G75*
G02*
X94486250Y-97110000I-218750J0D01*
G01*
G37*
G36*
G01*
X94486250Y-98685000D02*
X93973750Y-98685000D01*
G75*
G02*
X93755000Y-98466250I0J218750D01*
G01*
X93755000Y-98028750D01*
G75*
G02*
X93973750Y-97810000I218750J0D01*
G01*
X94486250Y-97810000D01*
G75*
G02*
X94705000Y-98028750I0J-218750D01*
G01*
X94705000Y-98466250D01*
G75*
G02*
X94486250Y-98685000I-218750J0D01*
G01*
G37*
D27*
X89000000Y-68960000D03*
D28*
X86460000Y-68960000D03*
D44*
X128635001Y-103425001D03*
D45*
X128635001Y-102425001D03*
D44*
X128630000Y-105570000D03*
D45*
X128630000Y-106570000D03*
M02*
