M48
; DRILL file {KiCad (5.1.6)-1} date 04/03/21 13:21:34
; FORMAT={-:-/ absolute / metric / decimal}
; #@! TF.CreationDate,2021-04-03T13:21:34+02:00
; #@! TF.GenerationSoftware,Kicad,Pcbnew,(5.1.6)-1
FMAT,2
METRIC
T1C0.202
T2C0.250
T3C0.300
T4C0.500
T5C1.000
T6C1.020
T7C2.700
T8C1.000
T9C1.270
%
G90
G05
T1
X83.94Y-125.25
X85.93Y-121.87
X89.91Y-124.85
X90.802Y-95.807
X92.456Y-115.824
X92.59Y-106.34
X92.73Y-105.28
X92.964Y-126.492
X93.13Y-99.01
X93.24Y-97.2
X93.9Y-114.05
X94.3Y-101.82
X94.37Y-109.66
X95.12Y-109.19
X95.52Y-112.93
X95.606Y-114.644
X95.7Y-113.7
X96.041Y-97.64
X96.041Y-98.3
X96.09Y-72.28
X96.09Y-72.929
X96.09Y-78.8
X96.09Y-79.449
X96.09Y-91.18
X96.09Y-91.829
X96.58Y-114.42
X96.69Y-97.64
X96.69Y-98.3
X96.75Y-72.28
X96.75Y-72.929
X96.75Y-78.8
X96.75Y-79.449
X96.75Y-91.18
X96.75Y-91.829
X96.93Y-73.58
X96.93Y-74.22
X96.93Y-74.88
X96.93Y-75.53
X96.93Y-76.82
X96.93Y-77.48
X96.93Y-78.13
X96.93Y-92.45
X96.93Y-93.1
X96.93Y-93.75
X96.93Y-94.4
X96.93Y-95.7
X96.93Y-96.36
X96.93Y-97.0
X98.553Y-108.846
X98.553Y-109.346
X98.553Y-109.846
X98.553Y-110.346
X98.553Y-110.846
X99.04Y-113.401
X99.04Y-113.861
X99.04Y-114.321
X99.04Y-114.781
X99.254Y-108.846
X99.254Y-109.346
X99.254Y-109.846
X99.254Y-110.346
X99.273Y-110.827
X99.5Y-113.401
X99.5Y-113.861
X99.5Y-114.321
X99.5Y-114.781
X99.953Y-108.846
X99.953Y-109.346
X99.953Y-109.846
X99.953Y-110.346
X99.953Y-110.846
X99.96Y-113.401
X99.966Y-113.861
X99.966Y-114.321
X99.966Y-114.781
X100.419Y-113.861
X100.419Y-114.321
X100.419Y-114.781
X100.42Y-113.401
X100.835Y-115.473
X101.95Y-114.65
X102.3Y-68.92
X102.6Y-113.3
X102.85Y-114.6
X104.503Y-96.216
X104.54Y-97.6
X104.63Y-77.46
X104.64Y-78.751
X104.708Y-79.321
X104.77Y-98.14
X105.373Y-97.03
X105.53Y-72.9
X105.53Y-73.549
X105.53Y-79.42
X105.53Y-80.069
X105.53Y-91.801
X105.53Y-92.46
X105.53Y-98.3
X105.53Y-98.949
X106.18Y-91.801
X106.19Y-72.9
X106.19Y-73.549
X106.19Y-79.42
X106.19Y-80.069
X106.19Y-92.46
X106.19Y-98.3
X106.19Y-98.949
X106.51Y-77.74
X111.93Y-98.98
X112.52Y-113.09
X112.8Y-116.56
X113.689Y-106.55
X114.551Y-108.9
X115.33Y-106.21
X115.4Y-110.04
X115.48Y-111.089
X115.55Y-103.9
X115.56Y-105.44
X115.75Y-113.11
X119.42Y-110.02
X120.48Y-110.7
X121.72Y-113.09
X122.39Y-113.041
X122.96Y-113.041
X123.41Y-127.73
X123.52Y-102.05
X124.8Y-123.14
X125.29Y-122.72
X125.45Y-110.71
X125.45Y-111.262
X125.52Y-103.23
X125.703Y-122.354
X125.803Y-107.54
X126.66Y-105.16
X128.08Y-110.109
X128.27Y-111.252
X128.27Y-112.776
X128.27Y-114.3
X129.058Y-109.372
T2
X98.6Y-116.7
X98.6Y-117.5
X98.6Y-118.3
X106.65Y-110.79
X107.45Y-110.79
X108.25Y-110.79
T3
X82.892Y-85.39
X85.09Y-108.966
X87.65Y-118.8
X89.6Y-109.9
X90.05Y-109.45
X90.1Y-110.3
X90.45Y-109.05
X90.5Y-109.9
X90.7Y-110.8
X90.9Y-108.6
X91.0Y-109.4
X91.15Y-101.41
X91.2Y-110.3
X91.2Y-116.55
X91.35Y-108.15
X91.45Y-108.95
X91.6Y-109.9
X91.95Y-111.62
X91.97Y-103.88
X91.975Y-107.825
X92.15Y-109.65
X92.15Y-108.85
X94.05Y-119.65
X94.3Y-104.3
X94.55Y-115.2
X97.9Y-123.3
X99.75Y-124.75
X103.4Y-119.3
X105.85Y-119.3
X109.24Y-116.888
X113.96Y-102.9
X115.906Y-119.28
X118.21Y-113.09
X118.45Y-102.2
X120.0Y-125.72
X120.95Y-114.3
X121.82Y-125.34
X123.495Y-104.88
X123.7Y-125.75
X99.65Y-72.05
X99.65Y-73.83
X99.65Y-75.61
X99.65Y-77.39
X99.65Y-79.17
X99.65Y-80.95
X100.95Y-72.05
X100.95Y-73.83
X100.95Y-75.61
X100.95Y-77.39
X100.95Y-79.17
X100.95Y-80.95
X102.25Y-72.05
X102.25Y-73.83
X102.25Y-75.61
X102.25Y-77.39
X102.25Y-79.17
X102.25Y-80.95
X99.65Y-90.925
X99.65Y-92.705
X99.65Y-94.485
X99.65Y-96.265
X99.65Y-98.045
X99.65Y-99.825
X100.95Y-90.925
X100.95Y-92.705
X100.95Y-94.485
X100.95Y-96.265
X100.95Y-98.045
X100.95Y-99.825
X102.25Y-90.925
X102.25Y-92.705
X102.25Y-94.485
X102.25Y-96.265
X102.25Y-98.045
X102.25Y-99.825
T4
X84.492Y-96.354
X85.742Y-96.354
X86.992Y-96.354
X88.242Y-96.354
X89.492Y-96.354
X84.492Y-83.4
X85.742Y-83.4
X86.992Y-83.4
X88.242Y-83.4
X89.492Y-83.4
X84.492Y-104.99
X85.742Y-104.99
X86.992Y-104.99
X88.242Y-104.99
X89.492Y-104.99
X84.492Y-87.718
X85.742Y-87.718
X86.992Y-87.718
X88.242Y-87.718
X89.492Y-87.718
X128.63Y-105.57
X128.63Y-106.57
X84.492Y-92.036
X85.742Y-92.036
X86.992Y-92.036
X88.242Y-92.036
X89.492Y-92.036
X84.492Y-100.672
X85.742Y-100.672
X86.992Y-100.672
X88.242Y-100.672
X89.492Y-100.672
X128.635Y-102.425
X128.635Y-103.425
X84.492Y-79.082
X85.742Y-79.082
X86.992Y-79.082
X88.242Y-79.082
X89.492Y-79.082
T5
X110.856Y-122.8
X110.856Y-125.8
X94.856Y-122.8
X94.856Y-125.8
X77.525Y-74.011
X77.525Y-76.551
X77.525Y-79.091
X77.525Y-81.631
X77.525Y-84.171
X77.525Y-86.711
X77.525Y-89.251
X77.525Y-91.791
X77.525Y-94.331
X77.525Y-96.871
X77.525Y-99.411
X77.525Y-101.951
X77.525Y-104.491
X77.525Y-107.031
X77.525Y-109.571
X77.525Y-112.111
X77.525Y-114.651
X77.525Y-117.191
X77.525Y-119.731
X77.525Y-122.271
X80.064Y-74.011
X80.064Y-76.551
X80.064Y-79.091
X80.064Y-81.631
X80.064Y-84.171
X80.064Y-86.711
X80.064Y-89.251
X80.064Y-91.791
X80.064Y-94.331
X80.064Y-96.871
X80.064Y-99.411
X80.064Y-101.951
X80.064Y-104.491
X80.064Y-107.031
X80.064Y-109.571
X80.064Y-112.111
X80.064Y-114.651
X80.064Y-117.191
X80.064Y-119.731
X80.064Y-122.271
X110.6Y-186.49
X110.6Y-189.03
X86.856Y-122.8
X86.856Y-125.8
X102.856Y-122.8
X102.856Y-125.8
X122.45Y-99.0
X124.99Y-99.0
X127.53Y-99.0
T6
X115.4Y-78.64
X118.4Y-78.64
X121.4Y-78.64
X124.4Y-78.64
X115.4Y-94.025
X118.4Y-94.025
X121.4Y-94.025
X124.4Y-94.025
T7
X127.8Y-69.15
X78.8Y-69.15
X78.8Y-127.15
X127.8Y-127.15
T8
X99.856Y-121.86
X105.856Y-121.86
X107.856Y-121.86
X113.856Y-121.86
X91.856Y-121.86
X97.856Y-121.86
X83.856Y-121.86
X89.856Y-121.86
T9
X112.4Y-80.6
X127.4Y-80.6
X112.4Y-95.985
X127.4Y-95.985
T0
M30
