G04 #@! TF.GenerationSoftware,KiCad,Pcbnew,(5.1.6)-1*
G04 #@! TF.CreationDate,2021-06-07T15:45:22+02:00*
G04 #@! TF.ProjectId,rysboard,72797362-6f61-4726-942e-6b696361645f,4.2*
G04 #@! TF.SameCoordinates,Original*
G04 #@! TF.FileFunction,Legend,Top*
G04 #@! TF.FilePolarity,Positive*
%FSLAX46Y46*%
G04 Gerber Fmt 4.6, Leading zero omitted, Abs format (unit mm)*
G04 Created by KiCad (PCBNEW (5.1.6)-1) date 2021-06-07 15:45:22*
%MOMM*%
%LPD*%
G01*
G04 APERTURE LIST*
%ADD10C,0.150000*%
%ADD11C,0.200000*%
%ADD12C,0.125000*%
%ADD13C,0.120000*%
%ADD14C,0.010000*%
%ADD15C,0.100000*%
%ADD16C,0.254000*%
G04 APERTURE END LIST*
D10*
X115966681Y-75152380D02*
X116091681Y-74152380D01*
X116032157Y-74628571D02*
X116603586Y-74628571D01*
X116538110Y-75152380D02*
X116663110Y-74152380D01*
X117526205Y-74485714D02*
X117442872Y-75152380D01*
X117097633Y-74485714D02*
X117032157Y-75009523D01*
X117067872Y-75104761D01*
X117157157Y-75152380D01*
X117300014Y-75152380D01*
X117401205Y-75104761D01*
X117454776Y-75057142D01*
X117919062Y-75152380D02*
X118044062Y-74152380D01*
X117996443Y-74533333D02*
X118097633Y-74485714D01*
X118288110Y-74485714D01*
X118377395Y-74533333D01*
X118419062Y-74580952D01*
X118454776Y-74676190D01*
X118419062Y-74961904D01*
X118359538Y-75057142D01*
X118305967Y-75104761D01*
X118204776Y-75152380D01*
X118014300Y-75152380D01*
X117925014Y-75104761D01*
X119210729Y-75104761D02*
X119109538Y-75152380D01*
X118919062Y-75152380D01*
X118829776Y-75104761D01*
X118794062Y-75009523D01*
X118841681Y-74628571D01*
X118901205Y-74533333D01*
X119002395Y-74485714D01*
X119192872Y-74485714D01*
X119282157Y-74533333D01*
X119317872Y-74628571D01*
X119305967Y-74723809D01*
X118817872Y-74819047D01*
X119680967Y-75152380D02*
X119764300Y-74485714D01*
X119740491Y-74676190D02*
X119800014Y-74580952D01*
X119853586Y-74533333D01*
X119954776Y-74485714D01*
X120050014Y-74485714D01*
X120240491Y-74485714D02*
X120621443Y-74485714D01*
X120425014Y-74152380D02*
X120317872Y-75009523D01*
X120353586Y-75104761D01*
X120442872Y-75152380D01*
X120538110Y-75152380D01*
X121633348Y-75152380D02*
X121758348Y-74152380D01*
X122204776Y-75152380D02*
X121847633Y-74580952D01*
X122329776Y-74152380D02*
X121686919Y-74723809D01*
X122776205Y-75152380D02*
X122686919Y-75104761D01*
X122645252Y-75057142D01*
X122609538Y-74961904D01*
X122645252Y-74676190D01*
X122704776Y-74580952D01*
X122758348Y-74533333D01*
X122859538Y-74485714D01*
X123002395Y-74485714D01*
X123091681Y-74533333D01*
X123133348Y-74580952D01*
X123169062Y-74676190D01*
X123133348Y-74961904D01*
X123073824Y-75057142D01*
X123020252Y-75104761D01*
X122919062Y-75152380D01*
X122776205Y-75152380D01*
X123526205Y-74485714D02*
X123633348Y-75152380D01*
X123883348Y-74676190D01*
X124014300Y-75152380D01*
X124288110Y-74485714D01*
X125014300Y-75152380D02*
X125079776Y-74628571D01*
X125044062Y-74533333D01*
X124954776Y-74485714D01*
X124764300Y-74485714D01*
X124663110Y-74533333D01*
X125020252Y-75104761D02*
X124919062Y-75152380D01*
X124680967Y-75152380D01*
X124591681Y-75104761D01*
X124555967Y-75009523D01*
X124567872Y-74914285D01*
X124627395Y-74819047D01*
X124728586Y-74771428D01*
X124966681Y-74771428D01*
X125067872Y-74723809D01*
X125633348Y-75152380D02*
X125544062Y-75104761D01*
X125508348Y-75009523D01*
X125615491Y-74152380D01*
X125972633Y-75104761D02*
X126061919Y-75152380D01*
X126252395Y-75152380D01*
X126353586Y-75104761D01*
X126413110Y-75009523D01*
X126419062Y-74961904D01*
X126383348Y-74866666D01*
X126294062Y-74819047D01*
X126151205Y-74819047D01*
X126061919Y-74771428D01*
X126026205Y-74676190D01*
X126032157Y-74628571D01*
X126091681Y-74533333D01*
X126192872Y-74485714D01*
X126335729Y-74485714D01*
X126425014Y-74533333D01*
X126823824Y-75152380D02*
X126948824Y-74152380D01*
X126966681Y-74771428D02*
X127204776Y-75152380D01*
X127288110Y-74485714D02*
X126859538Y-74866666D01*
X127633348Y-75152380D02*
X127716681Y-74485714D01*
X127758348Y-74152380D02*
X127704776Y-74200000D01*
X127746443Y-74247619D01*
X127800014Y-74200000D01*
X127758348Y-74152380D01*
X127746443Y-74247619D01*
X119295252Y-70852380D02*
X119360729Y-70328571D01*
X119325014Y-70233333D01*
X119235729Y-70185714D01*
X119045252Y-70185714D01*
X118944062Y-70233333D01*
X119301205Y-70804761D02*
X119200014Y-70852380D01*
X118961919Y-70852380D01*
X118872633Y-70804761D01*
X118836919Y-70709523D01*
X118848824Y-70614285D01*
X118908348Y-70519047D01*
X119009538Y-70471428D01*
X119247633Y-70471428D01*
X119348824Y-70423809D01*
X119914300Y-70852380D02*
X119825014Y-70804761D01*
X119789300Y-70709523D01*
X119896443Y-69852380D01*
X120378586Y-70185714D02*
X120253586Y-71185714D01*
X120372633Y-70233333D02*
X120473824Y-70185714D01*
X120664300Y-70185714D01*
X120753586Y-70233333D01*
X120795252Y-70280952D01*
X120830967Y-70376190D01*
X120795252Y-70661904D01*
X120735729Y-70757142D01*
X120682157Y-70804761D01*
X120580967Y-70852380D01*
X120390491Y-70852380D01*
X120301205Y-70804761D01*
X121200014Y-70852380D02*
X121325014Y-69852380D01*
X121628586Y-70852380D02*
X121694062Y-70328571D01*
X121658348Y-70233333D01*
X121569062Y-70185714D01*
X121426205Y-70185714D01*
X121325014Y-70233333D01*
X121271443Y-70280952D01*
X122533348Y-70852380D02*
X122598824Y-70328571D01*
X122563110Y-70233333D01*
X122473824Y-70185714D01*
X122283348Y-70185714D01*
X122182157Y-70233333D01*
X122539300Y-70804761D02*
X122438110Y-70852380D01*
X122200014Y-70852380D01*
X122110729Y-70804761D01*
X122075014Y-70709523D01*
X122086919Y-70614285D01*
X122146443Y-70519047D01*
X122247633Y-70471428D01*
X122485729Y-70471428D01*
X122586919Y-70423809D01*
D11*
X108907142Y-69278571D02*
X108407142Y-68564285D01*
X108050000Y-69278571D02*
X108050000Y-67778571D01*
X108621428Y-67778571D01*
X108764285Y-67850000D01*
X108835714Y-67921428D01*
X108907142Y-68064285D01*
X108907142Y-68278571D01*
X108835714Y-68421428D01*
X108764285Y-68492857D01*
X108621428Y-68564285D01*
X108050000Y-68564285D01*
X109407142Y-68278571D02*
X109764285Y-69278571D01*
X110121428Y-68278571D02*
X109764285Y-69278571D01*
X109621428Y-69635714D01*
X109550000Y-69707142D01*
X109407142Y-69778571D01*
X110621428Y-69207142D02*
X110764285Y-69278571D01*
X111050000Y-69278571D01*
X111192857Y-69207142D01*
X111264285Y-69064285D01*
X111264285Y-68992857D01*
X111192857Y-68850000D01*
X111050000Y-68778571D01*
X110835714Y-68778571D01*
X110692857Y-68707142D01*
X110621428Y-68564285D01*
X110621428Y-68492857D01*
X110692857Y-68350000D01*
X110835714Y-68278571D01*
X111050000Y-68278571D01*
X111192857Y-68350000D01*
X111907142Y-69278571D02*
X111907142Y-67778571D01*
X111907142Y-68350000D02*
X112050000Y-68278571D01*
X112335714Y-68278571D01*
X112478571Y-68350000D01*
X112550000Y-68421428D01*
X112621428Y-68564285D01*
X112621428Y-68992857D01*
X112550000Y-69135714D01*
X112478571Y-69207142D01*
X112335714Y-69278571D01*
X112050000Y-69278571D01*
X111907142Y-69207142D01*
X113478571Y-69278571D02*
X113335714Y-69207142D01*
X113264285Y-69135714D01*
X113192857Y-68992857D01*
X113192857Y-68564285D01*
X113264285Y-68421428D01*
X113335714Y-68350000D01*
X113478571Y-68278571D01*
X113692857Y-68278571D01*
X113835714Y-68350000D01*
X113907142Y-68421428D01*
X113978571Y-68564285D01*
X113978571Y-68992857D01*
X113907142Y-69135714D01*
X113835714Y-69207142D01*
X113692857Y-69278571D01*
X113478571Y-69278571D01*
X115264285Y-69278571D02*
X115264285Y-68492857D01*
X115192857Y-68350000D01*
X115050000Y-68278571D01*
X114764285Y-68278571D01*
X114621428Y-68350000D01*
X115264285Y-69207142D02*
X115121428Y-69278571D01*
X114764285Y-69278571D01*
X114621428Y-69207142D01*
X114550000Y-69064285D01*
X114550000Y-68921428D01*
X114621428Y-68778571D01*
X114764285Y-68707142D01*
X115121428Y-68707142D01*
X115264285Y-68635714D01*
X115978571Y-69278571D02*
X115978571Y-68278571D01*
X115978571Y-68564285D02*
X116050000Y-68421428D01*
X116121428Y-68350000D01*
X116264285Y-68278571D01*
X116407142Y-68278571D01*
X117550000Y-69278571D02*
X117550000Y-67778571D01*
X117550000Y-69207142D02*
X117407142Y-69278571D01*
X117121428Y-69278571D01*
X116978571Y-69207142D01*
X116907142Y-69135714D01*
X116835714Y-68992857D01*
X116835714Y-68564285D01*
X116907142Y-68421428D01*
X116978571Y-68350000D01*
X117121428Y-68278571D01*
X117407142Y-68278571D01*
X117550000Y-68350000D01*
X119192857Y-67778571D02*
X119692857Y-69278571D01*
X120192857Y-67778571D01*
X121407142Y-67778571D02*
X120692857Y-67778571D01*
X120621428Y-68492857D01*
X120692857Y-68421428D01*
X120835714Y-68350000D01*
X121192857Y-68350000D01*
X121335714Y-68421428D01*
X121407142Y-68492857D01*
X121478571Y-68635714D01*
X121478571Y-68992857D01*
X121407142Y-69135714D01*
X121335714Y-69207142D01*
X121192857Y-69278571D01*
X120835714Y-69278571D01*
X120692857Y-69207142D01*
X120621428Y-69135714D01*
X122121428Y-69135714D02*
X122192857Y-69207142D01*
X122121428Y-69278571D01*
X122050000Y-69207142D01*
X122121428Y-69135714D01*
X122121428Y-69278571D01*
X123121428Y-67778571D02*
X123264285Y-67778571D01*
X123407142Y-67850000D01*
X123478571Y-67921428D01*
X123550000Y-68064285D01*
X123621428Y-68350000D01*
X123621428Y-68707142D01*
X123550000Y-68992857D01*
X123478571Y-69135714D01*
X123407142Y-69207142D01*
X123264285Y-69278571D01*
X123121428Y-69278571D01*
X122978571Y-69207142D01*
X122907142Y-69135714D01*
X122835714Y-68992857D01*
X122764285Y-68707142D01*
X122764285Y-68350000D01*
X122835714Y-68064285D01*
X122907142Y-67921428D01*
X122978571Y-67850000D01*
X123121428Y-67778571D01*
D12*
X129026190Y-116992857D02*
X128526190Y-116992857D01*
X128526190Y-116802380D01*
X128550000Y-116754761D01*
X128573809Y-116730952D01*
X128621428Y-116707142D01*
X128692857Y-116707142D01*
X128740476Y-116730952D01*
X128764285Y-116754761D01*
X128788095Y-116802380D01*
X128788095Y-116992857D01*
X128526190Y-116397619D02*
X128526190Y-116302380D01*
X128550000Y-116254761D01*
X128597619Y-116207142D01*
X128692857Y-116183333D01*
X128859523Y-116183333D01*
X128954761Y-116207142D01*
X129002380Y-116254761D01*
X129026190Y-116302380D01*
X129026190Y-116397619D01*
X129002380Y-116445238D01*
X128954761Y-116492857D01*
X128859523Y-116516666D01*
X128692857Y-116516666D01*
X128597619Y-116492857D01*
X128550000Y-116445238D01*
X128526190Y-116397619D01*
X128526190Y-116016666D02*
X129026190Y-115897619D01*
X128669047Y-115802380D01*
X129026190Y-115707142D01*
X128526190Y-115588095D01*
X129073809Y-115516666D02*
X129073809Y-115135714D01*
X129002380Y-115040476D02*
X129026190Y-114969047D01*
X129026190Y-114850000D01*
X129002380Y-114802380D01*
X128978571Y-114778571D01*
X128930952Y-114754761D01*
X128883333Y-114754761D01*
X128835714Y-114778571D01*
X128811904Y-114802380D01*
X128788095Y-114850000D01*
X128764285Y-114945238D01*
X128740476Y-114992857D01*
X128716666Y-115016666D01*
X128669047Y-115040476D01*
X128621428Y-115040476D01*
X128573809Y-115016666D01*
X128550000Y-114992857D01*
X128526190Y-114945238D01*
X128526190Y-114826190D01*
X128550000Y-114754761D01*
X128526190Y-114588095D02*
X129026190Y-114469047D01*
X128669047Y-114373809D01*
X129026190Y-114278571D01*
X128526190Y-114159523D01*
D10*
X121596447Y-100426780D02*
X121025019Y-100426780D01*
X121310733Y-100426780D02*
X121310733Y-99426780D01*
X121215495Y-99569638D01*
X121120257Y-99664876D01*
X121025019Y-99712495D01*
X121977400Y-99522019D02*
X122025019Y-99474400D01*
X122120257Y-99426780D01*
X122358352Y-99426780D01*
X122453590Y-99474400D01*
X122501209Y-99522019D01*
X122548828Y-99617257D01*
X122548828Y-99712495D01*
X122501209Y-99855352D01*
X121929780Y-100426780D01*
X122548828Y-100426780D01*
X122834542Y-99426780D02*
X123167876Y-100426780D01*
X123501209Y-99426780D01*
X124929780Y-99902971D02*
X124596447Y-99902971D01*
X124596447Y-100426780D02*
X124596447Y-99426780D01*
X125072638Y-99426780D01*
X125405971Y-100141066D02*
X125882161Y-100141066D01*
X125310733Y-100426780D02*
X125644066Y-99426780D01*
X125977400Y-100426780D01*
X126310733Y-100426780D02*
X126310733Y-99426780D01*
X126882161Y-100426780D01*
X126882161Y-99426780D01*
X90690747Y-68981628D02*
X91452652Y-68981628D01*
X91071700Y-69362580D02*
X91071700Y-68600676D01*
X83718447Y-68994328D02*
X84480352Y-68994328D01*
X103002695Y-68318119D02*
X103002695Y-69318119D01*
X102764600Y-69318119D01*
X102621742Y-69270500D01*
X102526504Y-69175261D01*
X102478885Y-69080023D01*
X102431266Y-68889547D01*
X102431266Y-68746690D01*
X102478885Y-68556214D01*
X102526504Y-68460976D01*
X102621742Y-68365738D01*
X102764600Y-68318119D01*
X103002695Y-68318119D01*
X101431266Y-68413357D02*
X101478885Y-68365738D01*
X101621742Y-68318119D01*
X101716980Y-68318119D01*
X101859838Y-68365738D01*
X101955076Y-68460976D01*
X102002695Y-68556214D01*
X102050314Y-68746690D01*
X102050314Y-68889547D01*
X102002695Y-69080023D01*
X101955076Y-69175261D01*
X101859838Y-69270500D01*
X101716980Y-69318119D01*
X101621742Y-69318119D01*
X101478885Y-69270500D01*
X101431266Y-69222880D01*
X100240790Y-68318119D02*
X100240790Y-69318119D01*
X99764600Y-68318119D02*
X99764600Y-69318119D01*
X99193171Y-68318119D01*
X99193171Y-69318119D01*
X97431266Y-68318119D02*
X98002695Y-68318119D01*
X97716980Y-68318119D02*
X97716980Y-69318119D01*
X97812219Y-69175261D01*
X97907457Y-69080023D01*
X98002695Y-69032404D01*
X97050314Y-69222880D02*
X97002695Y-69270500D01*
X96907457Y-69318119D01*
X96669361Y-69318119D01*
X96574123Y-69270500D01*
X96526504Y-69222880D01*
X96478885Y-69127642D01*
X96478885Y-69032404D01*
X96526504Y-68889547D01*
X97097933Y-68318119D01*
X96478885Y-68318119D01*
X96050314Y-68699071D02*
X95288409Y-68699071D01*
X94288409Y-68318119D02*
X94859838Y-68318119D01*
X94574123Y-68318119D02*
X94574123Y-69318119D01*
X94669361Y-69175261D01*
X94764600Y-69080023D01*
X94859838Y-69032404D01*
X93383647Y-69318119D02*
X93859838Y-69318119D01*
X93907457Y-68841928D01*
X93859838Y-68889547D01*
X93764600Y-68937166D01*
X93526504Y-68937166D01*
X93431266Y-68889547D01*
X93383647Y-68841928D01*
X93336028Y-68746690D01*
X93336028Y-68508595D01*
X93383647Y-68413357D01*
X93431266Y-68365738D01*
X93526504Y-68318119D01*
X93764600Y-68318119D01*
X93859838Y-68365738D01*
X93907457Y-68413357D01*
X93050314Y-69318119D02*
X92716980Y-68318119D01*
X92383647Y-69318119D01*
D13*
X98291000Y-121100000D02*
X98291000Y-120790000D01*
X98291000Y-120790000D02*
X91421000Y-120790000D01*
X91421000Y-120790000D02*
X91421000Y-121100000D01*
X98291000Y-122620000D02*
X98291000Y-128380000D01*
X98291000Y-128380000D02*
X96871000Y-128380000D01*
X96871000Y-128380000D02*
X96871000Y-127880000D01*
X96871000Y-127880000D02*
X92841000Y-127880000D01*
X92841000Y-127880000D02*
X92841000Y-128380000D01*
X92841000Y-128380000D02*
X91421000Y-128380000D01*
X91421000Y-128380000D02*
X91421000Y-122620000D01*
X94980000Y-97040000D02*
X94980000Y-98500000D01*
X91820000Y-97040000D02*
X91820000Y-99200000D01*
X91820000Y-97040000D02*
X92750000Y-97040000D01*
X94980000Y-97040000D02*
X94050000Y-97040000D01*
X107500000Y-103100000D02*
X108850000Y-103100000D01*
X107500000Y-110100000D02*
X107500000Y-103100000D01*
X108850000Y-110100000D02*
X107500000Y-110100000D01*
X114300000Y-110100000D02*
X112950000Y-110100000D01*
X114300000Y-103100000D02*
X114300000Y-110100000D01*
X112950000Y-103100000D02*
X114300000Y-103100000D01*
X114291000Y-121100000D02*
X114291000Y-120790000D01*
X114291000Y-120790000D02*
X107421000Y-120790000D01*
X107421000Y-120790000D02*
X107421000Y-121100000D01*
X114291000Y-122620000D02*
X114291000Y-128380000D01*
X114291000Y-128380000D02*
X112871000Y-128380000D01*
X112871000Y-128380000D02*
X112871000Y-127880000D01*
X112871000Y-127880000D02*
X108841000Y-127880000D01*
X108841000Y-127880000D02*
X108841000Y-128380000D01*
X108841000Y-128380000D02*
X107421000Y-128380000D01*
X107421000Y-128380000D02*
X107421000Y-122620000D01*
X90291000Y-121100000D02*
X90291000Y-120790000D01*
X90291000Y-120790000D02*
X83421000Y-120790000D01*
X83421000Y-120790000D02*
X83421000Y-121100000D01*
X90291000Y-122620000D02*
X90291000Y-128380000D01*
X90291000Y-128380000D02*
X88871000Y-128380000D01*
X88871000Y-128380000D02*
X88871000Y-127880000D01*
X88871000Y-127880000D02*
X84841000Y-127880000D01*
X84841000Y-127880000D02*
X84841000Y-128380000D01*
X84841000Y-128380000D02*
X83421000Y-128380000D01*
X83421000Y-128380000D02*
X83421000Y-122620000D01*
X123410000Y-125450000D02*
X120210000Y-125450000D01*
X120210000Y-125450000D02*
X120210000Y-129050000D01*
X120210000Y-129050000D02*
X123310000Y-129050000D01*
X123310000Y-129050000D02*
X123410000Y-129050000D01*
X123410000Y-129050000D02*
X123410000Y-125450000D01*
X127835000Y-93065000D02*
X127835000Y-89990000D01*
X127835000Y-89990000D02*
X111965000Y-89990000D01*
X111965000Y-89990000D02*
X111965000Y-93065000D01*
X126395000Y-94580000D02*
X126415000Y-94580000D01*
X126415000Y-94580000D02*
X126415000Y-94080000D01*
X126415000Y-94080000D02*
X113385000Y-94080000D01*
X113385000Y-94080000D02*
X113385000Y-94580000D01*
X113385000Y-94580000D02*
X113405000Y-94580000D01*
X104390000Y-109602064D02*
X104390000Y-108397936D01*
X106210000Y-109602064D02*
X106210000Y-108397936D01*
X127835000Y-79705000D02*
X127835000Y-76630000D01*
X127835000Y-76630000D02*
X111965000Y-76630000D01*
X111965000Y-76630000D02*
X111965000Y-79705000D01*
X126395000Y-81220000D02*
X126415000Y-81220000D01*
X126415000Y-81220000D02*
X126415000Y-80720000D01*
X126415000Y-80720000D02*
X113385000Y-80720000D01*
X113385000Y-80720000D02*
X113385000Y-81220000D01*
X113385000Y-81220000D02*
X113405000Y-81220000D01*
X99950000Y-102150000D02*
X99950000Y-106450000D01*
X99950000Y-106450000D02*
X105650000Y-106450000D01*
X99950000Y-102150000D02*
X105650000Y-102150000D01*
D10*
X103275000Y-81475000D02*
X103275000Y-81250000D01*
X98625000Y-81475000D02*
X98625000Y-81150000D01*
X98625000Y-71474200D02*
X98625000Y-71799200D01*
X103275000Y-71474200D02*
X103275000Y-71799200D01*
X103275000Y-81475000D02*
X98625000Y-81475000D01*
X103275000Y-71474200D02*
X98625000Y-71474200D01*
X103275000Y-81250000D02*
X104350000Y-81250000D01*
X103275000Y-100350000D02*
X103275000Y-100125000D01*
X98625000Y-100350000D02*
X98625000Y-100025000D01*
X98625000Y-90349200D02*
X98625000Y-90674200D01*
X103275000Y-90349200D02*
X103275000Y-90674200D01*
X103275000Y-100350000D02*
X98625000Y-100350000D01*
X103275000Y-90349200D02*
X98625000Y-90349200D01*
X103275000Y-100125000D02*
X104350000Y-100125000D01*
D13*
X82882000Y-102830000D02*
X82882000Y-106250000D01*
X82882000Y-106250000D02*
X91102000Y-106250000D01*
X91102000Y-106250000D02*
X91102000Y-102830000D01*
X91102000Y-102830000D02*
X82882000Y-102830000D01*
X86992000Y-105740000D02*
X83392000Y-105740000D01*
X83392000Y-105740000D02*
X83392000Y-104990000D01*
X83392000Y-104990000D02*
X83192000Y-104990000D01*
X83192000Y-104990000D02*
X83192000Y-104190000D01*
X83192000Y-104190000D02*
X83392000Y-104190000D01*
X83392000Y-104190000D02*
X83392000Y-103340000D01*
X83392000Y-103340000D02*
X86992000Y-103340000D01*
X86992000Y-105740000D02*
X90592000Y-105740000D01*
X90592000Y-105740000D02*
X90592000Y-104990000D01*
X90592000Y-104990000D02*
X90792000Y-104990000D01*
X90792000Y-104990000D02*
X90792000Y-104190000D01*
X90792000Y-104190000D02*
X90592000Y-104190000D01*
X90592000Y-104190000D02*
X90592000Y-103340000D01*
X90592000Y-103340000D02*
X86992000Y-103340000D01*
X82592000Y-106540000D02*
X82592000Y-105540000D01*
X82592000Y-106540000D02*
X83592000Y-106540000D01*
X82882000Y-76922000D02*
X82882000Y-80342000D01*
X82882000Y-80342000D02*
X91102000Y-80342000D01*
X91102000Y-80342000D02*
X91102000Y-76922000D01*
X91102000Y-76922000D02*
X82882000Y-76922000D01*
X86992000Y-79832000D02*
X83392000Y-79832000D01*
X83392000Y-79832000D02*
X83392000Y-79082000D01*
X83392000Y-79082000D02*
X83192000Y-79082000D01*
X83192000Y-79082000D02*
X83192000Y-78282000D01*
X83192000Y-78282000D02*
X83392000Y-78282000D01*
X83392000Y-78282000D02*
X83392000Y-77432000D01*
X83392000Y-77432000D02*
X86992000Y-77432000D01*
X86992000Y-79832000D02*
X90592000Y-79832000D01*
X90592000Y-79832000D02*
X90592000Y-79082000D01*
X90592000Y-79082000D02*
X90792000Y-79082000D01*
X90792000Y-79082000D02*
X90792000Y-78282000D01*
X90792000Y-78282000D02*
X90592000Y-78282000D01*
X90592000Y-78282000D02*
X90592000Y-77432000D01*
X90592000Y-77432000D02*
X86992000Y-77432000D01*
X82592000Y-80632000D02*
X82592000Y-79632000D01*
X82592000Y-80632000D02*
X83592000Y-80632000D01*
X82882000Y-81240000D02*
X82882000Y-84660000D01*
X82882000Y-84660000D02*
X91102000Y-84660000D01*
X91102000Y-84660000D02*
X91102000Y-81240000D01*
X91102000Y-81240000D02*
X82882000Y-81240000D01*
X86992000Y-84150000D02*
X83392000Y-84150000D01*
X83392000Y-84150000D02*
X83392000Y-83400000D01*
X83392000Y-83400000D02*
X83192000Y-83400000D01*
X83192000Y-83400000D02*
X83192000Y-82600000D01*
X83192000Y-82600000D02*
X83392000Y-82600000D01*
X83392000Y-82600000D02*
X83392000Y-81750000D01*
X83392000Y-81750000D02*
X86992000Y-81750000D01*
X86992000Y-84150000D02*
X90592000Y-84150000D01*
X90592000Y-84150000D02*
X90592000Y-83400000D01*
X90592000Y-83400000D02*
X90792000Y-83400000D01*
X90792000Y-83400000D02*
X90792000Y-82600000D01*
X90792000Y-82600000D02*
X90592000Y-82600000D01*
X90592000Y-82600000D02*
X90592000Y-81750000D01*
X90592000Y-81750000D02*
X86992000Y-81750000D01*
X82592000Y-84950000D02*
X82592000Y-83950000D01*
X82592000Y-84950000D02*
X83592000Y-84950000D01*
X82882000Y-85558000D02*
X82882000Y-88978000D01*
X82882000Y-88978000D02*
X91102000Y-88978000D01*
X91102000Y-88978000D02*
X91102000Y-85558000D01*
X91102000Y-85558000D02*
X82882000Y-85558000D01*
X86992000Y-88468000D02*
X83392000Y-88468000D01*
X83392000Y-88468000D02*
X83392000Y-87718000D01*
X83392000Y-87718000D02*
X83192000Y-87718000D01*
X83192000Y-87718000D02*
X83192000Y-86918000D01*
X83192000Y-86918000D02*
X83392000Y-86918000D01*
X83392000Y-86918000D02*
X83392000Y-86068000D01*
X83392000Y-86068000D02*
X86992000Y-86068000D01*
X86992000Y-88468000D02*
X90592000Y-88468000D01*
X90592000Y-88468000D02*
X90592000Y-87718000D01*
X90592000Y-87718000D02*
X90792000Y-87718000D01*
X90792000Y-87718000D02*
X90792000Y-86918000D01*
X90792000Y-86918000D02*
X90592000Y-86918000D01*
X90592000Y-86918000D02*
X90592000Y-86068000D01*
X90592000Y-86068000D02*
X86992000Y-86068000D01*
X82592000Y-89268000D02*
X82592000Y-88268000D01*
X82592000Y-89268000D02*
X83592000Y-89268000D01*
X82882000Y-89876000D02*
X82882000Y-93296000D01*
X82882000Y-93296000D02*
X91102000Y-93296000D01*
X91102000Y-93296000D02*
X91102000Y-89876000D01*
X91102000Y-89876000D02*
X82882000Y-89876000D01*
X86992000Y-92786000D02*
X83392000Y-92786000D01*
X83392000Y-92786000D02*
X83392000Y-92036000D01*
X83392000Y-92036000D02*
X83192000Y-92036000D01*
X83192000Y-92036000D02*
X83192000Y-91236000D01*
X83192000Y-91236000D02*
X83392000Y-91236000D01*
X83392000Y-91236000D02*
X83392000Y-90386000D01*
X83392000Y-90386000D02*
X86992000Y-90386000D01*
X86992000Y-92786000D02*
X90592000Y-92786000D01*
X90592000Y-92786000D02*
X90592000Y-92036000D01*
X90592000Y-92036000D02*
X90792000Y-92036000D01*
X90792000Y-92036000D02*
X90792000Y-91236000D01*
X90792000Y-91236000D02*
X90592000Y-91236000D01*
X90592000Y-91236000D02*
X90592000Y-90386000D01*
X90592000Y-90386000D02*
X86992000Y-90386000D01*
X82592000Y-93586000D02*
X82592000Y-92586000D01*
X82592000Y-93586000D02*
X83592000Y-93586000D01*
X82882000Y-94194000D02*
X82882000Y-97614000D01*
X82882000Y-97614000D02*
X91102000Y-97614000D01*
X91102000Y-97614000D02*
X91102000Y-94194000D01*
X91102000Y-94194000D02*
X82882000Y-94194000D01*
X86992000Y-97104000D02*
X83392000Y-97104000D01*
X83392000Y-97104000D02*
X83392000Y-96354000D01*
X83392000Y-96354000D02*
X83192000Y-96354000D01*
X83192000Y-96354000D02*
X83192000Y-95554000D01*
X83192000Y-95554000D02*
X83392000Y-95554000D01*
X83392000Y-95554000D02*
X83392000Y-94704000D01*
X83392000Y-94704000D02*
X86992000Y-94704000D01*
X86992000Y-97104000D02*
X90592000Y-97104000D01*
X90592000Y-97104000D02*
X90592000Y-96354000D01*
X90592000Y-96354000D02*
X90792000Y-96354000D01*
X90792000Y-96354000D02*
X90792000Y-95554000D01*
X90792000Y-95554000D02*
X90592000Y-95554000D01*
X90592000Y-95554000D02*
X90592000Y-94704000D01*
X90592000Y-94704000D02*
X86992000Y-94704000D01*
X82592000Y-97904000D02*
X82592000Y-96904000D01*
X82592000Y-97904000D02*
X83592000Y-97904000D01*
X82882000Y-98512000D02*
X82882000Y-101932000D01*
X82882000Y-101932000D02*
X91102000Y-101932000D01*
X91102000Y-101932000D02*
X91102000Y-98512000D01*
X91102000Y-98512000D02*
X82882000Y-98512000D01*
X86992000Y-101422000D02*
X83392000Y-101422000D01*
X83392000Y-101422000D02*
X83392000Y-100672000D01*
X83392000Y-100672000D02*
X83192000Y-100672000D01*
X83192000Y-100672000D02*
X83192000Y-99872000D01*
X83192000Y-99872000D02*
X83392000Y-99872000D01*
X83392000Y-99872000D02*
X83392000Y-99022000D01*
X83392000Y-99022000D02*
X86992000Y-99022000D01*
X86992000Y-101422000D02*
X90592000Y-101422000D01*
X90592000Y-101422000D02*
X90592000Y-100672000D01*
X90592000Y-100672000D02*
X90792000Y-100672000D01*
X90792000Y-100672000D02*
X90792000Y-99872000D01*
X90792000Y-99872000D02*
X90592000Y-99872000D01*
X90592000Y-99872000D02*
X90592000Y-99022000D01*
X90592000Y-99022000D02*
X86992000Y-99022000D01*
X82592000Y-102222000D02*
X82592000Y-101222000D01*
X82592000Y-102222000D02*
X83592000Y-102222000D01*
X99460000Y-103697936D02*
X99460000Y-104902064D01*
X97640000Y-103697936D02*
X97640000Y-104902064D01*
X97060000Y-103697936D02*
X97060000Y-104902064D01*
X95240000Y-103697936D02*
X95240000Y-104902064D01*
X93740000Y-108092779D02*
X93740000Y-107767221D01*
X94760000Y-108092779D02*
X94760000Y-107767221D01*
X106291000Y-121100000D02*
X106291000Y-120790000D01*
X106291000Y-120790000D02*
X99421000Y-120790000D01*
X99421000Y-120790000D02*
X99421000Y-121100000D01*
X106291000Y-122620000D02*
X106291000Y-128380000D01*
X106291000Y-128380000D02*
X104871000Y-128380000D01*
X104871000Y-128380000D02*
X104871000Y-127880000D01*
X104871000Y-127880000D02*
X100841000Y-127880000D01*
X100841000Y-127880000D02*
X100841000Y-128380000D01*
X100841000Y-128380000D02*
X99421000Y-128380000D01*
X99421000Y-128380000D02*
X99421000Y-122620000D01*
X94700000Y-92967936D02*
X94700000Y-94172064D01*
X92880000Y-92967936D02*
X92880000Y-94172064D01*
X107400000Y-92751422D02*
X107400000Y-93268578D01*
X105980000Y-92751422D02*
X105980000Y-93268578D01*
X106322779Y-96020000D02*
X105997221Y-96020000D01*
X106322779Y-95000000D02*
X105997221Y-95000000D01*
X96250000Y-93407221D02*
X96250000Y-93732779D01*
X95230000Y-93407221D02*
X95230000Y-93732779D01*
X109362779Y-97920000D02*
X109037221Y-97920000D01*
X109362779Y-96900000D02*
X109037221Y-96900000D01*
X94680000Y-74417936D02*
X94680000Y-75622064D01*
X92860000Y-74417936D02*
X92860000Y-75622064D01*
X107290000Y-73921422D02*
X107290000Y-74438578D01*
X105870000Y-73921422D02*
X105870000Y-74438578D01*
X106342779Y-77180000D02*
X106017221Y-77180000D01*
X106342779Y-76160000D02*
X106017221Y-76160000D01*
X96170000Y-74677221D02*
X96170000Y-75002779D01*
X95150000Y-74677221D02*
X95150000Y-75002779D01*
X109812779Y-78220000D02*
X109487221Y-78220000D01*
X109812779Y-77200000D02*
X109487221Y-77200000D01*
X119410000Y-120087221D02*
X119410000Y-120412779D01*
X118390000Y-120087221D02*
X118390000Y-120412779D01*
X121037221Y-117340000D02*
X121362779Y-117340000D01*
X121037221Y-118360000D02*
X121362779Y-118360000D01*
X124160000Y-120037221D02*
X124160000Y-120362779D01*
X123140000Y-120037221D02*
X123140000Y-120362779D01*
X118760000Y-114878733D02*
X118760000Y-115221267D01*
X117740000Y-114878733D02*
X117740000Y-115221267D01*
X107870000Y-95660000D02*
X108800000Y-95660000D01*
X111030000Y-95660000D02*
X110100000Y-95660000D01*
X111030000Y-95660000D02*
X111030000Y-93500000D01*
X107870000Y-95660000D02*
X107870000Y-94200000D01*
X108050000Y-75660000D02*
X108980000Y-75660000D01*
X111210000Y-75660000D02*
X110280000Y-75660000D01*
X111210000Y-75660000D02*
X111210000Y-73500000D01*
X108050000Y-75660000D02*
X108050000Y-74200000D01*
X127000000Y-117250000D02*
X125000000Y-117250000D01*
X125000000Y-117250000D02*
X125000000Y-121100000D01*
X127000000Y-117250000D02*
X127000000Y-121100000D01*
X129035000Y-99080000D02*
X129035000Y-96420000D01*
X123895000Y-99080000D02*
X129035000Y-99080000D01*
X123895000Y-96420000D02*
X129035000Y-96420000D01*
X123895000Y-99080000D02*
X123895000Y-96420000D01*
X122625000Y-99080000D02*
X121295000Y-99080000D01*
X121295000Y-99080000D02*
X121295000Y-97750000D01*
X109415000Y-85312779D02*
X109415000Y-84987221D01*
X110435000Y-85312779D02*
X110435000Y-84987221D01*
X107532779Y-88330000D02*
X107207221Y-88330000D01*
X107532779Y-87310000D02*
X107207221Y-87310000D01*
X110182779Y-99440000D02*
X109857221Y-99440000D01*
X110182779Y-98420000D02*
X109857221Y-98420000D01*
X106322779Y-97540000D02*
X105997221Y-97540000D01*
X106322779Y-96520000D02*
X105997221Y-96520000D01*
X106562779Y-78710000D02*
X106237221Y-78710000D01*
X106562779Y-77690000D02*
X106237221Y-77690000D01*
X109537221Y-78890000D02*
X109862779Y-78890000D01*
X109537221Y-79910000D02*
X109862779Y-79910000D01*
X93840000Y-103662779D02*
X93840000Y-103337221D01*
X94860000Y-103662779D02*
X94860000Y-103337221D01*
X94760000Y-110867221D02*
X94760000Y-111192779D01*
X93740000Y-110867221D02*
X93740000Y-111192779D01*
X120960000Y-120037221D02*
X120960000Y-120362779D01*
X119940000Y-120037221D02*
X119940000Y-120362779D01*
X121802064Y-124010000D02*
X120597936Y-124010000D01*
X121802064Y-122190000D02*
X120597936Y-122190000D01*
X122560000Y-120037221D02*
X122560000Y-120362779D01*
X121540000Y-120037221D02*
X121540000Y-120362779D01*
X107542779Y-86740000D02*
X107217221Y-86740000D01*
X107542779Y-85720000D02*
X107217221Y-85720000D01*
X95477221Y-84330000D02*
X95802779Y-84330000D01*
X95477221Y-85350000D02*
X95802779Y-85350000D01*
X95487221Y-85970000D02*
X95812779Y-85970000D01*
X95487221Y-86990000D02*
X95812779Y-86990000D01*
X125210000Y-115087221D02*
X125210000Y-115412779D01*
X124190000Y-115087221D02*
X124190000Y-115412779D01*
X89897221Y-107080000D02*
X90222779Y-107080000D01*
X89897221Y-108100000D02*
X90222779Y-108100000D01*
X125297221Y-101850000D02*
X125622779Y-101850000D01*
X125297221Y-102870000D02*
X125622779Y-102870000D01*
X125287221Y-103400000D02*
X125612779Y-103400000D01*
X125287221Y-104420000D02*
X125612779Y-104420000D01*
D10*
X99375000Y-84275000D02*
X99375000Y-84400000D01*
X102625000Y-84275000D02*
X102625000Y-84500000D01*
X102625000Y-87525000D02*
X102625000Y-87300000D01*
X99375000Y-87525000D02*
X99375000Y-87300000D01*
X99375000Y-84275000D02*
X102625000Y-84275000D01*
X99375000Y-87525000D02*
X102625000Y-87525000D01*
X99375000Y-84400000D02*
X98300000Y-84400000D01*
D13*
X120250000Y-116860000D02*
X122050000Y-116860000D01*
X122050000Y-113640000D02*
X119600000Y-113640000D01*
X90330000Y-70290000D02*
X90330000Y-67630000D01*
X87730000Y-70290000D02*
X90330000Y-70290000D01*
X87730000Y-67630000D02*
X90330000Y-67630000D01*
X87730000Y-70290000D02*
X87730000Y-67630000D01*
X86460000Y-70290000D02*
X85130000Y-70290000D01*
X85130000Y-70290000D02*
X85130000Y-68960000D01*
X127525001Y-101240000D02*
X128635001Y-101240000D01*
X127525001Y-102000000D02*
X127525001Y-101240000D01*
X129198472Y-102760000D02*
X129745001Y-102760000D01*
X127525001Y-102760000D02*
X128071530Y-102760000D01*
X129745001Y-102760000D02*
X129745001Y-103965000D01*
X127525001Y-102760000D02*
X127525001Y-103965000D01*
X128942531Y-103965000D02*
X129745001Y-103965000D01*
X127525001Y-103965000D02*
X128327471Y-103965000D01*
X129740000Y-105035000D02*
X128937530Y-105035000D01*
X128322470Y-105035000D02*
X127520000Y-105035000D01*
X129740000Y-106240000D02*
X129740000Y-105035000D01*
X127520000Y-106240000D02*
X127520000Y-105035000D01*
X129740000Y-106240000D02*
X129193471Y-106240000D01*
X128066529Y-106240000D02*
X127520000Y-106240000D01*
X129740000Y-107000000D02*
X129740000Y-107760000D01*
X129740000Y-107760000D02*
X128630000Y-107760000D01*
X90100000Y-116000000D02*
X89100000Y-116000000D01*
X90100000Y-117200000D02*
X89300000Y-117200000D01*
D10*
X97215000Y-107035000D02*
X97215000Y-107235000D01*
X101365000Y-107035000D02*
X101365000Y-107235000D01*
X101365000Y-112185000D02*
X101365000Y-111985000D01*
X97215000Y-112185000D02*
X97215000Y-111985000D01*
X97215000Y-107035000D02*
X101365000Y-107035000D01*
X97215000Y-112185000D02*
X101365000Y-112185000D01*
X97215000Y-107235000D02*
X95915000Y-107235000D01*
D13*
X98650000Y-118560000D02*
X100600000Y-118560000D01*
X98650000Y-118560000D02*
X96700000Y-118560000D01*
X98650000Y-113440000D02*
X100600000Y-113440000D01*
X98650000Y-113440000D02*
X95200000Y-113440000D01*
X93985000Y-114612221D02*
X93985000Y-114937779D01*
X92965000Y-114612221D02*
X92965000Y-114937779D01*
X93287221Y-118360000D02*
X93612779Y-118360000D01*
X93287221Y-117340000D02*
X93612779Y-117340000D01*
X93562779Y-100910000D02*
X93237221Y-100910000D01*
X93562779Y-99890000D02*
X93237221Y-99890000D01*
X104390000Y-113022936D02*
X104390000Y-114227064D01*
X106210000Y-113022936D02*
X106210000Y-114227064D01*
X84711000Y-74767221D02*
X84711000Y-75092779D01*
X83691000Y-74767221D02*
X83691000Y-75092779D01*
X89025000Y-74767221D02*
X89025000Y-75092779D01*
X90045000Y-74767221D02*
X90045000Y-75092779D01*
X114500000Y-113990000D02*
X106440000Y-113990000D01*
X106440000Y-113990000D02*
X106440000Y-118510000D01*
X106440000Y-118510000D02*
X114500000Y-118510000D01*
D11*
X92698000Y-104972000D02*
G75*
G03*
X92698000Y-104972000I-10000J0D01*
G01*
X88393000Y-72874000D02*
X88393000Y-74124000D01*
X85438000Y-74474000D02*
X88298000Y-74474000D01*
X85438000Y-74624000D02*
X85438000Y-74474000D01*
X88298000Y-74624000D02*
X85438000Y-74624000D01*
X88298000Y-74474000D02*
X88298000Y-74624000D01*
D13*
X127668000Y-117477000D02*
X128778000Y-117477000D01*
X127668000Y-118237000D02*
X127668000Y-117477000D01*
X129341471Y-118997000D02*
X129888000Y-118997000D01*
X127668000Y-118997000D02*
X128214529Y-118997000D01*
X129888000Y-118997000D02*
X129888000Y-120202000D01*
X127668000Y-118997000D02*
X127668000Y-120202000D01*
X129085530Y-120202000D02*
X129888000Y-120202000D01*
X127668000Y-120202000D02*
X128470470Y-120202000D01*
D14*
G36*
X120157009Y-104882162D02*
G01*
X120250934Y-104950333D01*
X120290272Y-104999361D01*
X120319701Y-105075323D01*
X120330824Y-105171655D01*
X120322705Y-105265938D01*
X120303713Y-105321289D01*
X120245654Y-105392110D01*
X120160837Y-105454570D01*
X120068469Y-105495866D01*
X120029364Y-105504157D01*
X119940669Y-105499948D01*
X119849545Y-105461666D01*
X119761976Y-105389553D01*
X119701322Y-105295149D01*
X119670147Y-105189419D01*
X119671015Y-105083323D01*
X119706493Y-104987824D01*
X119730989Y-104955003D01*
X119823379Y-104883246D01*
X119932400Y-104847759D01*
X120047221Y-104847684D01*
X120157009Y-104882162D01*
G37*
X120157009Y-104882162D02*
X120250934Y-104950333D01*
X120290272Y-104999361D01*
X120319701Y-105075323D01*
X120330824Y-105171655D01*
X120322705Y-105265938D01*
X120303713Y-105321289D01*
X120245654Y-105392110D01*
X120160837Y-105454570D01*
X120068469Y-105495866D01*
X120029364Y-105504157D01*
X119940669Y-105499948D01*
X119849545Y-105461666D01*
X119761976Y-105389553D01*
X119701322Y-105295149D01*
X119670147Y-105189419D01*
X119671015Y-105083323D01*
X119706493Y-104987824D01*
X119730989Y-104955003D01*
X119823379Y-104883246D01*
X119932400Y-104847759D01*
X120047221Y-104847684D01*
X120157009Y-104882162D01*
G36*
X115524568Y-108879821D02*
G01*
X115639243Y-108932022D01*
X115727748Y-109010714D01*
X115786656Y-109109096D01*
X115812542Y-109220369D01*
X115801977Y-109337734D01*
X115751535Y-109454391D01*
X115712907Y-109507243D01*
X115619190Y-109589043D01*
X115506439Y-109642003D01*
X115388866Y-109660772D01*
X115323727Y-109653807D01*
X115277096Y-109634654D01*
X115213869Y-109598575D01*
X115187605Y-109581224D01*
X115093776Y-109493038D01*
X115035849Y-109389215D01*
X115011708Y-109277397D01*
X115019234Y-109165224D01*
X115056312Y-109060336D01*
X115120826Y-108970374D01*
X115210658Y-108902979D01*
X115323692Y-108865790D01*
X115387152Y-108860909D01*
X115524568Y-108879821D01*
G37*
X115524568Y-108879821D02*
X115639243Y-108932022D01*
X115727748Y-109010714D01*
X115786656Y-109109096D01*
X115812542Y-109220369D01*
X115801977Y-109337734D01*
X115751535Y-109454391D01*
X115712907Y-109507243D01*
X115619190Y-109589043D01*
X115506439Y-109642003D01*
X115388866Y-109660772D01*
X115323727Y-109653807D01*
X115277096Y-109634654D01*
X115213869Y-109598575D01*
X115187605Y-109581224D01*
X115093776Y-109493038D01*
X115035849Y-109389215D01*
X115011708Y-109277397D01*
X115019234Y-109165224D01*
X115056312Y-109060336D01*
X115120826Y-108970374D01*
X115210658Y-108902979D01*
X115323692Y-108865790D01*
X115387152Y-108860909D01*
X115524568Y-108879821D01*
G36*
X120132736Y-103402351D02*
G01*
X120327493Y-103427509D01*
X120502541Y-103467977D01*
X120542018Y-103480640D01*
X120800578Y-103592655D01*
X121034405Y-103740064D01*
X121240800Y-103918621D01*
X121417063Y-104124078D01*
X121560494Y-104352189D01*
X121668393Y-104598706D01*
X121738059Y-104859382D01*
X121766792Y-105129971D01*
X121754328Y-105387472D01*
X121709923Y-105625738D01*
X121636561Y-105841454D01*
X121529936Y-106043135D01*
X121385745Y-106239295D01*
X121246545Y-106391795D01*
X121047833Y-106575395D01*
X120851473Y-106717282D01*
X120650048Y-106820876D01*
X120436137Y-106889602D01*
X120202323Y-106926880D01*
X120068909Y-106935022D01*
X119882806Y-106935549D01*
X119730557Y-106923349D01*
X119641727Y-106907619D01*
X119369258Y-106824412D01*
X119119083Y-106703078D01*
X118893985Y-106547346D01*
X118696745Y-106360946D01*
X118530148Y-106147610D01*
X118396975Y-105911067D01*
X118300010Y-105655047D01*
X118242035Y-105383280D01*
X118225833Y-105099498D01*
X118229411Y-105014477D01*
X118232090Y-104994357D01*
X118685623Y-104994357D01*
X118686278Y-105100073D01*
X118689376Y-105185441D01*
X118703162Y-105368409D01*
X118730090Y-105520088D01*
X118774511Y-105654528D01*
X118840776Y-105785776D01*
X118908015Y-105891434D01*
X119061565Y-106079349D01*
X119242401Y-106235871D01*
X119444620Y-106358581D01*
X119662324Y-106445062D01*
X119889612Y-106492897D01*
X120120582Y-106499669D01*
X120320528Y-106470136D01*
X120534934Y-106396671D01*
X120736019Y-106283418D01*
X120917571Y-106136215D01*
X121073379Y-105960906D01*
X121197230Y-105763332D01*
X121276206Y-105571413D01*
X121310873Y-105417285D01*
X121326978Y-105245213D01*
X121324352Y-105072148D01*
X121302830Y-104915040D01*
X121283388Y-104843091D01*
X121179576Y-104599802D01*
X121041644Y-104384286D01*
X120872505Y-104199608D01*
X120675076Y-104048838D01*
X120452270Y-103935040D01*
X120402160Y-103915995D01*
X120263414Y-103880220D01*
X120097798Y-103859136D01*
X119922471Y-103853490D01*
X119754588Y-103864030D01*
X119644106Y-103882955D01*
X119425434Y-103957401D01*
X119225214Y-104071333D01*
X119048334Y-104220093D01*
X118899681Y-104399023D01*
X118784140Y-104603463D01*
X118725884Y-104758259D01*
X118704220Y-104837564D01*
X118691201Y-104911559D01*
X118685623Y-104994357D01*
X118232090Y-104994357D01*
X118263043Y-104761902D01*
X118331622Y-104529734D01*
X118438047Y-104311815D01*
X118585222Y-104101990D01*
X118741181Y-103928784D01*
X118937086Y-103749983D01*
X119133838Y-103612120D01*
X119340303Y-103510649D01*
X119565349Y-103441028D01*
X119762429Y-103405516D01*
X119937853Y-103394392D01*
X120132736Y-103402351D01*
G37*
X120132736Y-103402351D02*
X120327493Y-103427509D01*
X120502541Y-103467977D01*
X120542018Y-103480640D01*
X120800578Y-103592655D01*
X121034405Y-103740064D01*
X121240800Y-103918621D01*
X121417063Y-104124078D01*
X121560494Y-104352189D01*
X121668393Y-104598706D01*
X121738059Y-104859382D01*
X121766792Y-105129971D01*
X121754328Y-105387472D01*
X121709923Y-105625738D01*
X121636561Y-105841454D01*
X121529936Y-106043135D01*
X121385745Y-106239295D01*
X121246545Y-106391795D01*
X121047833Y-106575395D01*
X120851473Y-106717282D01*
X120650048Y-106820876D01*
X120436137Y-106889602D01*
X120202323Y-106926880D01*
X120068909Y-106935022D01*
X119882806Y-106935549D01*
X119730557Y-106923349D01*
X119641727Y-106907619D01*
X119369258Y-106824412D01*
X119119083Y-106703078D01*
X118893985Y-106547346D01*
X118696745Y-106360946D01*
X118530148Y-106147610D01*
X118396975Y-105911067D01*
X118300010Y-105655047D01*
X118242035Y-105383280D01*
X118225833Y-105099498D01*
X118229411Y-105014477D01*
X118232090Y-104994357D01*
X118685623Y-104994357D01*
X118686278Y-105100073D01*
X118689376Y-105185441D01*
X118703162Y-105368409D01*
X118730090Y-105520088D01*
X118774511Y-105654528D01*
X118840776Y-105785776D01*
X118908015Y-105891434D01*
X119061565Y-106079349D01*
X119242401Y-106235871D01*
X119444620Y-106358581D01*
X119662324Y-106445062D01*
X119889612Y-106492897D01*
X120120582Y-106499669D01*
X120320528Y-106470136D01*
X120534934Y-106396671D01*
X120736019Y-106283418D01*
X120917571Y-106136215D01*
X121073379Y-105960906D01*
X121197230Y-105763332D01*
X121276206Y-105571413D01*
X121310873Y-105417285D01*
X121326978Y-105245213D01*
X121324352Y-105072148D01*
X121302830Y-104915040D01*
X121283388Y-104843091D01*
X121179576Y-104599802D01*
X121041644Y-104384286D01*
X120872505Y-104199608D01*
X120675076Y-104048838D01*
X120452270Y-103935040D01*
X120402160Y-103915995D01*
X120263414Y-103880220D01*
X120097798Y-103859136D01*
X119922471Y-103853490D01*
X119754588Y-103864030D01*
X119644106Y-103882955D01*
X119425434Y-103957401D01*
X119225214Y-104071333D01*
X119048334Y-104220093D01*
X118899681Y-104399023D01*
X118784140Y-104603463D01*
X118725884Y-104758259D01*
X118704220Y-104837564D01*
X118691201Y-104911559D01*
X118685623Y-104994357D01*
X118232090Y-104994357D01*
X118263043Y-104761902D01*
X118331622Y-104529734D01*
X118438047Y-104311815D01*
X118585222Y-104101990D01*
X118741181Y-103928784D01*
X118937086Y-103749983D01*
X119133838Y-103612120D01*
X119340303Y-103510649D01*
X119565349Y-103441028D01*
X119762429Y-103405516D01*
X119937853Y-103394392D01*
X120132736Y-103402351D01*
G36*
X118138239Y-106946941D02*
G01*
X119332882Y-108129482D01*
X119176197Y-108287377D01*
X119107838Y-108355065D01*
X119051868Y-108408243D01*
X119015950Y-108439749D01*
X119007262Y-108445273D01*
X118989343Y-108429354D01*
X118941407Y-108383311D01*
X118866052Y-108309718D01*
X118765876Y-108211145D01*
X118643477Y-108090164D01*
X118501454Y-107949348D01*
X118342405Y-107791269D01*
X118168929Y-107618499D01*
X117983622Y-107433609D01*
X117811419Y-107261511D01*
X116627825Y-106077750D01*
X116943595Y-105764400D01*
X118138239Y-106946941D01*
G37*
X118138239Y-106946941D02*
X119332882Y-108129482D01*
X119176197Y-108287377D01*
X119107838Y-108355065D01*
X119051868Y-108408243D01*
X119015950Y-108439749D01*
X119007262Y-108445273D01*
X118989343Y-108429354D01*
X118941407Y-108383311D01*
X118866052Y-108309718D01*
X118765876Y-108211145D01*
X118643477Y-108090164D01*
X118501454Y-107949348D01*
X118342405Y-107791269D01*
X118168929Y-107618499D01*
X117983622Y-107433609D01*
X117811419Y-107261511D01*
X116627825Y-106077750D01*
X116943595Y-105764400D01*
X118138239Y-106946941D01*
G36*
X123226178Y-105887969D02*
G01*
X123381758Y-106043550D01*
X123177309Y-106248951D01*
X122972860Y-106454351D01*
X123235385Y-106452794D01*
X123446240Y-106460221D01*
X123629262Y-106487203D01*
X123799717Y-106536706D01*
X123917363Y-106585260D01*
X124108878Y-106694363D01*
X124286520Y-106836698D01*
X124440429Y-107002716D01*
X124560741Y-107182866D01*
X124586333Y-107233000D01*
X124668791Y-107452549D01*
X124705845Y-107670371D01*
X124697360Y-107887487D01*
X124643200Y-108104920D01*
X124543231Y-108323690D01*
X124415703Y-108520236D01*
X124383754Y-108558333D01*
X124325076Y-108623047D01*
X124243465Y-108710496D01*
X124142718Y-108816802D01*
X124026631Y-108938082D01*
X123899000Y-109070456D01*
X123763624Y-109210043D01*
X123624297Y-109352964D01*
X123484818Y-109495336D01*
X123348982Y-109633280D01*
X123220587Y-109762915D01*
X123103428Y-109880360D01*
X123001303Y-109981735D01*
X122918008Y-110063158D01*
X122857340Y-110120750D01*
X122823096Y-110150629D01*
X122817298Y-110154000D01*
X122796423Y-110138762D01*
X122751378Y-110098047D01*
X122690323Y-110039356D01*
X122661889Y-110011169D01*
X122519058Y-109868338D01*
X123187029Y-109191322D01*
X123385044Y-108990079D01*
X123553068Y-108817892D01*
X123694024Y-108671428D01*
X123810836Y-108547350D01*
X123906429Y-108442322D01*
X123983727Y-108353011D01*
X124045654Y-108276079D01*
X124095133Y-108208192D01*
X124135091Y-108146014D01*
X124168449Y-108086210D01*
X124185234Y-108052727D01*
X124224365Y-107964783D01*
X124246636Y-107889725D01*
X124256644Y-107806669D01*
X124258923Y-107717909D01*
X124256728Y-107612894D01*
X124246219Y-107534517D01*
X124223510Y-107463450D01*
X124195363Y-107401744D01*
X124080099Y-107218110D01*
X123930207Y-107060946D01*
X123752287Y-106935918D01*
X123552941Y-106848693D01*
X123549820Y-106847701D01*
X123394085Y-106814210D01*
X123215717Y-106801060D01*
X123033523Y-106808206D01*
X122866310Y-106835607D01*
X122816727Y-106849367D01*
X122741984Y-106874803D01*
X122670896Y-106904158D01*
X122599948Y-106940281D01*
X122525626Y-106986024D01*
X122444413Y-107044235D01*
X122352795Y-107117766D01*
X122247257Y-107209466D01*
X122124282Y-107322185D01*
X121980357Y-107458774D01*
X121811965Y-107622082D01*
X121615591Y-107814960D01*
X121568650Y-107861284D01*
X121001754Y-108421076D01*
X120847305Y-108265434D01*
X120692857Y-108109793D01*
X123070597Y-105732389D01*
X123226178Y-105887969D01*
G37*
X123226178Y-105887969D02*
X123381758Y-106043550D01*
X123177309Y-106248951D01*
X122972860Y-106454351D01*
X123235385Y-106452794D01*
X123446240Y-106460221D01*
X123629262Y-106487203D01*
X123799717Y-106536706D01*
X123917363Y-106585260D01*
X124108878Y-106694363D01*
X124286520Y-106836698D01*
X124440429Y-107002716D01*
X124560741Y-107182866D01*
X124586333Y-107233000D01*
X124668791Y-107452549D01*
X124705845Y-107670371D01*
X124697360Y-107887487D01*
X124643200Y-108104920D01*
X124543231Y-108323690D01*
X124415703Y-108520236D01*
X124383754Y-108558333D01*
X124325076Y-108623047D01*
X124243465Y-108710496D01*
X124142718Y-108816802D01*
X124026631Y-108938082D01*
X123899000Y-109070456D01*
X123763624Y-109210043D01*
X123624297Y-109352964D01*
X123484818Y-109495336D01*
X123348982Y-109633280D01*
X123220587Y-109762915D01*
X123103428Y-109880360D01*
X123001303Y-109981735D01*
X122918008Y-110063158D01*
X122857340Y-110120750D01*
X122823096Y-110150629D01*
X122817298Y-110154000D01*
X122796423Y-110138762D01*
X122751378Y-110098047D01*
X122690323Y-110039356D01*
X122661889Y-110011169D01*
X122519058Y-109868338D01*
X123187029Y-109191322D01*
X123385044Y-108990079D01*
X123553068Y-108817892D01*
X123694024Y-108671428D01*
X123810836Y-108547350D01*
X123906429Y-108442322D01*
X123983727Y-108353011D01*
X124045654Y-108276079D01*
X124095133Y-108208192D01*
X124135091Y-108146014D01*
X124168449Y-108086210D01*
X124185234Y-108052727D01*
X124224365Y-107964783D01*
X124246636Y-107889725D01*
X124256644Y-107806669D01*
X124258923Y-107717909D01*
X124256728Y-107612894D01*
X124246219Y-107534517D01*
X124223510Y-107463450D01*
X124195363Y-107401744D01*
X124080099Y-107218110D01*
X123930207Y-107060946D01*
X123752287Y-106935918D01*
X123552941Y-106848693D01*
X123549820Y-106847701D01*
X123394085Y-106814210D01*
X123215717Y-106801060D01*
X123033523Y-106808206D01*
X122866310Y-106835607D01*
X122816727Y-106849367D01*
X122741984Y-106874803D01*
X122670896Y-106904158D01*
X122599948Y-106940281D01*
X122525626Y-106986024D01*
X122444413Y-107044235D01*
X122352795Y-107117766D01*
X122247257Y-107209466D01*
X122124282Y-107322185D01*
X121980357Y-107458774D01*
X121811965Y-107622082D01*
X121615591Y-107814960D01*
X121568650Y-107861284D01*
X121001754Y-108421076D01*
X120847305Y-108265434D01*
X120692857Y-108109793D01*
X123070597Y-105732389D01*
X123226178Y-105887969D01*
G36*
X126083791Y-108745583D02*
G01*
X124917936Y-109911610D01*
X124725794Y-110103612D01*
X124543190Y-110285757D01*
X124372744Y-110455453D01*
X124217073Y-110610108D01*
X124078796Y-110747131D01*
X123960531Y-110863931D01*
X123864898Y-110957915D01*
X123794514Y-111026492D01*
X123751998Y-111067071D01*
X123739782Y-111077636D01*
X123719201Y-111062311D01*
X123674300Y-111021236D01*
X123612966Y-110961760D01*
X123578409Y-110927225D01*
X123429334Y-110776813D01*
X124600756Y-109605391D01*
X125772178Y-108433970D01*
X126083791Y-108745583D01*
G37*
X126083791Y-108745583D02*
X124917936Y-109911610D01*
X124725794Y-110103612D01*
X124543190Y-110285757D01*
X124372744Y-110455453D01*
X124217073Y-110610108D01*
X124078796Y-110747131D01*
X123960531Y-110863931D01*
X123864898Y-110957915D01*
X123794514Y-111026492D01*
X123751998Y-111067071D01*
X123739782Y-111077636D01*
X123719201Y-111062311D01*
X123674300Y-111021236D01*
X123612966Y-110961760D01*
X123578409Y-110927225D01*
X123429334Y-110776813D01*
X124600756Y-109605391D01*
X125772178Y-108433970D01*
X126083791Y-108745583D01*
G36*
X126651282Y-111023531D02*
G01*
X126673143Y-111037227D01*
X126768381Y-111117882D01*
X126823353Y-111206824D01*
X126843942Y-111314089D01*
X126844392Y-111329318D01*
X126826140Y-111441481D01*
X126773543Y-111537771D01*
X126695109Y-111612352D01*
X126599344Y-111659391D01*
X126494756Y-111673054D01*
X126389851Y-111647506D01*
X126384272Y-111644863D01*
X126299129Y-111595872D01*
X126242058Y-111540505D01*
X126203094Y-111477101D01*
X126168451Y-111368313D01*
X126172315Y-111262616D01*
X126208385Y-111165906D01*
X126270359Y-111084078D01*
X126351936Y-111023031D01*
X126446816Y-110988660D01*
X126548699Y-110986861D01*
X126651282Y-111023531D01*
G37*
X126651282Y-111023531D02*
X126673143Y-111037227D01*
X126768381Y-111117882D01*
X126823353Y-111206824D01*
X126843942Y-111314089D01*
X126844392Y-111329318D01*
X126826140Y-111441481D01*
X126773543Y-111537771D01*
X126695109Y-111612352D01*
X126599344Y-111659391D01*
X126494756Y-111673054D01*
X126389851Y-111647506D01*
X126384272Y-111644863D01*
X126299129Y-111595872D01*
X126242058Y-111540505D01*
X126203094Y-111477101D01*
X126168451Y-111368313D01*
X126172315Y-111262616D01*
X126208385Y-111165906D01*
X126270359Y-111084078D01*
X126351936Y-111023031D01*
X126446816Y-110988660D01*
X126548699Y-110986861D01*
X126651282Y-111023531D01*
G36*
X127880950Y-108258510D02*
G01*
X127898997Y-108315484D01*
X127921386Y-108399176D01*
X127940875Y-108480314D01*
X127996569Y-108723147D01*
X126660998Y-110067801D01*
X126446259Y-110284023D01*
X126234304Y-110497488D01*
X126028350Y-110704951D01*
X125831617Y-110903168D01*
X125647325Y-111088893D01*
X125478692Y-111258881D01*
X125328937Y-111409890D01*
X125201280Y-111538673D01*
X125098940Y-111641986D01*
X125025135Y-111716585D01*
X125011670Y-111730215D01*
X124697913Y-112047975D01*
X124388827Y-111735727D01*
X126121757Y-109986591D01*
X126356363Y-109749933D01*
X126581897Y-109522702D01*
X126796230Y-109307028D01*
X126997232Y-109105042D01*
X127182777Y-108918873D01*
X127350735Y-108750650D01*
X127498977Y-108602505D01*
X127625375Y-108476565D01*
X127727800Y-108374962D01*
X127804123Y-108299825D01*
X127852216Y-108253284D01*
X127869935Y-108237467D01*
X127880950Y-108258510D01*
G37*
X127880950Y-108258510D02*
X127898997Y-108315484D01*
X127921386Y-108399176D01*
X127940875Y-108480314D01*
X127996569Y-108723147D01*
X126660998Y-110067801D01*
X126446259Y-110284023D01*
X126234304Y-110497488D01*
X126028350Y-110704951D01*
X125831617Y-110903168D01*
X125647325Y-111088893D01*
X125478692Y-111258881D01*
X125328937Y-111409890D01*
X125201280Y-111538673D01*
X125098940Y-111641986D01*
X125025135Y-111716585D01*
X125011670Y-111730215D01*
X124697913Y-112047975D01*
X124388827Y-111735727D01*
X126121757Y-109986591D01*
X126356363Y-109749933D01*
X126581897Y-109522702D01*
X126796230Y-109307028D01*
X126997232Y-109105042D01*
X127182777Y-108918873D01*
X127350735Y-108750650D01*
X127498977Y-108602505D01*
X127625375Y-108476565D01*
X127727800Y-108374962D01*
X127804123Y-108299825D01*
X127852216Y-108253284D01*
X127869935Y-108237467D01*
X127880950Y-108258510D01*
G36*
X115650428Y-106981318D02*
G01*
X115942242Y-107034504D01*
X116213730Y-107125623D01*
X116470342Y-107256627D01*
X116717525Y-107429469D01*
X116784019Y-107484125D01*
X117016762Y-107709151D01*
X117211764Y-107956374D01*
X117367155Y-108222591D01*
X117481061Y-108504600D01*
X117551188Y-108796585D01*
X117567751Y-108950088D01*
X117574012Y-109129518D01*
X117570287Y-109316627D01*
X117556892Y-109493165D01*
X117536774Y-109628213D01*
X117457046Y-109915512D01*
X117338394Y-110186981D01*
X117184698Y-110438782D01*
X116999835Y-110667078D01*
X116787683Y-110868031D01*
X116552119Y-111037804D01*
X116297021Y-111172557D01*
X116026266Y-111268455D01*
X115838497Y-111308983D01*
X115723383Y-111321663D01*
X115582703Y-111328350D01*
X115436783Y-111328198D01*
X115404123Y-111327086D01*
X115147706Y-111316521D01*
X115669172Y-111839471D01*
X115485446Y-112024281D01*
X115410762Y-112098014D01*
X115347603Y-112157772D01*
X115303146Y-112196931D01*
X115285167Y-112209091D01*
X115267036Y-112193115D01*
X115218181Y-112146494D01*
X115140585Y-112071184D01*
X115036233Y-111969144D01*
X114907108Y-111842331D01*
X114755192Y-111692702D01*
X114582471Y-111522217D01*
X114390926Y-111332831D01*
X114182542Y-111126504D01*
X113959302Y-110905193D01*
X113723190Y-110670854D01*
X113476188Y-110425447D01*
X113232454Y-110183042D01*
X111196293Y-108156992D01*
X111209885Y-107983633D01*
X111218545Y-107872657D01*
X111228668Y-107742188D01*
X111238193Y-107618778D01*
X111239004Y-107608227D01*
X111247631Y-107518174D01*
X111257526Y-107448788D01*
X111267053Y-107410495D01*
X111270706Y-107406182D01*
X111289373Y-107422209D01*
X111337444Y-107468363D01*
X111412031Y-107541754D01*
X111510248Y-107639490D01*
X111629210Y-107758681D01*
X111766029Y-107896436D01*
X111917821Y-108049865D01*
X112081699Y-108216075D01*
X112234255Y-108371269D01*
X113181630Y-109336357D01*
X113184111Y-109276844D01*
X113638459Y-109276844D01*
X113674833Y-109527638D01*
X113699797Y-109620212D01*
X113801200Y-109874449D01*
X113943912Y-110114432D01*
X114123790Y-110334064D01*
X114292325Y-110491569D01*
X114417215Y-110582851D01*
X114564756Y-110671654D01*
X114718739Y-110749373D01*
X114862951Y-110807400D01*
X114919636Y-110824609D01*
X115101179Y-110858371D01*
X115303264Y-110872272D01*
X115509926Y-110866698D01*
X115705198Y-110842036D01*
X115864325Y-110801720D01*
X116122400Y-110691071D01*
X116353255Y-110545780D01*
X116554260Y-110369472D01*
X116722783Y-110165769D01*
X116856194Y-109938294D01*
X116951863Y-109690670D01*
X117007158Y-109426521D01*
X117020567Y-109209352D01*
X116998760Y-108935777D01*
X116936655Y-108678725D01*
X116837932Y-108440614D01*
X116706266Y-108223859D01*
X116545337Y-108030878D01*
X116358822Y-107864088D01*
X116150399Y-107725905D01*
X115923745Y-107618747D01*
X115682538Y-107545030D01*
X115430456Y-107507172D01*
X115171177Y-107507589D01*
X114908378Y-107548698D01*
X114645738Y-107632915D01*
X114631000Y-107639001D01*
X114405942Y-107757273D01*
X114204640Y-107911097D01*
X114029642Y-108095048D01*
X113883498Y-108303701D01*
X113768758Y-108531632D01*
X113687972Y-108773416D01*
X113643689Y-109023628D01*
X113638459Y-109276844D01*
X113184111Y-109276844D01*
X113194190Y-109035133D01*
X113224592Y-108725619D01*
X113290332Y-108442795D01*
X113393845Y-108180949D01*
X113537563Y-107934369D01*
X113723919Y-107697342D01*
X113798061Y-107617253D01*
X114031881Y-107402747D01*
X114279964Y-107231859D01*
X114544391Y-107103704D01*
X114827243Y-107017396D01*
X115130602Y-106972048D01*
X115332841Y-106964112D01*
X115650428Y-106981318D01*
G37*
X115650428Y-106981318D02*
X115942242Y-107034504D01*
X116213730Y-107125623D01*
X116470342Y-107256627D01*
X116717525Y-107429469D01*
X116784019Y-107484125D01*
X117016762Y-107709151D01*
X117211764Y-107956374D01*
X117367155Y-108222591D01*
X117481061Y-108504600D01*
X117551188Y-108796585D01*
X117567751Y-108950088D01*
X117574012Y-109129518D01*
X117570287Y-109316627D01*
X117556892Y-109493165D01*
X117536774Y-109628213D01*
X117457046Y-109915512D01*
X117338394Y-110186981D01*
X117184698Y-110438782D01*
X116999835Y-110667078D01*
X116787683Y-110868031D01*
X116552119Y-111037804D01*
X116297021Y-111172557D01*
X116026266Y-111268455D01*
X115838497Y-111308983D01*
X115723383Y-111321663D01*
X115582703Y-111328350D01*
X115436783Y-111328198D01*
X115404123Y-111327086D01*
X115147706Y-111316521D01*
X115669172Y-111839471D01*
X115485446Y-112024281D01*
X115410762Y-112098014D01*
X115347603Y-112157772D01*
X115303146Y-112196931D01*
X115285167Y-112209091D01*
X115267036Y-112193115D01*
X115218181Y-112146494D01*
X115140585Y-112071184D01*
X115036233Y-111969144D01*
X114907108Y-111842331D01*
X114755192Y-111692702D01*
X114582471Y-111522217D01*
X114390926Y-111332831D01*
X114182542Y-111126504D01*
X113959302Y-110905193D01*
X113723190Y-110670854D01*
X113476188Y-110425447D01*
X113232454Y-110183042D01*
X111196293Y-108156992D01*
X111209885Y-107983633D01*
X111218545Y-107872657D01*
X111228668Y-107742188D01*
X111238193Y-107618778D01*
X111239004Y-107608227D01*
X111247631Y-107518174D01*
X111257526Y-107448788D01*
X111267053Y-107410495D01*
X111270706Y-107406182D01*
X111289373Y-107422209D01*
X111337444Y-107468363D01*
X111412031Y-107541754D01*
X111510248Y-107639490D01*
X111629210Y-107758681D01*
X111766029Y-107896436D01*
X111917821Y-108049865D01*
X112081699Y-108216075D01*
X112234255Y-108371269D01*
X113181630Y-109336357D01*
X113184111Y-109276844D01*
X113638459Y-109276844D01*
X113674833Y-109527638D01*
X113699797Y-109620212D01*
X113801200Y-109874449D01*
X113943912Y-110114432D01*
X114123790Y-110334064D01*
X114292325Y-110491569D01*
X114417215Y-110582851D01*
X114564756Y-110671654D01*
X114718739Y-110749373D01*
X114862951Y-110807400D01*
X114919636Y-110824609D01*
X115101179Y-110858371D01*
X115303264Y-110872272D01*
X115509926Y-110866698D01*
X115705198Y-110842036D01*
X115864325Y-110801720D01*
X116122400Y-110691071D01*
X116353255Y-110545780D01*
X116554260Y-110369472D01*
X116722783Y-110165769D01*
X116856194Y-109938294D01*
X116951863Y-109690670D01*
X117007158Y-109426521D01*
X117020567Y-109209352D01*
X116998760Y-108935777D01*
X116936655Y-108678725D01*
X116837932Y-108440614D01*
X116706266Y-108223859D01*
X116545337Y-108030878D01*
X116358822Y-107864088D01*
X116150399Y-107725905D01*
X115923745Y-107618747D01*
X115682538Y-107545030D01*
X115430456Y-107507172D01*
X115171177Y-107507589D01*
X114908378Y-107548698D01*
X114645738Y-107632915D01*
X114631000Y-107639001D01*
X114405942Y-107757273D01*
X114204640Y-107911097D01*
X114029642Y-108095048D01*
X113883498Y-108303701D01*
X113768758Y-108531632D01*
X113687972Y-108773416D01*
X113643689Y-109023628D01*
X113638459Y-109276844D01*
X113184111Y-109276844D01*
X113194190Y-109035133D01*
X113224592Y-108725619D01*
X113290332Y-108442795D01*
X113393845Y-108180949D01*
X113537563Y-107934369D01*
X113723919Y-107697342D01*
X113798061Y-107617253D01*
X114031881Y-107402747D01*
X114279964Y-107231859D01*
X114544391Y-107103704D01*
X114827243Y-107017396D01*
X115130602Y-106972048D01*
X115332841Y-106964112D01*
X115650428Y-106981318D01*
G36*
X123422579Y-112397892D02*
G01*
X123428636Y-112416909D01*
X123409440Y-112449513D01*
X123388227Y-112458695D01*
X123355496Y-112450663D01*
X123347818Y-112416909D01*
X123359505Y-112379011D01*
X123388227Y-112375123D01*
X123422579Y-112397892D01*
G37*
X123422579Y-112397892D02*
X123428636Y-112416909D01*
X123409440Y-112449513D01*
X123388227Y-112458695D01*
X123355496Y-112450663D01*
X123347818Y-112416909D01*
X123359505Y-112379011D01*
X123388227Y-112375123D01*
X123422579Y-112397892D01*
G36*
X127290368Y-110990198D02*
G01*
X127361575Y-111004259D01*
X127468170Y-111026387D01*
X127605324Y-111055511D01*
X127768213Y-111090561D01*
X127952008Y-111130467D01*
X128151885Y-111174159D01*
X128363016Y-111220567D01*
X128580576Y-111268620D01*
X128799736Y-111317249D01*
X129015672Y-111365383D01*
X129223556Y-111411953D01*
X129418562Y-111455887D01*
X129595864Y-111496117D01*
X129750634Y-111531571D01*
X129878047Y-111561181D01*
X129973277Y-111583875D01*
X130031496Y-111598583D01*
X130047355Y-111603420D01*
X130059659Y-111613246D01*
X130065719Y-111633266D01*
X130064673Y-111669540D01*
X130055661Y-111728127D01*
X130037821Y-111815086D01*
X130010294Y-111936476D01*
X129984262Y-112047455D01*
X129949198Y-112194904D01*
X129914469Y-112339159D01*
X129882722Y-112469362D01*
X129856601Y-112574652D01*
X129840844Y-112636273D01*
X129798328Y-112797909D01*
X129782814Y-112532364D01*
X129776071Y-112394051D01*
X129770785Y-112242114D01*
X129767693Y-112100027D01*
X129767196Y-112035369D01*
X129767091Y-111803919D01*
X128474000Y-111805585D01*
X128234432Y-111805822D01*
X128009259Y-111805907D01*
X127802610Y-111805848D01*
X127618617Y-111805653D01*
X127461411Y-111805329D01*
X127335123Y-111804883D01*
X127243884Y-111804325D01*
X127191826Y-111803662D01*
X127180909Y-111803143D01*
X127189717Y-111781784D01*
X127212710Y-111730078D01*
X127241977Y-111665645D01*
X127294849Y-111502076D01*
X127314748Y-111324435D01*
X127300089Y-111151277D01*
X127289679Y-111106500D01*
X127272071Y-111039795D01*
X127261222Y-110995764D01*
X127259374Y-110985273D01*
X127290368Y-110990198D01*
G37*
X127290368Y-110990198D02*
X127361575Y-111004259D01*
X127468170Y-111026387D01*
X127605324Y-111055511D01*
X127768213Y-111090561D01*
X127952008Y-111130467D01*
X128151885Y-111174159D01*
X128363016Y-111220567D01*
X128580576Y-111268620D01*
X128799736Y-111317249D01*
X129015672Y-111365383D01*
X129223556Y-111411953D01*
X129418562Y-111455887D01*
X129595864Y-111496117D01*
X129750634Y-111531571D01*
X129878047Y-111561181D01*
X129973277Y-111583875D01*
X130031496Y-111598583D01*
X130047355Y-111603420D01*
X130059659Y-111613246D01*
X130065719Y-111633266D01*
X130064673Y-111669540D01*
X130055661Y-111728127D01*
X130037821Y-111815086D01*
X130010294Y-111936476D01*
X129984262Y-112047455D01*
X129949198Y-112194904D01*
X129914469Y-112339159D01*
X129882722Y-112469362D01*
X129856601Y-112574652D01*
X129840844Y-112636273D01*
X129798328Y-112797909D01*
X129782814Y-112532364D01*
X129776071Y-112394051D01*
X129770785Y-112242114D01*
X129767693Y-112100027D01*
X129767196Y-112035369D01*
X129767091Y-111803919D01*
X128474000Y-111805585D01*
X128234432Y-111805822D01*
X128009259Y-111805907D01*
X127802610Y-111805848D01*
X127618617Y-111805653D01*
X127461411Y-111805329D01*
X127335123Y-111804883D01*
X127243884Y-111804325D01*
X127191826Y-111803662D01*
X127180909Y-111803143D01*
X127189717Y-111781784D01*
X127212710Y-111730078D01*
X127241977Y-111665645D01*
X127294849Y-111502076D01*
X127314748Y-111324435D01*
X127300089Y-111151277D01*
X127289679Y-111106500D01*
X127272071Y-111039795D01*
X127261222Y-110995764D01*
X127259374Y-110985273D01*
X127290368Y-110990198D01*
G36*
X123574426Y-112551061D02*
G01*
X123629158Y-112596867D01*
X123708206Y-112673352D01*
X123717957Y-112683144D01*
X123793914Y-112760802D01*
X123841031Y-112813414D01*
X123863795Y-112847903D01*
X123866695Y-112871193D01*
X123854218Y-112890207D01*
X123852977Y-112891465D01*
X123834286Y-112904536D01*
X123812276Y-112902167D01*
X123780429Y-112879594D01*
X123732229Y-112832049D01*
X123661160Y-112754770D01*
X123651691Y-112744276D01*
X123576771Y-112658877D01*
X123531054Y-112600223D01*
X123510860Y-112562635D01*
X123512506Y-112540434D01*
X123516671Y-112535956D01*
X123538700Y-112532051D01*
X123574426Y-112551061D01*
G37*
X123574426Y-112551061D02*
X123629158Y-112596867D01*
X123708206Y-112673352D01*
X123717957Y-112683144D01*
X123793914Y-112760802D01*
X123841031Y-112813414D01*
X123863795Y-112847903D01*
X123866695Y-112871193D01*
X123854218Y-112890207D01*
X123852977Y-112891465D01*
X123834286Y-112904536D01*
X123812276Y-112902167D01*
X123780429Y-112879594D01*
X123732229Y-112832049D01*
X123661160Y-112754770D01*
X123651691Y-112744276D01*
X123576771Y-112658877D01*
X123531054Y-112600223D01*
X123510860Y-112562635D01*
X123512506Y-112540434D01*
X123516671Y-112535956D01*
X123538700Y-112532051D01*
X123574426Y-112551061D01*
G36*
X123410919Y-112674785D02*
G01*
X123415825Y-112718854D01*
X123417088Y-112801106D01*
X123417091Y-112806627D01*
X123417091Y-112971091D01*
X123770612Y-112971091D01*
X123726915Y-113019376D01*
X123698060Y-113045270D01*
X123662931Y-113057551D01*
X123607812Y-113058520D01*
X123532836Y-113051942D01*
X123382454Y-113036223D01*
X123462235Y-113119324D01*
X123508312Y-113170878D01*
X123524510Y-113202668D01*
X123515340Y-113225756D01*
X123508417Y-113232549D01*
X123491181Y-113239766D01*
X123466234Y-113231737D01*
X123428569Y-113204426D01*
X123373175Y-113153797D01*
X123295045Y-113075811D01*
X123226947Y-113005689D01*
X123129137Y-112902668D01*
X123061479Y-112827107D01*
X123020625Y-112774677D01*
X123003227Y-112741051D01*
X123005934Y-112721902D01*
X123006715Y-112721066D01*
X123027553Y-112715032D01*
X123061601Y-112731882D01*
X123114606Y-112775602D01*
X123191086Y-112848958D01*
X123347818Y-113004489D01*
X123347818Y-112852072D01*
X123352352Y-112752882D01*
X123366777Y-112692613D01*
X123382454Y-112670909D01*
X123400440Y-112661328D01*
X123410919Y-112674785D01*
G37*
X123410919Y-112674785D02*
X123415825Y-112718854D01*
X123417088Y-112801106D01*
X123417091Y-112806627D01*
X123417091Y-112971091D01*
X123770612Y-112971091D01*
X123726915Y-113019376D01*
X123698060Y-113045270D01*
X123662931Y-113057551D01*
X123607812Y-113058520D01*
X123532836Y-113051942D01*
X123382454Y-113036223D01*
X123462235Y-113119324D01*
X123508312Y-113170878D01*
X123524510Y-113202668D01*
X123515340Y-113225756D01*
X123508417Y-113232549D01*
X123491181Y-113239766D01*
X123466234Y-113231737D01*
X123428569Y-113204426D01*
X123373175Y-113153797D01*
X123295045Y-113075811D01*
X123226947Y-113005689D01*
X123129137Y-112902668D01*
X123061479Y-112827107D01*
X123020625Y-112774677D01*
X123003227Y-112741051D01*
X123005934Y-112721902D01*
X123006715Y-112721066D01*
X123027553Y-112715032D01*
X123061601Y-112731882D01*
X123114606Y-112775602D01*
X123191086Y-112848958D01*
X123347818Y-113004489D01*
X123347818Y-112852072D01*
X123352352Y-112752882D01*
X123366777Y-112692613D01*
X123382454Y-112670909D01*
X123400440Y-112661328D01*
X123410919Y-112674785D01*
G36*
X122561933Y-113309328D02*
G01*
X122593339Y-113336765D01*
X122632142Y-113368917D01*
X122658074Y-113369846D01*
X122684935Y-113346986D01*
X122721365Y-113321953D01*
X122750987Y-113334844D01*
X122751362Y-113335217D01*
X122764900Y-113365278D01*
X122741591Y-113403533D01*
X122740436Y-113404816D01*
X122722315Y-113429550D01*
X122722484Y-113453686D01*
X122745711Y-113487233D01*
X122796766Y-113540203D01*
X122812202Y-113555452D01*
X122895400Y-113628013D01*
X122957065Y-113660763D01*
X122996757Y-113653523D01*
X123008189Y-113634955D01*
X123023957Y-113617793D01*
X123048822Y-113634409D01*
X123065196Y-113662111D01*
X123048281Y-113695916D01*
X123036584Y-113709454D01*
X122986511Y-113747878D01*
X122932209Y-113751723D01*
X122867861Y-113719255D01*
X122787653Y-113648742D01*
X122768953Y-113629668D01*
X122702870Y-113564315D01*
X122658790Y-113530154D01*
X122629595Y-113522535D01*
X122615483Y-113529399D01*
X122577666Y-113541778D01*
X122549639Y-113525052D01*
X122545782Y-113492836D01*
X122557793Y-113474788D01*
X122571598Y-113444570D01*
X122548194Y-113406517D01*
X122548066Y-113406375D01*
X122524014Y-113357903D01*
X122525893Y-113326401D01*
X122539960Y-113302848D01*
X122561933Y-113309328D01*
G37*
X122561933Y-113309328D02*
X122593339Y-113336765D01*
X122632142Y-113368917D01*
X122658074Y-113369846D01*
X122684935Y-113346986D01*
X122721365Y-113321953D01*
X122750987Y-113334844D01*
X122751362Y-113335217D01*
X122764900Y-113365278D01*
X122741591Y-113403533D01*
X122740436Y-113404816D01*
X122722315Y-113429550D01*
X122722484Y-113453686D01*
X122745711Y-113487233D01*
X122796766Y-113540203D01*
X122812202Y-113555452D01*
X122895400Y-113628013D01*
X122957065Y-113660763D01*
X122996757Y-113653523D01*
X123008189Y-113634955D01*
X123023957Y-113617793D01*
X123048822Y-113634409D01*
X123065196Y-113662111D01*
X123048281Y-113695916D01*
X123036584Y-113709454D01*
X122986511Y-113747878D01*
X122932209Y-113751723D01*
X122867861Y-113719255D01*
X122787653Y-113648742D01*
X122768953Y-113629668D01*
X122702870Y-113564315D01*
X122658790Y-113530154D01*
X122629595Y-113522535D01*
X122615483Y-113529399D01*
X122577666Y-113541778D01*
X122549639Y-113525052D01*
X122545782Y-113492836D01*
X122557793Y-113474788D01*
X122571598Y-113444570D01*
X122548194Y-113406517D01*
X122548066Y-113406375D01*
X122524014Y-113357903D01*
X122525893Y-113326401D01*
X122539960Y-113302848D01*
X122561933Y-113309328D01*
G36*
X123087369Y-113008144D02*
G01*
X123111923Y-113046718D01*
X123145950Y-113115518D01*
X123192542Y-113219786D01*
X123217023Y-113276396D01*
X123264385Y-113390246D01*
X123304124Y-113492780D01*
X123332879Y-113574780D01*
X123347288Y-113627025D01*
X123348321Y-113636473D01*
X123337893Y-113702977D01*
X123313005Y-113752135D01*
X123281209Y-113775415D01*
X123250056Y-113764282D01*
X123243284Y-113755170D01*
X123243421Y-113719409D01*
X123255552Y-113698337D01*
X123270976Y-113660274D01*
X123261639Y-113602474D01*
X123256789Y-113587044D01*
X123241063Y-113550212D01*
X123215967Y-113519313D01*
X123173272Y-113488436D01*
X123104746Y-113451667D01*
X123002158Y-113403095D01*
X122998057Y-113401205D01*
X122895438Y-113352643D01*
X122829799Y-113317737D01*
X122795408Y-113292587D01*
X122786531Y-113273293D01*
X122792340Y-113261288D01*
X122811970Y-113247803D01*
X122843634Y-113249052D01*
X122896523Y-113267308D01*
X122979834Y-113304844D01*
X122992130Y-113310666D01*
X123072266Y-113347268D01*
X123134952Y-113373165D01*
X123169916Y-113384214D01*
X123173643Y-113383872D01*
X123168708Y-113360404D01*
X123147853Y-113305682D01*
X123115144Y-113230083D01*
X123102916Y-113203348D01*
X123063832Y-113115232D01*
X123044133Y-113058464D01*
X123041554Y-113023598D01*
X123053828Y-113001190D01*
X123054300Y-113000712D01*
X123069192Y-112994556D01*
X123087369Y-113008144D01*
G37*
X123087369Y-113008144D02*
X123111923Y-113046718D01*
X123145950Y-113115518D01*
X123192542Y-113219786D01*
X123217023Y-113276396D01*
X123264385Y-113390246D01*
X123304124Y-113492780D01*
X123332879Y-113574780D01*
X123347288Y-113627025D01*
X123348321Y-113636473D01*
X123337893Y-113702977D01*
X123313005Y-113752135D01*
X123281209Y-113775415D01*
X123250056Y-113764282D01*
X123243284Y-113755170D01*
X123243421Y-113719409D01*
X123255552Y-113698337D01*
X123270976Y-113660274D01*
X123261639Y-113602474D01*
X123256789Y-113587044D01*
X123241063Y-113550212D01*
X123215967Y-113519313D01*
X123173272Y-113488436D01*
X123104746Y-113451667D01*
X123002158Y-113403095D01*
X122998057Y-113401205D01*
X122895438Y-113352643D01*
X122829799Y-113317737D01*
X122795408Y-113292587D01*
X122786531Y-113273293D01*
X122792340Y-113261288D01*
X122811970Y-113247803D01*
X122843634Y-113249052D01*
X122896523Y-113267308D01*
X122979834Y-113304844D01*
X122992130Y-113310666D01*
X123072266Y-113347268D01*
X123134952Y-113373165D01*
X123169916Y-113384214D01*
X123173643Y-113383872D01*
X123168708Y-113360404D01*
X123147853Y-113305682D01*
X123115144Y-113230083D01*
X123102916Y-113203348D01*
X123063832Y-113115232D01*
X123044133Y-113058464D01*
X123041554Y-113023598D01*
X123053828Y-113001190D01*
X123054300Y-113000712D01*
X123069192Y-112994556D01*
X123087369Y-113008144D01*
G36*
X122507285Y-113657522D02*
G01*
X122547304Y-113672256D01*
X122632328Y-113727113D01*
X122701946Y-113806883D01*
X122739026Y-113887382D01*
X122739455Y-113973150D01*
X122703237Y-114051021D01*
X122639900Y-114113950D01*
X122558971Y-114154889D01*
X122469978Y-114166793D01*
X122389248Y-114146079D01*
X122327493Y-114095629D01*
X122275283Y-114018045D01*
X122243859Y-113932345D01*
X122239454Y-113892664D01*
X122249041Y-113846348D01*
X122316045Y-113846348D01*
X122317713Y-113921287D01*
X122364192Y-114003192D01*
X122368507Y-114008410D01*
X122438363Y-114063288D01*
X122516555Y-114080295D01*
X122590974Y-114057806D01*
X122612863Y-114041239D01*
X122650039Y-113979825D01*
X122647710Y-113905297D01*
X122606835Y-113826801D01*
X122588099Y-113804806D01*
X122513693Y-113747823D01*
X122440382Y-113736626D01*
X122369300Y-113771337D01*
X122359263Y-113780172D01*
X122316045Y-113846348D01*
X122249041Y-113846348D01*
X122260133Y-113792766D01*
X122320663Y-113715075D01*
X122392563Y-113672615D01*
X122454603Y-113652841D01*
X122507285Y-113657522D01*
G37*
X122507285Y-113657522D02*
X122547304Y-113672256D01*
X122632328Y-113727113D01*
X122701946Y-113806883D01*
X122739026Y-113887382D01*
X122739455Y-113973150D01*
X122703237Y-114051021D01*
X122639900Y-114113950D01*
X122558971Y-114154889D01*
X122469978Y-114166793D01*
X122389248Y-114146079D01*
X122327493Y-114095629D01*
X122275283Y-114018045D01*
X122243859Y-113932345D01*
X122239454Y-113892664D01*
X122249041Y-113846348D01*
X122316045Y-113846348D01*
X122317713Y-113921287D01*
X122364192Y-114003192D01*
X122368507Y-114008410D01*
X122438363Y-114063288D01*
X122516555Y-114080295D01*
X122590974Y-114057806D01*
X122612863Y-114041239D01*
X122650039Y-113979825D01*
X122647710Y-113905297D01*
X122606835Y-113826801D01*
X122588099Y-113804806D01*
X122513693Y-113747823D01*
X122440382Y-113736626D01*
X122369300Y-113771337D01*
X122359263Y-113780172D01*
X122316045Y-113846348D01*
X122249041Y-113846348D01*
X122260133Y-113792766D01*
X122320663Y-113715075D01*
X122392563Y-113672615D01*
X122454603Y-113652841D01*
X122507285Y-113657522D01*
G36*
X122144007Y-114054300D02*
G01*
X122223506Y-114109786D01*
X122287562Y-114188341D01*
X122325693Y-114278572D01*
X122331818Y-114329194D01*
X122315598Y-114401763D01*
X122274509Y-114466552D01*
X122219909Y-114509177D01*
X122182617Y-114518182D01*
X122139614Y-114531068D01*
X122132338Y-114556106D01*
X122129385Y-114588103D01*
X122111066Y-114595832D01*
X122074213Y-114577182D01*
X122015655Y-114530041D01*
X121932223Y-114452297D01*
X121840452Y-114361650D01*
X121742499Y-114261882D01*
X121674915Y-114188946D01*
X121634135Y-114138348D01*
X121616596Y-114105596D01*
X121618733Y-114086197D01*
X121620409Y-114084282D01*
X121643042Y-114075544D01*
X121676909Y-114091413D01*
X121729645Y-114136324D01*
X121759343Y-114164998D01*
X121817842Y-114221656D01*
X121850956Y-114248753D01*
X121865894Y-114249444D01*
X121869866Y-114226883D01*
X121869892Y-114224227D01*
X121920602Y-114224227D01*
X121926400Y-114294966D01*
X121975283Y-114372794D01*
X121994691Y-114393491D01*
X122061432Y-114450267D01*
X122115617Y-114468136D01*
X122167898Y-114448121D01*
X122207301Y-114413888D01*
X122246882Y-114356278D01*
X122247317Y-114296333D01*
X122207579Y-114226945D01*
X122174813Y-114189136D01*
X122103476Y-114138185D01*
X122029068Y-114128796D01*
X121960481Y-114162008D01*
X121958409Y-114163852D01*
X121920602Y-114224227D01*
X121869892Y-114224227D01*
X121870000Y-114213412D01*
X121889365Y-114155325D01*
X121937517Y-114096490D01*
X121999539Y-114051082D01*
X122059546Y-114033273D01*
X122144007Y-114054300D01*
G37*
X122144007Y-114054300D02*
X122223506Y-114109786D01*
X122287562Y-114188341D01*
X122325693Y-114278572D01*
X122331818Y-114329194D01*
X122315598Y-114401763D01*
X122274509Y-114466552D01*
X122219909Y-114509177D01*
X122182617Y-114518182D01*
X122139614Y-114531068D01*
X122132338Y-114556106D01*
X122129385Y-114588103D01*
X122111066Y-114595832D01*
X122074213Y-114577182D01*
X122015655Y-114530041D01*
X121932223Y-114452297D01*
X121840452Y-114361650D01*
X121742499Y-114261882D01*
X121674915Y-114188946D01*
X121634135Y-114138348D01*
X121616596Y-114105596D01*
X121618733Y-114086197D01*
X121620409Y-114084282D01*
X121643042Y-114075544D01*
X121676909Y-114091413D01*
X121729645Y-114136324D01*
X121759343Y-114164998D01*
X121817842Y-114221656D01*
X121850956Y-114248753D01*
X121865894Y-114249444D01*
X121869866Y-114226883D01*
X121869892Y-114224227D01*
X121920602Y-114224227D01*
X121926400Y-114294966D01*
X121975283Y-114372794D01*
X121994691Y-114393491D01*
X122061432Y-114450267D01*
X122115617Y-114468136D01*
X122167898Y-114448121D01*
X122207301Y-114413888D01*
X122246882Y-114356278D01*
X122247317Y-114296333D01*
X122207579Y-114226945D01*
X122174813Y-114189136D01*
X122103476Y-114138185D01*
X122029068Y-114128796D01*
X121960481Y-114162008D01*
X121958409Y-114163852D01*
X121920602Y-114224227D01*
X121869892Y-114224227D01*
X121870000Y-114213412D01*
X121889365Y-114155325D01*
X121937517Y-114096490D01*
X121999539Y-114051082D01*
X122059546Y-114033273D01*
X122144007Y-114054300D01*
G36*
X126942171Y-112031929D02*
G01*
X126944820Y-112057072D01*
X126947190Y-112124066D01*
X126949244Y-112228576D01*
X126950942Y-112366273D01*
X126952244Y-112532823D01*
X126953113Y-112723895D01*
X126953509Y-112935157D01*
X126953394Y-113162278D01*
X126953189Y-113259037D01*
X126950062Y-114472000D01*
X127509985Y-114472354D01*
X127704517Y-114473289D01*
X127853705Y-114475846D01*
X127958359Y-114480060D01*
X128019290Y-114485967D01*
X128037308Y-114493603D01*
X128035272Y-114495740D01*
X128004005Y-114509145D01*
X127936009Y-114533870D01*
X127838652Y-114567522D01*
X127719302Y-114607706D01*
X127585329Y-114652026D01*
X127444100Y-114698090D01*
X127302985Y-114743501D01*
X127169353Y-114785867D01*
X127050571Y-114822791D01*
X126954009Y-114851880D01*
X126887035Y-114870739D01*
X126865408Y-114875898D01*
X126811314Y-114880632D01*
X126785152Y-114862737D01*
X126779366Y-114848623D01*
X126768903Y-114808590D01*
X126750173Y-114730135D01*
X126724217Y-114617989D01*
X126692076Y-114476882D01*
X126654790Y-114311545D01*
X126613401Y-114126709D01*
X126568949Y-113927104D01*
X126522476Y-113717460D01*
X126475023Y-113502510D01*
X126427630Y-113286982D01*
X126381339Y-113075608D01*
X126337190Y-112873118D01*
X126296224Y-112684244D01*
X126259483Y-112513715D01*
X126228007Y-112366263D01*
X126202837Y-112246618D01*
X126185014Y-112159510D01*
X126175580Y-112109670D01*
X126174435Y-112099504D01*
X126200942Y-112099191D01*
X126253124Y-112111726D01*
X126266218Y-112115869D01*
X126369573Y-112136398D01*
X126493337Y-112140667D01*
X126623543Y-112130313D01*
X126746225Y-112106978D01*
X126847416Y-112072298D01*
X126898603Y-112041651D01*
X126931307Y-112028077D01*
X126942171Y-112031929D01*
G37*
X126942171Y-112031929D02*
X126944820Y-112057072D01*
X126947190Y-112124066D01*
X126949244Y-112228576D01*
X126950942Y-112366273D01*
X126952244Y-112532823D01*
X126953113Y-112723895D01*
X126953509Y-112935157D01*
X126953394Y-113162278D01*
X126953189Y-113259037D01*
X126950062Y-114472000D01*
X127509985Y-114472354D01*
X127704517Y-114473289D01*
X127853705Y-114475846D01*
X127958359Y-114480060D01*
X128019290Y-114485967D01*
X128037308Y-114493603D01*
X128035272Y-114495740D01*
X128004005Y-114509145D01*
X127936009Y-114533870D01*
X127838652Y-114567522D01*
X127719302Y-114607706D01*
X127585329Y-114652026D01*
X127444100Y-114698090D01*
X127302985Y-114743501D01*
X127169353Y-114785867D01*
X127050571Y-114822791D01*
X126954009Y-114851880D01*
X126887035Y-114870739D01*
X126865408Y-114875898D01*
X126811314Y-114880632D01*
X126785152Y-114862737D01*
X126779366Y-114848623D01*
X126768903Y-114808590D01*
X126750173Y-114730135D01*
X126724217Y-114617989D01*
X126692076Y-114476882D01*
X126654790Y-114311545D01*
X126613401Y-114126709D01*
X126568949Y-113927104D01*
X126522476Y-113717460D01*
X126475023Y-113502510D01*
X126427630Y-113286982D01*
X126381339Y-113075608D01*
X126337190Y-112873118D01*
X126296224Y-112684244D01*
X126259483Y-112513715D01*
X126228007Y-112366263D01*
X126202837Y-112246618D01*
X126185014Y-112159510D01*
X126175580Y-112109670D01*
X126174435Y-112099504D01*
X126200942Y-112099191D01*
X126253124Y-112111726D01*
X126266218Y-112115869D01*
X126369573Y-112136398D01*
X126493337Y-112140667D01*
X126623543Y-112130313D01*
X126746225Y-112106978D01*
X126847416Y-112072298D01*
X126898603Y-112041651D01*
X126931307Y-112028077D01*
X126942171Y-112031929D01*
G36*
X116576246Y-112748340D02*
G01*
X116708076Y-112874582D01*
X116853016Y-113014041D01*
X117007715Y-113163440D01*
X117168822Y-113319502D01*
X117332989Y-113478951D01*
X117496864Y-113638507D01*
X117657098Y-113794895D01*
X117810340Y-113944837D01*
X117953240Y-114085055D01*
X118082449Y-114212273D01*
X118194615Y-114323213D01*
X118286389Y-114414598D01*
X118354421Y-114483150D01*
X118395359Y-114525593D01*
X118406363Y-114538631D01*
X118390819Y-114559897D01*
X118349785Y-114604236D01*
X118291662Y-114663347D01*
X118224848Y-114728930D01*
X118157745Y-114792683D01*
X118098750Y-114846307D01*
X118071545Y-114869507D01*
X118061163Y-114876177D01*
X118048513Y-114878167D01*
X118031100Y-114873212D01*
X118006430Y-114859049D01*
X117972006Y-114833414D01*
X117925334Y-114794045D01*
X117863917Y-114738677D01*
X117785262Y-114665046D01*
X117686873Y-114570890D01*
X117566254Y-114453945D01*
X117420911Y-114311946D01*
X117248348Y-114142631D01*
X117046069Y-113943736D01*
X116987439Y-113886051D01*
X115949516Y-112864772D01*
X116128088Y-112677862D01*
X116306660Y-112490953D01*
X116576246Y-112748340D01*
G37*
X116576246Y-112748340D02*
X116708076Y-112874582D01*
X116853016Y-113014041D01*
X117007715Y-113163440D01*
X117168822Y-113319502D01*
X117332989Y-113478951D01*
X117496864Y-113638507D01*
X117657098Y-113794895D01*
X117810340Y-113944837D01*
X117953240Y-114085055D01*
X118082449Y-114212273D01*
X118194615Y-114323213D01*
X118286389Y-114414598D01*
X118354421Y-114483150D01*
X118395359Y-114525593D01*
X118406363Y-114538631D01*
X118390819Y-114559897D01*
X118349785Y-114604236D01*
X118291662Y-114663347D01*
X118224848Y-114728930D01*
X118157745Y-114792683D01*
X118098750Y-114846307D01*
X118071545Y-114869507D01*
X118061163Y-114876177D01*
X118048513Y-114878167D01*
X118031100Y-114873212D01*
X118006430Y-114859049D01*
X117972006Y-114833414D01*
X117925334Y-114794045D01*
X117863917Y-114738677D01*
X117785262Y-114665046D01*
X117686873Y-114570890D01*
X117566254Y-114453945D01*
X117420911Y-114311946D01*
X117248348Y-114142631D01*
X117046069Y-113943736D01*
X116987439Y-113886051D01*
X115949516Y-112864772D01*
X116128088Y-112677862D01*
X116306660Y-112490953D01*
X116576246Y-112748340D01*
G36*
X121726139Y-114454535D02*
G01*
X121809403Y-114494879D01*
X121878386Y-114567429D01*
X121917012Y-114647698D01*
X121924685Y-114737732D01*
X121894860Y-114824172D01*
X121835680Y-114896379D01*
X121755289Y-114943713D01*
X121680646Y-114956520D01*
X121625566Y-114943941D01*
X121561588Y-114913737D01*
X121554722Y-114909478D01*
X121476078Y-114837608D01*
X121430503Y-114749480D01*
X121424620Y-114676669D01*
X121500545Y-114676669D01*
X121518769Y-114749979D01*
X121565905Y-114809009D01*
X121630649Y-114848786D01*
X121701699Y-114864337D01*
X121767750Y-114850691D01*
X121810963Y-114813226D01*
X121838722Y-114754974D01*
X121846909Y-114711093D01*
X121828171Y-114656015D01*
X121781561Y-114596377D01*
X121721479Y-114546208D01*
X121662328Y-114519537D01*
X121648860Y-114518182D01*
X121580530Y-114538933D01*
X121526967Y-114591892D01*
X121501219Y-114663117D01*
X121500545Y-114676669D01*
X121424620Y-114676669D01*
X121422997Y-114656593D01*
X121430641Y-114624004D01*
X121480846Y-114531131D01*
X121552843Y-114472222D01*
X121637614Y-114446836D01*
X121726139Y-114454535D01*
G37*
X121726139Y-114454535D02*
X121809403Y-114494879D01*
X121878386Y-114567429D01*
X121917012Y-114647698D01*
X121924685Y-114737732D01*
X121894860Y-114824172D01*
X121835680Y-114896379D01*
X121755289Y-114943713D01*
X121680646Y-114956520D01*
X121625566Y-114943941D01*
X121561588Y-114913737D01*
X121554722Y-114909478D01*
X121476078Y-114837608D01*
X121430503Y-114749480D01*
X121424620Y-114676669D01*
X121500545Y-114676669D01*
X121518769Y-114749979D01*
X121565905Y-114809009D01*
X121630649Y-114848786D01*
X121701699Y-114864337D01*
X121767750Y-114850691D01*
X121810963Y-114813226D01*
X121838722Y-114754974D01*
X121846909Y-114711093D01*
X121828171Y-114656015D01*
X121781561Y-114596377D01*
X121721479Y-114546208D01*
X121662328Y-114519537D01*
X121648860Y-114518182D01*
X121580530Y-114538933D01*
X121526967Y-114591892D01*
X121501219Y-114663117D01*
X121500545Y-114676669D01*
X121424620Y-114676669D01*
X121422997Y-114656593D01*
X121430641Y-114624004D01*
X121480846Y-114531131D01*
X121552843Y-114472222D01*
X121637614Y-114446836D01*
X121726139Y-114454535D01*
G36*
X121316413Y-114740850D02*
G01*
X121329781Y-114771931D01*
X121310272Y-114817433D01*
X121307100Y-114822353D01*
X121284526Y-114865700D01*
X121287287Y-114904437D01*
X121306274Y-114946048D01*
X121343035Y-115002263D01*
X121398157Y-115070459D01*
X121433117Y-115108404D01*
X121488897Y-115172824D01*
X121506526Y-115213565D01*
X121486458Y-115232295D01*
X121467214Y-115234000D01*
X121440860Y-115218519D01*
X121390921Y-115176897D01*
X121325738Y-115116363D01*
X121283517Y-115074718D01*
X121209468Y-114995727D01*
X121160655Y-114934273D01*
X121141158Y-114895732D01*
X121142154Y-114888416D01*
X121174995Y-114871118D01*
X121191153Y-114873792D01*
X121218370Y-114867847D01*
X121223454Y-114845143D01*
X121235198Y-114792249D01*
X121263149Y-114750819D01*
X121296384Y-114733108D01*
X121316413Y-114740850D01*
G37*
X121316413Y-114740850D02*
X121329781Y-114771931D01*
X121310272Y-114817433D01*
X121307100Y-114822353D01*
X121284526Y-114865700D01*
X121287287Y-114904437D01*
X121306274Y-114946048D01*
X121343035Y-115002263D01*
X121398157Y-115070459D01*
X121433117Y-115108404D01*
X121488897Y-115172824D01*
X121506526Y-115213565D01*
X121486458Y-115232295D01*
X121467214Y-115234000D01*
X121440860Y-115218519D01*
X121390921Y-115176897D01*
X121325738Y-115116363D01*
X121283517Y-115074718D01*
X121209468Y-114995727D01*
X121160655Y-114934273D01*
X121141158Y-114895732D01*
X121142154Y-114888416D01*
X121174995Y-114871118D01*
X121191153Y-114873792D01*
X121218370Y-114867847D01*
X121223454Y-114845143D01*
X121235198Y-114792249D01*
X121263149Y-114750819D01*
X121296384Y-114733108D01*
X121316413Y-114740850D01*
G36*
X120889932Y-115285001D02*
G01*
X120985721Y-115336194D01*
X121021121Y-115366514D01*
X121077298Y-115444852D01*
X121096845Y-115529392D01*
X121085201Y-115612799D01*
X121047806Y-115687738D01*
X120990097Y-115746873D01*
X120917513Y-115782868D01*
X120835494Y-115788390D01*
X120749478Y-115756101D01*
X120737910Y-115748483D01*
X120652004Y-115667102D01*
X120605752Y-115573811D01*
X120601033Y-115475627D01*
X120606216Y-115462711D01*
X120676590Y-115462711D01*
X120678258Y-115537650D01*
X120724738Y-115619556D01*
X120729052Y-115624774D01*
X120798909Y-115679652D01*
X120877100Y-115696659D01*
X120951520Y-115674170D01*
X120973409Y-115657603D01*
X121010868Y-115595856D01*
X121010059Y-115521110D01*
X120972141Y-115444414D01*
X120948139Y-115416951D01*
X120871588Y-115362751D01*
X120796890Y-115354159D01*
X120725606Y-115391314D01*
X120719808Y-115396536D01*
X120676590Y-115462711D01*
X120606216Y-115462711D01*
X120639356Y-115380128D01*
X120710190Y-115307202D01*
X120795903Y-115275416D01*
X120889932Y-115285001D01*
G37*
X120889932Y-115285001D02*
X120985721Y-115336194D01*
X121021121Y-115366514D01*
X121077298Y-115444852D01*
X121096845Y-115529392D01*
X121085201Y-115612799D01*
X121047806Y-115687738D01*
X120990097Y-115746873D01*
X120917513Y-115782868D01*
X120835494Y-115788390D01*
X120749478Y-115756101D01*
X120737910Y-115748483D01*
X120652004Y-115667102D01*
X120605752Y-115573811D01*
X120601033Y-115475627D01*
X120606216Y-115462711D01*
X120676590Y-115462711D01*
X120678258Y-115537650D01*
X120724738Y-115619556D01*
X120729052Y-115624774D01*
X120798909Y-115679652D01*
X120877100Y-115696659D01*
X120951520Y-115674170D01*
X120973409Y-115657603D01*
X121010868Y-115595856D01*
X121010059Y-115521110D01*
X120972141Y-115444414D01*
X120948139Y-115416951D01*
X120871588Y-115362751D01*
X120796890Y-115354159D01*
X120725606Y-115391314D01*
X120719808Y-115396536D01*
X120676590Y-115462711D01*
X120606216Y-115462711D01*
X120639356Y-115380128D01*
X120710190Y-115307202D01*
X120795903Y-115275416D01*
X120889932Y-115285001D01*
G36*
X120259428Y-115491488D02*
G01*
X120312646Y-115536669D01*
X120346144Y-115568960D01*
X120409001Y-115627521D01*
X120445967Y-115652982D01*
X120460772Y-115647677D01*
X120461454Y-115641071D01*
X120474107Y-115610987D01*
X120490318Y-115609341D01*
X120512120Y-115637105D01*
X120520203Y-115680694D01*
X120539787Y-115740815D01*
X120597942Y-115818551D01*
X120632614Y-115855401D01*
X120686089Y-115915221D01*
X120720496Y-115964669D01*
X120728624Y-115993326D01*
X120728365Y-115993790D01*
X120710174Y-116013760D01*
X120686410Y-116012201D01*
X120648829Y-115985021D01*
X120589190Y-115928129D01*
X120582342Y-115921294D01*
X120528455Y-115868869D01*
X120499090Y-115846614D01*
X120486903Y-115851272D01*
X120484545Y-115877940D01*
X120479702Y-115914661D01*
X120460409Y-115911914D01*
X120452292Y-115905615D01*
X120431090Y-115863393D01*
X120432387Y-115831631D01*
X120429421Y-115796640D01*
X120401262Y-115749249D01*
X120343379Y-115682676D01*
X120309714Y-115647970D01*
X120242251Y-115576868D01*
X120205496Y-115529453D01*
X120195216Y-115499214D01*
X120202763Y-115483455D01*
X120225240Y-115475205D01*
X120259428Y-115491488D01*
G37*
X120259428Y-115491488D02*
X120312646Y-115536669D01*
X120346144Y-115568960D01*
X120409001Y-115627521D01*
X120445967Y-115652982D01*
X120460772Y-115647677D01*
X120461454Y-115641071D01*
X120474107Y-115610987D01*
X120490318Y-115609341D01*
X120512120Y-115637105D01*
X120520203Y-115680694D01*
X120539787Y-115740815D01*
X120597942Y-115818551D01*
X120632614Y-115855401D01*
X120686089Y-115915221D01*
X120720496Y-115964669D01*
X120728624Y-115993326D01*
X120728365Y-115993790D01*
X120710174Y-116013760D01*
X120686410Y-116012201D01*
X120648829Y-115985021D01*
X120589190Y-115928129D01*
X120582342Y-115921294D01*
X120528455Y-115868869D01*
X120499090Y-115846614D01*
X120486903Y-115851272D01*
X120484545Y-115877940D01*
X120479702Y-115914661D01*
X120460409Y-115911914D01*
X120452292Y-115905615D01*
X120431090Y-115863393D01*
X120432387Y-115831631D01*
X120429421Y-115796640D01*
X120401262Y-115749249D01*
X120343379Y-115682676D01*
X120309714Y-115647970D01*
X120242251Y-115576868D01*
X120205496Y-115529453D01*
X120195216Y-115499214D01*
X120202763Y-115483455D01*
X120225240Y-115475205D01*
X120259428Y-115491488D01*
G36*
X120293129Y-115884776D02*
G01*
X120385113Y-115936204D01*
X120437774Y-115987312D01*
X120496182Y-116078668D01*
X120508490Y-116167665D01*
X120474681Y-116254995D01*
X120429127Y-116310036D01*
X120343647Y-116373910D01*
X120258912Y-116392225D01*
X120172594Y-116364905D01*
X120089283Y-116298898D01*
X120020692Y-116207184D01*
X119997941Y-116115498D01*
X120006523Y-116081912D01*
X120076364Y-116081912D01*
X120077986Y-116146583D01*
X120122489Y-116214183D01*
X120136405Y-116228685D01*
X120214389Y-116283610D01*
X120291582Y-116295695D01*
X120361728Y-116264788D01*
X120390910Y-116234826D01*
X120424290Y-116170368D01*
X120417427Y-116107125D01*
X120368840Y-116038132D01*
X120343829Y-116013318D01*
X120266802Y-115961635D01*
X120195482Y-115955064D01*
X120131625Y-115993627D01*
X120116766Y-116010660D01*
X120076364Y-116081912D01*
X120006523Y-116081912D01*
X120021161Y-116024627D01*
X120038651Y-115995365D01*
X120115328Y-115914448D01*
X120201678Y-115877554D01*
X120293129Y-115884776D01*
G37*
X120293129Y-115884776D02*
X120385113Y-115936204D01*
X120437774Y-115987312D01*
X120496182Y-116078668D01*
X120508490Y-116167665D01*
X120474681Y-116254995D01*
X120429127Y-116310036D01*
X120343647Y-116373910D01*
X120258912Y-116392225D01*
X120172594Y-116364905D01*
X120089283Y-116298898D01*
X120020692Y-116207184D01*
X119997941Y-116115498D01*
X120006523Y-116081912D01*
X120076364Y-116081912D01*
X120077986Y-116146583D01*
X120122489Y-116214183D01*
X120136405Y-116228685D01*
X120214389Y-116283610D01*
X120291582Y-116295695D01*
X120361728Y-116264788D01*
X120390910Y-116234826D01*
X120424290Y-116170368D01*
X120417427Y-116107125D01*
X120368840Y-116038132D01*
X120343829Y-116013318D01*
X120266802Y-115961635D01*
X120195482Y-115955064D01*
X120131625Y-115993627D01*
X120116766Y-116010660D01*
X120076364Y-116081912D01*
X120006523Y-116081912D01*
X120021161Y-116024627D01*
X120038651Y-115995365D01*
X120115328Y-115914448D01*
X120201678Y-115877554D01*
X120293129Y-115884776D01*
G36*
X119877165Y-116175451D02*
G01*
X119882530Y-116210246D01*
X119884118Y-116281395D01*
X119884181Y-116314325D01*
X119884181Y-116480909D01*
X120237703Y-116480909D01*
X120194006Y-116529194D01*
X120165151Y-116555088D01*
X120130022Y-116567369D01*
X120074903Y-116568338D01*
X119999927Y-116561760D01*
X119849545Y-116546041D01*
X119929326Y-116629142D01*
X119975453Y-116680459D01*
X119992123Y-116712324D01*
X119983898Y-116736521D01*
X119974778Y-116746572D01*
X119958687Y-116756261D01*
X119937156Y-116752474D01*
X119905142Y-116731094D01*
X119857601Y-116688001D01*
X119789489Y-116619076D01*
X119695761Y-116520200D01*
X119689864Y-116513920D01*
X119590484Y-116406212D01*
X119521448Y-116326712D01*
X119479837Y-116271596D01*
X119462729Y-116237038D01*
X119465726Y-116220491D01*
X119487407Y-116216346D01*
X119524891Y-116237144D01*
X119583152Y-116286430D01*
X119653776Y-116354409D01*
X119815379Y-116514774D01*
X119812083Y-116368954D01*
X119814218Y-116274613D01*
X119827152Y-116215040D01*
X119846484Y-116185438D01*
X119865869Y-116169639D01*
X119877165Y-116175451D01*
G37*
X119877165Y-116175451D02*
X119882530Y-116210246D01*
X119884118Y-116281395D01*
X119884181Y-116314325D01*
X119884181Y-116480909D01*
X120237703Y-116480909D01*
X120194006Y-116529194D01*
X120165151Y-116555088D01*
X120130022Y-116567369D01*
X120074903Y-116568338D01*
X119999927Y-116561760D01*
X119849545Y-116546041D01*
X119929326Y-116629142D01*
X119975453Y-116680459D01*
X119992123Y-116712324D01*
X119983898Y-116736521D01*
X119974778Y-116746572D01*
X119958687Y-116756261D01*
X119937156Y-116752474D01*
X119905142Y-116731094D01*
X119857601Y-116688001D01*
X119789489Y-116619076D01*
X119695761Y-116520200D01*
X119689864Y-116513920D01*
X119590484Y-116406212D01*
X119521448Y-116326712D01*
X119479837Y-116271596D01*
X119462729Y-116237038D01*
X119465726Y-116220491D01*
X119487407Y-116216346D01*
X119524891Y-116237144D01*
X119583152Y-116286430D01*
X119653776Y-116354409D01*
X119815379Y-116514774D01*
X119812083Y-116368954D01*
X119814218Y-116274613D01*
X119827152Y-116215040D01*
X119846484Y-116185438D01*
X119865869Y-116169639D01*
X119877165Y-116175451D01*
D10*
X94522666Y-128922380D02*
X94522666Y-129636666D01*
X94475047Y-129779523D01*
X94379809Y-129874761D01*
X94236952Y-129922380D01*
X94141714Y-129922380D01*
X95475047Y-128922380D02*
X94998857Y-128922380D01*
X94951238Y-129398571D01*
X94998857Y-129350952D01*
X95094095Y-129303333D01*
X95332190Y-129303333D01*
X95427428Y-129350952D01*
X95475047Y-129398571D01*
X95522666Y-129493809D01*
X95522666Y-129731904D01*
X95475047Y-129827142D01*
X95427428Y-129874761D01*
X95332190Y-129922380D01*
X95094095Y-129922380D01*
X94998857Y-129874761D01*
X94951238Y-129827142D01*
D12*
X93224385Y-98101909D02*
X93176766Y-98078100D01*
X93129147Y-98030480D01*
X93057719Y-97959052D01*
X93010100Y-97935242D01*
X92962480Y-97935242D01*
X92986290Y-98054290D02*
X92938671Y-98030480D01*
X92891052Y-97982861D01*
X92867242Y-97887623D01*
X92867242Y-97720957D01*
X92891052Y-97625719D01*
X92938671Y-97578100D01*
X92986290Y-97554290D01*
X93081528Y-97554290D01*
X93129147Y-97578100D01*
X93176766Y-97625719D01*
X93200576Y-97720957D01*
X93200576Y-97887623D01*
X93176766Y-97982861D01*
X93129147Y-98030480D01*
X93081528Y-98054290D01*
X92986290Y-98054290D01*
X93676766Y-98054290D02*
X93391052Y-98054290D01*
X93533909Y-98054290D02*
X93533909Y-97554290D01*
X93486290Y-97625719D01*
X93438671Y-97673338D01*
X93391052Y-97697147D01*
X94152957Y-98054290D02*
X93867242Y-98054290D01*
X94010100Y-98054290D02*
X94010100Y-97554290D01*
X93962480Y-97625719D01*
X93914861Y-97673338D01*
X93867242Y-97697147D01*
D10*
X110733333Y-112102380D02*
X110257142Y-112102380D01*
X110257142Y-111102380D01*
X111590476Y-112102380D02*
X111019047Y-112102380D01*
X111304761Y-112102380D02*
X111304761Y-111102380D01*
X111209523Y-111245238D01*
X111114285Y-111340476D01*
X111019047Y-111388095D01*
X110046476Y-128922380D02*
X110046476Y-129636666D01*
X109998857Y-129779523D01*
X109903619Y-129874761D01*
X109760761Y-129922380D01*
X109665523Y-129922380D01*
X110475047Y-129017619D02*
X110522666Y-128970000D01*
X110617904Y-128922380D01*
X110856000Y-128922380D01*
X110951238Y-128970000D01*
X110998857Y-129017619D01*
X111046476Y-129112857D01*
X111046476Y-129208095D01*
X110998857Y-129350952D01*
X110427428Y-129922380D01*
X111046476Y-129922380D01*
X111665523Y-128922380D02*
X111760761Y-128922380D01*
X111856000Y-128970000D01*
X111903619Y-129017619D01*
X111951238Y-129112857D01*
X111998857Y-129303333D01*
X111998857Y-129541428D01*
X111951238Y-129731904D01*
X111903619Y-129827142D01*
X111856000Y-129874761D01*
X111760761Y-129922380D01*
X111665523Y-129922380D01*
X111570285Y-129874761D01*
X111522666Y-129827142D01*
X111475047Y-129731904D01*
X111427428Y-129541428D01*
X111427428Y-129303333D01*
X111475047Y-129112857D01*
X111522666Y-129017619D01*
X111570285Y-128970000D01*
X111665523Y-128922380D01*
X86522666Y-128922380D02*
X86522666Y-129636666D01*
X86475047Y-129779523D01*
X86379809Y-129874761D01*
X86236952Y-129922380D01*
X86141714Y-129922380D01*
X87427428Y-128922380D02*
X87236952Y-128922380D01*
X87141714Y-128970000D01*
X87094095Y-129017619D01*
X86998857Y-129160476D01*
X86951238Y-129350952D01*
X86951238Y-129731904D01*
X86998857Y-129827142D01*
X87046476Y-129874761D01*
X87141714Y-129922380D01*
X87332190Y-129922380D01*
X87427428Y-129874761D01*
X87475047Y-129827142D01*
X87522666Y-129731904D01*
X87522666Y-129493809D01*
X87475047Y-129398571D01*
X87427428Y-129350952D01*
X87332190Y-129303333D01*
X87141714Y-129303333D01*
X87046476Y-129350952D01*
X86998857Y-129398571D01*
X86951238Y-129493809D01*
X117365614Y-127744480D02*
X117365614Y-126744480D01*
X117603709Y-126744480D01*
X117746566Y-126792100D01*
X117841804Y-126887338D01*
X117889423Y-126982576D01*
X117937042Y-127173052D01*
X117937042Y-127315909D01*
X117889423Y-127506385D01*
X117841804Y-127601623D01*
X117746566Y-127696861D01*
X117603709Y-127744480D01*
X117365614Y-127744480D01*
X118889423Y-127744480D02*
X118317995Y-127744480D01*
X118603709Y-127744480D02*
X118603709Y-126744480D01*
X118508471Y-126887338D01*
X118413233Y-126982576D01*
X118317995Y-127030195D01*
X119460852Y-127173052D02*
X119365614Y-127125433D01*
X119317995Y-127077814D01*
X119270376Y-126982576D01*
X119270376Y-126934957D01*
X119317995Y-126839719D01*
X119365614Y-126792100D01*
X119460852Y-126744480D01*
X119651328Y-126744480D01*
X119746566Y-126792100D01*
X119794185Y-126839719D01*
X119841804Y-126934957D01*
X119841804Y-126982576D01*
X119794185Y-127077814D01*
X119746566Y-127125433D01*
X119651328Y-127173052D01*
X119460852Y-127173052D01*
X119365614Y-127220671D01*
X119317995Y-127268290D01*
X119270376Y-127363528D01*
X119270376Y-127554004D01*
X119317995Y-127649242D01*
X119365614Y-127696861D01*
X119460852Y-127744480D01*
X119651328Y-127744480D01*
X119746566Y-127696861D01*
X119794185Y-127649242D01*
X119841804Y-127554004D01*
X119841804Y-127363528D01*
X119794185Y-127268290D01*
X119746566Y-127220671D01*
X119651328Y-127173052D01*
X126966666Y-95152380D02*
X126966666Y-95866666D01*
X126919047Y-96009523D01*
X126823809Y-96104761D01*
X126680952Y-96152380D01*
X126585714Y-96152380D01*
X127395238Y-95247619D02*
X127442857Y-95200000D01*
X127538095Y-95152380D01*
X127776190Y-95152380D01*
X127871428Y-95200000D01*
X127919047Y-95247619D01*
X127966666Y-95342857D01*
X127966666Y-95438095D01*
X127919047Y-95580952D01*
X127347619Y-96152380D01*
X127966666Y-96152380D01*
X104657142Y-106457142D02*
X104609523Y-106504761D01*
X104466666Y-106552380D01*
X104371428Y-106552380D01*
X104228571Y-106504761D01*
X104133333Y-106409523D01*
X104085714Y-106314285D01*
X104038095Y-106123809D01*
X104038095Y-105980952D01*
X104085714Y-105790476D01*
X104133333Y-105695238D01*
X104228571Y-105600000D01*
X104371428Y-105552380D01*
X104466666Y-105552380D01*
X104609523Y-105600000D01*
X104657142Y-105647619D01*
X105609523Y-106552380D02*
X105038095Y-106552380D01*
X105323809Y-106552380D02*
X105323809Y-105552380D01*
X105228571Y-105695238D01*
X105133333Y-105790476D01*
X105038095Y-105838095D01*
X106466666Y-105552380D02*
X106276190Y-105552380D01*
X106180952Y-105600000D01*
X106133333Y-105647619D01*
X106038095Y-105790476D01*
X105990476Y-105980952D01*
X105990476Y-106361904D01*
X106038095Y-106457142D01*
X106085714Y-106504761D01*
X106180952Y-106552380D01*
X106371428Y-106552380D01*
X106466666Y-106504761D01*
X106514285Y-106457142D01*
X106561904Y-106361904D01*
X106561904Y-106123809D01*
X106514285Y-106028571D01*
X106466666Y-105980952D01*
X106371428Y-105933333D01*
X106180952Y-105933333D01*
X106085714Y-105980952D01*
X106038095Y-106028571D01*
X105990476Y-106123809D01*
X126866666Y-81892380D02*
X126866666Y-82606666D01*
X126819047Y-82749523D01*
X126723809Y-82844761D01*
X126580952Y-82892380D01*
X126485714Y-82892380D01*
X127247619Y-81892380D02*
X127866666Y-81892380D01*
X127533333Y-82273333D01*
X127676190Y-82273333D01*
X127771428Y-82320952D01*
X127819047Y-82368571D01*
X127866666Y-82463809D01*
X127866666Y-82701904D01*
X127819047Y-82797142D01*
X127771428Y-82844761D01*
X127676190Y-82892380D01*
X127390476Y-82892380D01*
X127295238Y-82844761D01*
X127247619Y-82797142D01*
X98161904Y-104752380D02*
X98161904Y-103752380D01*
X98400000Y-103752380D01*
X98542857Y-103800000D01*
X98638095Y-103895238D01*
X98685714Y-103990476D01*
X98733333Y-104180952D01*
X98733333Y-104323809D01*
X98685714Y-104514285D01*
X98638095Y-104609523D01*
X98542857Y-104704761D01*
X98400000Y-104752380D01*
X98161904Y-104752380D01*
X99304761Y-104180952D02*
X99209523Y-104133333D01*
X99161904Y-104085714D01*
X99114285Y-103990476D01*
X99114285Y-103942857D01*
X99161904Y-103847619D01*
X99209523Y-103800000D01*
X99304761Y-103752380D01*
X99495238Y-103752380D01*
X99590476Y-103800000D01*
X99638095Y-103847619D01*
X99685714Y-103942857D01*
X99685714Y-103990476D01*
X99638095Y-104085714D01*
X99590476Y-104133333D01*
X99495238Y-104180952D01*
X99304761Y-104180952D01*
X99209523Y-104228571D01*
X99161904Y-104276190D01*
X99114285Y-104371428D01*
X99114285Y-104561904D01*
X99161904Y-104657142D01*
X99209523Y-104704761D01*
X99304761Y-104752380D01*
X99495238Y-104752380D01*
X99590476Y-104704761D01*
X99638095Y-104657142D01*
X99685714Y-104561904D01*
X99685714Y-104371428D01*
X99638095Y-104276190D01*
X99590476Y-104228571D01*
X99495238Y-104180952D01*
X100188095Y-81752380D02*
X100188095Y-82561904D01*
X100235714Y-82657142D01*
X100283333Y-82704761D01*
X100378571Y-82752380D01*
X100569047Y-82752380D01*
X100664285Y-82704761D01*
X100711904Y-82657142D01*
X100759523Y-82561904D01*
X100759523Y-81752380D01*
X101188095Y-81847619D02*
X101235714Y-81800000D01*
X101330952Y-81752380D01*
X101569047Y-81752380D01*
X101664285Y-81800000D01*
X101711904Y-81847619D01*
X101759523Y-81942857D01*
X101759523Y-82038095D01*
X101711904Y-82180952D01*
X101140476Y-82752380D01*
X101759523Y-82752380D01*
X100188095Y-100652380D02*
X100188095Y-101461904D01*
X100235714Y-101557142D01*
X100283333Y-101604761D01*
X100378571Y-101652380D01*
X100569047Y-101652380D01*
X100664285Y-101604761D01*
X100711904Y-101557142D01*
X100759523Y-101461904D01*
X100759523Y-100652380D01*
X101759523Y-101652380D02*
X101188095Y-101652380D01*
X101473809Y-101652380D02*
X101473809Y-100652380D01*
X101378571Y-100795238D01*
X101283333Y-100890476D01*
X101188095Y-100938095D01*
X81716666Y-102802380D02*
X81716666Y-103516666D01*
X81669047Y-103659523D01*
X81573809Y-103754761D01*
X81430952Y-103802380D01*
X81335714Y-103802380D01*
X82240476Y-103802380D02*
X82430952Y-103802380D01*
X82526190Y-103754761D01*
X82573809Y-103707142D01*
X82669047Y-103564285D01*
X82716666Y-103373809D01*
X82716666Y-102992857D01*
X82669047Y-102897619D01*
X82621428Y-102850000D01*
X82526190Y-102802380D01*
X82335714Y-102802380D01*
X82240476Y-102850000D01*
X82192857Y-102897619D01*
X82145238Y-102992857D01*
X82145238Y-103230952D01*
X82192857Y-103326190D01*
X82240476Y-103373809D01*
X82335714Y-103421428D01*
X82526190Y-103421428D01*
X82621428Y-103373809D01*
X82669047Y-103326190D01*
X82716666Y-103230952D01*
X80790476Y-76952380D02*
X80790476Y-77666666D01*
X80742857Y-77809523D01*
X80647619Y-77904761D01*
X80504761Y-77952380D01*
X80409523Y-77952380D01*
X81790476Y-77952380D02*
X81219047Y-77952380D01*
X81504761Y-77952380D02*
X81504761Y-76952380D01*
X81409523Y-77095238D01*
X81314285Y-77190476D01*
X81219047Y-77238095D01*
X82647619Y-76952380D02*
X82457142Y-76952380D01*
X82361904Y-77000000D01*
X82314285Y-77047619D01*
X82219047Y-77190476D01*
X82171428Y-77380952D01*
X82171428Y-77761904D01*
X82219047Y-77857142D01*
X82266666Y-77904761D01*
X82361904Y-77952380D01*
X82552380Y-77952380D01*
X82647619Y-77904761D01*
X82695238Y-77857142D01*
X82742857Y-77761904D01*
X82742857Y-77523809D01*
X82695238Y-77428571D01*
X82647619Y-77380952D01*
X82552380Y-77333333D01*
X82361904Y-77333333D01*
X82266666Y-77380952D01*
X82219047Y-77428571D01*
X82171428Y-77523809D01*
X80790476Y-81252380D02*
X80790476Y-81966666D01*
X80742857Y-82109523D01*
X80647619Y-82204761D01*
X80504761Y-82252380D01*
X80409523Y-82252380D01*
X81790476Y-82252380D02*
X81219047Y-82252380D01*
X81504761Y-82252380D02*
X81504761Y-81252380D01*
X81409523Y-81395238D01*
X81314285Y-81490476D01*
X81219047Y-81538095D01*
X82695238Y-81252380D02*
X82219047Y-81252380D01*
X82171428Y-81728571D01*
X82219047Y-81680952D01*
X82314285Y-81633333D01*
X82552380Y-81633333D01*
X82647619Y-81680952D01*
X82695238Y-81728571D01*
X82742857Y-81823809D01*
X82742857Y-82061904D01*
X82695238Y-82157142D01*
X82647619Y-82204761D01*
X82552380Y-82252380D01*
X82314285Y-82252380D01*
X82219047Y-82204761D01*
X82171428Y-82157142D01*
X80790476Y-85552380D02*
X80790476Y-86266666D01*
X80742857Y-86409523D01*
X80647619Y-86504761D01*
X80504761Y-86552380D01*
X80409523Y-86552380D01*
X81790476Y-86552380D02*
X81219047Y-86552380D01*
X81504761Y-86552380D02*
X81504761Y-85552380D01*
X81409523Y-85695238D01*
X81314285Y-85790476D01*
X81219047Y-85838095D01*
X82123809Y-85552380D02*
X82742857Y-85552380D01*
X82409523Y-85933333D01*
X82552380Y-85933333D01*
X82647619Y-85980952D01*
X82695238Y-86028571D01*
X82742857Y-86123809D01*
X82742857Y-86361904D01*
X82695238Y-86457142D01*
X82647619Y-86504761D01*
X82552380Y-86552380D01*
X82266666Y-86552380D01*
X82171428Y-86504761D01*
X82123809Y-86457142D01*
X80790476Y-89852380D02*
X80790476Y-90566666D01*
X80742857Y-90709523D01*
X80647619Y-90804761D01*
X80504761Y-90852380D01*
X80409523Y-90852380D01*
X81790476Y-90852380D02*
X81219047Y-90852380D01*
X81504761Y-90852380D02*
X81504761Y-89852380D01*
X81409523Y-89995238D01*
X81314285Y-90090476D01*
X81219047Y-90138095D01*
X82171428Y-89947619D02*
X82219047Y-89900000D01*
X82314285Y-89852380D01*
X82552380Y-89852380D01*
X82647619Y-89900000D01*
X82695238Y-89947619D01*
X82742857Y-90042857D01*
X82742857Y-90138095D01*
X82695238Y-90280952D01*
X82123809Y-90852380D01*
X82742857Y-90852380D01*
X80790476Y-94152380D02*
X80790476Y-94866666D01*
X80742857Y-95009523D01*
X80647619Y-95104761D01*
X80504761Y-95152380D01*
X80409523Y-95152380D01*
X81790476Y-95152380D02*
X81219047Y-95152380D01*
X81504761Y-95152380D02*
X81504761Y-94152380D01*
X81409523Y-94295238D01*
X81314285Y-94390476D01*
X81219047Y-94438095D01*
X82742857Y-95152380D02*
X82171428Y-95152380D01*
X82457142Y-95152380D02*
X82457142Y-94152380D01*
X82361904Y-94295238D01*
X82266666Y-94390476D01*
X82171428Y-94438095D01*
X80790476Y-98502380D02*
X80790476Y-99216666D01*
X80742857Y-99359523D01*
X80647619Y-99454761D01*
X80504761Y-99502380D01*
X80409523Y-99502380D01*
X81790476Y-99502380D02*
X81219047Y-99502380D01*
X81504761Y-99502380D02*
X81504761Y-98502380D01*
X81409523Y-98645238D01*
X81314285Y-98740476D01*
X81219047Y-98788095D01*
X82409523Y-98502380D02*
X82504761Y-98502380D01*
X82600000Y-98550000D01*
X82647619Y-98597619D01*
X82695238Y-98692857D01*
X82742857Y-98883333D01*
X82742857Y-99121428D01*
X82695238Y-99311904D01*
X82647619Y-99407142D01*
X82600000Y-99454761D01*
X82504761Y-99502380D01*
X82409523Y-99502380D01*
X82314285Y-99454761D01*
X82266666Y-99407142D01*
X82219047Y-99311904D01*
X82171428Y-99121428D01*
X82171428Y-98883333D01*
X82219047Y-98692857D01*
X82266666Y-98597619D01*
X82314285Y-98550000D01*
X82409523Y-98502380D01*
X76264285Y-72085714D02*
X76264285Y-72752380D01*
X76026190Y-71704761D02*
X75788095Y-72419047D01*
X76407142Y-72419047D01*
X76978571Y-71752380D02*
X77073809Y-71752380D01*
X77169047Y-71800000D01*
X77216666Y-71847619D01*
X77264285Y-71942857D01*
X77311904Y-72133333D01*
X77311904Y-72371428D01*
X77264285Y-72561904D01*
X77216666Y-72657142D01*
X77169047Y-72704761D01*
X77073809Y-72752380D01*
X76978571Y-72752380D01*
X76883333Y-72704761D01*
X76835714Y-72657142D01*
X76788095Y-72561904D01*
X76740476Y-72371428D01*
X76740476Y-72133333D01*
X76788095Y-71942857D01*
X76835714Y-71847619D01*
X76883333Y-71800000D01*
X76978571Y-71752380D01*
X80190476Y-71752380D02*
X80809523Y-71752380D01*
X80476190Y-72133333D01*
X80619047Y-72133333D01*
X80714285Y-72180952D01*
X80761904Y-72228571D01*
X80809523Y-72323809D01*
X80809523Y-72561904D01*
X80761904Y-72657142D01*
X80714285Y-72704761D01*
X80619047Y-72752380D01*
X80333333Y-72752380D01*
X80238095Y-72704761D01*
X80190476Y-72657142D01*
X81285714Y-72752380D02*
X81476190Y-72752380D01*
X81571428Y-72704761D01*
X81619047Y-72657142D01*
X81714285Y-72514285D01*
X81761904Y-72323809D01*
X81761904Y-71942857D01*
X81714285Y-71847619D01*
X81666666Y-71800000D01*
X81571428Y-71752380D01*
X81380952Y-71752380D01*
X81285714Y-71800000D01*
X81238095Y-71847619D01*
X81190476Y-71942857D01*
X81190476Y-72180952D01*
X81238095Y-72276190D01*
X81285714Y-72323809D01*
X81380952Y-72371428D01*
X81571428Y-72371428D01*
X81666666Y-72323809D01*
X81714285Y-72276190D01*
X81761904Y-72180952D01*
X75814285Y-123597619D02*
X75861904Y-123550000D01*
X75957142Y-123502380D01*
X76195238Y-123502380D01*
X76290476Y-123550000D01*
X76338095Y-123597619D01*
X76385714Y-123692857D01*
X76385714Y-123788095D01*
X76338095Y-123930952D01*
X75766666Y-124502380D01*
X76385714Y-124502380D01*
X81735714Y-124502380D02*
X81164285Y-124502380D01*
X81450000Y-124502380D02*
X81450000Y-123502380D01*
X81354761Y-123645238D01*
X81259523Y-123740476D01*
X81164285Y-123788095D01*
X98057142Y-107607142D02*
X98009523Y-107654761D01*
X97866666Y-107702380D01*
X97771428Y-107702380D01*
X97628571Y-107654761D01*
X97533333Y-107559523D01*
X97485714Y-107464285D01*
X97438095Y-107273809D01*
X97438095Y-107130952D01*
X97485714Y-106940476D01*
X97533333Y-106845238D01*
X97628571Y-106750000D01*
X97771428Y-106702380D01*
X97866666Y-106702380D01*
X98009523Y-106750000D01*
X98057142Y-106797619D01*
X98438095Y-106797619D02*
X98485714Y-106750000D01*
X98580952Y-106702380D01*
X98819047Y-106702380D01*
X98914285Y-106750000D01*
X98961904Y-106797619D01*
X99009523Y-106892857D01*
X99009523Y-106988095D01*
X98961904Y-107130952D01*
X98390476Y-107702380D01*
X99009523Y-107702380D01*
X99961904Y-107702380D02*
X99390476Y-107702380D01*
X99676190Y-107702380D02*
X99676190Y-106702380D01*
X99580952Y-106845238D01*
X99485714Y-106940476D01*
X99390476Y-106988095D01*
X95307142Y-107607142D02*
X95259523Y-107654761D01*
X95116666Y-107702380D01*
X95021428Y-107702380D01*
X94878571Y-107654761D01*
X94783333Y-107559523D01*
X94735714Y-107464285D01*
X94688095Y-107273809D01*
X94688095Y-107130952D01*
X94735714Y-106940476D01*
X94783333Y-106845238D01*
X94878571Y-106750000D01*
X95021428Y-106702380D01*
X95116666Y-106702380D01*
X95259523Y-106750000D01*
X95307142Y-106797619D01*
X95688095Y-106797619D02*
X95735714Y-106750000D01*
X95830952Y-106702380D01*
X96069047Y-106702380D01*
X96164285Y-106750000D01*
X96211904Y-106797619D01*
X96259523Y-106892857D01*
X96259523Y-106988095D01*
X96211904Y-107130952D01*
X95640476Y-107702380D01*
X96259523Y-107702380D01*
X96878571Y-106702380D02*
X96973809Y-106702380D01*
X97069047Y-106750000D01*
X97116666Y-106797619D01*
X97164285Y-106892857D01*
X97211904Y-107083333D01*
X97211904Y-107321428D01*
X97164285Y-107511904D01*
X97116666Y-107607142D01*
X97069047Y-107654761D01*
X96973809Y-107702380D01*
X96878571Y-107702380D01*
X96783333Y-107654761D01*
X96735714Y-107607142D01*
X96688095Y-107511904D01*
X96640476Y-107321428D01*
X96640476Y-107083333D01*
X96688095Y-106892857D01*
X96735714Y-106797619D01*
X96783333Y-106750000D01*
X96878571Y-106702380D01*
X94107142Y-106187142D02*
X94059523Y-106234761D01*
X93916666Y-106282380D01*
X93821428Y-106282380D01*
X93678571Y-106234761D01*
X93583333Y-106139523D01*
X93535714Y-106044285D01*
X93488095Y-105853809D01*
X93488095Y-105710952D01*
X93535714Y-105520476D01*
X93583333Y-105425238D01*
X93678571Y-105330000D01*
X93821428Y-105282380D01*
X93916666Y-105282380D01*
X94059523Y-105330000D01*
X94107142Y-105377619D01*
X95059523Y-106282380D02*
X94488095Y-106282380D01*
X94773809Y-106282380D02*
X94773809Y-105282380D01*
X94678571Y-105425238D01*
X94583333Y-105520476D01*
X94488095Y-105568095D01*
X95630952Y-105710952D02*
X95535714Y-105663333D01*
X95488095Y-105615714D01*
X95440476Y-105520476D01*
X95440476Y-105472857D01*
X95488095Y-105377619D01*
X95535714Y-105330000D01*
X95630952Y-105282380D01*
X95821428Y-105282380D01*
X95916666Y-105330000D01*
X95964285Y-105377619D01*
X96011904Y-105472857D01*
X96011904Y-105520476D01*
X95964285Y-105615714D01*
X95916666Y-105663333D01*
X95821428Y-105710952D01*
X95630952Y-105710952D01*
X95535714Y-105758571D01*
X95488095Y-105806190D01*
X95440476Y-105901428D01*
X95440476Y-106091904D01*
X95488095Y-106187142D01*
X95535714Y-106234761D01*
X95630952Y-106282380D01*
X95821428Y-106282380D01*
X95916666Y-106234761D01*
X95964285Y-106187142D01*
X96011904Y-106091904D01*
X96011904Y-105901428D01*
X95964285Y-105806190D01*
X95916666Y-105758571D01*
X95821428Y-105710952D01*
X128938095Y-73452380D02*
X128938095Y-72452380D01*
X128938095Y-72928571D02*
X129509523Y-72928571D01*
X129509523Y-73452380D02*
X129509523Y-72452380D01*
X129890476Y-72452380D02*
X130509523Y-72452380D01*
X130176190Y-72833333D01*
X130319047Y-72833333D01*
X130414285Y-72880952D01*
X130461904Y-72928571D01*
X130509523Y-73023809D01*
X130509523Y-73261904D01*
X130461904Y-73357142D01*
X130414285Y-73404761D01*
X130319047Y-73452380D01*
X130033333Y-73452380D01*
X129938095Y-73404761D01*
X129890476Y-73357142D01*
X102522666Y-128922380D02*
X102522666Y-129636666D01*
X102475047Y-129779523D01*
X102379809Y-129874761D01*
X102236952Y-129922380D01*
X102141714Y-129922380D01*
X103427428Y-129255714D02*
X103427428Y-129922380D01*
X103189333Y-128874761D02*
X102951238Y-129589047D01*
X103570285Y-129589047D01*
D12*
X93693466Y-93726771D02*
X93669657Y-93750580D01*
X93598228Y-93774390D01*
X93550609Y-93774390D01*
X93479180Y-93750580D01*
X93431561Y-93702961D01*
X93407752Y-93655342D01*
X93383942Y-93560104D01*
X93383942Y-93488676D01*
X93407752Y-93393438D01*
X93431561Y-93345819D01*
X93479180Y-93298200D01*
X93550609Y-93274390D01*
X93598228Y-93274390D01*
X93669657Y-93298200D01*
X93693466Y-93322009D01*
X94169657Y-93774390D02*
X93883942Y-93774390D01*
X94026800Y-93774390D02*
X94026800Y-93274390D01*
X93979180Y-93345819D01*
X93931561Y-93393438D01*
X93883942Y-93417247D01*
D10*
X108611373Y-92604862D02*
X108563754Y-92652481D01*
X108420897Y-92700100D01*
X108325659Y-92700100D01*
X108182801Y-92652481D01*
X108087563Y-92557243D01*
X108039944Y-92462005D01*
X107992325Y-92271529D01*
X107992325Y-92128672D01*
X108039944Y-91938196D01*
X108087563Y-91842958D01*
X108182801Y-91747720D01*
X108325659Y-91700100D01*
X108420897Y-91700100D01*
X108563754Y-91747720D01*
X108611373Y-91795339D01*
X108992325Y-91795339D02*
X109039944Y-91747720D01*
X109135182Y-91700100D01*
X109373278Y-91700100D01*
X109468516Y-91747720D01*
X109516135Y-91795339D01*
X109563754Y-91890577D01*
X109563754Y-91985815D01*
X109516135Y-92128672D01*
X108944706Y-92700100D01*
X109563754Y-92700100D01*
X108693222Y-95675746D02*
X108740841Y-95723365D01*
X108788460Y-95866222D01*
X108788460Y-95961460D01*
X108740841Y-96104318D01*
X108645603Y-96199556D01*
X108550365Y-96247175D01*
X108359889Y-96294794D01*
X108217032Y-96294794D01*
X108026556Y-96247175D01*
X107931318Y-96199556D01*
X107836080Y-96104318D01*
X107788460Y-95961460D01*
X107788460Y-95866222D01*
X107836080Y-95723365D01*
X107883699Y-95675746D01*
X107788460Y-95342413D02*
X107788460Y-94723365D01*
X108169413Y-95056699D01*
X108169413Y-94913841D01*
X108217032Y-94818603D01*
X108264651Y-94770984D01*
X108359889Y-94723365D01*
X108597984Y-94723365D01*
X108693222Y-94770984D01*
X108740841Y-94818603D01*
X108788460Y-94913841D01*
X108788460Y-95199556D01*
X108740841Y-95294794D01*
X108693222Y-95342413D01*
X97527142Y-93736666D02*
X97574761Y-93784285D01*
X97622380Y-93927142D01*
X97622380Y-94022380D01*
X97574761Y-94165238D01*
X97479523Y-94260476D01*
X97384285Y-94308095D01*
X97193809Y-94355714D01*
X97050952Y-94355714D01*
X96860476Y-94308095D01*
X96765238Y-94260476D01*
X96670000Y-94165238D01*
X96622380Y-94022380D01*
X96622380Y-93927142D01*
X96670000Y-93784285D01*
X96717619Y-93736666D01*
X96955714Y-92879523D02*
X97622380Y-92879523D01*
X96574761Y-93117619D02*
X97289047Y-93355714D01*
X97289047Y-92736666D01*
X111928613Y-97745822D02*
X111880994Y-97793441D01*
X111738137Y-97841060D01*
X111642899Y-97841060D01*
X111500041Y-97793441D01*
X111404803Y-97698203D01*
X111357184Y-97602965D01*
X111309565Y-97412489D01*
X111309565Y-97269632D01*
X111357184Y-97079156D01*
X111404803Y-96983918D01*
X111500041Y-96888680D01*
X111642899Y-96841060D01*
X111738137Y-96841060D01*
X111880994Y-96888680D01*
X111928613Y-96936299D01*
X112261946Y-96841060D02*
X112928613Y-96841060D01*
X112500041Y-97841060D01*
X94169502Y-71962306D02*
X94217121Y-72009925D01*
X94264740Y-72152782D01*
X94264740Y-72248020D01*
X94217121Y-72390878D01*
X94121883Y-72486116D01*
X94026645Y-72533735D01*
X93836169Y-72581354D01*
X93693312Y-72581354D01*
X93502836Y-72533735D01*
X93407598Y-72486116D01*
X93312360Y-72390878D01*
X93264740Y-72248020D01*
X93264740Y-72152782D01*
X93312360Y-72009925D01*
X93359979Y-71962306D01*
X93693312Y-71390878D02*
X93645693Y-71486116D01*
X93598074Y-71533735D01*
X93502836Y-71581354D01*
X93455217Y-71581354D01*
X93359979Y-71533735D01*
X93312360Y-71486116D01*
X93264740Y-71390878D01*
X93264740Y-71200401D01*
X93312360Y-71105163D01*
X93359979Y-71057544D01*
X93455217Y-71009925D01*
X93502836Y-71009925D01*
X93598074Y-71057544D01*
X93645693Y-71105163D01*
X93693312Y-71200401D01*
X93693312Y-71390878D01*
X93740931Y-71486116D01*
X93788550Y-71533735D01*
X93883788Y-71581354D01*
X94074264Y-71581354D01*
X94169502Y-71533735D01*
X94217121Y-71486116D01*
X94264740Y-71390878D01*
X94264740Y-71200401D01*
X94217121Y-71105163D01*
X94169502Y-71057544D01*
X94074264Y-71009925D01*
X93883788Y-71009925D01*
X93788550Y-71057544D01*
X93740931Y-71105163D01*
X93693312Y-71200401D01*
X106935542Y-71738786D02*
X106983161Y-71786405D01*
X107030780Y-71929262D01*
X107030780Y-72024500D01*
X106983161Y-72167358D01*
X106887923Y-72262596D01*
X106792685Y-72310215D01*
X106602209Y-72357834D01*
X106459352Y-72357834D01*
X106268876Y-72310215D01*
X106173638Y-72262596D01*
X106078400Y-72167358D01*
X106030780Y-72024500D01*
X106030780Y-71929262D01*
X106078400Y-71786405D01*
X106126019Y-71738786D01*
X107030780Y-71262596D02*
X107030780Y-71072120D01*
X106983161Y-70976881D01*
X106935542Y-70929262D01*
X106792685Y-70834024D01*
X106602209Y-70786405D01*
X106221257Y-70786405D01*
X106126019Y-70834024D01*
X106078400Y-70881643D01*
X106030780Y-70976881D01*
X106030780Y-71167358D01*
X106078400Y-71262596D01*
X106126019Y-71310215D01*
X106221257Y-71357834D01*
X106459352Y-71357834D01*
X106554590Y-71310215D01*
X106602209Y-71262596D01*
X106649828Y-71167358D01*
X106649828Y-70976881D01*
X106602209Y-70881643D01*
X106554590Y-70834024D01*
X106459352Y-70786405D01*
D12*
X107750491Y-76053451D02*
X107726681Y-76077260D01*
X107655253Y-76101070D01*
X107607634Y-76101070D01*
X107536205Y-76077260D01*
X107488586Y-76029641D01*
X107464777Y-75982022D01*
X107440967Y-75886784D01*
X107440967Y-75815356D01*
X107464777Y-75720118D01*
X107488586Y-75672499D01*
X107536205Y-75624880D01*
X107607634Y-75601070D01*
X107655253Y-75601070D01*
X107726681Y-75624880D01*
X107750491Y-75648689D01*
X108226681Y-76101070D02*
X107940967Y-76101070D01*
X108083824Y-76101070D02*
X108083824Y-75601070D01*
X108036205Y-75672499D01*
X107988586Y-75720118D01*
X107940967Y-75743927D01*
X108536205Y-75601070D02*
X108583824Y-75601070D01*
X108631443Y-75624880D01*
X108655253Y-75648689D01*
X108679062Y-75696308D01*
X108702872Y-75791546D01*
X108702872Y-75910594D01*
X108679062Y-76005832D01*
X108655253Y-76053451D01*
X108631443Y-76077260D01*
X108583824Y-76101070D01*
X108536205Y-76101070D01*
X108488586Y-76077260D01*
X108464777Y-76053451D01*
X108440967Y-76005832D01*
X108417158Y-75910594D01*
X108417158Y-75791546D01*
X108440967Y-75696308D01*
X108464777Y-75648689D01*
X108488586Y-75624880D01*
X108536205Y-75601070D01*
D10*
X95993222Y-72621377D02*
X96040841Y-72668996D01*
X96088460Y-72811853D01*
X96088460Y-72907091D01*
X96040841Y-73049948D01*
X95945603Y-73145186D01*
X95850365Y-73192805D01*
X95659889Y-73240424D01*
X95517032Y-73240424D01*
X95326556Y-73192805D01*
X95231318Y-73145186D01*
X95136080Y-73049948D01*
X95088460Y-72907091D01*
X95088460Y-72811853D01*
X95136080Y-72668996D01*
X95183699Y-72621377D01*
X96088460Y-71668996D02*
X96088460Y-72240424D01*
X96088460Y-71954710D02*
X95088460Y-71954710D01*
X95231318Y-72049948D01*
X95326556Y-72145186D01*
X95374175Y-72240424D01*
X96088460Y-70716615D02*
X96088460Y-71288043D01*
X96088460Y-71002329D02*
X95088460Y-71002329D01*
X95231318Y-71097567D01*
X95326556Y-71192805D01*
X95374175Y-71288043D01*
D12*
X112383451Y-77872091D02*
X112359641Y-77895900D01*
X112288213Y-77919710D01*
X112240594Y-77919710D01*
X112169165Y-77895900D01*
X112121546Y-77848281D01*
X112097737Y-77800662D01*
X112073927Y-77705424D01*
X112073927Y-77633996D01*
X112097737Y-77538758D01*
X112121546Y-77491139D01*
X112169165Y-77443520D01*
X112240594Y-77419710D01*
X112288213Y-77419710D01*
X112359641Y-77443520D01*
X112383451Y-77467329D01*
X112859641Y-77919710D02*
X112573927Y-77919710D01*
X112716784Y-77919710D02*
X112716784Y-77419710D01*
X112669165Y-77491139D01*
X112621546Y-77538758D01*
X112573927Y-77562567D01*
X113288213Y-77586377D02*
X113288213Y-77919710D01*
X113169165Y-77395900D02*
X113050118Y-77753043D01*
X113359641Y-77753043D01*
D15*
X118640257Y-122012057D02*
X118621209Y-122031104D01*
X118564066Y-122050152D01*
X118525971Y-122050152D01*
X118468828Y-122031104D01*
X118430733Y-121993009D01*
X118411685Y-121954914D01*
X118392638Y-121878723D01*
X118392638Y-121821580D01*
X118411685Y-121745390D01*
X118430733Y-121707295D01*
X118468828Y-121669200D01*
X118525971Y-121650152D01*
X118564066Y-121650152D01*
X118621209Y-121669200D01*
X118640257Y-121688247D01*
X118792638Y-121688247D02*
X118811685Y-121669200D01*
X118849780Y-121650152D01*
X118945019Y-121650152D01*
X118983114Y-121669200D01*
X119002161Y-121688247D01*
X119021209Y-121726342D01*
X119021209Y-121764438D01*
X119002161Y-121821580D01*
X118773590Y-122050152D01*
X119021209Y-122050152D01*
X119364066Y-121783485D02*
X119364066Y-122050152D01*
X119268828Y-121631104D02*
X119173590Y-121916819D01*
X119421209Y-121916819D01*
X123072557Y-117998857D02*
X123053509Y-118017904D01*
X122996366Y-118036952D01*
X122958271Y-118036952D01*
X122901128Y-118017904D01*
X122863033Y-117979809D01*
X122843985Y-117941714D01*
X122824938Y-117865523D01*
X122824938Y-117808380D01*
X122843985Y-117732190D01*
X122863033Y-117694095D01*
X122901128Y-117656000D01*
X122958271Y-117636952D01*
X122996366Y-117636952D01*
X123053509Y-117656000D01*
X123072557Y-117675047D01*
X123224938Y-117675047D02*
X123243985Y-117656000D01*
X123282080Y-117636952D01*
X123377319Y-117636952D01*
X123415414Y-117656000D01*
X123434461Y-117675047D01*
X123453509Y-117713142D01*
X123453509Y-117751238D01*
X123434461Y-117808380D01*
X123205890Y-118036952D01*
X123453509Y-118036952D01*
X123815414Y-117636952D02*
X123624938Y-117636952D01*
X123605890Y-117827428D01*
X123624938Y-117808380D01*
X123663033Y-117789333D01*
X123758271Y-117789333D01*
X123796366Y-117808380D01*
X123815414Y-117827428D01*
X123834461Y-117865523D01*
X123834461Y-117960761D01*
X123815414Y-117998857D01*
X123796366Y-118017904D01*
X123758271Y-118036952D01*
X123663033Y-118036952D01*
X123624938Y-118017904D01*
X123605890Y-117998857D01*
X123428157Y-121948557D02*
X123409109Y-121967604D01*
X123351966Y-121986652D01*
X123313871Y-121986652D01*
X123256728Y-121967604D01*
X123218633Y-121929509D01*
X123199585Y-121891414D01*
X123180538Y-121815223D01*
X123180538Y-121758080D01*
X123199585Y-121681890D01*
X123218633Y-121643795D01*
X123256728Y-121605700D01*
X123313871Y-121586652D01*
X123351966Y-121586652D01*
X123409109Y-121605700D01*
X123428157Y-121624747D01*
X123580538Y-121624747D02*
X123599585Y-121605700D01*
X123637680Y-121586652D01*
X123732919Y-121586652D01*
X123771014Y-121605700D01*
X123790061Y-121624747D01*
X123809109Y-121662842D01*
X123809109Y-121700938D01*
X123790061Y-121758080D01*
X123561490Y-121986652D01*
X123809109Y-121986652D01*
X124151966Y-121586652D02*
X124075776Y-121586652D01*
X124037680Y-121605700D01*
X124018633Y-121624747D01*
X123980538Y-121681890D01*
X123961490Y-121758080D01*
X123961490Y-121910461D01*
X123980538Y-121948557D01*
X123999585Y-121967604D01*
X124037680Y-121986652D01*
X124113871Y-121986652D01*
X124151966Y-121967604D01*
X124171014Y-121948557D01*
X124190061Y-121910461D01*
X124190061Y-121815223D01*
X124171014Y-121777128D01*
X124151966Y-121758080D01*
X124113871Y-121739033D01*
X124037680Y-121739033D01*
X123999585Y-121758080D01*
X123980538Y-121777128D01*
X123961490Y-121815223D01*
D12*
X116416971Y-115265971D02*
X116393161Y-115289780D01*
X116321733Y-115313590D01*
X116274114Y-115313590D01*
X116202685Y-115289780D01*
X116155066Y-115242161D01*
X116131257Y-115194542D01*
X116107447Y-115099304D01*
X116107447Y-115027876D01*
X116131257Y-114932638D01*
X116155066Y-114885019D01*
X116202685Y-114837400D01*
X116274114Y-114813590D01*
X116321733Y-114813590D01*
X116393161Y-114837400D01*
X116416971Y-114861209D01*
X116583638Y-114813590D02*
X116893161Y-114813590D01*
X116726495Y-115004066D01*
X116797923Y-115004066D01*
X116845542Y-115027876D01*
X116869352Y-115051685D01*
X116893161Y-115099304D01*
X116893161Y-115218352D01*
X116869352Y-115265971D01*
X116845542Y-115289780D01*
X116797923Y-115313590D01*
X116655066Y-115313590D01*
X116607447Y-115289780D01*
X116583638Y-115265971D01*
X117059828Y-114813590D02*
X117369352Y-114813590D01*
X117202685Y-115004066D01*
X117274114Y-115004066D01*
X117321733Y-115027876D01*
X117345542Y-115051685D01*
X117369352Y-115099304D01*
X117369352Y-115218352D01*
X117345542Y-115265971D01*
X117321733Y-115289780D01*
X117274114Y-115313590D01*
X117131257Y-115313590D01*
X117083638Y-115289780D01*
X117059828Y-115265971D01*
D10*
X112402380Y-95638095D02*
X111402380Y-95638095D01*
X111402380Y-95400000D01*
X111450000Y-95257142D01*
X111545238Y-95161904D01*
X111640476Y-95114285D01*
X111830952Y-95066666D01*
X111973809Y-95066666D01*
X112164285Y-95114285D01*
X112259523Y-95161904D01*
X112354761Y-95257142D01*
X112402380Y-95400000D01*
X112402380Y-95638095D01*
X112402380Y-94114285D02*
X112402380Y-94685714D01*
X112402380Y-94400000D02*
X111402380Y-94400000D01*
X111545238Y-94495238D01*
X111640476Y-94590476D01*
X111688095Y-94685714D01*
X112582380Y-75638095D02*
X111582380Y-75638095D01*
X111582380Y-75400000D01*
X111630000Y-75257142D01*
X111725238Y-75161904D01*
X111820476Y-75114285D01*
X112010952Y-75066666D01*
X112153809Y-75066666D01*
X112344285Y-75114285D01*
X112439523Y-75161904D01*
X112534761Y-75257142D01*
X112582380Y-75400000D01*
X112582380Y-75638095D01*
X111677619Y-74685714D02*
X111630000Y-74638095D01*
X111582380Y-74542857D01*
X111582380Y-74304761D01*
X111630000Y-74209523D01*
X111677619Y-74161904D01*
X111772857Y-74114285D01*
X111868095Y-74114285D01*
X112010952Y-74161904D01*
X112582380Y-74733333D01*
X112582380Y-74114285D01*
X124785714Y-123152380D02*
X124785714Y-122152380D01*
X125023809Y-122152380D01*
X125166666Y-122200000D01*
X125261904Y-122295238D01*
X125309523Y-122390476D01*
X125357142Y-122580952D01*
X125357142Y-122723809D01*
X125309523Y-122914285D01*
X125261904Y-123009523D01*
X125166666Y-123104761D01*
X125023809Y-123152380D01*
X124785714Y-123152380D01*
X126309523Y-123152380D02*
X125738095Y-123152380D01*
X126023809Y-123152380D02*
X126023809Y-122152380D01*
X125928571Y-122295238D01*
X125833333Y-122390476D01*
X125738095Y-122438095D01*
X127214285Y-122152380D02*
X126738095Y-122152380D01*
X126690476Y-122628571D01*
X126738095Y-122580952D01*
X126833333Y-122533333D01*
X127071428Y-122533333D01*
X127166666Y-122580952D01*
X127214285Y-122628571D01*
X127261904Y-122723809D01*
X127261904Y-122961904D01*
X127214285Y-123057142D01*
X127166666Y-123104761D01*
X127071428Y-123152380D01*
X126833333Y-123152380D01*
X126738095Y-123104761D01*
X126690476Y-123057142D01*
X119747380Y-98559523D02*
X120461666Y-98559523D01*
X120604523Y-98607142D01*
X120699761Y-98702380D01*
X120747380Y-98845238D01*
X120747380Y-98940476D01*
X120747380Y-97559523D02*
X120747380Y-98130952D01*
X120747380Y-97845238D02*
X119747380Y-97845238D01*
X119890238Y-97940476D01*
X119985476Y-98035714D01*
X120033095Y-98130952D01*
X120747380Y-97083333D02*
X120747380Y-96892857D01*
X120699761Y-96797619D01*
X120652142Y-96750000D01*
X120509285Y-96654761D01*
X120318809Y-96607142D01*
X119937857Y-96607142D01*
X119842619Y-96654761D01*
X119795000Y-96702380D01*
X119747380Y-96797619D01*
X119747380Y-96988095D01*
X119795000Y-97083333D01*
X119842619Y-97130952D01*
X119937857Y-97178571D01*
X120175952Y-97178571D01*
X120271190Y-97130952D01*
X120318809Y-97083333D01*
X120366428Y-96988095D01*
X120366428Y-96797619D01*
X120318809Y-96702380D01*
X120271190Y-96654761D01*
X120175952Y-96607142D01*
X109749293Y-83352900D02*
X109415960Y-82876710D01*
X109177864Y-83352900D02*
X109177864Y-82352900D01*
X109558817Y-82352900D01*
X109654055Y-82400520D01*
X109701674Y-82448139D01*
X109749293Y-82543377D01*
X109749293Y-82686234D01*
X109701674Y-82781472D01*
X109654055Y-82829091D01*
X109558817Y-82876710D01*
X109177864Y-82876710D01*
X110701674Y-83352900D02*
X110130245Y-83352900D01*
X110415960Y-83352900D02*
X110415960Y-82352900D01*
X110320721Y-82495758D01*
X110225483Y-82590996D01*
X110130245Y-82638615D01*
X107285493Y-89692740D02*
X106952160Y-89216550D01*
X106714064Y-89692740D02*
X106714064Y-88692740D01*
X107095017Y-88692740D01*
X107190255Y-88740360D01*
X107237874Y-88787979D01*
X107285493Y-88883217D01*
X107285493Y-89026074D01*
X107237874Y-89121312D01*
X107190255Y-89168931D01*
X107095017Y-89216550D01*
X106714064Y-89216550D01*
X107666445Y-88787979D02*
X107714064Y-88740360D01*
X107809302Y-88692740D01*
X108047398Y-88692740D01*
X108142636Y-88740360D01*
X108190255Y-88787979D01*
X108237874Y-88883217D01*
X108237874Y-88978455D01*
X108190255Y-89121312D01*
X107618826Y-89692740D01*
X108237874Y-89692740D01*
X112223253Y-99426020D02*
X111889920Y-98949830D01*
X111651824Y-99426020D02*
X111651824Y-98426020D01*
X112032777Y-98426020D01*
X112128015Y-98473640D01*
X112175634Y-98521259D01*
X112223253Y-98616497D01*
X112223253Y-98759354D01*
X112175634Y-98854592D01*
X112128015Y-98902211D01*
X112032777Y-98949830D01*
X111651824Y-98949830D01*
X112556586Y-98426020D02*
X113175634Y-98426020D01*
X112842300Y-98806973D01*
X112985158Y-98806973D01*
X113080396Y-98854592D01*
X113128015Y-98902211D01*
X113175634Y-98997449D01*
X113175634Y-99235544D01*
X113128015Y-99330782D01*
X113080396Y-99378401D01*
X112985158Y-99426020D01*
X112699443Y-99426020D01*
X112604205Y-99378401D01*
X112556586Y-99330782D01*
X106035813Y-98897700D02*
X105702480Y-98421510D01*
X105464384Y-98897700D02*
X105464384Y-97897700D01*
X105845337Y-97897700D01*
X105940575Y-97945320D01*
X105988194Y-97992939D01*
X106035813Y-98088177D01*
X106035813Y-98231034D01*
X105988194Y-98326272D01*
X105940575Y-98373891D01*
X105845337Y-98421510D01*
X105464384Y-98421510D01*
X106892956Y-98231034D02*
X106892956Y-98897700D01*
X106654860Y-97850081D02*
X106416765Y-98564367D01*
X107035813Y-98564367D01*
D12*
X109148026Y-78420710D02*
X108981360Y-78182615D01*
X108862312Y-78420710D02*
X108862312Y-77920710D01*
X109052788Y-77920710D01*
X109100407Y-77944520D01*
X109124217Y-77968329D01*
X109148026Y-78015948D01*
X109148026Y-78087377D01*
X109124217Y-78134996D01*
X109100407Y-78158805D01*
X109052788Y-78182615D01*
X108862312Y-78182615D01*
X109600407Y-77920710D02*
X109362312Y-77920710D01*
X109338502Y-78158805D01*
X109362312Y-78134996D01*
X109409931Y-78111186D01*
X109528979Y-78111186D01*
X109576598Y-78134996D01*
X109600407Y-78158805D01*
X109624217Y-78206424D01*
X109624217Y-78325472D01*
X109600407Y-78373091D01*
X109576598Y-78396900D01*
X109528979Y-78420710D01*
X109409931Y-78420710D01*
X109362312Y-78396900D01*
X109338502Y-78373091D01*
X109689946Y-80867550D02*
X109523280Y-80629455D01*
X109404232Y-80867550D02*
X109404232Y-80367550D01*
X109594708Y-80367550D01*
X109642327Y-80391360D01*
X109666137Y-80415169D01*
X109689946Y-80462788D01*
X109689946Y-80534217D01*
X109666137Y-80581836D01*
X109642327Y-80605645D01*
X109594708Y-80629455D01*
X109404232Y-80629455D01*
X110118518Y-80367550D02*
X110023280Y-80367550D01*
X109975660Y-80391360D01*
X109951851Y-80415169D01*
X109904232Y-80486598D01*
X109880422Y-80581836D01*
X109880422Y-80772312D01*
X109904232Y-80819931D01*
X109928041Y-80843740D01*
X109975660Y-80867550D01*
X110070899Y-80867550D01*
X110118518Y-80843740D01*
X110142327Y-80819931D01*
X110166137Y-80772312D01*
X110166137Y-80653264D01*
X110142327Y-80605645D01*
X110118518Y-80581836D01*
X110070899Y-80558026D01*
X109975660Y-80558026D01*
X109928041Y-80581836D01*
X109904232Y-80605645D01*
X109880422Y-80653264D01*
X94026871Y-101864290D02*
X93860204Y-101626195D01*
X93741157Y-101864290D02*
X93741157Y-101364290D01*
X93931633Y-101364290D01*
X93979252Y-101388100D01*
X94003061Y-101411909D01*
X94026871Y-101459528D01*
X94026871Y-101530957D01*
X94003061Y-101578576D01*
X93979252Y-101602385D01*
X93931633Y-101626195D01*
X93741157Y-101626195D01*
X94503061Y-101864290D02*
X94217347Y-101864290D01*
X94360204Y-101864290D02*
X94360204Y-101364290D01*
X94312585Y-101435719D01*
X94264966Y-101483338D01*
X94217347Y-101507147D01*
X94669728Y-101364290D02*
X94979252Y-101364290D01*
X94812585Y-101554766D01*
X94884014Y-101554766D01*
X94931633Y-101578576D01*
X94955442Y-101602385D01*
X94979252Y-101650004D01*
X94979252Y-101769052D01*
X94955442Y-101816671D01*
X94931633Y-101840480D01*
X94884014Y-101864290D01*
X94741157Y-101864290D01*
X94693538Y-101840480D01*
X94669728Y-101816671D01*
D10*
X96132380Y-111672857D02*
X95656190Y-112006190D01*
X96132380Y-112244285D02*
X95132380Y-112244285D01*
X95132380Y-111863333D01*
X95180000Y-111768095D01*
X95227619Y-111720476D01*
X95322857Y-111672857D01*
X95465714Y-111672857D01*
X95560952Y-111720476D01*
X95608571Y-111768095D01*
X95656190Y-111863333D01*
X95656190Y-112244285D01*
X96132380Y-110720476D02*
X96132380Y-111291904D01*
X96132380Y-111006190D02*
X95132380Y-111006190D01*
X95275238Y-111101428D01*
X95370476Y-111196666D01*
X95418095Y-111291904D01*
X95465714Y-109863333D02*
X96132380Y-109863333D01*
X95084761Y-110101428D02*
X95799047Y-110339523D01*
X95799047Y-109720476D01*
D15*
X120164257Y-122037452D02*
X120030923Y-121846976D01*
X119935685Y-122037452D02*
X119935685Y-121637452D01*
X120088066Y-121637452D01*
X120126161Y-121656500D01*
X120145209Y-121675547D01*
X120164257Y-121713642D01*
X120164257Y-121770785D01*
X120145209Y-121808880D01*
X120126161Y-121827928D01*
X120088066Y-121846976D01*
X119935685Y-121846976D01*
X120316638Y-121675547D02*
X120335685Y-121656500D01*
X120373780Y-121637452D01*
X120469019Y-121637452D01*
X120507114Y-121656500D01*
X120526161Y-121675547D01*
X120545209Y-121713642D01*
X120545209Y-121751738D01*
X120526161Y-121808880D01*
X120297590Y-122037452D01*
X120545209Y-122037452D01*
X120792828Y-121637452D02*
X120830923Y-121637452D01*
X120869019Y-121656500D01*
X120888066Y-121675547D01*
X120907114Y-121713642D01*
X120926161Y-121789833D01*
X120926161Y-121885071D01*
X120907114Y-121961261D01*
X120888066Y-121999357D01*
X120869019Y-122018404D01*
X120830923Y-122037452D01*
X120792828Y-122037452D01*
X120754733Y-122018404D01*
X120735685Y-121999357D01*
X120716638Y-121961261D01*
X120697590Y-121885071D01*
X120697590Y-121789833D01*
X120716638Y-121713642D01*
X120735685Y-121675547D01*
X120754733Y-121656500D01*
X120792828Y-121637452D01*
D12*
X120823871Y-123136790D02*
X120657204Y-122898695D01*
X120538157Y-123136790D02*
X120538157Y-122636790D01*
X120728633Y-122636790D01*
X120776252Y-122660600D01*
X120800061Y-122684409D01*
X120823871Y-122732028D01*
X120823871Y-122803457D01*
X120800061Y-122851076D01*
X120776252Y-122874885D01*
X120728633Y-122898695D01*
X120538157Y-122898695D01*
X121014347Y-122684409D02*
X121038157Y-122660600D01*
X121085776Y-122636790D01*
X121204823Y-122636790D01*
X121252442Y-122660600D01*
X121276252Y-122684409D01*
X121300061Y-122732028D01*
X121300061Y-122779647D01*
X121276252Y-122851076D01*
X120990538Y-123136790D01*
X121300061Y-123136790D01*
X121776252Y-123136790D02*
X121490538Y-123136790D01*
X121633395Y-123136790D02*
X121633395Y-122636790D01*
X121585776Y-122708219D01*
X121538157Y-122755838D01*
X121490538Y-122779647D01*
D15*
X121840657Y-122012052D02*
X121707323Y-121821576D01*
X121612085Y-122012052D02*
X121612085Y-121612052D01*
X121764466Y-121612052D01*
X121802561Y-121631100D01*
X121821609Y-121650147D01*
X121840657Y-121688242D01*
X121840657Y-121745385D01*
X121821609Y-121783480D01*
X121802561Y-121802528D01*
X121764466Y-121821576D01*
X121612085Y-121821576D01*
X121993038Y-121650147D02*
X122012085Y-121631100D01*
X122050180Y-121612052D01*
X122145419Y-121612052D01*
X122183514Y-121631100D01*
X122202561Y-121650147D01*
X122221609Y-121688242D01*
X122221609Y-121726338D01*
X122202561Y-121783480D01*
X121973990Y-122012052D01*
X122221609Y-122012052D01*
X122583514Y-121612052D02*
X122393038Y-121612052D01*
X122373990Y-121802528D01*
X122393038Y-121783480D01*
X122431133Y-121764433D01*
X122526371Y-121764433D01*
X122564466Y-121783480D01*
X122583514Y-121802528D01*
X122602561Y-121840623D01*
X122602561Y-121935861D01*
X122583514Y-121973957D01*
X122564466Y-121993004D01*
X122526371Y-122012052D01*
X122431133Y-122012052D01*
X122393038Y-121993004D01*
X122373990Y-121973957D01*
D10*
X106616262Y-85105500D02*
X106282929Y-84629310D01*
X106044834Y-85105500D02*
X106044834Y-84105500D01*
X106425786Y-84105500D01*
X106521024Y-84153120D01*
X106568643Y-84200739D01*
X106616262Y-84295977D01*
X106616262Y-84438834D01*
X106568643Y-84534072D01*
X106521024Y-84581691D01*
X106425786Y-84629310D01*
X106044834Y-84629310D01*
X106997215Y-84200739D02*
X107044834Y-84153120D01*
X107140072Y-84105500D01*
X107378167Y-84105500D01*
X107473405Y-84153120D01*
X107521024Y-84200739D01*
X107568643Y-84295977D01*
X107568643Y-84391215D01*
X107521024Y-84534072D01*
X106949596Y-85105500D01*
X107568643Y-85105500D01*
X108425786Y-84105500D02*
X108235310Y-84105500D01*
X108140072Y-84153120D01*
X108092453Y-84200739D01*
X107997215Y-84343596D01*
X107949596Y-84534072D01*
X107949596Y-84915024D01*
X107997215Y-85010262D01*
X108044834Y-85057881D01*
X108140072Y-85105500D01*
X108330548Y-85105500D01*
X108425786Y-85057881D01*
X108473405Y-85010262D01*
X108521024Y-84915024D01*
X108521024Y-84676929D01*
X108473405Y-84581691D01*
X108425786Y-84534072D01*
X108330548Y-84486453D01*
X108140072Y-84486453D01*
X108044834Y-84534072D01*
X107997215Y-84581691D01*
X107949596Y-84676929D01*
X94997142Y-83862380D02*
X94663809Y-83386190D01*
X94425714Y-83862380D02*
X94425714Y-82862380D01*
X94806666Y-82862380D01*
X94901904Y-82910000D01*
X94949523Y-82957619D01*
X94997142Y-83052857D01*
X94997142Y-83195714D01*
X94949523Y-83290952D01*
X94901904Y-83338571D01*
X94806666Y-83386190D01*
X94425714Y-83386190D01*
X95378095Y-82957619D02*
X95425714Y-82910000D01*
X95520952Y-82862380D01*
X95759047Y-82862380D01*
X95854285Y-82910000D01*
X95901904Y-82957619D01*
X95949523Y-83052857D01*
X95949523Y-83148095D01*
X95901904Y-83290952D01*
X95330476Y-83862380D01*
X95949523Y-83862380D01*
X96520952Y-83290952D02*
X96425714Y-83243333D01*
X96378095Y-83195714D01*
X96330476Y-83100476D01*
X96330476Y-83052857D01*
X96378095Y-82957619D01*
X96425714Y-82910000D01*
X96520952Y-82862380D01*
X96711428Y-82862380D01*
X96806666Y-82910000D01*
X96854285Y-82957619D01*
X96901904Y-83052857D01*
X96901904Y-83100476D01*
X96854285Y-83195714D01*
X96806666Y-83243333D01*
X96711428Y-83290952D01*
X96520952Y-83290952D01*
X96425714Y-83338571D01*
X96378095Y-83386190D01*
X96330476Y-83481428D01*
X96330476Y-83671904D01*
X96378095Y-83767142D01*
X96425714Y-83814761D01*
X96520952Y-83862380D01*
X96711428Y-83862380D01*
X96806666Y-83814761D01*
X96854285Y-83767142D01*
X96901904Y-83671904D01*
X96901904Y-83481428D01*
X96854285Y-83386190D01*
X96806666Y-83338571D01*
X96711428Y-83290952D01*
X95003382Y-88641180D02*
X94670049Y-88164990D01*
X94431954Y-88641180D02*
X94431954Y-87641180D01*
X94812906Y-87641180D01*
X94908144Y-87688800D01*
X94955763Y-87736419D01*
X95003382Y-87831657D01*
X95003382Y-87974514D01*
X94955763Y-88069752D01*
X94908144Y-88117371D01*
X94812906Y-88164990D01*
X94431954Y-88164990D01*
X95384335Y-87736419D02*
X95431954Y-87688800D01*
X95527192Y-87641180D01*
X95765287Y-87641180D01*
X95860525Y-87688800D01*
X95908144Y-87736419D01*
X95955763Y-87831657D01*
X95955763Y-87926895D01*
X95908144Y-88069752D01*
X95336716Y-88641180D01*
X95955763Y-88641180D01*
X96431954Y-88641180D02*
X96622430Y-88641180D01*
X96717668Y-88593561D01*
X96765287Y-88545942D01*
X96860525Y-88403085D01*
X96908144Y-88212609D01*
X96908144Y-87831657D01*
X96860525Y-87736419D01*
X96812906Y-87688800D01*
X96717668Y-87641180D01*
X96527192Y-87641180D01*
X96431954Y-87688800D01*
X96384335Y-87736419D01*
X96336716Y-87831657D01*
X96336716Y-88069752D01*
X96384335Y-88164990D01*
X96431954Y-88212609D01*
X96527192Y-88260228D01*
X96717668Y-88260228D01*
X96812906Y-88212609D01*
X96860525Y-88164990D01*
X96908144Y-88069752D01*
D12*
X125808571Y-115476190D02*
X125641904Y-115238095D01*
X125522857Y-115476190D02*
X125522857Y-114976190D01*
X125713333Y-114976190D01*
X125760952Y-115000000D01*
X125784761Y-115023809D01*
X125808571Y-115071428D01*
X125808571Y-115142857D01*
X125784761Y-115190476D01*
X125760952Y-115214285D01*
X125713333Y-115238095D01*
X125522857Y-115238095D01*
X126237142Y-115142857D02*
X126237142Y-115476190D01*
X126118095Y-114952380D02*
X125999047Y-115309523D01*
X126308571Y-115309523D01*
X126594285Y-114976190D02*
X126641904Y-114976190D01*
X126689523Y-115000000D01*
X126713333Y-115023809D01*
X126737142Y-115071428D01*
X126760952Y-115166666D01*
X126760952Y-115285714D01*
X126737142Y-115380952D01*
X126713333Y-115428571D01*
X126689523Y-115452380D01*
X126641904Y-115476190D01*
X126594285Y-115476190D01*
X126546666Y-115452380D01*
X126522857Y-115428571D01*
X126499047Y-115380952D01*
X126475238Y-115285714D01*
X126475238Y-115166666D01*
X126499047Y-115071428D01*
X126522857Y-115023809D01*
X126546666Y-115000000D01*
X126594285Y-114976190D01*
D10*
X89654142Y-109545380D02*
X89320809Y-109069190D01*
X89082714Y-109545380D02*
X89082714Y-108545380D01*
X89463666Y-108545380D01*
X89558904Y-108593000D01*
X89606523Y-108640619D01*
X89654142Y-108735857D01*
X89654142Y-108878714D01*
X89606523Y-108973952D01*
X89558904Y-109021571D01*
X89463666Y-109069190D01*
X89082714Y-109069190D01*
X90558904Y-108545380D02*
X90082714Y-108545380D01*
X90035095Y-109021571D01*
X90082714Y-108973952D01*
X90177952Y-108926333D01*
X90416047Y-108926333D01*
X90511285Y-108973952D01*
X90558904Y-109021571D01*
X90606523Y-109116809D01*
X90606523Y-109354904D01*
X90558904Y-109450142D01*
X90511285Y-109497761D01*
X90416047Y-109545380D01*
X90177952Y-109545380D01*
X90082714Y-109497761D01*
X90035095Y-109450142D01*
X91463666Y-108545380D02*
X91273190Y-108545380D01*
X91177952Y-108593000D01*
X91130333Y-108640619D01*
X91035095Y-108783476D01*
X90987476Y-108973952D01*
X90987476Y-109354904D01*
X91035095Y-109450142D01*
X91082714Y-109497761D01*
X91177952Y-109545380D01*
X91368428Y-109545380D01*
X91463666Y-109497761D01*
X91511285Y-109450142D01*
X91558904Y-109354904D01*
X91558904Y-109116809D01*
X91511285Y-109021571D01*
X91463666Y-108973952D01*
X91368428Y-108926333D01*
X91177952Y-108926333D01*
X91082714Y-108973952D01*
X91035095Y-109021571D01*
X90987476Y-109116809D01*
X121772442Y-102966780D02*
X121439109Y-102490590D01*
X121201014Y-102966780D02*
X121201014Y-101966780D01*
X121581966Y-101966780D01*
X121677204Y-102014400D01*
X121724823Y-102062019D01*
X121772442Y-102157257D01*
X121772442Y-102300114D01*
X121724823Y-102395352D01*
X121677204Y-102442971D01*
X121581966Y-102490590D01*
X121201014Y-102490590D01*
X122677204Y-101966780D02*
X122201014Y-101966780D01*
X122153395Y-102442971D01*
X122201014Y-102395352D01*
X122296252Y-102347733D01*
X122534347Y-102347733D01*
X122629585Y-102395352D01*
X122677204Y-102442971D01*
X122724823Y-102538209D01*
X122724823Y-102776304D01*
X122677204Y-102871542D01*
X122629585Y-102919161D01*
X122534347Y-102966780D01*
X122296252Y-102966780D01*
X122201014Y-102919161D01*
X122153395Y-102871542D01*
X123201014Y-102966780D02*
X123391490Y-102966780D01*
X123486728Y-102919161D01*
X123534347Y-102871542D01*
X123629585Y-102728685D01*
X123677204Y-102538209D01*
X123677204Y-102157257D01*
X123629585Y-102062019D01*
X123581966Y-102014400D01*
X123486728Y-101966780D01*
X123296252Y-101966780D01*
X123201014Y-102014400D01*
X123153395Y-102062019D01*
X123105776Y-102157257D01*
X123105776Y-102395352D01*
X123153395Y-102490590D01*
X123201014Y-102538209D01*
X123296252Y-102585828D01*
X123486728Y-102585828D01*
X123581966Y-102538209D01*
X123629585Y-102490590D01*
X123677204Y-102395352D01*
X121772442Y-104325680D02*
X121439109Y-103849490D01*
X121201014Y-104325680D02*
X121201014Y-103325680D01*
X121581966Y-103325680D01*
X121677204Y-103373300D01*
X121724823Y-103420919D01*
X121772442Y-103516157D01*
X121772442Y-103659014D01*
X121724823Y-103754252D01*
X121677204Y-103801871D01*
X121581966Y-103849490D01*
X121201014Y-103849490D01*
X122629585Y-103325680D02*
X122439109Y-103325680D01*
X122343871Y-103373300D01*
X122296252Y-103420919D01*
X122201014Y-103563776D01*
X122153395Y-103754252D01*
X122153395Y-104135204D01*
X122201014Y-104230442D01*
X122248633Y-104278061D01*
X122343871Y-104325680D01*
X122534347Y-104325680D01*
X122629585Y-104278061D01*
X122677204Y-104230442D01*
X122724823Y-104135204D01*
X122724823Y-103897109D01*
X122677204Y-103801871D01*
X122629585Y-103754252D01*
X122534347Y-103706633D01*
X122343871Y-103706633D01*
X122248633Y-103754252D01*
X122201014Y-103801871D01*
X122153395Y-103897109D01*
X123677204Y-104325680D02*
X123105776Y-104325680D01*
X123391490Y-104325680D02*
X123391490Y-103325680D01*
X123296252Y-103468538D01*
X123201014Y-103563776D01*
X123105776Y-103611395D01*
X100177695Y-85324700D02*
X100177695Y-86134224D01*
X100225314Y-86229462D01*
X100272933Y-86277081D01*
X100368171Y-86324700D01*
X100558647Y-86324700D01*
X100653885Y-86277081D01*
X100701504Y-86229462D01*
X100749123Y-86134224D01*
X100749123Y-85324700D01*
X101701504Y-85324700D02*
X101225314Y-85324700D01*
X101177695Y-85800891D01*
X101225314Y-85753272D01*
X101320552Y-85705653D01*
X101558647Y-85705653D01*
X101653885Y-85753272D01*
X101701504Y-85800891D01*
X101749123Y-85896129D01*
X101749123Y-86134224D01*
X101701504Y-86229462D01*
X101653885Y-86277081D01*
X101558647Y-86324700D01*
X101320552Y-86324700D01*
X101225314Y-86277081D01*
X101177695Y-86229462D01*
X120388095Y-111802380D02*
X120388095Y-112611904D01*
X120435714Y-112707142D01*
X120483333Y-112754761D01*
X120578571Y-112802380D01*
X120769047Y-112802380D01*
X120864285Y-112754761D01*
X120911904Y-112707142D01*
X120959523Y-112611904D01*
X120959523Y-111802380D01*
X121483333Y-112802380D02*
X121673809Y-112802380D01*
X121769047Y-112754761D01*
X121816666Y-112707142D01*
X121911904Y-112564285D01*
X121959523Y-112373809D01*
X121959523Y-111992857D01*
X121911904Y-111897619D01*
X121864285Y-111850000D01*
X121769047Y-111802380D01*
X121578571Y-111802380D01*
X121483333Y-111850000D01*
X121435714Y-111897619D01*
X121388095Y-111992857D01*
X121388095Y-112230952D01*
X121435714Y-112326190D01*
X121483333Y-112373809D01*
X121578571Y-112421428D01*
X121769047Y-112421428D01*
X121864285Y-112373809D01*
X121911904Y-112326190D01*
X121959523Y-112230952D01*
X92059166Y-70775580D02*
X92059166Y-71489866D01*
X92011547Y-71632723D01*
X91916309Y-71727961D01*
X91773452Y-71775580D01*
X91678214Y-71775580D01*
X92440119Y-70775580D02*
X93106785Y-70775580D01*
X92678214Y-71775580D01*
X129352380Y-100309523D02*
X130066666Y-100309523D01*
X130209523Y-100357142D01*
X130304761Y-100452380D01*
X130352380Y-100595238D01*
X130352380Y-100690476D01*
X129447619Y-99880952D02*
X129400000Y-99833333D01*
X129352380Y-99738095D01*
X129352380Y-99500000D01*
X129400000Y-99404761D01*
X129447619Y-99357142D01*
X129542857Y-99309523D01*
X129638095Y-99309523D01*
X129780952Y-99357142D01*
X130352380Y-99928571D01*
X130352380Y-99309523D01*
X129447619Y-98928571D02*
X129400000Y-98880952D01*
X129352380Y-98785714D01*
X129352380Y-98547619D01*
X129400000Y-98452380D01*
X129447619Y-98404761D01*
X129542857Y-98357142D01*
X129638095Y-98357142D01*
X129780952Y-98404761D01*
X130352380Y-98976190D01*
X130352380Y-98357142D01*
X129452380Y-110409523D02*
X130166666Y-110409523D01*
X130309523Y-110457142D01*
X130404761Y-110552380D01*
X130452380Y-110695238D01*
X130452380Y-110790476D01*
X129547619Y-109980952D02*
X129500000Y-109933333D01*
X129452380Y-109838095D01*
X129452380Y-109600000D01*
X129500000Y-109504761D01*
X129547619Y-109457142D01*
X129642857Y-109409523D01*
X129738095Y-109409523D01*
X129880952Y-109457142D01*
X130452380Y-110028571D01*
X130452380Y-109409523D01*
X129452380Y-109076190D02*
X129452380Y-108457142D01*
X129833333Y-108790476D01*
X129833333Y-108647619D01*
X129880952Y-108552380D01*
X129928571Y-108504761D01*
X130023809Y-108457142D01*
X130261904Y-108457142D01*
X130357142Y-108504761D01*
X130404761Y-108552380D01*
X130452380Y-108647619D01*
X130452380Y-108933333D01*
X130404761Y-109028571D01*
X130357142Y-109076190D01*
X89614761Y-115717619D02*
X89519523Y-115670000D01*
X89424285Y-115574761D01*
X89281428Y-115431904D01*
X89186190Y-115384285D01*
X89090952Y-115384285D01*
X89138571Y-115622380D02*
X89043333Y-115574761D01*
X88948095Y-115479523D01*
X88900476Y-115289047D01*
X88900476Y-114955714D01*
X88948095Y-114765238D01*
X89043333Y-114670000D01*
X89138571Y-114622380D01*
X89329047Y-114622380D01*
X89424285Y-114670000D01*
X89519523Y-114765238D01*
X89567142Y-114955714D01*
X89567142Y-115289047D01*
X89519523Y-115479523D01*
X89424285Y-115574761D01*
X89329047Y-115622380D01*
X89138571Y-115622380D01*
X89900476Y-114622380D02*
X90519523Y-114622380D01*
X90186190Y-115003333D01*
X90329047Y-115003333D01*
X90424285Y-115050952D01*
X90471904Y-115098571D01*
X90519523Y-115193809D01*
X90519523Y-115431904D01*
X90471904Y-115527142D01*
X90424285Y-115574761D01*
X90329047Y-115622380D01*
X90043333Y-115622380D01*
X89948095Y-115574761D01*
X89900476Y-115527142D01*
X98528095Y-105762380D02*
X98528095Y-106571904D01*
X98575714Y-106667142D01*
X98623333Y-106714761D01*
X98718571Y-106762380D01*
X98909047Y-106762380D01*
X99004285Y-106714761D01*
X99051904Y-106667142D01*
X99099523Y-106571904D01*
X99099523Y-105762380D01*
X99480476Y-105762380D02*
X100099523Y-105762380D01*
X99766190Y-106143333D01*
X99909047Y-106143333D01*
X100004285Y-106190952D01*
X100051904Y-106238571D01*
X100099523Y-106333809D01*
X100099523Y-106571904D01*
X100051904Y-106667142D01*
X100004285Y-106714761D01*
X99909047Y-106762380D01*
X99623333Y-106762380D01*
X99528095Y-106714761D01*
X99480476Y-106667142D01*
X98520261Y-116498619D02*
X98425023Y-116451000D01*
X98329785Y-116355761D01*
X98186928Y-116212904D01*
X98091690Y-116165285D01*
X97996452Y-116165285D01*
X98044071Y-116403380D02*
X97948833Y-116355761D01*
X97853595Y-116260523D01*
X97805976Y-116070047D01*
X97805976Y-115736714D01*
X97853595Y-115546238D01*
X97948833Y-115451000D01*
X98044071Y-115403380D01*
X98234547Y-115403380D01*
X98329785Y-115451000D01*
X98425023Y-115546238D01*
X98472642Y-115736714D01*
X98472642Y-116070047D01*
X98425023Y-116260523D01*
X98329785Y-116355761D01*
X98234547Y-116403380D01*
X98044071Y-116403380D01*
X99377404Y-115403380D02*
X98901214Y-115403380D01*
X98853595Y-115879571D01*
X98901214Y-115831952D01*
X98996452Y-115784333D01*
X99234547Y-115784333D01*
X99329785Y-115831952D01*
X99377404Y-115879571D01*
X99425023Y-115974809D01*
X99425023Y-116212904D01*
X99377404Y-116308142D01*
X99329785Y-116355761D01*
X99234547Y-116403380D01*
X98996452Y-116403380D01*
X98901214Y-116355761D01*
X98853595Y-116308142D01*
X92527380Y-115412757D02*
X92051190Y-115746090D01*
X92527380Y-115984185D02*
X91527380Y-115984185D01*
X91527380Y-115603233D01*
X91575000Y-115507995D01*
X91622619Y-115460376D01*
X91717857Y-115412757D01*
X91860714Y-115412757D01*
X91955952Y-115460376D01*
X92003571Y-115507995D01*
X92051190Y-115603233D01*
X92051190Y-115984185D01*
X92527380Y-114460376D02*
X92527380Y-115031804D01*
X92527380Y-114746090D02*
X91527380Y-114746090D01*
X91670238Y-114841328D01*
X91765476Y-114936566D01*
X91813095Y-115031804D01*
X91622619Y-114079423D02*
X91575000Y-114031804D01*
X91527380Y-113936566D01*
X91527380Y-113698471D01*
X91575000Y-113603233D01*
X91622619Y-113555614D01*
X91717857Y-113507995D01*
X91813095Y-113507995D01*
X91955952Y-113555614D01*
X92527380Y-114127042D01*
X92527380Y-113507995D01*
X92829142Y-119781580D02*
X92495809Y-119305390D01*
X92257714Y-119781580D02*
X92257714Y-118781580D01*
X92638666Y-118781580D01*
X92733904Y-118829200D01*
X92781523Y-118876819D01*
X92829142Y-118972057D01*
X92829142Y-119114914D01*
X92781523Y-119210152D01*
X92733904Y-119257771D01*
X92638666Y-119305390D01*
X92257714Y-119305390D01*
X93686285Y-118781580D02*
X93495809Y-118781580D01*
X93400571Y-118829200D01*
X93352952Y-118876819D01*
X93257714Y-119019676D01*
X93210095Y-119210152D01*
X93210095Y-119591104D01*
X93257714Y-119686342D01*
X93305333Y-119733961D01*
X93400571Y-119781580D01*
X93591047Y-119781580D01*
X93686285Y-119733961D01*
X93733904Y-119686342D01*
X93781523Y-119591104D01*
X93781523Y-119353009D01*
X93733904Y-119257771D01*
X93686285Y-119210152D01*
X93591047Y-119162533D01*
X93400571Y-119162533D01*
X93305333Y-119210152D01*
X93257714Y-119257771D01*
X93210095Y-119353009D01*
X94257714Y-119781580D02*
X94448190Y-119781580D01*
X94543428Y-119733961D01*
X94591047Y-119686342D01*
X94686285Y-119543485D01*
X94733904Y-119353009D01*
X94733904Y-118972057D01*
X94686285Y-118876819D01*
X94638666Y-118829200D01*
X94543428Y-118781580D01*
X94352952Y-118781580D01*
X94257714Y-118829200D01*
X94210095Y-118876819D01*
X94162476Y-118972057D01*
X94162476Y-119210152D01*
X94210095Y-119305390D01*
X94257714Y-119353009D01*
X94352952Y-119400628D01*
X94543428Y-119400628D01*
X94638666Y-119353009D01*
X94686285Y-119305390D01*
X94733904Y-119210152D01*
D12*
X95284171Y-100619690D02*
X95117504Y-100381595D01*
X94998457Y-100619690D02*
X94998457Y-100119690D01*
X95188933Y-100119690D01*
X95236552Y-100143500D01*
X95260361Y-100167309D01*
X95284171Y-100214928D01*
X95284171Y-100286357D01*
X95260361Y-100333976D01*
X95236552Y-100357785D01*
X95188933Y-100381595D01*
X94998457Y-100381595D01*
X95736552Y-100119690D02*
X95498457Y-100119690D01*
X95474647Y-100357785D01*
X95498457Y-100333976D01*
X95546076Y-100310166D01*
X95665123Y-100310166D01*
X95712742Y-100333976D01*
X95736552Y-100357785D01*
X95760361Y-100405404D01*
X95760361Y-100524452D01*
X95736552Y-100572071D01*
X95712742Y-100595880D01*
X95665123Y-100619690D01*
X95546076Y-100619690D01*
X95498457Y-100595880D01*
X95474647Y-100572071D01*
X96236552Y-100619690D02*
X95950838Y-100619690D01*
X96093695Y-100619690D02*
X96093695Y-100119690D01*
X96046076Y-100191119D01*
X95998457Y-100238738D01*
X95950838Y-100262547D01*
D10*
X107572380Y-114267857D02*
X107096190Y-114601190D01*
X107572380Y-114839285D02*
X106572380Y-114839285D01*
X106572380Y-114458333D01*
X106620000Y-114363095D01*
X106667619Y-114315476D01*
X106762857Y-114267857D01*
X106905714Y-114267857D01*
X107000952Y-114315476D01*
X107048571Y-114363095D01*
X107096190Y-114458333D01*
X107096190Y-114839285D01*
X106572380Y-113934523D02*
X106572380Y-113315476D01*
X106953333Y-113648809D01*
X106953333Y-113505952D01*
X107000952Y-113410714D01*
X107048571Y-113363095D01*
X107143809Y-113315476D01*
X107381904Y-113315476D01*
X107477142Y-113363095D01*
X107524761Y-113410714D01*
X107572380Y-113505952D01*
X107572380Y-113791666D01*
X107524761Y-113886904D01*
X107477142Y-113934523D01*
X106572380Y-112982142D02*
X106572380Y-112315476D01*
X107572380Y-112744047D01*
X83560342Y-77802042D02*
X83512723Y-77849661D01*
X83369866Y-77897280D01*
X83274628Y-77897280D01*
X83131771Y-77849661D01*
X83036533Y-77754423D01*
X82988914Y-77659185D01*
X82941295Y-77468709D01*
X82941295Y-77325852D01*
X82988914Y-77135376D01*
X83036533Y-77040138D01*
X83131771Y-76944900D01*
X83274628Y-76897280D01*
X83369866Y-76897280D01*
X83512723Y-76944900D01*
X83560342Y-76992519D01*
X84512723Y-77897280D02*
X83941295Y-77897280D01*
X84227009Y-77897280D02*
X84227009Y-76897280D01*
X84131771Y-77040138D01*
X84036533Y-77135376D01*
X83941295Y-77182995D01*
X84988914Y-77897280D02*
X85179390Y-77897280D01*
X85274628Y-77849661D01*
X85322247Y-77802042D01*
X85417485Y-77659185D01*
X85465104Y-77468709D01*
X85465104Y-77087757D01*
X85417485Y-76992519D01*
X85369866Y-76944900D01*
X85274628Y-76897280D01*
X85084152Y-76897280D01*
X84988914Y-76944900D01*
X84941295Y-76992519D01*
X84893676Y-77087757D01*
X84893676Y-77325852D01*
X84941295Y-77421090D01*
X84988914Y-77468709D01*
X85084152Y-77516328D01*
X85274628Y-77516328D01*
X85369866Y-77468709D01*
X85417485Y-77421090D01*
X85465104Y-77325852D01*
X88928542Y-77827442D02*
X88880923Y-77875061D01*
X88738066Y-77922680D01*
X88642828Y-77922680D01*
X88499971Y-77875061D01*
X88404733Y-77779823D01*
X88357114Y-77684585D01*
X88309495Y-77494109D01*
X88309495Y-77351252D01*
X88357114Y-77160776D01*
X88404733Y-77065538D01*
X88499971Y-76970300D01*
X88642828Y-76922680D01*
X88738066Y-76922680D01*
X88880923Y-76970300D01*
X88928542Y-77017919D01*
X89309495Y-77017919D02*
X89357114Y-76970300D01*
X89452352Y-76922680D01*
X89690447Y-76922680D01*
X89785685Y-76970300D01*
X89833304Y-77017919D01*
X89880923Y-77113157D01*
X89880923Y-77208395D01*
X89833304Y-77351252D01*
X89261876Y-77922680D01*
X89880923Y-77922680D01*
X90261876Y-77017919D02*
X90309495Y-76970300D01*
X90404733Y-76922680D01*
X90642828Y-76922680D01*
X90738066Y-76970300D01*
X90785685Y-77017919D01*
X90833304Y-77113157D01*
X90833304Y-77208395D01*
X90785685Y-77351252D01*
X90214257Y-77922680D01*
X90833304Y-77922680D01*
X110207142Y-113507142D02*
X110159523Y-113554761D01*
X110016666Y-113602380D01*
X109921428Y-113602380D01*
X109778571Y-113554761D01*
X109683333Y-113459523D01*
X109635714Y-113364285D01*
X109588095Y-113173809D01*
X109588095Y-113030952D01*
X109635714Y-112840476D01*
X109683333Y-112745238D01*
X109778571Y-112650000D01*
X109921428Y-112602380D01*
X110016666Y-112602380D01*
X110159523Y-112650000D01*
X110207142Y-112697619D01*
X110588095Y-112697619D02*
X110635714Y-112650000D01*
X110730952Y-112602380D01*
X110969047Y-112602380D01*
X111064285Y-112650000D01*
X111111904Y-112697619D01*
X111159523Y-112792857D01*
X111159523Y-112888095D01*
X111111904Y-113030952D01*
X110540476Y-113602380D01*
X111159523Y-113602380D01*
X111635714Y-113602380D02*
X111826190Y-113602380D01*
X111921428Y-113554761D01*
X111969047Y-113507142D01*
X112064285Y-113364285D01*
X112111904Y-113173809D01*
X112111904Y-112792857D01*
X112064285Y-112697619D01*
X112016666Y-112650000D01*
X111921428Y-112602380D01*
X111730952Y-112602380D01*
X111635714Y-112650000D01*
X111588095Y-112697619D01*
X111540476Y-112792857D01*
X111540476Y-113030952D01*
X111588095Y-113126190D01*
X111635714Y-113173809D01*
X111730952Y-113221428D01*
X111921428Y-113221428D01*
X112016666Y-113173809D01*
X112064285Y-113126190D01*
X112111904Y-113030952D01*
D16*
X94561523Y-108733380D02*
X93291523Y-108733380D01*
X93291523Y-108431000D01*
X93352000Y-108249571D01*
X93472952Y-108128619D01*
X93593904Y-108068142D01*
X93835809Y-108007666D01*
X94017238Y-108007666D01*
X94259142Y-108068142D01*
X94380095Y-108128619D01*
X94501047Y-108249571D01*
X94561523Y-108431000D01*
X94561523Y-108733380D01*
X93291523Y-106919095D02*
X93291523Y-107161000D01*
X93352000Y-107281952D01*
X93412476Y-107342428D01*
X93593904Y-107463380D01*
X93835809Y-107523857D01*
X94319619Y-107523857D01*
X94440571Y-107463380D01*
X94501047Y-107402904D01*
X94561523Y-107281952D01*
X94561523Y-107040047D01*
X94501047Y-106919095D01*
X94440571Y-106858619D01*
X94319619Y-106798142D01*
X94017238Y-106798142D01*
X93896285Y-106858619D01*
X93835809Y-106919095D01*
X93775333Y-107040047D01*
X93775333Y-107281952D01*
X93835809Y-107402904D01*
X93896285Y-107463380D01*
X94017238Y-107523857D01*
X87442523Y-75788761D02*
X86172523Y-75788761D01*
X87321571Y-74458285D02*
X87382047Y-74518761D01*
X87442523Y-74700190D01*
X87442523Y-74821142D01*
X87382047Y-75002571D01*
X87261095Y-75123523D01*
X87140142Y-75184000D01*
X86898238Y-75244476D01*
X86716809Y-75244476D01*
X86474904Y-75184000D01*
X86353952Y-75123523D01*
X86233000Y-75002571D01*
X86172523Y-74821142D01*
X86172523Y-74700190D01*
X86233000Y-74518761D01*
X86293476Y-74458285D01*
X86595857Y-73369714D02*
X87442523Y-73369714D01*
X86112047Y-73672095D02*
X87019190Y-73974476D01*
X87019190Y-73188285D01*
D10*
X128252380Y-121833333D02*
X128966666Y-121833333D01*
X129109523Y-121880952D01*
X129204761Y-121976190D01*
X129252380Y-122119047D01*
X129252380Y-122214285D01*
X128680952Y-121214285D02*
X128633333Y-121309523D01*
X128585714Y-121357142D01*
X128490476Y-121404761D01*
X128442857Y-121404761D01*
X128347619Y-121357142D01*
X128300000Y-121309523D01*
X128252380Y-121214285D01*
X128252380Y-121023809D01*
X128300000Y-120928571D01*
X128347619Y-120880952D01*
X128442857Y-120833333D01*
X128490476Y-120833333D01*
X128585714Y-120880952D01*
X128633333Y-120928571D01*
X128680952Y-121023809D01*
X128680952Y-121214285D01*
X128728571Y-121309523D01*
X128776190Y-121357142D01*
X128871428Y-121404761D01*
X129061904Y-121404761D01*
X129157142Y-121357142D01*
X129204761Y-121309523D01*
X129252380Y-121214285D01*
X129252380Y-121023809D01*
X129204761Y-120928571D01*
X129157142Y-120880952D01*
X129061904Y-120833333D01*
X128871428Y-120833333D01*
X128776190Y-120880952D01*
X128728571Y-120928571D01*
X128680952Y-121023809D01*
M02*
