%FSLAX45Y45*%
G04 Gerber Fmt 4.5, Leading zero omitted, Abs format (unit mm)*
G04 Created by KiCad (PCBNEW (5.1.6)-1) date 2021-05-13 15:09:36*
%MOMM*%
%LPD*%
G01*
G04 APERTURE LIST*
%TA.AperFunction,Profile*%
%ADD10C,0.100000*%
%TD*%
%ADD11C,0.200000*%
%ADD12C,0.300000*%
G04 APERTURE END LIST*
D10*
X7829400Y-6564040D02*
X12829400Y-6564040D01*
X7829400Y-6564040D02*
G75*
G03*
X7529400Y-6864040I0J-300000D01*
G01*
X11229400Y-8414040D02*
X12729400Y-8414040D01*
X7829400Y-13064040D02*
X12829400Y-13064040D01*
X12829400Y-13064040D02*
G75*
G03*
X13129400Y-12764040I0J300000D01*
G01*
X13129400Y-6864040D02*
G75*
G03*
X12829400Y-6564040I-300000J0D01*
G01*
X11229400Y-8414040D02*
G75*
G03*
X11229400Y-8614040I0J-100000D01*
G01*
X11229400Y-8614040D02*
X12729400Y-8614040D01*
X12729400Y-8414040D02*
G75*
G02*
X12729400Y-8614040I0J-100000D01*
G01*
X13129400Y-12764040D02*
X13129400Y-6864040D01*
X7529400Y-12764040D02*
G75*
G03*
X7829400Y-13064040I300000J0D01*
G01*
X7529400Y-12764040D02*
X7529400Y-6864040D01*
D11*
X8256500Y-10374900D02*
X8276700Y-10395100D01*
X8276700Y-10374900D02*
X8256500Y-10395100D01*
X8321900Y-10373900D02*
X8342100Y-10394100D01*
X8342100Y-10373900D02*
X8321900Y-10394100D01*
X8372900Y-10323900D02*
X8393100Y-10344100D01*
X8393100Y-10323900D02*
X8372900Y-10344100D01*
X8509900Y-11369900D02*
X8530100Y-11390100D01*
X8530100Y-11369900D02*
X8509900Y-11390100D01*
X8899900Y-12667500D02*
X8920100Y-12687700D01*
X8920100Y-12667500D02*
X8899900Y-12687700D01*
X8917667Y-11759163D02*
X8937867Y-11779363D01*
X8937867Y-11759163D02*
X8917667Y-11779363D01*
X8979900Y-11849900D02*
X9000100Y-11870100D01*
X9000100Y-11849900D02*
X8979900Y-11870100D01*
X9014900Y-9543012D02*
X9035100Y-9563212D01*
X9035100Y-9543012D02*
X9014900Y-9563212D01*
X9139900Y-10749900D02*
X9160100Y-10770100D01*
X9160100Y-10749900D02*
X9139900Y-10770100D01*
X9150900Y-11864900D02*
X9171100Y-11885100D01*
X9171100Y-11864900D02*
X9150900Y-11885100D01*
X9169900Y-10129900D02*
X9190100Y-10150100D01*
X9190100Y-10129900D02*
X9169900Y-10150100D01*
X9172400Y-11767400D02*
X9192600Y-11787600D01*
X9192600Y-11767400D02*
X9172400Y-11787600D01*
X9184900Y-7352900D02*
X9205100Y-7373100D01*
X9205100Y-7352900D02*
X9184900Y-7373100D01*
X9214900Y-10862400D02*
X9235100Y-10882600D01*
X9235100Y-10862400D02*
X9214900Y-10882600D01*
X9218900Y-9206900D02*
X9239100Y-9227100D01*
X9239100Y-9206900D02*
X9218900Y-9227100D01*
X9250900Y-12278900D02*
X9271100Y-12299100D01*
X9271100Y-12278900D02*
X9250900Y-12299100D01*
X9262900Y-10517900D02*
X9283100Y-10538100D01*
X9283100Y-10517900D02*
X9262900Y-10538100D01*
X9293742Y-11008558D02*
X9313942Y-11028758D01*
X9313942Y-11008558D02*
X9293742Y-11028758D01*
X9302400Y-10859900D02*
X9322600Y-10880100D01*
X9322600Y-10859900D02*
X9302400Y-10880100D01*
X9312400Y-12842400D02*
X9332600Y-12862600D01*
X9332600Y-12842400D02*
X9312400Y-12862600D01*
X9424900Y-10515000D02*
X9445100Y-10535200D01*
X9445100Y-10515000D02*
X9424900Y-10535200D01*
X9588900Y-11922900D02*
X9609100Y-11943100D01*
X9609100Y-11922900D02*
X9588900Y-11943100D01*
X9594000Y-9753900D02*
X9614200Y-9774100D01*
X9614200Y-9753900D02*
X9594000Y-9774100D01*
X9594000Y-9819900D02*
X9614200Y-9840100D01*
X9614200Y-9819900D02*
X9594000Y-9840100D01*
X9598900Y-7217900D02*
X9619100Y-7238100D01*
X9619100Y-7217900D02*
X9598900Y-7238100D01*
X9598900Y-7282800D02*
X9619100Y-7303000D01*
X9619100Y-7282800D02*
X9598900Y-7303000D01*
X9598900Y-7869900D02*
X9619100Y-7890100D01*
X9619100Y-7869900D02*
X9598900Y-7890100D01*
X9598900Y-7934800D02*
X9619100Y-7955000D01*
X9619100Y-7934800D02*
X9598900Y-7955000D01*
X9598900Y-9107900D02*
X9619100Y-9128100D01*
X9619100Y-9107900D02*
X9598900Y-9128100D01*
X9598900Y-9172800D02*
X9619100Y-9193000D01*
X9619100Y-9172800D02*
X9598900Y-9193000D01*
X9632900Y-8376900D02*
X9653100Y-8397100D01*
X9653100Y-8376900D02*
X9632900Y-8397100D01*
X9633900Y-8734900D02*
X9654100Y-8755100D01*
X9654100Y-8734900D02*
X9633900Y-8755100D01*
X9653700Y-12135002D02*
X9673900Y-12155202D01*
X9673900Y-12135002D02*
X9653700Y-12155202D01*
X9653700Y-12659900D02*
X9673900Y-12680100D01*
X9673900Y-12659900D02*
X9653700Y-12680100D01*
X9653700Y-12899900D02*
X9673900Y-12920100D01*
X9673900Y-12899900D02*
X9653700Y-12920100D01*
X9658900Y-9753900D02*
X9679100Y-9774100D01*
X9679100Y-9753900D02*
X9658900Y-9774100D01*
X9658900Y-9819900D02*
X9679100Y-9840100D01*
X9679100Y-9819900D02*
X9658900Y-9840100D01*
X9664900Y-7217900D02*
X9685100Y-7238100D01*
X9685100Y-7217900D02*
X9664900Y-7238100D01*
X9664900Y-7282800D02*
X9685100Y-7303000D01*
X9685100Y-7282800D02*
X9664900Y-7303000D01*
X9664900Y-7869900D02*
X9685100Y-7890100D01*
X9685100Y-7869900D02*
X9664900Y-7890100D01*
X9664900Y-7934800D02*
X9685100Y-7955000D01*
X9685100Y-7934800D02*
X9664900Y-7955000D01*
X9664900Y-9107900D02*
X9685100Y-9128100D01*
X9685100Y-9107900D02*
X9664900Y-9128100D01*
X9664900Y-9172800D02*
X9685100Y-9193000D01*
X9685100Y-9172800D02*
X9664900Y-9193000D01*
X9682900Y-7347900D02*
X9703100Y-7368100D01*
X9703100Y-7347900D02*
X9682900Y-7368100D01*
X9682900Y-7411900D02*
X9703100Y-7432100D01*
X9703100Y-7411900D02*
X9682900Y-7432100D01*
X9682900Y-7477900D02*
X9703100Y-7498100D01*
X9703100Y-7477900D02*
X9682900Y-7498100D01*
X9682900Y-7542900D02*
X9703100Y-7563100D01*
X9703100Y-7542900D02*
X9682900Y-7563100D01*
X9682900Y-7671900D02*
X9703100Y-7692100D01*
X9703100Y-7671900D02*
X9682900Y-7692100D01*
X9682900Y-7737900D02*
X9703100Y-7758100D01*
X9703100Y-7737900D02*
X9682900Y-7758100D01*
X9682900Y-7802900D02*
X9703100Y-7823100D01*
X9703100Y-7802900D02*
X9682900Y-7823100D01*
X9682900Y-9234900D02*
X9703100Y-9255100D01*
X9703100Y-9234900D02*
X9682900Y-9255100D01*
X9682900Y-9299900D02*
X9703100Y-9320100D01*
X9703100Y-9299900D02*
X9682900Y-9320100D01*
X9682900Y-9364900D02*
X9703100Y-9385100D01*
X9703100Y-9364900D02*
X9682900Y-9385100D01*
X9682900Y-9429900D02*
X9703100Y-9450100D01*
X9703100Y-9429900D02*
X9682900Y-9450100D01*
X9682900Y-9559900D02*
X9703100Y-9580100D01*
X9703100Y-9559900D02*
X9682900Y-9580100D01*
X9682900Y-9625900D02*
X9703100Y-9646100D01*
X9703100Y-9625900D02*
X9682900Y-9646100D01*
X9682900Y-9689900D02*
X9703100Y-9710100D01*
X9703100Y-9689900D02*
X9682900Y-9710100D01*
X9718900Y-12286900D02*
X9739100Y-12307100D01*
X9739100Y-12286900D02*
X9718900Y-12307100D01*
X9858650Y-10873400D02*
X9878850Y-10893600D01*
X9878850Y-10873400D02*
X9858650Y-10893600D01*
X9858650Y-10921150D02*
X9878850Y-10941350D01*
X9878850Y-10921150D02*
X9858650Y-10941350D01*
X9858650Y-10971150D02*
X9878850Y-10991350D01*
X9878850Y-10971150D02*
X9858650Y-10991350D01*
X9858650Y-11021150D02*
X9878850Y-11041350D01*
X9878850Y-11021150D02*
X9858650Y-11041350D01*
X9869900Y-11609900D02*
X9890100Y-11630100D01*
X9890100Y-11609900D02*
X9869900Y-11630100D01*
X9874969Y-8904799D02*
X9895169Y-8924999D01*
X9895169Y-8904799D02*
X9874969Y-8924999D01*
X9875900Y-8839900D02*
X9896100Y-8860100D01*
X9896100Y-8839900D02*
X9875900Y-8860100D01*
X9985250Y-10874550D02*
X10005450Y-10894750D01*
X10005450Y-10874550D02*
X9985250Y-10894750D01*
X9985250Y-10924550D02*
X10005450Y-10944750D01*
X10005450Y-10924550D02*
X9985250Y-10944750D01*
X9985250Y-10974550D02*
X10005450Y-10994750D01*
X10005450Y-10974550D02*
X9985250Y-10994750D01*
X9985250Y-11024550D02*
X10005450Y-11044750D01*
X10005450Y-11024550D02*
X9985250Y-11044750D01*
X10089900Y-12659900D02*
X10110100Y-12680100D01*
X10110100Y-12659900D02*
X10089900Y-12680100D01*
X10089900Y-12899900D02*
X10110100Y-12920100D01*
X10110100Y-12899900D02*
X10089900Y-12920100D01*
X10219900Y-6881900D02*
X10240100Y-6902100D01*
X10240100Y-6881900D02*
X10219900Y-6902100D01*
X10259900Y-11309900D02*
X10280100Y-11330100D01*
X10280100Y-11309900D02*
X10259900Y-11330100D01*
X10440188Y-9611496D02*
X10460388Y-9631696D01*
X10460388Y-9611496D02*
X10440188Y-9631696D01*
X10443900Y-9749900D02*
X10464100Y-9770100D01*
X10464100Y-9749900D02*
X10443900Y-9770100D01*
X10452900Y-7735900D02*
X10473100Y-7756100D01*
X10473100Y-7735900D02*
X10452900Y-7756100D01*
X10453900Y-7865000D02*
X10474100Y-7885200D01*
X10474100Y-7865000D02*
X10453900Y-7885200D01*
X10460694Y-7922041D02*
X10480894Y-7942241D01*
X10480894Y-7922041D02*
X10460694Y-7942241D01*
X10466867Y-9803867D02*
X10487067Y-9824067D01*
X10487067Y-9803867D02*
X10466867Y-9824067D01*
X10484900Y-8527900D02*
X10505100Y-8548100D01*
X10505100Y-8527900D02*
X10484900Y-8548100D01*
X10527150Y-9692900D02*
X10547350Y-9713100D01*
X10547350Y-9692900D02*
X10527150Y-9713100D01*
X10542900Y-7279900D02*
X10563100Y-7300100D01*
X10563100Y-7279900D02*
X10542900Y-7300100D01*
X10542900Y-7344800D02*
X10563100Y-7365000D01*
X10563100Y-7344800D02*
X10542900Y-7365000D01*
X10542900Y-7931900D02*
X10563100Y-7952100D01*
X10563100Y-7931900D02*
X10542900Y-7952100D01*
X10542900Y-7996800D02*
X10563100Y-8017000D01*
X10563100Y-7996800D02*
X10542900Y-8017000D01*
X10542900Y-9170000D02*
X10563100Y-9190200D01*
X10563100Y-9170000D02*
X10542900Y-9190200D01*
X10542900Y-9235900D02*
X10563100Y-9256100D01*
X10563100Y-9235900D02*
X10542900Y-9256100D01*
X10542900Y-9819900D02*
X10563100Y-9840100D01*
X10563100Y-9819900D02*
X10542900Y-9840100D01*
X10542900Y-9884800D02*
X10563100Y-9905000D01*
X10563100Y-9884800D02*
X10542900Y-9905000D01*
X10607900Y-9170000D02*
X10628100Y-9190200D01*
X10628100Y-9170000D02*
X10607900Y-9190200D01*
X10608900Y-7279900D02*
X10629100Y-7300100D01*
X10629100Y-7279900D02*
X10608900Y-7300100D01*
X10608900Y-7344800D02*
X10629100Y-7365000D01*
X10629100Y-7344800D02*
X10608900Y-7365000D01*
X10608900Y-7931900D02*
X10629100Y-7952100D01*
X10629100Y-7931900D02*
X10608900Y-7952100D01*
X10608900Y-7996800D02*
X10629100Y-8017000D01*
X10629100Y-7996800D02*
X10608900Y-8017000D01*
X10608900Y-9235900D02*
X10629100Y-9256100D01*
X10629100Y-9235900D02*
X10608900Y-9256100D01*
X10608900Y-9819900D02*
X10629100Y-9840100D01*
X10629100Y-9819900D02*
X10608900Y-9840100D01*
X10608900Y-9884800D02*
X10629100Y-9905000D01*
X10629100Y-9884800D02*
X10608900Y-9905000D01*
X10613900Y-8526900D02*
X10634100Y-8547100D01*
X10634100Y-8526900D02*
X10613900Y-8547100D01*
X10616900Y-8872900D02*
X10637100Y-8893100D01*
X10637100Y-8872900D02*
X10616900Y-8893100D01*
X10640900Y-7763900D02*
X10661100Y-7784100D01*
X10661100Y-7763900D02*
X10640900Y-7784100D01*
X10699900Y-11129900D02*
X10720100Y-11150100D01*
X10720100Y-11129900D02*
X10699900Y-11150100D01*
X10789900Y-11849900D02*
X10810100Y-11870100D01*
X10810100Y-11849900D02*
X10789900Y-11870100D01*
X10863900Y-8693900D02*
X10884100Y-8714100D01*
X10884100Y-8693900D02*
X10863900Y-8714100D01*
X10867300Y-8406900D02*
X10887500Y-8427100D01*
X10887500Y-8406900D02*
X10867300Y-8427100D01*
X10929900Y-11489900D02*
X10950100Y-11510100D01*
X10950100Y-11489900D02*
X10929900Y-11510100D01*
X11009900Y-10175502D02*
X11030100Y-10195702D01*
X11030100Y-10175502D02*
X11009900Y-10195702D01*
X11099900Y-10519900D02*
X11120100Y-10540100D01*
X11120100Y-10519900D02*
X11099900Y-10540100D01*
X11109900Y-10769900D02*
X11130100Y-10790100D01*
X11130100Y-10769900D02*
X11109900Y-10790100D01*
X11159900Y-10769900D02*
X11180100Y-10790100D01*
X11180100Y-10769900D02*
X11159900Y-10790100D01*
X11169900Y-11129900D02*
X11190100Y-11150100D01*
X11190100Y-11129900D02*
X11169900Y-11150100D01*
X11182900Y-9887900D02*
X11203100Y-9908100D01*
X11203100Y-9887900D02*
X11182900Y-9908100D01*
X11189900Y-9779900D02*
X11210100Y-9800100D01*
X11210100Y-9779900D02*
X11189900Y-9800100D01*
X11209900Y-10769900D02*
X11230100Y-10790100D01*
X11230100Y-10769900D02*
X11209900Y-10790100D01*
X11259900Y-10769900D02*
X11280100Y-10790100D01*
X11280100Y-10769900D02*
X11259900Y-10790100D01*
X11309900Y-10769900D02*
X11330100Y-10790100D01*
X11330100Y-10769900D02*
X11309900Y-10790100D01*
X11389900Y-9519900D02*
X11410100Y-9540100D01*
X11410100Y-9519900D02*
X11389900Y-9540100D01*
X11440000Y-10849900D02*
X11460200Y-10870100D01*
X11460200Y-10849900D02*
X11440000Y-10870100D01*
X11489900Y-11149900D02*
X11510100Y-11170100D01*
X11510100Y-11149900D02*
X11489900Y-11170100D01*
X11519900Y-10469900D02*
X11540100Y-10490100D01*
X11540100Y-10469900D02*
X11519900Y-10490100D01*
X11522900Y-10610900D02*
X11543100Y-10631100D01*
X11543100Y-10610900D02*
X11522900Y-10631100D01*
X11529900Y-10993900D02*
X11550100Y-11014100D01*
X11550100Y-10993900D02*
X11529900Y-11014100D01*
X11779900Y-10564800D02*
X11800100Y-10585000D01*
X11800100Y-10564800D02*
X11779900Y-10585000D01*
X11931900Y-10991900D02*
X11952100Y-11012100D01*
X11952100Y-10991900D02*
X11931900Y-11012100D01*
X12037900Y-11059900D02*
X12058100Y-11080100D01*
X12058100Y-11059900D02*
X12037900Y-11080100D01*
X12064900Y-10227400D02*
X12085100Y-10247600D01*
X12085100Y-10227400D02*
X12064900Y-10247600D01*
X12161900Y-11298900D02*
X12182100Y-11319100D01*
X12182100Y-11298900D02*
X12161900Y-11319100D01*
X12214900Y-11419900D02*
X12235100Y-11440100D01*
X12235100Y-11419900D02*
X12214900Y-11440100D01*
X12228900Y-11293999D02*
X12249100Y-11314199D01*
X12249100Y-11293999D02*
X12228900Y-11314199D01*
X12285900Y-11293999D02*
X12306100Y-11314199D01*
X12306100Y-11293999D02*
X12285900Y-11314199D01*
X12330900Y-12762900D02*
X12351100Y-12783100D01*
X12351100Y-12762900D02*
X12330900Y-12783100D01*
X12341900Y-10194900D02*
X12362100Y-10215100D01*
X12362100Y-10194900D02*
X12341900Y-10215100D01*
X12469900Y-12303900D02*
X12490100Y-12324100D01*
X12490100Y-12303900D02*
X12469900Y-12324100D01*
X12498900Y-10503900D02*
X12519100Y-10524100D01*
X12519100Y-10503900D02*
X12498900Y-10524100D01*
X12518900Y-12261900D02*
X12539100Y-12282100D01*
X12539100Y-12261900D02*
X12518900Y-12282100D01*
X12534900Y-11060900D02*
X12555100Y-11081100D01*
X12555100Y-11060900D02*
X12534900Y-11081100D01*
X12534900Y-11116100D02*
X12555100Y-11136300D01*
X12555100Y-11116100D02*
X12534900Y-11136300D01*
X12541900Y-10312900D02*
X12562100Y-10333100D01*
X12562100Y-10312900D02*
X12541900Y-10333100D01*
X12560222Y-12225300D02*
X12580422Y-12245500D01*
X12580422Y-12225300D02*
X12560222Y-12245500D01*
X12570212Y-10743900D02*
X12590412Y-10764100D01*
X12590412Y-10743900D02*
X12570212Y-10764100D01*
X12655900Y-10505900D02*
X12676100Y-10526100D01*
X12676100Y-10505900D02*
X12655900Y-10526100D01*
X12797929Y-11000793D02*
X12818129Y-11020993D01*
X12818129Y-11000793D02*
X12797929Y-11020993D01*
X12816900Y-11115100D02*
X12837100Y-11135300D01*
X12837100Y-11115100D02*
X12816900Y-11135300D01*
X12816900Y-11267500D02*
X12837100Y-11287700D01*
X12837100Y-11267500D02*
X12816900Y-11287700D01*
X12816900Y-11419900D02*
X12837100Y-11440100D01*
X12837100Y-11419900D02*
X12816900Y-11440100D01*
X12895650Y-10927150D02*
X12915850Y-10947350D01*
X12915850Y-10927150D02*
X12895650Y-10947350D01*
X7669400Y-7197452D02*
G75*
G03*
X7669400Y-7197452I-15000J0D01*
G01*
X7669400Y-12397452D02*
G75*
G03*
X7669400Y-12397452I-15000J0D01*
G01*
X8124400Y-7197452D02*
G75*
G03*
X8124400Y-7197452I-15000J0D01*
G01*
X8189400Y-6742452D02*
G75*
G03*
X8189400Y-6742452I-15000J0D01*
G01*
X8189400Y-7067452D02*
G75*
G03*
X8189400Y-7067452I-15000J0D01*
G01*
X8189400Y-7587452D02*
G75*
G03*
X8189400Y-7587452I-15000J0D01*
G01*
X8189400Y-9017452D02*
G75*
G03*
X8189400Y-9017452I-15000J0D01*
G01*
X8189400Y-9212452D02*
G75*
G03*
X8189400Y-9212452I-15000J0D01*
G01*
X8189400Y-9927452D02*
G75*
G03*
X8189400Y-9927452I-15000J0D01*
G01*
X8189400Y-12917452D02*
G75*
G03*
X8189400Y-12917452I-15000J0D01*
G01*
X8254400Y-6872452D02*
G75*
G03*
X8254400Y-6872452I-15000J0D01*
G01*
X8254400Y-7262452D02*
G75*
G03*
X8254400Y-7262452I-15000J0D01*
G01*
X8254400Y-9732452D02*
G75*
G03*
X8254400Y-9732452I-15000J0D01*
G01*
X8254400Y-12787452D02*
G75*
G03*
X8254400Y-12787452I-15000J0D01*
G01*
X8275000Y-7480000D02*
G75*
G03*
X8275000Y-7480000I-15000J0D01*
G01*
X8304198Y-8539000D02*
G75*
G03*
X8304198Y-8539000I-15000J0D01*
G01*
X8319400Y-6677452D02*
G75*
G03*
X8319400Y-6677452I-15000J0D01*
G01*
X8319400Y-7002452D02*
G75*
G03*
X8319400Y-7002452I-15000J0D01*
G01*
X8319400Y-7782452D02*
G75*
G03*
X8319400Y-7782452I-15000J0D01*
G01*
X8319400Y-9862452D02*
G75*
G03*
X8319400Y-9862452I-15000J0D01*
G01*
X8384400Y-6807452D02*
G75*
G03*
X8384400Y-6807452I-15000J0D01*
G01*
X8384400Y-7132452D02*
G75*
G03*
X8384400Y-7132452I-15000J0D01*
G01*
X8384400Y-7587452D02*
G75*
G03*
X8384400Y-7587452I-15000J0D01*
G01*
X8449400Y-6937452D02*
G75*
G03*
X8449400Y-6937452I-15000J0D01*
G01*
X8514400Y-6677452D02*
G75*
G03*
X8514400Y-6677452I-15000J0D01*
G01*
X8514400Y-7327452D02*
G75*
G03*
X8514400Y-7327452I-15000J0D01*
G01*
X8579400Y-7587452D02*
G75*
G03*
X8579400Y-7587452I-15000J0D01*
G01*
X8579400Y-8042452D02*
G75*
G03*
X8579400Y-8042452I-15000J0D01*
G01*
X8579400Y-8497452D02*
G75*
G03*
X8579400Y-8497452I-15000J0D01*
G01*
X8644400Y-6742452D02*
G75*
G03*
X8644400Y-6742452I-15000J0D01*
G01*
X8644400Y-7717452D02*
G75*
G03*
X8644400Y-7717452I-15000J0D01*
G01*
X8644400Y-9342452D02*
G75*
G03*
X8644400Y-9342452I-15000J0D01*
G01*
X8709400Y-7067452D02*
G75*
G03*
X8709400Y-7067452I-15000J0D01*
G01*
X8709400Y-9017452D02*
G75*
G03*
X8709400Y-9017452I-15000J0D01*
G01*
X8730000Y-11642000D02*
G75*
G03*
X8730000Y-11642000I-15000J0D01*
G01*
X8774400Y-6677452D02*
G75*
G03*
X8774400Y-6677452I-15000J0D01*
G01*
X8774400Y-7587452D02*
G75*
G03*
X8774400Y-7587452I-15000J0D01*
G01*
X8802500Y-11067500D02*
G75*
G03*
X8802500Y-11067500I-15000J0D01*
G01*
X8802500Y-11325000D02*
G75*
G03*
X8802500Y-11325000I-15000J0D01*
G01*
X8803000Y-11687000D02*
G75*
G03*
X8803000Y-11687000I-15000J0D01*
G01*
X8805500Y-11194500D02*
G75*
G03*
X8805500Y-11194500I-15000J0D01*
G01*
X8839400Y-7327452D02*
G75*
G03*
X8839400Y-7327452I-15000J0D01*
G01*
X8839400Y-7717452D02*
G75*
G03*
X8839400Y-7717452I-15000J0D01*
G01*
X8839400Y-9082452D02*
G75*
G03*
X8839400Y-9082452I-15000J0D01*
G01*
X8904400Y-6742452D02*
G75*
G03*
X8904400Y-6742452I-15000J0D01*
G01*
X8904400Y-7067452D02*
G75*
G03*
X8904400Y-7067452I-15000J0D01*
G01*
X8904400Y-10252452D02*
G75*
G03*
X8904400Y-10252452I-15000J0D01*
G01*
X8969400Y-7587452D02*
G75*
G03*
X8969400Y-7587452I-15000J0D01*
G01*
X8969400Y-7782452D02*
G75*
G03*
X8969400Y-7782452I-15000J0D01*
G01*
X9032500Y-11325000D02*
G75*
G03*
X9032500Y-11325000I-15000J0D01*
G01*
X9033000Y-11199500D02*
G75*
G03*
X9033000Y-11199500I-15000J0D01*
G01*
X9034400Y-6677452D02*
G75*
G03*
X9034400Y-6677452I-15000J0D01*
G01*
X9034400Y-8042452D02*
G75*
G03*
X9034400Y-8042452I-15000J0D01*
G01*
X9034400Y-8497452D02*
G75*
G03*
X9034400Y-8497452I-15000J0D01*
G01*
X9034400Y-8952452D02*
G75*
G03*
X9034400Y-8952452I-15000J0D01*
G01*
X9034400Y-9342452D02*
G75*
G03*
X9034400Y-9342452I-15000J0D01*
G01*
X9035000Y-11070000D02*
G75*
G03*
X9035000Y-11070000I-15000J0D01*
G01*
X9099400Y-7652452D02*
G75*
G03*
X9099400Y-7652452I-15000J0D01*
G01*
X9099400Y-7847452D02*
G75*
G03*
X9099400Y-7847452I-15000J0D01*
G01*
X9099400Y-8172452D02*
G75*
G03*
X9099400Y-8172452I-15000J0D01*
G01*
X9099400Y-8367452D02*
G75*
G03*
X9099400Y-8367452I-15000J0D01*
G01*
X9099400Y-8627452D02*
G75*
G03*
X9099400Y-8627452I-15000J0D01*
G01*
X9099400Y-8822452D02*
G75*
G03*
X9099400Y-8822452I-15000J0D01*
G01*
X9099400Y-9082452D02*
G75*
G03*
X9099400Y-9082452I-15000J0D01*
G01*
X9099400Y-10057452D02*
G75*
G03*
X9099400Y-10057452I-15000J0D01*
G01*
X9099400Y-10577452D02*
G75*
G03*
X9099400Y-10577452I-15000J0D01*
G01*
X9155000Y-11676426D02*
G75*
G03*
X9155000Y-11676426I-15000J0D01*
G01*
X9164400Y-7977452D02*
G75*
G03*
X9164400Y-7977452I-15000J0D01*
G01*
X9164400Y-9602452D02*
G75*
G03*
X9164400Y-9602452I-15000J0D01*
G01*
X9217500Y-11510000D02*
G75*
G03*
X9217500Y-11510000I-15000J0D01*
G01*
X9227000Y-11109000D02*
G75*
G03*
X9227000Y-11109000I-15000J0D01*
G01*
X9229400Y-6677452D02*
G75*
G03*
X9229400Y-6677452I-15000J0D01*
G01*
X9255000Y-11676426D02*
G75*
G03*
X9255000Y-11676426I-15000J0D01*
G01*
X9355000Y-11676426D02*
G75*
G03*
X9355000Y-11676426I-15000J0D01*
G01*
X9359400Y-6742452D02*
G75*
G03*
X9359400Y-6742452I-15000J0D01*
G01*
X9359400Y-6937452D02*
G75*
G03*
X9359400Y-6937452I-15000J0D01*
G01*
X9359400Y-7522452D02*
G75*
G03*
X9359400Y-7522452I-15000J0D01*
G01*
X9359400Y-7912452D02*
G75*
G03*
X9359400Y-7912452I-15000J0D01*
G01*
X9359400Y-8107452D02*
G75*
G03*
X9359400Y-8107452I-15000J0D01*
G01*
X9359400Y-8302452D02*
G75*
G03*
X9359400Y-8302452I-15000J0D01*
G01*
X9359400Y-8822452D02*
G75*
G03*
X9359400Y-8822452I-15000J0D01*
G01*
X9359400Y-9017452D02*
G75*
G03*
X9359400Y-9017452I-15000J0D01*
G01*
X9619400Y-6872452D02*
G75*
G03*
X9619400Y-6872452I-15000J0D01*
G01*
X9619400Y-7067452D02*
G75*
G03*
X9619400Y-7067452I-15000J0D01*
G01*
X9684400Y-8887452D02*
G75*
G03*
X9684400Y-8887452I-15000J0D01*
G01*
X9749400Y-6937452D02*
G75*
G03*
X9749400Y-6937452I-15000J0D01*
G01*
X9879400Y-6872452D02*
G75*
G03*
X9879400Y-6872452I-15000J0D01*
G01*
X9891000Y-11350000D02*
G75*
G03*
X9891000Y-11350000I-15000J0D01*
G01*
X9891000Y-11435000D02*
G75*
G03*
X9891000Y-11435000I-15000J0D01*
G01*
X9944400Y-7002452D02*
G75*
G03*
X9944400Y-7002452I-15000J0D01*
G01*
X10074400Y-10642452D02*
G75*
G03*
X10074400Y-10642452I-15000J0D01*
G01*
X10269400Y-7002452D02*
G75*
G03*
X10269400Y-7002452I-15000J0D01*
G01*
X10269400Y-10252452D02*
G75*
G03*
X10269400Y-10252452I-15000J0D01*
G01*
X10269400Y-10642452D02*
G75*
G03*
X10269400Y-10642452I-15000J0D01*
G01*
X10321000Y-11576000D02*
G75*
G03*
X10321000Y-11576000I-15000J0D01*
G01*
X10334400Y-8757452D02*
G75*
G03*
X10334400Y-8757452I-15000J0D01*
G01*
X10399400Y-10707452D02*
G75*
G03*
X10399400Y-10707452I-15000J0D01*
G01*
X10415000Y-11800000D02*
G75*
G03*
X10415000Y-11800000I-15000J0D01*
G01*
X10464400Y-6677452D02*
G75*
G03*
X10464400Y-6677452I-15000J0D01*
G01*
X10475000Y-7019899D02*
G75*
G03*
X10475000Y-7019899I-15000J0D01*
G01*
X10475000Y-11800000D02*
G75*
G03*
X10475000Y-11800000I-15000J0D01*
G01*
X10535000Y-11800000D02*
G75*
G03*
X10535000Y-11800000I-15000J0D01*
G01*
X10594400Y-6742452D02*
G75*
G03*
X10594400Y-6742452I-15000J0D01*
G01*
X10595000Y-11800000D02*
G75*
G03*
X10595000Y-11800000I-15000J0D01*
G01*
X10659400Y-10642452D02*
G75*
G03*
X10659400Y-10642452I-15000J0D01*
G01*
X10707500Y-6962500D02*
G75*
G03*
X10707500Y-6962500I-15000J0D01*
G01*
X10724400Y-6677452D02*
G75*
G03*
X10724400Y-6677452I-15000J0D01*
G01*
X10919400Y-6677452D02*
G75*
G03*
X10919400Y-6677452I-15000J0D01*
G01*
X11114400Y-6677452D02*
G75*
G03*
X11114400Y-6677452I-15000J0D01*
G01*
X11175000Y-7294900D02*
G75*
G03*
X11175000Y-7294900I-15000J0D01*
G01*
X11235000Y-7360000D02*
G75*
G03*
X11235000Y-7360000I-15000J0D01*
G01*
X11309400Y-6677452D02*
G75*
G03*
X11309400Y-6677452I-15000J0D01*
G01*
X11504400Y-6677452D02*
G75*
G03*
X11504400Y-6677452I-15000J0D01*
G01*
X11504400Y-8692452D02*
G75*
G03*
X11504400Y-8692452I-15000J0D01*
G01*
X11504400Y-8887452D02*
G75*
G03*
X11504400Y-8887452I-15000J0D01*
G01*
X11504400Y-9472452D02*
G75*
G03*
X11504400Y-9472452I-15000J0D01*
G01*
X11569400Y-9017452D02*
G75*
G03*
X11569400Y-9017452I-15000J0D01*
G01*
X11569400Y-11877452D02*
G75*
G03*
X11569400Y-11877452I-15000J0D01*
G01*
X11569400Y-12852452D02*
G75*
G03*
X11569400Y-12852452I-15000J0D01*
G01*
X11597500Y-6782500D02*
G75*
G03*
X11597500Y-6782500I-15000J0D01*
G01*
X11634400Y-8757452D02*
G75*
G03*
X11634400Y-8757452I-15000J0D01*
G01*
X11634400Y-12007452D02*
G75*
G03*
X11634400Y-12007452I-15000J0D01*
G01*
X11699400Y-6677452D02*
G75*
G03*
X11699400Y-6677452I-15000J0D01*
G01*
X11699400Y-7262452D02*
G75*
G03*
X11699400Y-7262452I-15000J0D01*
G01*
X11699400Y-7457452D02*
G75*
G03*
X11699400Y-7457452I-15000J0D01*
G01*
X11699400Y-7652452D02*
G75*
G03*
X11699400Y-7652452I-15000J0D01*
G01*
X11699400Y-8887452D02*
G75*
G03*
X11699400Y-8887452I-15000J0D01*
G01*
X11699400Y-9082452D02*
G75*
G03*
X11699400Y-9082452I-15000J0D01*
G01*
X11699400Y-11747452D02*
G75*
G03*
X11699400Y-11747452I-15000J0D01*
G01*
X11699400Y-12787452D02*
G75*
G03*
X11699400Y-12787452I-15000J0D01*
G01*
X11764400Y-6807452D02*
G75*
G03*
X11764400Y-6807452I-15000J0D01*
G01*
X11764400Y-8692452D02*
G75*
G03*
X11764400Y-8692452I-15000J0D01*
G01*
X11764400Y-12917452D02*
G75*
G03*
X11764400Y-12917452I-15000J0D01*
G01*
X11829400Y-7327452D02*
G75*
G03*
X11829400Y-7327452I-15000J0D01*
G01*
X11829400Y-7522452D02*
G75*
G03*
X11829400Y-7522452I-15000J0D01*
G01*
X11829400Y-8822452D02*
G75*
G03*
X11829400Y-8822452I-15000J0D01*
G01*
X11829400Y-9017452D02*
G75*
G03*
X11829400Y-9017452I-15000J0D01*
G01*
X11894400Y-6677452D02*
G75*
G03*
X11894400Y-6677452I-15000J0D01*
G01*
X11894400Y-7652452D02*
G75*
G03*
X11894400Y-7652452I-15000J0D01*
G01*
X11894400Y-11747452D02*
G75*
G03*
X11894400Y-11747452I-15000J0D01*
G01*
X11894400Y-12787452D02*
G75*
G03*
X11894400Y-12787452I-15000J0D01*
G01*
X11959400Y-6807452D02*
G75*
G03*
X11959400Y-6807452I-15000J0D01*
G01*
X11959400Y-7392452D02*
G75*
G03*
X11959400Y-7392452I-15000J0D01*
G01*
X11959400Y-8692452D02*
G75*
G03*
X11959400Y-8692452I-15000J0D01*
G01*
X11959400Y-8887452D02*
G75*
G03*
X11959400Y-8887452I-15000J0D01*
G01*
X11959400Y-12917452D02*
G75*
G03*
X11959400Y-12917452I-15000J0D01*
G01*
X12015000Y-12572000D02*
G75*
G03*
X12015000Y-12572000I-15000J0D01*
G01*
X12024400Y-7522452D02*
G75*
G03*
X12024400Y-7522452I-15000J0D01*
G01*
X12024400Y-7717452D02*
G75*
G03*
X12024400Y-7717452I-15000J0D01*
G01*
X12024400Y-9017452D02*
G75*
G03*
X12024400Y-9017452I-15000J0D01*
G01*
X12089400Y-6677452D02*
G75*
G03*
X12089400Y-6677452I-15000J0D01*
G01*
X12089400Y-7327452D02*
G75*
G03*
X12089400Y-7327452I-15000J0D01*
G01*
X12089400Y-8757452D02*
G75*
G03*
X12089400Y-8757452I-15000J0D01*
G01*
X12110000Y-11430000D02*
G75*
G03*
X12110000Y-11430000I-15000J0D01*
G01*
X12154400Y-6807452D02*
G75*
G03*
X12154400Y-6807452I-15000J0D01*
G01*
X12154400Y-7457452D02*
G75*
G03*
X12154400Y-7457452I-15000J0D01*
G01*
X12154400Y-7652452D02*
G75*
G03*
X12154400Y-7652452I-15000J0D01*
G01*
X12154400Y-8887452D02*
G75*
G03*
X12154400Y-8887452I-15000J0D01*
G01*
X12197000Y-12534000D02*
G75*
G03*
X12197000Y-12534000I-15000J0D01*
G01*
X12215000Y-7212500D02*
G75*
G03*
X12215000Y-7212500I-15000J0D01*
G01*
X12219400Y-8302452D02*
G75*
G03*
X12219400Y-8302452I-15000J0D01*
G01*
X12219400Y-8692452D02*
G75*
G03*
X12219400Y-8692452I-15000J0D01*
G01*
X12219400Y-9017452D02*
G75*
G03*
X12219400Y-9017452I-15000J0D01*
G01*
X12225000Y-7037500D02*
G75*
G03*
X12225000Y-7037500I-15000J0D01*
G01*
X12265000Y-6962500D02*
G75*
G03*
X12265000Y-6962500I-15000J0D01*
G01*
X12284400Y-6677452D02*
G75*
G03*
X12284400Y-6677452I-15000J0D01*
G01*
X12284400Y-7327452D02*
G75*
G03*
X12284400Y-7327452I-15000J0D01*
G01*
X12284400Y-7522452D02*
G75*
G03*
X12284400Y-7522452I-15000J0D01*
G01*
X12284400Y-7717452D02*
G75*
G03*
X12284400Y-7717452I-15000J0D01*
G01*
X12284400Y-8822452D02*
G75*
G03*
X12284400Y-8822452I-15000J0D01*
G01*
X12349400Y-6807452D02*
G75*
G03*
X12349400Y-6807452I-15000J0D01*
G01*
X12349400Y-8172452D02*
G75*
G03*
X12349400Y-8172452I-15000J0D01*
G01*
X12349400Y-8952452D02*
G75*
G03*
X12349400Y-8952452I-15000J0D01*
G01*
X12364500Y-10488000D02*
G75*
G03*
X12364500Y-10488000I-15000J0D01*
G01*
X12385000Y-12575000D02*
G75*
G03*
X12385000Y-12575000I-15000J0D01*
G01*
X12414400Y-7262452D02*
G75*
G03*
X12414400Y-7262452I-15000J0D01*
G01*
X12414400Y-7457452D02*
G75*
G03*
X12414400Y-7457452I-15000J0D01*
G01*
X12414400Y-7652452D02*
G75*
G03*
X12414400Y-7652452I-15000J0D01*
G01*
X12414400Y-8302452D02*
G75*
G03*
X12414400Y-8302452I-15000J0D01*
G01*
X12414400Y-8692452D02*
G75*
G03*
X12414400Y-8692452I-15000J0D01*
G01*
X12414400Y-12917452D02*
G75*
G03*
X12414400Y-12917452I-15000J0D01*
G01*
X12479400Y-6677452D02*
G75*
G03*
X12479400Y-6677452I-15000J0D01*
G01*
X12479400Y-6872452D02*
G75*
G03*
X12479400Y-6872452I-15000J0D01*
G01*
X12479400Y-8107452D02*
G75*
G03*
X12479400Y-8107452I-15000J0D01*
G01*
X12479400Y-8822452D02*
G75*
G03*
X12479400Y-8822452I-15000J0D01*
G01*
X12479400Y-9017452D02*
G75*
G03*
X12479400Y-9017452I-15000J0D01*
G01*
X12479400Y-9407452D02*
G75*
G03*
X12479400Y-9407452I-15000J0D01*
G01*
X12479400Y-12657452D02*
G75*
G03*
X12479400Y-12657452I-15000J0D01*
G01*
X12544400Y-7327452D02*
G75*
G03*
X12544400Y-7327452I-15000J0D01*
G01*
X12544400Y-7522452D02*
G75*
G03*
X12544400Y-7522452I-15000J0D01*
G01*
X12544400Y-8237452D02*
G75*
G03*
X12544400Y-8237452I-15000J0D01*
G01*
X12544400Y-12462452D02*
G75*
G03*
X12544400Y-12462452I-15000J0D01*
G01*
X12609400Y-7652452D02*
G75*
G03*
X12609400Y-7652452I-15000J0D01*
G01*
X12609400Y-7847452D02*
G75*
G03*
X12609400Y-7847452I-15000J0D01*
G01*
X12609400Y-8042452D02*
G75*
G03*
X12609400Y-8042452I-15000J0D01*
G01*
X12609400Y-8692452D02*
G75*
G03*
X12609400Y-8692452I-15000J0D01*
G01*
X12609400Y-8887452D02*
G75*
G03*
X12609400Y-8887452I-15000J0D01*
G01*
X12609400Y-9082452D02*
G75*
G03*
X12609400Y-9082452I-15000J0D01*
G01*
X12609400Y-9277452D02*
G75*
G03*
X12609400Y-9277452I-15000J0D01*
G01*
X12609400Y-9472452D02*
G75*
G03*
X12609400Y-9472452I-15000J0D01*
G01*
X12674400Y-7392452D02*
G75*
G03*
X12674400Y-7392452I-15000J0D01*
G01*
X12674400Y-8302452D02*
G75*
G03*
X12674400Y-8302452I-15000J0D01*
G01*
X12674400Y-12397452D02*
G75*
G03*
X12674400Y-12397452I-15000J0D01*
G01*
X12739400Y-7522452D02*
G75*
G03*
X12739400Y-7522452I-15000J0D01*
G01*
X12739400Y-7717452D02*
G75*
G03*
X12739400Y-7717452I-15000J0D01*
G01*
X12739400Y-7912452D02*
G75*
G03*
X12739400Y-7912452I-15000J0D01*
G01*
X12739400Y-8757452D02*
G75*
G03*
X12739400Y-8757452I-15000J0D01*
G01*
X12739400Y-8952452D02*
G75*
G03*
X12739400Y-8952452I-15000J0D01*
G01*
X12739400Y-9147452D02*
G75*
G03*
X12739400Y-9147452I-15000J0D01*
G01*
X12739400Y-12202452D02*
G75*
G03*
X12739400Y-12202452I-15000J0D01*
G01*
X12804400Y-7262452D02*
G75*
G03*
X12804400Y-7262452I-15000J0D01*
G01*
X12804400Y-8237452D02*
G75*
G03*
X12804400Y-8237452I-15000J0D01*
G01*
X12804400Y-12332452D02*
G75*
G03*
X12804400Y-12332452I-15000J0D01*
G01*
X12869400Y-7587452D02*
G75*
G03*
X12869400Y-7587452I-15000J0D01*
G01*
X12869400Y-7782452D02*
G75*
G03*
X12869400Y-7782452I-15000J0D01*
G01*
X12869400Y-8367452D02*
G75*
G03*
X12869400Y-8367452I-15000J0D01*
G01*
X12869400Y-8692452D02*
G75*
G03*
X12869400Y-8692452I-15000J0D01*
G01*
X12869400Y-8887452D02*
G75*
G03*
X12869400Y-8887452I-15000J0D01*
G01*
X12869400Y-9082452D02*
G75*
G03*
X12869400Y-9082452I-15000J0D01*
G01*
X12869400Y-9277452D02*
G75*
G03*
X12869400Y-9277452I-15000J0D01*
G01*
X12869400Y-11617452D02*
G75*
G03*
X12869400Y-11617452I-15000J0D01*
G01*
X12869400Y-11812452D02*
G75*
G03*
X12869400Y-11812452I-15000J0D01*
G01*
X12869400Y-12007452D02*
G75*
G03*
X12869400Y-12007452I-15000J0D01*
G01*
X12934400Y-7327452D02*
G75*
G03*
X12934400Y-7327452I-15000J0D01*
G01*
X12934400Y-7912452D02*
G75*
G03*
X12934400Y-7912452I-15000J0D01*
G01*
X12934400Y-8107452D02*
G75*
G03*
X12934400Y-8107452I-15000J0D01*
G01*
X12934400Y-8497452D02*
G75*
G03*
X12934400Y-8497452I-15000J0D01*
G01*
X12934400Y-9407452D02*
G75*
G03*
X12934400Y-9407452I-15000J0D01*
G01*
X12934400Y-12137452D02*
G75*
G03*
X12934400Y-12137452I-15000J0D01*
G01*
X12934400Y-12397452D02*
G75*
G03*
X12934400Y-12397452I-15000J0D01*
G01*
X12999400Y-7197452D02*
G75*
G03*
X12999400Y-7197452I-15000J0D01*
G01*
X12999400Y-7457452D02*
G75*
G03*
X12999400Y-7457452I-15000J0D01*
G01*
X12999400Y-11682452D02*
G75*
G03*
X12999400Y-11682452I-15000J0D01*
G01*
X12999400Y-11877452D02*
G75*
G03*
X12999400Y-11877452I-15000J0D01*
G01*
X12999400Y-12267452D02*
G75*
G03*
X12999400Y-12267452I-15000J0D01*
G01*
X9980000Y-7205000D02*
G75*
G03*
X9980000Y-7205000I-15000J0D01*
G01*
X9980000Y-7383000D02*
G75*
G03*
X9980000Y-7383000I-15000J0D01*
G01*
X9980000Y-7561000D02*
G75*
G03*
X9980000Y-7561000I-15000J0D01*
G01*
X9980000Y-7739000D02*
G75*
G03*
X9980000Y-7739000I-15000J0D01*
G01*
X9980000Y-7917000D02*
G75*
G03*
X9980000Y-7917000I-15000J0D01*
G01*
X9980000Y-8095000D02*
G75*
G03*
X9980000Y-8095000I-15000J0D01*
G01*
X10110000Y-7205000D02*
G75*
G03*
X10110000Y-7205000I-15000J0D01*
G01*
X10110000Y-7383000D02*
G75*
G03*
X10110000Y-7383000I-15000J0D01*
G01*
X10110000Y-7561000D02*
G75*
G03*
X10110000Y-7561000I-15000J0D01*
G01*
X10110000Y-7739000D02*
G75*
G03*
X10110000Y-7739000I-15000J0D01*
G01*
X10110000Y-7917000D02*
G75*
G03*
X10110000Y-7917000I-15000J0D01*
G01*
X10110000Y-8095000D02*
G75*
G03*
X10110000Y-8095000I-15000J0D01*
G01*
X10240000Y-7205000D02*
G75*
G03*
X10240000Y-7205000I-15000J0D01*
G01*
X10240000Y-7383000D02*
G75*
G03*
X10240000Y-7383000I-15000J0D01*
G01*
X10240000Y-7561000D02*
G75*
G03*
X10240000Y-7561000I-15000J0D01*
G01*
X10240000Y-7739000D02*
G75*
G03*
X10240000Y-7739000I-15000J0D01*
G01*
X10240000Y-7917000D02*
G75*
G03*
X10240000Y-7917000I-15000J0D01*
G01*
X10240000Y-8095000D02*
G75*
G03*
X10240000Y-8095000I-15000J0D01*
G01*
X9980000Y-9092500D02*
G75*
G03*
X9980000Y-9092500I-15000J0D01*
G01*
X9980000Y-9270500D02*
G75*
G03*
X9980000Y-9270500I-15000J0D01*
G01*
X9980000Y-9448500D02*
G75*
G03*
X9980000Y-9448500I-15000J0D01*
G01*
X9980000Y-9626500D02*
G75*
G03*
X9980000Y-9626500I-15000J0D01*
G01*
X9980000Y-9804500D02*
G75*
G03*
X9980000Y-9804500I-15000J0D01*
G01*
X9980000Y-9982500D02*
G75*
G03*
X9980000Y-9982500I-15000J0D01*
G01*
X10110000Y-9092500D02*
G75*
G03*
X10110000Y-9092500I-15000J0D01*
G01*
X10110000Y-9270500D02*
G75*
G03*
X10110000Y-9270500I-15000J0D01*
G01*
X10110000Y-9448500D02*
G75*
G03*
X10110000Y-9448500I-15000J0D01*
G01*
X10110000Y-9626500D02*
G75*
G03*
X10110000Y-9626500I-15000J0D01*
G01*
X10110000Y-9804500D02*
G75*
G03*
X10110000Y-9804500I-15000J0D01*
G01*
X10110000Y-9982500D02*
G75*
G03*
X10110000Y-9982500I-15000J0D01*
G01*
X10240000Y-9092500D02*
G75*
G03*
X10240000Y-9092500I-15000J0D01*
G01*
X10240000Y-9270500D02*
G75*
G03*
X10240000Y-9270500I-15000J0D01*
G01*
X10240000Y-9448500D02*
G75*
G03*
X10240000Y-9448500I-15000J0D01*
G01*
X10240000Y-9626500D02*
G75*
G03*
X10240000Y-9626500I-15000J0D01*
G01*
X10240000Y-9804500D02*
G75*
G03*
X10240000Y-9804500I-15000J0D01*
G01*
X10240000Y-9982500D02*
G75*
G03*
X10240000Y-9982500I-15000J0D01*
G01*
X8449200Y-8315000D02*
X8449200Y-8365000D01*
X8424200Y-8340000D02*
X8474200Y-8340000D01*
X8574200Y-8315000D02*
X8574200Y-8365000D01*
X8549200Y-8340000D02*
X8599200Y-8340000D01*
X8699200Y-8315000D02*
X8699200Y-8365000D01*
X8674200Y-8340000D02*
X8724200Y-8340000D01*
X8824200Y-8315000D02*
X8824200Y-8365000D01*
X8799200Y-8340000D02*
X8849200Y-8340000D01*
X8949200Y-8315000D02*
X8949200Y-8365000D01*
X8924200Y-8340000D02*
X8974200Y-8340000D01*
X8449200Y-8746800D02*
X8449200Y-8796800D01*
X8424200Y-8771800D02*
X8474200Y-8771800D01*
X8574200Y-8746800D02*
X8574200Y-8796800D01*
X8549200Y-8771800D02*
X8599200Y-8771800D01*
X8699200Y-8746800D02*
X8699200Y-8796800D01*
X8674200Y-8771800D02*
X8724200Y-8771800D01*
X8824200Y-8746800D02*
X8824200Y-8796800D01*
X8799200Y-8771800D02*
X8849200Y-8771800D01*
X8949200Y-8746800D02*
X8949200Y-8796800D01*
X8924200Y-8771800D02*
X8974200Y-8771800D01*
X8449200Y-7883200D02*
X8449200Y-7933200D01*
X8424200Y-7908200D02*
X8474200Y-7908200D01*
X8574200Y-7883200D02*
X8574200Y-7933200D01*
X8549200Y-7908200D02*
X8599200Y-7908200D01*
X8699200Y-7883200D02*
X8699200Y-7933200D01*
X8674200Y-7908200D02*
X8724200Y-7908200D01*
X8824200Y-7883200D02*
X8824200Y-7933200D01*
X8799200Y-7908200D02*
X8849200Y-7908200D01*
X8949200Y-7883200D02*
X8949200Y-7933200D01*
X8924200Y-7908200D02*
X8974200Y-7908200D01*
X8449200Y-9178600D02*
X8449200Y-9228600D01*
X8424200Y-9203600D02*
X8474200Y-9203600D01*
X8574200Y-9178600D02*
X8574200Y-9228600D01*
X8549200Y-9203600D02*
X8599200Y-9203600D01*
X8699200Y-9178600D02*
X8699200Y-9228600D01*
X8674200Y-9203600D02*
X8724200Y-9203600D01*
X8824200Y-9178600D02*
X8824200Y-9228600D01*
X8799200Y-9203600D02*
X8849200Y-9203600D01*
X8949200Y-9178600D02*
X8949200Y-9228600D01*
X8924200Y-9203600D02*
X8974200Y-9203600D01*
X8449200Y-9610400D02*
X8449200Y-9660400D01*
X8424200Y-9635400D02*
X8474200Y-9635400D01*
X8574200Y-9610400D02*
X8574200Y-9660400D01*
X8549200Y-9635400D02*
X8599200Y-9635400D01*
X8699200Y-9610400D02*
X8699200Y-9660400D01*
X8674200Y-9635400D02*
X8724200Y-9635400D01*
X8824200Y-9610400D02*
X8824200Y-9660400D01*
X8799200Y-9635400D02*
X8849200Y-9635400D01*
X8949200Y-9610400D02*
X8949200Y-9660400D01*
X8924200Y-9635400D02*
X8974200Y-9635400D01*
X8449200Y-10474000D02*
X8449200Y-10524000D01*
X8424200Y-10499000D02*
X8474200Y-10499000D01*
X8574200Y-10474000D02*
X8574200Y-10524000D01*
X8549200Y-10499000D02*
X8599200Y-10499000D01*
X8699200Y-10474000D02*
X8699200Y-10524000D01*
X8674200Y-10499000D02*
X8724200Y-10499000D01*
X8824200Y-10474000D02*
X8824200Y-10524000D01*
X8799200Y-10499000D02*
X8849200Y-10499000D01*
X8949200Y-10474000D02*
X8949200Y-10524000D01*
X8924200Y-10499000D02*
X8974200Y-10499000D01*
X8449200Y-10042200D02*
X8449200Y-10092200D01*
X8424200Y-10067200D02*
X8474200Y-10067200D01*
X8574200Y-10042200D02*
X8574200Y-10092200D01*
X8549200Y-10067200D02*
X8599200Y-10067200D01*
X8699200Y-10042200D02*
X8699200Y-10092200D01*
X8674200Y-10067200D02*
X8724200Y-10067200D01*
X8824200Y-10042200D02*
X8824200Y-10092200D01*
X8799200Y-10067200D02*
X8849200Y-10067200D01*
X8949200Y-10042200D02*
X8949200Y-10092200D01*
X8924200Y-10067200D02*
X8974200Y-10067200D01*
X12886481Y-10222981D02*
X12886481Y-10177019D01*
X12840519Y-10177019D01*
X12840519Y-10222981D01*
X12886481Y-10222981D01*
X12886481Y-10349981D02*
X12886481Y-10304019D01*
X12840519Y-10304019D01*
X12840519Y-10349981D01*
X12886481Y-10349981D01*
X12885981Y-10595981D02*
X12885981Y-10550019D01*
X12840019Y-10550019D01*
X12840019Y-10595981D01*
X12885981Y-10595981D01*
X12885981Y-10722981D02*
X12885981Y-10677019D01*
X12840019Y-10677019D01*
X12840019Y-10722981D01*
X12885981Y-10722981D01*
X7752450Y-7451110D02*
X7802450Y-7401110D01*
X7752450Y-7351110D01*
X7702450Y-7401110D01*
X7752450Y-7451110D01*
X7752450Y-7705110D02*
X7802450Y-7655110D01*
X7752450Y-7605110D01*
X7702450Y-7655110D01*
X7752450Y-7705110D01*
X7752450Y-7959110D02*
X7802450Y-7909110D01*
X7752450Y-7859110D01*
X7702450Y-7909110D01*
X7752450Y-7959110D01*
X7752450Y-8213110D02*
X7802450Y-8163110D01*
X7752450Y-8113110D01*
X7702450Y-8163110D01*
X7752450Y-8213110D01*
X7752450Y-8467110D02*
X7802450Y-8417110D01*
X7752450Y-8367110D01*
X7702450Y-8417110D01*
X7752450Y-8467110D01*
X7752450Y-8721110D02*
X7802450Y-8671110D01*
X7752450Y-8621110D01*
X7702450Y-8671110D01*
X7752450Y-8721110D01*
X7752450Y-8975110D02*
X7802450Y-8925110D01*
X7752450Y-8875110D01*
X7702450Y-8925110D01*
X7752450Y-8975110D01*
X7752450Y-9229110D02*
X7802450Y-9179110D01*
X7752450Y-9129110D01*
X7702450Y-9179110D01*
X7752450Y-9229110D01*
X7752450Y-9483110D02*
X7802450Y-9433110D01*
X7752450Y-9383110D01*
X7702450Y-9433110D01*
X7752450Y-9483110D01*
X7752450Y-9737110D02*
X7802450Y-9687110D01*
X7752450Y-9637110D01*
X7702450Y-9687110D01*
X7752450Y-9737110D01*
X7752450Y-9991110D02*
X7802450Y-9941110D01*
X7752450Y-9891110D01*
X7702450Y-9941110D01*
X7752450Y-9991110D01*
X7752450Y-10245110D02*
X7802450Y-10195110D01*
X7752450Y-10145110D01*
X7702450Y-10195110D01*
X7752450Y-10245110D01*
X7752450Y-10499110D02*
X7802450Y-10449110D01*
X7752450Y-10399110D01*
X7702450Y-10449110D01*
X7752450Y-10499110D01*
X7752450Y-10753110D02*
X7802450Y-10703110D01*
X7752450Y-10653110D01*
X7702450Y-10703110D01*
X7752450Y-10753110D01*
X7752450Y-11007110D02*
X7802450Y-10957110D01*
X7752450Y-10907110D01*
X7702450Y-10957110D01*
X7752450Y-11007110D01*
X7752450Y-11261110D02*
X7802450Y-11211110D01*
X7752450Y-11161110D01*
X7702450Y-11211110D01*
X7752450Y-11261110D01*
X7752450Y-11515110D02*
X7802450Y-11465110D01*
X7752450Y-11415110D01*
X7702450Y-11465110D01*
X7752450Y-11515110D01*
X7752450Y-11769110D02*
X7802450Y-11719110D01*
X7752450Y-11669110D01*
X7702450Y-11719110D01*
X7752450Y-11769110D01*
X7752450Y-12023110D02*
X7802450Y-11973110D01*
X7752450Y-11923110D01*
X7702450Y-11973110D01*
X7752450Y-12023110D01*
X7752450Y-12277110D02*
X7802450Y-12227110D01*
X7752450Y-12177110D01*
X7702450Y-12227110D01*
X7752450Y-12277110D01*
X8006450Y-7451110D02*
X8056450Y-7401110D01*
X8006450Y-7351110D01*
X7956450Y-7401110D01*
X8006450Y-7451110D01*
X8006450Y-7705110D02*
X8056450Y-7655110D01*
X8006450Y-7605110D01*
X7956450Y-7655110D01*
X8006450Y-7705110D01*
X8006450Y-7959110D02*
X8056450Y-7909110D01*
X8006450Y-7859110D01*
X7956450Y-7909110D01*
X8006450Y-7959110D01*
X8006450Y-8213110D02*
X8056450Y-8163110D01*
X8006450Y-8113110D01*
X7956450Y-8163110D01*
X8006450Y-8213110D01*
X8006450Y-8467110D02*
X8056450Y-8417110D01*
X8006450Y-8367110D01*
X7956450Y-8417110D01*
X8006450Y-8467110D01*
X8006450Y-8721110D02*
X8056450Y-8671110D01*
X8006450Y-8621110D01*
X7956450Y-8671110D01*
X8006450Y-8721110D01*
X8006450Y-8975110D02*
X8056450Y-8925110D01*
X8006450Y-8875110D01*
X7956450Y-8925110D01*
X8006450Y-8975110D01*
X8006450Y-9229110D02*
X8056450Y-9179110D01*
X8006450Y-9129110D01*
X7956450Y-9179110D01*
X8006450Y-9229110D01*
X8006450Y-9483110D02*
X8056450Y-9433110D01*
X8006450Y-9383110D01*
X7956450Y-9433110D01*
X8006450Y-9483110D01*
X8006450Y-9737110D02*
X8056450Y-9687110D01*
X8006450Y-9637110D01*
X7956450Y-9687110D01*
X8006450Y-9737110D01*
X8006450Y-9991110D02*
X8056450Y-9941110D01*
X8006450Y-9891110D01*
X7956450Y-9941110D01*
X8006450Y-9991110D01*
X8006450Y-10245110D02*
X8056450Y-10195110D01*
X8006450Y-10145110D01*
X7956450Y-10195110D01*
X8006450Y-10245110D01*
X8006450Y-10499110D02*
X8056450Y-10449110D01*
X8006450Y-10399110D01*
X7956450Y-10449110D01*
X8006450Y-10499110D01*
X8006450Y-10753110D02*
X8056450Y-10703110D01*
X8006450Y-10653110D01*
X7956450Y-10703110D01*
X8006450Y-10753110D01*
X8006450Y-11007110D02*
X8056450Y-10957110D01*
X8006450Y-10907110D01*
X7956450Y-10957110D01*
X8006450Y-11007110D01*
X8006450Y-11261110D02*
X8056450Y-11211110D01*
X8006450Y-11161110D01*
X7956450Y-11211110D01*
X8006450Y-11261110D01*
X8006450Y-11515110D02*
X8056450Y-11465110D01*
X8006450Y-11415110D01*
X7956450Y-11465110D01*
X8006450Y-11515110D01*
X8006450Y-11769110D02*
X8056450Y-11719110D01*
X8006450Y-11669110D01*
X7956450Y-11719110D01*
X8006450Y-11769110D01*
X8006450Y-12023110D02*
X8056450Y-11973110D01*
X8006450Y-11923110D01*
X7956450Y-11973110D01*
X8006450Y-12023110D01*
X8006450Y-12277110D02*
X8056450Y-12227110D01*
X8006450Y-12177110D01*
X7956450Y-12227110D01*
X8006450Y-12277110D01*
X8685600Y-12330000D02*
X8735600Y-12280000D01*
X8685600Y-12230000D01*
X8635600Y-12280000D01*
X8685600Y-12330000D01*
X8685600Y-12630000D02*
X8735600Y-12580000D01*
X8685600Y-12530000D01*
X8635600Y-12580000D01*
X8685600Y-12630000D01*
X11085600Y-12330000D02*
X11135600Y-12280000D01*
X11085600Y-12230000D01*
X11035600Y-12280000D01*
X11085600Y-12330000D01*
X11085600Y-12630000D02*
X11135600Y-12580000D01*
X11085600Y-12530000D01*
X11035600Y-12580000D01*
X11085600Y-12630000D01*
X8646000Y-6946000D02*
X8696000Y-6896000D01*
X8646000Y-6846000D01*
X8596000Y-6896000D01*
X8646000Y-6946000D01*
X8900000Y-6946000D02*
X8950000Y-6896000D01*
X8900000Y-6846000D01*
X8850000Y-6896000D01*
X8900000Y-6946000D01*
X9485600Y-12330000D02*
X9535600Y-12280000D01*
X9485600Y-12230000D01*
X9435600Y-12280000D01*
X9485600Y-12330000D01*
X9485600Y-12630000D02*
X9535600Y-12580000D01*
X9485600Y-12530000D01*
X9435600Y-12580000D01*
X9485600Y-12630000D01*
X10285600Y-12330000D02*
X10335600Y-12280000D01*
X10285600Y-12230000D01*
X10235600Y-12280000D01*
X10285600Y-12330000D01*
X10285600Y-12630000D02*
X10335600Y-12580000D01*
X10285600Y-12530000D01*
X10235600Y-12580000D01*
X10285600Y-12630000D01*
X12262500Y-9825000D02*
X12312500Y-9775000D01*
X12262500Y-9725000D01*
X12212500Y-9775000D01*
X12262500Y-9825000D01*
X12516500Y-9825000D02*
X12566500Y-9775000D01*
X12516500Y-9725000D01*
X12466500Y-9775000D01*
X12516500Y-9825000D01*
X12770500Y-9825000D02*
X12820500Y-9775000D01*
X12770500Y-9725000D01*
X12720500Y-9775000D01*
X12770500Y-9825000D01*
X11489000Y-7813000D02*
X11591000Y-7915000D01*
X11591000Y-7813000D02*
X11489000Y-7915000D01*
X11591000Y-7864000D02*
G75*
G03*
X11591000Y-7864000I-51000J0D01*
G01*
X11789000Y-7813000D02*
X11891000Y-7915000D01*
X11891000Y-7813000D02*
X11789000Y-7915000D01*
X11891000Y-7864000D02*
G75*
G03*
X11891000Y-7864000I-51000J0D01*
G01*
X12089000Y-7813000D02*
X12191000Y-7915000D01*
X12191000Y-7813000D02*
X12089000Y-7915000D01*
X12191000Y-7864000D02*
G75*
G03*
X12191000Y-7864000I-51000J0D01*
G01*
X12389000Y-7813000D02*
X12491000Y-7915000D01*
X12491000Y-7813000D02*
X12389000Y-7915000D01*
X12491000Y-7864000D02*
G75*
G03*
X12491000Y-7864000I-51000J0D01*
G01*
X11489000Y-9149000D02*
X11591000Y-9251000D01*
X11591000Y-9149000D02*
X11489000Y-9251000D01*
X11591000Y-9200000D02*
G75*
G03*
X11591000Y-9200000I-51000J0D01*
G01*
X11789000Y-9149000D02*
X11891000Y-9251000D01*
X11891000Y-9149000D02*
X11789000Y-9251000D01*
X11891000Y-9200000D02*
G75*
G03*
X11891000Y-9200000I-51000J0D01*
G01*
X12089000Y-9149000D02*
X12191000Y-9251000D01*
X12191000Y-9149000D02*
X12089000Y-9251000D01*
X12191000Y-9200000D02*
G75*
G03*
X12191000Y-9200000I-51000J0D01*
G01*
X12389000Y-9149000D02*
X12491000Y-9251000D01*
X12491000Y-9149000D02*
X12389000Y-9251000D01*
X12491000Y-9200000D02*
G75*
G03*
X12491000Y-9200000I-51000J0D01*
G01*
X12645000Y-12580000D02*
X12915000Y-12850000D01*
X12915000Y-12580000D02*
X12645000Y-12850000D01*
X12780000Y-12580000D02*
X12780000Y-12850000D01*
X12645000Y-12715000D02*
X12915000Y-12715000D01*
X7745000Y-6780000D02*
X8015000Y-7050000D01*
X8015000Y-6780000D02*
X7745000Y-7050000D01*
X7880000Y-6780000D02*
X7880000Y-7050000D01*
X7745000Y-6915000D02*
X8015000Y-6915000D01*
X12645000Y-6780000D02*
X12915000Y-7050000D01*
X12915000Y-6780000D02*
X12645000Y-7050000D01*
X12780000Y-6780000D02*
X12780000Y-7050000D01*
X12645000Y-6915000D02*
X12915000Y-6915000D01*
X7745000Y-12580000D02*
X8015000Y-12850000D01*
X8015000Y-12580000D02*
X7745000Y-12850000D01*
X7880000Y-12580000D02*
X7880000Y-12850000D01*
X7745000Y-12715000D02*
X8015000Y-12715000D01*
X8335600Y-12136000D02*
X8435600Y-12236000D01*
X8435600Y-12136000D02*
X8335600Y-12236000D01*
X8420956Y-12221356D02*
X8420956Y-12150644D01*
X8350244Y-12150644D01*
X8350244Y-12221356D01*
X8420956Y-12221356D01*
X8935600Y-12136000D02*
X9035600Y-12236000D01*
X9035600Y-12136000D02*
X8935600Y-12236000D01*
X9020956Y-12221356D02*
X9020956Y-12150644D01*
X8950244Y-12150644D01*
X8950244Y-12221356D01*
X9020956Y-12221356D01*
X10735600Y-12136000D02*
X10835600Y-12236000D01*
X10835600Y-12136000D02*
X10735600Y-12236000D01*
X10820956Y-12221356D02*
X10820956Y-12150644D01*
X10750244Y-12150644D01*
X10750244Y-12221356D01*
X10820956Y-12221356D01*
X11335600Y-12136000D02*
X11435600Y-12236000D01*
X11435600Y-12136000D02*
X11335600Y-12236000D01*
X11420956Y-12221356D02*
X11420956Y-12150644D01*
X11350244Y-12150644D01*
X11350244Y-12221356D01*
X11420956Y-12221356D01*
X9135600Y-12136000D02*
X9235600Y-12236000D01*
X9235600Y-12136000D02*
X9135600Y-12236000D01*
X9220956Y-12221356D02*
X9220956Y-12150644D01*
X9150244Y-12150644D01*
X9150244Y-12221356D01*
X9220956Y-12221356D01*
X9735600Y-12136000D02*
X9835600Y-12236000D01*
X9835600Y-12136000D02*
X9735600Y-12236000D01*
X9820956Y-12221356D02*
X9820956Y-12150644D01*
X9750244Y-12150644D01*
X9750244Y-12221356D01*
X9820956Y-12221356D01*
X9935600Y-12136000D02*
X10035600Y-12236000D01*
X10035600Y-12136000D02*
X9935600Y-12236000D01*
X10020956Y-12221356D02*
X10020956Y-12150644D01*
X9950244Y-12150644D01*
X9950244Y-12221356D01*
X10020956Y-12221356D01*
X10535600Y-12136000D02*
X10635600Y-12236000D01*
X10635600Y-12136000D02*
X10535600Y-12236000D01*
X10620956Y-12221356D02*
X10620956Y-12150644D01*
X10550244Y-12150644D01*
X10550244Y-12221356D01*
X10620956Y-12221356D01*
X11176500Y-7996500D02*
X11303500Y-8123500D01*
X11303500Y-7996500D02*
X11176500Y-8123500D01*
X11240000Y-8123500D02*
X11303500Y-8060000D01*
X11240000Y-7996500D01*
X11176500Y-8060000D01*
X11240000Y-8123500D01*
X12676500Y-7996500D02*
X12803500Y-8123500D01*
X12803500Y-7996500D02*
X12676500Y-8123500D01*
X12740000Y-8123500D02*
X12803500Y-8060000D01*
X12740000Y-7996500D01*
X12676500Y-8060000D01*
X12740000Y-8123500D01*
X11176500Y-9332500D02*
X11303500Y-9459500D01*
X11303500Y-9332500D02*
X11176500Y-9459500D01*
X11240000Y-9459500D02*
X11303500Y-9396000D01*
X11240000Y-9332500D01*
X11176500Y-9396000D01*
X11240000Y-9459500D01*
X12676500Y-9332500D02*
X12803500Y-9459500D01*
X12803500Y-9332500D02*
X12676500Y-9459500D01*
X12740000Y-9459500D02*
X12803500Y-9396000D01*
X12740000Y-9332500D01*
X12676500Y-9396000D01*
X12740000Y-9459500D01*
D12*
X7810828Y-13534754D02*
X7810828Y-13234754D01*
X7882257Y-13234754D01*
X7925114Y-13249040D01*
X7953686Y-13277611D01*
X7967971Y-13306183D01*
X7982257Y-13363326D01*
X7982257Y-13406183D01*
X7967971Y-13463326D01*
X7953686Y-13491897D01*
X7925114Y-13520469D01*
X7882257Y-13534754D01*
X7810828Y-13534754D01*
X8110828Y-13534754D02*
X8110828Y-13334754D01*
X8110828Y-13391897D02*
X8125114Y-13363326D01*
X8139400Y-13349040D01*
X8167971Y-13334754D01*
X8196543Y-13334754D01*
X8296543Y-13534754D02*
X8296543Y-13334754D01*
X8296543Y-13234754D02*
X8282257Y-13249040D01*
X8296543Y-13263326D01*
X8310828Y-13249040D01*
X8296543Y-13234754D01*
X8296543Y-13263326D01*
X8482257Y-13534754D02*
X8453686Y-13520469D01*
X8439400Y-13491897D01*
X8439400Y-13234754D01*
X8639400Y-13534754D02*
X8610828Y-13520469D01*
X8596543Y-13491897D01*
X8596543Y-13234754D01*
X8982257Y-13534754D02*
X8982257Y-13234754D01*
X9082257Y-13449040D01*
X9182257Y-13234754D01*
X9182257Y-13534754D01*
X9453686Y-13534754D02*
X9453686Y-13377611D01*
X9439400Y-13349040D01*
X9410828Y-13334754D01*
X9353686Y-13334754D01*
X9325114Y-13349040D01*
X9453686Y-13520469D02*
X9425114Y-13534754D01*
X9353686Y-13534754D01*
X9325114Y-13520469D01*
X9310828Y-13491897D01*
X9310828Y-13463326D01*
X9325114Y-13434754D01*
X9353686Y-13420469D01*
X9425114Y-13420469D01*
X9453686Y-13406183D01*
X9596543Y-13334754D02*
X9596543Y-13634754D01*
X9596543Y-13349040D02*
X9625114Y-13334754D01*
X9682257Y-13334754D01*
X9710828Y-13349040D01*
X9725114Y-13363326D01*
X9739400Y-13391897D01*
X9739400Y-13477611D01*
X9725114Y-13506183D01*
X9710828Y-13520469D01*
X9682257Y-13534754D01*
X9625114Y-13534754D01*
X9596543Y-13520469D01*
X9867971Y-13506183D02*
X9882257Y-13520469D01*
X9867971Y-13534754D01*
X9853686Y-13520469D01*
X9867971Y-13506183D01*
X9867971Y-13534754D01*
X9867971Y-13349040D02*
X9882257Y-13363326D01*
X9867971Y-13377611D01*
X9853686Y-13363326D01*
X9867971Y-13349040D01*
X9867971Y-13377611D01*
X7504200Y-14018940D02*
X7524400Y-14039140D01*
X7524400Y-14018940D02*
X7504200Y-14039140D01*
X7867971Y-13864754D02*
X7896543Y-13864754D01*
X7925114Y-13879040D01*
X7939400Y-13893326D01*
X7953686Y-13921897D01*
X7967971Y-13979040D01*
X7967971Y-14050469D01*
X7953686Y-14107611D01*
X7939400Y-14136183D01*
X7925114Y-14150469D01*
X7896543Y-14164754D01*
X7867971Y-14164754D01*
X7839400Y-14150469D01*
X7825114Y-14136183D01*
X7810828Y-14107611D01*
X7796543Y-14050469D01*
X7796543Y-13979040D01*
X7810828Y-13921897D01*
X7825114Y-13893326D01*
X7839400Y-13879040D01*
X7867971Y-13864754D01*
X8096543Y-14136183D02*
X8110828Y-14150469D01*
X8096543Y-14164754D01*
X8082257Y-14150469D01*
X8096543Y-14136183D01*
X8096543Y-14164754D01*
X8225114Y-13893326D02*
X8239400Y-13879040D01*
X8267971Y-13864754D01*
X8339400Y-13864754D01*
X8367971Y-13879040D01*
X8382257Y-13893326D01*
X8396543Y-13921897D01*
X8396543Y-13950469D01*
X8382257Y-13993326D01*
X8210828Y-14164754D01*
X8396543Y-14164754D01*
X8582257Y-13864754D02*
X8610828Y-13864754D01*
X8639400Y-13879040D01*
X8653686Y-13893326D01*
X8667971Y-13921897D01*
X8682257Y-13979040D01*
X8682257Y-14050469D01*
X8667971Y-14107611D01*
X8653686Y-14136183D01*
X8639400Y-14150469D01*
X8610828Y-14164754D01*
X8582257Y-14164754D01*
X8553686Y-14150469D01*
X8539400Y-14136183D01*
X8525114Y-14107611D01*
X8510828Y-14050469D01*
X8510828Y-13979040D01*
X8525114Y-13921897D01*
X8539400Y-13893326D01*
X8553686Y-13879040D01*
X8582257Y-13864754D01*
X8810828Y-14164754D02*
X8810828Y-13964754D01*
X8810828Y-13993326D02*
X8825114Y-13979040D01*
X8853686Y-13964754D01*
X8896543Y-13964754D01*
X8925114Y-13979040D01*
X8939400Y-14007611D01*
X8939400Y-14164754D01*
X8939400Y-14007611D02*
X8953686Y-13979040D01*
X8982257Y-13964754D01*
X9025114Y-13964754D01*
X9053686Y-13979040D01*
X9067971Y-14007611D01*
X9067971Y-14164754D01*
X9210828Y-14164754D02*
X9210828Y-13964754D01*
X9210828Y-13993326D02*
X9225114Y-13979040D01*
X9253686Y-13964754D01*
X9296543Y-13964754D01*
X9325114Y-13979040D01*
X9339400Y-14007611D01*
X9339400Y-14164754D01*
X9339400Y-14007611D02*
X9353686Y-13979040D01*
X9382257Y-13964754D01*
X9425114Y-13964754D01*
X9453686Y-13979040D01*
X9467971Y-14007611D01*
X9467971Y-14164754D01*
X10053686Y-13850469D02*
X9796543Y-14236183D01*
X10439400Y-13864754D02*
X10467971Y-13864754D01*
X10496543Y-13879040D01*
X10510828Y-13893326D01*
X10525114Y-13921897D01*
X10539400Y-13979040D01*
X10539400Y-14050469D01*
X10525114Y-14107611D01*
X10510828Y-14136183D01*
X10496543Y-14150469D01*
X10467971Y-14164754D01*
X10439400Y-14164754D01*
X10410828Y-14150469D01*
X10396543Y-14136183D01*
X10382257Y-14107611D01*
X10367971Y-14050469D01*
X10367971Y-13979040D01*
X10382257Y-13921897D01*
X10396543Y-13893326D01*
X10410828Y-13879040D01*
X10439400Y-13864754D01*
X10667971Y-14136183D02*
X10682257Y-14150469D01*
X10667971Y-14164754D01*
X10653686Y-14150469D01*
X10667971Y-14136183D01*
X10667971Y-14164754D01*
X10867971Y-13864754D02*
X10896543Y-13864754D01*
X10925114Y-13879040D01*
X10939400Y-13893326D01*
X10953686Y-13921897D01*
X10967971Y-13979040D01*
X10967971Y-14050469D01*
X10953686Y-14107611D01*
X10939400Y-14136183D01*
X10925114Y-14150469D01*
X10896543Y-14164754D01*
X10867971Y-14164754D01*
X10839400Y-14150469D01*
X10825114Y-14136183D01*
X10810828Y-14107611D01*
X10796543Y-14050469D01*
X10796543Y-13979040D01*
X10810828Y-13921897D01*
X10825114Y-13893326D01*
X10839400Y-13879040D01*
X10867971Y-13864754D01*
X11153686Y-13864754D02*
X11182257Y-13864754D01*
X11210828Y-13879040D01*
X11225114Y-13893326D01*
X11239400Y-13921897D01*
X11253686Y-13979040D01*
X11253686Y-14050469D01*
X11239400Y-14107611D01*
X11225114Y-14136183D01*
X11210828Y-14150469D01*
X11182257Y-14164754D01*
X11153686Y-14164754D01*
X11125114Y-14150469D01*
X11110828Y-14136183D01*
X11096543Y-14107611D01*
X11082257Y-14050469D01*
X11082257Y-13979040D01*
X11096543Y-13921897D01*
X11110828Y-13893326D01*
X11125114Y-13879040D01*
X11153686Y-13864754D01*
X11425114Y-13993326D02*
X11396543Y-13979040D01*
X11382257Y-13964754D01*
X11367971Y-13936183D01*
X11367971Y-13921897D01*
X11382257Y-13893326D01*
X11396543Y-13879040D01*
X11425114Y-13864754D01*
X11482257Y-13864754D01*
X11510828Y-13879040D01*
X11525114Y-13893326D01*
X11539400Y-13921897D01*
X11539400Y-13936183D01*
X11525114Y-13964754D01*
X11510828Y-13979040D01*
X11482257Y-13993326D01*
X11425114Y-13993326D01*
X11396543Y-14007611D01*
X11382257Y-14021897D01*
X11367971Y-14050469D01*
X11367971Y-14107611D01*
X11382257Y-14136183D01*
X11396543Y-14150469D01*
X11425114Y-14164754D01*
X11482257Y-14164754D01*
X11510828Y-14150469D01*
X11525114Y-14136183D01*
X11539400Y-14107611D01*
X11539400Y-14050469D01*
X11525114Y-14021897D01*
X11510828Y-14007611D01*
X11482257Y-13993326D01*
X11653686Y-13864754D02*
X11653686Y-13921897D01*
X11767971Y-13864754D02*
X11767971Y-13921897D01*
X12210828Y-14279040D02*
X12196543Y-14264754D01*
X12167971Y-14221897D01*
X12153686Y-14193326D01*
X12139400Y-14150469D01*
X12125114Y-14079040D01*
X12125114Y-14021897D01*
X12139400Y-13950469D01*
X12153686Y-13907611D01*
X12167971Y-13879040D01*
X12196543Y-13836183D01*
X12210828Y-13821897D01*
X12482257Y-14164754D02*
X12310828Y-14164754D01*
X12396543Y-14164754D02*
X12396543Y-13864754D01*
X12367971Y-13907611D01*
X12339400Y-13936183D01*
X12310828Y-13950469D01*
X12739400Y-13964754D02*
X12739400Y-14164754D01*
X12667971Y-13850469D02*
X12596543Y-14064754D01*
X12782257Y-14064754D01*
X13039400Y-13864754D02*
X12896543Y-13864754D01*
X12882257Y-14007611D01*
X12896543Y-13993326D01*
X12925114Y-13979040D01*
X12996543Y-13979040D01*
X13025114Y-13993326D01*
X13039400Y-14007611D01*
X13053686Y-14036183D01*
X13053686Y-14107611D01*
X13039400Y-14136183D01*
X13025114Y-14150469D01*
X12996543Y-14164754D01*
X12925114Y-14164754D01*
X12896543Y-14150469D01*
X12882257Y-14136183D01*
X13410828Y-14164754D02*
X13410828Y-13864754D01*
X13539400Y-14164754D02*
X13539400Y-14007611D01*
X13525114Y-13979040D01*
X13496543Y-13964754D01*
X13453686Y-13964754D01*
X13425114Y-13979040D01*
X13410828Y-13993326D01*
X13725114Y-14164754D02*
X13696543Y-14150469D01*
X13682257Y-14136183D01*
X13667971Y-14107611D01*
X13667971Y-14021897D01*
X13682257Y-13993326D01*
X13696543Y-13979040D01*
X13725114Y-13964754D01*
X13767971Y-13964754D01*
X13796543Y-13979040D01*
X13810828Y-13993326D01*
X13825114Y-14021897D01*
X13825114Y-14107611D01*
X13810828Y-14136183D01*
X13796543Y-14150469D01*
X13767971Y-14164754D01*
X13725114Y-14164754D01*
X13996543Y-14164754D02*
X13967971Y-14150469D01*
X13953686Y-14121897D01*
X13953686Y-13864754D01*
X14225114Y-14150469D02*
X14196543Y-14164754D01*
X14139400Y-14164754D01*
X14110828Y-14150469D01*
X14096543Y-14121897D01*
X14096543Y-14007611D01*
X14110828Y-13979040D01*
X14139400Y-13964754D01*
X14196543Y-13964754D01*
X14225114Y-13979040D01*
X14239400Y-14007611D01*
X14239400Y-14036183D01*
X14096543Y-14064754D01*
X14353686Y-14150469D02*
X14382257Y-14164754D01*
X14439400Y-14164754D01*
X14467971Y-14150469D01*
X14482257Y-14121897D01*
X14482257Y-14107611D01*
X14467971Y-14079040D01*
X14439400Y-14064754D01*
X14396543Y-14064754D01*
X14367971Y-14050469D01*
X14353686Y-14021897D01*
X14353686Y-14007611D01*
X14367971Y-13979040D01*
X14396543Y-13964754D01*
X14439400Y-13964754D01*
X14467971Y-13979040D01*
X14582257Y-14279040D02*
X14596543Y-14264754D01*
X14625114Y-14221897D01*
X14639400Y-14193326D01*
X14653686Y-14150469D01*
X14667971Y-14079040D01*
X14667971Y-14021897D01*
X14653686Y-13950469D01*
X14639400Y-13907611D01*
X14625114Y-13879040D01*
X14596543Y-13836183D01*
X14582257Y-13821897D01*
X7524400Y-14425040D02*
G75*
G03*
X7524400Y-14425040I-15000J0D01*
G01*
X7867971Y-14260754D02*
X7896543Y-14260754D01*
X7925114Y-14275040D01*
X7939400Y-14289326D01*
X7953686Y-14317897D01*
X7967971Y-14375040D01*
X7967971Y-14446469D01*
X7953686Y-14503611D01*
X7939400Y-14532183D01*
X7925114Y-14546469D01*
X7896543Y-14560754D01*
X7867971Y-14560754D01*
X7839400Y-14546469D01*
X7825114Y-14532183D01*
X7810828Y-14503611D01*
X7796543Y-14446469D01*
X7796543Y-14375040D01*
X7810828Y-14317897D01*
X7825114Y-14289326D01*
X7839400Y-14275040D01*
X7867971Y-14260754D01*
X8096543Y-14532183D02*
X8110828Y-14546469D01*
X8096543Y-14560754D01*
X8082257Y-14546469D01*
X8096543Y-14532183D01*
X8096543Y-14560754D01*
X8210828Y-14260754D02*
X8396543Y-14260754D01*
X8296543Y-14375040D01*
X8339400Y-14375040D01*
X8367971Y-14389326D01*
X8382257Y-14403611D01*
X8396543Y-14432183D01*
X8396543Y-14503611D01*
X8382257Y-14532183D01*
X8367971Y-14546469D01*
X8339400Y-14560754D01*
X8253686Y-14560754D01*
X8225114Y-14546469D01*
X8210828Y-14532183D01*
X8582257Y-14260754D02*
X8610828Y-14260754D01*
X8639400Y-14275040D01*
X8653686Y-14289326D01*
X8667971Y-14317897D01*
X8682257Y-14375040D01*
X8682257Y-14446469D01*
X8667971Y-14503611D01*
X8653686Y-14532183D01*
X8639400Y-14546469D01*
X8610828Y-14560754D01*
X8582257Y-14560754D01*
X8553686Y-14546469D01*
X8539400Y-14532183D01*
X8525114Y-14503611D01*
X8510828Y-14446469D01*
X8510828Y-14375040D01*
X8525114Y-14317897D01*
X8539400Y-14289326D01*
X8553686Y-14275040D01*
X8582257Y-14260754D01*
X8810828Y-14560754D02*
X8810828Y-14360754D01*
X8810828Y-14389326D02*
X8825114Y-14375040D01*
X8853686Y-14360754D01*
X8896543Y-14360754D01*
X8925114Y-14375040D01*
X8939400Y-14403611D01*
X8939400Y-14560754D01*
X8939400Y-14403611D02*
X8953686Y-14375040D01*
X8982257Y-14360754D01*
X9025114Y-14360754D01*
X9053686Y-14375040D01*
X9067971Y-14403611D01*
X9067971Y-14560754D01*
X9210828Y-14560754D02*
X9210828Y-14360754D01*
X9210828Y-14389326D02*
X9225114Y-14375040D01*
X9253686Y-14360754D01*
X9296543Y-14360754D01*
X9325114Y-14375040D01*
X9339400Y-14403611D01*
X9339400Y-14560754D01*
X9339400Y-14403611D02*
X9353686Y-14375040D01*
X9382257Y-14360754D01*
X9425114Y-14360754D01*
X9453686Y-14375040D01*
X9467971Y-14403611D01*
X9467971Y-14560754D01*
X10053686Y-14246469D02*
X9796543Y-14632183D01*
X10439400Y-14260754D02*
X10467971Y-14260754D01*
X10496543Y-14275040D01*
X10510828Y-14289326D01*
X10525114Y-14317897D01*
X10539400Y-14375040D01*
X10539400Y-14446469D01*
X10525114Y-14503611D01*
X10510828Y-14532183D01*
X10496543Y-14546469D01*
X10467971Y-14560754D01*
X10439400Y-14560754D01*
X10410828Y-14546469D01*
X10396543Y-14532183D01*
X10382257Y-14503611D01*
X10367971Y-14446469D01*
X10367971Y-14375040D01*
X10382257Y-14317897D01*
X10396543Y-14289326D01*
X10410828Y-14275040D01*
X10439400Y-14260754D01*
X10667971Y-14532183D02*
X10682257Y-14546469D01*
X10667971Y-14560754D01*
X10653686Y-14546469D01*
X10667971Y-14532183D01*
X10667971Y-14560754D01*
X10867971Y-14260754D02*
X10896543Y-14260754D01*
X10925114Y-14275040D01*
X10939400Y-14289326D01*
X10953686Y-14317897D01*
X10967971Y-14375040D01*
X10967971Y-14446469D01*
X10953686Y-14503611D01*
X10939400Y-14532183D01*
X10925114Y-14546469D01*
X10896543Y-14560754D01*
X10867971Y-14560754D01*
X10839400Y-14546469D01*
X10825114Y-14532183D01*
X10810828Y-14503611D01*
X10796543Y-14446469D01*
X10796543Y-14375040D01*
X10810828Y-14317897D01*
X10825114Y-14289326D01*
X10839400Y-14275040D01*
X10867971Y-14260754D01*
X11253686Y-14560754D02*
X11082257Y-14560754D01*
X11167971Y-14560754D02*
X11167971Y-14260754D01*
X11139400Y-14303611D01*
X11110828Y-14332183D01*
X11082257Y-14346469D01*
X11367971Y-14289326D02*
X11382257Y-14275040D01*
X11410828Y-14260754D01*
X11482257Y-14260754D01*
X11510828Y-14275040D01*
X11525114Y-14289326D01*
X11539400Y-14317897D01*
X11539400Y-14346469D01*
X11525114Y-14389326D01*
X11353686Y-14560754D01*
X11539400Y-14560754D01*
X11653686Y-14260754D02*
X11653686Y-14317897D01*
X11767971Y-14260754D02*
X11767971Y-14317897D01*
X12210828Y-14675040D02*
X12196543Y-14660754D01*
X12167971Y-14617897D01*
X12153686Y-14589326D01*
X12139400Y-14546469D01*
X12125114Y-14475040D01*
X12125114Y-14417897D01*
X12139400Y-14346469D01*
X12153686Y-14303611D01*
X12167971Y-14275040D01*
X12196543Y-14232183D01*
X12210828Y-14217897D01*
X12310828Y-14289326D02*
X12325114Y-14275040D01*
X12353686Y-14260754D01*
X12425114Y-14260754D01*
X12453686Y-14275040D01*
X12467971Y-14289326D01*
X12482257Y-14317897D01*
X12482257Y-14346469D01*
X12467971Y-14389326D01*
X12296543Y-14560754D01*
X12482257Y-14560754D01*
X12582257Y-14260754D02*
X12782257Y-14260754D01*
X12653686Y-14560754D01*
X13053686Y-14560754D02*
X12882257Y-14560754D01*
X12967971Y-14560754D02*
X12967971Y-14260754D01*
X12939400Y-14303611D01*
X12910828Y-14332183D01*
X12882257Y-14346469D01*
X13410828Y-14560754D02*
X13410828Y-14260754D01*
X13539400Y-14560754D02*
X13539400Y-14403611D01*
X13525114Y-14375040D01*
X13496543Y-14360754D01*
X13453686Y-14360754D01*
X13425114Y-14375040D01*
X13410828Y-14389326D01*
X13725114Y-14560754D02*
X13696543Y-14546469D01*
X13682257Y-14532183D01*
X13667971Y-14503611D01*
X13667971Y-14417897D01*
X13682257Y-14389326D01*
X13696543Y-14375040D01*
X13725114Y-14360754D01*
X13767971Y-14360754D01*
X13796543Y-14375040D01*
X13810828Y-14389326D01*
X13825114Y-14417897D01*
X13825114Y-14503611D01*
X13810828Y-14532183D01*
X13796543Y-14546469D01*
X13767971Y-14560754D01*
X13725114Y-14560754D01*
X13996543Y-14560754D02*
X13967971Y-14546469D01*
X13953686Y-14517897D01*
X13953686Y-14260754D01*
X14225114Y-14546469D02*
X14196543Y-14560754D01*
X14139400Y-14560754D01*
X14110828Y-14546469D01*
X14096543Y-14517897D01*
X14096543Y-14403611D01*
X14110828Y-14375040D01*
X14139400Y-14360754D01*
X14196543Y-14360754D01*
X14225114Y-14375040D01*
X14239400Y-14403611D01*
X14239400Y-14432183D01*
X14096543Y-14460754D01*
X14353686Y-14546469D02*
X14382257Y-14560754D01*
X14439400Y-14560754D01*
X14467971Y-14546469D01*
X14482257Y-14517897D01*
X14482257Y-14503611D01*
X14467971Y-14475040D01*
X14439400Y-14460754D01*
X14396543Y-14460754D01*
X14367971Y-14446469D01*
X14353686Y-14417897D01*
X14353686Y-14403611D01*
X14367971Y-14375040D01*
X14396543Y-14360754D01*
X14439400Y-14360754D01*
X14467971Y-14375040D01*
X14582257Y-14675040D02*
X14596543Y-14660754D01*
X14625114Y-14617897D01*
X14639400Y-14589326D01*
X14653686Y-14546469D01*
X14667971Y-14475040D01*
X14667971Y-14417897D01*
X14653686Y-14346469D01*
X14639400Y-14303611D01*
X14625114Y-14275040D01*
X14596543Y-14232183D01*
X14582257Y-14217897D01*
X7499400Y-14796040D02*
X7499400Y-14846040D01*
X7474400Y-14821040D02*
X7524400Y-14821040D01*
X7867971Y-14656754D02*
X7896543Y-14656754D01*
X7925114Y-14671040D01*
X7939400Y-14685326D01*
X7953686Y-14713897D01*
X7967971Y-14771040D01*
X7967971Y-14842469D01*
X7953686Y-14899611D01*
X7939400Y-14928183D01*
X7925114Y-14942469D01*
X7896543Y-14956754D01*
X7867971Y-14956754D01*
X7839400Y-14942469D01*
X7825114Y-14928183D01*
X7810828Y-14899611D01*
X7796543Y-14842469D01*
X7796543Y-14771040D01*
X7810828Y-14713897D01*
X7825114Y-14685326D01*
X7839400Y-14671040D01*
X7867971Y-14656754D01*
X8096543Y-14928183D02*
X8110828Y-14942469D01*
X8096543Y-14956754D01*
X8082257Y-14942469D01*
X8096543Y-14928183D01*
X8096543Y-14956754D01*
X8382257Y-14656754D02*
X8239400Y-14656754D01*
X8225114Y-14799611D01*
X8239400Y-14785326D01*
X8267971Y-14771040D01*
X8339400Y-14771040D01*
X8367971Y-14785326D01*
X8382257Y-14799611D01*
X8396543Y-14828183D01*
X8396543Y-14899611D01*
X8382257Y-14928183D01*
X8367971Y-14942469D01*
X8339400Y-14956754D01*
X8267971Y-14956754D01*
X8239400Y-14942469D01*
X8225114Y-14928183D01*
X8582257Y-14656754D02*
X8610828Y-14656754D01*
X8639400Y-14671040D01*
X8653686Y-14685326D01*
X8667971Y-14713897D01*
X8682257Y-14771040D01*
X8682257Y-14842469D01*
X8667971Y-14899611D01*
X8653686Y-14928183D01*
X8639400Y-14942469D01*
X8610828Y-14956754D01*
X8582257Y-14956754D01*
X8553686Y-14942469D01*
X8539400Y-14928183D01*
X8525114Y-14899611D01*
X8510828Y-14842469D01*
X8510828Y-14771040D01*
X8525114Y-14713897D01*
X8539400Y-14685326D01*
X8553686Y-14671040D01*
X8582257Y-14656754D01*
X8810828Y-14956754D02*
X8810828Y-14756754D01*
X8810828Y-14785326D02*
X8825114Y-14771040D01*
X8853686Y-14756754D01*
X8896543Y-14756754D01*
X8925114Y-14771040D01*
X8939400Y-14799611D01*
X8939400Y-14956754D01*
X8939400Y-14799611D02*
X8953686Y-14771040D01*
X8982257Y-14756754D01*
X9025114Y-14756754D01*
X9053686Y-14771040D01*
X9067971Y-14799611D01*
X9067971Y-14956754D01*
X9210828Y-14956754D02*
X9210828Y-14756754D01*
X9210828Y-14785326D02*
X9225114Y-14771040D01*
X9253686Y-14756754D01*
X9296543Y-14756754D01*
X9325114Y-14771040D01*
X9339400Y-14799611D01*
X9339400Y-14956754D01*
X9339400Y-14799611D02*
X9353686Y-14771040D01*
X9382257Y-14756754D01*
X9425114Y-14756754D01*
X9453686Y-14771040D01*
X9467971Y-14799611D01*
X9467971Y-14956754D01*
X10053686Y-14642469D02*
X9796543Y-15028183D01*
X10439400Y-14656754D02*
X10467971Y-14656754D01*
X10496543Y-14671040D01*
X10510828Y-14685326D01*
X10525114Y-14713897D01*
X10539400Y-14771040D01*
X10539400Y-14842469D01*
X10525114Y-14899611D01*
X10510828Y-14928183D01*
X10496543Y-14942469D01*
X10467971Y-14956754D01*
X10439400Y-14956754D01*
X10410828Y-14942469D01*
X10396543Y-14928183D01*
X10382257Y-14899611D01*
X10367971Y-14842469D01*
X10367971Y-14771040D01*
X10382257Y-14713897D01*
X10396543Y-14685326D01*
X10410828Y-14671040D01*
X10439400Y-14656754D01*
X10667971Y-14928183D02*
X10682257Y-14942469D01*
X10667971Y-14956754D01*
X10653686Y-14942469D01*
X10667971Y-14928183D01*
X10667971Y-14956754D01*
X10867971Y-14656754D02*
X10896543Y-14656754D01*
X10925114Y-14671040D01*
X10939400Y-14685326D01*
X10953686Y-14713897D01*
X10967971Y-14771040D01*
X10967971Y-14842469D01*
X10953686Y-14899611D01*
X10939400Y-14928183D01*
X10925114Y-14942469D01*
X10896543Y-14956754D01*
X10867971Y-14956754D01*
X10839400Y-14942469D01*
X10825114Y-14928183D01*
X10810828Y-14899611D01*
X10796543Y-14842469D01*
X10796543Y-14771040D01*
X10810828Y-14713897D01*
X10825114Y-14685326D01*
X10839400Y-14671040D01*
X10867971Y-14656754D01*
X11082257Y-14685326D02*
X11096543Y-14671040D01*
X11125114Y-14656754D01*
X11196543Y-14656754D01*
X11225114Y-14671040D01*
X11239400Y-14685326D01*
X11253686Y-14713897D01*
X11253686Y-14742469D01*
X11239400Y-14785326D01*
X11067971Y-14956754D01*
X11253686Y-14956754D01*
X11439400Y-14656754D02*
X11467971Y-14656754D01*
X11496543Y-14671040D01*
X11510828Y-14685326D01*
X11525114Y-14713897D01*
X11539400Y-14771040D01*
X11539400Y-14842469D01*
X11525114Y-14899611D01*
X11510828Y-14928183D01*
X11496543Y-14942469D01*
X11467971Y-14956754D01*
X11439400Y-14956754D01*
X11410828Y-14942469D01*
X11396543Y-14928183D01*
X11382257Y-14899611D01*
X11367971Y-14842469D01*
X11367971Y-14771040D01*
X11382257Y-14713897D01*
X11396543Y-14685326D01*
X11410828Y-14671040D01*
X11439400Y-14656754D01*
X11653686Y-14656754D02*
X11653686Y-14713897D01*
X11767971Y-14656754D02*
X11767971Y-14713897D01*
X12210828Y-15071040D02*
X12196543Y-15056754D01*
X12167971Y-15013897D01*
X12153686Y-14985326D01*
X12139400Y-14942469D01*
X12125114Y-14871040D01*
X12125114Y-14813897D01*
X12139400Y-14742469D01*
X12153686Y-14699611D01*
X12167971Y-14671040D01*
X12196543Y-14628183D01*
X12210828Y-14613897D01*
X12296543Y-14656754D02*
X12482257Y-14656754D01*
X12382257Y-14771040D01*
X12425114Y-14771040D01*
X12453686Y-14785326D01*
X12467971Y-14799611D01*
X12482257Y-14828183D01*
X12482257Y-14899611D01*
X12467971Y-14928183D01*
X12453686Y-14942469D01*
X12425114Y-14956754D01*
X12339400Y-14956754D01*
X12310828Y-14942469D01*
X12296543Y-14928183D01*
X12753686Y-14656754D02*
X12610828Y-14656754D01*
X12596543Y-14799611D01*
X12610828Y-14785326D01*
X12639400Y-14771040D01*
X12710828Y-14771040D01*
X12739400Y-14785326D01*
X12753686Y-14799611D01*
X12767971Y-14828183D01*
X12767971Y-14899611D01*
X12753686Y-14928183D01*
X12739400Y-14942469D01*
X12710828Y-14956754D01*
X12639400Y-14956754D01*
X12610828Y-14942469D01*
X12596543Y-14928183D01*
X13125114Y-14956754D02*
X13125114Y-14656754D01*
X13253686Y-14956754D02*
X13253686Y-14799611D01*
X13239400Y-14771040D01*
X13210828Y-14756754D01*
X13167971Y-14756754D01*
X13139400Y-14771040D01*
X13125114Y-14785326D01*
X13439400Y-14956754D02*
X13410828Y-14942469D01*
X13396543Y-14928183D01*
X13382257Y-14899611D01*
X13382257Y-14813897D01*
X13396543Y-14785326D01*
X13410828Y-14771040D01*
X13439400Y-14756754D01*
X13482257Y-14756754D01*
X13510828Y-14771040D01*
X13525114Y-14785326D01*
X13539400Y-14813897D01*
X13539400Y-14899611D01*
X13525114Y-14928183D01*
X13510828Y-14942469D01*
X13482257Y-14956754D01*
X13439400Y-14956754D01*
X13710828Y-14956754D02*
X13682257Y-14942469D01*
X13667971Y-14913897D01*
X13667971Y-14656754D01*
X13939400Y-14942469D02*
X13910828Y-14956754D01*
X13853686Y-14956754D01*
X13825114Y-14942469D01*
X13810828Y-14913897D01*
X13810828Y-14799611D01*
X13825114Y-14771040D01*
X13853686Y-14756754D01*
X13910828Y-14756754D01*
X13939400Y-14771040D01*
X13953686Y-14799611D01*
X13953686Y-14828183D01*
X13810828Y-14856754D01*
X14067971Y-14942469D02*
X14096543Y-14956754D01*
X14153686Y-14956754D01*
X14182257Y-14942469D01*
X14196543Y-14913897D01*
X14196543Y-14899611D01*
X14182257Y-14871040D01*
X14153686Y-14856754D01*
X14110828Y-14856754D01*
X14082257Y-14842469D01*
X14067971Y-14813897D01*
X14067971Y-14799611D01*
X14082257Y-14771040D01*
X14110828Y-14756754D01*
X14153686Y-14756754D01*
X14182257Y-14771040D01*
X14296543Y-15071040D02*
X14310828Y-15056754D01*
X14339400Y-15013897D01*
X14353686Y-14985326D01*
X14367971Y-14942469D01*
X14382257Y-14871040D01*
X14382257Y-14813897D01*
X14367971Y-14742469D01*
X14353686Y-14699611D01*
X14339400Y-14671040D01*
X14310828Y-14628183D01*
X14296543Y-14613897D01*
X7514881Y-15240021D02*
X7514881Y-15194059D01*
X7468919Y-15194059D01*
X7468919Y-15240021D01*
X7514881Y-15240021D01*
X7867971Y-15052754D02*
X7896543Y-15052754D01*
X7925114Y-15067040D01*
X7939400Y-15081326D01*
X7953686Y-15109897D01*
X7967971Y-15167040D01*
X7967971Y-15238469D01*
X7953686Y-15295611D01*
X7939400Y-15324183D01*
X7925114Y-15338469D01*
X7896543Y-15352754D01*
X7867971Y-15352754D01*
X7839400Y-15338469D01*
X7825114Y-15324183D01*
X7810828Y-15295611D01*
X7796543Y-15238469D01*
X7796543Y-15167040D01*
X7810828Y-15109897D01*
X7825114Y-15081326D01*
X7839400Y-15067040D01*
X7867971Y-15052754D01*
X8096543Y-15324183D02*
X8110828Y-15338469D01*
X8096543Y-15352754D01*
X8082257Y-15338469D01*
X8096543Y-15324183D01*
X8096543Y-15352754D01*
X8367971Y-15052754D02*
X8310828Y-15052754D01*
X8282257Y-15067040D01*
X8267971Y-15081326D01*
X8239400Y-15124183D01*
X8225114Y-15181326D01*
X8225114Y-15295611D01*
X8239400Y-15324183D01*
X8253686Y-15338469D01*
X8282257Y-15352754D01*
X8339400Y-15352754D01*
X8367971Y-15338469D01*
X8382257Y-15324183D01*
X8396543Y-15295611D01*
X8396543Y-15224183D01*
X8382257Y-15195611D01*
X8367971Y-15181326D01*
X8339400Y-15167040D01*
X8282257Y-15167040D01*
X8253686Y-15181326D01*
X8239400Y-15195611D01*
X8225114Y-15224183D01*
X8667971Y-15052754D02*
X8525114Y-15052754D01*
X8510828Y-15195611D01*
X8525114Y-15181326D01*
X8553686Y-15167040D01*
X8625114Y-15167040D01*
X8653686Y-15181326D01*
X8667971Y-15195611D01*
X8682257Y-15224183D01*
X8682257Y-15295611D01*
X8667971Y-15324183D01*
X8653686Y-15338469D01*
X8625114Y-15352754D01*
X8553686Y-15352754D01*
X8525114Y-15338469D01*
X8510828Y-15324183D01*
X8810828Y-15352754D02*
X8810828Y-15152754D01*
X8810828Y-15181326D02*
X8825114Y-15167040D01*
X8853686Y-15152754D01*
X8896543Y-15152754D01*
X8925114Y-15167040D01*
X8939400Y-15195611D01*
X8939400Y-15352754D01*
X8939400Y-15195611D02*
X8953686Y-15167040D01*
X8982257Y-15152754D01*
X9025114Y-15152754D01*
X9053686Y-15167040D01*
X9067971Y-15195611D01*
X9067971Y-15352754D01*
X9210828Y-15352754D02*
X9210828Y-15152754D01*
X9210828Y-15181326D02*
X9225114Y-15167040D01*
X9253686Y-15152754D01*
X9296543Y-15152754D01*
X9325114Y-15167040D01*
X9339400Y-15195611D01*
X9339400Y-15352754D01*
X9339400Y-15195611D02*
X9353686Y-15167040D01*
X9382257Y-15152754D01*
X9425114Y-15152754D01*
X9453686Y-15167040D01*
X9467971Y-15195611D01*
X9467971Y-15352754D01*
X10053686Y-15038469D02*
X9796543Y-15424183D01*
X10439400Y-15052754D02*
X10467971Y-15052754D01*
X10496543Y-15067040D01*
X10510828Y-15081326D01*
X10525114Y-15109897D01*
X10539400Y-15167040D01*
X10539400Y-15238469D01*
X10525114Y-15295611D01*
X10510828Y-15324183D01*
X10496543Y-15338469D01*
X10467971Y-15352754D01*
X10439400Y-15352754D01*
X10410828Y-15338469D01*
X10396543Y-15324183D01*
X10382257Y-15295611D01*
X10367971Y-15238469D01*
X10367971Y-15167040D01*
X10382257Y-15109897D01*
X10396543Y-15081326D01*
X10410828Y-15067040D01*
X10439400Y-15052754D01*
X10667971Y-15324183D02*
X10682257Y-15338469D01*
X10667971Y-15352754D01*
X10653686Y-15338469D01*
X10667971Y-15324183D01*
X10667971Y-15352754D01*
X10867971Y-15052754D02*
X10896543Y-15052754D01*
X10925114Y-15067040D01*
X10939400Y-15081326D01*
X10953686Y-15109897D01*
X10967971Y-15167040D01*
X10967971Y-15238469D01*
X10953686Y-15295611D01*
X10939400Y-15324183D01*
X10925114Y-15338469D01*
X10896543Y-15352754D01*
X10867971Y-15352754D01*
X10839400Y-15338469D01*
X10825114Y-15324183D01*
X10810828Y-15295611D01*
X10796543Y-15238469D01*
X10796543Y-15167040D01*
X10810828Y-15109897D01*
X10825114Y-15081326D01*
X10839400Y-15067040D01*
X10867971Y-15052754D01*
X11082257Y-15081326D02*
X11096543Y-15067040D01*
X11125114Y-15052754D01*
X11196543Y-15052754D01*
X11225114Y-15067040D01*
X11239400Y-15081326D01*
X11253686Y-15109897D01*
X11253686Y-15138469D01*
X11239400Y-15181326D01*
X11067971Y-15352754D01*
X11253686Y-15352754D01*
X11510828Y-15052754D02*
X11453686Y-15052754D01*
X11425114Y-15067040D01*
X11410828Y-15081326D01*
X11382257Y-15124183D01*
X11367971Y-15181326D01*
X11367971Y-15295611D01*
X11382257Y-15324183D01*
X11396543Y-15338469D01*
X11425114Y-15352754D01*
X11482257Y-15352754D01*
X11510828Y-15338469D01*
X11525114Y-15324183D01*
X11539400Y-15295611D01*
X11539400Y-15224183D01*
X11525114Y-15195611D01*
X11510828Y-15181326D01*
X11482257Y-15167040D01*
X11425114Y-15167040D01*
X11396543Y-15181326D01*
X11382257Y-15195611D01*
X11367971Y-15224183D01*
X11653686Y-15052754D02*
X11653686Y-15109897D01*
X11767971Y-15052754D02*
X11767971Y-15109897D01*
X12210828Y-15467040D02*
X12196543Y-15452754D01*
X12167971Y-15409897D01*
X12153686Y-15381326D01*
X12139400Y-15338469D01*
X12125114Y-15267040D01*
X12125114Y-15209897D01*
X12139400Y-15138469D01*
X12153686Y-15095611D01*
X12167971Y-15067040D01*
X12196543Y-15024183D01*
X12210828Y-15009897D01*
X12453686Y-15152754D02*
X12453686Y-15352754D01*
X12382257Y-15038469D02*
X12310828Y-15252754D01*
X12496543Y-15252754D01*
X12839400Y-15352754D02*
X12839400Y-15052754D01*
X12967971Y-15352754D02*
X12967971Y-15195611D01*
X12953686Y-15167040D01*
X12925114Y-15152754D01*
X12882257Y-15152754D01*
X12853686Y-15167040D01*
X12839400Y-15181326D01*
X13153686Y-15352754D02*
X13125114Y-15338469D01*
X13110828Y-15324183D01*
X13096543Y-15295611D01*
X13096543Y-15209897D01*
X13110828Y-15181326D01*
X13125114Y-15167040D01*
X13153686Y-15152754D01*
X13196543Y-15152754D01*
X13225114Y-15167040D01*
X13239400Y-15181326D01*
X13253686Y-15209897D01*
X13253686Y-15295611D01*
X13239400Y-15324183D01*
X13225114Y-15338469D01*
X13196543Y-15352754D01*
X13153686Y-15352754D01*
X13425114Y-15352754D02*
X13396543Y-15338469D01*
X13382257Y-15309897D01*
X13382257Y-15052754D01*
X13653686Y-15338469D02*
X13625114Y-15352754D01*
X13567971Y-15352754D01*
X13539400Y-15338469D01*
X13525114Y-15309897D01*
X13525114Y-15195611D01*
X13539400Y-15167040D01*
X13567971Y-15152754D01*
X13625114Y-15152754D01*
X13653686Y-15167040D01*
X13667971Y-15195611D01*
X13667971Y-15224183D01*
X13525114Y-15252754D01*
X13782257Y-15338469D02*
X13810828Y-15352754D01*
X13867971Y-15352754D01*
X13896543Y-15338469D01*
X13910828Y-15309897D01*
X13910828Y-15295611D01*
X13896543Y-15267040D01*
X13867971Y-15252754D01*
X13825114Y-15252754D01*
X13796543Y-15238469D01*
X13782257Y-15209897D01*
X13782257Y-15195611D01*
X13796543Y-15167040D01*
X13825114Y-15152754D01*
X13867971Y-15152754D01*
X13896543Y-15167040D01*
X14010828Y-15467040D02*
X14025114Y-15452754D01*
X14053686Y-15409897D01*
X14067971Y-15381326D01*
X14082257Y-15338469D01*
X14096543Y-15267040D01*
X14096543Y-15209897D01*
X14082257Y-15138469D01*
X14067971Y-15095611D01*
X14053686Y-15067040D01*
X14025114Y-15024183D01*
X14010828Y-15009897D01*
X7474400Y-15663040D02*
X7524400Y-15613040D01*
X7474400Y-15563040D01*
X7424400Y-15613040D01*
X7474400Y-15663040D01*
X7967971Y-15748754D02*
X7796543Y-15748754D01*
X7882257Y-15748754D02*
X7882257Y-15448754D01*
X7853686Y-15491611D01*
X7825114Y-15520183D01*
X7796543Y-15534469D01*
X8096543Y-15720183D02*
X8110828Y-15734469D01*
X8096543Y-15748754D01*
X8082257Y-15734469D01*
X8096543Y-15720183D01*
X8096543Y-15748754D01*
X8296543Y-15448754D02*
X8325114Y-15448754D01*
X8353686Y-15463040D01*
X8367971Y-15477326D01*
X8382257Y-15505897D01*
X8396543Y-15563040D01*
X8396543Y-15634469D01*
X8382257Y-15691611D01*
X8367971Y-15720183D01*
X8353686Y-15734469D01*
X8325114Y-15748754D01*
X8296543Y-15748754D01*
X8267971Y-15734469D01*
X8253686Y-15720183D01*
X8239400Y-15691611D01*
X8225114Y-15634469D01*
X8225114Y-15563040D01*
X8239400Y-15505897D01*
X8253686Y-15477326D01*
X8267971Y-15463040D01*
X8296543Y-15448754D01*
X8582257Y-15448754D02*
X8610828Y-15448754D01*
X8639400Y-15463040D01*
X8653686Y-15477326D01*
X8667971Y-15505897D01*
X8682257Y-15563040D01*
X8682257Y-15634469D01*
X8667971Y-15691611D01*
X8653686Y-15720183D01*
X8639400Y-15734469D01*
X8610828Y-15748754D01*
X8582257Y-15748754D01*
X8553686Y-15734469D01*
X8539400Y-15720183D01*
X8525114Y-15691611D01*
X8510828Y-15634469D01*
X8510828Y-15563040D01*
X8525114Y-15505897D01*
X8539400Y-15477326D01*
X8553686Y-15463040D01*
X8582257Y-15448754D01*
X8810828Y-15748754D02*
X8810828Y-15548754D01*
X8810828Y-15577326D02*
X8825114Y-15563040D01*
X8853686Y-15548754D01*
X8896543Y-15548754D01*
X8925114Y-15563040D01*
X8939400Y-15591611D01*
X8939400Y-15748754D01*
X8939400Y-15591611D02*
X8953686Y-15563040D01*
X8982257Y-15548754D01*
X9025114Y-15548754D01*
X9053686Y-15563040D01*
X9067971Y-15591611D01*
X9067971Y-15748754D01*
X9210828Y-15748754D02*
X9210828Y-15548754D01*
X9210828Y-15577326D02*
X9225114Y-15563040D01*
X9253686Y-15548754D01*
X9296543Y-15548754D01*
X9325114Y-15563040D01*
X9339400Y-15591611D01*
X9339400Y-15748754D01*
X9339400Y-15591611D02*
X9353686Y-15563040D01*
X9382257Y-15548754D01*
X9425114Y-15548754D01*
X9453686Y-15563040D01*
X9467971Y-15591611D01*
X9467971Y-15748754D01*
X10053686Y-15434469D02*
X9796543Y-15820183D01*
X10439400Y-15448754D02*
X10467971Y-15448754D01*
X10496543Y-15463040D01*
X10510828Y-15477326D01*
X10525114Y-15505897D01*
X10539400Y-15563040D01*
X10539400Y-15634469D01*
X10525114Y-15691611D01*
X10510828Y-15720183D01*
X10496543Y-15734469D01*
X10467971Y-15748754D01*
X10439400Y-15748754D01*
X10410828Y-15734469D01*
X10396543Y-15720183D01*
X10382257Y-15691611D01*
X10367971Y-15634469D01*
X10367971Y-15563040D01*
X10382257Y-15505897D01*
X10396543Y-15477326D01*
X10410828Y-15463040D01*
X10439400Y-15448754D01*
X10667971Y-15720183D02*
X10682257Y-15734469D01*
X10667971Y-15748754D01*
X10653686Y-15734469D01*
X10667971Y-15720183D01*
X10667971Y-15748754D01*
X10867971Y-15448754D02*
X10896543Y-15448754D01*
X10925114Y-15463040D01*
X10939400Y-15477326D01*
X10953686Y-15505897D01*
X10967971Y-15563040D01*
X10967971Y-15634469D01*
X10953686Y-15691611D01*
X10939400Y-15720183D01*
X10925114Y-15734469D01*
X10896543Y-15748754D01*
X10867971Y-15748754D01*
X10839400Y-15734469D01*
X10825114Y-15720183D01*
X10810828Y-15691611D01*
X10796543Y-15634469D01*
X10796543Y-15563040D01*
X10810828Y-15505897D01*
X10825114Y-15477326D01*
X10839400Y-15463040D01*
X10867971Y-15448754D01*
X11067971Y-15448754D02*
X11253686Y-15448754D01*
X11153686Y-15563040D01*
X11196543Y-15563040D01*
X11225114Y-15577326D01*
X11239400Y-15591611D01*
X11253686Y-15620183D01*
X11253686Y-15691611D01*
X11239400Y-15720183D01*
X11225114Y-15734469D01*
X11196543Y-15748754D01*
X11110828Y-15748754D01*
X11082257Y-15734469D01*
X11067971Y-15720183D01*
X11396543Y-15748754D02*
X11453686Y-15748754D01*
X11482257Y-15734469D01*
X11496543Y-15720183D01*
X11525114Y-15677326D01*
X11539400Y-15620183D01*
X11539400Y-15505897D01*
X11525114Y-15477326D01*
X11510828Y-15463040D01*
X11482257Y-15448754D01*
X11425114Y-15448754D01*
X11396543Y-15463040D01*
X11382257Y-15477326D01*
X11367971Y-15505897D01*
X11367971Y-15577326D01*
X11382257Y-15605897D01*
X11396543Y-15620183D01*
X11425114Y-15634469D01*
X11482257Y-15634469D01*
X11510828Y-15620183D01*
X11525114Y-15605897D01*
X11539400Y-15577326D01*
X11653686Y-15448754D02*
X11653686Y-15505897D01*
X11767971Y-15448754D02*
X11767971Y-15505897D01*
X12210828Y-15863040D02*
X12196543Y-15848754D01*
X12167971Y-15805897D01*
X12153686Y-15777326D01*
X12139400Y-15734469D01*
X12125114Y-15663040D01*
X12125114Y-15605897D01*
X12139400Y-15534469D01*
X12153686Y-15491611D01*
X12167971Y-15463040D01*
X12196543Y-15420183D01*
X12210828Y-15405897D01*
X12467971Y-15448754D02*
X12325114Y-15448754D01*
X12310828Y-15591611D01*
X12325114Y-15577326D01*
X12353686Y-15563040D01*
X12425114Y-15563040D01*
X12453686Y-15577326D01*
X12467971Y-15591611D01*
X12482257Y-15620183D01*
X12482257Y-15691611D01*
X12467971Y-15720183D01*
X12453686Y-15734469D01*
X12425114Y-15748754D01*
X12353686Y-15748754D01*
X12325114Y-15734469D01*
X12310828Y-15720183D01*
X12582257Y-15448754D02*
X12767971Y-15448754D01*
X12667971Y-15563040D01*
X12710828Y-15563040D01*
X12739400Y-15577326D01*
X12753686Y-15591611D01*
X12767971Y-15620183D01*
X12767971Y-15691611D01*
X12753686Y-15720183D01*
X12739400Y-15734469D01*
X12710828Y-15748754D01*
X12625114Y-15748754D01*
X12596543Y-15734469D01*
X12582257Y-15720183D01*
X13125114Y-15748754D02*
X13125114Y-15448754D01*
X13253686Y-15748754D02*
X13253686Y-15591611D01*
X13239400Y-15563040D01*
X13210828Y-15548754D01*
X13167971Y-15548754D01*
X13139400Y-15563040D01*
X13125114Y-15577326D01*
X13439400Y-15748754D02*
X13410828Y-15734469D01*
X13396543Y-15720183D01*
X13382257Y-15691611D01*
X13382257Y-15605897D01*
X13396543Y-15577326D01*
X13410828Y-15563040D01*
X13439400Y-15548754D01*
X13482257Y-15548754D01*
X13510828Y-15563040D01*
X13525114Y-15577326D01*
X13539400Y-15605897D01*
X13539400Y-15691611D01*
X13525114Y-15720183D01*
X13510828Y-15734469D01*
X13482257Y-15748754D01*
X13439400Y-15748754D01*
X13710828Y-15748754D02*
X13682257Y-15734469D01*
X13667971Y-15705897D01*
X13667971Y-15448754D01*
X13939400Y-15734469D02*
X13910828Y-15748754D01*
X13853686Y-15748754D01*
X13825114Y-15734469D01*
X13810828Y-15705897D01*
X13810828Y-15591611D01*
X13825114Y-15563040D01*
X13853686Y-15548754D01*
X13910828Y-15548754D01*
X13939400Y-15563040D01*
X13953686Y-15591611D01*
X13953686Y-15620183D01*
X13810828Y-15648754D01*
X14067971Y-15734469D02*
X14096543Y-15748754D01*
X14153686Y-15748754D01*
X14182257Y-15734469D01*
X14196543Y-15705897D01*
X14196543Y-15691611D01*
X14182257Y-15663040D01*
X14153686Y-15648754D01*
X14110828Y-15648754D01*
X14082257Y-15634469D01*
X14067971Y-15605897D01*
X14067971Y-15591611D01*
X14082257Y-15563040D01*
X14110828Y-15548754D01*
X14153686Y-15548754D01*
X14182257Y-15563040D01*
X14296543Y-15863040D02*
X14310828Y-15848754D01*
X14339400Y-15805897D01*
X14353686Y-15777326D01*
X14367971Y-15734469D01*
X14382257Y-15663040D01*
X14382257Y-15605897D01*
X14367971Y-15534469D01*
X14353686Y-15491611D01*
X14339400Y-15463040D01*
X14310828Y-15420183D01*
X14296543Y-15405897D01*
X7422400Y-15958040D02*
X7524400Y-16060040D01*
X7524400Y-15958040D02*
X7422400Y-16060040D01*
X7524400Y-16009040D02*
G75*
G03*
X7524400Y-16009040I-51000J0D01*
G01*
X7967971Y-16144754D02*
X7796543Y-16144754D01*
X7882257Y-16144754D02*
X7882257Y-15844754D01*
X7853686Y-15887611D01*
X7825114Y-15916183D01*
X7796543Y-15930469D01*
X8096543Y-16116183D02*
X8110828Y-16130469D01*
X8096543Y-16144754D01*
X8082257Y-16130469D01*
X8096543Y-16116183D01*
X8096543Y-16144754D01*
X8296543Y-15844754D02*
X8325114Y-15844754D01*
X8353686Y-15859040D01*
X8367971Y-15873326D01*
X8382257Y-15901897D01*
X8396543Y-15959040D01*
X8396543Y-16030469D01*
X8382257Y-16087611D01*
X8367971Y-16116183D01*
X8353686Y-16130469D01*
X8325114Y-16144754D01*
X8296543Y-16144754D01*
X8267971Y-16130469D01*
X8253686Y-16116183D01*
X8239400Y-16087611D01*
X8225114Y-16030469D01*
X8225114Y-15959040D01*
X8239400Y-15901897D01*
X8253686Y-15873326D01*
X8267971Y-15859040D01*
X8296543Y-15844754D01*
X8510828Y-15873326D02*
X8525114Y-15859040D01*
X8553686Y-15844754D01*
X8625114Y-15844754D01*
X8653686Y-15859040D01*
X8667971Y-15873326D01*
X8682257Y-15901897D01*
X8682257Y-15930469D01*
X8667971Y-15973326D01*
X8496543Y-16144754D01*
X8682257Y-16144754D01*
X8810828Y-16144754D02*
X8810828Y-15944754D01*
X8810828Y-15973326D02*
X8825114Y-15959040D01*
X8853686Y-15944754D01*
X8896543Y-15944754D01*
X8925114Y-15959040D01*
X8939400Y-15987611D01*
X8939400Y-16144754D01*
X8939400Y-15987611D02*
X8953686Y-15959040D01*
X8982257Y-15944754D01*
X9025114Y-15944754D01*
X9053686Y-15959040D01*
X9067971Y-15987611D01*
X9067971Y-16144754D01*
X9210828Y-16144754D02*
X9210828Y-15944754D01*
X9210828Y-15973326D02*
X9225114Y-15959040D01*
X9253686Y-15944754D01*
X9296543Y-15944754D01*
X9325114Y-15959040D01*
X9339400Y-15987611D01*
X9339400Y-16144754D01*
X9339400Y-15987611D02*
X9353686Y-15959040D01*
X9382257Y-15944754D01*
X9425114Y-15944754D01*
X9453686Y-15959040D01*
X9467971Y-15987611D01*
X9467971Y-16144754D01*
X10053686Y-15830469D02*
X9796543Y-16216183D01*
X10439400Y-15844754D02*
X10467971Y-15844754D01*
X10496543Y-15859040D01*
X10510828Y-15873326D01*
X10525114Y-15901897D01*
X10539400Y-15959040D01*
X10539400Y-16030469D01*
X10525114Y-16087611D01*
X10510828Y-16116183D01*
X10496543Y-16130469D01*
X10467971Y-16144754D01*
X10439400Y-16144754D01*
X10410828Y-16130469D01*
X10396543Y-16116183D01*
X10382257Y-16087611D01*
X10367971Y-16030469D01*
X10367971Y-15959040D01*
X10382257Y-15901897D01*
X10396543Y-15873326D01*
X10410828Y-15859040D01*
X10439400Y-15844754D01*
X10667971Y-16116183D02*
X10682257Y-16130469D01*
X10667971Y-16144754D01*
X10653686Y-16130469D01*
X10667971Y-16116183D01*
X10667971Y-16144754D01*
X10867971Y-15844754D02*
X10896543Y-15844754D01*
X10925114Y-15859040D01*
X10939400Y-15873326D01*
X10953686Y-15901897D01*
X10967971Y-15959040D01*
X10967971Y-16030469D01*
X10953686Y-16087611D01*
X10939400Y-16116183D01*
X10925114Y-16130469D01*
X10896543Y-16144754D01*
X10867971Y-16144754D01*
X10839400Y-16130469D01*
X10825114Y-16116183D01*
X10810828Y-16087611D01*
X10796543Y-16030469D01*
X10796543Y-15959040D01*
X10810828Y-15901897D01*
X10825114Y-15873326D01*
X10839400Y-15859040D01*
X10867971Y-15844754D01*
X11225114Y-15944754D02*
X11225114Y-16144754D01*
X11153686Y-15830469D02*
X11082257Y-16044754D01*
X11267971Y-16044754D01*
X11439400Y-15844754D02*
X11467971Y-15844754D01*
X11496543Y-15859040D01*
X11510828Y-15873326D01*
X11525114Y-15901897D01*
X11539400Y-15959040D01*
X11539400Y-16030469D01*
X11525114Y-16087611D01*
X11510828Y-16116183D01*
X11496543Y-16130469D01*
X11467971Y-16144754D01*
X11439400Y-16144754D01*
X11410828Y-16130469D01*
X11396543Y-16116183D01*
X11382257Y-16087611D01*
X11367971Y-16030469D01*
X11367971Y-15959040D01*
X11382257Y-15901897D01*
X11396543Y-15873326D01*
X11410828Y-15859040D01*
X11439400Y-15844754D01*
X11653686Y-15844754D02*
X11653686Y-15901897D01*
X11767971Y-15844754D02*
X11767971Y-15901897D01*
X12210828Y-16259040D02*
X12196543Y-16244754D01*
X12167971Y-16201897D01*
X12153686Y-16173326D01*
X12139400Y-16130469D01*
X12125114Y-16059040D01*
X12125114Y-16001897D01*
X12139400Y-15930469D01*
X12153686Y-15887611D01*
X12167971Y-15859040D01*
X12196543Y-15816183D01*
X12210828Y-15801897D01*
X12367971Y-15973326D02*
X12339400Y-15959040D01*
X12325114Y-15944754D01*
X12310828Y-15916183D01*
X12310828Y-15901897D01*
X12325114Y-15873326D01*
X12339400Y-15859040D01*
X12367971Y-15844754D01*
X12425114Y-15844754D01*
X12453686Y-15859040D01*
X12467971Y-15873326D01*
X12482257Y-15901897D01*
X12482257Y-15916183D01*
X12467971Y-15944754D01*
X12453686Y-15959040D01*
X12425114Y-15973326D01*
X12367971Y-15973326D01*
X12339400Y-15987611D01*
X12325114Y-16001897D01*
X12310828Y-16030469D01*
X12310828Y-16087611D01*
X12325114Y-16116183D01*
X12339400Y-16130469D01*
X12367971Y-16144754D01*
X12425114Y-16144754D01*
X12453686Y-16130469D01*
X12467971Y-16116183D01*
X12482257Y-16087611D01*
X12482257Y-16030469D01*
X12467971Y-16001897D01*
X12453686Y-15987611D01*
X12425114Y-15973326D01*
X12839400Y-16144754D02*
X12839400Y-15844754D01*
X12967971Y-16144754D02*
X12967971Y-15987611D01*
X12953686Y-15959040D01*
X12925114Y-15944754D01*
X12882257Y-15944754D01*
X12853686Y-15959040D01*
X12839400Y-15973326D01*
X13153686Y-16144754D02*
X13125114Y-16130469D01*
X13110828Y-16116183D01*
X13096543Y-16087611D01*
X13096543Y-16001897D01*
X13110828Y-15973326D01*
X13125114Y-15959040D01*
X13153686Y-15944754D01*
X13196543Y-15944754D01*
X13225114Y-15959040D01*
X13239400Y-15973326D01*
X13253686Y-16001897D01*
X13253686Y-16087611D01*
X13239400Y-16116183D01*
X13225114Y-16130469D01*
X13196543Y-16144754D01*
X13153686Y-16144754D01*
X13425114Y-16144754D02*
X13396543Y-16130469D01*
X13382257Y-16101897D01*
X13382257Y-15844754D01*
X13653686Y-16130469D02*
X13625114Y-16144754D01*
X13567971Y-16144754D01*
X13539400Y-16130469D01*
X13525114Y-16101897D01*
X13525114Y-15987611D01*
X13539400Y-15959040D01*
X13567971Y-15944754D01*
X13625114Y-15944754D01*
X13653686Y-15959040D01*
X13667971Y-15987611D01*
X13667971Y-16016183D01*
X13525114Y-16044754D01*
X13782257Y-16130469D02*
X13810828Y-16144754D01*
X13867971Y-16144754D01*
X13896543Y-16130469D01*
X13910828Y-16101897D01*
X13910828Y-16087611D01*
X13896543Y-16059040D01*
X13867971Y-16044754D01*
X13825114Y-16044754D01*
X13796543Y-16030469D01*
X13782257Y-16001897D01*
X13782257Y-15987611D01*
X13796543Y-15959040D01*
X13825114Y-15944754D01*
X13867971Y-15944754D01*
X13896543Y-15959040D01*
X14010828Y-16259040D02*
X14025114Y-16244754D01*
X14053686Y-16201897D01*
X14067971Y-16173326D01*
X14082257Y-16130469D01*
X14096543Y-16059040D01*
X14096543Y-16001897D01*
X14082257Y-15930469D01*
X14067971Y-15887611D01*
X14053686Y-15859040D01*
X14025114Y-15816183D01*
X14010828Y-15801897D01*
X7254400Y-16270040D02*
X7524400Y-16540040D01*
X7524400Y-16270040D02*
X7254400Y-16540040D01*
X7389400Y-16270040D02*
X7389400Y-16540040D01*
X7254400Y-16405040D02*
X7524400Y-16405040D01*
X7796543Y-16269326D02*
X7810828Y-16255040D01*
X7839400Y-16240754D01*
X7910828Y-16240754D01*
X7939400Y-16255040D01*
X7953686Y-16269326D01*
X7967971Y-16297897D01*
X7967971Y-16326469D01*
X7953686Y-16369326D01*
X7782257Y-16540754D01*
X7967971Y-16540754D01*
X8096543Y-16512183D02*
X8110828Y-16526469D01*
X8096543Y-16540754D01*
X8082257Y-16526469D01*
X8096543Y-16512183D01*
X8096543Y-16540754D01*
X8210828Y-16240754D02*
X8410828Y-16240754D01*
X8282257Y-16540754D01*
X8582257Y-16240754D02*
X8610828Y-16240754D01*
X8639400Y-16255040D01*
X8653686Y-16269326D01*
X8667971Y-16297897D01*
X8682257Y-16355040D01*
X8682257Y-16426469D01*
X8667971Y-16483611D01*
X8653686Y-16512183D01*
X8639400Y-16526469D01*
X8610828Y-16540754D01*
X8582257Y-16540754D01*
X8553686Y-16526469D01*
X8539400Y-16512183D01*
X8525114Y-16483611D01*
X8510828Y-16426469D01*
X8510828Y-16355040D01*
X8525114Y-16297897D01*
X8539400Y-16269326D01*
X8553686Y-16255040D01*
X8582257Y-16240754D01*
X8810828Y-16540754D02*
X8810828Y-16340754D01*
X8810828Y-16369326D02*
X8825114Y-16355040D01*
X8853686Y-16340754D01*
X8896543Y-16340754D01*
X8925114Y-16355040D01*
X8939400Y-16383611D01*
X8939400Y-16540754D01*
X8939400Y-16383611D02*
X8953686Y-16355040D01*
X8982257Y-16340754D01*
X9025114Y-16340754D01*
X9053686Y-16355040D01*
X9067971Y-16383611D01*
X9067971Y-16540754D01*
X9210828Y-16540754D02*
X9210828Y-16340754D01*
X9210828Y-16369326D02*
X9225114Y-16355040D01*
X9253686Y-16340754D01*
X9296543Y-16340754D01*
X9325114Y-16355040D01*
X9339400Y-16383611D01*
X9339400Y-16540754D01*
X9339400Y-16383611D02*
X9353686Y-16355040D01*
X9382257Y-16340754D01*
X9425114Y-16340754D01*
X9453686Y-16355040D01*
X9467971Y-16383611D01*
X9467971Y-16540754D01*
X10053686Y-16226469D02*
X9796543Y-16612183D01*
X10439400Y-16240754D02*
X10467971Y-16240754D01*
X10496543Y-16255040D01*
X10510828Y-16269326D01*
X10525114Y-16297897D01*
X10539400Y-16355040D01*
X10539400Y-16426469D01*
X10525114Y-16483611D01*
X10510828Y-16512183D01*
X10496543Y-16526469D01*
X10467971Y-16540754D01*
X10439400Y-16540754D01*
X10410828Y-16526469D01*
X10396543Y-16512183D01*
X10382257Y-16483611D01*
X10367971Y-16426469D01*
X10367971Y-16355040D01*
X10382257Y-16297897D01*
X10396543Y-16269326D01*
X10410828Y-16255040D01*
X10439400Y-16240754D01*
X10667971Y-16512183D02*
X10682257Y-16526469D01*
X10667971Y-16540754D01*
X10653686Y-16526469D01*
X10667971Y-16512183D01*
X10667971Y-16540754D01*
X10967971Y-16540754D02*
X10796543Y-16540754D01*
X10882257Y-16540754D02*
X10882257Y-16240754D01*
X10853686Y-16283611D01*
X10825114Y-16312183D01*
X10796543Y-16326469D01*
X11153686Y-16240754D02*
X11182257Y-16240754D01*
X11210828Y-16255040D01*
X11225114Y-16269326D01*
X11239400Y-16297897D01*
X11253686Y-16355040D01*
X11253686Y-16426469D01*
X11239400Y-16483611D01*
X11225114Y-16512183D01*
X11210828Y-16526469D01*
X11182257Y-16540754D01*
X11153686Y-16540754D01*
X11125114Y-16526469D01*
X11110828Y-16512183D01*
X11096543Y-16483611D01*
X11082257Y-16426469D01*
X11082257Y-16355040D01*
X11096543Y-16297897D01*
X11110828Y-16269326D01*
X11125114Y-16255040D01*
X11153686Y-16240754D01*
X11510828Y-16240754D02*
X11453686Y-16240754D01*
X11425114Y-16255040D01*
X11410828Y-16269326D01*
X11382257Y-16312183D01*
X11367971Y-16369326D01*
X11367971Y-16483611D01*
X11382257Y-16512183D01*
X11396543Y-16526469D01*
X11425114Y-16540754D01*
X11482257Y-16540754D01*
X11510828Y-16526469D01*
X11525114Y-16512183D01*
X11539400Y-16483611D01*
X11539400Y-16412183D01*
X11525114Y-16383611D01*
X11510828Y-16369326D01*
X11482257Y-16355040D01*
X11425114Y-16355040D01*
X11396543Y-16369326D01*
X11382257Y-16383611D01*
X11367971Y-16412183D01*
X11653686Y-16240754D02*
X11653686Y-16297897D01*
X11767971Y-16240754D02*
X11767971Y-16297897D01*
X12210828Y-16655040D02*
X12196543Y-16640754D01*
X12167971Y-16597897D01*
X12153686Y-16569326D01*
X12139400Y-16526469D01*
X12125114Y-16455040D01*
X12125114Y-16397897D01*
X12139400Y-16326469D01*
X12153686Y-16283611D01*
X12167971Y-16255040D01*
X12196543Y-16212183D01*
X12210828Y-16197897D01*
X12453686Y-16340754D02*
X12453686Y-16540754D01*
X12382257Y-16226469D02*
X12310828Y-16440754D01*
X12496543Y-16440754D01*
X12839400Y-16540754D02*
X12839400Y-16240754D01*
X12967971Y-16540754D02*
X12967971Y-16383611D01*
X12953686Y-16355040D01*
X12925114Y-16340754D01*
X12882257Y-16340754D01*
X12853686Y-16355040D01*
X12839400Y-16369326D01*
X13153686Y-16540754D02*
X13125114Y-16526469D01*
X13110828Y-16512183D01*
X13096543Y-16483611D01*
X13096543Y-16397897D01*
X13110828Y-16369326D01*
X13125114Y-16355040D01*
X13153686Y-16340754D01*
X13196543Y-16340754D01*
X13225114Y-16355040D01*
X13239400Y-16369326D01*
X13253686Y-16397897D01*
X13253686Y-16483611D01*
X13239400Y-16512183D01*
X13225114Y-16526469D01*
X13196543Y-16540754D01*
X13153686Y-16540754D01*
X13425114Y-16540754D02*
X13396543Y-16526469D01*
X13382257Y-16497897D01*
X13382257Y-16240754D01*
X13653686Y-16526469D02*
X13625114Y-16540754D01*
X13567971Y-16540754D01*
X13539400Y-16526469D01*
X13525114Y-16497897D01*
X13525114Y-16383611D01*
X13539400Y-16355040D01*
X13567971Y-16340754D01*
X13625114Y-16340754D01*
X13653686Y-16355040D01*
X13667971Y-16383611D01*
X13667971Y-16412183D01*
X13525114Y-16440754D01*
X13782257Y-16526469D02*
X13810828Y-16540754D01*
X13867971Y-16540754D01*
X13896543Y-16526469D01*
X13910828Y-16497897D01*
X13910828Y-16483611D01*
X13896543Y-16455040D01*
X13867971Y-16440754D01*
X13825114Y-16440754D01*
X13796543Y-16426469D01*
X13782257Y-16397897D01*
X13782257Y-16383611D01*
X13796543Y-16355040D01*
X13825114Y-16340754D01*
X13867971Y-16340754D01*
X13896543Y-16355040D01*
X14010828Y-16655040D02*
X14025114Y-16640754D01*
X14053686Y-16597897D01*
X14067971Y-16569326D01*
X14082257Y-16526469D01*
X14096543Y-16455040D01*
X14096543Y-16397897D01*
X14082257Y-16326469D01*
X14067971Y-16283611D01*
X14053686Y-16255040D01*
X14025114Y-16212183D01*
X14010828Y-16197897D01*
X7424400Y-16755040D02*
X7524400Y-16855040D01*
X7524400Y-16755040D02*
X7424400Y-16855040D01*
X7509756Y-16840396D02*
X7509756Y-16769684D01*
X7439044Y-16769684D01*
X7439044Y-16840396D01*
X7509756Y-16840396D01*
X7967971Y-16940754D02*
X7796543Y-16940754D01*
X7882257Y-16940754D02*
X7882257Y-16640754D01*
X7853686Y-16683611D01*
X7825114Y-16712183D01*
X7796543Y-16726469D01*
X8096543Y-16912183D02*
X8110828Y-16926469D01*
X8096543Y-16940754D01*
X8082257Y-16926469D01*
X8096543Y-16912183D01*
X8096543Y-16940754D01*
X8296543Y-16640754D02*
X8325114Y-16640754D01*
X8353686Y-16655040D01*
X8367971Y-16669326D01*
X8382257Y-16697897D01*
X8396543Y-16755040D01*
X8396543Y-16826469D01*
X8382257Y-16883612D01*
X8367971Y-16912183D01*
X8353686Y-16926469D01*
X8325114Y-16940754D01*
X8296543Y-16940754D01*
X8267971Y-16926469D01*
X8253686Y-16912183D01*
X8239400Y-16883612D01*
X8225114Y-16826469D01*
X8225114Y-16755040D01*
X8239400Y-16697897D01*
X8253686Y-16669326D01*
X8267971Y-16655040D01*
X8296543Y-16640754D01*
X8582257Y-16640754D02*
X8610828Y-16640754D01*
X8639400Y-16655040D01*
X8653686Y-16669326D01*
X8667971Y-16697897D01*
X8682257Y-16755040D01*
X8682257Y-16826469D01*
X8667971Y-16883612D01*
X8653686Y-16912183D01*
X8639400Y-16926469D01*
X8610828Y-16940754D01*
X8582257Y-16940754D01*
X8553686Y-16926469D01*
X8539400Y-16912183D01*
X8525114Y-16883612D01*
X8510828Y-16826469D01*
X8510828Y-16755040D01*
X8525114Y-16697897D01*
X8539400Y-16669326D01*
X8553686Y-16655040D01*
X8582257Y-16640754D01*
X8810828Y-16940754D02*
X8810828Y-16740754D01*
X8810828Y-16769326D02*
X8825114Y-16755040D01*
X8853686Y-16740754D01*
X8896543Y-16740754D01*
X8925114Y-16755040D01*
X8939400Y-16783612D01*
X8939400Y-16940754D01*
X8939400Y-16783612D02*
X8953686Y-16755040D01*
X8982257Y-16740754D01*
X9025114Y-16740754D01*
X9053686Y-16755040D01*
X9067971Y-16783612D01*
X9067971Y-16940754D01*
X9210828Y-16940754D02*
X9210828Y-16740754D01*
X9210828Y-16769326D02*
X9225114Y-16755040D01*
X9253686Y-16740754D01*
X9296543Y-16740754D01*
X9325114Y-16755040D01*
X9339400Y-16783612D01*
X9339400Y-16940754D01*
X9339400Y-16783612D02*
X9353686Y-16755040D01*
X9382257Y-16740754D01*
X9425114Y-16740754D01*
X9453686Y-16755040D01*
X9467971Y-16783612D01*
X9467971Y-16940754D01*
X10053686Y-16626469D02*
X9796543Y-17012183D01*
X10439400Y-16640754D02*
X10467971Y-16640754D01*
X10496543Y-16655040D01*
X10510828Y-16669326D01*
X10525114Y-16697897D01*
X10539400Y-16755040D01*
X10539400Y-16826469D01*
X10525114Y-16883612D01*
X10510828Y-16912183D01*
X10496543Y-16926469D01*
X10467971Y-16940754D01*
X10439400Y-16940754D01*
X10410828Y-16926469D01*
X10396543Y-16912183D01*
X10382257Y-16883612D01*
X10367971Y-16826469D01*
X10367971Y-16755040D01*
X10382257Y-16697897D01*
X10396543Y-16669326D01*
X10410828Y-16655040D01*
X10439400Y-16640754D01*
X10667971Y-16912183D02*
X10682257Y-16926469D01*
X10667971Y-16940754D01*
X10653686Y-16926469D01*
X10667971Y-16912183D01*
X10667971Y-16940754D01*
X10867971Y-16640754D02*
X10896543Y-16640754D01*
X10925114Y-16655040D01*
X10939400Y-16669326D01*
X10953686Y-16697897D01*
X10967971Y-16755040D01*
X10967971Y-16826469D01*
X10953686Y-16883612D01*
X10939400Y-16912183D01*
X10925114Y-16926469D01*
X10896543Y-16940754D01*
X10867971Y-16940754D01*
X10839400Y-16926469D01*
X10825114Y-16912183D01*
X10810828Y-16883612D01*
X10796543Y-16826469D01*
X10796543Y-16755040D01*
X10810828Y-16697897D01*
X10825114Y-16669326D01*
X10839400Y-16655040D01*
X10867971Y-16640754D01*
X11067971Y-16640754D02*
X11253686Y-16640754D01*
X11153686Y-16755040D01*
X11196543Y-16755040D01*
X11225114Y-16769326D01*
X11239400Y-16783612D01*
X11253686Y-16812183D01*
X11253686Y-16883612D01*
X11239400Y-16912183D01*
X11225114Y-16926469D01*
X11196543Y-16940754D01*
X11110828Y-16940754D01*
X11082257Y-16926469D01*
X11067971Y-16912183D01*
X11396543Y-16940754D02*
X11453686Y-16940754D01*
X11482257Y-16926469D01*
X11496543Y-16912183D01*
X11525114Y-16869326D01*
X11539400Y-16812183D01*
X11539400Y-16697897D01*
X11525114Y-16669326D01*
X11510828Y-16655040D01*
X11482257Y-16640754D01*
X11425114Y-16640754D01*
X11396543Y-16655040D01*
X11382257Y-16669326D01*
X11367971Y-16697897D01*
X11367971Y-16769326D01*
X11382257Y-16797897D01*
X11396543Y-16812183D01*
X11425114Y-16826469D01*
X11482257Y-16826469D01*
X11510828Y-16812183D01*
X11525114Y-16797897D01*
X11539400Y-16769326D01*
X11653686Y-16640754D02*
X11653686Y-16697897D01*
X11767971Y-16640754D02*
X11767971Y-16697897D01*
X12210828Y-17055040D02*
X12196543Y-17040754D01*
X12167971Y-16997897D01*
X12153686Y-16969326D01*
X12139400Y-16926469D01*
X12125114Y-16855040D01*
X12125114Y-16797897D01*
X12139400Y-16726469D01*
X12153686Y-16683611D01*
X12167971Y-16655040D01*
X12196543Y-16612183D01*
X12210828Y-16597897D01*
X12367971Y-16769326D02*
X12339400Y-16755040D01*
X12325114Y-16740754D01*
X12310828Y-16712183D01*
X12310828Y-16697897D01*
X12325114Y-16669326D01*
X12339400Y-16655040D01*
X12367971Y-16640754D01*
X12425114Y-16640754D01*
X12453686Y-16655040D01*
X12467971Y-16669326D01*
X12482257Y-16697897D01*
X12482257Y-16712183D01*
X12467971Y-16740754D01*
X12453686Y-16755040D01*
X12425114Y-16769326D01*
X12367971Y-16769326D01*
X12339400Y-16783612D01*
X12325114Y-16797897D01*
X12310828Y-16826469D01*
X12310828Y-16883612D01*
X12325114Y-16912183D01*
X12339400Y-16926469D01*
X12367971Y-16940754D01*
X12425114Y-16940754D01*
X12453686Y-16926469D01*
X12467971Y-16912183D01*
X12482257Y-16883612D01*
X12482257Y-16826469D01*
X12467971Y-16797897D01*
X12453686Y-16783612D01*
X12425114Y-16769326D01*
X12839400Y-16940754D02*
X12839400Y-16640754D01*
X12967971Y-16940754D02*
X12967971Y-16783612D01*
X12953686Y-16755040D01*
X12925114Y-16740754D01*
X12882257Y-16740754D01*
X12853686Y-16755040D01*
X12839400Y-16769326D01*
X13153686Y-16940754D02*
X13125114Y-16926469D01*
X13110828Y-16912183D01*
X13096543Y-16883612D01*
X13096543Y-16797897D01*
X13110828Y-16769326D01*
X13125114Y-16755040D01*
X13153686Y-16740754D01*
X13196543Y-16740754D01*
X13225114Y-16755040D01*
X13239400Y-16769326D01*
X13253686Y-16797897D01*
X13253686Y-16883612D01*
X13239400Y-16912183D01*
X13225114Y-16926469D01*
X13196543Y-16940754D01*
X13153686Y-16940754D01*
X13425114Y-16940754D02*
X13396543Y-16926469D01*
X13382257Y-16897897D01*
X13382257Y-16640754D01*
X13653686Y-16926469D02*
X13625114Y-16940754D01*
X13567971Y-16940754D01*
X13539400Y-16926469D01*
X13525114Y-16897897D01*
X13525114Y-16783612D01*
X13539400Y-16755040D01*
X13567971Y-16740754D01*
X13625114Y-16740754D01*
X13653686Y-16755040D01*
X13667971Y-16783612D01*
X13667971Y-16812183D01*
X13525114Y-16840754D01*
X13782257Y-16926469D02*
X13810828Y-16940754D01*
X13867971Y-16940754D01*
X13896543Y-16926469D01*
X13910828Y-16897897D01*
X13910828Y-16883612D01*
X13896543Y-16855040D01*
X13867971Y-16840754D01*
X13825114Y-16840754D01*
X13796543Y-16826469D01*
X13782257Y-16797897D01*
X13782257Y-16783612D01*
X13796543Y-16755040D01*
X13825114Y-16740754D01*
X13867971Y-16740754D01*
X13896543Y-16755040D01*
X14010828Y-17055040D02*
X14025114Y-17040754D01*
X14053686Y-16997897D01*
X14067971Y-16969326D01*
X14082257Y-16926469D01*
X14096543Y-16855040D01*
X14096543Y-16797897D01*
X14082257Y-16726469D01*
X14067971Y-16683611D01*
X14053686Y-16655040D01*
X14025114Y-16612183D01*
X14010828Y-16597897D01*
X14553686Y-17055040D02*
X14539400Y-17040754D01*
X14510828Y-16997897D01*
X14496543Y-16969326D01*
X14482257Y-16926469D01*
X14467971Y-16855040D01*
X14467971Y-16797897D01*
X14482257Y-16726469D01*
X14496543Y-16683611D01*
X14510828Y-16655040D01*
X14539400Y-16612183D01*
X14553686Y-16597897D01*
X14667971Y-16740754D02*
X14667971Y-16940754D01*
X14667971Y-16769326D02*
X14682257Y-16755040D01*
X14710828Y-16740754D01*
X14753686Y-16740754D01*
X14782257Y-16755040D01*
X14796543Y-16783612D01*
X14796543Y-16940754D01*
X14982257Y-16940754D02*
X14953686Y-16926469D01*
X14939400Y-16912183D01*
X14925114Y-16883612D01*
X14925114Y-16797897D01*
X14939400Y-16769326D01*
X14953686Y-16755040D01*
X14982257Y-16740754D01*
X15025114Y-16740754D01*
X15053686Y-16755040D01*
X15067971Y-16769326D01*
X15082257Y-16797897D01*
X15082257Y-16883612D01*
X15067971Y-16912183D01*
X15053686Y-16926469D01*
X15025114Y-16940754D01*
X14982257Y-16940754D01*
X15167971Y-16740754D02*
X15282257Y-16740754D01*
X15210828Y-16640754D02*
X15210828Y-16897897D01*
X15225114Y-16926469D01*
X15253686Y-16940754D01*
X15282257Y-16940754D01*
X15610828Y-16740754D02*
X15610828Y-17040754D01*
X15610828Y-16755040D02*
X15639400Y-16740754D01*
X15696543Y-16740754D01*
X15725114Y-16755040D01*
X15739400Y-16769326D01*
X15753686Y-16797897D01*
X15753686Y-16883612D01*
X15739400Y-16912183D01*
X15725114Y-16926469D01*
X15696543Y-16940754D01*
X15639400Y-16940754D01*
X15610828Y-16926469D01*
X15925114Y-16940754D02*
X15896543Y-16926469D01*
X15882257Y-16897897D01*
X15882257Y-16640754D01*
X16167971Y-16940754D02*
X16167971Y-16783612D01*
X16153686Y-16755040D01*
X16125114Y-16740754D01*
X16067971Y-16740754D01*
X16039400Y-16755040D01*
X16167971Y-16926469D02*
X16139400Y-16940754D01*
X16067971Y-16940754D01*
X16039400Y-16926469D01*
X16025114Y-16897897D01*
X16025114Y-16869326D01*
X16039400Y-16840754D01*
X16067971Y-16826469D01*
X16139400Y-16826469D01*
X16167971Y-16812183D01*
X16267971Y-16740754D02*
X16382257Y-16740754D01*
X16310828Y-16640754D02*
X16310828Y-16897897D01*
X16325114Y-16926469D01*
X16353686Y-16940754D01*
X16382257Y-16940754D01*
X16596543Y-16926469D02*
X16567971Y-16940754D01*
X16510828Y-16940754D01*
X16482257Y-16926469D01*
X16467971Y-16897897D01*
X16467971Y-16783612D01*
X16482257Y-16755040D01*
X16510828Y-16740754D01*
X16567971Y-16740754D01*
X16596543Y-16755040D01*
X16610828Y-16783612D01*
X16610828Y-16812183D01*
X16467971Y-16840754D01*
X16867971Y-16940754D02*
X16867971Y-16640754D01*
X16867971Y-16926469D02*
X16839400Y-16940754D01*
X16782257Y-16940754D01*
X16753686Y-16926469D01*
X16739400Y-16912183D01*
X16725114Y-16883612D01*
X16725114Y-16797897D01*
X16739400Y-16769326D01*
X16753686Y-16755040D01*
X16782257Y-16740754D01*
X16839400Y-16740754D01*
X16867971Y-16755040D01*
X16982257Y-17055040D02*
X16996543Y-17040754D01*
X17025114Y-16997897D01*
X17039400Y-16969326D01*
X17053686Y-16926469D01*
X17067971Y-16855040D01*
X17067971Y-16797897D01*
X17053686Y-16726469D01*
X17039400Y-16683611D01*
X17025114Y-16655040D01*
X16996543Y-16612183D01*
X16982257Y-16597897D01*
X7397400Y-17137540D02*
X7524400Y-17264540D01*
X7524400Y-17137540D02*
X7397400Y-17264540D01*
X7460900Y-17264540D02*
X7524400Y-17201040D01*
X7460900Y-17137540D01*
X7397400Y-17201040D01*
X7460900Y-17264540D01*
X7967971Y-17336754D02*
X7796543Y-17336754D01*
X7882257Y-17336754D02*
X7882257Y-17036754D01*
X7853686Y-17079612D01*
X7825114Y-17108183D01*
X7796543Y-17122469D01*
X8096543Y-17308183D02*
X8110828Y-17322469D01*
X8096543Y-17336754D01*
X8082257Y-17322469D01*
X8096543Y-17308183D01*
X8096543Y-17336754D01*
X8225114Y-17065326D02*
X8239400Y-17051040D01*
X8267971Y-17036754D01*
X8339400Y-17036754D01*
X8367971Y-17051040D01*
X8382257Y-17065326D01*
X8396543Y-17093897D01*
X8396543Y-17122469D01*
X8382257Y-17165326D01*
X8210828Y-17336754D01*
X8396543Y-17336754D01*
X8496543Y-17036754D02*
X8696543Y-17036754D01*
X8567971Y-17336754D01*
X8810828Y-17336754D02*
X8810828Y-17136754D01*
X8810828Y-17165326D02*
X8825114Y-17151040D01*
X8853686Y-17136754D01*
X8896543Y-17136754D01*
X8925114Y-17151040D01*
X8939400Y-17179612D01*
X8939400Y-17336754D01*
X8939400Y-17179612D02*
X8953686Y-17151040D01*
X8982257Y-17136754D01*
X9025114Y-17136754D01*
X9053686Y-17151040D01*
X9067971Y-17179612D01*
X9067971Y-17336754D01*
X9210828Y-17336754D02*
X9210828Y-17136754D01*
X9210828Y-17165326D02*
X9225114Y-17151040D01*
X9253686Y-17136754D01*
X9296543Y-17136754D01*
X9325114Y-17151040D01*
X9339400Y-17179612D01*
X9339400Y-17336754D01*
X9339400Y-17179612D02*
X9353686Y-17151040D01*
X9382257Y-17136754D01*
X9425114Y-17136754D01*
X9453686Y-17151040D01*
X9467971Y-17179612D01*
X9467971Y-17336754D01*
X10053686Y-17022469D02*
X9796543Y-17408183D01*
X10439400Y-17036754D02*
X10467971Y-17036754D01*
X10496543Y-17051040D01*
X10510828Y-17065326D01*
X10525114Y-17093897D01*
X10539400Y-17151040D01*
X10539400Y-17222469D01*
X10525114Y-17279612D01*
X10510828Y-17308183D01*
X10496543Y-17322469D01*
X10467971Y-17336754D01*
X10439400Y-17336754D01*
X10410828Y-17322469D01*
X10396543Y-17308183D01*
X10382257Y-17279612D01*
X10367971Y-17222469D01*
X10367971Y-17151040D01*
X10382257Y-17093897D01*
X10396543Y-17065326D01*
X10410828Y-17051040D01*
X10439400Y-17036754D01*
X10667971Y-17308183D02*
X10682257Y-17322469D01*
X10667971Y-17336754D01*
X10653686Y-17322469D01*
X10667971Y-17308183D01*
X10667971Y-17336754D01*
X10867971Y-17036754D02*
X10896543Y-17036754D01*
X10925114Y-17051040D01*
X10939400Y-17065326D01*
X10953686Y-17093897D01*
X10967971Y-17151040D01*
X10967971Y-17222469D01*
X10953686Y-17279612D01*
X10939400Y-17308183D01*
X10925114Y-17322469D01*
X10896543Y-17336754D01*
X10867971Y-17336754D01*
X10839400Y-17322469D01*
X10825114Y-17308183D01*
X10810828Y-17279612D01*
X10796543Y-17222469D01*
X10796543Y-17151040D01*
X10810828Y-17093897D01*
X10825114Y-17065326D01*
X10839400Y-17051040D01*
X10867971Y-17036754D01*
X11239400Y-17036754D02*
X11096543Y-17036754D01*
X11082257Y-17179612D01*
X11096543Y-17165326D01*
X11125114Y-17151040D01*
X11196543Y-17151040D01*
X11225114Y-17165326D01*
X11239400Y-17179612D01*
X11253686Y-17208183D01*
X11253686Y-17279612D01*
X11239400Y-17308183D01*
X11225114Y-17322469D01*
X11196543Y-17336754D01*
X11125114Y-17336754D01*
X11096543Y-17322469D01*
X11082257Y-17308183D01*
X11439400Y-17036754D02*
X11467971Y-17036754D01*
X11496543Y-17051040D01*
X11510828Y-17065326D01*
X11525114Y-17093897D01*
X11539400Y-17151040D01*
X11539400Y-17222469D01*
X11525114Y-17279612D01*
X11510828Y-17308183D01*
X11496543Y-17322469D01*
X11467971Y-17336754D01*
X11439400Y-17336754D01*
X11410828Y-17322469D01*
X11396543Y-17308183D01*
X11382257Y-17279612D01*
X11367971Y-17222469D01*
X11367971Y-17151040D01*
X11382257Y-17093897D01*
X11396543Y-17065326D01*
X11410828Y-17051040D01*
X11439400Y-17036754D01*
X11653686Y-17036754D02*
X11653686Y-17093897D01*
X11767971Y-17036754D02*
X11767971Y-17093897D01*
X12210828Y-17451040D02*
X12196543Y-17436754D01*
X12167971Y-17393897D01*
X12153686Y-17365326D01*
X12139400Y-17322469D01*
X12125114Y-17251040D01*
X12125114Y-17193897D01*
X12139400Y-17122469D01*
X12153686Y-17079612D01*
X12167971Y-17051040D01*
X12196543Y-17008183D01*
X12210828Y-16993897D01*
X12453686Y-17136754D02*
X12453686Y-17336754D01*
X12382257Y-17022469D02*
X12310828Y-17236754D01*
X12496543Y-17236754D01*
X12839400Y-17336754D02*
X12839400Y-17036754D01*
X12967971Y-17336754D02*
X12967971Y-17179612D01*
X12953686Y-17151040D01*
X12925114Y-17136754D01*
X12882257Y-17136754D01*
X12853686Y-17151040D01*
X12839400Y-17165326D01*
X13153686Y-17336754D02*
X13125114Y-17322469D01*
X13110828Y-17308183D01*
X13096543Y-17279612D01*
X13096543Y-17193897D01*
X13110828Y-17165326D01*
X13125114Y-17151040D01*
X13153686Y-17136754D01*
X13196543Y-17136754D01*
X13225114Y-17151040D01*
X13239400Y-17165326D01*
X13253686Y-17193897D01*
X13253686Y-17279612D01*
X13239400Y-17308183D01*
X13225114Y-17322469D01*
X13196543Y-17336754D01*
X13153686Y-17336754D01*
X13425114Y-17336754D02*
X13396543Y-17322469D01*
X13382257Y-17293897D01*
X13382257Y-17036754D01*
X13653686Y-17322469D02*
X13625114Y-17336754D01*
X13567971Y-17336754D01*
X13539400Y-17322469D01*
X13525114Y-17293897D01*
X13525114Y-17179612D01*
X13539400Y-17151040D01*
X13567971Y-17136754D01*
X13625114Y-17136754D01*
X13653686Y-17151040D01*
X13667971Y-17179612D01*
X13667971Y-17208183D01*
X13525114Y-17236754D01*
X13782257Y-17322469D02*
X13810828Y-17336754D01*
X13867971Y-17336754D01*
X13896543Y-17322469D01*
X13910828Y-17293897D01*
X13910828Y-17279612D01*
X13896543Y-17251040D01*
X13867971Y-17236754D01*
X13825114Y-17236754D01*
X13796543Y-17222469D01*
X13782257Y-17193897D01*
X13782257Y-17179612D01*
X13796543Y-17151040D01*
X13825114Y-17136754D01*
X13867971Y-17136754D01*
X13896543Y-17151040D01*
X14010828Y-17451040D02*
X14025114Y-17436754D01*
X14053686Y-17393897D01*
X14067971Y-17365326D01*
X14082257Y-17322469D01*
X14096543Y-17251040D01*
X14096543Y-17193897D01*
X14082257Y-17122469D01*
X14067971Y-17079612D01*
X14053686Y-17051040D01*
X14025114Y-17008183D01*
X14010828Y-16993897D01*
X14553686Y-17451040D02*
X14539400Y-17436754D01*
X14510828Y-17393897D01*
X14496543Y-17365326D01*
X14482257Y-17322469D01*
X14467971Y-17251040D01*
X14467971Y-17193897D01*
X14482257Y-17122469D01*
X14496543Y-17079612D01*
X14510828Y-17051040D01*
X14539400Y-17008183D01*
X14553686Y-16993897D01*
X14667971Y-17136754D02*
X14667971Y-17336754D01*
X14667971Y-17165326D02*
X14682257Y-17151040D01*
X14710828Y-17136754D01*
X14753686Y-17136754D01*
X14782257Y-17151040D01*
X14796543Y-17179612D01*
X14796543Y-17336754D01*
X14982257Y-17336754D02*
X14953686Y-17322469D01*
X14939400Y-17308183D01*
X14925114Y-17279612D01*
X14925114Y-17193897D01*
X14939400Y-17165326D01*
X14953686Y-17151040D01*
X14982257Y-17136754D01*
X15025114Y-17136754D01*
X15053686Y-17151040D01*
X15067971Y-17165326D01*
X15082257Y-17193897D01*
X15082257Y-17279612D01*
X15067971Y-17308183D01*
X15053686Y-17322469D01*
X15025114Y-17336754D01*
X14982257Y-17336754D01*
X15167971Y-17136754D02*
X15282257Y-17136754D01*
X15210828Y-17036754D02*
X15210828Y-17293897D01*
X15225114Y-17322469D01*
X15253686Y-17336754D01*
X15282257Y-17336754D01*
X15610828Y-17136754D02*
X15610828Y-17436754D01*
X15610828Y-17151040D02*
X15639400Y-17136754D01*
X15696543Y-17136754D01*
X15725114Y-17151040D01*
X15739400Y-17165326D01*
X15753686Y-17193897D01*
X15753686Y-17279612D01*
X15739400Y-17308183D01*
X15725114Y-17322469D01*
X15696543Y-17336754D01*
X15639400Y-17336754D01*
X15610828Y-17322469D01*
X15925114Y-17336754D02*
X15896543Y-17322469D01*
X15882257Y-17293897D01*
X15882257Y-17036754D01*
X16167971Y-17336754D02*
X16167971Y-17179612D01*
X16153686Y-17151040D01*
X16125114Y-17136754D01*
X16067971Y-17136754D01*
X16039400Y-17151040D01*
X16167971Y-17322469D02*
X16139400Y-17336754D01*
X16067971Y-17336754D01*
X16039400Y-17322469D01*
X16025114Y-17293897D01*
X16025114Y-17265326D01*
X16039400Y-17236754D01*
X16067971Y-17222469D01*
X16139400Y-17222469D01*
X16167971Y-17208183D01*
X16267971Y-17136754D02*
X16382257Y-17136754D01*
X16310828Y-17036754D02*
X16310828Y-17293897D01*
X16325114Y-17322469D01*
X16353686Y-17336754D01*
X16382257Y-17336754D01*
X16596543Y-17322469D02*
X16567971Y-17336754D01*
X16510828Y-17336754D01*
X16482257Y-17322469D01*
X16467971Y-17293897D01*
X16467971Y-17179612D01*
X16482257Y-17151040D01*
X16510828Y-17136754D01*
X16567971Y-17136754D01*
X16596543Y-17151040D01*
X16610828Y-17179612D01*
X16610828Y-17208183D01*
X16467971Y-17236754D01*
X16867971Y-17336754D02*
X16867971Y-17036754D01*
X16867971Y-17322469D02*
X16839400Y-17336754D01*
X16782257Y-17336754D01*
X16753686Y-17322469D01*
X16739400Y-17308183D01*
X16725114Y-17279612D01*
X16725114Y-17193897D01*
X16739400Y-17165326D01*
X16753686Y-17151040D01*
X16782257Y-17136754D01*
X16839400Y-17136754D01*
X16867971Y-17151040D01*
X16982257Y-17451040D02*
X16996543Y-17436754D01*
X17025114Y-17393897D01*
X17039400Y-17365326D01*
X17053686Y-17322469D01*
X17067971Y-17251040D01*
X17067971Y-17193897D01*
X17053686Y-17122469D01*
X17039400Y-17079612D01*
X17025114Y-17051040D01*
X16996543Y-17008183D01*
X16982257Y-16993897D01*
M02*
