G04 #@! TF.GenerationSoftware,KiCad,Pcbnew,(5.1.6)-1*
G04 #@! TF.CreationDate,2021-04-23T11:59:38+02:00*
G04 #@! TF.ProjectId,rysboard,72797362-6f61-4726-942e-6b696361645f,4.2*
G04 #@! TF.SameCoordinates,Original*
G04 #@! TF.FileFunction,Legend,Bot*
G04 #@! TF.FilePolarity,Positive*
%FSLAX46Y46*%
G04 Gerber Fmt 4.6, Leading zero omitted, Abs format (unit mm)*
G04 Created by KiCad (PCBNEW (5.1.6)-1) date 2021-04-23 11:59:38*
%MOMM*%
%LPD*%
G01*
G04 APERTURE LIST*
%ADD10C,0.120000*%
%ADD11C,0.200000*%
%ADD12C,0.100000*%
%ADD13C,0.150000*%
%ADD14C,0.254000*%
G04 APERTURE END LIST*
D10*
X96776000Y-120487221D02*
X96776000Y-120812779D01*
X95756000Y-120487221D02*
X95756000Y-120812779D01*
X89135000Y-119090000D02*
X89135000Y-121550000D01*
X87665000Y-119090000D02*
X89135000Y-119090000D01*
X87665000Y-121550000D02*
X87665000Y-119090000D01*
X80064500Y-123601100D02*
X81394500Y-123601100D01*
X81394500Y-123601100D02*
X81394500Y-122271100D01*
X78794500Y-123601100D02*
X78794500Y-121001100D01*
X78794500Y-121001100D02*
X81394500Y-121001100D01*
X81394500Y-121001100D02*
X81394500Y-72681100D01*
X76194500Y-72681100D02*
X81394500Y-72681100D01*
X76194500Y-123601100D02*
X76194500Y-72681100D01*
X76194500Y-123601100D02*
X78794500Y-123601100D01*
X109087936Y-111640000D02*
X110292064Y-111640000D01*
X109087936Y-113460000D02*
X110292064Y-113460000D01*
X92240000Y-92260000D02*
X100300000Y-92260000D01*
X92240000Y-96780000D02*
X92240000Y-92260000D01*
X100300000Y-96780000D02*
X92240000Y-96780000D01*
X109912500Y-79440000D02*
X101852500Y-79440000D01*
X109912500Y-74920000D02*
X109912500Y-79440000D01*
X101852500Y-74920000D02*
X109912500Y-74920000D01*
X109880000Y-96710000D02*
X101820000Y-96710000D01*
X109880000Y-92190000D02*
X109880000Y-96710000D01*
X101820000Y-92190000D02*
X109880000Y-92190000D01*
X92210000Y-74980000D02*
X100270000Y-74980000D01*
X92210000Y-79500000D02*
X92210000Y-74980000D01*
X100270000Y-79500000D02*
X92210000Y-79500000D01*
X112530000Y-100612779D02*
X112530000Y-100287221D01*
X113550000Y-100612779D02*
X113550000Y-100287221D01*
X119200000Y-100922779D02*
X119200000Y-100597221D01*
X120220000Y-100922779D02*
X120220000Y-100597221D01*
X121590000Y-67977221D02*
X121590000Y-68302779D01*
X120570000Y-67977221D02*
X120570000Y-68302779D01*
X119097936Y-71600000D02*
X120302064Y-71600000D01*
X119097936Y-73420000D02*
X120302064Y-73420000D01*
X96697936Y-80250000D02*
X97902064Y-80250000D01*
X96697936Y-82070000D02*
X97902064Y-82070000D01*
X105462064Y-82220000D02*
X104257936Y-82220000D01*
X105462064Y-80400000D02*
X104257936Y-80400000D01*
X122011221Y-103376000D02*
X122336779Y-103376000D01*
X122011221Y-104396000D02*
X122336779Y-104396000D01*
X125092779Y-97660000D02*
X124767221Y-97660000D01*
X125092779Y-96640000D02*
X124767221Y-96640000D01*
X102465000Y-115835000D02*
X102465000Y-113550000D01*
X103935000Y-115835000D02*
X102465000Y-115835000D01*
X103935000Y-113550000D02*
X103935000Y-115835000D01*
D11*
X115486000Y-113108000D02*
G75*
G03*
X115486000Y-113108000I-10000J0D01*
G01*
D10*
X92565000Y-122360000D02*
X92565000Y-119900000D01*
X94035000Y-122360000D02*
X92565000Y-122360000D01*
X94035000Y-119900000D02*
X94035000Y-122360000D01*
X101785000Y-122740000D02*
X101785000Y-125200000D01*
X100315000Y-122740000D02*
X101785000Y-122740000D01*
X100315000Y-125200000D02*
X100315000Y-122740000D01*
X111235000Y-108695000D02*
X111235000Y-106410000D01*
X112705000Y-108695000D02*
X111235000Y-108695000D01*
X112705000Y-106410000D02*
X112705000Y-108695000D01*
X97385000Y-113215000D02*
X97385000Y-115500000D01*
X95915000Y-113215000D02*
X97385000Y-113215000D01*
X95915000Y-115500000D02*
X95915000Y-113215000D01*
X105720000Y-67260000D02*
X105720000Y-71160000D01*
X107720000Y-67260000D02*
X107720000Y-71160000D01*
X105720000Y-67260000D02*
X107720000Y-67260000D01*
X97582064Y-70690000D02*
X93477936Y-70690000D01*
X97582064Y-67270000D02*
X93477936Y-67270000D01*
X110890000Y-105010000D02*
X110890000Y-108460000D01*
X110890000Y-105010000D02*
X110890000Y-103060000D01*
X105770000Y-105010000D02*
X105770000Y-106960000D01*
X105770000Y-105010000D02*
X105770000Y-103060000D01*
X115160000Y-67445000D02*
X115160000Y-73335000D01*
X110020000Y-66990000D02*
X110020000Y-73335000D01*
X111037221Y-109240000D02*
X111362779Y-109240000D01*
X111037221Y-110260000D02*
X111362779Y-110260000D01*
X117352779Y-105950000D02*
X117027221Y-105950000D01*
X117352779Y-104930000D02*
X117027221Y-104930000D01*
X117342779Y-107490000D02*
X117017221Y-107490000D01*
X117342779Y-106470000D02*
X117017221Y-106470000D01*
X101140000Y-114512779D02*
X101140000Y-114187221D01*
X102160000Y-114512779D02*
X102160000Y-114187221D01*
X117352779Y-104410000D02*
X117027221Y-104410000D01*
X117352779Y-103390000D02*
X117027221Y-103390000D01*
X98660000Y-114537221D02*
X98660000Y-114862779D01*
X97640000Y-114537221D02*
X97640000Y-114862779D01*
X101660000Y-119837221D02*
X101660000Y-120162779D01*
X100640000Y-119837221D02*
X100640000Y-120162779D01*
X90296000Y-124962779D02*
X90296000Y-124637221D01*
X91316000Y-124962779D02*
X91316000Y-124637221D01*
X98496000Y-124562779D02*
X98496000Y-124237221D01*
X99516000Y-124562779D02*
X99516000Y-124237221D01*
X86060000Y-120600279D02*
X86060000Y-120274721D01*
X87080000Y-120600279D02*
X87080000Y-120274721D01*
X117420000Y-117887221D02*
X117420000Y-118212779D01*
X116400000Y-117887221D02*
X116400000Y-118212779D01*
X116997221Y-108010000D02*
X117322779Y-108010000D01*
X116997221Y-109030000D02*
X117322779Y-109030000D01*
X93002779Y-101650000D02*
X92677221Y-101650000D01*
X93002779Y-100630000D02*
X92677221Y-100630000D01*
X114300000Y-115047221D02*
X114300000Y-115372779D01*
X113280000Y-115047221D02*
X113280000Y-115372779D01*
X125220000Y-102974721D02*
X125220000Y-103300279D01*
X124200000Y-102974721D02*
X124200000Y-103300279D01*
X128432779Y-109100000D02*
X128107221Y-109100000D01*
X128432779Y-108080000D02*
X128107221Y-108080000D01*
X125728000Y-103286779D02*
X125728000Y-102961221D01*
X126748000Y-103286779D02*
X126748000Y-102961221D01*
X128097221Y-111150000D02*
X128422779Y-111150000D01*
X128097221Y-112170000D02*
X128422779Y-112170000D01*
X117007221Y-111080000D02*
X117332779Y-111080000D01*
X117007221Y-112100000D02*
X117332779Y-112100000D01*
X128107221Y-112680000D02*
X128432779Y-112680000D01*
X128107221Y-113700000D02*
X128432779Y-113700000D01*
X91427221Y-96340000D02*
X91752779Y-96340000D01*
X91427221Y-97360000D02*
X91752779Y-97360000D01*
X128117221Y-114200000D02*
X128442779Y-114200000D01*
X128117221Y-115220000D02*
X128442779Y-115220000D01*
X116997221Y-109530000D02*
X117322779Y-109530000D01*
X116997221Y-110550000D02*
X117322779Y-110550000D01*
X103990000Y-108012779D02*
X103990000Y-107687221D01*
X105010000Y-108012779D02*
X105010000Y-107687221D01*
X85610000Y-124277221D02*
X85610000Y-124602779D01*
X84590000Y-124277221D02*
X84590000Y-124602779D01*
X121300000Y-123902779D02*
X121300000Y-123577221D01*
X122320000Y-123902779D02*
X122320000Y-123577221D01*
X122830000Y-123902779D02*
X122830000Y-123577221D01*
X123850000Y-123902779D02*
X123850000Y-123577221D01*
X119770000Y-123912779D02*
X119770000Y-123587221D01*
X120790000Y-123912779D02*
X120790000Y-123587221D01*
X96750000Y-111261252D02*
X96750000Y-110738748D01*
X98170000Y-111261252D02*
X98170000Y-110738748D01*
X120110000Y-106135000D02*
X120110000Y-105660000D01*
X125330000Y-110880000D02*
X124855000Y-110880000D01*
X125330000Y-110405000D02*
X125330000Y-110880000D01*
X125330000Y-105660000D02*
X124855000Y-105660000D01*
X125330000Y-106135000D02*
X125330000Y-105660000D01*
X120110000Y-110880000D02*
X120585000Y-110880000D01*
X120110000Y-110405000D02*
X120110000Y-110880000D01*
X117140000Y-67210000D02*
X119590000Y-67210000D01*
X118940000Y-70430000D02*
X117140000Y-70430000D01*
X112520280Y-122256402D02*
X106820999Y-116557122D01*
X115716402Y-119060280D02*
X112520280Y-122256402D01*
X110017122Y-113360999D02*
X115716402Y-119060280D01*
D12*
X90370000Y-98010000D02*
X90370000Y-98010000D01*
X90470000Y-98010000D02*
X90470000Y-98010000D01*
X90370000Y-98010000D02*
G75*
G03*
X90470000Y-98010000I50000J0D01*
G01*
X90470000Y-98010000D02*
G75*
G03*
X90370000Y-98010000I-50000J0D01*
G01*
D10*
X98997936Y-102220000D02*
X103102064Y-102220000D01*
X98997936Y-105640000D02*
X103102064Y-105640000D01*
X85130000Y-67630000D02*
X85130000Y-68960000D01*
X86460000Y-67630000D02*
X85130000Y-67630000D01*
X87730000Y-67630000D02*
X87730000Y-70290000D01*
X87730000Y-70290000D02*
X90330000Y-70290000D01*
X87730000Y-67630000D02*
X90330000Y-67630000D01*
X90330000Y-67630000D02*
X90330000Y-70290000D01*
X128432779Y-110630000D02*
X128107221Y-110630000D01*
X128432779Y-109610000D02*
X128107221Y-109610000D01*
X101690000Y-69678748D02*
X101690000Y-70201252D01*
X100270000Y-69678748D02*
X100270000Y-70201252D01*
X113190000Y-105980000D02*
X113190000Y-104980000D01*
X114390000Y-105980000D02*
X114390000Y-105180000D01*
X114410000Y-110080000D02*
X114410000Y-109280000D01*
X113210000Y-110080000D02*
X113210000Y-109080000D01*
X117960000Y-101800000D02*
X117960000Y-100340000D01*
X114800000Y-101800000D02*
X114800000Y-99640000D01*
X114800000Y-101800000D02*
X115730000Y-101800000D01*
X117960000Y-101800000D02*
X117030000Y-101800000D01*
X92617221Y-102410000D02*
X92942779Y-102410000D01*
X92617221Y-103430000D02*
X92942779Y-103430000D01*
D13*
X95288380Y-120007142D02*
X94812190Y-119673809D01*
X95288380Y-119435714D02*
X94288380Y-119435714D01*
X94288380Y-119816666D01*
X94336000Y-119911904D01*
X94383619Y-119959523D01*
X94478857Y-120007142D01*
X94621714Y-120007142D01*
X94716952Y-119959523D01*
X94764571Y-119911904D01*
X94812190Y-119816666D01*
X94812190Y-119435714D01*
X94288380Y-120864285D02*
X94288380Y-120673809D01*
X94336000Y-120578571D01*
X94383619Y-120530952D01*
X94526476Y-120435714D01*
X94716952Y-120388095D01*
X95097904Y-120388095D01*
X95193142Y-120435714D01*
X95240761Y-120483333D01*
X95288380Y-120578571D01*
X95288380Y-120769047D01*
X95240761Y-120864285D01*
X95193142Y-120911904D01*
X95097904Y-120959523D01*
X94859809Y-120959523D01*
X94764571Y-120911904D01*
X94716952Y-120864285D01*
X94669333Y-120769047D01*
X94669333Y-120578571D01*
X94716952Y-120483333D01*
X94764571Y-120435714D01*
X94859809Y-120388095D01*
X94383619Y-121340476D02*
X94336000Y-121388095D01*
X94288380Y-121483333D01*
X94288380Y-121721428D01*
X94336000Y-121816666D01*
X94383619Y-121864285D01*
X94478857Y-121911904D01*
X94574095Y-121911904D01*
X94716952Y-121864285D01*
X95288380Y-121292857D01*
X95288380Y-121911904D01*
X87422380Y-119535714D02*
X86422380Y-119535714D01*
X86422380Y-119773809D01*
X86470000Y-119916666D01*
X86565238Y-120011904D01*
X86660476Y-120059523D01*
X86850952Y-120107142D01*
X86993809Y-120107142D01*
X87184285Y-120059523D01*
X87279523Y-120011904D01*
X87374761Y-119916666D01*
X87422380Y-119773809D01*
X87422380Y-119535714D01*
X87422380Y-121059523D02*
X87422380Y-120488095D01*
X87422380Y-120773809D02*
X86422380Y-120773809D01*
X86565238Y-120678571D01*
X86660476Y-120583333D01*
X86708095Y-120488095D01*
X86422380Y-121678571D02*
X86422380Y-121773809D01*
X86470000Y-121869047D01*
X86517619Y-121916666D01*
X86612857Y-121964285D01*
X86803333Y-122011904D01*
X87041428Y-122011904D01*
X87231904Y-121964285D01*
X87327142Y-121916666D01*
X87374761Y-121869047D01*
X87422380Y-121773809D01*
X87422380Y-121678571D01*
X87374761Y-121583333D01*
X87327142Y-121535714D01*
X87231904Y-121488095D01*
X87041428Y-121440476D01*
X86803333Y-121440476D01*
X86612857Y-121488095D01*
X86517619Y-121535714D01*
X86470000Y-121583333D01*
X86422380Y-121678571D01*
X81933333Y-123752380D02*
X81933333Y-124466666D01*
X81980952Y-124609523D01*
X82076190Y-124704761D01*
X82219047Y-124752380D01*
X82314285Y-124752380D01*
X80933333Y-124752380D02*
X81504761Y-124752380D01*
X81219047Y-124752380D02*
X81219047Y-123752380D01*
X81314285Y-123895238D01*
X81409523Y-123990476D01*
X81504761Y-124038095D01*
X107247142Y-111907142D02*
X107294761Y-111859523D01*
X107342380Y-111716666D01*
X107342380Y-111621428D01*
X107294761Y-111478571D01*
X107199523Y-111383333D01*
X107104285Y-111335714D01*
X106913809Y-111288095D01*
X106770952Y-111288095D01*
X106580476Y-111335714D01*
X106485238Y-111383333D01*
X106390000Y-111478571D01*
X106342380Y-111621428D01*
X106342380Y-111716666D01*
X106390000Y-111859523D01*
X106437619Y-111907142D01*
X107342380Y-112859523D02*
X107342380Y-112288095D01*
X107342380Y-112573809D02*
X106342380Y-112573809D01*
X106485238Y-112478571D01*
X106580476Y-112383333D01*
X106628095Y-112288095D01*
X106342380Y-113192857D02*
X106342380Y-113859523D01*
X107342380Y-113430952D01*
X96816666Y-97977142D02*
X96864285Y-98024761D01*
X97007142Y-98072380D01*
X97102380Y-98072380D01*
X97245238Y-98024761D01*
X97340476Y-97929523D01*
X97388095Y-97834285D01*
X97435714Y-97643809D01*
X97435714Y-97500952D01*
X97388095Y-97310476D01*
X97340476Y-97215238D01*
X97245238Y-97120000D01*
X97102380Y-97072380D01*
X97007142Y-97072380D01*
X96864285Y-97120000D01*
X96816666Y-97167619D01*
X95911904Y-97072380D02*
X96388095Y-97072380D01*
X96435714Y-97548571D01*
X96388095Y-97500952D01*
X96292857Y-97453333D01*
X96054761Y-97453333D01*
X95959523Y-97500952D01*
X95911904Y-97548571D01*
X95864285Y-97643809D01*
X95864285Y-97881904D01*
X95911904Y-97977142D01*
X95959523Y-98024761D01*
X96054761Y-98072380D01*
X96292857Y-98072380D01*
X96388095Y-98024761D01*
X96435714Y-97977142D01*
X105669166Y-74437142D02*
X105716785Y-74484761D01*
X105859642Y-74532380D01*
X105954880Y-74532380D01*
X106097738Y-74484761D01*
X106192976Y-74389523D01*
X106240595Y-74294285D01*
X106288214Y-74103809D01*
X106288214Y-73960952D01*
X106240595Y-73770476D01*
X106192976Y-73675238D01*
X106097738Y-73580000D01*
X105954880Y-73532380D01*
X105859642Y-73532380D01*
X105716785Y-73580000D01*
X105669166Y-73627619D01*
X104812023Y-73532380D02*
X105002500Y-73532380D01*
X105097738Y-73580000D01*
X105145357Y-73627619D01*
X105240595Y-73770476D01*
X105288214Y-73960952D01*
X105288214Y-74341904D01*
X105240595Y-74437142D01*
X105192976Y-74484761D01*
X105097738Y-74532380D01*
X104907261Y-74532380D01*
X104812023Y-74484761D01*
X104764404Y-74437142D01*
X104716785Y-74341904D01*
X104716785Y-74103809D01*
X104764404Y-74008571D01*
X104812023Y-73960952D01*
X104907261Y-73913333D01*
X105097738Y-73913333D01*
X105192976Y-73960952D01*
X105240595Y-74008571D01*
X105288214Y-74103809D01*
X106112857Y-91707142D02*
X106160476Y-91754761D01*
X106303333Y-91802380D01*
X106398571Y-91802380D01*
X106541428Y-91754761D01*
X106636666Y-91659523D01*
X106684285Y-91564285D01*
X106731904Y-91373809D01*
X106731904Y-91230952D01*
X106684285Y-91040476D01*
X106636666Y-90945238D01*
X106541428Y-90850000D01*
X106398571Y-90802380D01*
X106303333Y-90802380D01*
X106160476Y-90850000D01*
X106112857Y-90897619D01*
X105160476Y-91802380D02*
X105731904Y-91802380D01*
X105446190Y-91802380D02*
X105446190Y-90802380D01*
X105541428Y-90945238D01*
X105636666Y-91040476D01*
X105731904Y-91088095D01*
X104779523Y-90897619D02*
X104731904Y-90850000D01*
X104636666Y-90802380D01*
X104398571Y-90802380D01*
X104303333Y-90850000D01*
X104255714Y-90897619D01*
X104208095Y-90992857D01*
X104208095Y-91088095D01*
X104255714Y-91230952D01*
X104827142Y-91802380D01*
X104208095Y-91802380D01*
X97262857Y-80697142D02*
X97310476Y-80744761D01*
X97453333Y-80792380D01*
X97548571Y-80792380D01*
X97691428Y-80744761D01*
X97786666Y-80649523D01*
X97834285Y-80554285D01*
X97881904Y-80363809D01*
X97881904Y-80220952D01*
X97834285Y-80030476D01*
X97786666Y-79935238D01*
X97691428Y-79840000D01*
X97548571Y-79792380D01*
X97453333Y-79792380D01*
X97310476Y-79840000D01*
X97262857Y-79887619D01*
X96310476Y-80792380D02*
X96881904Y-80792380D01*
X96596190Y-80792380D02*
X96596190Y-79792380D01*
X96691428Y-79935238D01*
X96786666Y-80030476D01*
X96881904Y-80078095D01*
X95977142Y-79792380D02*
X95358095Y-79792380D01*
X95691428Y-80173333D01*
X95548571Y-80173333D01*
X95453333Y-80220952D01*
X95405714Y-80268571D01*
X95358095Y-80363809D01*
X95358095Y-80601904D01*
X95405714Y-80697142D01*
X95453333Y-80744761D01*
X95548571Y-80792380D01*
X95834285Y-80792380D01*
X95929523Y-80744761D01*
X95977142Y-80697142D01*
X114827142Y-99807142D02*
X114874761Y-99759523D01*
X114922380Y-99616666D01*
X114922380Y-99521428D01*
X114874761Y-99378571D01*
X114779523Y-99283333D01*
X114684285Y-99235714D01*
X114493809Y-99188095D01*
X114350952Y-99188095D01*
X114160476Y-99235714D01*
X114065238Y-99283333D01*
X113970000Y-99378571D01*
X113922380Y-99521428D01*
X113922380Y-99616666D01*
X113970000Y-99759523D01*
X114017619Y-99807142D01*
X114922380Y-100759523D02*
X114922380Y-100188095D01*
X114922380Y-100473809D02*
X113922380Y-100473809D01*
X114065238Y-100378571D01*
X114160476Y-100283333D01*
X114208095Y-100188095D01*
X113922380Y-101664285D02*
X113922380Y-101188095D01*
X114398571Y-101140476D01*
X114350952Y-101188095D01*
X114303333Y-101283333D01*
X114303333Y-101521428D01*
X114350952Y-101616666D01*
X114398571Y-101664285D01*
X114493809Y-101711904D01*
X114731904Y-101711904D01*
X114827142Y-101664285D01*
X114874761Y-101616666D01*
X114922380Y-101521428D01*
X114922380Y-101283333D01*
X114874761Y-101188095D01*
X114827142Y-101140476D01*
X121497142Y-100117142D02*
X121544761Y-100069523D01*
X121592380Y-99926666D01*
X121592380Y-99831428D01*
X121544761Y-99688571D01*
X121449523Y-99593333D01*
X121354285Y-99545714D01*
X121163809Y-99498095D01*
X121020952Y-99498095D01*
X120830476Y-99545714D01*
X120735238Y-99593333D01*
X120640000Y-99688571D01*
X120592380Y-99831428D01*
X120592380Y-99926666D01*
X120640000Y-100069523D01*
X120687619Y-100117142D01*
X120687619Y-100498095D02*
X120640000Y-100545714D01*
X120592380Y-100640952D01*
X120592380Y-100879047D01*
X120640000Y-100974285D01*
X120687619Y-101021904D01*
X120782857Y-101069523D01*
X120878095Y-101069523D01*
X121020952Y-101021904D01*
X121592380Y-100450476D01*
X121592380Y-101069523D01*
X120592380Y-101402857D02*
X120592380Y-102021904D01*
X120973333Y-101688571D01*
X120973333Y-101831428D01*
X121020952Y-101926666D01*
X121068571Y-101974285D01*
X121163809Y-102021904D01*
X121401904Y-102021904D01*
X121497142Y-101974285D01*
X121544761Y-101926666D01*
X121592380Y-101831428D01*
X121592380Y-101545714D01*
X121544761Y-101450476D01*
X121497142Y-101402857D01*
X120007142Y-67497142D02*
X120054761Y-67449523D01*
X120102380Y-67306666D01*
X120102380Y-67211428D01*
X120054761Y-67068571D01*
X119959523Y-66973333D01*
X119864285Y-66925714D01*
X119673809Y-66878095D01*
X119530952Y-66878095D01*
X119340476Y-66925714D01*
X119245238Y-66973333D01*
X119150000Y-67068571D01*
X119102380Y-67211428D01*
X119102380Y-67306666D01*
X119150000Y-67449523D01*
X119197619Y-67497142D01*
X119102380Y-67830476D02*
X119102380Y-68449523D01*
X119483333Y-68116190D01*
X119483333Y-68259047D01*
X119530952Y-68354285D01*
X119578571Y-68401904D01*
X119673809Y-68449523D01*
X119911904Y-68449523D01*
X120007142Y-68401904D01*
X120054761Y-68354285D01*
X120102380Y-68259047D01*
X120102380Y-67973333D01*
X120054761Y-67878095D01*
X120007142Y-67830476D01*
X120102380Y-69401904D02*
X120102380Y-68830476D01*
X120102380Y-69116190D02*
X119102380Y-69116190D01*
X119245238Y-69020952D01*
X119340476Y-68925714D01*
X119388095Y-68830476D01*
X120342857Y-74687142D02*
X120390476Y-74734761D01*
X120533333Y-74782380D01*
X120628571Y-74782380D01*
X120771428Y-74734761D01*
X120866666Y-74639523D01*
X120914285Y-74544285D01*
X120961904Y-74353809D01*
X120961904Y-74210952D01*
X120914285Y-74020476D01*
X120866666Y-73925238D01*
X120771428Y-73830000D01*
X120628571Y-73782380D01*
X120533333Y-73782380D01*
X120390476Y-73830000D01*
X120342857Y-73877619D01*
X120009523Y-73782380D02*
X119390476Y-73782380D01*
X119723809Y-74163333D01*
X119580952Y-74163333D01*
X119485714Y-74210952D01*
X119438095Y-74258571D01*
X119390476Y-74353809D01*
X119390476Y-74591904D01*
X119438095Y-74687142D01*
X119485714Y-74734761D01*
X119580952Y-74782380D01*
X119866666Y-74782380D01*
X119961904Y-74734761D01*
X120009523Y-74687142D01*
X118533333Y-74115714D02*
X118533333Y-74782380D01*
X118771428Y-73734761D02*
X119009523Y-74449047D01*
X118390476Y-74449047D01*
X97942857Y-83337142D02*
X97990476Y-83384761D01*
X98133333Y-83432380D01*
X98228571Y-83432380D01*
X98371428Y-83384761D01*
X98466666Y-83289523D01*
X98514285Y-83194285D01*
X98561904Y-83003809D01*
X98561904Y-82860952D01*
X98514285Y-82670476D01*
X98466666Y-82575238D01*
X98371428Y-82480000D01*
X98228571Y-82432380D01*
X98133333Y-82432380D01*
X97990476Y-82480000D01*
X97942857Y-82527619D01*
X97085714Y-82765714D02*
X97085714Y-83432380D01*
X97323809Y-82384761D02*
X97561904Y-83099047D01*
X96942857Y-83099047D01*
X96657142Y-82432380D02*
X96038095Y-82432380D01*
X96371428Y-82813333D01*
X96228571Y-82813333D01*
X96133333Y-82860952D01*
X96085714Y-82908571D01*
X96038095Y-83003809D01*
X96038095Y-83241904D01*
X96085714Y-83337142D01*
X96133333Y-83384761D01*
X96228571Y-83432380D01*
X96514285Y-83432380D01*
X96609523Y-83384761D01*
X96657142Y-83337142D01*
X105502857Y-79847142D02*
X105550476Y-79894761D01*
X105693333Y-79942380D01*
X105788571Y-79942380D01*
X105931428Y-79894761D01*
X106026666Y-79799523D01*
X106074285Y-79704285D01*
X106121904Y-79513809D01*
X106121904Y-79370952D01*
X106074285Y-79180476D01*
X106026666Y-79085238D01*
X105931428Y-78990000D01*
X105788571Y-78942380D01*
X105693333Y-78942380D01*
X105550476Y-78990000D01*
X105502857Y-79037619D01*
X104645714Y-79275714D02*
X104645714Y-79942380D01*
X104883809Y-78894761D02*
X105121904Y-79609047D01*
X104502857Y-79609047D01*
X103693333Y-79275714D02*
X103693333Y-79942380D01*
X103931428Y-78894761D02*
X104169523Y-79609047D01*
X103550476Y-79609047D01*
X122816857Y-105673142D02*
X122864476Y-105720761D01*
X123007333Y-105768380D01*
X123102571Y-105768380D01*
X123245428Y-105720761D01*
X123340666Y-105625523D01*
X123388285Y-105530285D01*
X123435904Y-105339809D01*
X123435904Y-105196952D01*
X123388285Y-105006476D01*
X123340666Y-104911238D01*
X123245428Y-104816000D01*
X123102571Y-104768380D01*
X123007333Y-104768380D01*
X122864476Y-104816000D01*
X122816857Y-104863619D01*
X121959714Y-105101714D02*
X121959714Y-105768380D01*
X122197809Y-104720761D02*
X122435904Y-105435047D01*
X121816857Y-105435047D01*
X120959714Y-104768380D02*
X121435904Y-104768380D01*
X121483523Y-105244571D01*
X121435904Y-105196952D01*
X121340666Y-105149333D01*
X121102571Y-105149333D01*
X121007333Y-105196952D01*
X120959714Y-105244571D01*
X120912095Y-105339809D01*
X120912095Y-105577904D01*
X120959714Y-105673142D01*
X121007333Y-105720761D01*
X121102571Y-105768380D01*
X121340666Y-105768380D01*
X121435904Y-105720761D01*
X121483523Y-105673142D01*
X125572857Y-96077142D02*
X125620476Y-96124761D01*
X125763333Y-96172380D01*
X125858571Y-96172380D01*
X126001428Y-96124761D01*
X126096666Y-96029523D01*
X126144285Y-95934285D01*
X126191904Y-95743809D01*
X126191904Y-95600952D01*
X126144285Y-95410476D01*
X126096666Y-95315238D01*
X126001428Y-95220000D01*
X125858571Y-95172380D01*
X125763333Y-95172380D01*
X125620476Y-95220000D01*
X125572857Y-95267619D01*
X124715714Y-95505714D02*
X124715714Y-96172380D01*
X124953809Y-95124761D02*
X125191904Y-95839047D01*
X124572857Y-95839047D01*
X123763333Y-95172380D02*
X123953809Y-95172380D01*
X124049047Y-95220000D01*
X124096666Y-95267619D01*
X124191904Y-95410476D01*
X124239523Y-95600952D01*
X124239523Y-95981904D01*
X124191904Y-96077142D01*
X124144285Y-96124761D01*
X124049047Y-96172380D01*
X123858571Y-96172380D01*
X123763333Y-96124761D01*
X123715714Y-96077142D01*
X123668095Y-95981904D01*
X123668095Y-95743809D01*
X123715714Y-95648571D01*
X123763333Y-95600952D01*
X123858571Y-95553333D01*
X124049047Y-95553333D01*
X124144285Y-95600952D01*
X124191904Y-95648571D01*
X124239523Y-95743809D01*
X105082380Y-113611904D02*
X104082380Y-113611904D01*
X104082380Y-113850000D01*
X104130000Y-113992857D01*
X104225238Y-114088095D01*
X104320476Y-114135714D01*
X104510952Y-114183333D01*
X104653809Y-114183333D01*
X104844285Y-114135714D01*
X104939523Y-114088095D01*
X105034761Y-113992857D01*
X105082380Y-113850000D01*
X105082380Y-113611904D01*
X104082380Y-114516666D02*
X104082380Y-115135714D01*
X104463333Y-114802380D01*
X104463333Y-114945238D01*
X104510952Y-115040476D01*
X104558571Y-115088095D01*
X104653809Y-115135714D01*
X104891904Y-115135714D01*
X104987142Y-115088095D01*
X105034761Y-115040476D01*
X105082380Y-114945238D01*
X105082380Y-114659523D01*
X105034761Y-114564285D01*
X104987142Y-114516666D01*
D14*
X119237380Y-114981523D02*
X119237380Y-113711523D01*
X118935000Y-113711523D01*
X118753571Y-113772000D01*
X118632619Y-113892952D01*
X118572142Y-114013904D01*
X118511666Y-114255809D01*
X118511666Y-114437238D01*
X118572142Y-114679142D01*
X118632619Y-114800095D01*
X118753571Y-114921047D01*
X118935000Y-114981523D01*
X119237380Y-114981523D01*
X117362619Y-113711523D02*
X117967380Y-113711523D01*
X118027857Y-114316285D01*
X117967380Y-114255809D01*
X117846428Y-114195333D01*
X117544047Y-114195333D01*
X117423095Y-114255809D01*
X117362619Y-114316285D01*
X117302142Y-114437238D01*
X117302142Y-114739619D01*
X117362619Y-114860571D01*
X117423095Y-114921047D01*
X117544047Y-114981523D01*
X117846428Y-114981523D01*
X117967380Y-114921047D01*
X118027857Y-114860571D01*
D13*
X95182380Y-119485714D02*
X94182380Y-119485714D01*
X94182380Y-119723809D01*
X94230000Y-119866666D01*
X94325238Y-119961904D01*
X94420476Y-120009523D01*
X94610952Y-120057142D01*
X94753809Y-120057142D01*
X94944285Y-120009523D01*
X95039523Y-119961904D01*
X95134761Y-119866666D01*
X95182380Y-119723809D01*
X95182380Y-119485714D01*
X95182380Y-121009523D02*
X95182380Y-120438095D01*
X95182380Y-120723809D02*
X94182380Y-120723809D01*
X94325238Y-120628571D01*
X94420476Y-120533333D01*
X94468095Y-120438095D01*
X95182380Y-121961904D02*
X95182380Y-121390476D01*
X95182380Y-121676190D02*
X94182380Y-121676190D01*
X94325238Y-121580952D01*
X94420476Y-121485714D01*
X94468095Y-121390476D01*
X100072380Y-123185714D02*
X99072380Y-123185714D01*
X99072380Y-123423809D01*
X99120000Y-123566666D01*
X99215238Y-123661904D01*
X99310476Y-123709523D01*
X99500952Y-123757142D01*
X99643809Y-123757142D01*
X99834285Y-123709523D01*
X99929523Y-123661904D01*
X100024761Y-123566666D01*
X100072380Y-123423809D01*
X100072380Y-123185714D01*
X100072380Y-124709523D02*
X100072380Y-124138095D01*
X100072380Y-124423809D02*
X99072380Y-124423809D01*
X99215238Y-124328571D01*
X99310476Y-124233333D01*
X99358095Y-124138095D01*
X99167619Y-125090476D02*
X99120000Y-125138095D01*
X99072380Y-125233333D01*
X99072380Y-125471428D01*
X99120000Y-125566666D01*
X99167619Y-125614285D01*
X99262857Y-125661904D01*
X99358095Y-125661904D01*
X99500952Y-125614285D01*
X100072380Y-125042857D01*
X100072380Y-125661904D01*
X112947619Y-108424285D02*
X113947619Y-108424285D01*
X113947619Y-108186190D01*
X113900000Y-108043333D01*
X113804761Y-107948095D01*
X113709523Y-107900476D01*
X113519047Y-107852857D01*
X113376190Y-107852857D01*
X113185714Y-107900476D01*
X113090476Y-107948095D01*
X112995238Y-108043333D01*
X112947619Y-108186190D01*
X112947619Y-108424285D01*
X112947619Y-106900476D02*
X112947619Y-107471904D01*
X112947619Y-107186190D02*
X113947619Y-107186190D01*
X113804761Y-107281428D01*
X113709523Y-107376666D01*
X113661904Y-107471904D01*
X113947619Y-106567142D02*
X113947619Y-105948095D01*
X113566666Y-106281428D01*
X113566666Y-106138571D01*
X113519047Y-106043333D01*
X113471428Y-105995714D01*
X113376190Y-105948095D01*
X113138095Y-105948095D01*
X113042857Y-105995714D01*
X112995238Y-106043333D01*
X112947619Y-106138571D01*
X112947619Y-106424285D01*
X112995238Y-106519523D01*
X113042857Y-106567142D01*
X95672380Y-113485714D02*
X94672380Y-113485714D01*
X94672380Y-113723809D01*
X94720000Y-113866666D01*
X94815238Y-113961904D01*
X94910476Y-114009523D01*
X95100952Y-114057142D01*
X95243809Y-114057142D01*
X95434285Y-114009523D01*
X95529523Y-113961904D01*
X95624761Y-113866666D01*
X95672380Y-113723809D01*
X95672380Y-113485714D01*
X95672380Y-115009523D02*
X95672380Y-114438095D01*
X95672380Y-114723809D02*
X94672380Y-114723809D01*
X94815238Y-114628571D01*
X94910476Y-114533333D01*
X94958095Y-114438095D01*
X95005714Y-115866666D02*
X95672380Y-115866666D01*
X94624761Y-115628571D02*
X95339047Y-115390476D01*
X95339047Y-116009523D01*
X105172380Y-68295714D02*
X104172380Y-68295714D01*
X104172380Y-68533809D01*
X104220000Y-68676666D01*
X104315238Y-68771904D01*
X104410476Y-68819523D01*
X104600952Y-68867142D01*
X104743809Y-68867142D01*
X104934285Y-68819523D01*
X105029523Y-68771904D01*
X105124761Y-68676666D01*
X105172380Y-68533809D01*
X105172380Y-68295714D01*
X105172380Y-69819523D02*
X105172380Y-69248095D01*
X105172380Y-69533809D02*
X104172380Y-69533809D01*
X104315238Y-69438571D01*
X104410476Y-69343333D01*
X104458095Y-69248095D01*
X104172380Y-70676666D02*
X104172380Y-70486190D01*
X104220000Y-70390952D01*
X104267619Y-70343333D01*
X104410476Y-70248095D01*
X104600952Y-70200476D01*
X104981904Y-70200476D01*
X105077142Y-70248095D01*
X105124761Y-70295714D01*
X105172380Y-70390952D01*
X105172380Y-70581428D01*
X105124761Y-70676666D01*
X105077142Y-70724285D01*
X104981904Y-70771904D01*
X104743809Y-70771904D01*
X104648571Y-70724285D01*
X104600952Y-70676666D01*
X104553333Y-70581428D01*
X104553333Y-70390952D01*
X104600952Y-70295714D01*
X104648571Y-70248095D01*
X104743809Y-70200476D01*
X95863333Y-66288571D02*
X96196666Y-66288571D01*
X96196666Y-66812380D02*
X96196666Y-65812380D01*
X95720476Y-65812380D01*
X95387142Y-65907619D02*
X95339523Y-65860000D01*
X95244285Y-65812380D01*
X95006190Y-65812380D01*
X94910952Y-65860000D01*
X94863333Y-65907619D01*
X94815714Y-66002857D01*
X94815714Y-66098095D01*
X94863333Y-66240952D01*
X95434761Y-66812380D01*
X94815714Y-66812380D01*
X112277619Y-104914761D02*
X112230000Y-104819523D01*
X112134761Y-104724285D01*
X111991904Y-104581428D01*
X111944285Y-104486190D01*
X111944285Y-104390952D01*
X112182380Y-104438571D02*
X112134761Y-104343333D01*
X112039523Y-104248095D01*
X111849047Y-104200476D01*
X111515714Y-104200476D01*
X111325238Y-104248095D01*
X111230000Y-104343333D01*
X111182380Y-104438571D01*
X111182380Y-104629047D01*
X111230000Y-104724285D01*
X111325238Y-104819523D01*
X111515714Y-104867142D01*
X111849047Y-104867142D01*
X112039523Y-104819523D01*
X112134761Y-104724285D01*
X112182380Y-104629047D01*
X112182380Y-104438571D01*
X111182380Y-105771904D02*
X111182380Y-105295714D01*
X111658571Y-105248095D01*
X111610952Y-105295714D01*
X111563333Y-105390952D01*
X111563333Y-105629047D01*
X111610952Y-105724285D01*
X111658571Y-105771904D01*
X111753809Y-105819523D01*
X111991904Y-105819523D01*
X112087142Y-105771904D01*
X112134761Y-105724285D01*
X112182380Y-105629047D01*
X112182380Y-105390952D01*
X112134761Y-105295714D01*
X112087142Y-105248095D01*
X109637619Y-70294761D02*
X109590000Y-70199523D01*
X109494761Y-70104285D01*
X109351904Y-69961428D01*
X109304285Y-69866190D01*
X109304285Y-69770952D01*
X109542380Y-69818571D02*
X109494761Y-69723333D01*
X109399523Y-69628095D01*
X109209047Y-69580476D01*
X108875714Y-69580476D01*
X108685238Y-69628095D01*
X108590000Y-69723333D01*
X108542380Y-69818571D01*
X108542380Y-70009047D01*
X108590000Y-70104285D01*
X108685238Y-70199523D01*
X108875714Y-70247142D01*
X109209047Y-70247142D01*
X109399523Y-70199523D01*
X109494761Y-70104285D01*
X109542380Y-70009047D01*
X109542380Y-69818571D01*
X108542380Y-71104285D02*
X108542380Y-70913809D01*
X108590000Y-70818571D01*
X108637619Y-70770952D01*
X108780476Y-70675714D01*
X108970952Y-70628095D01*
X109351904Y-70628095D01*
X109447142Y-70675714D01*
X109494761Y-70723333D01*
X109542380Y-70818571D01*
X109542380Y-71009047D01*
X109494761Y-71104285D01*
X109447142Y-71151904D01*
X109351904Y-71199523D01*
X109113809Y-71199523D01*
X109018571Y-71151904D01*
X108970952Y-71104285D01*
X108923333Y-71009047D01*
X108923333Y-70818571D01*
X108970952Y-70723333D01*
X109018571Y-70675714D01*
X109113809Y-70628095D01*
X111366666Y-111632380D02*
X111700000Y-111156190D01*
X111938095Y-111632380D02*
X111938095Y-110632380D01*
X111557142Y-110632380D01*
X111461904Y-110680000D01*
X111414285Y-110727619D01*
X111366666Y-110822857D01*
X111366666Y-110965714D01*
X111414285Y-111060952D01*
X111461904Y-111108571D01*
X111557142Y-111156190D01*
X111938095Y-111156190D01*
X111033333Y-110632380D02*
X110366666Y-110632380D01*
X110795238Y-111632380D01*
X117356666Y-104462380D02*
X117690000Y-103986190D01*
X117928095Y-104462380D02*
X117928095Y-103462380D01*
X117547142Y-103462380D01*
X117451904Y-103510000D01*
X117404285Y-103557619D01*
X117356666Y-103652857D01*
X117356666Y-103795714D01*
X117404285Y-103890952D01*
X117451904Y-103938571D01*
X117547142Y-103986190D01*
X117928095Y-103986190D01*
X116785238Y-103890952D02*
X116880476Y-103843333D01*
X116928095Y-103795714D01*
X116975714Y-103700476D01*
X116975714Y-103652857D01*
X116928095Y-103557619D01*
X116880476Y-103510000D01*
X116785238Y-103462380D01*
X116594761Y-103462380D01*
X116499523Y-103510000D01*
X116451904Y-103557619D01*
X116404285Y-103652857D01*
X116404285Y-103700476D01*
X116451904Y-103795714D01*
X116499523Y-103843333D01*
X116594761Y-103890952D01*
X116785238Y-103890952D01*
X116880476Y-103938571D01*
X116928095Y-103986190D01*
X116975714Y-104081428D01*
X116975714Y-104271904D01*
X116928095Y-104367142D01*
X116880476Y-104414761D01*
X116785238Y-104462380D01*
X116594761Y-104462380D01*
X116499523Y-104414761D01*
X116451904Y-104367142D01*
X116404285Y-104271904D01*
X116404285Y-104081428D01*
X116451904Y-103986190D01*
X116499523Y-103938571D01*
X116594761Y-103890952D01*
X117346666Y-106002380D02*
X117680000Y-105526190D01*
X117918095Y-106002380D02*
X117918095Y-105002380D01*
X117537142Y-105002380D01*
X117441904Y-105050000D01*
X117394285Y-105097619D01*
X117346666Y-105192857D01*
X117346666Y-105335714D01*
X117394285Y-105430952D01*
X117441904Y-105478571D01*
X117537142Y-105526190D01*
X117918095Y-105526190D01*
X116870476Y-106002380D02*
X116680000Y-106002380D01*
X116584761Y-105954761D01*
X116537142Y-105907142D01*
X116441904Y-105764285D01*
X116394285Y-105573809D01*
X116394285Y-105192857D01*
X116441904Y-105097619D01*
X116489523Y-105050000D01*
X116584761Y-105002380D01*
X116775238Y-105002380D01*
X116870476Y-105050000D01*
X116918095Y-105097619D01*
X116965714Y-105192857D01*
X116965714Y-105430952D01*
X116918095Y-105526190D01*
X116870476Y-105573809D01*
X116775238Y-105621428D01*
X116584761Y-105621428D01*
X116489523Y-105573809D01*
X116441904Y-105526190D01*
X116394285Y-105430952D01*
X103532380Y-113707142D02*
X103056190Y-113373809D01*
X103532380Y-113135714D02*
X102532380Y-113135714D01*
X102532380Y-113516666D01*
X102580000Y-113611904D01*
X102627619Y-113659523D01*
X102722857Y-113707142D01*
X102865714Y-113707142D01*
X102960952Y-113659523D01*
X103008571Y-113611904D01*
X103056190Y-113516666D01*
X103056190Y-113135714D01*
X103532380Y-114659523D02*
X103532380Y-114088095D01*
X103532380Y-114373809D02*
X102532380Y-114373809D01*
X102675238Y-114278571D01*
X102770476Y-114183333D01*
X102818095Y-114088095D01*
X102532380Y-115278571D02*
X102532380Y-115373809D01*
X102580000Y-115469047D01*
X102627619Y-115516666D01*
X102722857Y-115564285D01*
X102913333Y-115611904D01*
X103151428Y-115611904D01*
X103341904Y-115564285D01*
X103437142Y-115516666D01*
X103484761Y-115469047D01*
X103532380Y-115373809D01*
X103532380Y-115278571D01*
X103484761Y-115183333D01*
X103437142Y-115135714D01*
X103341904Y-115088095D01*
X103151428Y-115040476D01*
X102913333Y-115040476D01*
X102722857Y-115088095D01*
X102627619Y-115135714D01*
X102580000Y-115183333D01*
X102532380Y-115278571D01*
X117832857Y-102922380D02*
X118166190Y-102446190D01*
X118404285Y-102922380D02*
X118404285Y-101922380D01*
X118023333Y-101922380D01*
X117928095Y-101970000D01*
X117880476Y-102017619D01*
X117832857Y-102112857D01*
X117832857Y-102255714D01*
X117880476Y-102350952D01*
X117928095Y-102398571D01*
X118023333Y-102446190D01*
X118404285Y-102446190D01*
X116880476Y-102922380D02*
X117451904Y-102922380D01*
X117166190Y-102922380D02*
X117166190Y-101922380D01*
X117261428Y-102065238D01*
X117356666Y-102160476D01*
X117451904Y-102208095D01*
X115928095Y-102922380D02*
X116499523Y-102922380D01*
X116213809Y-102922380D02*
X116213809Y-101922380D01*
X116309047Y-102065238D01*
X116404285Y-102160476D01*
X116499523Y-102208095D01*
X97172380Y-114057142D02*
X96696190Y-113723809D01*
X97172380Y-113485714D02*
X96172380Y-113485714D01*
X96172380Y-113866666D01*
X96220000Y-113961904D01*
X96267619Y-114009523D01*
X96362857Y-114057142D01*
X96505714Y-114057142D01*
X96600952Y-114009523D01*
X96648571Y-113961904D01*
X96696190Y-113866666D01*
X96696190Y-113485714D01*
X97172380Y-115009523D02*
X97172380Y-114438095D01*
X97172380Y-114723809D02*
X96172380Y-114723809D01*
X96315238Y-114628571D01*
X96410476Y-114533333D01*
X96458095Y-114438095D01*
X96267619Y-115390476D02*
X96220000Y-115438095D01*
X96172380Y-115533333D01*
X96172380Y-115771428D01*
X96220000Y-115866666D01*
X96267619Y-115914285D01*
X96362857Y-115961904D01*
X96458095Y-115961904D01*
X96600952Y-115914285D01*
X97172380Y-115342857D01*
X97172380Y-115961904D01*
X100172380Y-119357142D02*
X99696190Y-119023809D01*
X100172380Y-118785714D02*
X99172380Y-118785714D01*
X99172380Y-119166666D01*
X99220000Y-119261904D01*
X99267619Y-119309523D01*
X99362857Y-119357142D01*
X99505714Y-119357142D01*
X99600952Y-119309523D01*
X99648571Y-119261904D01*
X99696190Y-119166666D01*
X99696190Y-118785714D01*
X100172380Y-120309523D02*
X100172380Y-119738095D01*
X100172380Y-120023809D02*
X99172380Y-120023809D01*
X99315238Y-119928571D01*
X99410476Y-119833333D01*
X99458095Y-119738095D01*
X99172380Y-121214285D02*
X99172380Y-120738095D01*
X99648571Y-120690476D01*
X99600952Y-120738095D01*
X99553333Y-120833333D01*
X99553333Y-121071428D01*
X99600952Y-121166666D01*
X99648571Y-121214285D01*
X99743809Y-121261904D01*
X99981904Y-121261904D01*
X100077142Y-121214285D01*
X100124761Y-121166666D01*
X100172380Y-121071428D01*
X100172380Y-120833333D01*
X100124761Y-120738095D01*
X100077142Y-120690476D01*
X92688380Y-124157142D02*
X92212190Y-123823809D01*
X92688380Y-123585714D02*
X91688380Y-123585714D01*
X91688380Y-123966666D01*
X91736000Y-124061904D01*
X91783619Y-124109523D01*
X91878857Y-124157142D01*
X92021714Y-124157142D01*
X92116952Y-124109523D01*
X92164571Y-124061904D01*
X92212190Y-123966666D01*
X92212190Y-123585714D01*
X92688380Y-125109523D02*
X92688380Y-124538095D01*
X92688380Y-124823809D02*
X91688380Y-124823809D01*
X91831238Y-124728571D01*
X91926476Y-124633333D01*
X91974095Y-124538095D01*
X91688380Y-125966666D02*
X91688380Y-125776190D01*
X91736000Y-125680952D01*
X91783619Y-125633333D01*
X91926476Y-125538095D01*
X92116952Y-125490476D01*
X92497904Y-125490476D01*
X92593142Y-125538095D01*
X92640761Y-125585714D01*
X92688380Y-125680952D01*
X92688380Y-125871428D01*
X92640761Y-125966666D01*
X92593142Y-126014285D01*
X92497904Y-126061904D01*
X92259809Y-126061904D01*
X92164571Y-126014285D01*
X92116952Y-125966666D01*
X92069333Y-125871428D01*
X92069333Y-125680952D01*
X92116952Y-125585714D01*
X92164571Y-125538095D01*
X92259809Y-125490476D01*
X100888380Y-123757142D02*
X100412190Y-123423809D01*
X100888380Y-123185714D02*
X99888380Y-123185714D01*
X99888380Y-123566666D01*
X99936000Y-123661904D01*
X99983619Y-123709523D01*
X100078857Y-123757142D01*
X100221714Y-123757142D01*
X100316952Y-123709523D01*
X100364571Y-123661904D01*
X100412190Y-123566666D01*
X100412190Y-123185714D01*
X100888380Y-124709523D02*
X100888380Y-124138095D01*
X100888380Y-124423809D02*
X99888380Y-124423809D01*
X100031238Y-124328571D01*
X100126476Y-124233333D01*
X100174095Y-124138095D01*
X99888380Y-125042857D02*
X99888380Y-125709523D01*
X100888380Y-125280952D01*
X88452380Y-119794642D02*
X87976190Y-119461309D01*
X88452380Y-119223214D02*
X87452380Y-119223214D01*
X87452380Y-119604166D01*
X87500000Y-119699404D01*
X87547619Y-119747023D01*
X87642857Y-119794642D01*
X87785714Y-119794642D01*
X87880952Y-119747023D01*
X87928571Y-119699404D01*
X87976190Y-119604166D01*
X87976190Y-119223214D01*
X88452380Y-120747023D02*
X88452380Y-120175595D01*
X88452380Y-120461309D02*
X87452380Y-120461309D01*
X87595238Y-120366071D01*
X87690476Y-120270833D01*
X87738095Y-120175595D01*
X87880952Y-121318452D02*
X87833333Y-121223214D01*
X87785714Y-121175595D01*
X87690476Y-121127976D01*
X87642857Y-121127976D01*
X87547619Y-121175595D01*
X87500000Y-121223214D01*
X87452380Y-121318452D01*
X87452380Y-121508928D01*
X87500000Y-121604166D01*
X87547619Y-121651785D01*
X87642857Y-121699404D01*
X87690476Y-121699404D01*
X87785714Y-121651785D01*
X87833333Y-121604166D01*
X87880952Y-121508928D01*
X87880952Y-121318452D01*
X87928571Y-121223214D01*
X87976190Y-121175595D01*
X88071428Y-121127976D01*
X88261904Y-121127976D01*
X88357142Y-121175595D01*
X88404761Y-121223214D01*
X88452380Y-121318452D01*
X88452380Y-121508928D01*
X88404761Y-121604166D01*
X88357142Y-121651785D01*
X88261904Y-121699404D01*
X88071428Y-121699404D01*
X87976190Y-121651785D01*
X87928571Y-121604166D01*
X87880952Y-121508928D01*
X115932380Y-117407142D02*
X115456190Y-117073809D01*
X115932380Y-116835714D02*
X114932380Y-116835714D01*
X114932380Y-117216666D01*
X114980000Y-117311904D01*
X115027619Y-117359523D01*
X115122857Y-117407142D01*
X115265714Y-117407142D01*
X115360952Y-117359523D01*
X115408571Y-117311904D01*
X115456190Y-117216666D01*
X115456190Y-116835714D01*
X115932380Y-118359523D02*
X115932380Y-117788095D01*
X115932380Y-118073809D02*
X114932380Y-118073809D01*
X115075238Y-117978571D01*
X115170476Y-117883333D01*
X115218095Y-117788095D01*
X115932380Y-118835714D02*
X115932380Y-119026190D01*
X115884761Y-119121428D01*
X115837142Y-119169047D01*
X115694285Y-119264285D01*
X115503809Y-119311904D01*
X115122857Y-119311904D01*
X115027619Y-119264285D01*
X114980000Y-119216666D01*
X114932380Y-119121428D01*
X114932380Y-118930952D01*
X114980000Y-118835714D01*
X115027619Y-118788095D01*
X115122857Y-118740476D01*
X115360952Y-118740476D01*
X115456190Y-118788095D01*
X115503809Y-118835714D01*
X115551428Y-118930952D01*
X115551428Y-119121428D01*
X115503809Y-119216666D01*
X115456190Y-119264285D01*
X115360952Y-119311904D01*
X117802857Y-110402380D02*
X118136190Y-109926190D01*
X118374285Y-110402380D02*
X118374285Y-109402380D01*
X117993333Y-109402380D01*
X117898095Y-109450000D01*
X117850476Y-109497619D01*
X117802857Y-109592857D01*
X117802857Y-109735714D01*
X117850476Y-109830952D01*
X117898095Y-109878571D01*
X117993333Y-109926190D01*
X118374285Y-109926190D01*
X116898095Y-109402380D02*
X117374285Y-109402380D01*
X117421904Y-109878571D01*
X117374285Y-109830952D01*
X117279047Y-109783333D01*
X117040952Y-109783333D01*
X116945714Y-109830952D01*
X116898095Y-109878571D01*
X116850476Y-109973809D01*
X116850476Y-110211904D01*
X116898095Y-110307142D01*
X116945714Y-110354761D01*
X117040952Y-110402380D01*
X117279047Y-110402380D01*
X117374285Y-110354761D01*
X117421904Y-110307142D01*
X116231428Y-109402380D02*
X116136190Y-109402380D01*
X116040952Y-109450000D01*
X115993333Y-109497619D01*
X115945714Y-109592857D01*
X115898095Y-109783333D01*
X115898095Y-110021428D01*
X115945714Y-110211904D01*
X115993333Y-110307142D01*
X116040952Y-110354761D01*
X116136190Y-110402380D01*
X116231428Y-110402380D01*
X116326666Y-110354761D01*
X116374285Y-110307142D01*
X116421904Y-110211904D01*
X116469523Y-110021428D01*
X116469523Y-109783333D01*
X116421904Y-109592857D01*
X116374285Y-109497619D01*
X116326666Y-109450000D01*
X116231428Y-109402380D01*
X93482857Y-100162380D02*
X93816190Y-99686190D01*
X94054285Y-100162380D02*
X94054285Y-99162380D01*
X93673333Y-99162380D01*
X93578095Y-99210000D01*
X93530476Y-99257619D01*
X93482857Y-99352857D01*
X93482857Y-99495714D01*
X93530476Y-99590952D01*
X93578095Y-99638571D01*
X93673333Y-99686190D01*
X94054285Y-99686190D01*
X92578095Y-99162380D02*
X93054285Y-99162380D01*
X93101904Y-99638571D01*
X93054285Y-99590952D01*
X92959047Y-99543333D01*
X92720952Y-99543333D01*
X92625714Y-99590952D01*
X92578095Y-99638571D01*
X92530476Y-99733809D01*
X92530476Y-99971904D01*
X92578095Y-100067142D01*
X92625714Y-100114761D01*
X92720952Y-100162380D01*
X92959047Y-100162380D01*
X93054285Y-100114761D01*
X93101904Y-100067142D01*
X91578095Y-100162380D02*
X92149523Y-100162380D01*
X91863809Y-100162380D02*
X91863809Y-99162380D01*
X91959047Y-99305238D01*
X92054285Y-99400476D01*
X92149523Y-99448095D01*
X112812380Y-114567142D02*
X112336190Y-114233809D01*
X112812380Y-113995714D02*
X111812380Y-113995714D01*
X111812380Y-114376666D01*
X111860000Y-114471904D01*
X111907619Y-114519523D01*
X112002857Y-114567142D01*
X112145714Y-114567142D01*
X112240952Y-114519523D01*
X112288571Y-114471904D01*
X112336190Y-114376666D01*
X112336190Y-113995714D01*
X111812380Y-115471904D02*
X111812380Y-114995714D01*
X112288571Y-114948095D01*
X112240952Y-114995714D01*
X112193333Y-115090952D01*
X112193333Y-115329047D01*
X112240952Y-115424285D01*
X112288571Y-115471904D01*
X112383809Y-115519523D01*
X112621904Y-115519523D01*
X112717142Y-115471904D01*
X112764761Y-115424285D01*
X112812380Y-115329047D01*
X112812380Y-115090952D01*
X112764761Y-114995714D01*
X112717142Y-114948095D01*
X111907619Y-115900476D02*
X111860000Y-115948095D01*
X111812380Y-116043333D01*
X111812380Y-116281428D01*
X111860000Y-116376666D01*
X111907619Y-116424285D01*
X112002857Y-116471904D01*
X112098095Y-116471904D01*
X112240952Y-116424285D01*
X112812380Y-115852857D01*
X112812380Y-116471904D01*
X123732380Y-102494642D02*
X123256190Y-102161309D01*
X123732380Y-101923214D02*
X122732380Y-101923214D01*
X122732380Y-102304166D01*
X122780000Y-102399404D01*
X122827619Y-102447023D01*
X122922857Y-102494642D01*
X123065714Y-102494642D01*
X123160952Y-102447023D01*
X123208571Y-102399404D01*
X123256190Y-102304166D01*
X123256190Y-101923214D01*
X122732380Y-103399404D02*
X122732380Y-102923214D01*
X123208571Y-102875595D01*
X123160952Y-102923214D01*
X123113333Y-103018452D01*
X123113333Y-103256547D01*
X123160952Y-103351785D01*
X123208571Y-103399404D01*
X123303809Y-103447023D01*
X123541904Y-103447023D01*
X123637142Y-103399404D01*
X123684761Y-103351785D01*
X123732380Y-103256547D01*
X123732380Y-103018452D01*
X123684761Y-102923214D01*
X123637142Y-102875595D01*
X122732380Y-103780357D02*
X122732380Y-104399404D01*
X123113333Y-104066071D01*
X123113333Y-104208928D01*
X123160952Y-104304166D01*
X123208571Y-104351785D01*
X123303809Y-104399404D01*
X123541904Y-104399404D01*
X123637142Y-104351785D01*
X123684761Y-104304166D01*
X123732380Y-104208928D01*
X123732380Y-103923214D01*
X123684761Y-103827976D01*
X123637142Y-103780357D01*
X128912857Y-107612380D02*
X129246190Y-107136190D01*
X129484285Y-107612380D02*
X129484285Y-106612380D01*
X129103333Y-106612380D01*
X129008095Y-106660000D01*
X128960476Y-106707619D01*
X128912857Y-106802857D01*
X128912857Y-106945714D01*
X128960476Y-107040952D01*
X129008095Y-107088571D01*
X129103333Y-107136190D01*
X129484285Y-107136190D01*
X128008095Y-106612380D02*
X128484285Y-106612380D01*
X128531904Y-107088571D01*
X128484285Y-107040952D01*
X128389047Y-106993333D01*
X128150952Y-106993333D01*
X128055714Y-107040952D01*
X128008095Y-107088571D01*
X127960476Y-107183809D01*
X127960476Y-107421904D01*
X128008095Y-107517142D01*
X128055714Y-107564761D01*
X128150952Y-107612380D01*
X128389047Y-107612380D01*
X128484285Y-107564761D01*
X128531904Y-107517142D01*
X127055714Y-106612380D02*
X127531904Y-106612380D01*
X127579523Y-107088571D01*
X127531904Y-107040952D01*
X127436666Y-106993333D01*
X127198571Y-106993333D01*
X127103333Y-107040952D01*
X127055714Y-107088571D01*
X127008095Y-107183809D01*
X127008095Y-107421904D01*
X127055714Y-107517142D01*
X127103333Y-107564761D01*
X127198571Y-107612380D01*
X127436666Y-107612380D01*
X127531904Y-107564761D01*
X127579523Y-107517142D01*
X128120380Y-102481142D02*
X127644190Y-102147809D01*
X128120380Y-101909714D02*
X127120380Y-101909714D01*
X127120380Y-102290666D01*
X127168000Y-102385904D01*
X127215619Y-102433523D01*
X127310857Y-102481142D01*
X127453714Y-102481142D01*
X127548952Y-102433523D01*
X127596571Y-102385904D01*
X127644190Y-102290666D01*
X127644190Y-101909714D01*
X127120380Y-103385904D02*
X127120380Y-102909714D01*
X127596571Y-102862095D01*
X127548952Y-102909714D01*
X127501333Y-103004952D01*
X127501333Y-103243047D01*
X127548952Y-103338285D01*
X127596571Y-103385904D01*
X127691809Y-103433523D01*
X127929904Y-103433523D01*
X128025142Y-103385904D01*
X128072761Y-103338285D01*
X128120380Y-103243047D01*
X128120380Y-103004952D01*
X128072761Y-102909714D01*
X128025142Y-102862095D01*
X127120380Y-103766857D02*
X127120380Y-104433523D01*
X128120380Y-104004952D01*
X128902857Y-113542380D02*
X129236190Y-113066190D01*
X129474285Y-113542380D02*
X129474285Y-112542380D01*
X129093333Y-112542380D01*
X128998095Y-112590000D01*
X128950476Y-112637619D01*
X128902857Y-112732857D01*
X128902857Y-112875714D01*
X128950476Y-112970952D01*
X128998095Y-113018571D01*
X129093333Y-113066190D01*
X129474285Y-113066190D01*
X128045714Y-112542380D02*
X128236190Y-112542380D01*
X128331428Y-112590000D01*
X128379047Y-112637619D01*
X128474285Y-112780476D01*
X128521904Y-112970952D01*
X128521904Y-113351904D01*
X128474285Y-113447142D01*
X128426666Y-113494761D01*
X128331428Y-113542380D01*
X128140952Y-113542380D01*
X128045714Y-113494761D01*
X127998095Y-113447142D01*
X127950476Y-113351904D01*
X127950476Y-113113809D01*
X127998095Y-113018571D01*
X128045714Y-112970952D01*
X128140952Y-112923333D01*
X128331428Y-112923333D01*
X128426666Y-112970952D01*
X128474285Y-113018571D01*
X128521904Y-113113809D01*
X127617142Y-112542380D02*
X126998095Y-112542380D01*
X127331428Y-112923333D01*
X127188571Y-112923333D01*
X127093333Y-112970952D01*
X127045714Y-113018571D01*
X126998095Y-113113809D01*
X126998095Y-113351904D01*
X127045714Y-113447142D01*
X127093333Y-113494761D01*
X127188571Y-113542380D01*
X127474285Y-113542380D01*
X127569523Y-113494761D01*
X127617142Y-113447142D01*
X117812857Y-113472380D02*
X118146190Y-112996190D01*
X118384285Y-113472380D02*
X118384285Y-112472380D01*
X118003333Y-112472380D01*
X117908095Y-112520000D01*
X117860476Y-112567619D01*
X117812857Y-112662857D01*
X117812857Y-112805714D01*
X117860476Y-112900952D01*
X117908095Y-112948571D01*
X118003333Y-112996190D01*
X118384285Y-112996190D01*
X116955714Y-112472380D02*
X117146190Y-112472380D01*
X117241428Y-112520000D01*
X117289047Y-112567619D01*
X117384285Y-112710476D01*
X117431904Y-112900952D01*
X117431904Y-113281904D01*
X117384285Y-113377142D01*
X117336666Y-113424761D01*
X117241428Y-113472380D01*
X117050952Y-113472380D01*
X116955714Y-113424761D01*
X116908095Y-113377142D01*
X116860476Y-113281904D01*
X116860476Y-113043809D01*
X116908095Y-112948571D01*
X116955714Y-112900952D01*
X117050952Y-112853333D01*
X117241428Y-112853333D01*
X117336666Y-112900952D01*
X117384285Y-112948571D01*
X117431904Y-113043809D01*
X116003333Y-112805714D02*
X116003333Y-113472380D01*
X116241428Y-112424761D02*
X116479523Y-113139047D01*
X115860476Y-113139047D01*
X128912857Y-115072380D02*
X129246190Y-114596190D01*
X129484285Y-115072380D02*
X129484285Y-114072380D01*
X129103333Y-114072380D01*
X129008095Y-114120000D01*
X128960476Y-114167619D01*
X128912857Y-114262857D01*
X128912857Y-114405714D01*
X128960476Y-114500952D01*
X129008095Y-114548571D01*
X129103333Y-114596190D01*
X129484285Y-114596190D01*
X128055714Y-114072380D02*
X128246190Y-114072380D01*
X128341428Y-114120000D01*
X128389047Y-114167619D01*
X128484285Y-114310476D01*
X128531904Y-114500952D01*
X128531904Y-114881904D01*
X128484285Y-114977142D01*
X128436666Y-115024761D01*
X128341428Y-115072380D01*
X128150952Y-115072380D01*
X128055714Y-115024761D01*
X128008095Y-114977142D01*
X127960476Y-114881904D01*
X127960476Y-114643809D01*
X128008095Y-114548571D01*
X128055714Y-114500952D01*
X128150952Y-114453333D01*
X128341428Y-114453333D01*
X128436666Y-114500952D01*
X128484285Y-114548571D01*
X128531904Y-114643809D01*
X127055714Y-114072380D02*
X127531904Y-114072380D01*
X127579523Y-114548571D01*
X127531904Y-114500952D01*
X127436666Y-114453333D01*
X127198571Y-114453333D01*
X127103333Y-114500952D01*
X127055714Y-114548571D01*
X127008095Y-114643809D01*
X127008095Y-114881904D01*
X127055714Y-114977142D01*
X127103333Y-115024761D01*
X127198571Y-115072380D01*
X127436666Y-115072380D01*
X127531904Y-115024761D01*
X127579523Y-114977142D01*
X92232857Y-98732380D02*
X92566190Y-98256190D01*
X92804285Y-98732380D02*
X92804285Y-97732380D01*
X92423333Y-97732380D01*
X92328095Y-97780000D01*
X92280476Y-97827619D01*
X92232857Y-97922857D01*
X92232857Y-98065714D01*
X92280476Y-98160952D01*
X92328095Y-98208571D01*
X92423333Y-98256190D01*
X92804285Y-98256190D01*
X91375714Y-97732380D02*
X91566190Y-97732380D01*
X91661428Y-97780000D01*
X91709047Y-97827619D01*
X91804285Y-97970476D01*
X91851904Y-98160952D01*
X91851904Y-98541904D01*
X91804285Y-98637142D01*
X91756666Y-98684761D01*
X91661428Y-98732380D01*
X91470952Y-98732380D01*
X91375714Y-98684761D01*
X91328095Y-98637142D01*
X91280476Y-98541904D01*
X91280476Y-98303809D01*
X91328095Y-98208571D01*
X91375714Y-98160952D01*
X91470952Y-98113333D01*
X91661428Y-98113333D01*
X91756666Y-98160952D01*
X91804285Y-98208571D01*
X91851904Y-98303809D01*
X90423333Y-97732380D02*
X90613809Y-97732380D01*
X90709047Y-97780000D01*
X90756666Y-97827619D01*
X90851904Y-97970476D01*
X90899523Y-98160952D01*
X90899523Y-98541904D01*
X90851904Y-98637142D01*
X90804285Y-98684761D01*
X90709047Y-98732380D01*
X90518571Y-98732380D01*
X90423333Y-98684761D01*
X90375714Y-98637142D01*
X90328095Y-98541904D01*
X90328095Y-98303809D01*
X90375714Y-98208571D01*
X90423333Y-98160952D01*
X90518571Y-98113333D01*
X90709047Y-98113333D01*
X90804285Y-98160952D01*
X90851904Y-98208571D01*
X90899523Y-98303809D01*
X128922857Y-116592380D02*
X129256190Y-116116190D01*
X129494285Y-116592380D02*
X129494285Y-115592380D01*
X129113333Y-115592380D01*
X129018095Y-115640000D01*
X128970476Y-115687619D01*
X128922857Y-115782857D01*
X128922857Y-115925714D01*
X128970476Y-116020952D01*
X129018095Y-116068571D01*
X129113333Y-116116190D01*
X129494285Y-116116190D01*
X128065714Y-115592380D02*
X128256190Y-115592380D01*
X128351428Y-115640000D01*
X128399047Y-115687619D01*
X128494285Y-115830476D01*
X128541904Y-116020952D01*
X128541904Y-116401904D01*
X128494285Y-116497142D01*
X128446666Y-116544761D01*
X128351428Y-116592380D01*
X128160952Y-116592380D01*
X128065714Y-116544761D01*
X128018095Y-116497142D01*
X127970476Y-116401904D01*
X127970476Y-116163809D01*
X128018095Y-116068571D01*
X128065714Y-116020952D01*
X128160952Y-115973333D01*
X128351428Y-115973333D01*
X128446666Y-116020952D01*
X128494285Y-116068571D01*
X128541904Y-116163809D01*
X127637142Y-115592380D02*
X126970476Y-115592380D01*
X127399047Y-116592380D01*
X117802857Y-111922380D02*
X118136190Y-111446190D01*
X118374285Y-111922380D02*
X118374285Y-110922380D01*
X117993333Y-110922380D01*
X117898095Y-110970000D01*
X117850476Y-111017619D01*
X117802857Y-111112857D01*
X117802857Y-111255714D01*
X117850476Y-111350952D01*
X117898095Y-111398571D01*
X117993333Y-111446190D01*
X118374285Y-111446190D01*
X116945714Y-110922380D02*
X117136190Y-110922380D01*
X117231428Y-110970000D01*
X117279047Y-111017619D01*
X117374285Y-111160476D01*
X117421904Y-111350952D01*
X117421904Y-111731904D01*
X117374285Y-111827142D01*
X117326666Y-111874761D01*
X117231428Y-111922380D01*
X117040952Y-111922380D01*
X116945714Y-111874761D01*
X116898095Y-111827142D01*
X116850476Y-111731904D01*
X116850476Y-111493809D01*
X116898095Y-111398571D01*
X116945714Y-111350952D01*
X117040952Y-111303333D01*
X117231428Y-111303333D01*
X117326666Y-111350952D01*
X117374285Y-111398571D01*
X117421904Y-111493809D01*
X116279047Y-111350952D02*
X116374285Y-111303333D01*
X116421904Y-111255714D01*
X116469523Y-111160476D01*
X116469523Y-111112857D01*
X116421904Y-111017619D01*
X116374285Y-110970000D01*
X116279047Y-110922380D01*
X116088571Y-110922380D01*
X115993333Y-110970000D01*
X115945714Y-111017619D01*
X115898095Y-111112857D01*
X115898095Y-111160476D01*
X115945714Y-111255714D01*
X115993333Y-111303333D01*
X116088571Y-111350952D01*
X116279047Y-111350952D01*
X116374285Y-111398571D01*
X116421904Y-111446190D01*
X116469523Y-111541428D01*
X116469523Y-111731904D01*
X116421904Y-111827142D01*
X116374285Y-111874761D01*
X116279047Y-111922380D01*
X116088571Y-111922380D01*
X115993333Y-111874761D01*
X115945714Y-111827142D01*
X115898095Y-111731904D01*
X115898095Y-111541428D01*
X115945714Y-111446190D01*
X115993333Y-111398571D01*
X116088571Y-111350952D01*
X106382380Y-107207142D02*
X105906190Y-106873809D01*
X106382380Y-106635714D02*
X105382380Y-106635714D01*
X105382380Y-107016666D01*
X105430000Y-107111904D01*
X105477619Y-107159523D01*
X105572857Y-107207142D01*
X105715714Y-107207142D01*
X105810952Y-107159523D01*
X105858571Y-107111904D01*
X105906190Y-107016666D01*
X105906190Y-106635714D01*
X105382380Y-108064285D02*
X105382380Y-107873809D01*
X105430000Y-107778571D01*
X105477619Y-107730952D01*
X105620476Y-107635714D01*
X105810952Y-107588095D01*
X106191904Y-107588095D01*
X106287142Y-107635714D01*
X106334761Y-107683333D01*
X106382380Y-107778571D01*
X106382380Y-107969047D01*
X106334761Y-108064285D01*
X106287142Y-108111904D01*
X106191904Y-108159523D01*
X105953809Y-108159523D01*
X105858571Y-108111904D01*
X105810952Y-108064285D01*
X105763333Y-107969047D01*
X105763333Y-107778571D01*
X105810952Y-107683333D01*
X105858571Y-107635714D01*
X105953809Y-107588095D01*
X106382380Y-108635714D02*
X106382380Y-108826190D01*
X106334761Y-108921428D01*
X106287142Y-108969047D01*
X106144285Y-109064285D01*
X105953809Y-109111904D01*
X105572857Y-109111904D01*
X105477619Y-109064285D01*
X105430000Y-109016666D01*
X105382380Y-108921428D01*
X105382380Y-108730952D01*
X105430000Y-108635714D01*
X105477619Y-108588095D01*
X105572857Y-108540476D01*
X105810952Y-108540476D01*
X105906190Y-108588095D01*
X105953809Y-108635714D01*
X106001428Y-108730952D01*
X106001428Y-108921428D01*
X105953809Y-109016666D01*
X105906190Y-109064285D01*
X105810952Y-109111904D01*
X84122380Y-123797142D02*
X83646190Y-123463809D01*
X84122380Y-123225714D02*
X83122380Y-123225714D01*
X83122380Y-123606666D01*
X83170000Y-123701904D01*
X83217619Y-123749523D01*
X83312857Y-123797142D01*
X83455714Y-123797142D01*
X83550952Y-123749523D01*
X83598571Y-123701904D01*
X83646190Y-123606666D01*
X83646190Y-123225714D01*
X83122380Y-124130476D02*
X83122380Y-124797142D01*
X84122380Y-124368571D01*
X84122380Y-125701904D02*
X84122380Y-125130476D01*
X84122380Y-125416190D02*
X83122380Y-125416190D01*
X83265238Y-125320952D01*
X83360476Y-125225714D01*
X83408095Y-125130476D01*
X123692380Y-123097142D02*
X123216190Y-122763809D01*
X123692380Y-122525714D02*
X122692380Y-122525714D01*
X122692380Y-122906666D01*
X122740000Y-123001904D01*
X122787619Y-123049523D01*
X122882857Y-123097142D01*
X123025714Y-123097142D01*
X123120952Y-123049523D01*
X123168571Y-123001904D01*
X123216190Y-122906666D01*
X123216190Y-122525714D01*
X122692380Y-123430476D02*
X122692380Y-124097142D01*
X123692380Y-123668571D01*
X122692380Y-124382857D02*
X122692380Y-125001904D01*
X123073333Y-124668571D01*
X123073333Y-124811428D01*
X123120952Y-124906666D01*
X123168571Y-124954285D01*
X123263809Y-125001904D01*
X123501904Y-125001904D01*
X123597142Y-124954285D01*
X123644761Y-124906666D01*
X123692380Y-124811428D01*
X123692380Y-124525714D01*
X123644761Y-124430476D01*
X123597142Y-124382857D01*
X125222380Y-123097142D02*
X124746190Y-122763809D01*
X125222380Y-122525714D02*
X124222380Y-122525714D01*
X124222380Y-122906666D01*
X124270000Y-123001904D01*
X124317619Y-123049523D01*
X124412857Y-123097142D01*
X124555714Y-123097142D01*
X124650952Y-123049523D01*
X124698571Y-123001904D01*
X124746190Y-122906666D01*
X124746190Y-122525714D01*
X124222380Y-123430476D02*
X124222380Y-124097142D01*
X125222380Y-123668571D01*
X124555714Y-124906666D02*
X125222380Y-124906666D01*
X124174761Y-124668571D02*
X124889047Y-124430476D01*
X124889047Y-125049523D01*
X122162380Y-123107142D02*
X121686190Y-122773809D01*
X122162380Y-122535714D02*
X121162380Y-122535714D01*
X121162380Y-122916666D01*
X121210000Y-123011904D01*
X121257619Y-123059523D01*
X121352857Y-123107142D01*
X121495714Y-123107142D01*
X121590952Y-123059523D01*
X121638571Y-123011904D01*
X121686190Y-122916666D01*
X121686190Y-122535714D01*
X121162380Y-123440476D02*
X121162380Y-124107142D01*
X122162380Y-123678571D01*
X121162380Y-124964285D02*
X121162380Y-124488095D01*
X121638571Y-124440476D01*
X121590952Y-124488095D01*
X121543333Y-124583333D01*
X121543333Y-124821428D01*
X121590952Y-124916666D01*
X121638571Y-124964285D01*
X121733809Y-125011904D01*
X121971904Y-125011904D01*
X122067142Y-124964285D01*
X122114761Y-124916666D01*
X122162380Y-124821428D01*
X122162380Y-124583333D01*
X122114761Y-124488095D01*
X122067142Y-124440476D01*
X98562380Y-109714285D02*
X98562380Y-110285714D01*
X99562380Y-110000000D02*
X98562380Y-110000000D01*
X99562380Y-110619047D02*
X98562380Y-110619047D01*
X99038571Y-110619047D02*
X99038571Y-111190476D01*
X99562380Y-111190476D02*
X98562380Y-111190476D01*
X98657619Y-111619047D02*
X98610000Y-111666666D01*
X98562380Y-111761904D01*
X98562380Y-112000000D01*
X98610000Y-112095238D01*
X98657619Y-112142857D01*
X98752857Y-112190476D01*
X98848095Y-112190476D01*
X98990952Y-112142857D01*
X99562380Y-111571428D01*
X99562380Y-112190476D01*
X118352380Y-107508095D02*
X119161904Y-107508095D01*
X119257142Y-107555714D01*
X119304761Y-107603333D01*
X119352380Y-107698571D01*
X119352380Y-107889047D01*
X119304761Y-107984285D01*
X119257142Y-108031904D01*
X119161904Y-108079523D01*
X118352380Y-108079523D01*
X118685714Y-108984285D02*
X119352380Y-108984285D01*
X118304761Y-108746190D02*
X119019047Y-108508095D01*
X119019047Y-109127142D01*
X118801904Y-65372380D02*
X118801904Y-66181904D01*
X118754285Y-66277142D01*
X118706666Y-66324761D01*
X118611428Y-66372380D01*
X118420952Y-66372380D01*
X118325714Y-66324761D01*
X118278095Y-66277142D01*
X118230476Y-66181904D01*
X118230476Y-65372380D01*
X117611428Y-65800952D02*
X117706666Y-65753333D01*
X117754285Y-65705714D01*
X117801904Y-65610476D01*
X117801904Y-65562857D01*
X117754285Y-65467619D01*
X117706666Y-65420000D01*
X117611428Y-65372380D01*
X117420952Y-65372380D01*
X117325714Y-65420000D01*
X117278095Y-65467619D01*
X117230476Y-65562857D01*
X117230476Y-65610476D01*
X117278095Y-65705714D01*
X117325714Y-65753333D01*
X117420952Y-65800952D01*
X117611428Y-65800952D01*
X117706666Y-65848571D01*
X117754285Y-65896190D01*
X117801904Y-65991428D01*
X117801904Y-66181904D01*
X117754285Y-66277142D01*
X117706666Y-66324761D01*
X117611428Y-66372380D01*
X117420952Y-66372380D01*
X117325714Y-66324761D01*
X117278095Y-66277142D01*
X117230476Y-66181904D01*
X117230476Y-65991428D01*
X117278095Y-65896190D01*
X117325714Y-65848571D01*
X117420952Y-65800952D01*
X113394061Y-116055075D02*
X113394061Y-116122419D01*
X113461405Y-116257106D01*
X113528748Y-116324449D01*
X113663435Y-116391793D01*
X113798122Y-116391793D01*
X113899137Y-116358121D01*
X114067496Y-116257106D01*
X114168511Y-116156091D01*
X114269527Y-115987732D01*
X114303198Y-115886717D01*
X114303198Y-115752030D01*
X114235855Y-115617343D01*
X114168511Y-115549999D01*
X114033824Y-115482656D01*
X113966481Y-115482656D01*
X113697107Y-115213281D02*
X113697107Y-115145938D01*
X113663435Y-115044923D01*
X113495076Y-114876564D01*
X113394061Y-114842892D01*
X113326718Y-114842892D01*
X113225702Y-114876564D01*
X113158359Y-114943907D01*
X113091015Y-115078594D01*
X113091015Y-115886717D01*
X112653282Y-115448984D01*
X112316565Y-115112266D02*
X112181878Y-114977579D01*
X112148206Y-114876564D01*
X112148206Y-114809220D01*
X112181878Y-114640862D01*
X112282893Y-114472503D01*
X112552267Y-114203129D01*
X112653282Y-114169457D01*
X112720626Y-114169457D01*
X112821641Y-114203129D01*
X112956328Y-114337816D01*
X112990000Y-114438831D01*
X112990000Y-114506175D01*
X112956328Y-114607190D01*
X112787969Y-114775549D01*
X112686954Y-114809220D01*
X112619611Y-114809220D01*
X112518595Y-114775549D01*
X112383908Y-114640862D01*
X112350237Y-114539846D01*
X112350237Y-114472503D01*
X112383908Y-114371488D01*
D14*
X91790952Y-99705476D02*
X91911904Y-99645000D01*
X92032857Y-99524047D01*
X92214285Y-99342619D01*
X92335238Y-99282142D01*
X92456190Y-99282142D01*
X92395714Y-99584523D02*
X92516666Y-99524047D01*
X92637619Y-99403095D01*
X92698095Y-99161190D01*
X92698095Y-98737857D01*
X92637619Y-98495952D01*
X92516666Y-98375000D01*
X92395714Y-98314523D01*
X92153809Y-98314523D01*
X92032857Y-98375000D01*
X91911904Y-98495952D01*
X91851428Y-98737857D01*
X91851428Y-99161190D01*
X91911904Y-99403095D01*
X92032857Y-99524047D01*
X92153809Y-99584523D01*
X92395714Y-99584523D01*
X91367619Y-98435476D02*
X91307142Y-98375000D01*
X91186190Y-98314523D01*
X90883809Y-98314523D01*
X90762857Y-98375000D01*
X90702380Y-98435476D01*
X90641904Y-98556428D01*
X90641904Y-98677380D01*
X90702380Y-98858809D01*
X91428095Y-99584523D01*
X90641904Y-99584523D01*
D13*
X101692857Y-107002380D02*
X102026190Y-106526190D01*
X102264285Y-107002380D02*
X102264285Y-106002380D01*
X101883333Y-106002380D01*
X101788095Y-106050000D01*
X101740476Y-106097619D01*
X101692857Y-106192857D01*
X101692857Y-106335714D01*
X101740476Y-106430952D01*
X101788095Y-106478571D01*
X101883333Y-106526190D01*
X102264285Y-106526190D01*
X101359523Y-106002380D02*
X100740476Y-106002380D01*
X101073809Y-106383333D01*
X100930952Y-106383333D01*
X100835714Y-106430952D01*
X100788095Y-106478571D01*
X100740476Y-106573809D01*
X100740476Y-106811904D01*
X100788095Y-106907142D01*
X100835714Y-106954761D01*
X100930952Y-107002380D01*
X101216666Y-107002380D01*
X101311904Y-106954761D01*
X101359523Y-106907142D01*
X100121428Y-106002380D02*
X100026190Y-106002380D01*
X99930952Y-106050000D01*
X99883333Y-106097619D01*
X99835714Y-106192857D01*
X99788095Y-106383333D01*
X99788095Y-106621428D01*
X99835714Y-106811904D01*
X99883333Y-106907142D01*
X99930952Y-106954761D01*
X100026190Y-107002380D01*
X100121428Y-107002380D01*
X100216666Y-106954761D01*
X100264285Y-106907142D01*
X100311904Y-106811904D01*
X100359523Y-106621428D01*
X100359523Y-106383333D01*
X100311904Y-106192857D01*
X100264285Y-106097619D01*
X100216666Y-106050000D01*
X100121428Y-106002380D01*
X83582380Y-68626666D02*
X84296666Y-68626666D01*
X84439523Y-68579047D01*
X84534761Y-68483809D01*
X84582380Y-68340952D01*
X84582380Y-68245714D01*
X83582380Y-69007619D02*
X83582380Y-69674285D01*
X84582380Y-69245714D01*
X128912857Y-109142380D02*
X129246190Y-108666190D01*
X129484285Y-109142380D02*
X129484285Y-108142380D01*
X129103333Y-108142380D01*
X129008095Y-108190000D01*
X128960476Y-108237619D01*
X128912857Y-108332857D01*
X128912857Y-108475714D01*
X128960476Y-108570952D01*
X129008095Y-108618571D01*
X129103333Y-108666190D01*
X129484285Y-108666190D01*
X128579523Y-108142380D02*
X127960476Y-108142380D01*
X128293809Y-108523333D01*
X128150952Y-108523333D01*
X128055714Y-108570952D01*
X128008095Y-108618571D01*
X127960476Y-108713809D01*
X127960476Y-108951904D01*
X128008095Y-109047142D01*
X128055714Y-109094761D01*
X128150952Y-109142380D01*
X128436666Y-109142380D01*
X128531904Y-109094761D01*
X128579523Y-109047142D01*
X127008095Y-109142380D02*
X127579523Y-109142380D01*
X127293809Y-109142380D02*
X127293809Y-108142380D01*
X127389047Y-108285238D01*
X127484285Y-108380476D01*
X127579523Y-108428095D01*
X98782380Y-68654285D02*
X98782380Y-69225714D01*
X99782380Y-68940000D02*
X98782380Y-68940000D01*
X99782380Y-69559047D02*
X98782380Y-69559047D01*
X99258571Y-69559047D02*
X99258571Y-70130476D01*
X99782380Y-70130476D02*
X98782380Y-70130476D01*
X99782380Y-71130476D02*
X99782380Y-70559047D01*
X99782380Y-70844761D02*
X98782380Y-70844761D01*
X98925238Y-70749523D01*
X99020476Y-70654285D01*
X99068095Y-70559047D01*
X112907619Y-105494761D02*
X112860000Y-105399523D01*
X112764761Y-105304285D01*
X112621904Y-105161428D01*
X112574285Y-105066190D01*
X112574285Y-104970952D01*
X112812380Y-105018571D02*
X112764761Y-104923333D01*
X112669523Y-104828095D01*
X112479047Y-104780476D01*
X112145714Y-104780476D01*
X111955238Y-104828095D01*
X111860000Y-104923333D01*
X111812380Y-105018571D01*
X111812380Y-105209047D01*
X111860000Y-105304285D01*
X111955238Y-105399523D01*
X112145714Y-105447142D01*
X112479047Y-105447142D01*
X112669523Y-105399523D01*
X112764761Y-105304285D01*
X112812380Y-105209047D01*
X112812380Y-105018571D01*
X111812380Y-105780476D02*
X111812380Y-106399523D01*
X112193333Y-106066190D01*
X112193333Y-106209047D01*
X112240952Y-106304285D01*
X112288571Y-106351904D01*
X112383809Y-106399523D01*
X112621904Y-106399523D01*
X112717142Y-106351904D01*
X112764761Y-106304285D01*
X112812380Y-106209047D01*
X112812380Y-105923333D01*
X112764761Y-105828095D01*
X112717142Y-105780476D01*
X112927619Y-109594761D02*
X112880000Y-109499523D01*
X112784761Y-109404285D01*
X112641904Y-109261428D01*
X112594285Y-109166190D01*
X112594285Y-109070952D01*
X112832380Y-109118571D02*
X112784761Y-109023333D01*
X112689523Y-108928095D01*
X112499047Y-108880476D01*
X112165714Y-108880476D01*
X111975238Y-108928095D01*
X111880000Y-109023333D01*
X111832380Y-109118571D01*
X111832380Y-109309047D01*
X111880000Y-109404285D01*
X111975238Y-109499523D01*
X112165714Y-109547142D01*
X112499047Y-109547142D01*
X112689523Y-109499523D01*
X112784761Y-109404285D01*
X112832380Y-109309047D01*
X112832380Y-109118571D01*
X111832380Y-109880476D02*
X111832380Y-110547142D01*
X112832380Y-110118571D01*
X113332380Y-100278095D02*
X114141904Y-100278095D01*
X114237142Y-100325714D01*
X114284761Y-100373333D01*
X114332380Y-100468571D01*
X114332380Y-100659047D01*
X114284761Y-100754285D01*
X114237142Y-100801904D01*
X114141904Y-100849523D01*
X113332380Y-100849523D01*
X113332380Y-101754285D02*
X113332380Y-101563809D01*
X113380000Y-101468571D01*
X113427619Y-101420952D01*
X113570476Y-101325714D01*
X113760952Y-101278095D01*
X114141904Y-101278095D01*
X114237142Y-101325714D01*
X114284761Y-101373333D01*
X114332380Y-101468571D01*
X114332380Y-101659047D01*
X114284761Y-101754285D01*
X114237142Y-101801904D01*
X114141904Y-101849523D01*
X113903809Y-101849523D01*
X113808571Y-101801904D01*
X113760952Y-101754285D01*
X113713333Y-101659047D01*
X113713333Y-101468571D01*
X113760952Y-101373333D01*
X113808571Y-101325714D01*
X113903809Y-101278095D01*
X93422857Y-104707142D02*
X93470476Y-104754761D01*
X93613333Y-104802380D01*
X93708571Y-104802380D01*
X93851428Y-104754761D01*
X93946666Y-104659523D01*
X93994285Y-104564285D01*
X94041904Y-104373809D01*
X94041904Y-104230952D01*
X93994285Y-104040476D01*
X93946666Y-103945238D01*
X93851428Y-103850000D01*
X93708571Y-103802380D01*
X93613333Y-103802380D01*
X93470476Y-103850000D01*
X93422857Y-103897619D01*
X93089523Y-103802380D02*
X92470476Y-103802380D01*
X92803809Y-104183333D01*
X92660952Y-104183333D01*
X92565714Y-104230952D01*
X92518095Y-104278571D01*
X92470476Y-104373809D01*
X92470476Y-104611904D01*
X92518095Y-104707142D01*
X92565714Y-104754761D01*
X92660952Y-104802380D01*
X92946666Y-104802380D01*
X93041904Y-104754761D01*
X93089523Y-104707142D01*
X92089523Y-103897619D02*
X92041904Y-103850000D01*
X91946666Y-103802380D01*
X91708571Y-103802380D01*
X91613333Y-103850000D01*
X91565714Y-103897619D01*
X91518095Y-103992857D01*
X91518095Y-104088095D01*
X91565714Y-104230952D01*
X92137142Y-104802380D01*
X91518095Y-104802380D01*
M02*
