G04 #@! TF.GenerationSoftware,KiCad,Pcbnew,(5.1.6)-1*
G04 #@! TF.CreationDate,2021-05-12T17:14:06+02:00*
G04 #@! TF.ProjectId,rysboard,72797362-6f61-4726-942e-6b696361645f,4.2*
G04 #@! TF.SameCoordinates,Original*
G04 #@! TF.FileFunction,Legend,Top*
G04 #@! TF.FilePolarity,Positive*
%FSLAX46Y46*%
G04 Gerber Fmt 4.6, Leading zero omitted, Abs format (unit mm)*
G04 Created by KiCad (PCBNEW (5.1.6)-1) date 2021-05-12 17:14:06*
%MOMM*%
%LPD*%
G01*
G04 APERTURE LIST*
%ADD10C,0.150000*%
%ADD11C,0.120000*%
%ADD12C,0.200000*%
%ADD13C,0.125000*%
%ADD14C,0.100000*%
G04 APERTURE END LIST*
D10*
X121596447Y-100426780D02*
X121025019Y-100426780D01*
X121310733Y-100426780D02*
X121310733Y-99426780D01*
X121215495Y-99569638D01*
X121120257Y-99664876D01*
X121025019Y-99712495D01*
X121977400Y-99522019D02*
X122025019Y-99474400D01*
X122120257Y-99426780D01*
X122358352Y-99426780D01*
X122453590Y-99474400D01*
X122501209Y-99522019D01*
X122548828Y-99617257D01*
X122548828Y-99712495D01*
X122501209Y-99855352D01*
X121929780Y-100426780D01*
X122548828Y-100426780D01*
X122834542Y-99426780D02*
X123167876Y-100426780D01*
X123501209Y-99426780D01*
X124929780Y-99902971D02*
X124596447Y-99902971D01*
X124596447Y-100426780D02*
X124596447Y-99426780D01*
X125072638Y-99426780D01*
X125405971Y-100141066D02*
X125882161Y-100141066D01*
X125310733Y-100426780D02*
X125644066Y-99426780D01*
X125977400Y-100426780D01*
X126310733Y-100426780D02*
X126310733Y-99426780D01*
X126882161Y-100426780D01*
X126882161Y-99426780D01*
X90690747Y-68981628D02*
X91452652Y-68981628D01*
X91071700Y-69362580D02*
X91071700Y-68600676D01*
X83718447Y-68994328D02*
X84480352Y-68994328D01*
X103002695Y-68318119D02*
X103002695Y-69318119D01*
X102764600Y-69318119D01*
X102621742Y-69270500D01*
X102526504Y-69175261D01*
X102478885Y-69080023D01*
X102431266Y-68889547D01*
X102431266Y-68746690D01*
X102478885Y-68556214D01*
X102526504Y-68460976D01*
X102621742Y-68365738D01*
X102764600Y-68318119D01*
X103002695Y-68318119D01*
X101431266Y-68413357D02*
X101478885Y-68365738D01*
X101621742Y-68318119D01*
X101716980Y-68318119D01*
X101859838Y-68365738D01*
X101955076Y-68460976D01*
X102002695Y-68556214D01*
X102050314Y-68746690D01*
X102050314Y-68889547D01*
X102002695Y-69080023D01*
X101955076Y-69175261D01*
X101859838Y-69270500D01*
X101716980Y-69318119D01*
X101621742Y-69318119D01*
X101478885Y-69270500D01*
X101431266Y-69222880D01*
X100240790Y-68318119D02*
X100240790Y-69318119D01*
X99764600Y-68318119D02*
X99764600Y-69318119D01*
X99193171Y-68318119D01*
X99193171Y-69318119D01*
X97431266Y-68318119D02*
X98002695Y-68318119D01*
X97716980Y-68318119D02*
X97716980Y-69318119D01*
X97812219Y-69175261D01*
X97907457Y-69080023D01*
X98002695Y-69032404D01*
X97050314Y-69222880D02*
X97002695Y-69270500D01*
X96907457Y-69318119D01*
X96669361Y-69318119D01*
X96574123Y-69270500D01*
X96526504Y-69222880D01*
X96478885Y-69127642D01*
X96478885Y-69032404D01*
X96526504Y-68889547D01*
X97097933Y-68318119D01*
X96478885Y-68318119D01*
X96050314Y-68699071D02*
X95288409Y-68699071D01*
X94288409Y-68318119D02*
X94859838Y-68318119D01*
X94574123Y-68318119D02*
X94574123Y-69318119D01*
X94669361Y-69175261D01*
X94764600Y-69080023D01*
X94859838Y-69032404D01*
X93383647Y-69318119D02*
X93859838Y-69318119D01*
X93907457Y-68841928D01*
X93859838Y-68889547D01*
X93764600Y-68937166D01*
X93526504Y-68937166D01*
X93431266Y-68889547D01*
X93383647Y-68841928D01*
X93336028Y-68746690D01*
X93336028Y-68508595D01*
X93383647Y-68413357D01*
X93431266Y-68365738D01*
X93526504Y-68318119D01*
X93764600Y-68318119D01*
X93859838Y-68365738D01*
X93907457Y-68413357D01*
X93050314Y-69318119D02*
X92716980Y-68318119D01*
X92383647Y-69318119D01*
D11*
X98291000Y-121100000D02*
X98291000Y-120790000D01*
X98291000Y-120790000D02*
X91421000Y-120790000D01*
X91421000Y-120790000D02*
X91421000Y-121100000D01*
X98291000Y-122620000D02*
X98291000Y-128380000D01*
X98291000Y-128380000D02*
X96871000Y-128380000D01*
X96871000Y-128380000D02*
X96871000Y-127880000D01*
X96871000Y-127880000D02*
X92841000Y-127880000D01*
X92841000Y-127880000D02*
X92841000Y-128380000D01*
X92841000Y-128380000D02*
X91421000Y-128380000D01*
X91421000Y-128380000D02*
X91421000Y-122620000D01*
X94980000Y-97040000D02*
X94980000Y-98500000D01*
X91820000Y-97040000D02*
X91820000Y-99200000D01*
X91820000Y-97040000D02*
X92750000Y-97040000D01*
X94980000Y-97040000D02*
X94050000Y-97040000D01*
X107500000Y-103100000D02*
X108850000Y-103100000D01*
X107500000Y-110100000D02*
X107500000Y-103100000D01*
X108850000Y-110100000D02*
X107500000Y-110100000D01*
X114300000Y-110100000D02*
X112950000Y-110100000D01*
X114300000Y-103100000D02*
X114300000Y-110100000D01*
X112950000Y-103100000D02*
X114300000Y-103100000D01*
X114291000Y-121100000D02*
X114291000Y-120790000D01*
X114291000Y-120790000D02*
X107421000Y-120790000D01*
X107421000Y-120790000D02*
X107421000Y-121100000D01*
X114291000Y-122620000D02*
X114291000Y-128380000D01*
X114291000Y-128380000D02*
X112871000Y-128380000D01*
X112871000Y-128380000D02*
X112871000Y-127880000D01*
X112871000Y-127880000D02*
X108841000Y-127880000D01*
X108841000Y-127880000D02*
X108841000Y-128380000D01*
X108841000Y-128380000D02*
X107421000Y-128380000D01*
X107421000Y-128380000D02*
X107421000Y-122620000D01*
X90291000Y-121100000D02*
X90291000Y-120790000D01*
X90291000Y-120790000D02*
X83421000Y-120790000D01*
X83421000Y-120790000D02*
X83421000Y-121100000D01*
X90291000Y-122620000D02*
X90291000Y-128380000D01*
X90291000Y-128380000D02*
X88871000Y-128380000D01*
X88871000Y-128380000D02*
X88871000Y-127880000D01*
X88871000Y-127880000D02*
X84841000Y-127880000D01*
X84841000Y-127880000D02*
X84841000Y-128380000D01*
X84841000Y-128380000D02*
X83421000Y-128380000D01*
X83421000Y-128380000D02*
X83421000Y-122620000D01*
X123410000Y-125450000D02*
X120210000Y-125450000D01*
X120210000Y-125450000D02*
X120210000Y-129050000D01*
X120210000Y-129050000D02*
X123310000Y-129050000D01*
X123310000Y-129050000D02*
X123410000Y-129050000D01*
X123410000Y-129050000D02*
X123410000Y-125450000D01*
X127835000Y-93065000D02*
X127835000Y-89990000D01*
X127835000Y-89990000D02*
X111965000Y-89990000D01*
X111965000Y-89990000D02*
X111965000Y-93065000D01*
X126395000Y-94580000D02*
X126415000Y-94580000D01*
X126415000Y-94580000D02*
X126415000Y-94080000D01*
X126415000Y-94080000D02*
X113385000Y-94080000D01*
X113385000Y-94080000D02*
X113385000Y-94580000D01*
X113385000Y-94580000D02*
X113405000Y-94580000D01*
X104390000Y-109602064D02*
X104390000Y-108397936D01*
X106210000Y-109602064D02*
X106210000Y-108397936D01*
X127835000Y-79705000D02*
X127835000Y-76630000D01*
X127835000Y-76630000D02*
X111965000Y-76630000D01*
X111965000Y-76630000D02*
X111965000Y-79705000D01*
X126395000Y-81220000D02*
X126415000Y-81220000D01*
X126415000Y-81220000D02*
X126415000Y-80720000D01*
X126415000Y-80720000D02*
X113385000Y-80720000D01*
X113385000Y-80720000D02*
X113385000Y-81220000D01*
X113385000Y-81220000D02*
X113405000Y-81220000D01*
X99950000Y-102150000D02*
X99950000Y-106450000D01*
X99950000Y-106450000D02*
X105650000Y-106450000D01*
X99950000Y-102150000D02*
X105650000Y-102150000D01*
D10*
X103275000Y-81475000D02*
X103275000Y-81250000D01*
X98625000Y-81475000D02*
X98625000Y-81150000D01*
X98625000Y-71474200D02*
X98625000Y-71799200D01*
X103275000Y-71474200D02*
X103275000Y-71799200D01*
X103275000Y-81475000D02*
X98625000Y-81475000D01*
X103275000Y-71474200D02*
X98625000Y-71474200D01*
X103275000Y-81250000D02*
X104350000Y-81250000D01*
X103275000Y-100350000D02*
X103275000Y-100125000D01*
X98625000Y-100350000D02*
X98625000Y-100025000D01*
X98625000Y-90349200D02*
X98625000Y-90674200D01*
X103275000Y-90349200D02*
X103275000Y-90674200D01*
X103275000Y-100350000D02*
X98625000Y-100350000D01*
X103275000Y-90349200D02*
X98625000Y-90349200D01*
X103275000Y-100125000D02*
X104350000Y-100125000D01*
D11*
X82882000Y-102830000D02*
X82882000Y-106250000D01*
X82882000Y-106250000D02*
X91102000Y-106250000D01*
X91102000Y-106250000D02*
X91102000Y-102830000D01*
X91102000Y-102830000D02*
X82882000Y-102830000D01*
X86992000Y-105740000D02*
X83392000Y-105740000D01*
X83392000Y-105740000D02*
X83392000Y-104990000D01*
X83392000Y-104990000D02*
X83192000Y-104990000D01*
X83192000Y-104990000D02*
X83192000Y-104190000D01*
X83192000Y-104190000D02*
X83392000Y-104190000D01*
X83392000Y-104190000D02*
X83392000Y-103340000D01*
X83392000Y-103340000D02*
X86992000Y-103340000D01*
X86992000Y-105740000D02*
X90592000Y-105740000D01*
X90592000Y-105740000D02*
X90592000Y-104990000D01*
X90592000Y-104990000D02*
X90792000Y-104990000D01*
X90792000Y-104990000D02*
X90792000Y-104190000D01*
X90792000Y-104190000D02*
X90592000Y-104190000D01*
X90592000Y-104190000D02*
X90592000Y-103340000D01*
X90592000Y-103340000D02*
X86992000Y-103340000D01*
X82592000Y-106540000D02*
X82592000Y-105540000D01*
X82592000Y-106540000D02*
X83592000Y-106540000D01*
X82882000Y-76922000D02*
X82882000Y-80342000D01*
X82882000Y-80342000D02*
X91102000Y-80342000D01*
X91102000Y-80342000D02*
X91102000Y-76922000D01*
X91102000Y-76922000D02*
X82882000Y-76922000D01*
X86992000Y-79832000D02*
X83392000Y-79832000D01*
X83392000Y-79832000D02*
X83392000Y-79082000D01*
X83392000Y-79082000D02*
X83192000Y-79082000D01*
X83192000Y-79082000D02*
X83192000Y-78282000D01*
X83192000Y-78282000D02*
X83392000Y-78282000D01*
X83392000Y-78282000D02*
X83392000Y-77432000D01*
X83392000Y-77432000D02*
X86992000Y-77432000D01*
X86992000Y-79832000D02*
X90592000Y-79832000D01*
X90592000Y-79832000D02*
X90592000Y-79082000D01*
X90592000Y-79082000D02*
X90792000Y-79082000D01*
X90792000Y-79082000D02*
X90792000Y-78282000D01*
X90792000Y-78282000D02*
X90592000Y-78282000D01*
X90592000Y-78282000D02*
X90592000Y-77432000D01*
X90592000Y-77432000D02*
X86992000Y-77432000D01*
X82592000Y-80632000D02*
X82592000Y-79632000D01*
X82592000Y-80632000D02*
X83592000Y-80632000D01*
X82882000Y-81240000D02*
X82882000Y-84660000D01*
X82882000Y-84660000D02*
X91102000Y-84660000D01*
X91102000Y-84660000D02*
X91102000Y-81240000D01*
X91102000Y-81240000D02*
X82882000Y-81240000D01*
X86992000Y-84150000D02*
X83392000Y-84150000D01*
X83392000Y-84150000D02*
X83392000Y-83400000D01*
X83392000Y-83400000D02*
X83192000Y-83400000D01*
X83192000Y-83400000D02*
X83192000Y-82600000D01*
X83192000Y-82600000D02*
X83392000Y-82600000D01*
X83392000Y-82600000D02*
X83392000Y-81750000D01*
X83392000Y-81750000D02*
X86992000Y-81750000D01*
X86992000Y-84150000D02*
X90592000Y-84150000D01*
X90592000Y-84150000D02*
X90592000Y-83400000D01*
X90592000Y-83400000D02*
X90792000Y-83400000D01*
X90792000Y-83400000D02*
X90792000Y-82600000D01*
X90792000Y-82600000D02*
X90592000Y-82600000D01*
X90592000Y-82600000D02*
X90592000Y-81750000D01*
X90592000Y-81750000D02*
X86992000Y-81750000D01*
X82592000Y-84950000D02*
X82592000Y-83950000D01*
X82592000Y-84950000D02*
X83592000Y-84950000D01*
X82882000Y-85558000D02*
X82882000Y-88978000D01*
X82882000Y-88978000D02*
X91102000Y-88978000D01*
X91102000Y-88978000D02*
X91102000Y-85558000D01*
X91102000Y-85558000D02*
X82882000Y-85558000D01*
X86992000Y-88468000D02*
X83392000Y-88468000D01*
X83392000Y-88468000D02*
X83392000Y-87718000D01*
X83392000Y-87718000D02*
X83192000Y-87718000D01*
X83192000Y-87718000D02*
X83192000Y-86918000D01*
X83192000Y-86918000D02*
X83392000Y-86918000D01*
X83392000Y-86918000D02*
X83392000Y-86068000D01*
X83392000Y-86068000D02*
X86992000Y-86068000D01*
X86992000Y-88468000D02*
X90592000Y-88468000D01*
X90592000Y-88468000D02*
X90592000Y-87718000D01*
X90592000Y-87718000D02*
X90792000Y-87718000D01*
X90792000Y-87718000D02*
X90792000Y-86918000D01*
X90792000Y-86918000D02*
X90592000Y-86918000D01*
X90592000Y-86918000D02*
X90592000Y-86068000D01*
X90592000Y-86068000D02*
X86992000Y-86068000D01*
X82592000Y-89268000D02*
X82592000Y-88268000D01*
X82592000Y-89268000D02*
X83592000Y-89268000D01*
X82882000Y-89876000D02*
X82882000Y-93296000D01*
X82882000Y-93296000D02*
X91102000Y-93296000D01*
X91102000Y-93296000D02*
X91102000Y-89876000D01*
X91102000Y-89876000D02*
X82882000Y-89876000D01*
X86992000Y-92786000D02*
X83392000Y-92786000D01*
X83392000Y-92786000D02*
X83392000Y-92036000D01*
X83392000Y-92036000D02*
X83192000Y-92036000D01*
X83192000Y-92036000D02*
X83192000Y-91236000D01*
X83192000Y-91236000D02*
X83392000Y-91236000D01*
X83392000Y-91236000D02*
X83392000Y-90386000D01*
X83392000Y-90386000D02*
X86992000Y-90386000D01*
X86992000Y-92786000D02*
X90592000Y-92786000D01*
X90592000Y-92786000D02*
X90592000Y-92036000D01*
X90592000Y-92036000D02*
X90792000Y-92036000D01*
X90792000Y-92036000D02*
X90792000Y-91236000D01*
X90792000Y-91236000D02*
X90592000Y-91236000D01*
X90592000Y-91236000D02*
X90592000Y-90386000D01*
X90592000Y-90386000D02*
X86992000Y-90386000D01*
X82592000Y-93586000D02*
X82592000Y-92586000D01*
X82592000Y-93586000D02*
X83592000Y-93586000D01*
X82882000Y-94194000D02*
X82882000Y-97614000D01*
X82882000Y-97614000D02*
X91102000Y-97614000D01*
X91102000Y-97614000D02*
X91102000Y-94194000D01*
X91102000Y-94194000D02*
X82882000Y-94194000D01*
X86992000Y-97104000D02*
X83392000Y-97104000D01*
X83392000Y-97104000D02*
X83392000Y-96354000D01*
X83392000Y-96354000D02*
X83192000Y-96354000D01*
X83192000Y-96354000D02*
X83192000Y-95554000D01*
X83192000Y-95554000D02*
X83392000Y-95554000D01*
X83392000Y-95554000D02*
X83392000Y-94704000D01*
X83392000Y-94704000D02*
X86992000Y-94704000D01*
X86992000Y-97104000D02*
X90592000Y-97104000D01*
X90592000Y-97104000D02*
X90592000Y-96354000D01*
X90592000Y-96354000D02*
X90792000Y-96354000D01*
X90792000Y-96354000D02*
X90792000Y-95554000D01*
X90792000Y-95554000D02*
X90592000Y-95554000D01*
X90592000Y-95554000D02*
X90592000Y-94704000D01*
X90592000Y-94704000D02*
X86992000Y-94704000D01*
X82592000Y-97904000D02*
X82592000Y-96904000D01*
X82592000Y-97904000D02*
X83592000Y-97904000D01*
X82882000Y-98512000D02*
X82882000Y-101932000D01*
X82882000Y-101932000D02*
X91102000Y-101932000D01*
X91102000Y-101932000D02*
X91102000Y-98512000D01*
X91102000Y-98512000D02*
X82882000Y-98512000D01*
X86992000Y-101422000D02*
X83392000Y-101422000D01*
X83392000Y-101422000D02*
X83392000Y-100672000D01*
X83392000Y-100672000D02*
X83192000Y-100672000D01*
X83192000Y-100672000D02*
X83192000Y-99872000D01*
X83192000Y-99872000D02*
X83392000Y-99872000D01*
X83392000Y-99872000D02*
X83392000Y-99022000D01*
X83392000Y-99022000D02*
X86992000Y-99022000D01*
X86992000Y-101422000D02*
X90592000Y-101422000D01*
X90592000Y-101422000D02*
X90592000Y-100672000D01*
X90592000Y-100672000D02*
X90792000Y-100672000D01*
X90792000Y-100672000D02*
X90792000Y-99872000D01*
X90792000Y-99872000D02*
X90592000Y-99872000D01*
X90592000Y-99872000D02*
X90592000Y-99022000D01*
X90592000Y-99022000D02*
X86992000Y-99022000D01*
X82592000Y-102222000D02*
X82592000Y-101222000D01*
X82592000Y-102222000D02*
X83592000Y-102222000D01*
X99460000Y-103697936D02*
X99460000Y-104902064D01*
X97640000Y-103697936D02*
X97640000Y-104902064D01*
X97060000Y-103697936D02*
X97060000Y-104902064D01*
X95240000Y-103697936D02*
X95240000Y-104902064D01*
X93740000Y-108092779D02*
X93740000Y-107767221D01*
X94760000Y-108092779D02*
X94760000Y-107767221D01*
X106291000Y-121100000D02*
X106291000Y-120790000D01*
X106291000Y-120790000D02*
X99421000Y-120790000D01*
X99421000Y-120790000D02*
X99421000Y-121100000D01*
X106291000Y-122620000D02*
X106291000Y-128380000D01*
X106291000Y-128380000D02*
X104871000Y-128380000D01*
X104871000Y-128380000D02*
X104871000Y-127880000D01*
X104871000Y-127880000D02*
X100841000Y-127880000D01*
X100841000Y-127880000D02*
X100841000Y-128380000D01*
X100841000Y-128380000D02*
X99421000Y-128380000D01*
X99421000Y-128380000D02*
X99421000Y-122620000D01*
X94700000Y-92967936D02*
X94700000Y-94172064D01*
X92880000Y-92967936D02*
X92880000Y-94172064D01*
X107400000Y-92751422D02*
X107400000Y-93268578D01*
X105980000Y-92751422D02*
X105980000Y-93268578D01*
X106322779Y-96020000D02*
X105997221Y-96020000D01*
X106322779Y-95000000D02*
X105997221Y-95000000D01*
X96250000Y-93407221D02*
X96250000Y-93732779D01*
X95230000Y-93407221D02*
X95230000Y-93732779D01*
X109362779Y-97920000D02*
X109037221Y-97920000D01*
X109362779Y-96900000D02*
X109037221Y-96900000D01*
X94680000Y-74417936D02*
X94680000Y-75622064D01*
X92860000Y-74417936D02*
X92860000Y-75622064D01*
X107290000Y-73921422D02*
X107290000Y-74438578D01*
X105870000Y-73921422D02*
X105870000Y-74438578D01*
X106342779Y-77180000D02*
X106017221Y-77180000D01*
X106342779Y-76160000D02*
X106017221Y-76160000D01*
X96170000Y-74677221D02*
X96170000Y-75002779D01*
X95150000Y-74677221D02*
X95150000Y-75002779D01*
X109812779Y-78220000D02*
X109487221Y-78220000D01*
X109812779Y-77200000D02*
X109487221Y-77200000D01*
X119410000Y-120087221D02*
X119410000Y-120412779D01*
X118390000Y-120087221D02*
X118390000Y-120412779D01*
X121037221Y-117340000D02*
X121362779Y-117340000D01*
X121037221Y-118360000D02*
X121362779Y-118360000D01*
X124160000Y-120037221D02*
X124160000Y-120362779D01*
X123140000Y-120037221D02*
X123140000Y-120362779D01*
X118760000Y-114878733D02*
X118760000Y-115221267D01*
X117740000Y-114878733D02*
X117740000Y-115221267D01*
X107870000Y-95660000D02*
X108800000Y-95660000D01*
X111030000Y-95660000D02*
X110100000Y-95660000D01*
X111030000Y-95660000D02*
X111030000Y-93500000D01*
X107870000Y-95660000D02*
X107870000Y-94200000D01*
X108050000Y-75820000D02*
X108980000Y-75820000D01*
X111210000Y-75820000D02*
X110280000Y-75820000D01*
X111210000Y-75820000D02*
X111210000Y-73660000D01*
X108050000Y-75820000D02*
X108050000Y-74360000D01*
D12*
X92708000Y-104986000D02*
G75*
G03*
X92708000Y-104986000I-10000J0D01*
G01*
D11*
X127000000Y-117250000D02*
X125000000Y-117250000D01*
X125000000Y-117250000D02*
X125000000Y-121100000D01*
X127000000Y-117250000D02*
X127000000Y-121100000D01*
X129035000Y-99080000D02*
X129035000Y-96420000D01*
X123895000Y-99080000D02*
X129035000Y-99080000D01*
X123895000Y-96420000D02*
X129035000Y-96420000D01*
X123895000Y-99080000D02*
X123895000Y-96420000D01*
X122625000Y-99080000D02*
X121295000Y-99080000D01*
X121295000Y-99080000D02*
X121295000Y-97750000D01*
X109415000Y-85312779D02*
X109415000Y-84987221D01*
X110435000Y-85312779D02*
X110435000Y-84987221D01*
X107532779Y-88330000D02*
X107207221Y-88330000D01*
X107532779Y-87310000D02*
X107207221Y-87310000D01*
X110182779Y-99440000D02*
X109857221Y-99440000D01*
X110182779Y-98420000D02*
X109857221Y-98420000D01*
X106322779Y-97540000D02*
X105997221Y-97540000D01*
X106322779Y-96520000D02*
X105997221Y-96520000D01*
X109812779Y-79860000D02*
X109487221Y-79860000D01*
X109812779Y-78840000D02*
X109487221Y-78840000D01*
X106017221Y-77710000D02*
X106342779Y-77710000D01*
X106017221Y-78730000D02*
X106342779Y-78730000D01*
X93840000Y-103662779D02*
X93840000Y-103337221D01*
X94860000Y-103662779D02*
X94860000Y-103337221D01*
X94760000Y-110867221D02*
X94760000Y-111192779D01*
X93740000Y-110867221D02*
X93740000Y-111192779D01*
X120960000Y-120037221D02*
X120960000Y-120362779D01*
X119940000Y-120037221D02*
X119940000Y-120362779D01*
X121802064Y-124010000D02*
X120597936Y-124010000D01*
X121802064Y-122190000D02*
X120597936Y-122190000D01*
X122560000Y-120037221D02*
X122560000Y-120362779D01*
X121540000Y-120037221D02*
X121540000Y-120362779D01*
X107542779Y-86740000D02*
X107217221Y-86740000D01*
X107542779Y-85720000D02*
X107217221Y-85720000D01*
X95477221Y-84330000D02*
X95802779Y-84330000D01*
X95477221Y-85350000D02*
X95802779Y-85350000D01*
X95487221Y-85970000D02*
X95812779Y-85970000D01*
X95487221Y-86990000D02*
X95812779Y-86990000D01*
X125210000Y-115087221D02*
X125210000Y-115412779D01*
X124190000Y-115087221D02*
X124190000Y-115412779D01*
X89897221Y-107080000D02*
X90222779Y-107080000D01*
X89897221Y-108100000D02*
X90222779Y-108100000D01*
X125297221Y-101850000D02*
X125622779Y-101850000D01*
X125297221Y-102870000D02*
X125622779Y-102870000D01*
X125287221Y-103400000D02*
X125612779Y-103400000D01*
X125287221Y-104420000D02*
X125612779Y-104420000D01*
D10*
X99375000Y-84275000D02*
X99375000Y-84400000D01*
X102625000Y-84275000D02*
X102625000Y-84500000D01*
X102625000Y-87525000D02*
X102625000Y-87300000D01*
X99375000Y-87525000D02*
X99375000Y-87300000D01*
X99375000Y-84275000D02*
X102625000Y-84275000D01*
X99375000Y-87525000D02*
X102625000Y-87525000D01*
X99375000Y-84400000D02*
X98300000Y-84400000D01*
D11*
X120250000Y-116860000D02*
X122050000Y-116860000D01*
X122050000Y-113640000D02*
X119600000Y-113640000D01*
X90330000Y-70290000D02*
X90330000Y-67630000D01*
X87730000Y-70290000D02*
X90330000Y-70290000D01*
X87730000Y-67630000D02*
X90330000Y-67630000D01*
X87730000Y-70290000D02*
X87730000Y-67630000D01*
X86460000Y-70290000D02*
X85130000Y-70290000D01*
X85130000Y-70290000D02*
X85130000Y-68960000D01*
X127525001Y-101240000D02*
X128635001Y-101240000D01*
X127525001Y-102000000D02*
X127525001Y-101240000D01*
X129198472Y-102760000D02*
X129745001Y-102760000D01*
X127525001Y-102760000D02*
X128071530Y-102760000D01*
X129745001Y-102760000D02*
X129745001Y-103965000D01*
X127525001Y-102760000D02*
X127525001Y-103965000D01*
X128942531Y-103965000D02*
X129745001Y-103965000D01*
X127525001Y-103965000D02*
X128327471Y-103965000D01*
X129740000Y-105035000D02*
X128937530Y-105035000D01*
X128322470Y-105035000D02*
X127520000Y-105035000D01*
X129740000Y-106240000D02*
X129740000Y-105035000D01*
X127520000Y-106240000D02*
X127520000Y-105035000D01*
X129740000Y-106240000D02*
X129193471Y-106240000D01*
X128066529Y-106240000D02*
X127520000Y-106240000D01*
X129740000Y-107000000D02*
X129740000Y-107760000D01*
X129740000Y-107760000D02*
X128630000Y-107760000D01*
X90100000Y-116000000D02*
X89100000Y-116000000D01*
X90100000Y-117200000D02*
X89300000Y-117200000D01*
D10*
X97215000Y-107035000D02*
X97215000Y-107235000D01*
X101365000Y-107035000D02*
X101365000Y-107235000D01*
X101365000Y-112185000D02*
X101365000Y-111985000D01*
X97215000Y-112185000D02*
X97215000Y-111985000D01*
X97215000Y-107035000D02*
X101365000Y-107035000D01*
X97215000Y-112185000D02*
X101365000Y-112185000D01*
X97215000Y-107235000D02*
X95915000Y-107235000D01*
D11*
X98650000Y-118560000D02*
X100600000Y-118560000D01*
X98650000Y-118560000D02*
X96700000Y-118560000D01*
X98650000Y-113440000D02*
X100600000Y-113440000D01*
X98650000Y-113440000D02*
X95200000Y-113440000D01*
X93985000Y-114612221D02*
X93985000Y-114937779D01*
X92965000Y-114612221D02*
X92965000Y-114937779D01*
X93287221Y-118360000D02*
X93612779Y-118360000D01*
X93287221Y-117340000D02*
X93612779Y-117340000D01*
X93562779Y-100910000D02*
X93237221Y-100910000D01*
X93562779Y-99890000D02*
X93237221Y-99890000D01*
X104390000Y-113022936D02*
X104390000Y-114227064D01*
X106210000Y-113022936D02*
X106210000Y-114227064D01*
X83490000Y-73962779D02*
X83490000Y-73637221D01*
X84510000Y-73962779D02*
X84510000Y-73637221D01*
X90310000Y-73962779D02*
X90310000Y-73637221D01*
X89290000Y-73962779D02*
X89290000Y-73637221D01*
X88380000Y-72840000D02*
X87450000Y-72840000D01*
X85220000Y-72840000D02*
X86150000Y-72840000D01*
X85220000Y-72840000D02*
X85220000Y-75000000D01*
X88380000Y-72840000D02*
X88380000Y-74300000D01*
X114500000Y-113990000D02*
X106440000Y-113990000D01*
X106440000Y-113990000D02*
X106440000Y-118510000D01*
X106440000Y-118510000D02*
X114500000Y-118510000D01*
D10*
X94522666Y-128922380D02*
X94522666Y-129636666D01*
X94475047Y-129779523D01*
X94379809Y-129874761D01*
X94236952Y-129922380D01*
X94141714Y-129922380D01*
X95475047Y-128922380D02*
X94998857Y-128922380D01*
X94951238Y-129398571D01*
X94998857Y-129350952D01*
X95094095Y-129303333D01*
X95332190Y-129303333D01*
X95427428Y-129350952D01*
X95475047Y-129398571D01*
X95522666Y-129493809D01*
X95522666Y-129731904D01*
X95475047Y-129827142D01*
X95427428Y-129874761D01*
X95332190Y-129922380D01*
X95094095Y-129922380D01*
X94998857Y-129874761D01*
X94951238Y-129827142D01*
D13*
X93224385Y-98101909D02*
X93176766Y-98078100D01*
X93129147Y-98030480D01*
X93057719Y-97959052D01*
X93010100Y-97935242D01*
X92962480Y-97935242D01*
X92986290Y-98054290D02*
X92938671Y-98030480D01*
X92891052Y-97982861D01*
X92867242Y-97887623D01*
X92867242Y-97720957D01*
X92891052Y-97625719D01*
X92938671Y-97578100D01*
X92986290Y-97554290D01*
X93081528Y-97554290D01*
X93129147Y-97578100D01*
X93176766Y-97625719D01*
X93200576Y-97720957D01*
X93200576Y-97887623D01*
X93176766Y-97982861D01*
X93129147Y-98030480D01*
X93081528Y-98054290D01*
X92986290Y-98054290D01*
X93676766Y-98054290D02*
X93391052Y-98054290D01*
X93533909Y-98054290D02*
X93533909Y-97554290D01*
X93486290Y-97625719D01*
X93438671Y-97673338D01*
X93391052Y-97697147D01*
X94152957Y-98054290D02*
X93867242Y-98054290D01*
X94010100Y-98054290D02*
X94010100Y-97554290D01*
X93962480Y-97625719D01*
X93914861Y-97673338D01*
X93867242Y-97697147D01*
D10*
X110733333Y-112102380D02*
X110257142Y-112102380D01*
X110257142Y-111102380D01*
X111590476Y-112102380D02*
X111019047Y-112102380D01*
X111304761Y-112102380D02*
X111304761Y-111102380D01*
X111209523Y-111245238D01*
X111114285Y-111340476D01*
X111019047Y-111388095D01*
X110046476Y-128922380D02*
X110046476Y-129636666D01*
X109998857Y-129779523D01*
X109903619Y-129874761D01*
X109760761Y-129922380D01*
X109665523Y-129922380D01*
X110475047Y-129017619D02*
X110522666Y-128970000D01*
X110617904Y-128922380D01*
X110856000Y-128922380D01*
X110951238Y-128970000D01*
X110998857Y-129017619D01*
X111046476Y-129112857D01*
X111046476Y-129208095D01*
X110998857Y-129350952D01*
X110427428Y-129922380D01*
X111046476Y-129922380D01*
X111665523Y-128922380D02*
X111760761Y-128922380D01*
X111856000Y-128970000D01*
X111903619Y-129017619D01*
X111951238Y-129112857D01*
X111998857Y-129303333D01*
X111998857Y-129541428D01*
X111951238Y-129731904D01*
X111903619Y-129827142D01*
X111856000Y-129874761D01*
X111760761Y-129922380D01*
X111665523Y-129922380D01*
X111570285Y-129874761D01*
X111522666Y-129827142D01*
X111475047Y-129731904D01*
X111427428Y-129541428D01*
X111427428Y-129303333D01*
X111475047Y-129112857D01*
X111522666Y-129017619D01*
X111570285Y-128970000D01*
X111665523Y-128922380D01*
X86522666Y-128922380D02*
X86522666Y-129636666D01*
X86475047Y-129779523D01*
X86379809Y-129874761D01*
X86236952Y-129922380D01*
X86141714Y-129922380D01*
X87427428Y-128922380D02*
X87236952Y-128922380D01*
X87141714Y-128970000D01*
X87094095Y-129017619D01*
X86998857Y-129160476D01*
X86951238Y-129350952D01*
X86951238Y-129731904D01*
X86998857Y-129827142D01*
X87046476Y-129874761D01*
X87141714Y-129922380D01*
X87332190Y-129922380D01*
X87427428Y-129874761D01*
X87475047Y-129827142D01*
X87522666Y-129731904D01*
X87522666Y-129493809D01*
X87475047Y-129398571D01*
X87427428Y-129350952D01*
X87332190Y-129303333D01*
X87141714Y-129303333D01*
X87046476Y-129350952D01*
X86998857Y-129398571D01*
X86951238Y-129493809D01*
X117365614Y-127744480D02*
X117365614Y-126744480D01*
X117603709Y-126744480D01*
X117746566Y-126792100D01*
X117841804Y-126887338D01*
X117889423Y-126982576D01*
X117937042Y-127173052D01*
X117937042Y-127315909D01*
X117889423Y-127506385D01*
X117841804Y-127601623D01*
X117746566Y-127696861D01*
X117603709Y-127744480D01*
X117365614Y-127744480D01*
X118889423Y-127744480D02*
X118317995Y-127744480D01*
X118603709Y-127744480D02*
X118603709Y-126744480D01*
X118508471Y-126887338D01*
X118413233Y-126982576D01*
X118317995Y-127030195D01*
X119460852Y-127173052D02*
X119365614Y-127125433D01*
X119317995Y-127077814D01*
X119270376Y-126982576D01*
X119270376Y-126934957D01*
X119317995Y-126839719D01*
X119365614Y-126792100D01*
X119460852Y-126744480D01*
X119651328Y-126744480D01*
X119746566Y-126792100D01*
X119794185Y-126839719D01*
X119841804Y-126934957D01*
X119841804Y-126982576D01*
X119794185Y-127077814D01*
X119746566Y-127125433D01*
X119651328Y-127173052D01*
X119460852Y-127173052D01*
X119365614Y-127220671D01*
X119317995Y-127268290D01*
X119270376Y-127363528D01*
X119270376Y-127554004D01*
X119317995Y-127649242D01*
X119365614Y-127696861D01*
X119460852Y-127744480D01*
X119651328Y-127744480D01*
X119746566Y-127696861D01*
X119794185Y-127649242D01*
X119841804Y-127554004D01*
X119841804Y-127363528D01*
X119794185Y-127268290D01*
X119746566Y-127220671D01*
X119651328Y-127173052D01*
X126966666Y-95152380D02*
X126966666Y-95866666D01*
X126919047Y-96009523D01*
X126823809Y-96104761D01*
X126680952Y-96152380D01*
X126585714Y-96152380D01*
X127395238Y-95247619D02*
X127442857Y-95200000D01*
X127538095Y-95152380D01*
X127776190Y-95152380D01*
X127871428Y-95200000D01*
X127919047Y-95247619D01*
X127966666Y-95342857D01*
X127966666Y-95438095D01*
X127919047Y-95580952D01*
X127347619Y-96152380D01*
X127966666Y-96152380D01*
X104657142Y-106457142D02*
X104609523Y-106504761D01*
X104466666Y-106552380D01*
X104371428Y-106552380D01*
X104228571Y-106504761D01*
X104133333Y-106409523D01*
X104085714Y-106314285D01*
X104038095Y-106123809D01*
X104038095Y-105980952D01*
X104085714Y-105790476D01*
X104133333Y-105695238D01*
X104228571Y-105600000D01*
X104371428Y-105552380D01*
X104466666Y-105552380D01*
X104609523Y-105600000D01*
X104657142Y-105647619D01*
X105609523Y-106552380D02*
X105038095Y-106552380D01*
X105323809Y-106552380D02*
X105323809Y-105552380D01*
X105228571Y-105695238D01*
X105133333Y-105790476D01*
X105038095Y-105838095D01*
X106466666Y-105552380D02*
X106276190Y-105552380D01*
X106180952Y-105600000D01*
X106133333Y-105647619D01*
X106038095Y-105790476D01*
X105990476Y-105980952D01*
X105990476Y-106361904D01*
X106038095Y-106457142D01*
X106085714Y-106504761D01*
X106180952Y-106552380D01*
X106371428Y-106552380D01*
X106466666Y-106504761D01*
X106514285Y-106457142D01*
X106561904Y-106361904D01*
X106561904Y-106123809D01*
X106514285Y-106028571D01*
X106466666Y-105980952D01*
X106371428Y-105933333D01*
X106180952Y-105933333D01*
X106085714Y-105980952D01*
X106038095Y-106028571D01*
X105990476Y-106123809D01*
X126866666Y-81892380D02*
X126866666Y-82606666D01*
X126819047Y-82749523D01*
X126723809Y-82844761D01*
X126580952Y-82892380D01*
X126485714Y-82892380D01*
X127247619Y-81892380D02*
X127866666Y-81892380D01*
X127533333Y-82273333D01*
X127676190Y-82273333D01*
X127771428Y-82320952D01*
X127819047Y-82368571D01*
X127866666Y-82463809D01*
X127866666Y-82701904D01*
X127819047Y-82797142D01*
X127771428Y-82844761D01*
X127676190Y-82892380D01*
X127390476Y-82892380D01*
X127295238Y-82844761D01*
X127247619Y-82797142D01*
X98161904Y-104752380D02*
X98161904Y-103752380D01*
X98400000Y-103752380D01*
X98542857Y-103800000D01*
X98638095Y-103895238D01*
X98685714Y-103990476D01*
X98733333Y-104180952D01*
X98733333Y-104323809D01*
X98685714Y-104514285D01*
X98638095Y-104609523D01*
X98542857Y-104704761D01*
X98400000Y-104752380D01*
X98161904Y-104752380D01*
X99304761Y-104180952D02*
X99209523Y-104133333D01*
X99161904Y-104085714D01*
X99114285Y-103990476D01*
X99114285Y-103942857D01*
X99161904Y-103847619D01*
X99209523Y-103800000D01*
X99304761Y-103752380D01*
X99495238Y-103752380D01*
X99590476Y-103800000D01*
X99638095Y-103847619D01*
X99685714Y-103942857D01*
X99685714Y-103990476D01*
X99638095Y-104085714D01*
X99590476Y-104133333D01*
X99495238Y-104180952D01*
X99304761Y-104180952D01*
X99209523Y-104228571D01*
X99161904Y-104276190D01*
X99114285Y-104371428D01*
X99114285Y-104561904D01*
X99161904Y-104657142D01*
X99209523Y-104704761D01*
X99304761Y-104752380D01*
X99495238Y-104752380D01*
X99590476Y-104704761D01*
X99638095Y-104657142D01*
X99685714Y-104561904D01*
X99685714Y-104371428D01*
X99638095Y-104276190D01*
X99590476Y-104228571D01*
X99495238Y-104180952D01*
X100188095Y-81752380D02*
X100188095Y-82561904D01*
X100235714Y-82657142D01*
X100283333Y-82704761D01*
X100378571Y-82752380D01*
X100569047Y-82752380D01*
X100664285Y-82704761D01*
X100711904Y-82657142D01*
X100759523Y-82561904D01*
X100759523Y-81752380D01*
X101188095Y-81847619D02*
X101235714Y-81800000D01*
X101330952Y-81752380D01*
X101569047Y-81752380D01*
X101664285Y-81800000D01*
X101711904Y-81847619D01*
X101759523Y-81942857D01*
X101759523Y-82038095D01*
X101711904Y-82180952D01*
X101140476Y-82752380D01*
X101759523Y-82752380D01*
X100188095Y-100652380D02*
X100188095Y-101461904D01*
X100235714Y-101557142D01*
X100283333Y-101604761D01*
X100378571Y-101652380D01*
X100569047Y-101652380D01*
X100664285Y-101604761D01*
X100711904Y-101557142D01*
X100759523Y-101461904D01*
X100759523Y-100652380D01*
X101759523Y-101652380D02*
X101188095Y-101652380D01*
X101473809Y-101652380D02*
X101473809Y-100652380D01*
X101378571Y-100795238D01*
X101283333Y-100890476D01*
X101188095Y-100938095D01*
X81716666Y-102802380D02*
X81716666Y-103516666D01*
X81669047Y-103659523D01*
X81573809Y-103754761D01*
X81430952Y-103802380D01*
X81335714Y-103802380D01*
X82240476Y-103802380D02*
X82430952Y-103802380D01*
X82526190Y-103754761D01*
X82573809Y-103707142D01*
X82669047Y-103564285D01*
X82716666Y-103373809D01*
X82716666Y-102992857D01*
X82669047Y-102897619D01*
X82621428Y-102850000D01*
X82526190Y-102802380D01*
X82335714Y-102802380D01*
X82240476Y-102850000D01*
X82192857Y-102897619D01*
X82145238Y-102992857D01*
X82145238Y-103230952D01*
X82192857Y-103326190D01*
X82240476Y-103373809D01*
X82335714Y-103421428D01*
X82526190Y-103421428D01*
X82621428Y-103373809D01*
X82669047Y-103326190D01*
X82716666Y-103230952D01*
X80790476Y-76952380D02*
X80790476Y-77666666D01*
X80742857Y-77809523D01*
X80647619Y-77904761D01*
X80504761Y-77952380D01*
X80409523Y-77952380D01*
X81790476Y-77952380D02*
X81219047Y-77952380D01*
X81504761Y-77952380D02*
X81504761Y-76952380D01*
X81409523Y-77095238D01*
X81314285Y-77190476D01*
X81219047Y-77238095D01*
X82647619Y-76952380D02*
X82457142Y-76952380D01*
X82361904Y-77000000D01*
X82314285Y-77047619D01*
X82219047Y-77190476D01*
X82171428Y-77380952D01*
X82171428Y-77761904D01*
X82219047Y-77857142D01*
X82266666Y-77904761D01*
X82361904Y-77952380D01*
X82552380Y-77952380D01*
X82647619Y-77904761D01*
X82695238Y-77857142D01*
X82742857Y-77761904D01*
X82742857Y-77523809D01*
X82695238Y-77428571D01*
X82647619Y-77380952D01*
X82552380Y-77333333D01*
X82361904Y-77333333D01*
X82266666Y-77380952D01*
X82219047Y-77428571D01*
X82171428Y-77523809D01*
X80790476Y-81252380D02*
X80790476Y-81966666D01*
X80742857Y-82109523D01*
X80647619Y-82204761D01*
X80504761Y-82252380D01*
X80409523Y-82252380D01*
X81790476Y-82252380D02*
X81219047Y-82252380D01*
X81504761Y-82252380D02*
X81504761Y-81252380D01*
X81409523Y-81395238D01*
X81314285Y-81490476D01*
X81219047Y-81538095D01*
X82695238Y-81252380D02*
X82219047Y-81252380D01*
X82171428Y-81728571D01*
X82219047Y-81680952D01*
X82314285Y-81633333D01*
X82552380Y-81633333D01*
X82647619Y-81680952D01*
X82695238Y-81728571D01*
X82742857Y-81823809D01*
X82742857Y-82061904D01*
X82695238Y-82157142D01*
X82647619Y-82204761D01*
X82552380Y-82252380D01*
X82314285Y-82252380D01*
X82219047Y-82204761D01*
X82171428Y-82157142D01*
X80790476Y-85552380D02*
X80790476Y-86266666D01*
X80742857Y-86409523D01*
X80647619Y-86504761D01*
X80504761Y-86552380D01*
X80409523Y-86552380D01*
X81790476Y-86552380D02*
X81219047Y-86552380D01*
X81504761Y-86552380D02*
X81504761Y-85552380D01*
X81409523Y-85695238D01*
X81314285Y-85790476D01*
X81219047Y-85838095D01*
X82123809Y-85552380D02*
X82742857Y-85552380D01*
X82409523Y-85933333D01*
X82552380Y-85933333D01*
X82647619Y-85980952D01*
X82695238Y-86028571D01*
X82742857Y-86123809D01*
X82742857Y-86361904D01*
X82695238Y-86457142D01*
X82647619Y-86504761D01*
X82552380Y-86552380D01*
X82266666Y-86552380D01*
X82171428Y-86504761D01*
X82123809Y-86457142D01*
X80790476Y-89852380D02*
X80790476Y-90566666D01*
X80742857Y-90709523D01*
X80647619Y-90804761D01*
X80504761Y-90852380D01*
X80409523Y-90852380D01*
X81790476Y-90852380D02*
X81219047Y-90852380D01*
X81504761Y-90852380D02*
X81504761Y-89852380D01*
X81409523Y-89995238D01*
X81314285Y-90090476D01*
X81219047Y-90138095D01*
X82171428Y-89947619D02*
X82219047Y-89900000D01*
X82314285Y-89852380D01*
X82552380Y-89852380D01*
X82647619Y-89900000D01*
X82695238Y-89947619D01*
X82742857Y-90042857D01*
X82742857Y-90138095D01*
X82695238Y-90280952D01*
X82123809Y-90852380D01*
X82742857Y-90852380D01*
X80790476Y-94152380D02*
X80790476Y-94866666D01*
X80742857Y-95009523D01*
X80647619Y-95104761D01*
X80504761Y-95152380D01*
X80409523Y-95152380D01*
X81790476Y-95152380D02*
X81219047Y-95152380D01*
X81504761Y-95152380D02*
X81504761Y-94152380D01*
X81409523Y-94295238D01*
X81314285Y-94390476D01*
X81219047Y-94438095D01*
X82742857Y-95152380D02*
X82171428Y-95152380D01*
X82457142Y-95152380D02*
X82457142Y-94152380D01*
X82361904Y-94295238D01*
X82266666Y-94390476D01*
X82171428Y-94438095D01*
X80790476Y-98502380D02*
X80790476Y-99216666D01*
X80742857Y-99359523D01*
X80647619Y-99454761D01*
X80504761Y-99502380D01*
X80409523Y-99502380D01*
X81790476Y-99502380D02*
X81219047Y-99502380D01*
X81504761Y-99502380D02*
X81504761Y-98502380D01*
X81409523Y-98645238D01*
X81314285Y-98740476D01*
X81219047Y-98788095D01*
X82409523Y-98502380D02*
X82504761Y-98502380D01*
X82600000Y-98550000D01*
X82647619Y-98597619D01*
X82695238Y-98692857D01*
X82742857Y-98883333D01*
X82742857Y-99121428D01*
X82695238Y-99311904D01*
X82647619Y-99407142D01*
X82600000Y-99454761D01*
X82504761Y-99502380D01*
X82409523Y-99502380D01*
X82314285Y-99454761D01*
X82266666Y-99407142D01*
X82219047Y-99311904D01*
X82171428Y-99121428D01*
X82171428Y-98883333D01*
X82219047Y-98692857D01*
X82266666Y-98597619D01*
X82314285Y-98550000D01*
X82409523Y-98502380D01*
X81735714Y-124502380D02*
X81164285Y-124502380D01*
X81450000Y-124502380D02*
X81450000Y-123502380D01*
X81354761Y-123645238D01*
X81259523Y-123740476D01*
X81164285Y-123788095D01*
X75814285Y-123597619D02*
X75861904Y-123550000D01*
X75957142Y-123502380D01*
X76195238Y-123502380D01*
X76290476Y-123550000D01*
X76338095Y-123597619D01*
X76385714Y-123692857D01*
X76385714Y-123788095D01*
X76338095Y-123930952D01*
X75766666Y-124502380D01*
X76385714Y-124502380D01*
X80190476Y-71752380D02*
X80809523Y-71752380D01*
X80476190Y-72133333D01*
X80619047Y-72133333D01*
X80714285Y-72180952D01*
X80761904Y-72228571D01*
X80809523Y-72323809D01*
X80809523Y-72561904D01*
X80761904Y-72657142D01*
X80714285Y-72704761D01*
X80619047Y-72752380D01*
X80333333Y-72752380D01*
X80238095Y-72704761D01*
X80190476Y-72657142D01*
X81285714Y-72752380D02*
X81476190Y-72752380D01*
X81571428Y-72704761D01*
X81619047Y-72657142D01*
X81714285Y-72514285D01*
X81761904Y-72323809D01*
X81761904Y-71942857D01*
X81714285Y-71847619D01*
X81666666Y-71800000D01*
X81571428Y-71752380D01*
X81380952Y-71752380D01*
X81285714Y-71800000D01*
X81238095Y-71847619D01*
X81190476Y-71942857D01*
X81190476Y-72180952D01*
X81238095Y-72276190D01*
X81285714Y-72323809D01*
X81380952Y-72371428D01*
X81571428Y-72371428D01*
X81666666Y-72323809D01*
X81714285Y-72276190D01*
X81761904Y-72180952D01*
X76264285Y-72085714D02*
X76264285Y-72752380D01*
X76026190Y-71704761D02*
X75788095Y-72419047D01*
X76407142Y-72419047D01*
X76978571Y-71752380D02*
X77073809Y-71752380D01*
X77169047Y-71800000D01*
X77216666Y-71847619D01*
X77264285Y-71942857D01*
X77311904Y-72133333D01*
X77311904Y-72371428D01*
X77264285Y-72561904D01*
X77216666Y-72657142D01*
X77169047Y-72704761D01*
X77073809Y-72752380D01*
X76978571Y-72752380D01*
X76883333Y-72704761D01*
X76835714Y-72657142D01*
X76788095Y-72561904D01*
X76740476Y-72371428D01*
X76740476Y-72133333D01*
X76788095Y-71942857D01*
X76835714Y-71847619D01*
X76883333Y-71800000D01*
X76978571Y-71752380D01*
X98057142Y-107607142D02*
X98009523Y-107654761D01*
X97866666Y-107702380D01*
X97771428Y-107702380D01*
X97628571Y-107654761D01*
X97533333Y-107559523D01*
X97485714Y-107464285D01*
X97438095Y-107273809D01*
X97438095Y-107130952D01*
X97485714Y-106940476D01*
X97533333Y-106845238D01*
X97628571Y-106750000D01*
X97771428Y-106702380D01*
X97866666Y-106702380D01*
X98009523Y-106750000D01*
X98057142Y-106797619D01*
X98438095Y-106797619D02*
X98485714Y-106750000D01*
X98580952Y-106702380D01*
X98819047Y-106702380D01*
X98914285Y-106750000D01*
X98961904Y-106797619D01*
X99009523Y-106892857D01*
X99009523Y-106988095D01*
X98961904Y-107130952D01*
X98390476Y-107702380D01*
X99009523Y-107702380D01*
X99961904Y-107702380D02*
X99390476Y-107702380D01*
X99676190Y-107702380D02*
X99676190Y-106702380D01*
X99580952Y-106845238D01*
X99485714Y-106940476D01*
X99390476Y-106988095D01*
X95307142Y-107607142D02*
X95259523Y-107654761D01*
X95116666Y-107702380D01*
X95021428Y-107702380D01*
X94878571Y-107654761D01*
X94783333Y-107559523D01*
X94735714Y-107464285D01*
X94688095Y-107273809D01*
X94688095Y-107130952D01*
X94735714Y-106940476D01*
X94783333Y-106845238D01*
X94878571Y-106750000D01*
X95021428Y-106702380D01*
X95116666Y-106702380D01*
X95259523Y-106750000D01*
X95307142Y-106797619D01*
X95688095Y-106797619D02*
X95735714Y-106750000D01*
X95830952Y-106702380D01*
X96069047Y-106702380D01*
X96164285Y-106750000D01*
X96211904Y-106797619D01*
X96259523Y-106892857D01*
X96259523Y-106988095D01*
X96211904Y-107130952D01*
X95640476Y-107702380D01*
X96259523Y-107702380D01*
X96878571Y-106702380D02*
X96973809Y-106702380D01*
X97069047Y-106750000D01*
X97116666Y-106797619D01*
X97164285Y-106892857D01*
X97211904Y-107083333D01*
X97211904Y-107321428D01*
X97164285Y-107511904D01*
X97116666Y-107607142D01*
X97069047Y-107654761D01*
X96973809Y-107702380D01*
X96878571Y-107702380D01*
X96783333Y-107654761D01*
X96735714Y-107607142D01*
X96688095Y-107511904D01*
X96640476Y-107321428D01*
X96640476Y-107083333D01*
X96688095Y-106892857D01*
X96735714Y-106797619D01*
X96783333Y-106750000D01*
X96878571Y-106702380D01*
X94107142Y-106187142D02*
X94059523Y-106234761D01*
X93916666Y-106282380D01*
X93821428Y-106282380D01*
X93678571Y-106234761D01*
X93583333Y-106139523D01*
X93535714Y-106044285D01*
X93488095Y-105853809D01*
X93488095Y-105710952D01*
X93535714Y-105520476D01*
X93583333Y-105425238D01*
X93678571Y-105330000D01*
X93821428Y-105282380D01*
X93916666Y-105282380D01*
X94059523Y-105330000D01*
X94107142Y-105377619D01*
X95059523Y-106282380D02*
X94488095Y-106282380D01*
X94773809Y-106282380D02*
X94773809Y-105282380D01*
X94678571Y-105425238D01*
X94583333Y-105520476D01*
X94488095Y-105568095D01*
X95630952Y-105710952D02*
X95535714Y-105663333D01*
X95488095Y-105615714D01*
X95440476Y-105520476D01*
X95440476Y-105472857D01*
X95488095Y-105377619D01*
X95535714Y-105330000D01*
X95630952Y-105282380D01*
X95821428Y-105282380D01*
X95916666Y-105330000D01*
X95964285Y-105377619D01*
X96011904Y-105472857D01*
X96011904Y-105520476D01*
X95964285Y-105615714D01*
X95916666Y-105663333D01*
X95821428Y-105710952D01*
X95630952Y-105710952D01*
X95535714Y-105758571D01*
X95488095Y-105806190D01*
X95440476Y-105901428D01*
X95440476Y-106091904D01*
X95488095Y-106187142D01*
X95535714Y-106234761D01*
X95630952Y-106282380D01*
X95821428Y-106282380D01*
X95916666Y-106234761D01*
X95964285Y-106187142D01*
X96011904Y-106091904D01*
X96011904Y-105901428D01*
X95964285Y-105806190D01*
X95916666Y-105758571D01*
X95821428Y-105710952D01*
X123037695Y-67902080D02*
X123037695Y-66902080D01*
X123037695Y-67378271D02*
X123609123Y-67378271D01*
X123609123Y-67902080D02*
X123609123Y-66902080D01*
X123990076Y-66902080D02*
X124609123Y-66902080D01*
X124275790Y-67283033D01*
X124418647Y-67283033D01*
X124513885Y-67330652D01*
X124561504Y-67378271D01*
X124609123Y-67473509D01*
X124609123Y-67711604D01*
X124561504Y-67806842D01*
X124513885Y-67854461D01*
X124418647Y-67902080D01*
X124132933Y-67902080D01*
X124037695Y-67854461D01*
X123990076Y-67806842D01*
X102522666Y-128922380D02*
X102522666Y-129636666D01*
X102475047Y-129779523D01*
X102379809Y-129874761D01*
X102236952Y-129922380D01*
X102141714Y-129922380D01*
X103427428Y-129255714D02*
X103427428Y-129922380D01*
X103189333Y-128874761D02*
X102951238Y-129589047D01*
X103570285Y-129589047D01*
D13*
X93693466Y-93726771D02*
X93669657Y-93750580D01*
X93598228Y-93774390D01*
X93550609Y-93774390D01*
X93479180Y-93750580D01*
X93431561Y-93702961D01*
X93407752Y-93655342D01*
X93383942Y-93560104D01*
X93383942Y-93488676D01*
X93407752Y-93393438D01*
X93431561Y-93345819D01*
X93479180Y-93298200D01*
X93550609Y-93274390D01*
X93598228Y-93274390D01*
X93669657Y-93298200D01*
X93693466Y-93322009D01*
X94169657Y-93774390D02*
X93883942Y-93774390D01*
X94026800Y-93774390D02*
X94026800Y-93274390D01*
X93979180Y-93345819D01*
X93931561Y-93393438D01*
X93883942Y-93417247D01*
D10*
X108611373Y-92604862D02*
X108563754Y-92652481D01*
X108420897Y-92700100D01*
X108325659Y-92700100D01*
X108182801Y-92652481D01*
X108087563Y-92557243D01*
X108039944Y-92462005D01*
X107992325Y-92271529D01*
X107992325Y-92128672D01*
X108039944Y-91938196D01*
X108087563Y-91842958D01*
X108182801Y-91747720D01*
X108325659Y-91700100D01*
X108420897Y-91700100D01*
X108563754Y-91747720D01*
X108611373Y-91795339D01*
X108992325Y-91795339D02*
X109039944Y-91747720D01*
X109135182Y-91700100D01*
X109373278Y-91700100D01*
X109468516Y-91747720D01*
X109516135Y-91795339D01*
X109563754Y-91890577D01*
X109563754Y-91985815D01*
X109516135Y-92128672D01*
X108944706Y-92700100D01*
X109563754Y-92700100D01*
X108693222Y-95675746D02*
X108740841Y-95723365D01*
X108788460Y-95866222D01*
X108788460Y-95961460D01*
X108740841Y-96104318D01*
X108645603Y-96199556D01*
X108550365Y-96247175D01*
X108359889Y-96294794D01*
X108217032Y-96294794D01*
X108026556Y-96247175D01*
X107931318Y-96199556D01*
X107836080Y-96104318D01*
X107788460Y-95961460D01*
X107788460Y-95866222D01*
X107836080Y-95723365D01*
X107883699Y-95675746D01*
X107788460Y-95342413D02*
X107788460Y-94723365D01*
X108169413Y-95056699D01*
X108169413Y-94913841D01*
X108217032Y-94818603D01*
X108264651Y-94770984D01*
X108359889Y-94723365D01*
X108597984Y-94723365D01*
X108693222Y-94770984D01*
X108740841Y-94818603D01*
X108788460Y-94913841D01*
X108788460Y-95199556D01*
X108740841Y-95294794D01*
X108693222Y-95342413D01*
X97527142Y-93736666D02*
X97574761Y-93784285D01*
X97622380Y-93927142D01*
X97622380Y-94022380D01*
X97574761Y-94165238D01*
X97479523Y-94260476D01*
X97384285Y-94308095D01*
X97193809Y-94355714D01*
X97050952Y-94355714D01*
X96860476Y-94308095D01*
X96765238Y-94260476D01*
X96670000Y-94165238D01*
X96622380Y-94022380D01*
X96622380Y-93927142D01*
X96670000Y-93784285D01*
X96717619Y-93736666D01*
X96955714Y-92879523D02*
X97622380Y-92879523D01*
X96574761Y-93117619D02*
X97289047Y-93355714D01*
X97289047Y-92736666D01*
X111928613Y-97745822D02*
X111880994Y-97793441D01*
X111738137Y-97841060D01*
X111642899Y-97841060D01*
X111500041Y-97793441D01*
X111404803Y-97698203D01*
X111357184Y-97602965D01*
X111309565Y-97412489D01*
X111309565Y-97269632D01*
X111357184Y-97079156D01*
X111404803Y-96983918D01*
X111500041Y-96888680D01*
X111642899Y-96841060D01*
X111738137Y-96841060D01*
X111880994Y-96888680D01*
X111928613Y-96936299D01*
X112261946Y-96841060D02*
X112928613Y-96841060D01*
X112500041Y-97841060D01*
X94169502Y-71962306D02*
X94217121Y-72009925D01*
X94264740Y-72152782D01*
X94264740Y-72248020D01*
X94217121Y-72390878D01*
X94121883Y-72486116D01*
X94026645Y-72533735D01*
X93836169Y-72581354D01*
X93693312Y-72581354D01*
X93502836Y-72533735D01*
X93407598Y-72486116D01*
X93312360Y-72390878D01*
X93264740Y-72248020D01*
X93264740Y-72152782D01*
X93312360Y-72009925D01*
X93359979Y-71962306D01*
X93693312Y-71390878D02*
X93645693Y-71486116D01*
X93598074Y-71533735D01*
X93502836Y-71581354D01*
X93455217Y-71581354D01*
X93359979Y-71533735D01*
X93312360Y-71486116D01*
X93264740Y-71390878D01*
X93264740Y-71200401D01*
X93312360Y-71105163D01*
X93359979Y-71057544D01*
X93455217Y-71009925D01*
X93502836Y-71009925D01*
X93598074Y-71057544D01*
X93645693Y-71105163D01*
X93693312Y-71200401D01*
X93693312Y-71390878D01*
X93740931Y-71486116D01*
X93788550Y-71533735D01*
X93883788Y-71581354D01*
X94074264Y-71581354D01*
X94169502Y-71533735D01*
X94217121Y-71486116D01*
X94264740Y-71390878D01*
X94264740Y-71200401D01*
X94217121Y-71105163D01*
X94169502Y-71057544D01*
X94074264Y-71009925D01*
X93883788Y-71009925D01*
X93788550Y-71057544D01*
X93740931Y-71105163D01*
X93693312Y-71200401D01*
X106935542Y-71738786D02*
X106983161Y-71786405D01*
X107030780Y-71929262D01*
X107030780Y-72024500D01*
X106983161Y-72167358D01*
X106887923Y-72262596D01*
X106792685Y-72310215D01*
X106602209Y-72357834D01*
X106459352Y-72357834D01*
X106268876Y-72310215D01*
X106173638Y-72262596D01*
X106078400Y-72167358D01*
X106030780Y-72024500D01*
X106030780Y-71929262D01*
X106078400Y-71786405D01*
X106126019Y-71738786D01*
X107030780Y-71262596D02*
X107030780Y-71072120D01*
X106983161Y-70976881D01*
X106935542Y-70929262D01*
X106792685Y-70834024D01*
X106602209Y-70786405D01*
X106221257Y-70786405D01*
X106126019Y-70834024D01*
X106078400Y-70881643D01*
X106030780Y-70976881D01*
X106030780Y-71167358D01*
X106078400Y-71262596D01*
X106126019Y-71310215D01*
X106221257Y-71357834D01*
X106459352Y-71357834D01*
X106554590Y-71310215D01*
X106602209Y-71262596D01*
X106649828Y-71167358D01*
X106649828Y-70976881D01*
X106602209Y-70881643D01*
X106554590Y-70834024D01*
X106459352Y-70786405D01*
D13*
X107750491Y-76053451D02*
X107726681Y-76077260D01*
X107655253Y-76101070D01*
X107607634Y-76101070D01*
X107536205Y-76077260D01*
X107488586Y-76029641D01*
X107464777Y-75982022D01*
X107440967Y-75886784D01*
X107440967Y-75815356D01*
X107464777Y-75720118D01*
X107488586Y-75672499D01*
X107536205Y-75624880D01*
X107607634Y-75601070D01*
X107655253Y-75601070D01*
X107726681Y-75624880D01*
X107750491Y-75648689D01*
X108226681Y-76101070D02*
X107940967Y-76101070D01*
X108083824Y-76101070D02*
X108083824Y-75601070D01*
X108036205Y-75672499D01*
X107988586Y-75720118D01*
X107940967Y-75743927D01*
X108536205Y-75601070D02*
X108583824Y-75601070D01*
X108631443Y-75624880D01*
X108655253Y-75648689D01*
X108679062Y-75696308D01*
X108702872Y-75791546D01*
X108702872Y-75910594D01*
X108679062Y-76005832D01*
X108655253Y-76053451D01*
X108631443Y-76077260D01*
X108583824Y-76101070D01*
X108536205Y-76101070D01*
X108488586Y-76077260D01*
X108464777Y-76053451D01*
X108440967Y-76005832D01*
X108417158Y-75910594D01*
X108417158Y-75791546D01*
X108440967Y-75696308D01*
X108464777Y-75648689D01*
X108488586Y-75624880D01*
X108536205Y-75601070D01*
D10*
X95993222Y-72621377D02*
X96040841Y-72668996D01*
X96088460Y-72811853D01*
X96088460Y-72907091D01*
X96040841Y-73049948D01*
X95945603Y-73145186D01*
X95850365Y-73192805D01*
X95659889Y-73240424D01*
X95517032Y-73240424D01*
X95326556Y-73192805D01*
X95231318Y-73145186D01*
X95136080Y-73049948D01*
X95088460Y-72907091D01*
X95088460Y-72811853D01*
X95136080Y-72668996D01*
X95183699Y-72621377D01*
X96088460Y-71668996D02*
X96088460Y-72240424D01*
X96088460Y-71954710D02*
X95088460Y-71954710D01*
X95231318Y-72049948D01*
X95326556Y-72145186D01*
X95374175Y-72240424D01*
X96088460Y-70716615D02*
X96088460Y-71288043D01*
X96088460Y-71002329D02*
X95088460Y-71002329D01*
X95231318Y-71097567D01*
X95326556Y-71192805D01*
X95374175Y-71288043D01*
D13*
X112383451Y-77872091D02*
X112359641Y-77895900D01*
X112288213Y-77919710D01*
X112240594Y-77919710D01*
X112169165Y-77895900D01*
X112121546Y-77848281D01*
X112097737Y-77800662D01*
X112073927Y-77705424D01*
X112073927Y-77633996D01*
X112097737Y-77538758D01*
X112121546Y-77491139D01*
X112169165Y-77443520D01*
X112240594Y-77419710D01*
X112288213Y-77419710D01*
X112359641Y-77443520D01*
X112383451Y-77467329D01*
X112859641Y-77919710D02*
X112573927Y-77919710D01*
X112716784Y-77919710D02*
X112716784Y-77419710D01*
X112669165Y-77491139D01*
X112621546Y-77538758D01*
X112573927Y-77562567D01*
X113288213Y-77586377D02*
X113288213Y-77919710D01*
X113169165Y-77395900D02*
X113050118Y-77753043D01*
X113359641Y-77753043D01*
D14*
X118640257Y-122012057D02*
X118621209Y-122031104D01*
X118564066Y-122050152D01*
X118525971Y-122050152D01*
X118468828Y-122031104D01*
X118430733Y-121993009D01*
X118411685Y-121954914D01*
X118392638Y-121878723D01*
X118392638Y-121821580D01*
X118411685Y-121745390D01*
X118430733Y-121707295D01*
X118468828Y-121669200D01*
X118525971Y-121650152D01*
X118564066Y-121650152D01*
X118621209Y-121669200D01*
X118640257Y-121688247D01*
X118792638Y-121688247D02*
X118811685Y-121669200D01*
X118849780Y-121650152D01*
X118945019Y-121650152D01*
X118983114Y-121669200D01*
X119002161Y-121688247D01*
X119021209Y-121726342D01*
X119021209Y-121764438D01*
X119002161Y-121821580D01*
X118773590Y-122050152D01*
X119021209Y-122050152D01*
X119364066Y-121783485D02*
X119364066Y-122050152D01*
X119268828Y-121631104D02*
X119173590Y-121916819D01*
X119421209Y-121916819D01*
X123072557Y-117998857D02*
X123053509Y-118017904D01*
X122996366Y-118036952D01*
X122958271Y-118036952D01*
X122901128Y-118017904D01*
X122863033Y-117979809D01*
X122843985Y-117941714D01*
X122824938Y-117865523D01*
X122824938Y-117808380D01*
X122843985Y-117732190D01*
X122863033Y-117694095D01*
X122901128Y-117656000D01*
X122958271Y-117636952D01*
X122996366Y-117636952D01*
X123053509Y-117656000D01*
X123072557Y-117675047D01*
X123224938Y-117675047D02*
X123243985Y-117656000D01*
X123282080Y-117636952D01*
X123377319Y-117636952D01*
X123415414Y-117656000D01*
X123434461Y-117675047D01*
X123453509Y-117713142D01*
X123453509Y-117751238D01*
X123434461Y-117808380D01*
X123205890Y-118036952D01*
X123453509Y-118036952D01*
X123815414Y-117636952D02*
X123624938Y-117636952D01*
X123605890Y-117827428D01*
X123624938Y-117808380D01*
X123663033Y-117789333D01*
X123758271Y-117789333D01*
X123796366Y-117808380D01*
X123815414Y-117827428D01*
X123834461Y-117865523D01*
X123834461Y-117960761D01*
X123815414Y-117998857D01*
X123796366Y-118017904D01*
X123758271Y-118036952D01*
X123663033Y-118036952D01*
X123624938Y-118017904D01*
X123605890Y-117998857D01*
X123428157Y-121948557D02*
X123409109Y-121967604D01*
X123351966Y-121986652D01*
X123313871Y-121986652D01*
X123256728Y-121967604D01*
X123218633Y-121929509D01*
X123199585Y-121891414D01*
X123180538Y-121815223D01*
X123180538Y-121758080D01*
X123199585Y-121681890D01*
X123218633Y-121643795D01*
X123256728Y-121605700D01*
X123313871Y-121586652D01*
X123351966Y-121586652D01*
X123409109Y-121605700D01*
X123428157Y-121624747D01*
X123580538Y-121624747D02*
X123599585Y-121605700D01*
X123637680Y-121586652D01*
X123732919Y-121586652D01*
X123771014Y-121605700D01*
X123790061Y-121624747D01*
X123809109Y-121662842D01*
X123809109Y-121700938D01*
X123790061Y-121758080D01*
X123561490Y-121986652D01*
X123809109Y-121986652D01*
X124151966Y-121586652D02*
X124075776Y-121586652D01*
X124037680Y-121605700D01*
X124018633Y-121624747D01*
X123980538Y-121681890D01*
X123961490Y-121758080D01*
X123961490Y-121910461D01*
X123980538Y-121948557D01*
X123999585Y-121967604D01*
X124037680Y-121986652D01*
X124113871Y-121986652D01*
X124151966Y-121967604D01*
X124171014Y-121948557D01*
X124190061Y-121910461D01*
X124190061Y-121815223D01*
X124171014Y-121777128D01*
X124151966Y-121758080D01*
X124113871Y-121739033D01*
X124037680Y-121739033D01*
X123999585Y-121758080D01*
X123980538Y-121777128D01*
X123961490Y-121815223D01*
D13*
X116416971Y-115265971D02*
X116393161Y-115289780D01*
X116321733Y-115313590D01*
X116274114Y-115313590D01*
X116202685Y-115289780D01*
X116155066Y-115242161D01*
X116131257Y-115194542D01*
X116107447Y-115099304D01*
X116107447Y-115027876D01*
X116131257Y-114932638D01*
X116155066Y-114885019D01*
X116202685Y-114837400D01*
X116274114Y-114813590D01*
X116321733Y-114813590D01*
X116393161Y-114837400D01*
X116416971Y-114861209D01*
X116583638Y-114813590D02*
X116893161Y-114813590D01*
X116726495Y-115004066D01*
X116797923Y-115004066D01*
X116845542Y-115027876D01*
X116869352Y-115051685D01*
X116893161Y-115099304D01*
X116893161Y-115218352D01*
X116869352Y-115265971D01*
X116845542Y-115289780D01*
X116797923Y-115313590D01*
X116655066Y-115313590D01*
X116607447Y-115289780D01*
X116583638Y-115265971D01*
X117059828Y-114813590D02*
X117369352Y-114813590D01*
X117202685Y-115004066D01*
X117274114Y-115004066D01*
X117321733Y-115027876D01*
X117345542Y-115051685D01*
X117369352Y-115099304D01*
X117369352Y-115218352D01*
X117345542Y-115265971D01*
X117321733Y-115289780D01*
X117274114Y-115313590D01*
X117131257Y-115313590D01*
X117083638Y-115289780D01*
X117059828Y-115265971D01*
D10*
X112402380Y-95638095D02*
X111402380Y-95638095D01*
X111402380Y-95400000D01*
X111450000Y-95257142D01*
X111545238Y-95161904D01*
X111640476Y-95114285D01*
X111830952Y-95066666D01*
X111973809Y-95066666D01*
X112164285Y-95114285D01*
X112259523Y-95161904D01*
X112354761Y-95257142D01*
X112402380Y-95400000D01*
X112402380Y-95638095D01*
X112402380Y-94114285D02*
X112402380Y-94685714D01*
X112402380Y-94400000D02*
X111402380Y-94400000D01*
X111545238Y-94495238D01*
X111640476Y-94590476D01*
X111688095Y-94685714D01*
X112582380Y-75798095D02*
X111582380Y-75798095D01*
X111582380Y-75560000D01*
X111630000Y-75417142D01*
X111725238Y-75321904D01*
X111820476Y-75274285D01*
X112010952Y-75226666D01*
X112153809Y-75226666D01*
X112344285Y-75274285D01*
X112439523Y-75321904D01*
X112534761Y-75417142D01*
X112582380Y-75560000D01*
X112582380Y-75798095D01*
X111677619Y-74845714D02*
X111630000Y-74798095D01*
X111582380Y-74702857D01*
X111582380Y-74464761D01*
X111630000Y-74369523D01*
X111677619Y-74321904D01*
X111772857Y-74274285D01*
X111868095Y-74274285D01*
X112010952Y-74321904D01*
X112582380Y-74893333D01*
X112582380Y-74274285D01*
D13*
X92379052Y-106271190D02*
X92379052Y-105771190D01*
X92498100Y-105771190D01*
X92569528Y-105795000D01*
X92617147Y-105842619D01*
X92640957Y-105890238D01*
X92664766Y-105985476D01*
X92664766Y-106056904D01*
X92640957Y-106152142D01*
X92617147Y-106199761D01*
X92569528Y-106247380D01*
X92498100Y-106271190D01*
X92379052Y-106271190D01*
X93093338Y-105771190D02*
X92998100Y-105771190D01*
X92950480Y-105795000D01*
X92926671Y-105818809D01*
X92879052Y-105890238D01*
X92855242Y-105985476D01*
X92855242Y-106175952D01*
X92879052Y-106223571D01*
X92902861Y-106247380D01*
X92950480Y-106271190D01*
X93045719Y-106271190D01*
X93093338Y-106247380D01*
X93117147Y-106223571D01*
X93140957Y-106175952D01*
X93140957Y-106056904D01*
X93117147Y-106009285D01*
X93093338Y-105985476D01*
X93045719Y-105961666D01*
X92950480Y-105961666D01*
X92902861Y-105985476D01*
X92879052Y-106009285D01*
X92855242Y-106056904D01*
D10*
X128366780Y-120670485D02*
X127366780Y-120670485D01*
X127366780Y-120432390D01*
X127414400Y-120289533D01*
X127509638Y-120194295D01*
X127604876Y-120146676D01*
X127795352Y-120099057D01*
X127938209Y-120099057D01*
X128128685Y-120146676D01*
X128223923Y-120194295D01*
X128319161Y-120289533D01*
X128366780Y-120432390D01*
X128366780Y-120670485D01*
X128366780Y-119146676D02*
X128366780Y-119718104D01*
X128366780Y-119432390D02*
X127366780Y-119432390D01*
X127509638Y-119527628D01*
X127604876Y-119622866D01*
X127652495Y-119718104D01*
X127366780Y-118241914D02*
X127366780Y-118718104D01*
X127842971Y-118765723D01*
X127795352Y-118718104D01*
X127747733Y-118622866D01*
X127747733Y-118384771D01*
X127795352Y-118289533D01*
X127842971Y-118241914D01*
X127938209Y-118194295D01*
X128176304Y-118194295D01*
X128271542Y-118241914D01*
X128319161Y-118289533D01*
X128366780Y-118384771D01*
X128366780Y-118622866D01*
X128319161Y-118718104D01*
X128271542Y-118765723D01*
X119747380Y-98559523D02*
X120461666Y-98559523D01*
X120604523Y-98607142D01*
X120699761Y-98702380D01*
X120747380Y-98845238D01*
X120747380Y-98940476D01*
X120747380Y-97559523D02*
X120747380Y-98130952D01*
X120747380Y-97845238D02*
X119747380Y-97845238D01*
X119890238Y-97940476D01*
X119985476Y-98035714D01*
X120033095Y-98130952D01*
X120747380Y-97083333D02*
X120747380Y-96892857D01*
X120699761Y-96797619D01*
X120652142Y-96750000D01*
X120509285Y-96654761D01*
X120318809Y-96607142D01*
X119937857Y-96607142D01*
X119842619Y-96654761D01*
X119795000Y-96702380D01*
X119747380Y-96797619D01*
X119747380Y-96988095D01*
X119795000Y-97083333D01*
X119842619Y-97130952D01*
X119937857Y-97178571D01*
X120175952Y-97178571D01*
X120271190Y-97130952D01*
X120318809Y-97083333D01*
X120366428Y-96988095D01*
X120366428Y-96797619D01*
X120318809Y-96702380D01*
X120271190Y-96654761D01*
X120175952Y-96607142D01*
X109749293Y-83352900D02*
X109415960Y-82876710D01*
X109177864Y-83352900D02*
X109177864Y-82352900D01*
X109558817Y-82352900D01*
X109654055Y-82400520D01*
X109701674Y-82448139D01*
X109749293Y-82543377D01*
X109749293Y-82686234D01*
X109701674Y-82781472D01*
X109654055Y-82829091D01*
X109558817Y-82876710D01*
X109177864Y-82876710D01*
X110701674Y-83352900D02*
X110130245Y-83352900D01*
X110415960Y-83352900D02*
X110415960Y-82352900D01*
X110320721Y-82495758D01*
X110225483Y-82590996D01*
X110130245Y-82638615D01*
X107285493Y-89692740D02*
X106952160Y-89216550D01*
X106714064Y-89692740D02*
X106714064Y-88692740D01*
X107095017Y-88692740D01*
X107190255Y-88740360D01*
X107237874Y-88787979D01*
X107285493Y-88883217D01*
X107285493Y-89026074D01*
X107237874Y-89121312D01*
X107190255Y-89168931D01*
X107095017Y-89216550D01*
X106714064Y-89216550D01*
X107666445Y-88787979D02*
X107714064Y-88740360D01*
X107809302Y-88692740D01*
X108047398Y-88692740D01*
X108142636Y-88740360D01*
X108190255Y-88787979D01*
X108237874Y-88883217D01*
X108237874Y-88978455D01*
X108190255Y-89121312D01*
X107618826Y-89692740D01*
X108237874Y-89692740D01*
X112223253Y-99426020D02*
X111889920Y-98949830D01*
X111651824Y-99426020D02*
X111651824Y-98426020D01*
X112032777Y-98426020D01*
X112128015Y-98473640D01*
X112175634Y-98521259D01*
X112223253Y-98616497D01*
X112223253Y-98759354D01*
X112175634Y-98854592D01*
X112128015Y-98902211D01*
X112032777Y-98949830D01*
X111651824Y-98949830D01*
X112556586Y-98426020D02*
X113175634Y-98426020D01*
X112842300Y-98806973D01*
X112985158Y-98806973D01*
X113080396Y-98854592D01*
X113128015Y-98902211D01*
X113175634Y-98997449D01*
X113175634Y-99235544D01*
X113128015Y-99330782D01*
X113080396Y-99378401D01*
X112985158Y-99426020D01*
X112699443Y-99426020D01*
X112604205Y-99378401D01*
X112556586Y-99330782D01*
X106035813Y-98897700D02*
X105702480Y-98421510D01*
X105464384Y-98897700D02*
X105464384Y-97897700D01*
X105845337Y-97897700D01*
X105940575Y-97945320D01*
X105988194Y-97992939D01*
X106035813Y-98088177D01*
X106035813Y-98231034D01*
X105988194Y-98326272D01*
X105940575Y-98373891D01*
X105845337Y-98421510D01*
X105464384Y-98421510D01*
X106892956Y-98231034D02*
X106892956Y-98897700D01*
X106654860Y-97850081D02*
X106416765Y-98564367D01*
X107035813Y-98564367D01*
D13*
X112398026Y-79570710D02*
X112231360Y-79332615D01*
X112112312Y-79570710D02*
X112112312Y-79070710D01*
X112302788Y-79070710D01*
X112350407Y-79094520D01*
X112374217Y-79118329D01*
X112398026Y-79165948D01*
X112398026Y-79237377D01*
X112374217Y-79284996D01*
X112350407Y-79308805D01*
X112302788Y-79332615D01*
X112112312Y-79332615D01*
X112850407Y-79070710D02*
X112612312Y-79070710D01*
X112588502Y-79308805D01*
X112612312Y-79284996D01*
X112659931Y-79261186D01*
X112778979Y-79261186D01*
X112826598Y-79284996D01*
X112850407Y-79308805D01*
X112874217Y-79356424D01*
X112874217Y-79475472D01*
X112850407Y-79523091D01*
X112826598Y-79546900D01*
X112778979Y-79570710D01*
X112659931Y-79570710D01*
X112612312Y-79546900D01*
X112588502Y-79523091D01*
X106169946Y-79687550D02*
X106003280Y-79449455D01*
X105884232Y-79687550D02*
X105884232Y-79187550D01*
X106074708Y-79187550D01*
X106122327Y-79211360D01*
X106146137Y-79235169D01*
X106169946Y-79282788D01*
X106169946Y-79354217D01*
X106146137Y-79401836D01*
X106122327Y-79425645D01*
X106074708Y-79449455D01*
X105884232Y-79449455D01*
X106598518Y-79187550D02*
X106503280Y-79187550D01*
X106455660Y-79211360D01*
X106431851Y-79235169D01*
X106384232Y-79306598D01*
X106360422Y-79401836D01*
X106360422Y-79592312D01*
X106384232Y-79639931D01*
X106408041Y-79663740D01*
X106455660Y-79687550D01*
X106550899Y-79687550D01*
X106598518Y-79663740D01*
X106622327Y-79639931D01*
X106646137Y-79592312D01*
X106646137Y-79473264D01*
X106622327Y-79425645D01*
X106598518Y-79401836D01*
X106550899Y-79378026D01*
X106455660Y-79378026D01*
X106408041Y-79401836D01*
X106384232Y-79425645D01*
X106360422Y-79473264D01*
X94026871Y-101864290D02*
X93860204Y-101626195D01*
X93741157Y-101864290D02*
X93741157Y-101364290D01*
X93931633Y-101364290D01*
X93979252Y-101388100D01*
X94003061Y-101411909D01*
X94026871Y-101459528D01*
X94026871Y-101530957D01*
X94003061Y-101578576D01*
X93979252Y-101602385D01*
X93931633Y-101626195D01*
X93741157Y-101626195D01*
X94503061Y-101864290D02*
X94217347Y-101864290D01*
X94360204Y-101864290D02*
X94360204Y-101364290D01*
X94312585Y-101435719D01*
X94264966Y-101483338D01*
X94217347Y-101507147D01*
X94669728Y-101364290D02*
X94979252Y-101364290D01*
X94812585Y-101554766D01*
X94884014Y-101554766D01*
X94931633Y-101578576D01*
X94955442Y-101602385D01*
X94979252Y-101650004D01*
X94979252Y-101769052D01*
X94955442Y-101816671D01*
X94931633Y-101840480D01*
X94884014Y-101864290D01*
X94741157Y-101864290D01*
X94693538Y-101840480D01*
X94669728Y-101816671D01*
D10*
X96132380Y-111672857D02*
X95656190Y-112006190D01*
X96132380Y-112244285D02*
X95132380Y-112244285D01*
X95132380Y-111863333D01*
X95180000Y-111768095D01*
X95227619Y-111720476D01*
X95322857Y-111672857D01*
X95465714Y-111672857D01*
X95560952Y-111720476D01*
X95608571Y-111768095D01*
X95656190Y-111863333D01*
X95656190Y-112244285D01*
X96132380Y-110720476D02*
X96132380Y-111291904D01*
X96132380Y-111006190D02*
X95132380Y-111006190D01*
X95275238Y-111101428D01*
X95370476Y-111196666D01*
X95418095Y-111291904D01*
X95465714Y-109863333D02*
X96132380Y-109863333D01*
X95084761Y-110101428D02*
X95799047Y-110339523D01*
X95799047Y-109720476D01*
D14*
X120164257Y-122037452D02*
X120030923Y-121846976D01*
X119935685Y-122037452D02*
X119935685Y-121637452D01*
X120088066Y-121637452D01*
X120126161Y-121656500D01*
X120145209Y-121675547D01*
X120164257Y-121713642D01*
X120164257Y-121770785D01*
X120145209Y-121808880D01*
X120126161Y-121827928D01*
X120088066Y-121846976D01*
X119935685Y-121846976D01*
X120316638Y-121675547D02*
X120335685Y-121656500D01*
X120373780Y-121637452D01*
X120469019Y-121637452D01*
X120507114Y-121656500D01*
X120526161Y-121675547D01*
X120545209Y-121713642D01*
X120545209Y-121751738D01*
X120526161Y-121808880D01*
X120297590Y-122037452D01*
X120545209Y-122037452D01*
X120792828Y-121637452D02*
X120830923Y-121637452D01*
X120869019Y-121656500D01*
X120888066Y-121675547D01*
X120907114Y-121713642D01*
X120926161Y-121789833D01*
X120926161Y-121885071D01*
X120907114Y-121961261D01*
X120888066Y-121999357D01*
X120869019Y-122018404D01*
X120830923Y-122037452D01*
X120792828Y-122037452D01*
X120754733Y-122018404D01*
X120735685Y-121999357D01*
X120716638Y-121961261D01*
X120697590Y-121885071D01*
X120697590Y-121789833D01*
X120716638Y-121713642D01*
X120735685Y-121675547D01*
X120754733Y-121656500D01*
X120792828Y-121637452D01*
D13*
X120823871Y-123136790D02*
X120657204Y-122898695D01*
X120538157Y-123136790D02*
X120538157Y-122636790D01*
X120728633Y-122636790D01*
X120776252Y-122660600D01*
X120800061Y-122684409D01*
X120823871Y-122732028D01*
X120823871Y-122803457D01*
X120800061Y-122851076D01*
X120776252Y-122874885D01*
X120728633Y-122898695D01*
X120538157Y-122898695D01*
X121014347Y-122684409D02*
X121038157Y-122660600D01*
X121085776Y-122636790D01*
X121204823Y-122636790D01*
X121252442Y-122660600D01*
X121276252Y-122684409D01*
X121300061Y-122732028D01*
X121300061Y-122779647D01*
X121276252Y-122851076D01*
X120990538Y-123136790D01*
X121300061Y-123136790D01*
X121776252Y-123136790D02*
X121490538Y-123136790D01*
X121633395Y-123136790D02*
X121633395Y-122636790D01*
X121585776Y-122708219D01*
X121538157Y-122755838D01*
X121490538Y-122779647D01*
D14*
X121840657Y-122012052D02*
X121707323Y-121821576D01*
X121612085Y-122012052D02*
X121612085Y-121612052D01*
X121764466Y-121612052D01*
X121802561Y-121631100D01*
X121821609Y-121650147D01*
X121840657Y-121688242D01*
X121840657Y-121745385D01*
X121821609Y-121783480D01*
X121802561Y-121802528D01*
X121764466Y-121821576D01*
X121612085Y-121821576D01*
X121993038Y-121650147D02*
X122012085Y-121631100D01*
X122050180Y-121612052D01*
X122145419Y-121612052D01*
X122183514Y-121631100D01*
X122202561Y-121650147D01*
X122221609Y-121688242D01*
X122221609Y-121726338D01*
X122202561Y-121783480D01*
X121973990Y-122012052D01*
X122221609Y-122012052D01*
X122583514Y-121612052D02*
X122393038Y-121612052D01*
X122373990Y-121802528D01*
X122393038Y-121783480D01*
X122431133Y-121764433D01*
X122526371Y-121764433D01*
X122564466Y-121783480D01*
X122583514Y-121802528D01*
X122602561Y-121840623D01*
X122602561Y-121935861D01*
X122583514Y-121973957D01*
X122564466Y-121993004D01*
X122526371Y-122012052D01*
X122431133Y-122012052D01*
X122393038Y-121993004D01*
X122373990Y-121973957D01*
D10*
X106616262Y-85105500D02*
X106282929Y-84629310D01*
X106044834Y-85105500D02*
X106044834Y-84105500D01*
X106425786Y-84105500D01*
X106521024Y-84153120D01*
X106568643Y-84200739D01*
X106616262Y-84295977D01*
X106616262Y-84438834D01*
X106568643Y-84534072D01*
X106521024Y-84581691D01*
X106425786Y-84629310D01*
X106044834Y-84629310D01*
X106997215Y-84200739D02*
X107044834Y-84153120D01*
X107140072Y-84105500D01*
X107378167Y-84105500D01*
X107473405Y-84153120D01*
X107521024Y-84200739D01*
X107568643Y-84295977D01*
X107568643Y-84391215D01*
X107521024Y-84534072D01*
X106949596Y-85105500D01*
X107568643Y-85105500D01*
X108425786Y-84105500D02*
X108235310Y-84105500D01*
X108140072Y-84153120D01*
X108092453Y-84200739D01*
X107997215Y-84343596D01*
X107949596Y-84534072D01*
X107949596Y-84915024D01*
X107997215Y-85010262D01*
X108044834Y-85057881D01*
X108140072Y-85105500D01*
X108330548Y-85105500D01*
X108425786Y-85057881D01*
X108473405Y-85010262D01*
X108521024Y-84915024D01*
X108521024Y-84676929D01*
X108473405Y-84581691D01*
X108425786Y-84534072D01*
X108330548Y-84486453D01*
X108140072Y-84486453D01*
X108044834Y-84534072D01*
X107997215Y-84581691D01*
X107949596Y-84676929D01*
X94997142Y-83862380D02*
X94663809Y-83386190D01*
X94425714Y-83862380D02*
X94425714Y-82862380D01*
X94806666Y-82862380D01*
X94901904Y-82910000D01*
X94949523Y-82957619D01*
X94997142Y-83052857D01*
X94997142Y-83195714D01*
X94949523Y-83290952D01*
X94901904Y-83338571D01*
X94806666Y-83386190D01*
X94425714Y-83386190D01*
X95378095Y-82957619D02*
X95425714Y-82910000D01*
X95520952Y-82862380D01*
X95759047Y-82862380D01*
X95854285Y-82910000D01*
X95901904Y-82957619D01*
X95949523Y-83052857D01*
X95949523Y-83148095D01*
X95901904Y-83290952D01*
X95330476Y-83862380D01*
X95949523Y-83862380D01*
X96520952Y-83290952D02*
X96425714Y-83243333D01*
X96378095Y-83195714D01*
X96330476Y-83100476D01*
X96330476Y-83052857D01*
X96378095Y-82957619D01*
X96425714Y-82910000D01*
X96520952Y-82862380D01*
X96711428Y-82862380D01*
X96806666Y-82910000D01*
X96854285Y-82957619D01*
X96901904Y-83052857D01*
X96901904Y-83100476D01*
X96854285Y-83195714D01*
X96806666Y-83243333D01*
X96711428Y-83290952D01*
X96520952Y-83290952D01*
X96425714Y-83338571D01*
X96378095Y-83386190D01*
X96330476Y-83481428D01*
X96330476Y-83671904D01*
X96378095Y-83767142D01*
X96425714Y-83814761D01*
X96520952Y-83862380D01*
X96711428Y-83862380D01*
X96806666Y-83814761D01*
X96854285Y-83767142D01*
X96901904Y-83671904D01*
X96901904Y-83481428D01*
X96854285Y-83386190D01*
X96806666Y-83338571D01*
X96711428Y-83290952D01*
X95003382Y-88641180D02*
X94670049Y-88164990D01*
X94431954Y-88641180D02*
X94431954Y-87641180D01*
X94812906Y-87641180D01*
X94908144Y-87688800D01*
X94955763Y-87736419D01*
X95003382Y-87831657D01*
X95003382Y-87974514D01*
X94955763Y-88069752D01*
X94908144Y-88117371D01*
X94812906Y-88164990D01*
X94431954Y-88164990D01*
X95384335Y-87736419D02*
X95431954Y-87688800D01*
X95527192Y-87641180D01*
X95765287Y-87641180D01*
X95860525Y-87688800D01*
X95908144Y-87736419D01*
X95955763Y-87831657D01*
X95955763Y-87926895D01*
X95908144Y-88069752D01*
X95336716Y-88641180D01*
X95955763Y-88641180D01*
X96431954Y-88641180D02*
X96622430Y-88641180D01*
X96717668Y-88593561D01*
X96765287Y-88545942D01*
X96860525Y-88403085D01*
X96908144Y-88212609D01*
X96908144Y-87831657D01*
X96860525Y-87736419D01*
X96812906Y-87688800D01*
X96717668Y-87641180D01*
X96527192Y-87641180D01*
X96431954Y-87688800D01*
X96384335Y-87736419D01*
X96336716Y-87831657D01*
X96336716Y-88069752D01*
X96384335Y-88164990D01*
X96431954Y-88212609D01*
X96527192Y-88260228D01*
X96717668Y-88260228D01*
X96812906Y-88212609D01*
X96860525Y-88164990D01*
X96908144Y-88069752D01*
D13*
X125808571Y-115476190D02*
X125641904Y-115238095D01*
X125522857Y-115476190D02*
X125522857Y-114976190D01*
X125713333Y-114976190D01*
X125760952Y-115000000D01*
X125784761Y-115023809D01*
X125808571Y-115071428D01*
X125808571Y-115142857D01*
X125784761Y-115190476D01*
X125760952Y-115214285D01*
X125713333Y-115238095D01*
X125522857Y-115238095D01*
X126237142Y-115142857D02*
X126237142Y-115476190D01*
X126118095Y-114952380D02*
X125999047Y-115309523D01*
X126308571Y-115309523D01*
X126594285Y-114976190D02*
X126641904Y-114976190D01*
X126689523Y-115000000D01*
X126713333Y-115023809D01*
X126737142Y-115071428D01*
X126760952Y-115166666D01*
X126760952Y-115285714D01*
X126737142Y-115380952D01*
X126713333Y-115428571D01*
X126689523Y-115452380D01*
X126641904Y-115476190D01*
X126594285Y-115476190D01*
X126546666Y-115452380D01*
X126522857Y-115428571D01*
X126499047Y-115380952D01*
X126475238Y-115285714D01*
X126475238Y-115166666D01*
X126499047Y-115071428D01*
X126522857Y-115023809D01*
X126546666Y-115000000D01*
X126594285Y-114976190D01*
D10*
X89654142Y-109545380D02*
X89320809Y-109069190D01*
X89082714Y-109545380D02*
X89082714Y-108545380D01*
X89463666Y-108545380D01*
X89558904Y-108593000D01*
X89606523Y-108640619D01*
X89654142Y-108735857D01*
X89654142Y-108878714D01*
X89606523Y-108973952D01*
X89558904Y-109021571D01*
X89463666Y-109069190D01*
X89082714Y-109069190D01*
X90558904Y-108545380D02*
X90082714Y-108545380D01*
X90035095Y-109021571D01*
X90082714Y-108973952D01*
X90177952Y-108926333D01*
X90416047Y-108926333D01*
X90511285Y-108973952D01*
X90558904Y-109021571D01*
X90606523Y-109116809D01*
X90606523Y-109354904D01*
X90558904Y-109450142D01*
X90511285Y-109497761D01*
X90416047Y-109545380D01*
X90177952Y-109545380D01*
X90082714Y-109497761D01*
X90035095Y-109450142D01*
X91463666Y-108545380D02*
X91273190Y-108545380D01*
X91177952Y-108593000D01*
X91130333Y-108640619D01*
X91035095Y-108783476D01*
X90987476Y-108973952D01*
X90987476Y-109354904D01*
X91035095Y-109450142D01*
X91082714Y-109497761D01*
X91177952Y-109545380D01*
X91368428Y-109545380D01*
X91463666Y-109497761D01*
X91511285Y-109450142D01*
X91558904Y-109354904D01*
X91558904Y-109116809D01*
X91511285Y-109021571D01*
X91463666Y-108973952D01*
X91368428Y-108926333D01*
X91177952Y-108926333D01*
X91082714Y-108973952D01*
X91035095Y-109021571D01*
X90987476Y-109116809D01*
X121772442Y-102966780D02*
X121439109Y-102490590D01*
X121201014Y-102966780D02*
X121201014Y-101966780D01*
X121581966Y-101966780D01*
X121677204Y-102014400D01*
X121724823Y-102062019D01*
X121772442Y-102157257D01*
X121772442Y-102300114D01*
X121724823Y-102395352D01*
X121677204Y-102442971D01*
X121581966Y-102490590D01*
X121201014Y-102490590D01*
X122677204Y-101966780D02*
X122201014Y-101966780D01*
X122153395Y-102442971D01*
X122201014Y-102395352D01*
X122296252Y-102347733D01*
X122534347Y-102347733D01*
X122629585Y-102395352D01*
X122677204Y-102442971D01*
X122724823Y-102538209D01*
X122724823Y-102776304D01*
X122677204Y-102871542D01*
X122629585Y-102919161D01*
X122534347Y-102966780D01*
X122296252Y-102966780D01*
X122201014Y-102919161D01*
X122153395Y-102871542D01*
X123201014Y-102966780D02*
X123391490Y-102966780D01*
X123486728Y-102919161D01*
X123534347Y-102871542D01*
X123629585Y-102728685D01*
X123677204Y-102538209D01*
X123677204Y-102157257D01*
X123629585Y-102062019D01*
X123581966Y-102014400D01*
X123486728Y-101966780D01*
X123296252Y-101966780D01*
X123201014Y-102014400D01*
X123153395Y-102062019D01*
X123105776Y-102157257D01*
X123105776Y-102395352D01*
X123153395Y-102490590D01*
X123201014Y-102538209D01*
X123296252Y-102585828D01*
X123486728Y-102585828D01*
X123581966Y-102538209D01*
X123629585Y-102490590D01*
X123677204Y-102395352D01*
X121772442Y-104325680D02*
X121439109Y-103849490D01*
X121201014Y-104325680D02*
X121201014Y-103325680D01*
X121581966Y-103325680D01*
X121677204Y-103373300D01*
X121724823Y-103420919D01*
X121772442Y-103516157D01*
X121772442Y-103659014D01*
X121724823Y-103754252D01*
X121677204Y-103801871D01*
X121581966Y-103849490D01*
X121201014Y-103849490D01*
X122629585Y-103325680D02*
X122439109Y-103325680D01*
X122343871Y-103373300D01*
X122296252Y-103420919D01*
X122201014Y-103563776D01*
X122153395Y-103754252D01*
X122153395Y-104135204D01*
X122201014Y-104230442D01*
X122248633Y-104278061D01*
X122343871Y-104325680D01*
X122534347Y-104325680D01*
X122629585Y-104278061D01*
X122677204Y-104230442D01*
X122724823Y-104135204D01*
X122724823Y-103897109D01*
X122677204Y-103801871D01*
X122629585Y-103754252D01*
X122534347Y-103706633D01*
X122343871Y-103706633D01*
X122248633Y-103754252D01*
X122201014Y-103801871D01*
X122153395Y-103897109D01*
X123677204Y-104325680D02*
X123105776Y-104325680D01*
X123391490Y-104325680D02*
X123391490Y-103325680D01*
X123296252Y-103468538D01*
X123201014Y-103563776D01*
X123105776Y-103611395D01*
X100177695Y-85324700D02*
X100177695Y-86134224D01*
X100225314Y-86229462D01*
X100272933Y-86277081D01*
X100368171Y-86324700D01*
X100558647Y-86324700D01*
X100653885Y-86277081D01*
X100701504Y-86229462D01*
X100749123Y-86134224D01*
X100749123Y-85324700D01*
X101701504Y-85324700D02*
X101225314Y-85324700D01*
X101177695Y-85800891D01*
X101225314Y-85753272D01*
X101320552Y-85705653D01*
X101558647Y-85705653D01*
X101653885Y-85753272D01*
X101701504Y-85800891D01*
X101749123Y-85896129D01*
X101749123Y-86134224D01*
X101701504Y-86229462D01*
X101653885Y-86277081D01*
X101558647Y-86324700D01*
X101320552Y-86324700D01*
X101225314Y-86277081D01*
X101177695Y-86229462D01*
X120388095Y-111802380D02*
X120388095Y-112611904D01*
X120435714Y-112707142D01*
X120483333Y-112754761D01*
X120578571Y-112802380D01*
X120769047Y-112802380D01*
X120864285Y-112754761D01*
X120911904Y-112707142D01*
X120959523Y-112611904D01*
X120959523Y-111802380D01*
X121483333Y-112802380D02*
X121673809Y-112802380D01*
X121769047Y-112754761D01*
X121816666Y-112707142D01*
X121911904Y-112564285D01*
X121959523Y-112373809D01*
X121959523Y-111992857D01*
X121911904Y-111897619D01*
X121864285Y-111850000D01*
X121769047Y-111802380D01*
X121578571Y-111802380D01*
X121483333Y-111850000D01*
X121435714Y-111897619D01*
X121388095Y-111992857D01*
X121388095Y-112230952D01*
X121435714Y-112326190D01*
X121483333Y-112373809D01*
X121578571Y-112421428D01*
X121769047Y-112421428D01*
X121864285Y-112373809D01*
X121911904Y-112326190D01*
X121959523Y-112230952D01*
X92059166Y-70775580D02*
X92059166Y-71489866D01*
X92011547Y-71632723D01*
X91916309Y-71727961D01*
X91773452Y-71775580D01*
X91678214Y-71775580D01*
X92440119Y-70775580D02*
X93106785Y-70775580D01*
X92678214Y-71775580D01*
X129208280Y-99221823D02*
X129922566Y-99221823D01*
X130065423Y-99269442D01*
X130160661Y-99364680D01*
X130208280Y-99507538D01*
X130208280Y-99602776D01*
X129303519Y-98793252D02*
X129255900Y-98745633D01*
X129208280Y-98650395D01*
X129208280Y-98412300D01*
X129255900Y-98317061D01*
X129303519Y-98269442D01*
X129398757Y-98221823D01*
X129493995Y-98221823D01*
X129636852Y-98269442D01*
X130208280Y-98840871D01*
X130208280Y-98221823D01*
X129303519Y-97840871D02*
X129255900Y-97793252D01*
X129208280Y-97698014D01*
X129208280Y-97459919D01*
X129255900Y-97364680D01*
X129303519Y-97317061D01*
X129398757Y-97269442D01*
X129493995Y-97269442D01*
X129636852Y-97317061D01*
X130208280Y-97888490D01*
X130208280Y-97269442D01*
X129309880Y-111375723D02*
X130024166Y-111375723D01*
X130167023Y-111423342D01*
X130262261Y-111518580D01*
X130309880Y-111661438D01*
X130309880Y-111756676D01*
X129405119Y-110947152D02*
X129357500Y-110899533D01*
X129309880Y-110804295D01*
X129309880Y-110566200D01*
X129357500Y-110470961D01*
X129405119Y-110423342D01*
X129500357Y-110375723D01*
X129595595Y-110375723D01*
X129738452Y-110423342D01*
X130309880Y-110994771D01*
X130309880Y-110375723D01*
X129309880Y-110042390D02*
X129309880Y-109423342D01*
X129690833Y-109756676D01*
X129690833Y-109613819D01*
X129738452Y-109518580D01*
X129786071Y-109470961D01*
X129881309Y-109423342D01*
X130119404Y-109423342D01*
X130214642Y-109470961D01*
X130262261Y-109518580D01*
X130309880Y-109613819D01*
X130309880Y-109899533D01*
X130262261Y-109994771D01*
X130214642Y-110042390D01*
X89614761Y-115717619D02*
X89519523Y-115670000D01*
X89424285Y-115574761D01*
X89281428Y-115431904D01*
X89186190Y-115384285D01*
X89090952Y-115384285D01*
X89138571Y-115622380D02*
X89043333Y-115574761D01*
X88948095Y-115479523D01*
X88900476Y-115289047D01*
X88900476Y-114955714D01*
X88948095Y-114765238D01*
X89043333Y-114670000D01*
X89138571Y-114622380D01*
X89329047Y-114622380D01*
X89424285Y-114670000D01*
X89519523Y-114765238D01*
X89567142Y-114955714D01*
X89567142Y-115289047D01*
X89519523Y-115479523D01*
X89424285Y-115574761D01*
X89329047Y-115622380D01*
X89138571Y-115622380D01*
X89900476Y-114622380D02*
X90519523Y-114622380D01*
X90186190Y-115003333D01*
X90329047Y-115003333D01*
X90424285Y-115050952D01*
X90471904Y-115098571D01*
X90519523Y-115193809D01*
X90519523Y-115431904D01*
X90471904Y-115527142D01*
X90424285Y-115574761D01*
X90329047Y-115622380D01*
X90043333Y-115622380D01*
X89948095Y-115574761D01*
X89900476Y-115527142D01*
X98528095Y-105762380D02*
X98528095Y-106571904D01*
X98575714Y-106667142D01*
X98623333Y-106714761D01*
X98718571Y-106762380D01*
X98909047Y-106762380D01*
X99004285Y-106714761D01*
X99051904Y-106667142D01*
X99099523Y-106571904D01*
X99099523Y-105762380D01*
X99480476Y-105762380D02*
X100099523Y-105762380D01*
X99766190Y-106143333D01*
X99909047Y-106143333D01*
X100004285Y-106190952D01*
X100051904Y-106238571D01*
X100099523Y-106333809D01*
X100099523Y-106571904D01*
X100051904Y-106667142D01*
X100004285Y-106714761D01*
X99909047Y-106762380D01*
X99623333Y-106762380D01*
X99528095Y-106714761D01*
X99480476Y-106667142D01*
X98520261Y-116498619D02*
X98425023Y-116451000D01*
X98329785Y-116355761D01*
X98186928Y-116212904D01*
X98091690Y-116165285D01*
X97996452Y-116165285D01*
X98044071Y-116403380D02*
X97948833Y-116355761D01*
X97853595Y-116260523D01*
X97805976Y-116070047D01*
X97805976Y-115736714D01*
X97853595Y-115546238D01*
X97948833Y-115451000D01*
X98044071Y-115403380D01*
X98234547Y-115403380D01*
X98329785Y-115451000D01*
X98425023Y-115546238D01*
X98472642Y-115736714D01*
X98472642Y-116070047D01*
X98425023Y-116260523D01*
X98329785Y-116355761D01*
X98234547Y-116403380D01*
X98044071Y-116403380D01*
X99377404Y-115403380D02*
X98901214Y-115403380D01*
X98853595Y-115879571D01*
X98901214Y-115831952D01*
X98996452Y-115784333D01*
X99234547Y-115784333D01*
X99329785Y-115831952D01*
X99377404Y-115879571D01*
X99425023Y-115974809D01*
X99425023Y-116212904D01*
X99377404Y-116308142D01*
X99329785Y-116355761D01*
X99234547Y-116403380D01*
X98996452Y-116403380D01*
X98901214Y-116355761D01*
X98853595Y-116308142D01*
X92527380Y-115412757D02*
X92051190Y-115746090D01*
X92527380Y-115984185D02*
X91527380Y-115984185D01*
X91527380Y-115603233D01*
X91575000Y-115507995D01*
X91622619Y-115460376D01*
X91717857Y-115412757D01*
X91860714Y-115412757D01*
X91955952Y-115460376D01*
X92003571Y-115507995D01*
X92051190Y-115603233D01*
X92051190Y-115984185D01*
X92527380Y-114460376D02*
X92527380Y-115031804D01*
X92527380Y-114746090D02*
X91527380Y-114746090D01*
X91670238Y-114841328D01*
X91765476Y-114936566D01*
X91813095Y-115031804D01*
X91622619Y-114079423D02*
X91575000Y-114031804D01*
X91527380Y-113936566D01*
X91527380Y-113698471D01*
X91575000Y-113603233D01*
X91622619Y-113555614D01*
X91717857Y-113507995D01*
X91813095Y-113507995D01*
X91955952Y-113555614D01*
X92527380Y-114127042D01*
X92527380Y-113507995D01*
X92829142Y-119781580D02*
X92495809Y-119305390D01*
X92257714Y-119781580D02*
X92257714Y-118781580D01*
X92638666Y-118781580D01*
X92733904Y-118829200D01*
X92781523Y-118876819D01*
X92829142Y-118972057D01*
X92829142Y-119114914D01*
X92781523Y-119210152D01*
X92733904Y-119257771D01*
X92638666Y-119305390D01*
X92257714Y-119305390D01*
X93686285Y-118781580D02*
X93495809Y-118781580D01*
X93400571Y-118829200D01*
X93352952Y-118876819D01*
X93257714Y-119019676D01*
X93210095Y-119210152D01*
X93210095Y-119591104D01*
X93257714Y-119686342D01*
X93305333Y-119733961D01*
X93400571Y-119781580D01*
X93591047Y-119781580D01*
X93686285Y-119733961D01*
X93733904Y-119686342D01*
X93781523Y-119591104D01*
X93781523Y-119353009D01*
X93733904Y-119257771D01*
X93686285Y-119210152D01*
X93591047Y-119162533D01*
X93400571Y-119162533D01*
X93305333Y-119210152D01*
X93257714Y-119257771D01*
X93210095Y-119353009D01*
X94257714Y-119781580D02*
X94448190Y-119781580D01*
X94543428Y-119733961D01*
X94591047Y-119686342D01*
X94686285Y-119543485D01*
X94733904Y-119353009D01*
X94733904Y-118972057D01*
X94686285Y-118876819D01*
X94638666Y-118829200D01*
X94543428Y-118781580D01*
X94352952Y-118781580D01*
X94257714Y-118829200D01*
X94210095Y-118876819D01*
X94162476Y-118972057D01*
X94162476Y-119210152D01*
X94210095Y-119305390D01*
X94257714Y-119353009D01*
X94352952Y-119400628D01*
X94543428Y-119400628D01*
X94638666Y-119353009D01*
X94686285Y-119305390D01*
X94733904Y-119210152D01*
D13*
X95284171Y-100619690D02*
X95117504Y-100381595D01*
X94998457Y-100619690D02*
X94998457Y-100119690D01*
X95188933Y-100119690D01*
X95236552Y-100143500D01*
X95260361Y-100167309D01*
X95284171Y-100214928D01*
X95284171Y-100286357D01*
X95260361Y-100333976D01*
X95236552Y-100357785D01*
X95188933Y-100381595D01*
X94998457Y-100381595D01*
X95736552Y-100119690D02*
X95498457Y-100119690D01*
X95474647Y-100357785D01*
X95498457Y-100333976D01*
X95546076Y-100310166D01*
X95665123Y-100310166D01*
X95712742Y-100333976D01*
X95736552Y-100357785D01*
X95760361Y-100405404D01*
X95760361Y-100524452D01*
X95736552Y-100572071D01*
X95712742Y-100595880D01*
X95665123Y-100619690D01*
X95546076Y-100619690D01*
X95498457Y-100595880D01*
X95474647Y-100572071D01*
X96236552Y-100619690D02*
X95950838Y-100619690D01*
X96093695Y-100619690D02*
X96093695Y-100119690D01*
X96046076Y-100191119D01*
X95998457Y-100238738D01*
X95950838Y-100262547D01*
D10*
X107572380Y-114267857D02*
X107096190Y-114601190D01*
X107572380Y-114839285D02*
X106572380Y-114839285D01*
X106572380Y-114458333D01*
X106620000Y-114363095D01*
X106667619Y-114315476D01*
X106762857Y-114267857D01*
X106905714Y-114267857D01*
X107000952Y-114315476D01*
X107048571Y-114363095D01*
X107096190Y-114458333D01*
X107096190Y-114839285D01*
X106572380Y-113934523D02*
X106572380Y-113315476D01*
X106953333Y-113648809D01*
X106953333Y-113505952D01*
X107000952Y-113410714D01*
X107048571Y-113363095D01*
X107143809Y-113315476D01*
X107381904Y-113315476D01*
X107477142Y-113363095D01*
X107524761Y-113410714D01*
X107572380Y-113505952D01*
X107572380Y-113791666D01*
X107524761Y-113886904D01*
X107477142Y-113934523D01*
X106572380Y-112982142D02*
X106572380Y-112315476D01*
X107572380Y-112744047D01*
X83354942Y-71642242D02*
X83307323Y-71689861D01*
X83164466Y-71737480D01*
X83069228Y-71737480D01*
X82926371Y-71689861D01*
X82831133Y-71594623D01*
X82783514Y-71499385D01*
X82735895Y-71308909D01*
X82735895Y-71166052D01*
X82783514Y-70975576D01*
X82831133Y-70880338D01*
X82926371Y-70785100D01*
X83069228Y-70737480D01*
X83164466Y-70737480D01*
X83307323Y-70785100D01*
X83354942Y-70832719D01*
X84307323Y-71737480D02*
X83735895Y-71737480D01*
X84021609Y-71737480D02*
X84021609Y-70737480D01*
X83926371Y-70880338D01*
X83831133Y-70975576D01*
X83735895Y-71023195D01*
X84783514Y-71737480D02*
X84973990Y-71737480D01*
X85069228Y-71689861D01*
X85116847Y-71642242D01*
X85212085Y-71499385D01*
X85259704Y-71308909D01*
X85259704Y-70927957D01*
X85212085Y-70832719D01*
X85164466Y-70785100D01*
X85069228Y-70737480D01*
X84878752Y-70737480D01*
X84783514Y-70785100D01*
X84735895Y-70832719D01*
X84688276Y-70927957D01*
X84688276Y-71166052D01*
X84735895Y-71261290D01*
X84783514Y-71308909D01*
X84878752Y-71356528D01*
X85069228Y-71356528D01*
X85164466Y-71308909D01*
X85212085Y-71261290D01*
X85259704Y-71166052D01*
X89120742Y-71616842D02*
X89073123Y-71664461D01*
X88930266Y-71712080D01*
X88835028Y-71712080D01*
X88692171Y-71664461D01*
X88596933Y-71569223D01*
X88549314Y-71473985D01*
X88501695Y-71283509D01*
X88501695Y-71140652D01*
X88549314Y-70950176D01*
X88596933Y-70854938D01*
X88692171Y-70759700D01*
X88835028Y-70712080D01*
X88930266Y-70712080D01*
X89073123Y-70759700D01*
X89120742Y-70807319D01*
X89501695Y-70807319D02*
X89549314Y-70759700D01*
X89644552Y-70712080D01*
X89882647Y-70712080D01*
X89977885Y-70759700D01*
X90025504Y-70807319D01*
X90073123Y-70902557D01*
X90073123Y-70997795D01*
X90025504Y-71140652D01*
X89454076Y-71712080D01*
X90073123Y-71712080D01*
X90454076Y-70807319D02*
X90501695Y-70759700D01*
X90596933Y-70712080D01*
X90835028Y-70712080D01*
X90930266Y-70759700D01*
X90977885Y-70807319D01*
X91025504Y-70902557D01*
X91025504Y-70997795D01*
X90977885Y-71140652D01*
X90406457Y-71712080D01*
X91025504Y-71712080D01*
X86093395Y-70724780D02*
X86093395Y-71534304D01*
X86141014Y-71629542D01*
X86188633Y-71677161D01*
X86283871Y-71724780D01*
X86474347Y-71724780D01*
X86569585Y-71677161D01*
X86617204Y-71629542D01*
X86664823Y-71534304D01*
X86664823Y-70724780D01*
X87045776Y-70724780D02*
X87712442Y-70724780D01*
X87283871Y-71724780D01*
X110207142Y-113507142D02*
X110159523Y-113554761D01*
X110016666Y-113602380D01*
X109921428Y-113602380D01*
X109778571Y-113554761D01*
X109683333Y-113459523D01*
X109635714Y-113364285D01*
X109588095Y-113173809D01*
X109588095Y-113030952D01*
X109635714Y-112840476D01*
X109683333Y-112745238D01*
X109778571Y-112650000D01*
X109921428Y-112602380D01*
X110016666Y-112602380D01*
X110159523Y-112650000D01*
X110207142Y-112697619D01*
X110588095Y-112697619D02*
X110635714Y-112650000D01*
X110730952Y-112602380D01*
X110969047Y-112602380D01*
X111064285Y-112650000D01*
X111111904Y-112697619D01*
X111159523Y-112792857D01*
X111159523Y-112888095D01*
X111111904Y-113030952D01*
X110540476Y-113602380D01*
X111159523Y-113602380D01*
X111635714Y-113602380D02*
X111826190Y-113602380D01*
X111921428Y-113554761D01*
X111969047Y-113507142D01*
X112064285Y-113364285D01*
X112111904Y-113173809D01*
X112111904Y-112792857D01*
X112064285Y-112697619D01*
X112016666Y-112650000D01*
X111921428Y-112602380D01*
X111730952Y-112602380D01*
X111635714Y-112650000D01*
X111588095Y-112697619D01*
X111540476Y-112792857D01*
X111540476Y-113030952D01*
X111588095Y-113126190D01*
X111635714Y-113173809D01*
X111730952Y-113221428D01*
X111921428Y-113221428D01*
X112016666Y-113173809D01*
X112064285Y-113126190D01*
X112111904Y-113030952D01*
M02*
