G04 #@! TF.GenerationSoftware,KiCad,Pcbnew,(5.1.6)-1*
G04 #@! TF.CreationDate,2021-04-23T11:59:38+02:00*
G04 #@! TF.ProjectId,rysboard,72797362-6f61-4726-942e-6b696361645f,4.2*
G04 #@! TF.SameCoordinates,Original*
G04 #@! TF.FileFunction,Copper,L4,Bot*
G04 #@! TF.FilePolarity,Positive*
%FSLAX46Y46*%
G04 Gerber Fmt 4.6, Leading zero omitted, Abs format (unit mm)*
G04 Created by KiCad (PCBNEW (5.1.6)-1) date 2021-04-23 11:59:38*
%MOMM*%
%LPD*%
G01*
G04 APERTURE LIST*
G04 #@! TA.AperFunction,ComponentPad*
%ADD10O,1.500000X2.020000*%
G04 #@! TD*
G04 #@! TA.AperFunction,ComponentPad*
%ADD11C,5.400000*%
G04 #@! TD*
G04 #@! TA.AperFunction,Conductor*
%ADD12R,3.400000X9.500000*%
G04 #@! TD*
G04 #@! TA.AperFunction,ViaPad*
%ADD13C,0.600000*%
G04 #@! TD*
G04 #@! TA.AperFunction,ComponentPad*
%ADD14O,0.800000X1.300000*%
G04 #@! TD*
G04 #@! TA.AperFunction,ComponentPad*
%ADD15O,1.700000X1.700000*%
G04 #@! TD*
G04 #@! TA.AperFunction,ComponentPad*
%ADD16R,1.700000X1.700000*%
G04 #@! TD*
G04 #@! TA.AperFunction,ComponentPad*
%ADD17C,1.500000*%
G04 #@! TD*
G04 #@! TA.AperFunction,SMDPad,CuDef*
%ADD18R,1.050000X0.700000*%
G04 #@! TD*
G04 #@! TA.AperFunction,SMDPad,CuDef*
%ADD19R,0.520000X0.700000*%
G04 #@! TD*
G04 #@! TA.AperFunction,SMDPad,CuDef*
%ADD20R,1.200000X0.900000*%
G04 #@! TD*
G04 #@! TA.AperFunction,SMDPad,CuDef*
%ADD21R,1.650000X3.810000*%
G04 #@! TD*
G04 #@! TA.AperFunction,SMDPad,CuDef*
%ADD22R,0.610000X1.020000*%
G04 #@! TD*
G04 #@! TA.AperFunction,SMDPad,CuDef*
%ADD23R,0.610000X1.270000*%
G04 #@! TD*
G04 #@! TA.AperFunction,SMDPad,CuDef*
%ADD24R,3.450000X3.450000*%
G04 #@! TD*
G04 #@! TA.AperFunction,SMDPad,CuDef*
%ADD25R,1.060000X0.650000*%
G04 #@! TD*
G04 #@! TA.AperFunction,SMDPad,CuDef*
%ADD26R,0.600000X1.000000*%
G04 #@! TD*
G04 #@! TA.AperFunction,SMDPad,CuDef*
%ADD27R,0.350000X0.500000*%
G04 #@! TD*
G04 #@! TA.AperFunction,ComponentPad*
%ADD28O,0.850000X0.850000*%
G04 #@! TD*
G04 #@! TA.AperFunction,ComponentPad*
%ADD29R,0.850000X0.850000*%
G04 #@! TD*
G04 #@! TA.AperFunction,SMDPad,CuDef*
%ADD30R,0.200000X0.200000*%
G04 #@! TD*
G04 #@! TA.AperFunction,SMDPad,CuDef*
%ADD31R,0.800000X0.900000*%
G04 #@! TD*
G04 #@! TA.AperFunction,ViaPad*
%ADD32C,0.402000*%
G04 #@! TD*
G04 #@! TA.AperFunction,ViaPad*
%ADD33C,0.500000*%
G04 #@! TD*
G04 #@! TA.AperFunction,ViaPad*
%ADD34C,0.750000*%
G04 #@! TD*
G04 #@! TA.AperFunction,Conductor*
%ADD35C,2.500000*%
G04 #@! TD*
G04 #@! TA.AperFunction,Conductor*
%ADD36C,0.750000*%
G04 #@! TD*
G04 #@! TA.AperFunction,Conductor*
%ADD37C,0.400000*%
G04 #@! TD*
G04 #@! TA.AperFunction,Conductor*
%ADD38C,1.250000*%
G04 #@! TD*
G04 #@! TA.AperFunction,Conductor*
%ADD39C,1.750000*%
G04 #@! TD*
G04 #@! TA.AperFunction,Conductor*
%ADD40C,0.250000*%
G04 #@! TD*
G04 #@! TA.AperFunction,Conductor*
%ADD41C,0.200000*%
G04 #@! TD*
G04 APERTURE END LIST*
G04 #@! TA.AperFunction,SMDPad,CuDef*
G36*
G01*
X96009750Y-121000000D02*
X96522250Y-121000000D01*
G75*
G02*
X96741000Y-121218750I0J-218750D01*
G01*
X96741000Y-121656250D01*
G75*
G02*
X96522250Y-121875000I-218750J0D01*
G01*
X96009750Y-121875000D01*
G75*
G02*
X95791000Y-121656250I0J218750D01*
G01*
X95791000Y-121218750D01*
G75*
G02*
X96009750Y-121000000I218750J0D01*
G01*
G37*
G04 #@! TD.AperFunction*
G04 #@! TA.AperFunction,SMDPad,CuDef*
G36*
G01*
X96009750Y-119425000D02*
X96522250Y-119425000D01*
G75*
G02*
X96741000Y-119643750I0J-218750D01*
G01*
X96741000Y-120081250D01*
G75*
G02*
X96522250Y-120300000I-218750J0D01*
G01*
X96009750Y-120300000D01*
G75*
G02*
X95791000Y-120081250I0J218750D01*
G01*
X95791000Y-119643750D01*
G75*
G02*
X96009750Y-119425000I218750J0D01*
G01*
G37*
G04 #@! TD.AperFunction*
G04 #@! TA.AperFunction,SMDPad,CuDef*
G36*
G01*
X88162500Y-121100000D02*
X88637500Y-121100000D01*
G75*
G02*
X88875000Y-121337500I0J-237500D01*
G01*
X88875000Y-121912500D01*
G75*
G02*
X88637500Y-122150000I-237500J0D01*
G01*
X88162500Y-122150000D01*
G75*
G02*
X87925000Y-121912500I0J237500D01*
G01*
X87925000Y-121337500D01*
G75*
G02*
X88162500Y-121100000I237500J0D01*
G01*
G37*
G04 #@! TD.AperFunction*
G04 #@! TA.AperFunction,SMDPad,CuDef*
G36*
G01*
X88162500Y-119350000D02*
X88637500Y-119350000D01*
G75*
G02*
X88875000Y-119587500I0J-237500D01*
G01*
X88875000Y-120162500D01*
G75*
G02*
X88637500Y-120400000I-237500J0D01*
G01*
X88162500Y-120400000D01*
G75*
G02*
X87925000Y-120162500I0J237500D01*
G01*
X87925000Y-119587500D01*
G75*
G02*
X88162500Y-119350000I237500J0D01*
G01*
G37*
G04 #@! TD.AperFunction*
D10*
X115400000Y-94025000D03*
X118400000Y-94025000D03*
X121400000Y-94025000D03*
G04 #@! TA.AperFunction,ComponentPad*
G36*
G01*
X125150000Y-93265000D02*
X125150000Y-94785000D01*
G75*
G02*
X124900000Y-95035000I-250000J0D01*
G01*
X123900000Y-95035000D01*
G75*
G02*
X123650000Y-94785000I0J250000D01*
G01*
X123650000Y-93265000D01*
G75*
G02*
X123900000Y-93015000I250000J0D01*
G01*
X124900000Y-93015000D01*
G75*
G02*
X125150000Y-93265000I0J-250000D01*
G01*
G37*
G04 #@! TD.AperFunction*
D11*
X127800000Y-127150000D03*
X78800000Y-69150000D03*
X78800000Y-127150000D03*
D10*
X115400000Y-78640000D03*
X118400000Y-78640000D03*
X121400000Y-78640000D03*
G04 #@! TA.AperFunction,ComponentPad*
G36*
G01*
X125150000Y-77880000D02*
X125150000Y-79400000D01*
G75*
G02*
X124900000Y-79650000I-250000J0D01*
G01*
X123900000Y-79650000D01*
G75*
G02*
X123650000Y-79400000I0J250000D01*
G01*
X123650000Y-77880000D01*
G75*
G02*
X123900000Y-77630000I250000J0D01*
G01*
X124900000Y-77630000D01*
G75*
G02*
X125150000Y-77880000I0J-250000D01*
G01*
G37*
G04 #@! TD.AperFunction*
D12*
X100950000Y-76500000D03*
D13*
X102250000Y-72050000D03*
X100950000Y-72050000D03*
X99650000Y-72050000D03*
X102250000Y-73830000D03*
X100950000Y-73830000D03*
X99650000Y-73830000D03*
X102250000Y-75610000D03*
X100950000Y-75610000D03*
X99650000Y-75610000D03*
X102250000Y-77390000D03*
X100950000Y-77390000D03*
X99650000Y-77390000D03*
X102250000Y-79170000D03*
X100950000Y-79170000D03*
X99650000Y-79170000D03*
X99650000Y-80950000D03*
X100950000Y-80950000D03*
X102250000Y-80950000D03*
D12*
X100950000Y-95375000D03*
D13*
X102250000Y-90925000D03*
X100950000Y-90925000D03*
X99650000Y-90925000D03*
X102250000Y-92705000D03*
X100950000Y-92705000D03*
X99650000Y-92705000D03*
X102250000Y-94485000D03*
X100950000Y-94485000D03*
X99650000Y-94485000D03*
X102250000Y-96265000D03*
X100950000Y-96265000D03*
X99650000Y-96265000D03*
X102250000Y-98045000D03*
X100950000Y-98045000D03*
X99650000Y-98045000D03*
X99650000Y-99825000D03*
X100950000Y-99825000D03*
X102250000Y-99825000D03*
D14*
X89492000Y-104990000D03*
X88242000Y-104990000D03*
X86992000Y-104990000D03*
X85742000Y-104990000D03*
G04 #@! TA.AperFunction,ComponentPad*
G36*
G01*
X84092000Y-105440000D02*
X84092000Y-104540000D01*
G75*
G02*
X84292000Y-104340000I200000J0D01*
G01*
X84692000Y-104340000D01*
G75*
G02*
X84892000Y-104540000I0J-200000D01*
G01*
X84892000Y-105440000D01*
G75*
G02*
X84692000Y-105640000I-200000J0D01*
G01*
X84292000Y-105640000D01*
G75*
G02*
X84092000Y-105440000I0J200000D01*
G01*
G37*
G04 #@! TD.AperFunction*
X89492000Y-79082000D03*
X88242000Y-79082000D03*
X86992000Y-79082000D03*
X85742000Y-79082000D03*
G04 #@! TA.AperFunction,ComponentPad*
G36*
G01*
X84092000Y-79532000D02*
X84092000Y-78632000D01*
G75*
G02*
X84292000Y-78432000I200000J0D01*
G01*
X84692000Y-78432000D01*
G75*
G02*
X84892000Y-78632000I0J-200000D01*
G01*
X84892000Y-79532000D01*
G75*
G02*
X84692000Y-79732000I-200000J0D01*
G01*
X84292000Y-79732000D01*
G75*
G02*
X84092000Y-79532000I0J200000D01*
G01*
G37*
G04 #@! TD.AperFunction*
X89492000Y-83400000D03*
X88242000Y-83400000D03*
X86992000Y-83400000D03*
X85742000Y-83400000D03*
G04 #@! TA.AperFunction,ComponentPad*
G36*
G01*
X84092000Y-83850000D02*
X84092000Y-82950000D01*
G75*
G02*
X84292000Y-82750000I200000J0D01*
G01*
X84692000Y-82750000D01*
G75*
G02*
X84892000Y-82950000I0J-200000D01*
G01*
X84892000Y-83850000D01*
G75*
G02*
X84692000Y-84050000I-200000J0D01*
G01*
X84292000Y-84050000D01*
G75*
G02*
X84092000Y-83850000I0J200000D01*
G01*
G37*
G04 #@! TD.AperFunction*
X89492000Y-87718000D03*
X88242000Y-87718000D03*
X86992000Y-87718000D03*
X85742000Y-87718000D03*
G04 #@! TA.AperFunction,ComponentPad*
G36*
G01*
X84092000Y-88168000D02*
X84092000Y-87268000D01*
G75*
G02*
X84292000Y-87068000I200000J0D01*
G01*
X84692000Y-87068000D01*
G75*
G02*
X84892000Y-87268000I0J-200000D01*
G01*
X84892000Y-88168000D01*
G75*
G02*
X84692000Y-88368000I-200000J0D01*
G01*
X84292000Y-88368000D01*
G75*
G02*
X84092000Y-88168000I0J200000D01*
G01*
G37*
G04 #@! TD.AperFunction*
X89492000Y-92036000D03*
X88242000Y-92036000D03*
X86992000Y-92036000D03*
X85742000Y-92036000D03*
G04 #@! TA.AperFunction,ComponentPad*
G36*
G01*
X84092000Y-92486000D02*
X84092000Y-91586000D01*
G75*
G02*
X84292000Y-91386000I200000J0D01*
G01*
X84692000Y-91386000D01*
G75*
G02*
X84892000Y-91586000I0J-200000D01*
G01*
X84892000Y-92486000D01*
G75*
G02*
X84692000Y-92686000I-200000J0D01*
G01*
X84292000Y-92686000D01*
G75*
G02*
X84092000Y-92486000I0J200000D01*
G01*
G37*
G04 #@! TD.AperFunction*
X89492000Y-96354000D03*
X88242000Y-96354000D03*
X86992000Y-96354000D03*
X85742000Y-96354000D03*
G04 #@! TA.AperFunction,ComponentPad*
G36*
G01*
X84092000Y-96804000D02*
X84092000Y-95904000D01*
G75*
G02*
X84292000Y-95704000I200000J0D01*
G01*
X84692000Y-95704000D01*
G75*
G02*
X84892000Y-95904000I0J-200000D01*
G01*
X84892000Y-96804000D01*
G75*
G02*
X84692000Y-97004000I-200000J0D01*
G01*
X84292000Y-97004000D01*
G75*
G02*
X84092000Y-96804000I0J200000D01*
G01*
G37*
G04 #@! TD.AperFunction*
X89492000Y-100672000D03*
X88242000Y-100672000D03*
X86992000Y-100672000D03*
X85742000Y-100672000D03*
G04 #@! TA.AperFunction,ComponentPad*
G36*
G01*
X84092000Y-101122000D02*
X84092000Y-100222000D01*
G75*
G02*
X84292000Y-100022000I200000J0D01*
G01*
X84692000Y-100022000D01*
G75*
G02*
X84892000Y-100222000I0J-200000D01*
G01*
X84892000Y-101122000D01*
G75*
G02*
X84692000Y-101322000I-200000J0D01*
G01*
X84292000Y-101322000D01*
G75*
G02*
X84092000Y-101122000I0J200000D01*
G01*
G37*
G04 #@! TD.AperFunction*
D15*
X77524500Y-74011100D03*
X80064500Y-74011100D03*
X77524500Y-76551100D03*
X80064500Y-76551100D03*
X77524500Y-79091100D03*
X80064500Y-79091100D03*
X77524500Y-81631100D03*
X80064500Y-81631100D03*
X77524500Y-84171100D03*
X80064500Y-84171100D03*
X77524500Y-86711100D03*
X80064500Y-86711100D03*
X77524500Y-89251100D03*
X80064500Y-89251100D03*
X77524500Y-91791100D03*
X80064500Y-91791100D03*
X77524500Y-94331100D03*
X80064500Y-94331100D03*
X77524500Y-96871100D03*
X80064500Y-96871100D03*
X77524500Y-99411100D03*
X80064500Y-99411100D03*
X77524500Y-101951100D03*
X80064500Y-101951100D03*
X77524500Y-104491100D03*
X80064500Y-104491100D03*
X77524500Y-107031100D03*
X80064500Y-107031100D03*
X77524500Y-109571100D03*
X80064500Y-109571100D03*
X77524500Y-112111100D03*
X80064500Y-112111100D03*
X77524500Y-114651100D03*
X80064500Y-114651100D03*
X77524500Y-117191100D03*
X80064500Y-117191100D03*
X77524500Y-119731100D03*
X80064500Y-119731100D03*
X77524500Y-122271100D03*
D16*
X80064500Y-122271100D03*
G04 #@! TA.AperFunction,SMDPad,CuDef*
G36*
G01*
X110465000Y-113175000D02*
X110465000Y-111925000D01*
G75*
G02*
X110715000Y-111675000I250000J0D01*
G01*
X111465000Y-111675000D01*
G75*
G02*
X111715000Y-111925000I0J-250000D01*
G01*
X111715000Y-113175000D01*
G75*
G02*
X111465000Y-113425000I-250000J0D01*
G01*
X110715000Y-113425000D01*
G75*
G02*
X110465000Y-113175000I0J250000D01*
G01*
G37*
G04 #@! TD.AperFunction*
G04 #@! TA.AperFunction,SMDPad,CuDef*
G36*
G01*
X107665000Y-113175000D02*
X107665000Y-111925000D01*
G75*
G02*
X107915000Y-111675000I250000J0D01*
G01*
X108665000Y-111675000D01*
G75*
G02*
X108915000Y-111925000I0J-250000D01*
G01*
X108915000Y-113175000D01*
G75*
G02*
X108665000Y-113425000I-250000J0D01*
G01*
X107915000Y-113425000D01*
G75*
G02*
X107665000Y-113175000I0J250000D01*
G01*
G37*
G04 #@! TD.AperFunction*
D11*
X127800000Y-69150000D03*
D17*
X102856000Y-122800000D03*
G04 #@! TA.AperFunction,ComponentPad*
G36*
G01*
X103606000Y-125300000D02*
X103606000Y-126300000D01*
G75*
G02*
X103356000Y-126550000I-250000J0D01*
G01*
X102356000Y-126550000D01*
G75*
G02*
X102106000Y-126300000I0J250000D01*
G01*
X102106000Y-125300000D01*
G75*
G02*
X102356000Y-125050000I250000J0D01*
G01*
X103356000Y-125050000D01*
G75*
G02*
X103606000Y-125300000I0J-250000D01*
G01*
G37*
G04 #@! TD.AperFunction*
X94856000Y-122800000D03*
G04 #@! TA.AperFunction,ComponentPad*
G36*
G01*
X95606000Y-125300000D02*
X95606000Y-126300000D01*
G75*
G02*
X95356000Y-126550000I-250000J0D01*
G01*
X94356000Y-126550000D01*
G75*
G02*
X94106000Y-126300000I0J250000D01*
G01*
X94106000Y-125300000D01*
G75*
G02*
X94356000Y-125050000I250000J0D01*
G01*
X95356000Y-125050000D01*
G75*
G02*
X95606000Y-125300000I0J-250000D01*
G01*
G37*
G04 #@! TD.AperFunction*
X86856000Y-122800000D03*
G04 #@! TA.AperFunction,ComponentPad*
G36*
G01*
X87606000Y-125300000D02*
X87606000Y-126300000D01*
G75*
G02*
X87356000Y-126550000I-250000J0D01*
G01*
X86356000Y-126550000D01*
G75*
G02*
X86106000Y-126300000I0J250000D01*
G01*
X86106000Y-125300000D01*
G75*
G02*
X86356000Y-125050000I250000J0D01*
G01*
X87356000Y-125050000D01*
G75*
G02*
X87606000Y-125300000I0J-250000D01*
G01*
G37*
G04 #@! TD.AperFunction*
X110856000Y-122800000D03*
G04 #@! TA.AperFunction,ComponentPad*
G36*
G01*
X111606000Y-125300000D02*
X111606000Y-126300000D01*
G75*
G02*
X111356000Y-126550000I-250000J0D01*
G01*
X110356000Y-126550000D01*
G75*
G02*
X110106000Y-126300000I0J250000D01*
G01*
X110106000Y-125300000D01*
G75*
G02*
X110356000Y-125050000I250000J0D01*
G01*
X111356000Y-125050000D01*
G75*
G02*
X111606000Y-125300000I0J-250000D01*
G01*
G37*
G04 #@! TD.AperFunction*
G04 #@! TA.AperFunction,SMDPad,CuDef*
G36*
G01*
X98725000Y-95545000D02*
X98725000Y-93495000D01*
G75*
G02*
X98975000Y-93245000I250000J0D01*
G01*
X100550000Y-93245000D01*
G75*
G02*
X100800000Y-93495000I0J-250000D01*
G01*
X100800000Y-95545000D01*
G75*
G02*
X100550000Y-95795000I-250000J0D01*
G01*
X98975000Y-95795000D01*
G75*
G02*
X98725000Y-95545000I0J250000D01*
G01*
G37*
G04 #@! TD.AperFunction*
G04 #@! TA.AperFunction,SMDPad,CuDef*
G36*
G01*
X92500000Y-95545000D02*
X92500000Y-93495000D01*
G75*
G02*
X92750000Y-93245000I250000J0D01*
G01*
X94325000Y-93245000D01*
G75*
G02*
X94575000Y-93495000I0J-250000D01*
G01*
X94575000Y-95545000D01*
G75*
G02*
X94325000Y-95795000I-250000J0D01*
G01*
X92750000Y-95795000D01*
G75*
G02*
X92500000Y-95545000I0J250000D01*
G01*
G37*
G04 #@! TD.AperFunction*
G04 #@! TA.AperFunction,SMDPad,CuDef*
G36*
G01*
X103427500Y-76155000D02*
X103427500Y-78205000D01*
G75*
G02*
X103177500Y-78455000I-250000J0D01*
G01*
X101602500Y-78455000D01*
G75*
G02*
X101352500Y-78205000I0J250000D01*
G01*
X101352500Y-76155000D01*
G75*
G02*
X101602500Y-75905000I250000J0D01*
G01*
X103177500Y-75905000D01*
G75*
G02*
X103427500Y-76155000I0J-250000D01*
G01*
G37*
G04 #@! TD.AperFunction*
G04 #@! TA.AperFunction,SMDPad,CuDef*
G36*
G01*
X109652500Y-76155000D02*
X109652500Y-78205000D01*
G75*
G02*
X109402500Y-78455000I-250000J0D01*
G01*
X107827500Y-78455000D01*
G75*
G02*
X107577500Y-78205000I0J250000D01*
G01*
X107577500Y-76155000D01*
G75*
G02*
X107827500Y-75905000I250000J0D01*
G01*
X109402500Y-75905000D01*
G75*
G02*
X109652500Y-76155000I0J-250000D01*
G01*
G37*
G04 #@! TD.AperFunction*
G04 #@! TA.AperFunction,SMDPad,CuDef*
G36*
G01*
X103395000Y-93425000D02*
X103395000Y-95475000D01*
G75*
G02*
X103145000Y-95725000I-250000J0D01*
G01*
X101570000Y-95725000D01*
G75*
G02*
X101320000Y-95475000I0J250000D01*
G01*
X101320000Y-93425000D01*
G75*
G02*
X101570000Y-93175000I250000J0D01*
G01*
X103145000Y-93175000D01*
G75*
G02*
X103395000Y-93425000I0J-250000D01*
G01*
G37*
G04 #@! TD.AperFunction*
G04 #@! TA.AperFunction,SMDPad,CuDef*
G36*
G01*
X109620000Y-93425000D02*
X109620000Y-95475000D01*
G75*
G02*
X109370000Y-95725000I-250000J0D01*
G01*
X107795000Y-95725000D01*
G75*
G02*
X107545000Y-95475000I0J250000D01*
G01*
X107545000Y-93425000D01*
G75*
G02*
X107795000Y-93175000I250000J0D01*
G01*
X109370000Y-93175000D01*
G75*
G02*
X109620000Y-93425000I0J-250000D01*
G01*
G37*
G04 #@! TD.AperFunction*
G04 #@! TA.AperFunction,SMDPad,CuDef*
G36*
G01*
X98695000Y-78265000D02*
X98695000Y-76215000D01*
G75*
G02*
X98945000Y-75965000I250000J0D01*
G01*
X100520000Y-75965000D01*
G75*
G02*
X100770000Y-76215000I0J-250000D01*
G01*
X100770000Y-78265000D01*
G75*
G02*
X100520000Y-78515000I-250000J0D01*
G01*
X98945000Y-78515000D01*
G75*
G02*
X98695000Y-78265000I0J250000D01*
G01*
G37*
G04 #@! TD.AperFunction*
G04 #@! TA.AperFunction,SMDPad,CuDef*
G36*
G01*
X92470000Y-78265000D02*
X92470000Y-76215000D01*
G75*
G02*
X92720000Y-75965000I250000J0D01*
G01*
X94295000Y-75965000D01*
G75*
G02*
X94545000Y-76215000I0J-250000D01*
G01*
X94545000Y-78265000D01*
G75*
G02*
X94295000Y-78515000I-250000J0D01*
G01*
X92720000Y-78515000D01*
G75*
G02*
X92470000Y-78265000I0J250000D01*
G01*
G37*
G04 #@! TD.AperFunction*
G04 #@! TA.AperFunction,SMDPad,CuDef*
G36*
G01*
X113296250Y-100100000D02*
X112783750Y-100100000D01*
G75*
G02*
X112565000Y-99881250I0J218750D01*
G01*
X112565000Y-99443750D01*
G75*
G02*
X112783750Y-99225000I218750J0D01*
G01*
X113296250Y-99225000D01*
G75*
G02*
X113515000Y-99443750I0J-218750D01*
G01*
X113515000Y-99881250D01*
G75*
G02*
X113296250Y-100100000I-218750J0D01*
G01*
G37*
G04 #@! TD.AperFunction*
G04 #@! TA.AperFunction,SMDPad,CuDef*
G36*
G01*
X113296250Y-101675000D02*
X112783750Y-101675000D01*
G75*
G02*
X112565000Y-101456250I0J218750D01*
G01*
X112565000Y-101018750D01*
G75*
G02*
X112783750Y-100800000I218750J0D01*
G01*
X113296250Y-100800000D01*
G75*
G02*
X113515000Y-101018750I0J-218750D01*
G01*
X113515000Y-101456250D01*
G75*
G02*
X113296250Y-101675000I-218750J0D01*
G01*
G37*
G04 #@! TD.AperFunction*
G04 #@! TA.AperFunction,SMDPad,CuDef*
G36*
G01*
X119966250Y-100410000D02*
X119453750Y-100410000D01*
G75*
G02*
X119235000Y-100191250I0J218750D01*
G01*
X119235000Y-99753750D01*
G75*
G02*
X119453750Y-99535000I218750J0D01*
G01*
X119966250Y-99535000D01*
G75*
G02*
X120185000Y-99753750I0J-218750D01*
G01*
X120185000Y-100191250D01*
G75*
G02*
X119966250Y-100410000I-218750J0D01*
G01*
G37*
G04 #@! TD.AperFunction*
G04 #@! TA.AperFunction,SMDPad,CuDef*
G36*
G01*
X119966250Y-101985000D02*
X119453750Y-101985000D01*
G75*
G02*
X119235000Y-101766250I0J218750D01*
G01*
X119235000Y-101328750D01*
G75*
G02*
X119453750Y-101110000I218750J0D01*
G01*
X119966250Y-101110000D01*
G75*
G02*
X120185000Y-101328750I0J-218750D01*
G01*
X120185000Y-101766250D01*
G75*
G02*
X119966250Y-101985000I-218750J0D01*
G01*
G37*
G04 #@! TD.AperFunction*
G04 #@! TA.AperFunction,SMDPad,CuDef*
G36*
G01*
X120823750Y-68490000D02*
X121336250Y-68490000D01*
G75*
G02*
X121555000Y-68708750I0J-218750D01*
G01*
X121555000Y-69146250D01*
G75*
G02*
X121336250Y-69365000I-218750J0D01*
G01*
X120823750Y-69365000D01*
G75*
G02*
X120605000Y-69146250I0J218750D01*
G01*
X120605000Y-68708750D01*
G75*
G02*
X120823750Y-68490000I218750J0D01*
G01*
G37*
G04 #@! TD.AperFunction*
G04 #@! TA.AperFunction,SMDPad,CuDef*
G36*
G01*
X120823750Y-66915000D02*
X121336250Y-66915000D01*
G75*
G02*
X121555000Y-67133750I0J-218750D01*
G01*
X121555000Y-67571250D01*
G75*
G02*
X121336250Y-67790000I-218750J0D01*
G01*
X120823750Y-67790000D01*
G75*
G02*
X120605000Y-67571250I0J218750D01*
G01*
X120605000Y-67133750D01*
G75*
G02*
X120823750Y-66915000I218750J0D01*
G01*
G37*
G04 #@! TD.AperFunction*
G04 #@! TA.AperFunction,SMDPad,CuDef*
G36*
G01*
X120475000Y-73135000D02*
X120475000Y-71885000D01*
G75*
G02*
X120725000Y-71635000I250000J0D01*
G01*
X121475000Y-71635000D01*
G75*
G02*
X121725000Y-71885000I0J-250000D01*
G01*
X121725000Y-73135000D01*
G75*
G02*
X121475000Y-73385000I-250000J0D01*
G01*
X120725000Y-73385000D01*
G75*
G02*
X120475000Y-73135000I0J250000D01*
G01*
G37*
G04 #@! TD.AperFunction*
G04 #@! TA.AperFunction,SMDPad,CuDef*
G36*
G01*
X117675000Y-73135000D02*
X117675000Y-71885000D01*
G75*
G02*
X117925000Y-71635000I250000J0D01*
G01*
X118675000Y-71635000D01*
G75*
G02*
X118925000Y-71885000I0J-250000D01*
G01*
X118925000Y-73135000D01*
G75*
G02*
X118675000Y-73385000I-250000J0D01*
G01*
X117925000Y-73385000D01*
G75*
G02*
X117675000Y-73135000I0J250000D01*
G01*
G37*
G04 #@! TD.AperFunction*
G04 #@! TA.AperFunction,SMDPad,CuDef*
G36*
G01*
X98075000Y-81785000D02*
X98075000Y-80535000D01*
G75*
G02*
X98325000Y-80285000I250000J0D01*
G01*
X99075000Y-80285000D01*
G75*
G02*
X99325000Y-80535000I0J-250000D01*
G01*
X99325000Y-81785000D01*
G75*
G02*
X99075000Y-82035000I-250000J0D01*
G01*
X98325000Y-82035000D01*
G75*
G02*
X98075000Y-81785000I0J250000D01*
G01*
G37*
G04 #@! TD.AperFunction*
G04 #@! TA.AperFunction,SMDPad,CuDef*
G36*
G01*
X95275000Y-81785000D02*
X95275000Y-80535000D01*
G75*
G02*
X95525000Y-80285000I250000J0D01*
G01*
X96275000Y-80285000D01*
G75*
G02*
X96525000Y-80535000I0J-250000D01*
G01*
X96525000Y-81785000D01*
G75*
G02*
X96275000Y-82035000I-250000J0D01*
G01*
X95525000Y-82035000D01*
G75*
G02*
X95275000Y-81785000I0J250000D01*
G01*
G37*
G04 #@! TD.AperFunction*
G04 #@! TA.AperFunction,SMDPad,CuDef*
G36*
G01*
X104085000Y-80685000D02*
X104085000Y-81935000D01*
G75*
G02*
X103835000Y-82185000I-250000J0D01*
G01*
X103085000Y-82185000D01*
G75*
G02*
X102835000Y-81935000I0J250000D01*
G01*
X102835000Y-80685000D01*
G75*
G02*
X103085000Y-80435000I250000J0D01*
G01*
X103835000Y-80435000D01*
G75*
G02*
X104085000Y-80685000I0J-250000D01*
G01*
G37*
G04 #@! TD.AperFunction*
G04 #@! TA.AperFunction,SMDPad,CuDef*
G36*
G01*
X106885000Y-80685000D02*
X106885000Y-81935000D01*
G75*
G02*
X106635000Y-82185000I-250000J0D01*
G01*
X105885000Y-82185000D01*
G75*
G02*
X105635000Y-81935000I0J250000D01*
G01*
X105635000Y-80685000D01*
G75*
G02*
X105885000Y-80435000I250000J0D01*
G01*
X106635000Y-80435000D01*
G75*
G02*
X106885000Y-80685000I0J-250000D01*
G01*
G37*
G04 #@! TD.AperFunction*
G04 #@! TA.AperFunction,SMDPad,CuDef*
G36*
G01*
X122524000Y-104142250D02*
X122524000Y-103629750D01*
G75*
G02*
X122742750Y-103411000I218750J0D01*
G01*
X123180250Y-103411000D01*
G75*
G02*
X123399000Y-103629750I0J-218750D01*
G01*
X123399000Y-104142250D01*
G75*
G02*
X123180250Y-104361000I-218750J0D01*
G01*
X122742750Y-104361000D01*
G75*
G02*
X122524000Y-104142250I0J218750D01*
G01*
G37*
G04 #@! TD.AperFunction*
G04 #@! TA.AperFunction,SMDPad,CuDef*
G36*
G01*
X120949000Y-104142250D02*
X120949000Y-103629750D01*
G75*
G02*
X121167750Y-103411000I218750J0D01*
G01*
X121605250Y-103411000D01*
G75*
G02*
X121824000Y-103629750I0J-218750D01*
G01*
X121824000Y-104142250D01*
G75*
G02*
X121605250Y-104361000I-218750J0D01*
G01*
X121167750Y-104361000D01*
G75*
G02*
X120949000Y-104142250I0J218750D01*
G01*
G37*
G04 #@! TD.AperFunction*
G04 #@! TA.AperFunction,SMDPad,CuDef*
G36*
G01*
X124580000Y-96893750D02*
X124580000Y-97406250D01*
G75*
G02*
X124361250Y-97625000I-218750J0D01*
G01*
X123923750Y-97625000D01*
G75*
G02*
X123705000Y-97406250I0J218750D01*
G01*
X123705000Y-96893750D01*
G75*
G02*
X123923750Y-96675000I218750J0D01*
G01*
X124361250Y-96675000D01*
G75*
G02*
X124580000Y-96893750I0J-218750D01*
G01*
G37*
G04 #@! TD.AperFunction*
G04 #@! TA.AperFunction,SMDPad,CuDef*
G36*
G01*
X126155000Y-96893750D02*
X126155000Y-97406250D01*
G75*
G02*
X125936250Y-97625000I-218750J0D01*
G01*
X125498750Y-97625000D01*
G75*
G02*
X125280000Y-97406250I0J218750D01*
G01*
X125280000Y-96893750D01*
G75*
G02*
X125498750Y-96675000I218750J0D01*
G01*
X125936250Y-96675000D01*
G75*
G02*
X126155000Y-96893750I0J-218750D01*
G01*
G37*
G04 #@! TD.AperFunction*
G04 #@! TA.AperFunction,SMDPad,CuDef*
G36*
G01*
X103456250Y-114000000D02*
X102943750Y-114000000D01*
G75*
G02*
X102725000Y-113781250I0J218750D01*
G01*
X102725000Y-113343750D01*
G75*
G02*
X102943750Y-113125000I218750J0D01*
G01*
X103456250Y-113125000D01*
G75*
G02*
X103675000Y-113343750I0J-218750D01*
G01*
X103675000Y-113781250D01*
G75*
G02*
X103456250Y-114000000I-218750J0D01*
G01*
G37*
G04 #@! TD.AperFunction*
G04 #@! TA.AperFunction,SMDPad,CuDef*
G36*
G01*
X103456250Y-115575000D02*
X102943750Y-115575000D01*
G75*
G02*
X102725000Y-115356250I0J218750D01*
G01*
X102725000Y-114918750D01*
G75*
G02*
X102943750Y-114700000I218750J0D01*
G01*
X103456250Y-114700000D01*
G75*
G02*
X103675000Y-114918750I0J-218750D01*
G01*
X103675000Y-115356250D01*
G75*
G02*
X103456250Y-115575000I-218750J0D01*
G01*
G37*
G04 #@! TD.AperFunction*
D18*
X114065000Y-113130000D03*
D19*
X114980000Y-113130000D03*
G04 #@! TA.AperFunction,SMDPad,CuDef*
G36*
G01*
X93537500Y-120350000D02*
X93062500Y-120350000D01*
G75*
G02*
X92825000Y-120112500I0J237500D01*
G01*
X92825000Y-119537500D01*
G75*
G02*
X93062500Y-119300000I237500J0D01*
G01*
X93537500Y-119300000D01*
G75*
G02*
X93775000Y-119537500I0J-237500D01*
G01*
X93775000Y-120112500D01*
G75*
G02*
X93537500Y-120350000I-237500J0D01*
G01*
G37*
G04 #@! TD.AperFunction*
G04 #@! TA.AperFunction,SMDPad,CuDef*
G36*
G01*
X93537500Y-122100000D02*
X93062500Y-122100000D01*
G75*
G02*
X92825000Y-121862500I0J237500D01*
G01*
X92825000Y-121287500D01*
G75*
G02*
X93062500Y-121050000I237500J0D01*
G01*
X93537500Y-121050000D01*
G75*
G02*
X93775000Y-121287500I0J-237500D01*
G01*
X93775000Y-121862500D01*
G75*
G02*
X93537500Y-122100000I-237500J0D01*
G01*
G37*
G04 #@! TD.AperFunction*
G04 #@! TA.AperFunction,SMDPad,CuDef*
G36*
G01*
X100812500Y-124750000D02*
X101287500Y-124750000D01*
G75*
G02*
X101525000Y-124987500I0J-237500D01*
G01*
X101525000Y-125562500D01*
G75*
G02*
X101287500Y-125800000I-237500J0D01*
G01*
X100812500Y-125800000D01*
G75*
G02*
X100575000Y-125562500I0J237500D01*
G01*
X100575000Y-124987500D01*
G75*
G02*
X100812500Y-124750000I237500J0D01*
G01*
G37*
G04 #@! TD.AperFunction*
G04 #@! TA.AperFunction,SMDPad,CuDef*
G36*
G01*
X100812500Y-123000000D02*
X101287500Y-123000000D01*
G75*
G02*
X101525000Y-123237500I0J-237500D01*
G01*
X101525000Y-123812500D01*
G75*
G02*
X101287500Y-124050000I-237500J0D01*
G01*
X100812500Y-124050000D01*
G75*
G02*
X100575000Y-123812500I0J237500D01*
G01*
X100575000Y-123237500D01*
G75*
G02*
X100812500Y-123000000I237500J0D01*
G01*
G37*
G04 #@! TD.AperFunction*
G04 #@! TA.AperFunction,SMDPad,CuDef*
G36*
G01*
X112226250Y-106860000D02*
X111713750Y-106860000D01*
G75*
G02*
X111495000Y-106641250I0J218750D01*
G01*
X111495000Y-106203750D01*
G75*
G02*
X111713750Y-105985000I218750J0D01*
G01*
X112226250Y-105985000D01*
G75*
G02*
X112445000Y-106203750I0J-218750D01*
G01*
X112445000Y-106641250D01*
G75*
G02*
X112226250Y-106860000I-218750J0D01*
G01*
G37*
G04 #@! TD.AperFunction*
G04 #@! TA.AperFunction,SMDPad,CuDef*
G36*
G01*
X112226250Y-108435000D02*
X111713750Y-108435000D01*
G75*
G02*
X111495000Y-108216250I0J218750D01*
G01*
X111495000Y-107778750D01*
G75*
G02*
X111713750Y-107560000I218750J0D01*
G01*
X112226250Y-107560000D01*
G75*
G02*
X112445000Y-107778750I0J-218750D01*
G01*
X112445000Y-108216250D01*
G75*
G02*
X112226250Y-108435000I-218750J0D01*
G01*
G37*
G04 #@! TD.AperFunction*
G04 #@! TA.AperFunction,SMDPad,CuDef*
G36*
G01*
X96393750Y-115050000D02*
X96906250Y-115050000D01*
G75*
G02*
X97125000Y-115268750I0J-218750D01*
G01*
X97125000Y-115706250D01*
G75*
G02*
X96906250Y-115925000I-218750J0D01*
G01*
X96393750Y-115925000D01*
G75*
G02*
X96175000Y-115706250I0J218750D01*
G01*
X96175000Y-115268750D01*
G75*
G02*
X96393750Y-115050000I218750J0D01*
G01*
G37*
G04 #@! TD.AperFunction*
G04 #@! TA.AperFunction,SMDPad,CuDef*
G36*
G01*
X96393750Y-113475000D02*
X96906250Y-113475000D01*
G75*
G02*
X97125000Y-113693750I0J-218750D01*
G01*
X97125000Y-114131250D01*
G75*
G02*
X96906250Y-114350000I-218750J0D01*
G01*
X96393750Y-114350000D01*
G75*
G02*
X96175000Y-114131250I0J218750D01*
G01*
X96175000Y-113693750D01*
G75*
G02*
X96393750Y-113475000I218750J0D01*
G01*
G37*
G04 #@! TD.AperFunction*
D20*
X106720000Y-71160000D03*
X106720000Y-67860000D03*
G04 #@! TA.AperFunction,SMDPad,CuDef*
G36*
G01*
X93305000Y-67554999D02*
X93305000Y-70405001D01*
G75*
G02*
X93055001Y-70655000I-249999J0D01*
G01*
X92204999Y-70655000D01*
G75*
G02*
X91955000Y-70405001I0J249999D01*
G01*
X91955000Y-67554999D01*
G75*
G02*
X92204999Y-67305000I249999J0D01*
G01*
X93055001Y-67305000D01*
G75*
G02*
X93305000Y-67554999I0J-249999D01*
G01*
G37*
G04 #@! TD.AperFunction*
G04 #@! TA.AperFunction,SMDPad,CuDef*
G36*
G01*
X99105000Y-67554999D02*
X99105000Y-70405001D01*
G75*
G02*
X98855001Y-70655000I-249999J0D01*
G01*
X98004999Y-70655000D01*
G75*
G02*
X97755000Y-70405001I0J249999D01*
G01*
X97755000Y-67554999D01*
G75*
G02*
X98004999Y-67305000I249999J0D01*
G01*
X98855001Y-67305000D01*
G75*
G02*
X99105000Y-67554999I0J-249999D01*
G01*
G37*
G04 #@! TD.AperFunction*
D15*
X127530000Y-99000000D03*
X124990000Y-99000000D03*
D16*
X122450000Y-99000000D03*
G04 #@! TA.AperFunction,SMDPad,CuDef*
G36*
G01*
X110385000Y-103310000D02*
X110085000Y-103310000D01*
G75*
G02*
X109935000Y-103160000I0J150000D01*
G01*
X109935000Y-101710000D01*
G75*
G02*
X110085000Y-101560000I150000J0D01*
G01*
X110385000Y-101560000D01*
G75*
G02*
X110535000Y-101710000I0J-150000D01*
G01*
X110535000Y-103160000D01*
G75*
G02*
X110385000Y-103310000I-150000J0D01*
G01*
G37*
G04 #@! TD.AperFunction*
G04 #@! TA.AperFunction,SMDPad,CuDef*
G36*
G01*
X109115000Y-103310000D02*
X108815000Y-103310000D01*
G75*
G02*
X108665000Y-103160000I0J150000D01*
G01*
X108665000Y-101710000D01*
G75*
G02*
X108815000Y-101560000I150000J0D01*
G01*
X109115000Y-101560000D01*
G75*
G02*
X109265000Y-101710000I0J-150000D01*
G01*
X109265000Y-103160000D01*
G75*
G02*
X109115000Y-103310000I-150000J0D01*
G01*
G37*
G04 #@! TD.AperFunction*
G04 #@! TA.AperFunction,SMDPad,CuDef*
G36*
G01*
X107845000Y-103310000D02*
X107545000Y-103310000D01*
G75*
G02*
X107395000Y-103160000I0J150000D01*
G01*
X107395000Y-101710000D01*
G75*
G02*
X107545000Y-101560000I150000J0D01*
G01*
X107845000Y-101560000D01*
G75*
G02*
X107995000Y-101710000I0J-150000D01*
G01*
X107995000Y-103160000D01*
G75*
G02*
X107845000Y-103310000I-150000J0D01*
G01*
G37*
G04 #@! TD.AperFunction*
G04 #@! TA.AperFunction,SMDPad,CuDef*
G36*
G01*
X106575000Y-103310000D02*
X106275000Y-103310000D01*
G75*
G02*
X106125000Y-103160000I0J150000D01*
G01*
X106125000Y-101710000D01*
G75*
G02*
X106275000Y-101560000I150000J0D01*
G01*
X106575000Y-101560000D01*
G75*
G02*
X106725000Y-101710000I0J-150000D01*
G01*
X106725000Y-103160000D01*
G75*
G02*
X106575000Y-103310000I-150000J0D01*
G01*
G37*
G04 #@! TD.AperFunction*
G04 #@! TA.AperFunction,SMDPad,CuDef*
G36*
G01*
X106575000Y-108460000D02*
X106275000Y-108460000D01*
G75*
G02*
X106125000Y-108310000I0J150000D01*
G01*
X106125000Y-106860000D01*
G75*
G02*
X106275000Y-106710000I150000J0D01*
G01*
X106575000Y-106710000D01*
G75*
G02*
X106725000Y-106860000I0J-150000D01*
G01*
X106725000Y-108310000D01*
G75*
G02*
X106575000Y-108460000I-150000J0D01*
G01*
G37*
G04 #@! TD.AperFunction*
G04 #@! TA.AperFunction,SMDPad,CuDef*
G36*
G01*
X107845000Y-108460000D02*
X107545000Y-108460000D01*
G75*
G02*
X107395000Y-108310000I0J150000D01*
G01*
X107395000Y-106860000D01*
G75*
G02*
X107545000Y-106710000I150000J0D01*
G01*
X107845000Y-106710000D01*
G75*
G02*
X107995000Y-106860000I0J-150000D01*
G01*
X107995000Y-108310000D01*
G75*
G02*
X107845000Y-108460000I-150000J0D01*
G01*
G37*
G04 #@! TD.AperFunction*
G04 #@! TA.AperFunction,SMDPad,CuDef*
G36*
G01*
X109115000Y-108460000D02*
X108815000Y-108460000D01*
G75*
G02*
X108665000Y-108310000I0J150000D01*
G01*
X108665000Y-106860000D01*
G75*
G02*
X108815000Y-106710000I150000J0D01*
G01*
X109115000Y-106710000D01*
G75*
G02*
X109265000Y-106860000I0J-150000D01*
G01*
X109265000Y-108310000D01*
G75*
G02*
X109115000Y-108460000I-150000J0D01*
G01*
G37*
G04 #@! TD.AperFunction*
G04 #@! TA.AperFunction,SMDPad,CuDef*
G36*
G01*
X110385000Y-108460000D02*
X110085000Y-108460000D01*
G75*
G02*
X109935000Y-108310000I0J150000D01*
G01*
X109935000Y-106860000D01*
G75*
G02*
X110085000Y-106710000I150000J0D01*
G01*
X110385000Y-106710000D01*
G75*
G02*
X110535000Y-106860000I0J-150000D01*
G01*
X110535000Y-108310000D01*
G75*
G02*
X110385000Y-108460000I-150000J0D01*
G01*
G37*
G04 #@! TD.AperFunction*
D21*
X113720000Y-71080000D03*
X111460000Y-71080000D03*
D22*
X110685000Y-73185000D03*
X111955000Y-73185000D03*
X113225000Y-73185000D03*
X114495000Y-73185000D03*
D23*
X114495000Y-67720000D03*
X113225000Y-67720000D03*
X111955000Y-67720000D03*
X110685000Y-67720000D03*
G04 #@! TA.AperFunction,SMDPad,CuDef*
G36*
G01*
X111550000Y-110006250D02*
X111550000Y-109493750D01*
G75*
G02*
X111768750Y-109275000I218750J0D01*
G01*
X112206250Y-109275000D01*
G75*
G02*
X112425000Y-109493750I0J-218750D01*
G01*
X112425000Y-110006250D01*
G75*
G02*
X112206250Y-110225000I-218750J0D01*
G01*
X111768750Y-110225000D01*
G75*
G02*
X111550000Y-110006250I0J218750D01*
G01*
G37*
G04 #@! TD.AperFunction*
G04 #@! TA.AperFunction,SMDPad,CuDef*
G36*
G01*
X109975000Y-110006250D02*
X109975000Y-109493750D01*
G75*
G02*
X110193750Y-109275000I218750J0D01*
G01*
X110631250Y-109275000D01*
G75*
G02*
X110850000Y-109493750I0J-218750D01*
G01*
X110850000Y-110006250D01*
G75*
G02*
X110631250Y-110225000I-218750J0D01*
G01*
X110193750Y-110225000D01*
G75*
G02*
X109975000Y-110006250I0J218750D01*
G01*
G37*
G04 #@! TD.AperFunction*
G04 #@! TA.AperFunction,SMDPad,CuDef*
G36*
G01*
X116840000Y-105183750D02*
X116840000Y-105696250D01*
G75*
G02*
X116621250Y-105915000I-218750J0D01*
G01*
X116183750Y-105915000D01*
G75*
G02*
X115965000Y-105696250I0J218750D01*
G01*
X115965000Y-105183750D01*
G75*
G02*
X116183750Y-104965000I218750J0D01*
G01*
X116621250Y-104965000D01*
G75*
G02*
X116840000Y-105183750I0J-218750D01*
G01*
G37*
G04 #@! TD.AperFunction*
G04 #@! TA.AperFunction,SMDPad,CuDef*
G36*
G01*
X118415000Y-105183750D02*
X118415000Y-105696250D01*
G75*
G02*
X118196250Y-105915000I-218750J0D01*
G01*
X117758750Y-105915000D01*
G75*
G02*
X117540000Y-105696250I0J218750D01*
G01*
X117540000Y-105183750D01*
G75*
G02*
X117758750Y-104965000I218750J0D01*
G01*
X118196250Y-104965000D01*
G75*
G02*
X118415000Y-105183750I0J-218750D01*
G01*
G37*
G04 #@! TD.AperFunction*
G04 #@! TA.AperFunction,SMDPad,CuDef*
G36*
G01*
X116830000Y-106723750D02*
X116830000Y-107236250D01*
G75*
G02*
X116611250Y-107455000I-218750J0D01*
G01*
X116173750Y-107455000D01*
G75*
G02*
X115955000Y-107236250I0J218750D01*
G01*
X115955000Y-106723750D01*
G75*
G02*
X116173750Y-106505000I218750J0D01*
G01*
X116611250Y-106505000D01*
G75*
G02*
X116830000Y-106723750I0J-218750D01*
G01*
G37*
G04 #@! TD.AperFunction*
G04 #@! TA.AperFunction,SMDPad,CuDef*
G36*
G01*
X118405000Y-106723750D02*
X118405000Y-107236250D01*
G75*
G02*
X118186250Y-107455000I-218750J0D01*
G01*
X117748750Y-107455000D01*
G75*
G02*
X117530000Y-107236250I0J218750D01*
G01*
X117530000Y-106723750D01*
G75*
G02*
X117748750Y-106505000I218750J0D01*
G01*
X118186250Y-106505000D01*
G75*
G02*
X118405000Y-106723750I0J-218750D01*
G01*
G37*
G04 #@! TD.AperFunction*
G04 #@! TA.AperFunction,SMDPad,CuDef*
G36*
G01*
X101906250Y-114000000D02*
X101393750Y-114000000D01*
G75*
G02*
X101175000Y-113781250I0J218750D01*
G01*
X101175000Y-113343750D01*
G75*
G02*
X101393750Y-113125000I218750J0D01*
G01*
X101906250Y-113125000D01*
G75*
G02*
X102125000Y-113343750I0J-218750D01*
G01*
X102125000Y-113781250D01*
G75*
G02*
X101906250Y-114000000I-218750J0D01*
G01*
G37*
G04 #@! TD.AperFunction*
G04 #@! TA.AperFunction,SMDPad,CuDef*
G36*
G01*
X101906250Y-115575000D02*
X101393750Y-115575000D01*
G75*
G02*
X101175000Y-115356250I0J218750D01*
G01*
X101175000Y-114918750D01*
G75*
G02*
X101393750Y-114700000I218750J0D01*
G01*
X101906250Y-114700000D01*
G75*
G02*
X102125000Y-114918750I0J-218750D01*
G01*
X102125000Y-115356250D01*
G75*
G02*
X101906250Y-115575000I-218750J0D01*
G01*
G37*
G04 #@! TD.AperFunction*
G04 #@! TA.AperFunction,SMDPad,CuDef*
G36*
G01*
X116840000Y-103643750D02*
X116840000Y-104156250D01*
G75*
G02*
X116621250Y-104375000I-218750J0D01*
G01*
X116183750Y-104375000D01*
G75*
G02*
X115965000Y-104156250I0J218750D01*
G01*
X115965000Y-103643750D01*
G75*
G02*
X116183750Y-103425000I218750J0D01*
G01*
X116621250Y-103425000D01*
G75*
G02*
X116840000Y-103643750I0J-218750D01*
G01*
G37*
G04 #@! TD.AperFunction*
G04 #@! TA.AperFunction,SMDPad,CuDef*
G36*
G01*
X118415000Y-103643750D02*
X118415000Y-104156250D01*
G75*
G02*
X118196250Y-104375000I-218750J0D01*
G01*
X117758750Y-104375000D01*
G75*
G02*
X117540000Y-104156250I0J218750D01*
G01*
X117540000Y-103643750D01*
G75*
G02*
X117758750Y-103425000I218750J0D01*
G01*
X118196250Y-103425000D01*
G75*
G02*
X118415000Y-103643750I0J-218750D01*
G01*
G37*
G04 #@! TD.AperFunction*
G04 #@! TA.AperFunction,SMDPad,CuDef*
G36*
G01*
X97893750Y-115050000D02*
X98406250Y-115050000D01*
G75*
G02*
X98625000Y-115268750I0J-218750D01*
G01*
X98625000Y-115706250D01*
G75*
G02*
X98406250Y-115925000I-218750J0D01*
G01*
X97893750Y-115925000D01*
G75*
G02*
X97675000Y-115706250I0J218750D01*
G01*
X97675000Y-115268750D01*
G75*
G02*
X97893750Y-115050000I218750J0D01*
G01*
G37*
G04 #@! TD.AperFunction*
G04 #@! TA.AperFunction,SMDPad,CuDef*
G36*
G01*
X97893750Y-113475000D02*
X98406250Y-113475000D01*
G75*
G02*
X98625000Y-113693750I0J-218750D01*
G01*
X98625000Y-114131250D01*
G75*
G02*
X98406250Y-114350000I-218750J0D01*
G01*
X97893750Y-114350000D01*
G75*
G02*
X97675000Y-114131250I0J218750D01*
G01*
X97675000Y-113693750D01*
G75*
G02*
X97893750Y-113475000I218750J0D01*
G01*
G37*
G04 #@! TD.AperFunction*
G04 #@! TA.AperFunction,SMDPad,CuDef*
G36*
G01*
X100893750Y-120350000D02*
X101406250Y-120350000D01*
G75*
G02*
X101625000Y-120568750I0J-218750D01*
G01*
X101625000Y-121006250D01*
G75*
G02*
X101406250Y-121225000I-218750J0D01*
G01*
X100893750Y-121225000D01*
G75*
G02*
X100675000Y-121006250I0J218750D01*
G01*
X100675000Y-120568750D01*
G75*
G02*
X100893750Y-120350000I218750J0D01*
G01*
G37*
G04 #@! TD.AperFunction*
G04 #@! TA.AperFunction,SMDPad,CuDef*
G36*
G01*
X100893750Y-118775000D02*
X101406250Y-118775000D01*
G75*
G02*
X101625000Y-118993750I0J-218750D01*
G01*
X101625000Y-119431250D01*
G75*
G02*
X101406250Y-119650000I-218750J0D01*
G01*
X100893750Y-119650000D01*
G75*
G02*
X100675000Y-119431250I0J218750D01*
G01*
X100675000Y-118993750D01*
G75*
G02*
X100893750Y-118775000I218750J0D01*
G01*
G37*
G04 #@! TD.AperFunction*
G04 #@! TA.AperFunction,SMDPad,CuDef*
G36*
G01*
X91062250Y-124450000D02*
X90549750Y-124450000D01*
G75*
G02*
X90331000Y-124231250I0J218750D01*
G01*
X90331000Y-123793750D01*
G75*
G02*
X90549750Y-123575000I218750J0D01*
G01*
X91062250Y-123575000D01*
G75*
G02*
X91281000Y-123793750I0J-218750D01*
G01*
X91281000Y-124231250D01*
G75*
G02*
X91062250Y-124450000I-218750J0D01*
G01*
G37*
G04 #@! TD.AperFunction*
G04 #@! TA.AperFunction,SMDPad,CuDef*
G36*
G01*
X91062250Y-126025000D02*
X90549750Y-126025000D01*
G75*
G02*
X90331000Y-125806250I0J218750D01*
G01*
X90331000Y-125368750D01*
G75*
G02*
X90549750Y-125150000I218750J0D01*
G01*
X91062250Y-125150000D01*
G75*
G02*
X91281000Y-125368750I0J-218750D01*
G01*
X91281000Y-125806250D01*
G75*
G02*
X91062250Y-126025000I-218750J0D01*
G01*
G37*
G04 #@! TD.AperFunction*
G04 #@! TA.AperFunction,SMDPad,CuDef*
G36*
G01*
X99262250Y-124050000D02*
X98749750Y-124050000D01*
G75*
G02*
X98531000Y-123831250I0J218750D01*
G01*
X98531000Y-123393750D01*
G75*
G02*
X98749750Y-123175000I218750J0D01*
G01*
X99262250Y-123175000D01*
G75*
G02*
X99481000Y-123393750I0J-218750D01*
G01*
X99481000Y-123831250D01*
G75*
G02*
X99262250Y-124050000I-218750J0D01*
G01*
G37*
G04 #@! TD.AperFunction*
G04 #@! TA.AperFunction,SMDPad,CuDef*
G36*
G01*
X99262250Y-125625000D02*
X98749750Y-125625000D01*
G75*
G02*
X98531000Y-125406250I0J218750D01*
G01*
X98531000Y-124968750D01*
G75*
G02*
X98749750Y-124750000I218750J0D01*
G01*
X99262250Y-124750000D01*
G75*
G02*
X99481000Y-124968750I0J-218750D01*
G01*
X99481000Y-125406250D01*
G75*
G02*
X99262250Y-125625000I-218750J0D01*
G01*
G37*
G04 #@! TD.AperFunction*
G04 #@! TA.AperFunction,SMDPad,CuDef*
G36*
G01*
X86826250Y-120087500D02*
X86313750Y-120087500D01*
G75*
G02*
X86095000Y-119868750I0J218750D01*
G01*
X86095000Y-119431250D01*
G75*
G02*
X86313750Y-119212500I218750J0D01*
G01*
X86826250Y-119212500D01*
G75*
G02*
X87045000Y-119431250I0J-218750D01*
G01*
X87045000Y-119868750D01*
G75*
G02*
X86826250Y-120087500I-218750J0D01*
G01*
G37*
G04 #@! TD.AperFunction*
G04 #@! TA.AperFunction,SMDPad,CuDef*
G36*
G01*
X86826250Y-121662500D02*
X86313750Y-121662500D01*
G75*
G02*
X86095000Y-121443750I0J218750D01*
G01*
X86095000Y-121006250D01*
G75*
G02*
X86313750Y-120787500I218750J0D01*
G01*
X86826250Y-120787500D01*
G75*
G02*
X87045000Y-121006250I0J-218750D01*
G01*
X87045000Y-121443750D01*
G75*
G02*
X86826250Y-121662500I-218750J0D01*
G01*
G37*
G04 #@! TD.AperFunction*
G04 #@! TA.AperFunction,SMDPad,CuDef*
G36*
G01*
X116653750Y-118400000D02*
X117166250Y-118400000D01*
G75*
G02*
X117385000Y-118618750I0J-218750D01*
G01*
X117385000Y-119056250D01*
G75*
G02*
X117166250Y-119275000I-218750J0D01*
G01*
X116653750Y-119275000D01*
G75*
G02*
X116435000Y-119056250I0J218750D01*
G01*
X116435000Y-118618750D01*
G75*
G02*
X116653750Y-118400000I218750J0D01*
G01*
G37*
G04 #@! TD.AperFunction*
G04 #@! TA.AperFunction,SMDPad,CuDef*
G36*
G01*
X116653750Y-116825000D02*
X117166250Y-116825000D01*
G75*
G02*
X117385000Y-117043750I0J-218750D01*
G01*
X117385000Y-117481250D01*
G75*
G02*
X117166250Y-117700000I-218750J0D01*
G01*
X116653750Y-117700000D01*
G75*
G02*
X116435000Y-117481250I0J218750D01*
G01*
X116435000Y-117043750D01*
G75*
G02*
X116653750Y-116825000I218750J0D01*
G01*
G37*
G04 #@! TD.AperFunction*
G04 #@! TA.AperFunction,SMDPad,CuDef*
G36*
G01*
X117510000Y-108776250D02*
X117510000Y-108263750D01*
G75*
G02*
X117728750Y-108045000I218750J0D01*
G01*
X118166250Y-108045000D01*
G75*
G02*
X118385000Y-108263750I0J-218750D01*
G01*
X118385000Y-108776250D01*
G75*
G02*
X118166250Y-108995000I-218750J0D01*
G01*
X117728750Y-108995000D01*
G75*
G02*
X117510000Y-108776250I0J218750D01*
G01*
G37*
G04 #@! TD.AperFunction*
G04 #@! TA.AperFunction,SMDPad,CuDef*
G36*
G01*
X115935000Y-108776250D02*
X115935000Y-108263750D01*
G75*
G02*
X116153750Y-108045000I218750J0D01*
G01*
X116591250Y-108045000D01*
G75*
G02*
X116810000Y-108263750I0J-218750D01*
G01*
X116810000Y-108776250D01*
G75*
G02*
X116591250Y-108995000I-218750J0D01*
G01*
X116153750Y-108995000D01*
G75*
G02*
X115935000Y-108776250I0J218750D01*
G01*
G37*
G04 #@! TD.AperFunction*
G04 #@! TA.AperFunction,SMDPad,CuDef*
G36*
G01*
X92490000Y-100883750D02*
X92490000Y-101396250D01*
G75*
G02*
X92271250Y-101615000I-218750J0D01*
G01*
X91833750Y-101615000D01*
G75*
G02*
X91615000Y-101396250I0J218750D01*
G01*
X91615000Y-100883750D01*
G75*
G02*
X91833750Y-100665000I218750J0D01*
G01*
X92271250Y-100665000D01*
G75*
G02*
X92490000Y-100883750I0J-218750D01*
G01*
G37*
G04 #@! TD.AperFunction*
G04 #@! TA.AperFunction,SMDPad,CuDef*
G36*
G01*
X94065000Y-100883750D02*
X94065000Y-101396250D01*
G75*
G02*
X93846250Y-101615000I-218750J0D01*
G01*
X93408750Y-101615000D01*
G75*
G02*
X93190000Y-101396250I0J218750D01*
G01*
X93190000Y-100883750D01*
G75*
G02*
X93408750Y-100665000I218750J0D01*
G01*
X93846250Y-100665000D01*
G75*
G02*
X94065000Y-100883750I0J-218750D01*
G01*
G37*
G04 #@! TD.AperFunction*
G04 #@! TA.AperFunction,SMDPad,CuDef*
G36*
G01*
X113533750Y-115560000D02*
X114046250Y-115560000D01*
G75*
G02*
X114265000Y-115778750I0J-218750D01*
G01*
X114265000Y-116216250D01*
G75*
G02*
X114046250Y-116435000I-218750J0D01*
G01*
X113533750Y-116435000D01*
G75*
G02*
X113315000Y-116216250I0J218750D01*
G01*
X113315000Y-115778750D01*
G75*
G02*
X113533750Y-115560000I218750J0D01*
G01*
G37*
G04 #@! TD.AperFunction*
G04 #@! TA.AperFunction,SMDPad,CuDef*
G36*
G01*
X113533750Y-113985000D02*
X114046250Y-113985000D01*
G75*
G02*
X114265000Y-114203750I0J-218750D01*
G01*
X114265000Y-114641250D01*
G75*
G02*
X114046250Y-114860000I-218750J0D01*
G01*
X113533750Y-114860000D01*
G75*
G02*
X113315000Y-114641250I0J218750D01*
G01*
X113315000Y-114203750D01*
G75*
G02*
X113533750Y-113985000I218750J0D01*
G01*
G37*
G04 #@! TD.AperFunction*
G04 #@! TA.AperFunction,SMDPad,CuDef*
G36*
G01*
X124453750Y-103487500D02*
X124966250Y-103487500D01*
G75*
G02*
X125185000Y-103706250I0J-218750D01*
G01*
X125185000Y-104143750D01*
G75*
G02*
X124966250Y-104362500I-218750J0D01*
G01*
X124453750Y-104362500D01*
G75*
G02*
X124235000Y-104143750I0J218750D01*
G01*
X124235000Y-103706250D01*
G75*
G02*
X124453750Y-103487500I218750J0D01*
G01*
G37*
G04 #@! TD.AperFunction*
G04 #@! TA.AperFunction,SMDPad,CuDef*
G36*
G01*
X124453750Y-101912500D02*
X124966250Y-101912500D01*
G75*
G02*
X125185000Y-102131250I0J-218750D01*
G01*
X125185000Y-102568750D01*
G75*
G02*
X124966250Y-102787500I-218750J0D01*
G01*
X124453750Y-102787500D01*
G75*
G02*
X124235000Y-102568750I0J218750D01*
G01*
X124235000Y-102131250D01*
G75*
G02*
X124453750Y-101912500I218750J0D01*
G01*
G37*
G04 #@! TD.AperFunction*
G04 #@! TA.AperFunction,SMDPad,CuDef*
G36*
G01*
X127920000Y-108333750D02*
X127920000Y-108846250D01*
G75*
G02*
X127701250Y-109065000I-218750J0D01*
G01*
X127263750Y-109065000D01*
G75*
G02*
X127045000Y-108846250I0J218750D01*
G01*
X127045000Y-108333750D01*
G75*
G02*
X127263750Y-108115000I218750J0D01*
G01*
X127701250Y-108115000D01*
G75*
G02*
X127920000Y-108333750I0J-218750D01*
G01*
G37*
G04 #@! TD.AperFunction*
G04 #@! TA.AperFunction,SMDPad,CuDef*
G36*
G01*
X129495000Y-108333750D02*
X129495000Y-108846250D01*
G75*
G02*
X129276250Y-109065000I-218750J0D01*
G01*
X128838750Y-109065000D01*
G75*
G02*
X128620000Y-108846250I0J218750D01*
G01*
X128620000Y-108333750D01*
G75*
G02*
X128838750Y-108115000I218750J0D01*
G01*
X129276250Y-108115000D01*
G75*
G02*
X129495000Y-108333750I0J-218750D01*
G01*
G37*
G04 #@! TD.AperFunction*
G04 #@! TA.AperFunction,SMDPad,CuDef*
G36*
G01*
X126494250Y-102774000D02*
X125981750Y-102774000D01*
G75*
G02*
X125763000Y-102555250I0J218750D01*
G01*
X125763000Y-102117750D01*
G75*
G02*
X125981750Y-101899000I218750J0D01*
G01*
X126494250Y-101899000D01*
G75*
G02*
X126713000Y-102117750I0J-218750D01*
G01*
X126713000Y-102555250D01*
G75*
G02*
X126494250Y-102774000I-218750J0D01*
G01*
G37*
G04 #@! TD.AperFunction*
G04 #@! TA.AperFunction,SMDPad,CuDef*
G36*
G01*
X126494250Y-104349000D02*
X125981750Y-104349000D01*
G75*
G02*
X125763000Y-104130250I0J218750D01*
G01*
X125763000Y-103692750D01*
G75*
G02*
X125981750Y-103474000I218750J0D01*
G01*
X126494250Y-103474000D01*
G75*
G02*
X126713000Y-103692750I0J-218750D01*
G01*
X126713000Y-104130250D01*
G75*
G02*
X126494250Y-104349000I-218750J0D01*
G01*
G37*
G04 #@! TD.AperFunction*
G04 #@! TA.AperFunction,SMDPad,CuDef*
G36*
G01*
X128610000Y-111916250D02*
X128610000Y-111403750D01*
G75*
G02*
X128828750Y-111185000I218750J0D01*
G01*
X129266250Y-111185000D01*
G75*
G02*
X129485000Y-111403750I0J-218750D01*
G01*
X129485000Y-111916250D01*
G75*
G02*
X129266250Y-112135000I-218750J0D01*
G01*
X128828750Y-112135000D01*
G75*
G02*
X128610000Y-111916250I0J218750D01*
G01*
G37*
G04 #@! TD.AperFunction*
G04 #@! TA.AperFunction,SMDPad,CuDef*
G36*
G01*
X127035000Y-111916250D02*
X127035000Y-111403750D01*
G75*
G02*
X127253750Y-111185000I218750J0D01*
G01*
X127691250Y-111185000D01*
G75*
G02*
X127910000Y-111403750I0J-218750D01*
G01*
X127910000Y-111916250D01*
G75*
G02*
X127691250Y-112135000I-218750J0D01*
G01*
X127253750Y-112135000D01*
G75*
G02*
X127035000Y-111916250I0J218750D01*
G01*
G37*
G04 #@! TD.AperFunction*
G04 #@! TA.AperFunction,SMDPad,CuDef*
G36*
G01*
X117520000Y-111846250D02*
X117520000Y-111333750D01*
G75*
G02*
X117738750Y-111115000I218750J0D01*
G01*
X118176250Y-111115000D01*
G75*
G02*
X118395000Y-111333750I0J-218750D01*
G01*
X118395000Y-111846250D01*
G75*
G02*
X118176250Y-112065000I-218750J0D01*
G01*
X117738750Y-112065000D01*
G75*
G02*
X117520000Y-111846250I0J218750D01*
G01*
G37*
G04 #@! TD.AperFunction*
G04 #@! TA.AperFunction,SMDPad,CuDef*
G36*
G01*
X115945000Y-111846250D02*
X115945000Y-111333750D01*
G75*
G02*
X116163750Y-111115000I218750J0D01*
G01*
X116601250Y-111115000D01*
G75*
G02*
X116820000Y-111333750I0J-218750D01*
G01*
X116820000Y-111846250D01*
G75*
G02*
X116601250Y-112065000I-218750J0D01*
G01*
X116163750Y-112065000D01*
G75*
G02*
X115945000Y-111846250I0J218750D01*
G01*
G37*
G04 #@! TD.AperFunction*
G04 #@! TA.AperFunction,SMDPad,CuDef*
G36*
G01*
X128620000Y-113446250D02*
X128620000Y-112933750D01*
G75*
G02*
X128838750Y-112715000I218750J0D01*
G01*
X129276250Y-112715000D01*
G75*
G02*
X129495000Y-112933750I0J-218750D01*
G01*
X129495000Y-113446250D01*
G75*
G02*
X129276250Y-113665000I-218750J0D01*
G01*
X128838750Y-113665000D01*
G75*
G02*
X128620000Y-113446250I0J218750D01*
G01*
G37*
G04 #@! TD.AperFunction*
G04 #@! TA.AperFunction,SMDPad,CuDef*
G36*
G01*
X127045000Y-113446250D02*
X127045000Y-112933750D01*
G75*
G02*
X127263750Y-112715000I218750J0D01*
G01*
X127701250Y-112715000D01*
G75*
G02*
X127920000Y-112933750I0J-218750D01*
G01*
X127920000Y-113446250D01*
G75*
G02*
X127701250Y-113665000I-218750J0D01*
G01*
X127263750Y-113665000D01*
G75*
G02*
X127045000Y-113446250I0J218750D01*
G01*
G37*
G04 #@! TD.AperFunction*
G04 #@! TA.AperFunction,SMDPad,CuDef*
G36*
G01*
X91940000Y-97106250D02*
X91940000Y-96593750D01*
G75*
G02*
X92158750Y-96375000I218750J0D01*
G01*
X92596250Y-96375000D01*
G75*
G02*
X92815000Y-96593750I0J-218750D01*
G01*
X92815000Y-97106250D01*
G75*
G02*
X92596250Y-97325000I-218750J0D01*
G01*
X92158750Y-97325000D01*
G75*
G02*
X91940000Y-97106250I0J218750D01*
G01*
G37*
G04 #@! TD.AperFunction*
G04 #@! TA.AperFunction,SMDPad,CuDef*
G36*
G01*
X90365000Y-97106250D02*
X90365000Y-96593750D01*
G75*
G02*
X90583750Y-96375000I218750J0D01*
G01*
X91021250Y-96375000D01*
G75*
G02*
X91240000Y-96593750I0J-218750D01*
G01*
X91240000Y-97106250D01*
G75*
G02*
X91021250Y-97325000I-218750J0D01*
G01*
X90583750Y-97325000D01*
G75*
G02*
X90365000Y-97106250I0J218750D01*
G01*
G37*
G04 #@! TD.AperFunction*
G04 #@! TA.AperFunction,SMDPad,CuDef*
G36*
G01*
X128630000Y-114966250D02*
X128630000Y-114453750D01*
G75*
G02*
X128848750Y-114235000I218750J0D01*
G01*
X129286250Y-114235000D01*
G75*
G02*
X129505000Y-114453750I0J-218750D01*
G01*
X129505000Y-114966250D01*
G75*
G02*
X129286250Y-115185000I-218750J0D01*
G01*
X128848750Y-115185000D01*
G75*
G02*
X128630000Y-114966250I0J218750D01*
G01*
G37*
G04 #@! TD.AperFunction*
G04 #@! TA.AperFunction,SMDPad,CuDef*
G36*
G01*
X127055000Y-114966250D02*
X127055000Y-114453750D01*
G75*
G02*
X127273750Y-114235000I218750J0D01*
G01*
X127711250Y-114235000D01*
G75*
G02*
X127930000Y-114453750I0J-218750D01*
G01*
X127930000Y-114966250D01*
G75*
G02*
X127711250Y-115185000I-218750J0D01*
G01*
X127273750Y-115185000D01*
G75*
G02*
X127055000Y-114966250I0J218750D01*
G01*
G37*
G04 #@! TD.AperFunction*
G04 #@! TA.AperFunction,SMDPad,CuDef*
G36*
G01*
X117510000Y-110296250D02*
X117510000Y-109783750D01*
G75*
G02*
X117728750Y-109565000I218750J0D01*
G01*
X118166250Y-109565000D01*
G75*
G02*
X118385000Y-109783750I0J-218750D01*
G01*
X118385000Y-110296250D01*
G75*
G02*
X118166250Y-110515000I-218750J0D01*
G01*
X117728750Y-110515000D01*
G75*
G02*
X117510000Y-110296250I0J218750D01*
G01*
G37*
G04 #@! TD.AperFunction*
G04 #@! TA.AperFunction,SMDPad,CuDef*
G36*
G01*
X115935000Y-110296250D02*
X115935000Y-109783750D01*
G75*
G02*
X116153750Y-109565000I218750J0D01*
G01*
X116591250Y-109565000D01*
G75*
G02*
X116810000Y-109783750I0J-218750D01*
G01*
X116810000Y-110296250D01*
G75*
G02*
X116591250Y-110515000I-218750J0D01*
G01*
X116153750Y-110515000D01*
G75*
G02*
X115935000Y-110296250I0J218750D01*
G01*
G37*
G04 #@! TD.AperFunction*
G04 #@! TA.AperFunction,SMDPad,CuDef*
G36*
G01*
X104756250Y-107500000D02*
X104243750Y-107500000D01*
G75*
G02*
X104025000Y-107281250I0J218750D01*
G01*
X104025000Y-106843750D01*
G75*
G02*
X104243750Y-106625000I218750J0D01*
G01*
X104756250Y-106625000D01*
G75*
G02*
X104975000Y-106843750I0J-218750D01*
G01*
X104975000Y-107281250D01*
G75*
G02*
X104756250Y-107500000I-218750J0D01*
G01*
G37*
G04 #@! TD.AperFunction*
G04 #@! TA.AperFunction,SMDPad,CuDef*
G36*
G01*
X104756250Y-109075000D02*
X104243750Y-109075000D01*
G75*
G02*
X104025000Y-108856250I0J218750D01*
G01*
X104025000Y-108418750D01*
G75*
G02*
X104243750Y-108200000I218750J0D01*
G01*
X104756250Y-108200000D01*
G75*
G02*
X104975000Y-108418750I0J-218750D01*
G01*
X104975000Y-108856250D01*
G75*
G02*
X104756250Y-109075000I-218750J0D01*
G01*
G37*
G04 #@! TD.AperFunction*
G04 #@! TA.AperFunction,SMDPad,CuDef*
G36*
G01*
X84843750Y-124790000D02*
X85356250Y-124790000D01*
G75*
G02*
X85575000Y-125008750I0J-218750D01*
G01*
X85575000Y-125446250D01*
G75*
G02*
X85356250Y-125665000I-218750J0D01*
G01*
X84843750Y-125665000D01*
G75*
G02*
X84625000Y-125446250I0J218750D01*
G01*
X84625000Y-125008750D01*
G75*
G02*
X84843750Y-124790000I218750J0D01*
G01*
G37*
G04 #@! TD.AperFunction*
G04 #@! TA.AperFunction,SMDPad,CuDef*
G36*
G01*
X84843750Y-123215000D02*
X85356250Y-123215000D01*
G75*
G02*
X85575000Y-123433750I0J-218750D01*
G01*
X85575000Y-123871250D01*
G75*
G02*
X85356250Y-124090000I-218750J0D01*
G01*
X84843750Y-124090000D01*
G75*
G02*
X84625000Y-123871250I0J218750D01*
G01*
X84625000Y-123433750D01*
G75*
G02*
X84843750Y-123215000I218750J0D01*
G01*
G37*
G04 #@! TD.AperFunction*
G04 #@! TA.AperFunction,SMDPad,CuDef*
G36*
G01*
X122066250Y-123390000D02*
X121553750Y-123390000D01*
G75*
G02*
X121335000Y-123171250I0J218750D01*
G01*
X121335000Y-122733750D01*
G75*
G02*
X121553750Y-122515000I218750J0D01*
G01*
X122066250Y-122515000D01*
G75*
G02*
X122285000Y-122733750I0J-218750D01*
G01*
X122285000Y-123171250D01*
G75*
G02*
X122066250Y-123390000I-218750J0D01*
G01*
G37*
G04 #@! TD.AperFunction*
G04 #@! TA.AperFunction,SMDPad,CuDef*
G36*
G01*
X122066250Y-124965000D02*
X121553750Y-124965000D01*
G75*
G02*
X121335000Y-124746250I0J218750D01*
G01*
X121335000Y-124308750D01*
G75*
G02*
X121553750Y-124090000I218750J0D01*
G01*
X122066250Y-124090000D01*
G75*
G02*
X122285000Y-124308750I0J-218750D01*
G01*
X122285000Y-124746250D01*
G75*
G02*
X122066250Y-124965000I-218750J0D01*
G01*
G37*
G04 #@! TD.AperFunction*
G04 #@! TA.AperFunction,SMDPad,CuDef*
G36*
G01*
X123596250Y-123390000D02*
X123083750Y-123390000D01*
G75*
G02*
X122865000Y-123171250I0J218750D01*
G01*
X122865000Y-122733750D01*
G75*
G02*
X123083750Y-122515000I218750J0D01*
G01*
X123596250Y-122515000D01*
G75*
G02*
X123815000Y-122733750I0J-218750D01*
G01*
X123815000Y-123171250D01*
G75*
G02*
X123596250Y-123390000I-218750J0D01*
G01*
G37*
G04 #@! TD.AperFunction*
G04 #@! TA.AperFunction,SMDPad,CuDef*
G36*
G01*
X123596250Y-124965000D02*
X123083750Y-124965000D01*
G75*
G02*
X122865000Y-124746250I0J218750D01*
G01*
X122865000Y-124308750D01*
G75*
G02*
X123083750Y-124090000I218750J0D01*
G01*
X123596250Y-124090000D01*
G75*
G02*
X123815000Y-124308750I0J-218750D01*
G01*
X123815000Y-124746250D01*
G75*
G02*
X123596250Y-124965000I-218750J0D01*
G01*
G37*
G04 #@! TD.AperFunction*
G04 #@! TA.AperFunction,SMDPad,CuDef*
G36*
G01*
X120536250Y-123400000D02*
X120023750Y-123400000D01*
G75*
G02*
X119805000Y-123181250I0J218750D01*
G01*
X119805000Y-122743750D01*
G75*
G02*
X120023750Y-122525000I218750J0D01*
G01*
X120536250Y-122525000D01*
G75*
G02*
X120755000Y-122743750I0J-218750D01*
G01*
X120755000Y-123181250D01*
G75*
G02*
X120536250Y-123400000I-218750J0D01*
G01*
G37*
G04 #@! TD.AperFunction*
G04 #@! TA.AperFunction,SMDPad,CuDef*
G36*
G01*
X120536250Y-124975000D02*
X120023750Y-124975000D01*
G75*
G02*
X119805000Y-124756250I0J218750D01*
G01*
X119805000Y-124318750D01*
G75*
G02*
X120023750Y-124100000I218750J0D01*
G01*
X120536250Y-124100000D01*
G75*
G02*
X120755000Y-124318750I0J-218750D01*
G01*
X120755000Y-124756250D01*
G75*
G02*
X120536250Y-124975000I-218750J0D01*
G01*
G37*
G04 #@! TD.AperFunction*
G04 #@! TA.AperFunction,SMDPad,CuDef*
G36*
G01*
X97910001Y-110550000D02*
X97009999Y-110550000D01*
G75*
G02*
X96760000Y-110300001I0J249999D01*
G01*
X96760000Y-109649999D01*
G75*
G02*
X97009999Y-109400000I249999J0D01*
G01*
X97910001Y-109400000D01*
G75*
G02*
X98160000Y-109649999I0J-249999D01*
G01*
X98160000Y-110300001D01*
G75*
G02*
X97910001Y-110550000I-249999J0D01*
G01*
G37*
G04 #@! TD.AperFunction*
G04 #@! TA.AperFunction,SMDPad,CuDef*
G36*
G01*
X97910001Y-112600000D02*
X97009999Y-112600000D01*
G75*
G02*
X96760000Y-112350001I0J249999D01*
G01*
X96760000Y-111699999D01*
G75*
G02*
X97009999Y-111450000I249999J0D01*
G01*
X97910001Y-111450000D01*
G75*
G02*
X98160000Y-111699999I0J-249999D01*
G01*
X98160000Y-112350001D01*
G75*
G02*
X97910001Y-112600000I-249999J0D01*
G01*
G37*
G04 #@! TD.AperFunction*
D24*
X122720000Y-108270000D03*
G04 #@! TA.AperFunction,SMDPad,CuDef*
G36*
G01*
X119907500Y-106395000D02*
X120657500Y-106395000D01*
G75*
G02*
X120720000Y-106457500I0J-62500D01*
G01*
X120720000Y-106582500D01*
G75*
G02*
X120657500Y-106645000I-62500J0D01*
G01*
X119907500Y-106645000D01*
G75*
G02*
X119845000Y-106582500I0J62500D01*
G01*
X119845000Y-106457500D01*
G75*
G02*
X119907500Y-106395000I62500J0D01*
G01*
G37*
G04 #@! TD.AperFunction*
G04 #@! TA.AperFunction,SMDPad,CuDef*
G36*
G01*
X119907500Y-106895000D02*
X120657500Y-106895000D01*
G75*
G02*
X120720000Y-106957500I0J-62500D01*
G01*
X120720000Y-107082500D01*
G75*
G02*
X120657500Y-107145000I-62500J0D01*
G01*
X119907500Y-107145000D01*
G75*
G02*
X119845000Y-107082500I0J62500D01*
G01*
X119845000Y-106957500D01*
G75*
G02*
X119907500Y-106895000I62500J0D01*
G01*
G37*
G04 #@! TD.AperFunction*
G04 #@! TA.AperFunction,SMDPad,CuDef*
G36*
G01*
X119907500Y-107395000D02*
X120657500Y-107395000D01*
G75*
G02*
X120720000Y-107457500I0J-62500D01*
G01*
X120720000Y-107582500D01*
G75*
G02*
X120657500Y-107645000I-62500J0D01*
G01*
X119907500Y-107645000D01*
G75*
G02*
X119845000Y-107582500I0J62500D01*
G01*
X119845000Y-107457500D01*
G75*
G02*
X119907500Y-107395000I62500J0D01*
G01*
G37*
G04 #@! TD.AperFunction*
G04 #@! TA.AperFunction,SMDPad,CuDef*
G36*
G01*
X119907500Y-107895000D02*
X120657500Y-107895000D01*
G75*
G02*
X120720000Y-107957500I0J-62500D01*
G01*
X120720000Y-108082500D01*
G75*
G02*
X120657500Y-108145000I-62500J0D01*
G01*
X119907500Y-108145000D01*
G75*
G02*
X119845000Y-108082500I0J62500D01*
G01*
X119845000Y-107957500D01*
G75*
G02*
X119907500Y-107895000I62500J0D01*
G01*
G37*
G04 #@! TD.AperFunction*
G04 #@! TA.AperFunction,SMDPad,CuDef*
G36*
G01*
X119907500Y-108395000D02*
X120657500Y-108395000D01*
G75*
G02*
X120720000Y-108457500I0J-62500D01*
G01*
X120720000Y-108582500D01*
G75*
G02*
X120657500Y-108645000I-62500J0D01*
G01*
X119907500Y-108645000D01*
G75*
G02*
X119845000Y-108582500I0J62500D01*
G01*
X119845000Y-108457500D01*
G75*
G02*
X119907500Y-108395000I62500J0D01*
G01*
G37*
G04 #@! TD.AperFunction*
G04 #@! TA.AperFunction,SMDPad,CuDef*
G36*
G01*
X119907500Y-108895000D02*
X120657500Y-108895000D01*
G75*
G02*
X120720000Y-108957500I0J-62500D01*
G01*
X120720000Y-109082500D01*
G75*
G02*
X120657500Y-109145000I-62500J0D01*
G01*
X119907500Y-109145000D01*
G75*
G02*
X119845000Y-109082500I0J62500D01*
G01*
X119845000Y-108957500D01*
G75*
G02*
X119907500Y-108895000I62500J0D01*
G01*
G37*
G04 #@! TD.AperFunction*
G04 #@! TA.AperFunction,SMDPad,CuDef*
G36*
G01*
X119907500Y-109395000D02*
X120657500Y-109395000D01*
G75*
G02*
X120720000Y-109457500I0J-62500D01*
G01*
X120720000Y-109582500D01*
G75*
G02*
X120657500Y-109645000I-62500J0D01*
G01*
X119907500Y-109645000D01*
G75*
G02*
X119845000Y-109582500I0J62500D01*
G01*
X119845000Y-109457500D01*
G75*
G02*
X119907500Y-109395000I62500J0D01*
G01*
G37*
G04 #@! TD.AperFunction*
G04 #@! TA.AperFunction,SMDPad,CuDef*
G36*
G01*
X119907500Y-109895000D02*
X120657500Y-109895000D01*
G75*
G02*
X120720000Y-109957500I0J-62500D01*
G01*
X120720000Y-110082500D01*
G75*
G02*
X120657500Y-110145000I-62500J0D01*
G01*
X119907500Y-110145000D01*
G75*
G02*
X119845000Y-110082500I0J62500D01*
G01*
X119845000Y-109957500D01*
G75*
G02*
X119907500Y-109895000I62500J0D01*
G01*
G37*
G04 #@! TD.AperFunction*
G04 #@! TA.AperFunction,SMDPad,CuDef*
G36*
G01*
X120907500Y-110270000D02*
X121032500Y-110270000D01*
G75*
G02*
X121095000Y-110332500I0J-62500D01*
G01*
X121095000Y-111082500D01*
G75*
G02*
X121032500Y-111145000I-62500J0D01*
G01*
X120907500Y-111145000D01*
G75*
G02*
X120845000Y-111082500I0J62500D01*
G01*
X120845000Y-110332500D01*
G75*
G02*
X120907500Y-110270000I62500J0D01*
G01*
G37*
G04 #@! TD.AperFunction*
G04 #@! TA.AperFunction,SMDPad,CuDef*
G36*
G01*
X121407500Y-110270000D02*
X121532500Y-110270000D01*
G75*
G02*
X121595000Y-110332500I0J-62500D01*
G01*
X121595000Y-111082500D01*
G75*
G02*
X121532500Y-111145000I-62500J0D01*
G01*
X121407500Y-111145000D01*
G75*
G02*
X121345000Y-111082500I0J62500D01*
G01*
X121345000Y-110332500D01*
G75*
G02*
X121407500Y-110270000I62500J0D01*
G01*
G37*
G04 #@! TD.AperFunction*
G04 #@! TA.AperFunction,SMDPad,CuDef*
G36*
G01*
X121907500Y-110270000D02*
X122032500Y-110270000D01*
G75*
G02*
X122095000Y-110332500I0J-62500D01*
G01*
X122095000Y-111082500D01*
G75*
G02*
X122032500Y-111145000I-62500J0D01*
G01*
X121907500Y-111145000D01*
G75*
G02*
X121845000Y-111082500I0J62500D01*
G01*
X121845000Y-110332500D01*
G75*
G02*
X121907500Y-110270000I62500J0D01*
G01*
G37*
G04 #@! TD.AperFunction*
G04 #@! TA.AperFunction,SMDPad,CuDef*
G36*
G01*
X122407500Y-110270000D02*
X122532500Y-110270000D01*
G75*
G02*
X122595000Y-110332500I0J-62500D01*
G01*
X122595000Y-111082500D01*
G75*
G02*
X122532500Y-111145000I-62500J0D01*
G01*
X122407500Y-111145000D01*
G75*
G02*
X122345000Y-111082500I0J62500D01*
G01*
X122345000Y-110332500D01*
G75*
G02*
X122407500Y-110270000I62500J0D01*
G01*
G37*
G04 #@! TD.AperFunction*
G04 #@! TA.AperFunction,SMDPad,CuDef*
G36*
G01*
X122907500Y-110270000D02*
X123032500Y-110270000D01*
G75*
G02*
X123095000Y-110332500I0J-62500D01*
G01*
X123095000Y-111082500D01*
G75*
G02*
X123032500Y-111145000I-62500J0D01*
G01*
X122907500Y-111145000D01*
G75*
G02*
X122845000Y-111082500I0J62500D01*
G01*
X122845000Y-110332500D01*
G75*
G02*
X122907500Y-110270000I62500J0D01*
G01*
G37*
G04 #@! TD.AperFunction*
G04 #@! TA.AperFunction,SMDPad,CuDef*
G36*
G01*
X123407500Y-110270000D02*
X123532500Y-110270000D01*
G75*
G02*
X123595000Y-110332500I0J-62500D01*
G01*
X123595000Y-111082500D01*
G75*
G02*
X123532500Y-111145000I-62500J0D01*
G01*
X123407500Y-111145000D01*
G75*
G02*
X123345000Y-111082500I0J62500D01*
G01*
X123345000Y-110332500D01*
G75*
G02*
X123407500Y-110270000I62500J0D01*
G01*
G37*
G04 #@! TD.AperFunction*
G04 #@! TA.AperFunction,SMDPad,CuDef*
G36*
G01*
X123907500Y-110270000D02*
X124032500Y-110270000D01*
G75*
G02*
X124095000Y-110332500I0J-62500D01*
G01*
X124095000Y-111082500D01*
G75*
G02*
X124032500Y-111145000I-62500J0D01*
G01*
X123907500Y-111145000D01*
G75*
G02*
X123845000Y-111082500I0J62500D01*
G01*
X123845000Y-110332500D01*
G75*
G02*
X123907500Y-110270000I62500J0D01*
G01*
G37*
G04 #@! TD.AperFunction*
G04 #@! TA.AperFunction,SMDPad,CuDef*
G36*
G01*
X124407500Y-110270000D02*
X124532500Y-110270000D01*
G75*
G02*
X124595000Y-110332500I0J-62500D01*
G01*
X124595000Y-111082500D01*
G75*
G02*
X124532500Y-111145000I-62500J0D01*
G01*
X124407500Y-111145000D01*
G75*
G02*
X124345000Y-111082500I0J62500D01*
G01*
X124345000Y-110332500D01*
G75*
G02*
X124407500Y-110270000I62500J0D01*
G01*
G37*
G04 #@! TD.AperFunction*
G04 #@! TA.AperFunction,SMDPad,CuDef*
G36*
G01*
X124782500Y-109895000D02*
X125532500Y-109895000D01*
G75*
G02*
X125595000Y-109957500I0J-62500D01*
G01*
X125595000Y-110082500D01*
G75*
G02*
X125532500Y-110145000I-62500J0D01*
G01*
X124782500Y-110145000D01*
G75*
G02*
X124720000Y-110082500I0J62500D01*
G01*
X124720000Y-109957500D01*
G75*
G02*
X124782500Y-109895000I62500J0D01*
G01*
G37*
G04 #@! TD.AperFunction*
G04 #@! TA.AperFunction,SMDPad,CuDef*
G36*
G01*
X124782500Y-109395000D02*
X125532500Y-109395000D01*
G75*
G02*
X125595000Y-109457500I0J-62500D01*
G01*
X125595000Y-109582500D01*
G75*
G02*
X125532500Y-109645000I-62500J0D01*
G01*
X124782500Y-109645000D01*
G75*
G02*
X124720000Y-109582500I0J62500D01*
G01*
X124720000Y-109457500D01*
G75*
G02*
X124782500Y-109395000I62500J0D01*
G01*
G37*
G04 #@! TD.AperFunction*
G04 #@! TA.AperFunction,SMDPad,CuDef*
G36*
G01*
X124782500Y-108895000D02*
X125532500Y-108895000D01*
G75*
G02*
X125595000Y-108957500I0J-62500D01*
G01*
X125595000Y-109082500D01*
G75*
G02*
X125532500Y-109145000I-62500J0D01*
G01*
X124782500Y-109145000D01*
G75*
G02*
X124720000Y-109082500I0J62500D01*
G01*
X124720000Y-108957500D01*
G75*
G02*
X124782500Y-108895000I62500J0D01*
G01*
G37*
G04 #@! TD.AperFunction*
G04 #@! TA.AperFunction,SMDPad,CuDef*
G36*
G01*
X124782500Y-108395000D02*
X125532500Y-108395000D01*
G75*
G02*
X125595000Y-108457500I0J-62500D01*
G01*
X125595000Y-108582500D01*
G75*
G02*
X125532500Y-108645000I-62500J0D01*
G01*
X124782500Y-108645000D01*
G75*
G02*
X124720000Y-108582500I0J62500D01*
G01*
X124720000Y-108457500D01*
G75*
G02*
X124782500Y-108395000I62500J0D01*
G01*
G37*
G04 #@! TD.AperFunction*
G04 #@! TA.AperFunction,SMDPad,CuDef*
G36*
G01*
X124782500Y-107895000D02*
X125532500Y-107895000D01*
G75*
G02*
X125595000Y-107957500I0J-62500D01*
G01*
X125595000Y-108082500D01*
G75*
G02*
X125532500Y-108145000I-62500J0D01*
G01*
X124782500Y-108145000D01*
G75*
G02*
X124720000Y-108082500I0J62500D01*
G01*
X124720000Y-107957500D01*
G75*
G02*
X124782500Y-107895000I62500J0D01*
G01*
G37*
G04 #@! TD.AperFunction*
G04 #@! TA.AperFunction,SMDPad,CuDef*
G36*
G01*
X124782500Y-107395000D02*
X125532500Y-107395000D01*
G75*
G02*
X125595000Y-107457500I0J-62500D01*
G01*
X125595000Y-107582500D01*
G75*
G02*
X125532500Y-107645000I-62500J0D01*
G01*
X124782500Y-107645000D01*
G75*
G02*
X124720000Y-107582500I0J62500D01*
G01*
X124720000Y-107457500D01*
G75*
G02*
X124782500Y-107395000I62500J0D01*
G01*
G37*
G04 #@! TD.AperFunction*
G04 #@! TA.AperFunction,SMDPad,CuDef*
G36*
G01*
X124782500Y-106895000D02*
X125532500Y-106895000D01*
G75*
G02*
X125595000Y-106957500I0J-62500D01*
G01*
X125595000Y-107082500D01*
G75*
G02*
X125532500Y-107145000I-62500J0D01*
G01*
X124782500Y-107145000D01*
G75*
G02*
X124720000Y-107082500I0J62500D01*
G01*
X124720000Y-106957500D01*
G75*
G02*
X124782500Y-106895000I62500J0D01*
G01*
G37*
G04 #@! TD.AperFunction*
G04 #@! TA.AperFunction,SMDPad,CuDef*
G36*
G01*
X124782500Y-106395000D02*
X125532500Y-106395000D01*
G75*
G02*
X125595000Y-106457500I0J-62500D01*
G01*
X125595000Y-106582500D01*
G75*
G02*
X125532500Y-106645000I-62500J0D01*
G01*
X124782500Y-106645000D01*
G75*
G02*
X124720000Y-106582500I0J62500D01*
G01*
X124720000Y-106457500D01*
G75*
G02*
X124782500Y-106395000I62500J0D01*
G01*
G37*
G04 #@! TD.AperFunction*
G04 #@! TA.AperFunction,SMDPad,CuDef*
G36*
G01*
X124407500Y-105395000D02*
X124532500Y-105395000D01*
G75*
G02*
X124595000Y-105457500I0J-62500D01*
G01*
X124595000Y-106207500D01*
G75*
G02*
X124532500Y-106270000I-62500J0D01*
G01*
X124407500Y-106270000D01*
G75*
G02*
X124345000Y-106207500I0J62500D01*
G01*
X124345000Y-105457500D01*
G75*
G02*
X124407500Y-105395000I62500J0D01*
G01*
G37*
G04 #@! TD.AperFunction*
G04 #@! TA.AperFunction,SMDPad,CuDef*
G36*
G01*
X123907500Y-105395000D02*
X124032500Y-105395000D01*
G75*
G02*
X124095000Y-105457500I0J-62500D01*
G01*
X124095000Y-106207500D01*
G75*
G02*
X124032500Y-106270000I-62500J0D01*
G01*
X123907500Y-106270000D01*
G75*
G02*
X123845000Y-106207500I0J62500D01*
G01*
X123845000Y-105457500D01*
G75*
G02*
X123907500Y-105395000I62500J0D01*
G01*
G37*
G04 #@! TD.AperFunction*
G04 #@! TA.AperFunction,SMDPad,CuDef*
G36*
G01*
X123407500Y-105395000D02*
X123532500Y-105395000D01*
G75*
G02*
X123595000Y-105457500I0J-62500D01*
G01*
X123595000Y-106207500D01*
G75*
G02*
X123532500Y-106270000I-62500J0D01*
G01*
X123407500Y-106270000D01*
G75*
G02*
X123345000Y-106207500I0J62500D01*
G01*
X123345000Y-105457500D01*
G75*
G02*
X123407500Y-105395000I62500J0D01*
G01*
G37*
G04 #@! TD.AperFunction*
G04 #@! TA.AperFunction,SMDPad,CuDef*
G36*
G01*
X122907500Y-105395000D02*
X123032500Y-105395000D01*
G75*
G02*
X123095000Y-105457500I0J-62500D01*
G01*
X123095000Y-106207500D01*
G75*
G02*
X123032500Y-106270000I-62500J0D01*
G01*
X122907500Y-106270000D01*
G75*
G02*
X122845000Y-106207500I0J62500D01*
G01*
X122845000Y-105457500D01*
G75*
G02*
X122907500Y-105395000I62500J0D01*
G01*
G37*
G04 #@! TD.AperFunction*
G04 #@! TA.AperFunction,SMDPad,CuDef*
G36*
G01*
X122407500Y-105395000D02*
X122532500Y-105395000D01*
G75*
G02*
X122595000Y-105457500I0J-62500D01*
G01*
X122595000Y-106207500D01*
G75*
G02*
X122532500Y-106270000I-62500J0D01*
G01*
X122407500Y-106270000D01*
G75*
G02*
X122345000Y-106207500I0J62500D01*
G01*
X122345000Y-105457500D01*
G75*
G02*
X122407500Y-105395000I62500J0D01*
G01*
G37*
G04 #@! TD.AperFunction*
G04 #@! TA.AperFunction,SMDPad,CuDef*
G36*
G01*
X121907500Y-105395000D02*
X122032500Y-105395000D01*
G75*
G02*
X122095000Y-105457500I0J-62500D01*
G01*
X122095000Y-106207500D01*
G75*
G02*
X122032500Y-106270000I-62500J0D01*
G01*
X121907500Y-106270000D01*
G75*
G02*
X121845000Y-106207500I0J62500D01*
G01*
X121845000Y-105457500D01*
G75*
G02*
X121907500Y-105395000I62500J0D01*
G01*
G37*
G04 #@! TD.AperFunction*
G04 #@! TA.AperFunction,SMDPad,CuDef*
G36*
G01*
X121407500Y-105395000D02*
X121532500Y-105395000D01*
G75*
G02*
X121595000Y-105457500I0J-62500D01*
G01*
X121595000Y-106207500D01*
G75*
G02*
X121532500Y-106270000I-62500J0D01*
G01*
X121407500Y-106270000D01*
G75*
G02*
X121345000Y-106207500I0J62500D01*
G01*
X121345000Y-105457500D01*
G75*
G02*
X121407500Y-105395000I62500J0D01*
G01*
G37*
G04 #@! TD.AperFunction*
G04 #@! TA.AperFunction,SMDPad,CuDef*
G36*
G01*
X120907500Y-105395000D02*
X121032500Y-105395000D01*
G75*
G02*
X121095000Y-105457500I0J-62500D01*
G01*
X121095000Y-106207500D01*
G75*
G02*
X121032500Y-106270000I-62500J0D01*
G01*
X120907500Y-106270000D01*
G75*
G02*
X120845000Y-106207500I0J62500D01*
G01*
X120845000Y-105457500D01*
G75*
G02*
X120907500Y-105395000I62500J0D01*
G01*
G37*
G04 #@! TD.AperFunction*
D25*
X116940000Y-68820000D03*
X116940000Y-67870000D03*
X116940000Y-69770000D03*
X119140000Y-69770000D03*
X119140000Y-68820000D03*
X119140000Y-67870000D03*
G04 #@! TA.AperFunction,SMDPad,CuDef*
G36*
G01*
X110257538Y-115347969D02*
X108807969Y-116797538D01*
G75*
G02*
X108454415Y-116797538I-176777J176777D01*
G01*
X107340722Y-115683845D01*
G75*
G02*
X107340722Y-115330291I176777J176777D01*
G01*
X108790291Y-113880722D01*
G75*
G02*
X109143845Y-113880722I176777J-176777D01*
G01*
X110257538Y-114994415D01*
G75*
G02*
X110257538Y-115347969I-176777J-176777D01*
G01*
G37*
G04 #@! TD.AperFunction*
G04 #@! TA.AperFunction,SMDPad,CuDef*
G36*
G01*
X114659278Y-119749709D02*
X113209709Y-121199278D01*
G75*
G02*
X112856155Y-121199278I-176777J176777D01*
G01*
X111742462Y-120085585D01*
G75*
G02*
X111742462Y-119732031I176777J176777D01*
G01*
X113192031Y-118282462D01*
G75*
G02*
X113545585Y-118282462I176777J-176777D01*
G01*
X114659278Y-119396155D01*
G75*
G02*
X114659278Y-119749709I-176777J-176777D01*
G01*
G37*
G04 #@! TD.AperFunction*
D26*
X92495000Y-99010000D03*
X91445000Y-99010000D03*
D27*
X91320000Y-99910000D03*
X91970000Y-99910000D03*
X92620000Y-99910000D03*
X92620000Y-98110000D03*
X91970000Y-98110000D03*
X91320000Y-98110000D03*
G04 #@! TA.AperFunction,SMDPad,CuDef*
G36*
G01*
X103275000Y-105355001D02*
X103275000Y-102504999D01*
G75*
G02*
X103524999Y-102255000I249999J0D01*
G01*
X104375001Y-102255000D01*
G75*
G02*
X104625000Y-102504999I0J-249999D01*
G01*
X104625000Y-105355001D01*
G75*
G02*
X104375001Y-105605000I-249999J0D01*
G01*
X103524999Y-105605000D01*
G75*
G02*
X103275000Y-105355001I0J249999D01*
G01*
G37*
G04 #@! TD.AperFunction*
G04 #@! TA.AperFunction,SMDPad,CuDef*
G36*
G01*
X97475000Y-105355001D02*
X97475000Y-102504999D01*
G75*
G02*
X97724999Y-102255000I249999J0D01*
G01*
X98575001Y-102255000D01*
G75*
G02*
X98825000Y-102504999I0J-249999D01*
G01*
X98825000Y-105355001D01*
G75*
G02*
X98575001Y-105605000I-249999J0D01*
G01*
X97724999Y-105605000D01*
G75*
G02*
X97475000Y-105355001I0J249999D01*
G01*
G37*
G04 #@! TD.AperFunction*
D15*
X89000000Y-68960000D03*
D16*
X86460000Y-68960000D03*
D28*
X128635001Y-103425001D03*
D29*
X128635001Y-102425001D03*
D28*
X128630000Y-105570000D03*
D29*
X128630000Y-106570000D03*
G04 #@! TA.AperFunction,SMDPad,CuDef*
G36*
G01*
X127920000Y-109863750D02*
X127920000Y-110376250D01*
G75*
G02*
X127701250Y-110595000I-218750J0D01*
G01*
X127263750Y-110595000D01*
G75*
G02*
X127045000Y-110376250I0J218750D01*
G01*
X127045000Y-109863750D01*
G75*
G02*
X127263750Y-109645000I218750J0D01*
G01*
X127701250Y-109645000D01*
G75*
G02*
X127920000Y-109863750I0J-218750D01*
G01*
G37*
G04 #@! TD.AperFunction*
G04 #@! TA.AperFunction,SMDPad,CuDef*
G36*
G01*
X129495000Y-109863750D02*
X129495000Y-110376250D01*
G75*
G02*
X129276250Y-110595000I-218750J0D01*
G01*
X128838750Y-110595000D01*
G75*
G02*
X128620000Y-110376250I0J218750D01*
G01*
X128620000Y-109863750D01*
G75*
G02*
X128838750Y-109645000I218750J0D01*
G01*
X129276250Y-109645000D01*
G75*
G02*
X129495000Y-109863750I0J-218750D01*
G01*
G37*
G04 #@! TD.AperFunction*
G04 #@! TA.AperFunction,SMDPad,CuDef*
G36*
G01*
X100529999Y-70390000D02*
X101430001Y-70390000D01*
G75*
G02*
X101680000Y-70639999I0J-249999D01*
G01*
X101680000Y-71290001D01*
G75*
G02*
X101430001Y-71540000I-249999J0D01*
G01*
X100529999Y-71540000D01*
G75*
G02*
X100280000Y-71290001I0J249999D01*
G01*
X100280000Y-70639999D01*
G75*
G02*
X100529999Y-70390000I249999J0D01*
G01*
G37*
G04 #@! TD.AperFunction*
G04 #@! TA.AperFunction,SMDPad,CuDef*
G36*
G01*
X100529999Y-68340000D02*
X101430001Y-68340000D01*
G75*
G02*
X101680000Y-68589999I0J-249999D01*
G01*
X101680000Y-69240001D01*
G75*
G02*
X101430001Y-69490000I-249999J0D01*
G01*
X100529999Y-69490000D01*
G75*
G02*
X100280000Y-69240001I0J249999D01*
G01*
X100280000Y-68589999D01*
G75*
G02*
X100529999Y-68340000I249999J0D01*
G01*
G37*
G04 #@! TD.AperFunction*
D30*
X113440000Y-105130000D03*
X113790000Y-105130000D03*
X114140000Y-105130000D03*
X114140000Y-106030000D03*
X113790000Y-106030000D03*
X113440000Y-106030000D03*
X113460000Y-110130000D03*
X113810000Y-110130000D03*
X114160000Y-110130000D03*
X114160000Y-109230000D03*
X113810000Y-109230000D03*
X113460000Y-109230000D03*
D31*
X115430000Y-100040000D03*
X117330000Y-100040000D03*
X116380000Y-102040000D03*
G04 #@! TA.AperFunction,SMDPad,CuDef*
G36*
G01*
X91555000Y-103176250D02*
X91555000Y-102663750D01*
G75*
G02*
X91773750Y-102445000I218750J0D01*
G01*
X92211250Y-102445000D01*
G75*
G02*
X92430000Y-102663750I0J-218750D01*
G01*
X92430000Y-103176250D01*
G75*
G02*
X92211250Y-103395000I-218750J0D01*
G01*
X91773750Y-103395000D01*
G75*
G02*
X91555000Y-103176250I0J218750D01*
G01*
G37*
G04 #@! TD.AperFunction*
G04 #@! TA.AperFunction,SMDPad,CuDef*
G36*
G01*
X93130000Y-103176250D02*
X93130000Y-102663750D01*
G75*
G02*
X93348750Y-102445000I218750J0D01*
G01*
X93786250Y-102445000D01*
G75*
G02*
X94005000Y-102663750I0J-218750D01*
G01*
X94005000Y-103176250D01*
G75*
G02*
X93786250Y-103395000I-218750J0D01*
G01*
X93348750Y-103395000D01*
G75*
G02*
X93130000Y-103176250I0J218750D01*
G01*
G37*
G04 #@! TD.AperFunction*
D32*
X99953500Y-108846500D03*
X99253500Y-108846500D03*
X99253500Y-109346500D03*
X99253500Y-109846500D03*
X99253500Y-110346500D03*
X99273250Y-110826750D03*
X99953500Y-109346500D03*
X99953500Y-109846500D03*
X99953500Y-110346500D03*
X99953500Y-110846500D03*
X98553500Y-108846500D03*
X98553500Y-109346500D03*
X98553500Y-109846500D03*
X98553500Y-110346500D03*
X98553500Y-110846500D03*
D33*
X90100000Y-110300000D03*
X90500000Y-109900000D03*
X91000000Y-109400000D03*
X91450000Y-108950000D03*
X92150010Y-108849990D03*
X92149990Y-109650010D03*
X91600000Y-109900000D03*
X91200000Y-110300000D03*
X90700000Y-110800000D03*
D32*
X105372500Y-97030000D03*
X106510000Y-77740000D03*
X113935011Y-112064989D03*
X112935011Y-112064989D03*
X96930000Y-73580000D03*
X96930000Y-92450000D03*
X104502882Y-96215958D03*
X104540000Y-97600000D03*
X104640000Y-78751000D03*
X104630000Y-77460000D03*
X96750000Y-72280000D03*
X96750000Y-72929001D03*
X96090000Y-72929001D03*
X96750000Y-78800000D03*
X96090000Y-78800000D03*
X96750000Y-79449001D03*
X96090000Y-79449001D03*
X106190000Y-72900000D03*
X105530000Y-72900000D03*
X106190000Y-73549001D03*
X105530000Y-73549001D03*
X106190000Y-79420000D03*
X105530000Y-79420000D03*
X106190000Y-80069001D03*
X105530000Y-80069001D03*
X96040999Y-97640000D03*
X96040999Y-98300000D03*
X96690000Y-97640000D03*
X96690000Y-98300000D03*
X96090000Y-91829001D03*
X96750000Y-91829001D03*
X96090000Y-91180000D03*
X96750000Y-91180000D03*
X105530000Y-98949001D03*
X106190000Y-98949001D03*
X105530000Y-98300000D03*
X106190000Y-98300000D03*
X105530000Y-91800999D03*
X106180000Y-91800999D03*
X106190000Y-92460000D03*
X105530000Y-92460000D03*
X96090000Y-72280000D03*
X94300000Y-101820000D03*
X95700000Y-113700000D03*
X102600000Y-113300000D03*
D33*
X115906001Y-119280000D03*
X82891980Y-85390000D03*
D32*
X96930000Y-77480000D03*
X96930000Y-96360000D03*
X96930000Y-74880000D03*
X96930000Y-93750000D03*
X96930000Y-74220000D03*
X96930000Y-94400000D03*
X104769673Y-98139673D03*
X104707938Y-79321408D03*
X96930000Y-93100000D03*
X96930000Y-75530000D03*
X96930000Y-95700000D03*
X96930000Y-76820000D03*
X96930000Y-97000000D03*
X96930000Y-78130000D03*
D33*
X91950000Y-111620000D03*
D32*
X115750000Y-113110000D03*
X92730000Y-105280000D03*
X111930000Y-98980000D03*
X90802500Y-95807500D03*
D33*
X118450000Y-102200000D03*
D32*
X123410000Y-127730000D03*
X102850000Y-114600000D03*
X101950000Y-114650000D03*
X112520000Y-113089989D03*
D33*
X112210000Y-75460000D03*
D32*
X108700000Y-114490000D03*
X108090137Y-114490137D03*
X108700000Y-115030000D03*
X107550137Y-115030137D03*
D33*
X87650000Y-118800000D03*
X91200000Y-116550000D03*
X97900000Y-123300000D03*
X94050000Y-119650000D03*
D32*
X121720000Y-113090000D03*
X122390000Y-113040990D03*
X93130000Y-99010000D03*
X120480000Y-110700000D03*
X119420000Y-110020000D03*
D33*
X123495000Y-104880000D03*
X103400000Y-119300000D03*
X105850000Y-119300000D03*
D32*
X115400000Y-110040000D03*
X113689000Y-106550000D03*
X99960000Y-113401010D03*
X99500000Y-113401010D03*
X100420000Y-113401010D03*
X99040000Y-113401010D03*
X100419007Y-113861010D03*
X100419007Y-114321010D03*
X100419007Y-114781010D03*
X99966418Y-114781010D03*
X99500000Y-114781010D03*
X99040000Y-114781010D03*
X99966418Y-114321010D03*
X99500000Y-114321010D03*
X99040000Y-114321010D03*
X99040000Y-113861010D03*
X99500000Y-113861010D03*
X99966418Y-113861010D03*
X96580000Y-114420000D03*
D33*
X109240487Y-116888158D03*
D32*
X92456000Y-115824000D03*
X112800000Y-116560000D03*
X125520000Y-103230000D03*
X95520000Y-112930000D03*
X125803121Y-107540000D03*
X92590000Y-106340000D03*
X126660000Y-105160000D03*
X128270000Y-111252000D03*
X92964000Y-126492000D03*
D33*
X85090000Y-108966000D03*
D32*
X128270000Y-112776000D03*
X83940000Y-125250000D03*
X128270000Y-114300000D03*
D33*
X120950000Y-114300000D03*
X118210000Y-113089989D03*
D32*
X123520000Y-102050000D03*
X129057500Y-109372500D03*
D33*
X91969998Y-103880000D03*
D32*
X125090000Y-105140000D03*
X115330000Y-106210000D03*
D33*
X94550000Y-115200000D03*
D32*
X100835008Y-115472602D03*
D33*
X120000000Y-125720000D03*
X121820000Y-125340000D03*
X123700000Y-125750000D03*
D32*
X125290000Y-122720000D03*
X125450000Y-110710000D03*
X124800000Y-123140000D03*
X122960000Y-113040989D03*
X125450000Y-111262003D03*
X125703222Y-122354003D03*
D33*
X99750000Y-124750000D03*
D32*
X89910000Y-124850000D03*
X93900000Y-114050000D03*
X115560000Y-105440000D03*
X85930000Y-121870000D03*
X95605713Y-114643951D03*
X115550000Y-103900000D03*
X115480000Y-111088989D03*
X93240000Y-97200000D03*
D33*
X94300000Y-104300000D03*
D32*
X94370000Y-109660000D03*
D34*
X98600000Y-116700000D03*
X98600000Y-117500000D03*
X98600000Y-118300000D03*
X106650000Y-110790000D03*
X107450000Y-110790000D03*
X108250000Y-110790000D03*
D32*
X95120000Y-109190000D03*
D33*
X113960000Y-102900000D03*
D32*
X102300000Y-68920000D03*
X128080286Y-110108927D03*
D33*
X91150000Y-101410000D03*
D32*
X114551001Y-108900000D03*
D35*
X100950000Y-76500000D02*
X100950000Y-95375000D01*
D36*
X99650000Y-80950000D02*
X99650000Y-90925000D01*
X102250000Y-90925000D02*
X102250000Y-80950000D01*
D37*
X102250000Y-98045000D02*
X102250000Y-97490000D01*
X102250000Y-97490000D02*
X102710000Y-97030000D01*
X102710000Y-97030000D02*
X105372500Y-97030000D01*
X106510000Y-77740000D02*
X106050000Y-78200000D01*
X103060000Y-78200000D02*
X102250000Y-77390000D01*
X106050000Y-78200000D02*
X103060000Y-78200000D01*
D38*
X99700010Y-99875010D02*
X99700010Y-106739990D01*
X99650000Y-99825000D02*
X99700010Y-99875010D01*
X98553500Y-107886500D02*
X98553500Y-110846500D01*
X99700010Y-106739990D02*
X98553500Y-107886500D01*
X102250000Y-108550000D02*
X99953500Y-110846500D01*
X102250000Y-99825000D02*
X102250000Y-108550000D01*
X99273250Y-110826750D02*
X99273250Y-109416750D01*
D39*
X100950000Y-107740000D02*
X100950000Y-99825000D01*
D35*
X99273250Y-109416750D02*
X100950000Y-107740000D01*
D38*
X98553500Y-110846500D02*
X99953500Y-110846500D01*
D37*
X119710000Y-99972500D02*
X120185000Y-99972500D01*
D40*
X122970000Y-104470000D02*
X122970000Y-105832500D01*
D38*
X98777501Y-107662499D02*
X99700010Y-106739990D01*
X89328900Y-112111100D02*
X93777501Y-107662499D01*
X80064500Y-112111100D02*
X89328900Y-112111100D01*
X93777501Y-107662499D02*
X92317501Y-107662499D01*
X92317501Y-107662499D02*
X88810000Y-111170000D01*
X88810000Y-111170000D02*
X88783899Y-111196101D01*
X88783899Y-111196101D02*
X81516101Y-111196101D01*
D37*
X120080330Y-99972500D02*
X119710000Y-99972500D01*
X122961500Y-102853670D02*
X120080330Y-99972500D01*
X122961500Y-103886000D02*
X122961500Y-102853670D01*
X122970000Y-103894500D02*
X122961500Y-103886000D01*
X122970000Y-104470000D02*
X122970000Y-103894500D01*
X124142500Y-97307500D02*
X122450000Y-99000000D01*
X124142500Y-97150000D02*
X124142500Y-97307500D01*
D41*
X113460000Y-109230000D02*
X113460000Y-108570000D01*
X114140000Y-107890000D02*
X114140000Y-106500000D01*
X113460000Y-108570000D02*
X114140000Y-107890000D01*
X114140000Y-106500000D02*
X114140000Y-106030000D01*
D37*
X116380000Y-99520000D02*
X116380000Y-102040000D01*
X113462501Y-99239999D02*
X116099999Y-99239999D01*
X116099999Y-99239999D02*
X116380000Y-99520000D01*
X113040000Y-99662500D02*
X113462501Y-99239999D01*
X116380000Y-99520000D02*
X116380000Y-99509998D01*
X116380000Y-99509998D02*
X116649999Y-99239999D01*
X119710000Y-99920000D02*
X119710000Y-99972500D01*
X119029999Y-99239999D02*
X119710000Y-99920000D01*
X116099999Y-99239999D02*
X118249999Y-99239999D01*
X116649999Y-99239999D02*
X118249999Y-99239999D01*
X118249999Y-99239999D02*
X119029999Y-99239999D01*
X96532499Y-105447499D02*
X96532499Y-107662499D01*
X94005000Y-102920000D02*
X96532499Y-105447499D01*
D38*
X93777501Y-107662499D02*
X96532499Y-107662499D01*
D37*
X93567500Y-102920000D02*
X94005000Y-102920000D01*
D38*
X96532499Y-107662499D02*
X98777501Y-107662499D01*
X101165000Y-70965000D02*
X102250000Y-72050000D01*
X100980000Y-70965000D02*
X101165000Y-70965000D01*
X100735000Y-70965000D02*
X99650000Y-72050000D01*
X100980000Y-70965000D02*
X100735000Y-70965000D01*
X100980000Y-72020000D02*
X100950000Y-72050000D01*
X100980000Y-70965000D02*
X100980000Y-72020000D01*
D36*
X111575011Y-112064989D02*
X113935011Y-112064989D01*
X111090000Y-112550000D02*
X111575011Y-112064989D01*
D37*
X96090000Y-91180000D02*
X96100999Y-91180000D01*
X96750000Y-91829001D02*
X96090000Y-91829001D01*
X96750000Y-91180000D02*
X96750000Y-91829001D01*
X105530000Y-91800999D02*
X105530000Y-92460000D01*
X105530000Y-92460000D02*
X106190000Y-92460000D01*
X106190000Y-91810999D02*
X106180000Y-91800999D01*
X106190000Y-92460000D02*
X106190000Y-91810999D01*
X105530000Y-98949001D02*
X105540999Y-98949001D01*
X105530000Y-91800999D02*
X105530999Y-91800999D01*
X96690000Y-98300000D02*
X96690000Y-98289001D01*
D38*
X105860000Y-98630000D02*
X107070000Y-97420000D01*
D37*
X105860000Y-98630000D02*
X106190000Y-98300000D01*
X105540999Y-98949001D02*
X105860000Y-98630000D01*
X105530999Y-91800999D02*
X105865000Y-92135000D01*
X105865000Y-92135000D02*
X106190000Y-92460000D01*
X96355500Y-97954500D02*
X96040999Y-97640000D01*
X96690000Y-98289001D02*
X96355500Y-97954500D01*
X96090000Y-79449001D02*
X96750000Y-79449001D01*
X96750000Y-79449001D02*
X96750000Y-78800000D01*
X96090000Y-78800000D02*
X96100999Y-78800000D01*
X96090000Y-72280000D02*
X96100999Y-72280000D01*
X96750000Y-72929001D02*
X96750000Y-72280000D01*
X106190000Y-73549001D02*
X106190000Y-72900000D01*
X106190000Y-73549001D02*
X106179001Y-73549001D01*
X106190000Y-79420000D02*
X106179001Y-79420000D01*
X105530000Y-79420000D02*
X105540999Y-79420000D01*
D38*
X96420499Y-72599501D02*
X96090499Y-72599501D01*
D37*
X96420499Y-72599501D02*
X96750000Y-72929001D01*
X96100999Y-72280000D02*
X96420499Y-72599501D01*
D38*
X96090499Y-72599501D02*
X95120000Y-73570000D01*
X95120000Y-79980000D02*
X95470000Y-79980000D01*
X95470000Y-79980000D02*
X96375500Y-79074500D01*
D37*
X96100999Y-78800000D02*
X96375500Y-79074500D01*
X96375500Y-79074500D02*
X96750000Y-79449001D01*
D38*
X107586001Y-96903999D02*
X107070000Y-97420000D01*
X105860000Y-73230000D02*
X107586001Y-74956001D01*
D37*
X105860000Y-73230000D02*
X105530000Y-72900000D01*
X106179001Y-73549001D02*
X105860000Y-73230000D01*
D38*
X107463999Y-93733999D02*
X105865000Y-92135000D01*
X107586001Y-93733999D02*
X107463999Y-93733999D01*
D37*
X105880499Y-79759501D02*
X106190000Y-80069001D01*
X105540999Y-79420000D02*
X105880499Y-79759501D01*
D38*
X105846001Y-79766001D02*
X105839501Y-79759501D01*
X107586001Y-79766001D02*
X105846001Y-79766001D01*
X107586001Y-79766001D02*
X107586001Y-80863999D01*
D37*
X106179001Y-79420000D02*
X105839501Y-79759501D01*
X105839501Y-79759501D02*
X105530000Y-80069001D01*
D38*
X95325500Y-79074500D02*
X95120000Y-79280000D01*
X96375500Y-79074500D02*
X95325500Y-79074500D01*
X95120000Y-79280000D02*
X95120000Y-79980000D01*
X95120000Y-91500000D02*
X95120000Y-79980000D01*
X96355500Y-97954500D02*
X96294500Y-97954500D01*
X96294500Y-97954500D02*
X95120000Y-96780000D01*
X96420000Y-91500000D02*
X96420499Y-91499501D01*
X95120000Y-91500000D02*
X96420000Y-91500000D01*
D37*
X96100999Y-91180000D02*
X96420499Y-91499501D01*
X96420499Y-91499501D02*
X96750000Y-91829001D01*
D38*
X106116001Y-91883999D02*
X105865000Y-92135000D01*
X107586001Y-91883999D02*
X106116001Y-91883999D01*
X107586001Y-91883999D02*
X107586001Y-93733999D01*
X107586001Y-80863999D02*
X107586001Y-91883999D01*
X105445000Y-102435000D02*
X103950000Y-103930000D01*
X107695000Y-102435000D02*
X105445000Y-102435000D01*
X107586001Y-97853999D02*
X107586001Y-96903999D01*
X103950000Y-101480000D02*
X105340000Y-100090000D01*
X105340000Y-100090000D02*
X105350000Y-100090000D01*
X105350000Y-100090000D02*
X107586001Y-97853999D01*
X103950000Y-103930000D02*
X103950000Y-101480000D01*
X105340000Y-99150000D02*
X105860000Y-98630000D01*
X105340000Y-100090000D02*
X105340000Y-99150000D01*
X95120000Y-96780000D02*
X95120000Y-94660000D01*
X95120000Y-94660000D02*
X95120000Y-91500000D01*
X95120000Y-98820000D02*
X95120000Y-94660000D01*
X95120000Y-99129000D02*
X96294500Y-97954500D01*
X98150000Y-102159000D02*
X95120000Y-99129000D01*
X95070000Y-77240000D02*
X95120000Y-77190000D01*
X93507500Y-77240000D02*
X95070000Y-77240000D01*
X95120000Y-73570000D02*
X95120000Y-77190000D01*
X95120000Y-77190000D02*
X95120000Y-79280000D01*
X107702002Y-77180000D02*
X107586001Y-77063999D01*
X107586001Y-74956001D02*
X107586001Y-77063999D01*
X108615000Y-77180000D02*
X107702002Y-77180000D01*
X107586001Y-77063999D02*
X107586001Y-79766001D01*
X108582500Y-94450000D02*
X107590000Y-94450000D01*
X107590000Y-94450000D02*
X107586001Y-94446001D01*
X107586001Y-93733999D02*
X107586001Y-94446001D01*
X107586001Y-94446001D02*
X107586001Y-96903999D01*
X94980000Y-94520000D02*
X95120000Y-94660000D01*
X93537500Y-94520000D02*
X94980000Y-94520000D01*
X98150000Y-103930000D02*
X98150000Y-102159000D01*
D40*
X94147500Y-101660000D02*
X93627500Y-101140000D01*
X93627500Y-100917500D02*
X92620000Y-99910000D01*
X93627500Y-101140000D02*
X93627500Y-100917500D01*
X94147500Y-101667500D02*
X94147500Y-101660000D01*
X94300000Y-101820000D02*
X94147500Y-101667500D01*
X102937500Y-113300000D02*
X103200000Y-113562500D01*
X102600000Y-113300000D02*
X102937500Y-113300000D01*
X103200000Y-113562500D02*
X101650000Y-113562500D01*
X116467500Y-119280000D02*
X116910000Y-118837500D01*
X115906001Y-119280000D02*
X116467500Y-119280000D01*
D37*
X93300000Y-121993500D02*
X93300000Y-121575000D01*
X91281000Y-124012500D02*
X93300000Y-121993500D01*
X90806000Y-124012500D02*
X91281000Y-124012500D01*
X90212500Y-124012500D02*
X88400000Y-122200000D01*
X90806000Y-124012500D02*
X90212500Y-124012500D01*
X88400000Y-122200000D02*
X88400000Y-121625000D01*
D40*
X90674999Y-123881499D02*
X90806000Y-124012500D01*
X90674999Y-116840698D02*
X90674999Y-113350001D01*
X90806000Y-116971699D02*
X90674999Y-116840698D01*
X90806000Y-124012500D02*
X90806000Y-116971699D01*
X91502500Y-112067500D02*
X91950000Y-111620000D01*
X91502500Y-112522500D02*
X91502500Y-112067500D01*
X91502500Y-112522500D02*
X91600000Y-112425000D01*
X90674999Y-113350001D02*
X91502500Y-112522500D01*
X114980000Y-113130000D02*
X115730000Y-113130000D01*
X115730000Y-113130000D02*
X115750000Y-113110000D01*
X115750000Y-113110000D02*
X115750000Y-113110000D01*
X111930000Y-100127500D02*
X113040000Y-101237500D01*
X111930000Y-98980000D02*
X111930000Y-100127500D01*
D37*
X114817500Y-100652500D02*
X115430000Y-100040000D01*
X114232500Y-101237500D02*
X115430000Y-100040000D01*
X113040000Y-101237500D02*
X114232500Y-101237500D01*
X118127500Y-101547500D02*
X117910000Y-101330000D01*
X119710000Y-101547500D02*
X118127500Y-101547500D01*
X119710000Y-101547500D02*
X120877500Y-101547500D01*
X121386500Y-102056500D02*
X120877500Y-101547500D01*
X121386500Y-103886000D02*
X121386500Y-102056500D01*
D40*
X122470000Y-104969500D02*
X121386500Y-103886000D01*
X122470000Y-105832500D02*
X122470000Y-104969500D01*
X91320000Y-97367500D02*
X90802500Y-96850000D01*
X91320000Y-98110000D02*
X91320000Y-97367500D01*
D37*
X90802500Y-95807500D02*
X90802500Y-95807500D01*
X90802500Y-96850000D02*
X90802500Y-95807500D01*
X90802500Y-95807500D02*
X90830000Y-95780000D01*
X117910000Y-100620000D02*
X117330000Y-100040000D01*
X117910000Y-101330000D02*
X117910000Y-100620000D01*
X119710000Y-101547500D02*
X119092500Y-101547500D01*
X120877500Y-101547500D02*
X120877500Y-102032500D01*
X120877500Y-102032500D02*
X120430000Y-102480000D01*
X118730000Y-102480000D02*
X118450000Y-102200000D01*
X120430000Y-102480000D02*
X118730000Y-102480000D01*
D41*
X103450000Y-115437500D02*
X103200000Y-115187500D01*
D40*
X102850000Y-114787500D02*
X103200000Y-115137500D01*
X102850000Y-114600000D02*
X102850000Y-114787500D01*
X103200000Y-115137500D02*
X101650000Y-115137500D01*
X101950000Y-114837500D02*
X101650000Y-115137500D01*
X101950000Y-114650000D02*
X101950000Y-114837500D01*
X112520000Y-113089989D02*
X113799989Y-113089989D01*
D41*
X114065000Y-114147500D02*
X113790000Y-114422500D01*
X114065000Y-113130000D02*
X114065000Y-114147500D01*
D37*
X112120001Y-74045001D02*
X111460000Y-73385000D01*
X111460000Y-73385000D02*
X111460000Y-71080000D01*
X115080001Y-74045001D02*
X112120001Y-74045001D01*
X116940000Y-72185002D02*
X115080001Y-74045001D01*
X116940000Y-69770000D02*
X116940000Y-72185002D01*
X111955000Y-73185000D02*
X111955000Y-75205000D01*
X111955000Y-75205000D02*
X112210000Y-75460000D01*
D40*
X108700000Y-114490000D02*
X108090274Y-114490000D01*
X108090274Y-114490000D02*
X108090137Y-114490137D01*
X108700000Y-115030000D02*
X107550274Y-115030000D01*
X107550274Y-115030000D02*
X107550137Y-115030137D01*
X108799130Y-114589130D02*
X108700000Y-114490000D01*
X108799130Y-115339130D02*
X108799130Y-114589130D01*
X107859130Y-115339130D02*
X107550137Y-115030137D01*
X108799130Y-115339130D02*
X107859130Y-115339130D01*
X108799130Y-115199130D02*
X108090137Y-114490137D01*
X108799130Y-115339130D02*
X108799130Y-115199130D01*
D37*
X87650000Y-119125000D02*
X88400000Y-119875000D01*
X87650000Y-118800000D02*
X87650000Y-119125000D01*
D40*
X99093500Y-123525000D02*
X99006000Y-123612500D01*
X101050000Y-123525000D02*
X99093500Y-123525000D01*
X99006000Y-123612500D02*
X98362500Y-123612500D01*
X98362500Y-123612500D02*
X98300000Y-123550000D01*
X93475000Y-119650000D02*
X93300000Y-119825000D01*
X94050000Y-119650000D02*
X93475000Y-119650000D01*
X101050000Y-120887500D02*
X101150000Y-120787500D01*
X101050000Y-123525000D02*
X101050000Y-120887500D01*
X91200000Y-116800000D02*
X91200000Y-116550000D01*
X94050000Y-119650000D02*
X91200000Y-116800000D01*
D37*
X99006000Y-123612500D02*
X98212500Y-123612500D01*
X98212500Y-123612500D02*
X97900000Y-123300000D01*
D40*
X102331000Y-125275000D02*
X102856000Y-125800000D01*
X101050000Y-125275000D02*
X102331000Y-125275000D01*
D41*
X123470000Y-110707500D02*
X123470000Y-113198471D01*
X123176481Y-113491990D02*
X122121990Y-113491990D01*
X123470000Y-113198471D02*
X123176481Y-113491990D01*
X122121990Y-113491990D02*
X121720000Y-113090000D01*
X122470000Y-110707500D02*
X122470000Y-112960990D01*
X122470000Y-112960990D02*
X122390000Y-113040990D01*
D37*
X85100000Y-120645000D02*
X85100000Y-123652500D01*
X86095000Y-119650000D02*
X85100000Y-120645000D01*
X86570000Y-119650000D02*
X86095000Y-119650000D01*
D40*
X92495000Y-98235000D02*
X92620000Y-98110000D01*
X92495000Y-99010000D02*
X92495000Y-98235000D01*
X92620000Y-98110000D02*
X92620000Y-97970000D01*
D37*
X92495000Y-99010000D02*
X93130000Y-99010000D01*
D41*
X120970000Y-110707500D02*
X120487500Y-110707500D01*
X120487500Y-110707500D02*
X120480000Y-110700000D01*
X120282500Y-110020000D02*
X119700000Y-110020000D01*
X119700000Y-110020000D02*
X119420000Y-110020000D01*
X123470000Y-105832500D02*
X123470000Y-104905000D01*
X123470000Y-104905000D02*
X123495000Y-104880000D01*
D40*
X103400000Y-119300000D02*
X105850000Y-119300000D01*
D41*
X115580000Y-110040000D02*
X116372500Y-110040000D01*
X115580000Y-110040000D02*
X115400000Y-110040000D01*
X115400000Y-110040000D02*
X115360000Y-110000000D01*
X113790000Y-106030000D02*
X113790000Y-106449000D01*
X113790000Y-106449000D02*
X113689000Y-106550000D01*
X115670000Y-108520000D02*
X116372500Y-108520000D01*
X114609999Y-109580001D02*
X115670000Y-108520000D01*
X113810000Y-109829998D02*
X114059997Y-109580001D01*
X114059997Y-109580001D02*
X114609999Y-109580001D01*
X113810000Y-110130000D02*
X113810000Y-109829998D01*
X96550000Y-113912500D02*
X96550000Y-114100000D01*
X96737500Y-113912500D02*
X96550000Y-114100000D01*
X98150000Y-113912500D02*
X96737500Y-113912500D01*
D40*
X96580000Y-113982500D02*
X96650000Y-113912500D01*
X96580000Y-114420000D02*
X96580000Y-113982500D01*
D38*
X99500000Y-114321010D02*
X99500000Y-113401010D01*
X99966418Y-113407428D02*
X99960000Y-113401010D01*
X99966418Y-114321010D02*
X99966418Y-113407428D01*
X99960000Y-113401010D02*
X99960000Y-113116754D01*
X99960000Y-113116754D02*
X103495000Y-109581754D01*
D37*
X103495000Y-109581754D02*
X109573246Y-109581754D01*
D38*
X106958154Y-109235010D02*
X107695000Y-108498164D01*
X103841744Y-109235010D02*
X106958154Y-109235010D01*
X103495000Y-109581754D02*
X103841744Y-109235010D01*
X109498154Y-109235010D02*
X110235000Y-108498164D01*
X110235000Y-108498164D02*
X110235000Y-107585000D01*
X106958154Y-109235010D02*
X109498154Y-109235010D01*
X107695000Y-108498164D02*
X108431846Y-109235010D01*
X108431846Y-109235010D02*
X109498154Y-109235010D01*
X107695000Y-107585000D02*
X107695000Y-108498164D01*
D37*
X110657500Y-108007500D02*
X110235000Y-107585000D01*
X110220000Y-109750000D02*
X109812500Y-109342500D01*
X110412500Y-109750000D02*
X110220000Y-109750000D01*
X109573246Y-109581754D02*
X109812500Y-109342500D01*
X109812500Y-109342500D02*
X110215000Y-108940000D01*
X110532500Y-107997500D02*
X110215000Y-108315000D01*
X111970000Y-107997500D02*
X110532500Y-107997500D01*
X110215000Y-108940000D02*
X110215000Y-108315000D01*
X110215000Y-108315000D02*
X110215000Y-108065000D01*
D40*
X101587501Y-118774999D02*
X107376097Y-118774999D01*
X101150000Y-119212500D02*
X101587501Y-118774999D01*
X107376097Y-118752548D02*
X107376097Y-118774999D01*
X109240487Y-116888158D02*
X107376097Y-118752548D01*
D41*
X120282500Y-108020000D02*
X119650440Y-108020000D01*
X118610440Y-106980000D02*
X117967500Y-106980000D01*
X119650440Y-108020000D02*
X118610440Y-106980000D01*
X120282500Y-106520000D02*
X119635404Y-106520000D01*
X118665010Y-104587510D02*
X117977500Y-103900000D01*
X118665010Y-105549606D02*
X118665010Y-104587510D01*
X119635404Y-106520000D02*
X118665010Y-105549606D01*
D40*
X92456000Y-115824000D02*
X92456000Y-115849500D01*
X92456000Y-115824000D02*
X92456000Y-117094000D01*
X95224500Y-119862500D02*
X96266000Y-119862500D01*
X92456000Y-117094000D02*
X95224500Y-119862500D01*
D37*
X112127490Y-106359990D02*
X112200000Y-106432500D01*
X108965000Y-106710000D02*
X109315010Y-106359990D01*
X108965000Y-107585000D02*
X108965000Y-106710000D01*
X111907490Y-106359990D02*
X111970000Y-106422500D01*
X109315010Y-106359990D02*
X111907490Y-106359990D01*
X112795010Y-108942490D02*
X111987500Y-109750000D01*
X112795010Y-107247510D02*
X112795010Y-108942490D01*
X111970000Y-106422500D02*
X112795010Y-107247510D01*
D41*
X112367500Y-110130000D02*
X111987500Y-109750000D01*
X113460000Y-110130000D02*
X112367500Y-110130000D01*
D40*
X123970000Y-105832500D02*
X123970000Y-105417688D01*
D41*
X123970000Y-105145002D02*
X123995001Y-105120001D01*
X123970000Y-105832500D02*
X123970000Y-105145002D01*
X123995001Y-104630499D02*
X124714000Y-103911500D01*
X123995001Y-105120001D02*
X123995001Y-104630499D01*
D40*
X113790000Y-115997500D02*
X113362500Y-115997500D01*
X113362500Y-115997500D02*
X112800000Y-116560000D01*
X124825000Y-103925000D02*
X125520000Y-103230000D01*
X124710000Y-103925000D02*
X124825000Y-103925000D01*
D41*
X97460000Y-112025000D02*
X96425000Y-112025000D01*
X96425000Y-112025000D02*
X95520000Y-112930000D01*
X127482500Y-108590000D02*
X127482500Y-108182500D01*
X126820000Y-107520000D02*
X125157500Y-107520000D01*
X127482500Y-108182500D02*
X126820000Y-107520000D01*
D40*
X126238000Y-104064500D02*
X126238000Y-103911500D01*
D41*
X124470000Y-105832500D02*
X124470000Y-104990000D01*
X125550490Y-104599010D02*
X126238000Y-103911500D01*
D40*
X126238000Y-104738000D02*
X126660000Y-105160000D01*
X126238000Y-103911500D02*
X126238000Y-104738000D01*
D41*
X125460501Y-104688999D02*
X125550490Y-104599010D01*
X124771001Y-104688999D02*
X125460501Y-104688999D01*
X124470000Y-104990000D02*
X124771001Y-104688999D01*
X127472500Y-111660000D02*
X126780000Y-110967500D01*
X126780000Y-110967500D02*
X126780000Y-109520416D01*
X126279584Y-109020000D02*
X125157500Y-109020000D01*
X126780000Y-109520416D02*
X126279584Y-109020000D01*
D40*
X96266000Y-121437500D02*
X96266000Y-123190000D01*
X127862000Y-111660000D02*
X128270000Y-111252000D01*
X127472500Y-111660000D02*
X127862000Y-111660000D01*
X96266000Y-123190000D02*
X95250000Y-124206000D01*
X95250000Y-124206000D02*
X94707520Y-124206000D01*
X94707520Y-124206000D02*
X93980000Y-124206000D01*
X93980000Y-124206000D02*
X92964000Y-125222000D01*
X92964000Y-125222000D02*
X92964000Y-126492000D01*
D41*
X126250000Y-109520000D02*
X125157500Y-109520000D01*
X126429990Y-109699990D02*
X126250000Y-109520000D01*
X127482500Y-113190000D02*
X126429990Y-112137490D01*
X126429990Y-112137490D02*
X126429990Y-109699990D01*
D40*
X127856000Y-113190000D02*
X128270000Y-112776000D01*
X127482500Y-113190000D02*
X127856000Y-113190000D01*
D41*
X127492500Y-114710000D02*
X127492500Y-114602500D01*
X126079980Y-110169980D02*
X125930000Y-110020000D01*
X127492500Y-114710000D02*
X126079980Y-113297480D01*
X125930000Y-110020000D02*
X125157500Y-110020000D01*
X126079980Y-113297480D02*
X126079980Y-110169980D01*
X85100000Y-125227500D02*
X83962500Y-125227500D01*
X83962500Y-125227500D02*
X83940000Y-125250000D01*
D40*
X127860000Y-114710000D02*
X128270000Y-114300000D01*
X127492500Y-114710000D02*
X127860000Y-114710000D01*
D41*
X118967500Y-109020000D02*
X117947500Y-110040000D01*
X120282500Y-109020000D02*
X118967500Y-109020000D01*
X121470000Y-110707500D02*
X121470000Y-112040000D01*
X120950000Y-112560000D02*
X120950000Y-114300000D01*
X121470000Y-112040000D02*
X120950000Y-112560000D01*
X120282500Y-108520000D02*
X117947500Y-108520000D01*
D37*
X111955000Y-68020002D02*
X112754998Y-68820000D01*
X112754998Y-68820000D02*
X116940000Y-68820000D01*
X111955000Y-67720000D02*
X111955000Y-68020002D01*
D40*
X91445000Y-99785000D02*
X91320000Y-99910000D01*
X91445000Y-99010000D02*
X91445000Y-99785000D01*
X91320000Y-99910000D02*
X91320000Y-100200000D01*
X91320000Y-100200000D02*
X90870000Y-100650000D01*
X90870000Y-100650000D02*
X90870000Y-100650000D01*
D37*
X129057500Y-108590000D02*
X129057500Y-109372500D01*
X129057500Y-109372500D02*
X129057500Y-110120000D01*
X91555000Y-102920000D02*
X91992500Y-102920000D01*
X90549999Y-101914999D02*
X91555000Y-102920000D01*
X90549999Y-100970001D02*
X90549999Y-101914999D01*
X90870000Y-100650000D02*
X90549999Y-100970001D01*
X91992500Y-103857498D02*
X91969998Y-103880000D01*
X91992500Y-102920000D02*
X91992500Y-103857498D01*
D41*
X120282500Y-107520000D02*
X119645428Y-107520000D01*
X118325428Y-106200000D02*
X116030000Y-106200000D01*
X116030000Y-106200000D02*
X115340000Y-106200000D01*
X115340000Y-106200000D02*
X115330000Y-106210000D01*
D37*
X125717500Y-97187500D02*
X127530000Y-99000000D01*
X125717500Y-97150000D02*
X125717500Y-97187500D01*
D41*
X119645428Y-107520000D02*
X118325428Y-106200000D01*
X100835008Y-115472602D02*
X94822602Y-115472602D01*
X94822602Y-115472602D02*
X94550000Y-115200000D01*
X120000000Y-124817500D02*
X120280000Y-124537500D01*
X120000000Y-125720000D02*
X120000000Y-124817500D01*
X121820000Y-124537500D02*
X121810000Y-124527500D01*
X121820000Y-125340000D02*
X121820000Y-124537500D01*
X123700000Y-124887500D02*
X123340000Y-124527500D01*
X123700000Y-125750000D02*
X123700000Y-124887500D01*
X125157500Y-106520000D02*
X126885010Y-106520000D01*
X127954999Y-104105003D02*
X128635001Y-103425001D01*
X127954999Y-105450011D02*
X127954999Y-104105003D01*
X126885010Y-106520000D02*
X127954999Y-105450011D01*
X128329998Y-105570000D02*
X128630000Y-105570000D01*
X126879998Y-107020000D02*
X128329998Y-105570000D01*
X125157500Y-107020000D02*
X126879998Y-107020000D01*
X120282500Y-109520000D02*
X118962488Y-109520000D01*
X118635010Y-110912490D02*
X117957500Y-111590000D01*
X118635010Y-109847478D02*
X118635010Y-110912490D01*
X118962488Y-109520000D02*
X118635010Y-109847478D01*
X121810000Y-122952500D02*
X122497510Y-122264990D01*
X124834990Y-122264990D02*
X125290000Y-122720000D01*
X122497510Y-122264990D02*
X124834990Y-122264990D01*
X124470000Y-110707500D02*
X125447500Y-110707500D01*
X125447500Y-110707500D02*
X125450000Y-110710000D01*
X123340000Y-122952500D02*
X124602500Y-122952500D01*
X124602500Y-122952500D02*
X124670000Y-123020000D01*
X124602500Y-122952500D02*
X124612500Y-122952500D01*
X124612500Y-122952500D02*
X124800000Y-123140000D01*
X122970000Y-110707500D02*
X122970000Y-111750000D01*
X122970000Y-111750000D02*
X122960000Y-111760000D01*
X122960000Y-111760000D02*
X122960000Y-113040989D01*
X123970000Y-110707500D02*
X123970000Y-111550000D01*
X123970000Y-111550000D02*
X125162003Y-111550000D01*
X125162003Y-111550000D02*
X125450000Y-111262003D01*
X121327520Y-121914980D02*
X125014980Y-121914980D01*
X120280000Y-122962500D02*
X121327520Y-121914980D01*
X125014980Y-121914980D02*
X125264199Y-121914980D01*
X125264199Y-121914980D02*
X125703222Y-122354003D01*
D37*
X119657500Y-67352500D02*
X119140000Y-67870000D01*
X121080000Y-67352500D02*
X119657500Y-67352500D01*
X98430000Y-68980000D02*
X99870000Y-67540000D01*
X99870000Y-67540000D02*
X103720000Y-67540000D01*
X104040000Y-67860000D02*
X106720000Y-67860000D01*
X103720000Y-67540000D02*
X104040000Y-67860000D01*
X110545000Y-67860000D02*
X110685000Y-67720000D01*
X106720000Y-67860000D02*
X110545000Y-67860000D01*
X110685000Y-67419998D02*
X110685000Y-67720000D01*
X116529999Y-66734999D02*
X111369999Y-66734999D01*
X111369999Y-66734999D02*
X110685000Y-67419998D01*
X116940000Y-67145000D02*
X116529999Y-66734999D01*
X116940000Y-67870000D02*
X116940000Y-67145000D01*
X117475002Y-67870000D02*
X116940000Y-67870000D01*
X118259999Y-68654997D02*
X117475002Y-67870000D01*
X118259999Y-69425001D02*
X118259999Y-68654997D01*
X118604998Y-69770000D02*
X118259999Y-69425001D01*
X119140000Y-69770000D02*
X118604998Y-69770000D01*
X119140000Y-71670000D02*
X118300000Y-72510000D01*
X119140000Y-69770000D02*
X119140000Y-71670000D01*
D40*
X99443500Y-124750000D02*
X99006000Y-125187500D01*
X99750000Y-124750000D02*
X99443500Y-124750000D01*
X87068500Y-125587500D02*
X86856000Y-125800000D01*
X90806000Y-125587500D02*
X90637500Y-125587500D01*
X90637500Y-125587500D02*
X90000000Y-124950000D01*
X90000000Y-124950000D02*
X90000000Y-124940000D01*
X90000000Y-124940000D02*
X89910000Y-124850000D01*
D41*
X116402500Y-105440000D02*
X115560000Y-105440000D01*
X115560000Y-105440000D02*
X115550000Y-105430000D01*
D40*
X86570000Y-121225000D02*
X86570000Y-121230000D01*
X86570000Y-121230000D02*
X85930000Y-121870000D01*
D41*
X116402500Y-103900000D02*
X115910000Y-103900000D01*
X115910000Y-103900000D02*
X115600000Y-103900000D01*
X115600000Y-103900000D02*
X115550000Y-103900000D01*
X105902500Y-107062500D02*
X106425000Y-107585000D01*
X104500000Y-107062500D02*
X105902500Y-107062500D01*
X104500000Y-107062500D02*
X104507500Y-107062500D01*
X104507500Y-107062500D02*
X105140000Y-106430000D01*
X114140000Y-105430000D02*
X114030000Y-105540000D01*
X114140000Y-105130000D02*
X114140000Y-105430000D01*
X107595000Y-105540000D02*
X106705000Y-106430000D01*
X106705000Y-106430000D02*
X105140000Y-106430000D01*
X114030000Y-105540000D02*
X107595000Y-105540000D01*
D40*
X116382500Y-111590000D02*
X115981011Y-111590000D01*
X115981011Y-111590000D02*
X115480000Y-111088989D01*
X91970000Y-97257500D02*
X92377500Y-96850000D01*
X91970000Y-98110000D02*
X91970000Y-97257500D01*
D37*
X92377500Y-96850000D02*
X92890000Y-96850000D01*
X92890000Y-96850000D02*
X93240000Y-97200000D01*
D38*
X106200000Y-114017892D02*
X106200000Y-110800000D01*
X102717892Y-117500000D02*
X106200000Y-114017892D01*
X98600000Y-117500000D02*
X102717892Y-117500000D01*
X103517892Y-116700000D02*
X98600000Y-116700000D01*
X105400000Y-114817892D02*
X103517892Y-116700000D01*
X107000000Y-114200000D02*
X107000000Y-110800000D01*
X98600000Y-118300000D02*
X99025011Y-117874989D01*
X99025011Y-117874989D02*
X103325011Y-117874989D01*
X108250000Y-112950000D02*
X106282000Y-114918000D01*
X108250000Y-110790000D02*
X108250000Y-112950000D01*
X103325011Y-117874989D02*
X106282000Y-114918000D01*
X106282000Y-114918000D02*
X107000000Y-114200000D01*
X106210000Y-110790000D02*
X106200000Y-110800000D01*
X108250000Y-110790000D02*
X106210000Y-110790000D01*
X107450000Y-112150000D02*
X108250000Y-112950000D01*
X107450000Y-110790000D02*
X107450000Y-112150000D01*
D37*
X108965000Y-102435000D02*
X110235000Y-102435000D01*
X110235000Y-102435000D02*
X113475000Y-102435000D01*
X113475000Y-102435000D02*
X113890000Y-102850000D01*
X113890000Y-102850000D02*
X113910000Y-102850000D01*
X113910000Y-102850000D02*
X113960000Y-102900000D01*
D41*
X118060416Y-105440000D02*
X117977500Y-105440000D01*
X119640416Y-107020000D02*
X118060416Y-105440000D01*
X120282500Y-107020000D02*
X119640416Y-107020000D01*
X125595000Y-108020000D02*
X125157500Y-108020000D01*
X125157500Y-108020000D02*
X126544990Y-108020000D01*
X126544990Y-108020000D02*
X126794990Y-108270000D01*
X127482500Y-109727928D02*
X127482500Y-110120000D01*
X126794990Y-109040418D02*
X127482500Y-109727928D01*
X126794990Y-108270000D02*
X126794990Y-109040418D01*
X100980000Y-68915000D02*
X102295000Y-68915000D01*
X102295000Y-68915000D02*
X102300000Y-68920000D01*
X128069213Y-110120000D02*
X128080286Y-110108927D01*
X127482500Y-110120000D02*
X128069213Y-110120000D01*
X116392500Y-106980000D02*
X115760000Y-106980000D01*
X113810000Y-108930000D02*
X115760000Y-106980000D01*
X113810000Y-109230000D02*
X113810000Y-108930000D01*
X114160000Y-109230000D02*
X114220000Y-109230000D01*
D40*
X91970000Y-101057500D02*
X92052500Y-101140000D01*
X91970000Y-99910000D02*
X91970000Y-101057500D01*
X92052500Y-101140000D02*
X91420000Y-101140000D01*
X91420000Y-101140000D02*
X91150000Y-101410000D01*
D41*
X114160000Y-109230000D02*
X114221001Y-109230000D01*
X114221001Y-109230000D02*
X114551001Y-108900000D01*
M02*
