G04 #@! TF.GenerationSoftware,KiCad,Pcbnew,(5.1.6)-1*
G04 #@! TF.CreationDate,2021-04-03T13:21:31+02:00*
G04 #@! TF.ProjectId,rysboard,72797362-6f61-4726-942e-6b696361645f,4.2*
G04 #@! TF.SameCoordinates,Original*
G04 #@! TF.FileFunction,Copper,L2,Inr*
G04 #@! TF.FilePolarity,Positive*
%FSLAX46Y46*%
G04 Gerber Fmt 4.6, Leading zero omitted, Abs format (unit mm)*
G04 Created by KiCad (PCBNEW (5.1.6)-1) date 2021-04-03 13:21:31*
%MOMM*%
%LPD*%
G01*
G04 APERTURE LIST*
G04 #@! TA.AperFunction,ViaPad*
%ADD10O,1.500000X2.020000*%
G04 #@! TD*
G04 #@! TA.AperFunction,ViaPad*
%ADD11C,5.400000*%
G04 #@! TD*
G04 #@! TA.AperFunction,ViaPad*
%ADD12C,0.600000*%
G04 #@! TD*
G04 #@! TA.AperFunction,ViaPad*
%ADD13O,0.800000X1.300000*%
G04 #@! TD*
G04 #@! TA.AperFunction,ViaPad*
%ADD14O,1.700000X1.700000*%
G04 #@! TD*
G04 #@! TA.AperFunction,ViaPad*
%ADD15R,1.700000X1.700000*%
G04 #@! TD*
G04 #@! TA.AperFunction,ViaPad*
%ADD16C,1.500000*%
G04 #@! TD*
G04 #@! TA.AperFunction,ViaPad*
%ADD17O,0.850000X0.850000*%
G04 #@! TD*
G04 #@! TA.AperFunction,ViaPad*
%ADD18R,0.850000X0.850000*%
G04 #@! TD*
G04 #@! TA.AperFunction,ViaPad*
%ADD19C,0.402000*%
G04 #@! TD*
G04 #@! TA.AperFunction,ViaPad*
%ADD20C,0.500000*%
G04 #@! TD*
G04 #@! TA.AperFunction,ViaPad*
%ADD21C,0.750000*%
G04 #@! TD*
G04 #@! TA.AperFunction,Conductor*
%ADD22C,0.200000*%
G04 #@! TD*
G04 #@! TA.AperFunction,Conductor*
%ADD23C,0.350000*%
G04 #@! TD*
G04 #@! TA.AperFunction,Conductor*
%ADD24C,0.250000*%
G04 #@! TD*
G04 #@! TA.AperFunction,Conductor*
%ADD25C,0.400000*%
G04 #@! TD*
G04 APERTURE END LIST*
D10*
X115400000Y-94025000D03*
X118400000Y-94025000D03*
X121400000Y-94025000D03*
G04 #@! TA.AperFunction,ViaPad*
G36*
G01*
X125150000Y-93265000D02*
X125150000Y-94785000D01*
G75*
G02*
X124900000Y-95035000I-250000J0D01*
G01*
X123900000Y-95035000D01*
G75*
G02*
X123650000Y-94785000I0J250000D01*
G01*
X123650000Y-93265000D01*
G75*
G02*
X123900000Y-93015000I250000J0D01*
G01*
X124900000Y-93015000D01*
G75*
G02*
X125150000Y-93265000I0J-250000D01*
G01*
G37*
G04 #@! TD.AperFunction*
D11*
X127800000Y-127150000D03*
X78800000Y-69150000D03*
X78800000Y-127150000D03*
D10*
X115400000Y-78640000D03*
X118400000Y-78640000D03*
X121400000Y-78640000D03*
G04 #@! TA.AperFunction,ViaPad*
G36*
G01*
X125150000Y-77880000D02*
X125150000Y-79400000D01*
G75*
G02*
X124900000Y-79650000I-250000J0D01*
G01*
X123900000Y-79650000D01*
G75*
G02*
X123650000Y-79400000I0J250000D01*
G01*
X123650000Y-77880000D01*
G75*
G02*
X123900000Y-77630000I250000J0D01*
G01*
X124900000Y-77630000D01*
G75*
G02*
X125150000Y-77880000I0J-250000D01*
G01*
G37*
G04 #@! TD.AperFunction*
D12*
X102250000Y-72050000D03*
X100950000Y-72050000D03*
X99650000Y-72050000D03*
X102250000Y-73830000D03*
X100950000Y-73830000D03*
X99650000Y-73830000D03*
X102250000Y-75610000D03*
X100950000Y-75610000D03*
X99650000Y-75610000D03*
X102250000Y-77390000D03*
X100950000Y-77390000D03*
X99650000Y-77390000D03*
X102250000Y-79170000D03*
X100950000Y-79170000D03*
X99650000Y-79170000D03*
X99650000Y-80950000D03*
X100950000Y-80950000D03*
X102250000Y-80950000D03*
X102250000Y-90925000D03*
X100950000Y-90925000D03*
X99650000Y-90925000D03*
X102250000Y-92705000D03*
X100950000Y-92705000D03*
X99650000Y-92705000D03*
X102250000Y-94485000D03*
X100950000Y-94485000D03*
X99650000Y-94485000D03*
X102250000Y-96265000D03*
X100950000Y-96265000D03*
X99650000Y-96265000D03*
X102250000Y-98045000D03*
X100950000Y-98045000D03*
X99650000Y-98045000D03*
X99650000Y-99825000D03*
X100950000Y-99825000D03*
X102250000Y-99825000D03*
D13*
X89492000Y-104990000D03*
X88242000Y-104990000D03*
X86992000Y-104990000D03*
X85742000Y-104990000D03*
G04 #@! TA.AperFunction,ViaPad*
G36*
G01*
X84092000Y-105440000D02*
X84092000Y-104540000D01*
G75*
G02*
X84292000Y-104340000I200000J0D01*
G01*
X84692000Y-104340000D01*
G75*
G02*
X84892000Y-104540000I0J-200000D01*
G01*
X84892000Y-105440000D01*
G75*
G02*
X84692000Y-105640000I-200000J0D01*
G01*
X84292000Y-105640000D01*
G75*
G02*
X84092000Y-105440000I0J200000D01*
G01*
G37*
G04 #@! TD.AperFunction*
X89492000Y-79082000D03*
X88242000Y-79082000D03*
X86992000Y-79082000D03*
X85742000Y-79082000D03*
G04 #@! TA.AperFunction,ViaPad*
G36*
G01*
X84092000Y-79532000D02*
X84092000Y-78632000D01*
G75*
G02*
X84292000Y-78432000I200000J0D01*
G01*
X84692000Y-78432000D01*
G75*
G02*
X84892000Y-78632000I0J-200000D01*
G01*
X84892000Y-79532000D01*
G75*
G02*
X84692000Y-79732000I-200000J0D01*
G01*
X84292000Y-79732000D01*
G75*
G02*
X84092000Y-79532000I0J200000D01*
G01*
G37*
G04 #@! TD.AperFunction*
X89492000Y-83400000D03*
X88242000Y-83400000D03*
X86992000Y-83400000D03*
X85742000Y-83400000D03*
G04 #@! TA.AperFunction,ViaPad*
G36*
G01*
X84092000Y-83850000D02*
X84092000Y-82950000D01*
G75*
G02*
X84292000Y-82750000I200000J0D01*
G01*
X84692000Y-82750000D01*
G75*
G02*
X84892000Y-82950000I0J-200000D01*
G01*
X84892000Y-83850000D01*
G75*
G02*
X84692000Y-84050000I-200000J0D01*
G01*
X84292000Y-84050000D01*
G75*
G02*
X84092000Y-83850000I0J200000D01*
G01*
G37*
G04 #@! TD.AperFunction*
X89492000Y-87718000D03*
X88242000Y-87718000D03*
X86992000Y-87718000D03*
X85742000Y-87718000D03*
G04 #@! TA.AperFunction,ViaPad*
G36*
G01*
X84092000Y-88168000D02*
X84092000Y-87268000D01*
G75*
G02*
X84292000Y-87068000I200000J0D01*
G01*
X84692000Y-87068000D01*
G75*
G02*
X84892000Y-87268000I0J-200000D01*
G01*
X84892000Y-88168000D01*
G75*
G02*
X84692000Y-88368000I-200000J0D01*
G01*
X84292000Y-88368000D01*
G75*
G02*
X84092000Y-88168000I0J200000D01*
G01*
G37*
G04 #@! TD.AperFunction*
X89492000Y-92036000D03*
X88242000Y-92036000D03*
X86992000Y-92036000D03*
X85742000Y-92036000D03*
G04 #@! TA.AperFunction,ViaPad*
G36*
G01*
X84092000Y-92486000D02*
X84092000Y-91586000D01*
G75*
G02*
X84292000Y-91386000I200000J0D01*
G01*
X84692000Y-91386000D01*
G75*
G02*
X84892000Y-91586000I0J-200000D01*
G01*
X84892000Y-92486000D01*
G75*
G02*
X84692000Y-92686000I-200000J0D01*
G01*
X84292000Y-92686000D01*
G75*
G02*
X84092000Y-92486000I0J200000D01*
G01*
G37*
G04 #@! TD.AperFunction*
X89492000Y-96354000D03*
X88242000Y-96354000D03*
X86992000Y-96354000D03*
X85742000Y-96354000D03*
G04 #@! TA.AperFunction,ViaPad*
G36*
G01*
X84092000Y-96804000D02*
X84092000Y-95904000D01*
G75*
G02*
X84292000Y-95704000I200000J0D01*
G01*
X84692000Y-95704000D01*
G75*
G02*
X84892000Y-95904000I0J-200000D01*
G01*
X84892000Y-96804000D01*
G75*
G02*
X84692000Y-97004000I-200000J0D01*
G01*
X84292000Y-97004000D01*
G75*
G02*
X84092000Y-96804000I0J200000D01*
G01*
G37*
G04 #@! TD.AperFunction*
X89492000Y-100672000D03*
X88242000Y-100672000D03*
X86992000Y-100672000D03*
X85742000Y-100672000D03*
G04 #@! TA.AperFunction,ViaPad*
G36*
G01*
X84092000Y-101122000D02*
X84092000Y-100222000D01*
G75*
G02*
X84292000Y-100022000I200000J0D01*
G01*
X84692000Y-100022000D01*
G75*
G02*
X84892000Y-100222000I0J-200000D01*
G01*
X84892000Y-101122000D01*
G75*
G02*
X84692000Y-101322000I-200000J0D01*
G01*
X84292000Y-101322000D01*
G75*
G02*
X84092000Y-101122000I0J200000D01*
G01*
G37*
G04 #@! TD.AperFunction*
D14*
X77524500Y-74011100D03*
X80064500Y-74011100D03*
X77524500Y-76551100D03*
X80064500Y-76551100D03*
X77524500Y-79091100D03*
X80064500Y-79091100D03*
X77524500Y-81631100D03*
X80064500Y-81631100D03*
X77524500Y-84171100D03*
X80064500Y-84171100D03*
X77524500Y-86711100D03*
X80064500Y-86711100D03*
X77524500Y-89251100D03*
X80064500Y-89251100D03*
X77524500Y-91791100D03*
X80064500Y-91791100D03*
X77524500Y-94331100D03*
X80064500Y-94331100D03*
X77524500Y-96871100D03*
X80064500Y-96871100D03*
X77524500Y-99411100D03*
X80064500Y-99411100D03*
X77524500Y-101951100D03*
X80064500Y-101951100D03*
X77524500Y-104491100D03*
X80064500Y-104491100D03*
X77524500Y-107031100D03*
X80064500Y-107031100D03*
X77524500Y-109571100D03*
X80064500Y-109571100D03*
X77524500Y-112111100D03*
X80064500Y-112111100D03*
X77524500Y-114651100D03*
X80064500Y-114651100D03*
X77524500Y-117191100D03*
X80064500Y-117191100D03*
X77524500Y-119731100D03*
X80064500Y-119731100D03*
X77524500Y-122271100D03*
D15*
X80064500Y-122271100D03*
D11*
X127800000Y-69150000D03*
D16*
X102856000Y-122800000D03*
G04 #@! TA.AperFunction,ViaPad*
G36*
G01*
X103606000Y-125300000D02*
X103606000Y-126300000D01*
G75*
G02*
X103356000Y-126550000I-250000J0D01*
G01*
X102356000Y-126550000D01*
G75*
G02*
X102106000Y-126300000I0J250000D01*
G01*
X102106000Y-125300000D01*
G75*
G02*
X102356000Y-125050000I250000J0D01*
G01*
X103356000Y-125050000D01*
G75*
G02*
X103606000Y-125300000I0J-250000D01*
G01*
G37*
G04 #@! TD.AperFunction*
X94856000Y-122800000D03*
G04 #@! TA.AperFunction,ViaPad*
G36*
G01*
X95606000Y-125300000D02*
X95606000Y-126300000D01*
G75*
G02*
X95356000Y-126550000I-250000J0D01*
G01*
X94356000Y-126550000D01*
G75*
G02*
X94106000Y-126300000I0J250000D01*
G01*
X94106000Y-125300000D01*
G75*
G02*
X94356000Y-125050000I250000J0D01*
G01*
X95356000Y-125050000D01*
G75*
G02*
X95606000Y-125300000I0J-250000D01*
G01*
G37*
G04 #@! TD.AperFunction*
X86856000Y-122800000D03*
G04 #@! TA.AperFunction,ViaPad*
G36*
G01*
X87606000Y-125300000D02*
X87606000Y-126300000D01*
G75*
G02*
X87356000Y-126550000I-250000J0D01*
G01*
X86356000Y-126550000D01*
G75*
G02*
X86106000Y-126300000I0J250000D01*
G01*
X86106000Y-125300000D01*
G75*
G02*
X86356000Y-125050000I250000J0D01*
G01*
X87356000Y-125050000D01*
G75*
G02*
X87606000Y-125300000I0J-250000D01*
G01*
G37*
G04 #@! TD.AperFunction*
X110856000Y-122800000D03*
G04 #@! TA.AperFunction,ViaPad*
G36*
G01*
X111606000Y-125300000D02*
X111606000Y-126300000D01*
G75*
G02*
X111356000Y-126550000I-250000J0D01*
G01*
X110356000Y-126550000D01*
G75*
G02*
X110106000Y-126300000I0J250000D01*
G01*
X110106000Y-125300000D01*
G75*
G02*
X110356000Y-125050000I250000J0D01*
G01*
X111356000Y-125050000D01*
G75*
G02*
X111606000Y-125300000I0J-250000D01*
G01*
G37*
G04 #@! TD.AperFunction*
D14*
X127530000Y-99000000D03*
X124990000Y-99000000D03*
D15*
X122450000Y-99000000D03*
D14*
X110600000Y-189030000D03*
D15*
X110600000Y-186490000D03*
D17*
X128635001Y-103425001D03*
D18*
X128635001Y-102425001D03*
D17*
X128630000Y-105570000D03*
D18*
X128630000Y-106570000D03*
D19*
X99953500Y-108846500D03*
X99253500Y-108846500D03*
X99253500Y-109346500D03*
X99253500Y-109846500D03*
X99253500Y-110346500D03*
X99273250Y-110826750D03*
X99953500Y-109346500D03*
X99953500Y-109846500D03*
X99953500Y-110346500D03*
X99953500Y-110846500D03*
X98553500Y-108846500D03*
X98553500Y-109346500D03*
X98553500Y-109846500D03*
X98553500Y-110346500D03*
X98553500Y-110846500D03*
D20*
X91974990Y-107825010D03*
X91350000Y-108150000D03*
X90900000Y-108600000D03*
X90450000Y-109050000D03*
X90050000Y-109450000D03*
X89600000Y-109900000D03*
X90100000Y-110300000D03*
X90500000Y-109900000D03*
X91000000Y-109400000D03*
X91450000Y-108950000D03*
X92150010Y-108849990D03*
X92149990Y-109650010D03*
X91600000Y-109900000D03*
X91200000Y-110300000D03*
X90700000Y-110800000D03*
D19*
X105372500Y-97030000D03*
X106510000Y-77740000D03*
X96930000Y-73580000D03*
X96930000Y-92450000D03*
X104502882Y-96215958D03*
X104540000Y-97600000D03*
X104640000Y-78751000D03*
X104630000Y-77460000D03*
X96750000Y-72280000D03*
X96750000Y-72929001D03*
X96090000Y-72929001D03*
X96750000Y-78800000D03*
X96090000Y-78800000D03*
X96750000Y-79449001D03*
X96090000Y-79449001D03*
X106190000Y-72900000D03*
X105530000Y-72900000D03*
X106190000Y-73549001D03*
X105530000Y-73549001D03*
X106190000Y-79420000D03*
X105530000Y-79420000D03*
X106190000Y-80069001D03*
X105530000Y-80069001D03*
X96040999Y-97640000D03*
X96040999Y-98300000D03*
X96690000Y-97640000D03*
X96690000Y-98300000D03*
X96090000Y-91829001D03*
X96750000Y-91829001D03*
X96090000Y-91180000D03*
X96750000Y-91180000D03*
X105530000Y-98949001D03*
X106190000Y-98949001D03*
X105530000Y-98300000D03*
X106190000Y-98300000D03*
X105530000Y-91800999D03*
X106180000Y-91800999D03*
X106190000Y-92460000D03*
X105530000Y-92460000D03*
X96090000Y-72280000D03*
X94300000Y-101820000D03*
X95700000Y-113700000D03*
X102600000Y-113300000D03*
D20*
X115906001Y-119280000D03*
X82891980Y-85390000D03*
D19*
X96930000Y-77480000D03*
X96930000Y-96360000D03*
X96930000Y-74880000D03*
X96930000Y-93750000D03*
X96930000Y-74220000D03*
X96930000Y-94400000D03*
X104769673Y-98139673D03*
X104707938Y-79321408D03*
X96930000Y-93100000D03*
X96930000Y-75530000D03*
X96930000Y-95700000D03*
X96930000Y-76820000D03*
X96930000Y-97000000D03*
X96930000Y-78130000D03*
D20*
X91950000Y-111620000D03*
D19*
X115750000Y-113110000D03*
X92730000Y-105280000D03*
X111930000Y-98980000D03*
X90802500Y-95807500D03*
D20*
X118450000Y-102200000D03*
D19*
X123410000Y-127730000D03*
X102850000Y-114600000D03*
X101950000Y-114650000D03*
X112520000Y-113089989D03*
D20*
X87650000Y-118800000D03*
X91200000Y-116550000D03*
X97900000Y-123300000D03*
X94050000Y-119650000D03*
D19*
X121720000Y-113090000D03*
X122390000Y-113040990D03*
X93130000Y-99010000D03*
X120480000Y-110700000D03*
X119420000Y-110020000D03*
D20*
X123495000Y-104880000D03*
X103400000Y-119300000D03*
X105850000Y-119300000D03*
D19*
X115400000Y-110040000D03*
X113689000Y-106550000D03*
X99960000Y-113401010D03*
X99500000Y-113401010D03*
X100420000Y-113401010D03*
X99040000Y-113401010D03*
X100419007Y-113861010D03*
X100419007Y-114321010D03*
X100419007Y-114781010D03*
X99966418Y-114781010D03*
X99500000Y-114781010D03*
X99040000Y-114781010D03*
X99966418Y-114321010D03*
X99500000Y-114321010D03*
X99040000Y-114321010D03*
X99040000Y-113861010D03*
X99500000Y-113861010D03*
X99966418Y-113861010D03*
X96580000Y-114420000D03*
D20*
X109240487Y-116888158D03*
D19*
X92456000Y-115824000D03*
X112800000Y-116560000D03*
X125520000Y-103230000D03*
X95520000Y-112930000D03*
X125803121Y-107540000D03*
X92590000Y-106340000D03*
X126660000Y-105160000D03*
X128270000Y-111252000D03*
X92964000Y-126492000D03*
D20*
X85090000Y-108966000D03*
D19*
X128270000Y-112776000D03*
X83940000Y-125250000D03*
X128270000Y-114300000D03*
D20*
X120950000Y-114300000D03*
X118210000Y-113089989D03*
D19*
X123520000Y-102050000D03*
X129057500Y-109372500D03*
D20*
X91969998Y-103880000D03*
D19*
X115330000Y-106210000D03*
D20*
X94550000Y-115200000D03*
D19*
X100835008Y-115472602D03*
D20*
X120000000Y-125720000D03*
X121820000Y-125340000D03*
X123700000Y-125750000D03*
D19*
X125290000Y-122720000D03*
X125450000Y-110710000D03*
X124800000Y-123140000D03*
X122960000Y-113040989D03*
X125450000Y-111262003D03*
X125703222Y-122354003D03*
D20*
X99750000Y-124750000D03*
D19*
X89910000Y-124850000D03*
X93900000Y-114050000D03*
X115560000Y-105440000D03*
X85930000Y-121870000D03*
X95605713Y-114643951D03*
X115550000Y-103900000D03*
X115480000Y-111088989D03*
X93240000Y-97200000D03*
D20*
X94300000Y-104300000D03*
D19*
X94370000Y-109660000D03*
D21*
X98600000Y-116700000D03*
X98600000Y-117500000D03*
X98600000Y-118300000D03*
X106650000Y-110790000D03*
X107450000Y-110790000D03*
X108250000Y-110790000D03*
D19*
X95120000Y-109190000D03*
D20*
X113960000Y-102900000D03*
D19*
X102300000Y-68920000D03*
X128080286Y-110108927D03*
D20*
X91150000Y-101410000D03*
D19*
X114551001Y-108900000D03*
D22*
X104540000Y-96253076D02*
X104502882Y-96215958D01*
X104540000Y-97600000D02*
X104540000Y-96253076D01*
X102514001Y-92154999D02*
X99155001Y-92154999D01*
X104502882Y-96215958D02*
X104502882Y-94143880D01*
X104502882Y-94143880D02*
X102514001Y-92154999D01*
X98860000Y-92450000D02*
X96930000Y-92450000D01*
X99155001Y-92154999D02*
X98860000Y-92450000D01*
X104640000Y-77470000D02*
X104630000Y-77460000D01*
X104640000Y-78751000D02*
X104640000Y-77470000D01*
X102514001Y-73279999D02*
X99230001Y-73279999D01*
X104630000Y-77460000D02*
X104630000Y-75395998D01*
X104630000Y-75395998D02*
X102514001Y-73279999D01*
X98930000Y-73580000D02*
X96930000Y-73580000D01*
X99230001Y-73279999D02*
X98930000Y-73580000D01*
X96449990Y-112950010D02*
X100444978Y-112950010D01*
X95700000Y-113700000D02*
X96449990Y-112950010D01*
X100444978Y-112950010D02*
X100444988Y-112950000D01*
X100444978Y-112950010D02*
X100740010Y-112950010D01*
X102250010Y-112950010D02*
X102600000Y-113300000D01*
X100740010Y-112950010D02*
X102250010Y-112950010D01*
D23*
X81258099Y-77916099D02*
X85742000Y-82400000D01*
X79690497Y-77916099D02*
X81258099Y-77916099D01*
X78889499Y-75376099D02*
X78889499Y-77115101D01*
X85742000Y-82400000D02*
X85742000Y-83400000D01*
X78889499Y-77115101D02*
X79690497Y-77916099D01*
X77524500Y-74011100D02*
X78889499Y-75376099D01*
D22*
X85742000Y-87362000D02*
X85742000Y-87718000D01*
D24*
X79500499Y-80266101D02*
X80466101Y-80266101D01*
X78649501Y-77676101D02*
X77524500Y-76551100D01*
X78649501Y-79415103D02*
X78649501Y-77676101D01*
X79500499Y-80266101D02*
X78649501Y-79415103D01*
X83816990Y-84747180D02*
X85742000Y-86672190D01*
X85742000Y-86672190D02*
X85742000Y-87718000D01*
X83816990Y-83616990D02*
X83816990Y-84747180D01*
X80466101Y-80266101D02*
X83816990Y-83616990D01*
D23*
X85742000Y-78082000D02*
X85742000Y-79082000D01*
X84211100Y-76551100D02*
X85742000Y-78082000D01*
X80064500Y-76551100D02*
X84211100Y-76551100D01*
D25*
X86992000Y-79082000D02*
X86992000Y-87718000D01*
D23*
X86992000Y-87743318D02*
X86992000Y-87718000D01*
X84074532Y-88693010D02*
X86042308Y-88693010D01*
X86042308Y-88693010D02*
X86992000Y-87743318D01*
X83766990Y-88385468D02*
X84074532Y-88693010D01*
X83766990Y-85333590D02*
X83766990Y-88385468D01*
X80064500Y-81631100D02*
X83766990Y-85333590D01*
D25*
X88242000Y-87718000D02*
X88242000Y-79082000D01*
D23*
X83867422Y-89193020D02*
X82750000Y-88075598D01*
X87766980Y-89193020D02*
X83867422Y-89193020D01*
X88242000Y-87718000D02*
X88242000Y-88718000D01*
X88242000Y-88718000D02*
X87766980Y-89193020D01*
X80466101Y-85346101D02*
X78699501Y-85346101D01*
X78699501Y-85346101D02*
X77524500Y-84171100D01*
X82750000Y-87630000D02*
X80466101Y-85346101D01*
X82750000Y-88075598D02*
X82750000Y-87630000D01*
D24*
X82616980Y-85115000D02*
X82891980Y-85390000D01*
X80064500Y-84171100D02*
X81673080Y-84171100D01*
X81673080Y-84171100D02*
X82616980Y-85115000D01*
D25*
X86992000Y-100672000D02*
X86992000Y-96354000D01*
X86992000Y-96354000D02*
X86992000Y-92036000D01*
X86992000Y-92036000D02*
X86992000Y-91786000D01*
D23*
X83046430Y-89693030D02*
X80064500Y-86711100D01*
X86992000Y-92036000D02*
X86992000Y-92010682D01*
X86992000Y-100672000D02*
X86992000Y-102068000D01*
X86992000Y-102068000D02*
X86790000Y-102270000D01*
X84697522Y-102270000D02*
X83766990Y-101339468D01*
X86790000Y-102270000D02*
X84697522Y-102270000D01*
X83046430Y-89693030D02*
X83103030Y-89693030D01*
X83103030Y-89693030D02*
X83766990Y-90356990D01*
X83766990Y-90356990D02*
X83766990Y-101339468D01*
D25*
X88242000Y-100672000D02*
X88242000Y-96354000D01*
X88242000Y-96354000D02*
X88242000Y-92036000D01*
D23*
X88242000Y-101672000D02*
X87056000Y-102858000D01*
X87056000Y-102858000D02*
X85231522Y-102858000D01*
X81949990Y-112765610D02*
X80064500Y-114651100D01*
X88242000Y-100672000D02*
X88242000Y-101672000D01*
X85231522Y-102858000D02*
X81949990Y-106139532D01*
X81949990Y-106139532D02*
X81949990Y-112765610D01*
X86992000Y-105990000D02*
X86442000Y-106540000D01*
X86992000Y-104990000D02*
X86992000Y-105990000D01*
X86442000Y-106540000D02*
X83010000Y-106540000D01*
X83010000Y-106540000D02*
X82450000Y-107100000D01*
X81993500Y-117191100D02*
X80064500Y-117191100D01*
X82450000Y-116734600D02*
X81993500Y-117191100D01*
X82450000Y-107100000D02*
X82450000Y-116734600D01*
X88242000Y-105447120D02*
X88242000Y-104990000D01*
X86649110Y-107040010D02*
X88242000Y-105447120D01*
X80064500Y-119731100D02*
X81266581Y-119731100D01*
X83219990Y-107040010D02*
X86649110Y-107040010D01*
X81266581Y-119731100D02*
X82950010Y-118047671D01*
X82950010Y-118047671D02*
X82950010Y-107309990D01*
X82950010Y-107309990D02*
X83219990Y-107040010D01*
D25*
X92662982Y-95807500D02*
X94081011Y-97225529D01*
X90802500Y-95807500D02*
X92662982Y-95807500D01*
X94081011Y-97225529D02*
X94081011Y-99971011D01*
X94081011Y-99971011D02*
X96534969Y-102424969D01*
X96534969Y-102424969D02*
X97526712Y-102424970D01*
X97526712Y-102424970D02*
X103100731Y-107998989D01*
X103100731Y-107998989D02*
X110635529Y-107998989D01*
X110635529Y-107998989D02*
X116274518Y-102360000D01*
X116274518Y-102360000D02*
X118290000Y-102360000D01*
X118290000Y-102360000D02*
X118450000Y-102200000D01*
X89492000Y-100672000D02*
X89492000Y-96354000D01*
X89492000Y-96354000D02*
X89492000Y-92036000D01*
X89492000Y-92036000D02*
X89492000Y-87718000D01*
X89492000Y-87718000D02*
X89492000Y-83400000D01*
X89492000Y-83400000D02*
X89492000Y-79082000D01*
D22*
X77524500Y-109924500D02*
X77524500Y-109571100D01*
X115400000Y-108261000D02*
X115400000Y-110040000D01*
X113689000Y-106550000D02*
X115400000Y-108261000D01*
D24*
X112800000Y-116560000D02*
X112800000Y-118400000D01*
X112800000Y-118400000D02*
X115481960Y-121081960D01*
X115481960Y-121081960D02*
X116200242Y-121081960D01*
X116200242Y-121081960D02*
X119479248Y-121081960D01*
X119479248Y-121081960D02*
X126279121Y-114282087D01*
X126279121Y-114282087D02*
X126279121Y-110976558D01*
X126279121Y-110976558D02*
X126279121Y-105789121D01*
X126279121Y-105789121D02*
X125820000Y-105330000D01*
X125820000Y-105330000D02*
X125820000Y-103530000D01*
X125820000Y-103530000D02*
X125520000Y-103230000D01*
X124973999Y-110446001D02*
X125879111Y-109540889D01*
X125879111Y-109540889D02*
X125879111Y-107615990D01*
X125832626Y-112349111D02*
X124973999Y-111490484D01*
X125879111Y-114100889D02*
X125879111Y-112349111D01*
X124973999Y-115021511D02*
X124973999Y-115006001D01*
X119313560Y-120681950D02*
X124973999Y-115021511D01*
X115647648Y-120681950D02*
X119313560Y-120681950D01*
X113276001Y-118310303D02*
X115647648Y-120681950D01*
X93499990Y-114499990D02*
X93499990Y-119876992D01*
X94315518Y-112930000D02*
X93423999Y-113821519D01*
X124973999Y-115006001D02*
X125879111Y-114100889D01*
X95520000Y-112930000D02*
X94315518Y-112930000D01*
X124973999Y-111490484D02*
X124973999Y-110446001D01*
X125879111Y-112349111D02*
X125832626Y-112349111D01*
X93423999Y-114423999D02*
X93499990Y-114499990D01*
X125879111Y-107615990D02*
X125803121Y-107540000D01*
X93499990Y-119876992D02*
X94707997Y-121084999D01*
X94707997Y-121084999D02*
X107570519Y-121084999D01*
X107570519Y-121084999D02*
X112571519Y-116083999D01*
X112571519Y-116083999D02*
X113028481Y-116083999D01*
X93423999Y-113821519D02*
X93423999Y-114423999D01*
X113276001Y-116331519D02*
X113276001Y-118310303D01*
X113028481Y-116083999D02*
X113276001Y-116331519D01*
X85342001Y-109491001D02*
X84853001Y-109491001D01*
X92590000Y-106340000D02*
X88493002Y-106340000D01*
X88493002Y-106340000D02*
X85342001Y-109491001D01*
X84853001Y-109491001D02*
X83800030Y-110543972D01*
X83800030Y-110543972D02*
X83800030Y-116058030D01*
X83800030Y-116058030D02*
X83820000Y-116078000D01*
X83820000Y-116078000D02*
X83820000Y-119380000D01*
X84631001Y-124670820D02*
X84836000Y-124875819D01*
X83820000Y-119380000D02*
X84631001Y-120191001D01*
X84631001Y-120191001D02*
X84631001Y-124670820D01*
X84836000Y-124875819D02*
X84836000Y-126630604D01*
X84836000Y-126630604D02*
X85929376Y-127723980D01*
X85929376Y-127723980D02*
X92456000Y-127723980D01*
X92456000Y-126295518D02*
X92767518Y-125984000D01*
X92456000Y-127723980D02*
X92456000Y-126295518D01*
X93160482Y-125984000D02*
X93472000Y-126295518D01*
X92767518Y-125984000D02*
X93160482Y-125984000D01*
X93472000Y-126295518D02*
X93472000Y-127000000D01*
X93472000Y-127000000D02*
X93472000Y-127254000D01*
X93472000Y-127254000D02*
X93472000Y-127323970D01*
X93472000Y-127323970D02*
X113294936Y-127323970D01*
X113294936Y-127323970D02*
X113861970Y-126756936D01*
X113861970Y-123985931D02*
X114149902Y-123698000D01*
X113861970Y-126756936D02*
X113861970Y-123985931D01*
X114149902Y-123698000D02*
X116365931Y-121481970D01*
X116365931Y-121481970D02*
X119644936Y-121481970D01*
X119644936Y-121481970D02*
X126659453Y-114467453D01*
X126679131Y-114447775D02*
X126679131Y-110810869D01*
X126659453Y-114467453D02*
X126679131Y-114447775D01*
X126679131Y-110810869D02*
X126679131Y-105179131D01*
X126679131Y-105179131D02*
X126660000Y-105160000D01*
X96266000Y-127723980D02*
X113460624Y-127723980D01*
X113460624Y-127723980D02*
X114261980Y-126922624D01*
X114261980Y-126922624D02*
X114261980Y-124206000D01*
X114261980Y-124151620D02*
X116531620Y-121881980D01*
X114261980Y-124206000D02*
X114261980Y-124151620D01*
X116531620Y-121881980D02*
X119810624Y-121881980D01*
X127079141Y-114613463D02*
X127079141Y-113262377D01*
X119810624Y-121881980D02*
X127079141Y-114613463D01*
X127079141Y-113262377D02*
X127079141Y-112442859D01*
X127079141Y-112442859D02*
X128270000Y-111252000D01*
X92964000Y-126492000D02*
X92964000Y-127723980D01*
X92964000Y-127723980D02*
X96520000Y-127723980D01*
X85090000Y-108966000D02*
X84328000Y-108966000D01*
X84328000Y-108966000D02*
X83400020Y-109893980D01*
X83400020Y-109893980D02*
X83400020Y-119291980D01*
X84416001Y-125021519D02*
X84416001Y-125641999D01*
X83080999Y-123686517D02*
X84416001Y-125021519D01*
X84416001Y-125641999D02*
X84340010Y-125717990D01*
X83400020Y-119291980D02*
X83080999Y-119611001D01*
X83080999Y-119611001D02*
X83080999Y-123686517D01*
X84340010Y-125717990D02*
X84340010Y-126700312D01*
X84340010Y-126700312D02*
X85763688Y-128123990D01*
X85763688Y-128123990D02*
X113626312Y-128123990D01*
X114661990Y-127088312D02*
X114661990Y-124317309D01*
X113626312Y-128123990D02*
X114661990Y-127088312D01*
X114661990Y-124317309D02*
X116697309Y-122281990D01*
X116697309Y-122281990D02*
X119976312Y-122281990D01*
X119976312Y-122281990D02*
X127479151Y-114779151D01*
X127479151Y-114779151D02*
X127479151Y-113566849D01*
X127479151Y-113566849D02*
X128270000Y-112776000D01*
X83940000Y-125250000D02*
X83940000Y-126866000D01*
X83940000Y-126866000D02*
X85598000Y-128524000D01*
X85598000Y-128524000D02*
X113792000Y-128524000D01*
X113792000Y-128524000D02*
X115062000Y-127254000D01*
X115062000Y-124482998D02*
X116862998Y-122682000D01*
X115062000Y-127254000D02*
X115062000Y-124482998D01*
X116862998Y-122682000D02*
X120142000Y-122682000D01*
X120142000Y-122682000D02*
X128270000Y-114554000D01*
X128270000Y-114554000D02*
X128270000Y-114300000D01*
X100346001Y-106906001D02*
X100346001Y-107016001D01*
D25*
X97029999Y-103699999D02*
X100346001Y-107016001D01*
X92551997Y-103699999D02*
X97029999Y-103699999D01*
X100346001Y-107016001D02*
X103433988Y-110103988D01*
X113640528Y-110064999D02*
X116665518Y-113089989D01*
X106301999Y-110064999D02*
X113640528Y-110064999D01*
X116665518Y-113089989D02*
X118210000Y-113089989D01*
X106263010Y-110103988D02*
X106301999Y-110064999D01*
X103433988Y-110103988D02*
X106263010Y-110103988D01*
X92551997Y-103699999D02*
X92149999Y-103699999D01*
X92149999Y-103699999D02*
X91969998Y-103880000D01*
D22*
X115614256Y-106210000D02*
X120504256Y-101320000D01*
X115330000Y-106210000D02*
X115614256Y-106210000D01*
X125210000Y-101320000D02*
X127530000Y-99000000D01*
X120504256Y-101320000D02*
X125210000Y-101320000D01*
X125674003Y-122354003D02*
X125703222Y-122354003D01*
D24*
X114853999Y-105981519D02*
X115395518Y-105440000D01*
X95964989Y-120684989D02*
X107404831Y-120684989D01*
X113676011Y-116165830D02*
X117804170Y-116165830D01*
X107404831Y-120684989D02*
X112405830Y-115683989D01*
X119135011Y-114834989D02*
X119135011Y-110719492D01*
X93900000Y-118620000D02*
X95964989Y-120684989D01*
X113194170Y-115683989D02*
X113676011Y-116165830D01*
X117804170Y-116165830D02*
X119135011Y-114834989D01*
X115395518Y-105440000D02*
X115560000Y-105440000D01*
X119135011Y-110719492D02*
X114853999Y-106438481D01*
X112405830Y-115683989D02*
X113194170Y-115683989D01*
X93900000Y-114050000D02*
X93900000Y-118620000D01*
X114853999Y-106438481D02*
X114853999Y-105981519D01*
X114453989Y-104996011D02*
X115550000Y-103900000D01*
X114453989Y-106604170D02*
X114453989Y-104996011D01*
X95170000Y-119324302D02*
X96130677Y-120284979D01*
X112240141Y-115283979D02*
X113359859Y-115283979D01*
X95170000Y-117110000D02*
X95170000Y-119324302D01*
X118735001Y-110885181D02*
X114453989Y-106604170D01*
X113805879Y-115730000D02*
X117670000Y-115730000D01*
X96130677Y-120284979D02*
X107239142Y-120284979D01*
X95605713Y-116674287D02*
X95170000Y-117110000D01*
X95605713Y-114643951D02*
X95605713Y-116674287D01*
X107239142Y-120284979D02*
X112240141Y-115283979D01*
X113359859Y-115283979D02*
X113805879Y-115730000D01*
X117670000Y-115730000D02*
X118735001Y-114664999D01*
X118735001Y-114664999D02*
X118735001Y-110885181D01*
X93606001Y-97566001D02*
X93606001Y-99776001D01*
X93240000Y-97200000D02*
X93606001Y-97566001D01*
D22*
X96264979Y-102874979D02*
X97340311Y-102874979D01*
X93606001Y-99776001D02*
X93606001Y-100216001D01*
X93606001Y-100216001D02*
X96264979Y-102874979D01*
X97340311Y-102874979D02*
X103730311Y-109264979D01*
X115002002Y-108683519D02*
X115002002Y-109116481D01*
X103730311Y-109264979D02*
X104546291Y-108448999D01*
X114767482Y-108448999D02*
X115002002Y-108683519D01*
X104546291Y-108448999D02*
X114767482Y-108448999D01*
X114948999Y-109169484D02*
X114948999Y-110557988D01*
X114948999Y-110557988D02*
X115480000Y-111088989D01*
X115002002Y-109116481D02*
X114948999Y-109169484D01*
D25*
X93799999Y-104800001D02*
X93799999Y-109662499D01*
X94300000Y-104300000D02*
X93799999Y-104800001D01*
X93799999Y-109662499D02*
X94367501Y-109662499D01*
X94367501Y-109662499D02*
X94370000Y-109660000D01*
D22*
X106640000Y-110800000D02*
X106650000Y-110790000D01*
X102100000Y-110800000D02*
X106640000Y-110800000D01*
X100330000Y-112570000D02*
X100570000Y-112330000D01*
X100300000Y-112600000D02*
X100570000Y-112330000D01*
X100570000Y-112330000D02*
X102100000Y-110800000D01*
D24*
X98500000Y-112570000D02*
X95120000Y-109190000D01*
X100330000Y-112570000D02*
X98500000Y-112570000D01*
D22*
X106650000Y-110790000D02*
X108250000Y-110790000D01*
X102300000Y-68920000D02*
X122710000Y-68920000D01*
X122710000Y-68920000D02*
X130040000Y-76250000D01*
X130040000Y-76250000D02*
X130040000Y-109057482D01*
X130040000Y-109057482D02*
X130040000Y-109560000D01*
X130040000Y-109560000D02*
X129491073Y-110108927D01*
X129491073Y-110108927D02*
X128080286Y-110108927D01*
D24*
X91150000Y-101410000D02*
X92964989Y-103224989D01*
D22*
X97195333Y-103224989D02*
X92964989Y-103224989D01*
X103581399Y-109611055D02*
X97195333Y-103224989D01*
X103581399Y-109614989D02*
X103581399Y-109611055D01*
X113836012Y-109614989D02*
X103581399Y-109614989D01*
X114551001Y-108900000D02*
X113836012Y-109614989D01*
M02*
