%TF.GenerationSoftware,KiCad,Pcbnew,(5.1.6)-1*%
%TF.CreationDate,2021-05-11T15:15:27+02:00*%
%TF.ProjectId,Buck_Converter,4275636b-5f43-46f6-9e76-65727465722e,rev?*%
%TF.SameCoordinates,Original*%
%TF.FileFunction,Copper,L1,Top*%
%TF.FilePolarity,Positive*%
%FSLAX46Y46*%
G04 Gerber Fmt 4.6, Leading zero omitted, Abs format (unit mm)*
G04 Created by KiCad (PCBNEW (5.1.6)-1) date 2021-05-11 15:15:27*
%MOMM*%
%LPD*%
G01*
G04 APERTURE LIST*
%TA.AperFunction,SMDPad,CuDef*%
%ADD10R,2.300000X2.500000*%
%TD*%
%TA.AperFunction,SMDPad,CuDef*%
%ADD11R,2.200000X3.100000*%
%TD*%
%TA.AperFunction,SMDPad,CuDef*%
%ADD12R,1.525000X0.650000*%
%TD*%
%TA.AperFunction,SMDPad,CuDef*%
%ADD13R,2.400000X1.500000*%
%TD*%
%TA.AperFunction,ComponentPad*%
%ADD14R,1.700000X1.700000*%
%TD*%
%TA.AperFunction,ComponentPad*%
%ADD15O,1.700000X1.700000*%
%TD*%
%TA.AperFunction,ViaPad*%
%ADD16C,0.800000*%
%TD*%
%TA.AperFunction,Conductor*%
%ADD17C,0.600000*%
%TD*%
%TA.AperFunction,Conductor*%
%ADD18C,0.250000*%
%TD*%
%TA.AperFunction,Conductor*%
%ADD19C,0.400000*%
%TD*%
%TA.AperFunction,Conductor*%
%ADD20C,0.254000*%
%TD*%
G04 APERTURE END LIST*
%TO.P,C1,2*%
%TO.N,/VIN*%
%TA.AperFunction,SMDPad,CuDef*%
G36*
G01*
X112605000Y-61845000D02*
X111355000Y-61845000D01*
G75*
G02*
X111105000Y-61595000I0J250000D01*
G01*
X111105000Y-60845000D01*
G75*
G02*
X111355000Y-60595000I250000J0D01*
G01*
X112605000Y-60595000D01*
G75*
G02*
X112855000Y-60845000I0J-250000D01*
G01*
X112855000Y-61595000D01*
G75*
G02*
X112605000Y-61845000I-250000J0D01*
G01*
G37*
%TD.AperFunction*%
%TO.P,C1,1*%
%TO.N,BC_GND*%
%TA.AperFunction,SMDPad,CuDef*%
G36*
G01*
X112605000Y-64645000D02*
X111355000Y-64645000D01*
G75*
G02*
X111105000Y-64395000I0J250000D01*
G01*
X111105000Y-63645000D01*
G75*
G02*
X111355000Y-63395000I250000J0D01*
G01*
X112605000Y-63395000D01*
G75*
G02*
X112855000Y-63645000I0J-250000D01*
G01*
X112855000Y-64395000D01*
G75*
G02*
X112605000Y-64645000I-250000J0D01*
G01*
G37*
%TD.AperFunction*%
%TD*%
%TO.P,C2,2*%
%TO.N,/VIN*%
%TA.AperFunction,SMDPad,CuDef*%
G36*
G01*
X109946250Y-63040000D02*
X109433750Y-63040000D01*
G75*
G02*
X109215000Y-62821250I0J218750D01*
G01*
X109215000Y-62383750D01*
G75*
G02*
X109433750Y-62165000I218750J0D01*
G01*
X109946250Y-62165000D01*
G75*
G02*
X110165000Y-62383750I0J-218750D01*
G01*
X110165000Y-62821250D01*
G75*
G02*
X109946250Y-63040000I-218750J0D01*
G01*
G37*
%TD.AperFunction*%
%TO.P,C2,1*%
%TO.N,BC_GND*%
%TA.AperFunction,SMDPad,CuDef*%
G36*
G01*
X109946250Y-64615000D02*
X109433750Y-64615000D01*
G75*
G02*
X109215000Y-64396250I0J218750D01*
G01*
X109215000Y-63958750D01*
G75*
G02*
X109433750Y-63740000I218750J0D01*
G01*
X109946250Y-63740000D01*
G75*
G02*
X110165000Y-63958750I0J-218750D01*
G01*
X110165000Y-64396250D01*
G75*
G02*
X109946250Y-64615000I-218750J0D01*
G01*
G37*
%TD.AperFunction*%
%TD*%
%TO.P,C3,2*%
%TO.N,Net-(C3-Pad2)*%
%TA.AperFunction,SMDPad,CuDef*%
G36*
G01*
X102458000Y-69344250D02*
X102458000Y-68831750D01*
G75*
G02*
X102676750Y-68613000I218750J0D01*
G01*
X103114250Y-68613000D01*
G75*
G02*
X103333000Y-68831750I0J-218750D01*
G01*
X103333000Y-69344250D01*
G75*
G02*
X103114250Y-69563000I-218750J0D01*
G01*
X102676750Y-69563000D01*
G75*
G02*
X102458000Y-69344250I0J218750D01*
G01*
G37*
%TD.AperFunction*%
%TO.P,C3,1*%
%TO.N,Net-(C3-Pad1)*%
%TA.AperFunction,SMDPad,CuDef*%
G36*
G01*
X100883000Y-69344250D02*
X100883000Y-68831750D01*
G75*
G02*
X101101750Y-68613000I218750J0D01*
G01*
X101539250Y-68613000D01*
G75*
G02*
X101758000Y-68831750I0J-218750D01*
G01*
X101758000Y-69344250D01*
G75*
G02*
X101539250Y-69563000I-218750J0D01*
G01*
X101101750Y-69563000D01*
G75*
G02*
X100883000Y-69344250I0J218750D01*
G01*
G37*
%TD.AperFunction*%
%TD*%
%TO.P,C4,1*%
%TO.N,Net-(C3-Pad1)*%
%TA.AperFunction,SMDPad,CuDef*%
G36*
G01*
X100959200Y-71960450D02*
X100959200Y-71447950D01*
G75*
G02*
X101177950Y-71229200I218750J0D01*
G01*
X101615450Y-71229200D01*
G75*
G02*
X101834200Y-71447950I0J-218750D01*
G01*
X101834200Y-71960450D01*
G75*
G02*
X101615450Y-72179200I-218750J0D01*
G01*
X101177950Y-72179200D01*
G75*
G02*
X100959200Y-71960450I0J218750D01*
G01*
G37*
%TD.AperFunction*%
%TO.P,C4,2*%
%TO.N,Net-(C4-Pad2)*%
%TA.AperFunction,SMDPad,CuDef*%
G36*
G01*
X102534200Y-71960450D02*
X102534200Y-71447950D01*
G75*
G02*
X102752950Y-71229200I218750J0D01*
G01*
X103190450Y-71229200D01*
G75*
G02*
X103409200Y-71447950I0J-218750D01*
G01*
X103409200Y-71960450D01*
G75*
G02*
X103190450Y-72179200I-218750J0D01*
G01*
X102752950Y-72179200D01*
G75*
G02*
X102534200Y-71960450I0J218750D01*
G01*
G37*
%TD.AperFunction*%
%TD*%
%TO.P,C5,1*%
%TO.N,Net-(C3-Pad2)*%
%TA.AperFunction,SMDPad,CuDef*%
G36*
G01*
X109011000Y-71122250D02*
X109011000Y-70609750D01*
G75*
G02*
X109229750Y-70391000I218750J0D01*
G01*
X109667250Y-70391000D01*
G75*
G02*
X109886000Y-70609750I0J-218750D01*
G01*
X109886000Y-71122250D01*
G75*
G02*
X109667250Y-71341000I-218750J0D01*
G01*
X109229750Y-71341000D01*
G75*
G02*
X109011000Y-71122250I0J218750D01*
G01*
G37*
%TD.AperFunction*%
%TO.P,C5,2*%
%TO.N,Net-(C5-Pad2)*%
%TA.AperFunction,SMDPad,CuDef*%
G36*
G01*
X110586000Y-71122250D02*
X110586000Y-70609750D01*
G75*
G02*
X110804750Y-70391000I218750J0D01*
G01*
X111242250Y-70391000D01*
G75*
G02*
X111461000Y-70609750I0J-218750D01*
G01*
X111461000Y-71122250D01*
G75*
G02*
X111242250Y-71341000I-218750J0D01*
G01*
X110804750Y-71341000D01*
G75*
G02*
X110586000Y-71122250I0J218750D01*
G01*
G37*
%TD.AperFunction*%
%TD*%
%TO.P,C6,1*%
%TO.N,GND*%
%TA.AperFunction,SMDPad,CuDef*%
G36*
G01*
X89129000Y-74349000D02*
X87879000Y-74349000D01*
G75*
G02*
X87629000Y-74099000I0J250000D01*
G01*
X87629000Y-73349000D01*
G75*
G02*
X87879000Y-73099000I250000J0D01*
G01*
X89129000Y-73099000D01*
G75*
G02*
X89379000Y-73349000I0J-250000D01*
G01*
X89379000Y-74099000D01*
G75*
G02*
X89129000Y-74349000I-250000J0D01*
G01*
G37*
%TD.AperFunction*%
%TO.P,C6,2*%
%TO.N,/VOUT*%
%TA.AperFunction,SMDPad,CuDef*%
G36*
G01*
X89129000Y-71549000D02*
X87879000Y-71549000D01*
G75*
G02*
X87629000Y-71299000I0J250000D01*
G01*
X87629000Y-70549000D01*
G75*
G02*
X87879000Y-70299000I250000J0D01*
G01*
X89129000Y-70299000D01*
G75*
G02*
X89379000Y-70549000I0J-250000D01*
G01*
X89379000Y-71299000D01*
G75*
G02*
X89129000Y-71549000I-250000J0D01*
G01*
G37*
%TD.AperFunction*%
%TD*%
%TO.P,C7,2*%
%TO.N,/VOUT*%
%TA.AperFunction,SMDPad,CuDef*%
G36*
G01*
X94389000Y-71519000D02*
X93139000Y-71519000D01*
G75*
G02*
X92889000Y-71269000I0J250000D01*
G01*
X92889000Y-70519000D01*
G75*
G02*
X93139000Y-70269000I250000J0D01*
G01*
X94389000Y-70269000D01*
G75*
G02*
X94639000Y-70519000I0J-250000D01*
G01*
X94639000Y-71269000D01*
G75*
G02*
X94389000Y-71519000I-250000J0D01*
G01*
G37*
%TD.AperFunction*%
%TO.P,C7,1*%
%TO.N,GND*%
%TA.AperFunction,SMDPad,CuDef*%
G36*
G01*
X94389000Y-74319000D02*
X93139000Y-74319000D01*
G75*
G02*
X92889000Y-74069000I0J250000D01*
G01*
X92889000Y-73319000D01*
G75*
G02*
X93139000Y-73069000I250000J0D01*
G01*
X94389000Y-73069000D01*
G75*
G02*
X94639000Y-73319000I0J-250000D01*
G01*
X94639000Y-74069000D01*
G75*
G02*
X94389000Y-74319000I-250000J0D01*
G01*
G37*
%TD.AperFunction*%
%TD*%
%TO.P,C8,1*%
%TO.N,GND*%
%TA.AperFunction,SMDPad,CuDef*%
G36*
G01*
X91749000Y-74329000D02*
X90499000Y-74329000D01*
G75*
G02*
X90249000Y-74079000I0J250000D01*
G01*
X90249000Y-73329000D01*
G75*
G02*
X90499000Y-73079000I250000J0D01*
G01*
X91749000Y-73079000D01*
G75*
G02*
X91999000Y-73329000I0J-250000D01*
G01*
X91999000Y-74079000D01*
G75*
G02*
X91749000Y-74329000I-250000J0D01*
G01*
G37*
%TD.AperFunction*%
%TO.P,C8,2*%
%TO.N,/VOUT*%
%TA.AperFunction,SMDPad,CuDef*%
G36*
G01*
X91749000Y-71529000D02*
X90499000Y-71529000D01*
G75*
G02*
X90249000Y-71279000I0J250000D01*
G01*
X90249000Y-70529000D01*
G75*
G02*
X90499000Y-70279000I250000J0D01*
G01*
X91749000Y-70279000D01*
G75*
G02*
X91999000Y-70529000I0J-250000D01*
G01*
X91999000Y-71279000D01*
G75*
G02*
X91749000Y-71529000I-250000J0D01*
G01*
G37*
%TD.AperFunction*%
%TD*%
D10*
%TO.P,D1,2*%
%TO.N,GND*%
X96416000Y-68054000D03*
%TO.P,D1,1*%
%TO.N,Net-(D1-Pad1)*%
X96416000Y-63754000D03*
%TD*%
D11*
%TO.P,IC1,9*%
%TO.N,BC_GND*%
X104230000Y-65470000D03*
D12*
%TO.P,IC1,8*%
%TO.N,/VIN*%
X106942000Y-63565000D03*
%TO.P,IC1,7*%
%TO.N,BC_GND*%
X106942000Y-64835000D03*
%TO.P,IC1,6*%
%TO.N,Net-(IC1-Pad6)*%
X106942000Y-66105000D03*
%TO.P,IC1,5*%
%TO.N,Net-(C3-Pad2)*%
X106942000Y-67375000D03*
%TO.P,IC1,4*%
%TO.N,Net-(C3-Pad1)*%
X101518000Y-67375000D03*
%TO.P,IC1,3*%
%TO.N,/VIN*%
X101518000Y-66105000D03*
%TO.P,IC1,2*%
%TO.N,Net-(IC1-Pad2)*%
X101518000Y-64835000D03*
%TO.P,IC1,1*%
%TO.N,Net-(D1-Pad1)*%
X101518000Y-63565000D03*
%TD*%
D13*
%TO.P,L1,2*%
%TO.N,Net-(D1-Pad1)*%
X90678000Y-63290000D03*
%TO.P,L1,1*%
%TO.N,/VOUT*%
X90678000Y-68790000D03*
%TD*%
%TO.P,R1,2*%
%TO.N,Net-(IC1-Pad6)*%
%TA.AperFunction,SMDPad,CuDef*%
G36*
G01*
X110740000Y-65963750D02*
X110740000Y-66476250D01*
G75*
G02*
X110521250Y-66695000I-218750J0D01*
G01*
X110083750Y-66695000D01*
G75*
G02*
X109865000Y-66476250I0J218750D01*
G01*
X109865000Y-65963750D01*
G75*
G02*
X110083750Y-65745000I218750J0D01*
G01*
X110521250Y-65745000D01*
G75*
G02*
X110740000Y-65963750I0J-218750D01*
G01*
G37*
%TD.AperFunction*%
%TO.P,R1,1*%
%TO.N,BC_GND*%
%TA.AperFunction,SMDPad,CuDef*%
G36*
G01*
X112315000Y-65963750D02*
X112315000Y-66476250D01*
G75*
G02*
X112096250Y-66695000I-218750J0D01*
G01*
X111658750Y-66695000D01*
G75*
G02*
X111440000Y-66476250I0J218750D01*
G01*
X111440000Y-65963750D01*
G75*
G02*
X111658750Y-65745000I218750J0D01*
G01*
X112096250Y-65745000D01*
G75*
G02*
X112315000Y-65963750I0J-218750D01*
G01*
G37*
%TD.AperFunction*%
%TD*%
%TO.P,R2,1*%
%TO.N,Net-(C4-Pad2)*%
%TA.AperFunction,SMDPad,CuDef*%
G36*
G01*
X103956400Y-71960450D02*
X103956400Y-71447950D01*
G75*
G02*
X104175150Y-71229200I218750J0D01*
G01*
X104612650Y-71229200D01*
G75*
G02*
X104831400Y-71447950I0J-218750D01*
G01*
X104831400Y-71960450D01*
G75*
G02*
X104612650Y-72179200I-218750J0D01*
G01*
X104175150Y-72179200D01*
G75*
G02*
X103956400Y-71960450I0J218750D01*
G01*
G37*
%TD.AperFunction*%
%TO.P,R2,2*%
%TO.N,Net-(C3-Pad2)*%
%TA.AperFunction,SMDPad,CuDef*%
G36*
G01*
X105531400Y-71960450D02*
X105531400Y-71447950D01*
G75*
G02*
X105750150Y-71229200I218750J0D01*
G01*
X106187650Y-71229200D01*
G75*
G02*
X106406400Y-71447950I0J-218750D01*
G01*
X106406400Y-71960450D01*
G75*
G02*
X106187650Y-72179200I-218750J0D01*
G01*
X105750150Y-72179200D01*
G75*
G02*
X105531400Y-71960450I0J218750D01*
G01*
G37*
%TD.AperFunction*%
%TD*%
%TO.P,R3,2*%
%TO.N,Net-(C3-Pad2)*%
%TA.AperFunction,SMDPad,CuDef*%
G36*
G01*
X109886000Y-69085750D02*
X109886000Y-69598250D01*
G75*
G02*
X109667250Y-69817000I-218750J0D01*
G01*
X109229750Y-69817000D01*
G75*
G02*
X109011000Y-69598250I0J218750D01*
G01*
X109011000Y-69085750D01*
G75*
G02*
X109229750Y-68867000I218750J0D01*
G01*
X109667250Y-68867000D01*
G75*
G02*
X109886000Y-69085750I0J-218750D01*
G01*
G37*
%TD.AperFunction*%
%TO.P,R3,1*%
%TO.N,/VOUT*%
%TA.AperFunction,SMDPad,CuDef*%
G36*
G01*
X111461000Y-69085750D02*
X111461000Y-69598250D01*
G75*
G02*
X111242250Y-69817000I-218750J0D01*
G01*
X110804750Y-69817000D01*
G75*
G02*
X110586000Y-69598250I0J218750D01*
G01*
X110586000Y-69085750D01*
G75*
G02*
X110804750Y-68867000I218750J0D01*
G01*
X111242250Y-68867000D01*
G75*
G02*
X111461000Y-69085750I0J-218750D01*
G01*
G37*
%TD.AperFunction*%
%TD*%
%TO.P,R5,1*%
%TO.N,/VOUT*%
%TA.AperFunction,SMDPad,CuDef*%
G36*
G01*
X112519750Y-68879000D02*
X113032250Y-68879000D01*
G75*
G02*
X113251000Y-69097750I0J-218750D01*
G01*
X113251000Y-69535250D01*
G75*
G02*
X113032250Y-69754000I-218750J0D01*
G01*
X112519750Y-69754000D01*
G75*
G02*
X112301000Y-69535250I0J218750D01*
G01*
X112301000Y-69097750D01*
G75*
G02*
X112519750Y-68879000I218750J0D01*
G01*
G37*
%TD.AperFunction*%
%TO.P,R5,2*%
%TO.N,Net-(C5-Pad2)*%
%TA.AperFunction,SMDPad,CuDef*%
G36*
G01*
X112519750Y-70454000D02*
X113032250Y-70454000D01*
G75*
G02*
X113251000Y-70672750I0J-218750D01*
G01*
X113251000Y-71110250D01*
G75*
G02*
X113032250Y-71329000I-218750J0D01*
G01*
X112519750Y-71329000D01*
G75*
G02*
X112301000Y-71110250I0J218750D01*
G01*
X112301000Y-70672750D01*
G75*
G02*
X112519750Y-70454000I218750J0D01*
G01*
G37*
%TD.AperFunction*%
%TD*%
%TO.P,R4,1*%
%TO.N,Net-(C3-Pad2)*%
%TA.AperFunction,SMDPad,CuDef*%
G36*
G01*
X107025000Y-68953750D02*
X107025000Y-69466250D01*
G75*
G02*
X106806250Y-69685000I-218750J0D01*
G01*
X106368750Y-69685000D01*
G75*
G02*
X106150000Y-69466250I0J218750D01*
G01*
X106150000Y-68953750D01*
G75*
G02*
X106368750Y-68735000I218750J0D01*
G01*
X106806250Y-68735000D01*
G75*
G02*
X107025000Y-68953750I0J-218750D01*
G01*
G37*
%TD.AperFunction*%
%TO.P,R4,2*%
%TO.N,BC_GND*%
%TA.AperFunction,SMDPad,CuDef*%
G36*
G01*
X105450000Y-68953750D02*
X105450000Y-69466250D01*
G75*
G02*
X105231250Y-69685000I-218750J0D01*
G01*
X104793750Y-69685000D01*
G75*
G02*
X104575000Y-69466250I0J218750D01*
G01*
X104575000Y-68953750D01*
G75*
G02*
X104793750Y-68735000I218750J0D01*
G01*
X105231250Y-68735000D01*
G75*
G02*
X105450000Y-68953750I0J-218750D01*
G01*
G37*
%TD.AperFunction*%
%TD*%
%TO.P,R6,1*%
%TO.N,GND*%
%TA.AperFunction,SMDPad,CuDef*%
G36*
G01*
X116287000Y-63751750D02*
X116287000Y-64264250D01*
G75*
G02*
X116068250Y-64483000I-218750J0D01*
G01*
X115630750Y-64483000D01*
G75*
G02*
X115412000Y-64264250I0J218750D01*
G01*
X115412000Y-63751750D01*
G75*
G02*
X115630750Y-63533000I218750J0D01*
G01*
X116068250Y-63533000D01*
G75*
G02*
X116287000Y-63751750I0J-218750D01*
G01*
G37*
%TD.AperFunction*%
%TO.P,R6,2*%
%TO.N,BC_GND*%
%TA.AperFunction,SMDPad,CuDef*%
G36*
G01*
X114712000Y-63751750D02*
X114712000Y-64264250D01*
G75*
G02*
X114493250Y-64483000I-218750J0D01*
G01*
X114055750Y-64483000D01*
G75*
G02*
X113837000Y-64264250I0J218750D01*
G01*
X113837000Y-63751750D01*
G75*
G02*
X114055750Y-63533000I218750J0D01*
G01*
X114493250Y-63533000D01*
G75*
G02*
X114712000Y-63751750I0J-218750D01*
G01*
G37*
%TD.AperFunction*%
%TD*%
D14*
%TO.P,J1,1*%
%TO.N,/VIN*%
X122859800Y-61429900D03*
D15*
%TO.P,J1,2*%
%TO.N,GND*%
X122859800Y-63969900D03*
%TD*%
%TO.P,J2,2*%
%TO.N,/VOUT*%
X80797400Y-61429900D03*
D14*
%TO.P,J2,1*%
%TO.N,GND*%
X80797400Y-63969900D03*
%TD*%
D16*
%TO.N,/VIN*%
X114810000Y-67540000D03*
X115062000Y-60198000D03*
%TO.N,/VOUT*%
X113030000Y-67818000D03*
X86614000Y-71628000D03*
%TD*%
D17*
%TO.N,GND*%
X93734000Y-73724000D02*
X93764000Y-73694000D01*
X88504000Y-73724000D02*
X93734000Y-73724000D01*
X96416000Y-71042000D02*
X96416000Y-68054000D01*
X93764000Y-73694000D02*
X96416000Y-71042000D01*
X96416000Y-68054000D02*
X96416000Y-71270000D01*
X96416000Y-71270000D02*
X98806000Y-73660000D01*
X98806000Y-73660000D02*
X112776000Y-73660000D01*
X115710001Y-64147499D02*
X115849500Y-64008000D01*
X115710001Y-70725999D02*
X115710001Y-64147499D01*
X112776000Y-73660000D02*
X115710001Y-70725999D01*
X115849500Y-64008000D02*
X117856000Y-64008000D01*
X115849500Y-64008000D02*
X122936000Y-64008000D01*
D18*
%TO.N,/VIN*%
X111980000Y-61220000D02*
X114990000Y-61220000D01*
X114810000Y-67540000D02*
X114810000Y-68105685D01*
D17*
X111072500Y-61220000D02*
X109690000Y-62602500D01*
X111980000Y-61220000D02*
X111072500Y-61220000D01*
X107904500Y-62602500D02*
X106942000Y-63565000D01*
X109690000Y-62602500D02*
X107904500Y-62602500D01*
X122688000Y-61220000D02*
X122936000Y-61468000D01*
X111980000Y-61220000D02*
X122688000Y-61220000D01*
D19*
X115576000Y-60712000D02*
X115062000Y-60198000D01*
X115576000Y-61220000D02*
X115576000Y-60712000D01*
D17*
X115576000Y-61220000D02*
X117850000Y-61220000D01*
X111980000Y-61220000D02*
X115576000Y-61220000D01*
D18*
X100505500Y-66105000D02*
X101518000Y-66105000D01*
X99310000Y-67300500D02*
X100505500Y-66105000D01*
X114810000Y-67540000D02*
X114810000Y-70101494D01*
X114810000Y-70101494D02*
X112267494Y-72644000D01*
X112267494Y-72644000D02*
X101092506Y-72644000D01*
X99310000Y-70861494D02*
X99310000Y-67300500D01*
X101092506Y-72644000D02*
X99310000Y-70861494D01*
D17*
X122649900Y-61220000D02*
X122859800Y-61429900D01*
X111980000Y-61220000D02*
X122649900Y-61220000D01*
D18*
%TO.N,Net-(C3-Pad1)*%
X101320500Y-67572500D02*
X101518000Y-67375000D01*
X101320500Y-69088000D02*
X101320500Y-67572500D01*
X101396700Y-69164200D02*
X101320500Y-69088000D01*
X101396700Y-71704200D02*
X101396700Y-69164200D01*
D19*
%TO.N,Net-(C3-Pad2)*%
X106942000Y-68855500D02*
X106587500Y-69210000D01*
X106942000Y-67375000D02*
X106942000Y-68855500D01*
X105068490Y-70244990D02*
X105943500Y-71120000D01*
X104052490Y-70244990D02*
X105068490Y-70244990D01*
X102895500Y-69088000D02*
X104052490Y-70244990D01*
X105943500Y-69854000D02*
X106587500Y-69210000D01*
X105943500Y-71120000D02*
X105943500Y-69854000D01*
X109316500Y-69210000D02*
X109448500Y-69342000D01*
X106587500Y-69210000D02*
X109316500Y-69210000D01*
X107481500Y-67375000D02*
X109448500Y-69342000D01*
X106942000Y-67375000D02*
X107481500Y-67375000D01*
X109448500Y-69342000D02*
X109448500Y-70866000D01*
X106197500Y-70866000D02*
X105943500Y-71120000D01*
X109448500Y-70866000D02*
X106197500Y-70866000D01*
D18*
%TO.N,Net-(C4-Pad2)*%
X102971700Y-71704200D02*
X104393900Y-71704200D01*
%TO.N,Net-(C5-Pad2)*%
X112750500Y-70866000D02*
X112776000Y-70891500D01*
X111023500Y-70866000D02*
X112750500Y-70866000D01*
D19*
%TO.N,/VOUT*%
X112750500Y-69342000D02*
X112776000Y-69316500D01*
X111023500Y-69342000D02*
X112750500Y-69342000D01*
D17*
X91660000Y-68790000D02*
X93764000Y-70894000D01*
X90678000Y-68790000D02*
X91660000Y-68790000D01*
X88534000Y-70894000D02*
X88504000Y-70924000D01*
X93764000Y-70894000D02*
X88534000Y-70894000D01*
X88504000Y-70924000D02*
X87180000Y-70924000D01*
X88504000Y-70924000D02*
X87318000Y-70924000D01*
X87318000Y-70924000D02*
X86614000Y-71628000D01*
X113030000Y-69062500D02*
X112776000Y-69316500D01*
X113030000Y-67818000D02*
X113030000Y-69062500D01*
X87318000Y-70924000D02*
X87180000Y-70924000D01*
X88504000Y-70622400D02*
X88504000Y-70924000D01*
X88504000Y-70924000D02*
X88196000Y-70924000D01*
X85852000Y-64300100D02*
X82981800Y-61429900D01*
X85852000Y-68580000D02*
X85852000Y-64300100D01*
X88196000Y-70924000D02*
X85852000Y-68580000D01*
X80797400Y-61429900D02*
X82981800Y-61429900D01*
D18*
%TO.N,Net-(IC1-Pad6)*%
X110187500Y-66105000D02*
X110302500Y-66220000D01*
X106942000Y-66105000D02*
X110187500Y-66105000D01*
D17*
%TO.N,BC_GND*%
X111877500Y-64122500D02*
X111980000Y-64020000D01*
X111877500Y-66220000D02*
X111877500Y-64122500D01*
X105012500Y-66252500D02*
X104230000Y-65470000D01*
X105012500Y-69210000D02*
X105012500Y-66252500D01*
X104865000Y-64835000D02*
X106942000Y-64835000D01*
X104230000Y-65470000D02*
X104865000Y-64835000D01*
X109032500Y-64835000D02*
X109690000Y-64177500D01*
X106942000Y-64835000D02*
X109032500Y-64835000D01*
X111822500Y-64177500D02*
X111980000Y-64020000D01*
X109690000Y-64177500D02*
X111822500Y-64177500D01*
X114262500Y-64020000D02*
X114274500Y-64008000D01*
X111980000Y-64020000D02*
X114262500Y-64020000D01*
%TD*%
D20*
%TO.N,Net-(C3-Pad2)*%
G36*
X108898189Y-66946376D02*
G01*
X109061850Y-66996022D01*
X109212672Y-67076638D01*
X109344870Y-67185130D01*
X109453362Y-67317328D01*
X109533978Y-67468150D01*
X109583624Y-67631811D01*
X109601000Y-67808234D01*
X109601000Y-70875766D01*
X109583624Y-71052189D01*
X109533978Y-71215850D01*
X109453362Y-71366672D01*
X109344870Y-71498870D01*
X109212672Y-71607362D01*
X109061850Y-71687978D01*
X108898189Y-71737624D01*
X108721766Y-71755000D01*
X105469472Y-71755000D01*
X105469472Y-71447950D01*
X105453008Y-71280792D01*
X105404250Y-71120058D01*
X105325071Y-70971925D01*
X105218515Y-70842085D01*
X105088675Y-70735529D01*
X104940542Y-70656350D01*
X104779808Y-70607592D01*
X104612650Y-70591128D01*
X104175150Y-70591128D01*
X104007992Y-70607592D01*
X103847258Y-70656350D01*
X103699125Y-70735529D01*
X103682800Y-70748926D01*
X103666475Y-70735529D01*
X103518342Y-70656350D01*
X103357608Y-70607592D01*
X103190450Y-70591128D01*
X102752950Y-70591128D01*
X102585792Y-70607592D01*
X102425058Y-70656350D01*
X102276925Y-70735529D01*
X102235000Y-70769936D01*
X102235000Y-69840589D01*
X102251671Y-69820275D01*
X102330850Y-69672142D01*
X102379608Y-69511408D01*
X102396072Y-69344250D01*
X102396072Y-68831750D01*
X102389080Y-68760762D01*
X102401871Y-68740405D01*
X102522405Y-68619871D01*
X102666729Y-68529186D01*
X102827620Y-68472888D01*
X103004128Y-68453000D01*
X103124854Y-68453000D01*
X103318150Y-68473900D01*
X103495977Y-68533447D01*
X103656969Y-68629632D01*
X103793680Y-68758006D01*
X103899792Y-68912635D01*
X103936928Y-69004014D01*
X103936928Y-69466250D01*
X103953392Y-69633408D01*
X104002150Y-69794142D01*
X104081329Y-69942275D01*
X104187885Y-70072115D01*
X104317725Y-70178671D01*
X104465858Y-70257850D01*
X104626592Y-70306608D01*
X104793750Y-70323072D01*
X105231250Y-70323072D01*
X105398408Y-70306608D01*
X105559142Y-70257850D01*
X105707275Y-70178671D01*
X105837115Y-70072115D01*
X105943671Y-69942275D01*
X105958908Y-69913768D01*
X105987977Y-69883769D01*
X106005652Y-69860768D01*
X106098526Y-69706091D01*
X106110520Y-69679681D01*
X106165875Y-69507966D01*
X106169534Y-69493907D01*
X106277115Y-68956004D01*
X106278963Y-68943611D01*
X106298382Y-68747494D01*
X106299000Y-68734980D01*
X106299000Y-67808234D01*
X106316376Y-67631811D01*
X106366022Y-67468150D01*
X106446638Y-67317328D01*
X106555130Y-67185130D01*
X106687328Y-67076638D01*
X106703354Y-67068072D01*
X107704500Y-67068072D01*
X107828982Y-67055812D01*
X107948680Y-67019502D01*
X108058994Y-66960537D01*
X108097422Y-66929000D01*
X108721766Y-66929000D01*
X108898189Y-66946376D01*
G37*
X108898189Y-66946376D02*
X109061850Y-66996022D01*
X109212672Y-67076638D01*
X109344870Y-67185130D01*
X109453362Y-67317328D01*
X109533978Y-67468150D01*
X109583624Y-67631811D01*
X109601000Y-67808234D01*
X109601000Y-70875766D01*
X109583624Y-71052189D01*
X109533978Y-71215850D01*
X109453362Y-71366672D01*
X109344870Y-71498870D01*
X109212672Y-71607362D01*
X109061850Y-71687978D01*
X108898189Y-71737624D01*
X108721766Y-71755000D01*
X105469472Y-71755000D01*
X105469472Y-71447950D01*
X105453008Y-71280792D01*
X105404250Y-71120058D01*
X105325071Y-70971925D01*
X105218515Y-70842085D01*
X105088675Y-70735529D01*
X104940542Y-70656350D01*
X104779808Y-70607592D01*
X104612650Y-70591128D01*
X104175150Y-70591128D01*
X104007992Y-70607592D01*
X103847258Y-70656350D01*
X103699125Y-70735529D01*
X103682800Y-70748926D01*
X103666475Y-70735529D01*
X103518342Y-70656350D01*
X103357608Y-70607592D01*
X103190450Y-70591128D01*
X102752950Y-70591128D01*
X102585792Y-70607592D01*
X102425058Y-70656350D01*
X102276925Y-70735529D01*
X102235000Y-70769936D01*
X102235000Y-69840589D01*
X102251671Y-69820275D01*
X102330850Y-69672142D01*
X102379608Y-69511408D01*
X102396072Y-69344250D01*
X102396072Y-68831750D01*
X102389080Y-68760762D01*
X102401871Y-68740405D01*
X102522405Y-68619871D01*
X102666729Y-68529186D01*
X102827620Y-68472888D01*
X103004128Y-68453000D01*
X103124854Y-68453000D01*
X103318150Y-68473900D01*
X103495977Y-68533447D01*
X103656969Y-68629632D01*
X103793680Y-68758006D01*
X103899792Y-68912635D01*
X103936928Y-69004014D01*
X103936928Y-69466250D01*
X103953392Y-69633408D01*
X104002150Y-69794142D01*
X104081329Y-69942275D01*
X104187885Y-70072115D01*
X104317725Y-70178671D01*
X104465858Y-70257850D01*
X104626592Y-70306608D01*
X104793750Y-70323072D01*
X105231250Y-70323072D01*
X105398408Y-70306608D01*
X105559142Y-70257850D01*
X105707275Y-70178671D01*
X105837115Y-70072115D01*
X105943671Y-69942275D01*
X105958908Y-69913768D01*
X105987977Y-69883769D01*
X106005652Y-69860768D01*
X106098526Y-69706091D01*
X106110520Y-69679681D01*
X106165875Y-69507966D01*
X106169534Y-69493907D01*
X106277115Y-68956004D01*
X106278963Y-68943611D01*
X106298382Y-68747494D01*
X106299000Y-68734980D01*
X106299000Y-67808234D01*
X106316376Y-67631811D01*
X106366022Y-67468150D01*
X106446638Y-67317328D01*
X106555130Y-67185130D01*
X106687328Y-67076638D01*
X106703354Y-67068072D01*
X107704500Y-67068072D01*
X107828982Y-67055812D01*
X107948680Y-67019502D01*
X108058994Y-66960537D01*
X108097422Y-66929000D01*
X108721766Y-66929000D01*
X108898189Y-66946376D01*
%TO.N,Net-(D1-Pad1)*%
G36*
X102997000Y-63296772D02*
G01*
X102885820Y-63330498D01*
X102775506Y-63389463D01*
X102678815Y-63468815D01*
X102599463Y-63565506D01*
X102540498Y-63675820D01*
X102504188Y-63795518D01*
X102492830Y-63910837D01*
X102404982Y-63884188D01*
X102280500Y-63871928D01*
X100755500Y-63871928D01*
X100631018Y-63884188D01*
X100511320Y-63920498D01*
X100401006Y-63979463D01*
X100304315Y-64058815D01*
X100224963Y-64155506D01*
X100165998Y-64265820D01*
X100129688Y-64385518D01*
X100117428Y-64510000D01*
X100117428Y-65160000D01*
X100129688Y-65284482D01*
X100165998Y-65404180D01*
X100166436Y-65405000D01*
X89027000Y-65405000D01*
X89027000Y-61849000D01*
X102997000Y-61849000D01*
X102997000Y-63296772D01*
G37*
X102997000Y-63296772D02*
X102885820Y-63330498D01*
X102775506Y-63389463D01*
X102678815Y-63468815D01*
X102599463Y-63565506D01*
X102540498Y-63675820D01*
X102504188Y-63795518D01*
X102492830Y-63910837D01*
X102404982Y-63884188D01*
X102280500Y-63871928D01*
X100755500Y-63871928D01*
X100631018Y-63884188D01*
X100511320Y-63920498D01*
X100401006Y-63979463D01*
X100304315Y-64058815D01*
X100224963Y-64155506D01*
X100165998Y-64265820D01*
X100129688Y-64385518D01*
X100117428Y-64510000D01*
X100117428Y-65160000D01*
X100129688Y-65284482D01*
X100165998Y-65404180D01*
X100166436Y-65405000D01*
X89027000Y-65405000D01*
X89027000Y-61849000D01*
X102997000Y-61849000D01*
X102997000Y-63296772D01*
%TO.N,GND*%
G36*
X124540000Y-77040000D02*
G01*
X77960000Y-77040000D01*
X77960000Y-61283640D01*
X79312400Y-61283640D01*
X79312400Y-61576160D01*
X79369468Y-61863058D01*
X79481410Y-62133311D01*
X79643925Y-62376532D01*
X79850768Y-62583375D01*
X80093989Y-62745890D01*
X80364242Y-62857832D01*
X80651140Y-62914900D01*
X80943660Y-62914900D01*
X81230558Y-62857832D01*
X81500811Y-62745890D01*
X81744032Y-62583375D01*
X81950875Y-62376532D01*
X81958647Y-62364900D01*
X82594511Y-62364900D01*
X84917001Y-64687390D01*
X84917000Y-68534068D01*
X84912476Y-68580000D01*
X84928300Y-68740659D01*
X84930529Y-68763291D01*
X84983993Y-68939539D01*
X85070814Y-69101971D01*
X85187656Y-69244344D01*
X85223341Y-69273630D01*
X86382417Y-70432706D01*
X86311993Y-70564460D01*
X86293157Y-70626553D01*
X86269142Y-70650569D01*
X86123744Y-70710795D01*
X85954226Y-70824063D01*
X85810063Y-70968226D01*
X85696795Y-71137744D01*
X85618774Y-71326102D01*
X85579000Y-71526061D01*
X85579000Y-71729939D01*
X85618774Y-71929898D01*
X85696795Y-72118256D01*
X85810063Y-72287774D01*
X85954226Y-72431937D01*
X86123744Y-72545205D01*
X86312102Y-72623226D01*
X86512061Y-72663000D01*
X86715939Y-72663000D01*
X86915898Y-72623226D01*
X87104256Y-72545205D01*
X87273774Y-72431937D01*
X87417937Y-72287774D01*
X87531205Y-72118256D01*
X87532233Y-72115775D01*
X87539150Y-72119472D01*
X87705746Y-72170008D01*
X87879000Y-72187072D01*
X89129000Y-72187072D01*
X89302254Y-72170008D01*
X89468850Y-72119472D01*
X89622386Y-72037405D01*
X89756962Y-71926962D01*
X89822207Y-71847461D01*
X89871038Y-71906962D01*
X90005614Y-72017405D01*
X90159150Y-72099472D01*
X90325746Y-72150008D01*
X90499000Y-72167072D01*
X91749000Y-72167072D01*
X91922254Y-72150008D01*
X92088850Y-72099472D01*
X92242386Y-72017405D01*
X92376962Y-71906962D01*
X92440943Y-71829000D01*
X92455263Y-71829000D01*
X92511038Y-71896962D01*
X92645614Y-72007405D01*
X92799150Y-72089472D01*
X92965746Y-72140008D01*
X93139000Y-72157072D01*
X94389000Y-72157072D01*
X94562254Y-72140008D01*
X94728850Y-72089472D01*
X94882386Y-72007405D01*
X95016962Y-71896962D01*
X95127405Y-71762386D01*
X95209472Y-71608850D01*
X95260008Y-71442254D01*
X95277072Y-71269000D01*
X95277072Y-70519000D01*
X95260008Y-70345746D01*
X95209472Y-70179150D01*
X95127405Y-70025614D01*
X95016962Y-69891038D01*
X94882386Y-69780595D01*
X94728850Y-69698528D01*
X94562254Y-69647992D01*
X94389000Y-69630928D01*
X93823218Y-69630928D01*
X92516072Y-68323783D01*
X92516072Y-68040000D01*
X92503812Y-67915518D01*
X92467502Y-67795820D01*
X92408537Y-67685506D01*
X92329185Y-67588815D01*
X92232494Y-67509463D01*
X92122180Y-67450498D01*
X92002482Y-67414188D01*
X91878000Y-67401928D01*
X89478000Y-67401928D01*
X89353518Y-67414188D01*
X89233820Y-67450498D01*
X89123506Y-67509463D01*
X89026815Y-67588815D01*
X88947463Y-67685506D01*
X88888498Y-67795820D01*
X88852188Y-67915518D01*
X88839928Y-68040000D01*
X88839928Y-69540000D01*
X88851838Y-69660928D01*
X88255217Y-69660928D01*
X86787000Y-68192711D01*
X86787000Y-64346035D01*
X86791524Y-64300100D01*
X86773472Y-64116808D01*
X86728025Y-63966993D01*
X86720007Y-63940560D01*
X86633186Y-63778128D01*
X86516344Y-63635756D01*
X86480659Y-63606470D01*
X84596189Y-61722000D01*
X88265000Y-61722000D01*
X88265000Y-65532000D01*
X88277201Y-65655882D01*
X88313336Y-65775004D01*
X88372017Y-65884787D01*
X88450987Y-65981013D01*
X88547213Y-66059983D01*
X88656996Y-66118664D01*
X88776118Y-66154799D01*
X88900000Y-66167000D01*
X99368699Y-66167000D01*
X98798998Y-66736701D01*
X98770000Y-66760499D01*
X98746202Y-66789497D01*
X98746201Y-66789498D01*
X98675026Y-66876224D01*
X98604454Y-67008254D01*
X98581856Y-67082754D01*
X98560998Y-67151514D01*
X98555108Y-67211312D01*
X98546324Y-67300500D01*
X98550001Y-67337832D01*
X98550000Y-70824171D01*
X98546324Y-70861494D01*
X98550000Y-70898816D01*
X98550000Y-70898826D01*
X98560997Y-71010479D01*
X98604454Y-71153740D01*
X98675026Y-71285770D01*
X98685884Y-71299000D01*
X98769999Y-71401495D01*
X98799003Y-71425298D01*
X100528707Y-73155003D01*
X100552505Y-73184001D01*
X100668230Y-73278974D01*
X100800259Y-73349546D01*
X100943520Y-73393003D01*
X101055173Y-73404000D01*
X101055182Y-73404000D01*
X101092505Y-73407676D01*
X101129828Y-73404000D01*
X112230172Y-73404000D01*
X112267494Y-73407676D01*
X112304816Y-73404000D01*
X112304827Y-73404000D01*
X112416480Y-73393003D01*
X112559741Y-73349546D01*
X112691770Y-73278974D01*
X112807495Y-73184001D01*
X112831298Y-73154997D01*
X115321008Y-70665289D01*
X115350001Y-70641495D01*
X115373795Y-70612502D01*
X115373799Y-70612498D01*
X115444973Y-70525771D01*
X115444974Y-70525770D01*
X115515546Y-70393741D01*
X115559003Y-70250480D01*
X115570000Y-70138827D01*
X115570000Y-70138818D01*
X115573676Y-70101495D01*
X115570000Y-70064172D01*
X115570000Y-68243711D01*
X115613937Y-68199774D01*
X115727205Y-68030256D01*
X115805226Y-67841898D01*
X115845000Y-67641939D01*
X115845000Y-67438061D01*
X115805226Y-67238102D01*
X115727205Y-67049744D01*
X115613937Y-66880226D01*
X115469774Y-66736063D01*
X115300256Y-66622795D01*
X115111898Y-66544774D01*
X114911939Y-66505000D01*
X114708061Y-66505000D01*
X114508102Y-66544774D01*
X114319744Y-66622795D01*
X114150226Y-66736063D01*
X114006063Y-66880226D01*
X113892795Y-67049744D01*
X113842532Y-67171089D01*
X113833937Y-67158226D01*
X113689774Y-67014063D01*
X113520256Y-66900795D01*
X113331898Y-66822774D01*
X113131939Y-66783000D01*
X112928061Y-66783000D01*
X112892093Y-66790154D01*
X112936608Y-66643408D01*
X112953072Y-66476250D01*
X112953072Y-65963750D01*
X112936608Y-65796592D01*
X112887850Y-65635858D01*
X112812500Y-65494889D01*
X112812500Y-65255620D01*
X112944850Y-65215472D01*
X113098386Y-65133405D01*
X113232962Y-65022962D01*
X113288737Y-64955000D01*
X113553319Y-64955000D01*
X113579725Y-64976671D01*
X113727858Y-65055850D01*
X113888592Y-65104608D01*
X114055750Y-65121072D01*
X114493250Y-65121072D01*
X114660408Y-65104608D01*
X114821142Y-65055850D01*
X114969275Y-64976671D01*
X115099115Y-64870115D01*
X115205671Y-64740275D01*
X115284850Y-64592142D01*
X115333608Y-64431408D01*
X115350072Y-64264250D01*
X115350072Y-63751750D01*
X115333608Y-63584592D01*
X115284850Y-63423858D01*
X115205671Y-63275725D01*
X115099115Y-63145885D01*
X114969275Y-63039329D01*
X114821142Y-62960150D01*
X114660408Y-62911392D01*
X114493250Y-62894928D01*
X114055750Y-62894928D01*
X113888592Y-62911392D01*
X113727858Y-62960150D01*
X113579725Y-63039329D01*
X113524074Y-63085000D01*
X113288737Y-63085000D01*
X113232962Y-63017038D01*
X113098386Y-62906595D01*
X112944850Y-62824528D01*
X112778254Y-62773992D01*
X112605000Y-62756928D01*
X111355000Y-62756928D01*
X111181746Y-62773992D01*
X111015150Y-62824528D01*
X110861614Y-62906595D01*
X110788779Y-62966369D01*
X110803072Y-62821250D01*
X110803072Y-62811717D01*
X111156454Y-62458336D01*
X111181746Y-62466008D01*
X111355000Y-62483072D01*
X112605000Y-62483072D01*
X112778254Y-62466008D01*
X112944850Y-62415472D01*
X113098386Y-62333405D01*
X113232962Y-62222962D01*
X113288737Y-62155000D01*
X121371728Y-62155000D01*
X121371728Y-62279900D01*
X121383988Y-62404382D01*
X121420298Y-62524080D01*
X121479263Y-62634394D01*
X121558615Y-62731085D01*
X121655306Y-62810437D01*
X121765620Y-62869402D01*
X121885318Y-62905712D01*
X122009800Y-62917972D01*
X123709800Y-62917972D01*
X123834282Y-62905712D01*
X123953980Y-62869402D01*
X124064294Y-62810437D01*
X124160985Y-62731085D01*
X124240337Y-62634394D01*
X124299302Y-62524080D01*
X124335612Y-62404382D01*
X124347872Y-62279900D01*
X124347872Y-60579900D01*
X124335612Y-60455418D01*
X124299302Y-60335720D01*
X124240337Y-60225406D01*
X124160985Y-60128715D01*
X124064294Y-60049363D01*
X123953980Y-59990398D01*
X123834282Y-59954088D01*
X123709800Y-59941828D01*
X122009800Y-59941828D01*
X121885318Y-59954088D01*
X121765620Y-59990398D01*
X121655306Y-60049363D01*
X121558615Y-60128715D01*
X121479263Y-60225406D01*
X121447409Y-60285000D01*
X116294560Y-60285000D01*
X116273636Y-60245854D01*
X116169291Y-60118709D01*
X116137426Y-60092558D01*
X116086092Y-60041225D01*
X116057226Y-59896102D01*
X115979205Y-59707744D01*
X115865937Y-59538226D01*
X115721774Y-59394063D01*
X115552256Y-59280795D01*
X115363898Y-59202774D01*
X115163939Y-59163000D01*
X114960061Y-59163000D01*
X114760102Y-59202774D01*
X114571744Y-59280795D01*
X114402226Y-59394063D01*
X114258063Y-59538226D01*
X114144795Y-59707744D01*
X114066774Y-59896102D01*
X114027000Y-60096061D01*
X114027000Y-60285000D01*
X113288737Y-60285000D01*
X113232962Y-60217038D01*
X113098386Y-60106595D01*
X112944850Y-60024528D01*
X112778254Y-59973992D01*
X112605000Y-59956928D01*
X111355000Y-59956928D01*
X111181746Y-59973992D01*
X111015150Y-60024528D01*
X110861614Y-60106595D01*
X110727038Y-60217038D01*
X110616595Y-60351614D01*
X110577768Y-60424254D01*
X110550528Y-60438814D01*
X110408156Y-60555656D01*
X110378874Y-60591336D01*
X109443283Y-61526928D01*
X109433750Y-61526928D01*
X109266592Y-61543392D01*
X109105858Y-61592150D01*
X108964889Y-61667500D01*
X107950435Y-61667500D01*
X107904500Y-61662976D01*
X107721208Y-61681028D01*
X107544959Y-61734493D01*
X107497237Y-61760001D01*
X107382528Y-61821314D01*
X107240156Y-61938156D01*
X107210870Y-61973841D01*
X107028571Y-62156140D01*
X103759000Y-62164813D01*
X103759000Y-61722000D01*
X103746799Y-61598118D01*
X103710664Y-61478996D01*
X103651983Y-61369213D01*
X103573013Y-61272987D01*
X103476787Y-61194017D01*
X103367004Y-61135336D01*
X103247882Y-61099201D01*
X103124000Y-61087000D01*
X88900000Y-61087000D01*
X88776118Y-61099201D01*
X88656996Y-61135336D01*
X88547213Y-61194017D01*
X88450987Y-61272987D01*
X88372017Y-61369213D01*
X88313336Y-61478996D01*
X88277201Y-61598118D01*
X88265000Y-61722000D01*
X84596189Y-61722000D01*
X83675430Y-60801241D01*
X83646144Y-60765556D01*
X83503772Y-60648714D01*
X83341340Y-60561893D01*
X83165092Y-60508429D01*
X83027732Y-60494900D01*
X82981800Y-60490376D01*
X82935868Y-60494900D01*
X81958647Y-60494900D01*
X81950875Y-60483268D01*
X81744032Y-60276425D01*
X81500811Y-60113910D01*
X81230558Y-60001968D01*
X80943660Y-59944900D01*
X80651140Y-59944900D01*
X80364242Y-60001968D01*
X80093989Y-60113910D01*
X79850768Y-60276425D01*
X79643925Y-60483268D01*
X79481410Y-60726489D01*
X79369468Y-60996742D01*
X79312400Y-61283640D01*
X77960000Y-61283640D01*
X77960000Y-57960000D01*
X124540001Y-57960000D01*
X124540000Y-77040000D01*
G37*
X124540000Y-77040000D02*
X77960000Y-77040000D01*
X77960000Y-61283640D01*
X79312400Y-61283640D01*
X79312400Y-61576160D01*
X79369468Y-61863058D01*
X79481410Y-62133311D01*
X79643925Y-62376532D01*
X79850768Y-62583375D01*
X80093989Y-62745890D01*
X80364242Y-62857832D01*
X80651140Y-62914900D01*
X80943660Y-62914900D01*
X81230558Y-62857832D01*
X81500811Y-62745890D01*
X81744032Y-62583375D01*
X81950875Y-62376532D01*
X81958647Y-62364900D01*
X82594511Y-62364900D01*
X84917001Y-64687390D01*
X84917000Y-68534068D01*
X84912476Y-68580000D01*
X84928300Y-68740659D01*
X84930529Y-68763291D01*
X84983993Y-68939539D01*
X85070814Y-69101971D01*
X85187656Y-69244344D01*
X85223341Y-69273630D01*
X86382417Y-70432706D01*
X86311993Y-70564460D01*
X86293157Y-70626553D01*
X86269142Y-70650569D01*
X86123744Y-70710795D01*
X85954226Y-70824063D01*
X85810063Y-70968226D01*
X85696795Y-71137744D01*
X85618774Y-71326102D01*
X85579000Y-71526061D01*
X85579000Y-71729939D01*
X85618774Y-71929898D01*
X85696795Y-72118256D01*
X85810063Y-72287774D01*
X85954226Y-72431937D01*
X86123744Y-72545205D01*
X86312102Y-72623226D01*
X86512061Y-72663000D01*
X86715939Y-72663000D01*
X86915898Y-72623226D01*
X87104256Y-72545205D01*
X87273774Y-72431937D01*
X87417937Y-72287774D01*
X87531205Y-72118256D01*
X87532233Y-72115775D01*
X87539150Y-72119472D01*
X87705746Y-72170008D01*
X87879000Y-72187072D01*
X89129000Y-72187072D01*
X89302254Y-72170008D01*
X89468850Y-72119472D01*
X89622386Y-72037405D01*
X89756962Y-71926962D01*
X89822207Y-71847461D01*
X89871038Y-71906962D01*
X90005614Y-72017405D01*
X90159150Y-72099472D01*
X90325746Y-72150008D01*
X90499000Y-72167072D01*
X91749000Y-72167072D01*
X91922254Y-72150008D01*
X92088850Y-72099472D01*
X92242386Y-72017405D01*
X92376962Y-71906962D01*
X92440943Y-71829000D01*
X92455263Y-71829000D01*
X92511038Y-71896962D01*
X92645614Y-72007405D01*
X92799150Y-72089472D01*
X92965746Y-72140008D01*
X93139000Y-72157072D01*
X94389000Y-72157072D01*
X94562254Y-72140008D01*
X94728850Y-72089472D01*
X94882386Y-72007405D01*
X95016962Y-71896962D01*
X95127405Y-71762386D01*
X95209472Y-71608850D01*
X95260008Y-71442254D01*
X95277072Y-71269000D01*
X95277072Y-70519000D01*
X95260008Y-70345746D01*
X95209472Y-70179150D01*
X95127405Y-70025614D01*
X95016962Y-69891038D01*
X94882386Y-69780595D01*
X94728850Y-69698528D01*
X94562254Y-69647992D01*
X94389000Y-69630928D01*
X93823218Y-69630928D01*
X92516072Y-68323783D01*
X92516072Y-68040000D01*
X92503812Y-67915518D01*
X92467502Y-67795820D01*
X92408537Y-67685506D01*
X92329185Y-67588815D01*
X92232494Y-67509463D01*
X92122180Y-67450498D01*
X92002482Y-67414188D01*
X91878000Y-67401928D01*
X89478000Y-67401928D01*
X89353518Y-67414188D01*
X89233820Y-67450498D01*
X89123506Y-67509463D01*
X89026815Y-67588815D01*
X88947463Y-67685506D01*
X88888498Y-67795820D01*
X88852188Y-67915518D01*
X88839928Y-68040000D01*
X88839928Y-69540000D01*
X88851838Y-69660928D01*
X88255217Y-69660928D01*
X86787000Y-68192711D01*
X86787000Y-64346035D01*
X86791524Y-64300100D01*
X86773472Y-64116808D01*
X86728025Y-63966993D01*
X86720007Y-63940560D01*
X86633186Y-63778128D01*
X86516344Y-63635756D01*
X86480659Y-63606470D01*
X84596189Y-61722000D01*
X88265000Y-61722000D01*
X88265000Y-65532000D01*
X88277201Y-65655882D01*
X88313336Y-65775004D01*
X88372017Y-65884787D01*
X88450987Y-65981013D01*
X88547213Y-66059983D01*
X88656996Y-66118664D01*
X88776118Y-66154799D01*
X88900000Y-66167000D01*
X99368699Y-66167000D01*
X98798998Y-66736701D01*
X98770000Y-66760499D01*
X98746202Y-66789497D01*
X98746201Y-66789498D01*
X98675026Y-66876224D01*
X98604454Y-67008254D01*
X98581856Y-67082754D01*
X98560998Y-67151514D01*
X98555108Y-67211312D01*
X98546324Y-67300500D01*
X98550001Y-67337832D01*
X98550000Y-70824171D01*
X98546324Y-70861494D01*
X98550000Y-70898816D01*
X98550000Y-70898826D01*
X98560997Y-71010479D01*
X98604454Y-71153740D01*
X98675026Y-71285770D01*
X98685884Y-71299000D01*
X98769999Y-71401495D01*
X98799003Y-71425298D01*
X100528707Y-73155003D01*
X100552505Y-73184001D01*
X100668230Y-73278974D01*
X100800259Y-73349546D01*
X100943520Y-73393003D01*
X101055173Y-73404000D01*
X101055182Y-73404000D01*
X101092505Y-73407676D01*
X101129828Y-73404000D01*
X112230172Y-73404000D01*
X112267494Y-73407676D01*
X112304816Y-73404000D01*
X112304827Y-73404000D01*
X112416480Y-73393003D01*
X112559741Y-73349546D01*
X112691770Y-73278974D01*
X112807495Y-73184001D01*
X112831298Y-73154997D01*
X115321008Y-70665289D01*
X115350001Y-70641495D01*
X115373795Y-70612502D01*
X115373799Y-70612498D01*
X115444973Y-70525771D01*
X115444974Y-70525770D01*
X115515546Y-70393741D01*
X115559003Y-70250480D01*
X115570000Y-70138827D01*
X115570000Y-70138818D01*
X115573676Y-70101495D01*
X115570000Y-70064172D01*
X115570000Y-68243711D01*
X115613937Y-68199774D01*
X115727205Y-68030256D01*
X115805226Y-67841898D01*
X115845000Y-67641939D01*
X115845000Y-67438061D01*
X115805226Y-67238102D01*
X115727205Y-67049744D01*
X115613937Y-66880226D01*
X115469774Y-66736063D01*
X115300256Y-66622795D01*
X115111898Y-66544774D01*
X114911939Y-66505000D01*
X114708061Y-66505000D01*
X114508102Y-66544774D01*
X114319744Y-66622795D01*
X114150226Y-66736063D01*
X114006063Y-66880226D01*
X113892795Y-67049744D01*
X113842532Y-67171089D01*
X113833937Y-67158226D01*
X113689774Y-67014063D01*
X113520256Y-66900795D01*
X113331898Y-66822774D01*
X113131939Y-66783000D01*
X112928061Y-66783000D01*
X112892093Y-66790154D01*
X112936608Y-66643408D01*
X112953072Y-66476250D01*
X112953072Y-65963750D01*
X112936608Y-65796592D01*
X112887850Y-65635858D01*
X112812500Y-65494889D01*
X112812500Y-65255620D01*
X112944850Y-65215472D01*
X113098386Y-65133405D01*
X113232962Y-65022962D01*
X113288737Y-64955000D01*
X113553319Y-64955000D01*
X113579725Y-64976671D01*
X113727858Y-65055850D01*
X113888592Y-65104608D01*
X114055750Y-65121072D01*
X114493250Y-65121072D01*
X114660408Y-65104608D01*
X114821142Y-65055850D01*
X114969275Y-64976671D01*
X115099115Y-64870115D01*
X115205671Y-64740275D01*
X115284850Y-64592142D01*
X115333608Y-64431408D01*
X115350072Y-64264250D01*
X115350072Y-63751750D01*
X115333608Y-63584592D01*
X115284850Y-63423858D01*
X115205671Y-63275725D01*
X115099115Y-63145885D01*
X114969275Y-63039329D01*
X114821142Y-62960150D01*
X114660408Y-62911392D01*
X114493250Y-62894928D01*
X114055750Y-62894928D01*
X113888592Y-62911392D01*
X113727858Y-62960150D01*
X113579725Y-63039329D01*
X113524074Y-63085000D01*
X113288737Y-63085000D01*
X113232962Y-63017038D01*
X113098386Y-62906595D01*
X112944850Y-62824528D01*
X112778254Y-62773992D01*
X112605000Y-62756928D01*
X111355000Y-62756928D01*
X111181746Y-62773992D01*
X111015150Y-62824528D01*
X110861614Y-62906595D01*
X110788779Y-62966369D01*
X110803072Y-62821250D01*
X110803072Y-62811717D01*
X111156454Y-62458336D01*
X111181746Y-62466008D01*
X111355000Y-62483072D01*
X112605000Y-62483072D01*
X112778254Y-62466008D01*
X112944850Y-62415472D01*
X113098386Y-62333405D01*
X113232962Y-62222962D01*
X113288737Y-62155000D01*
X121371728Y-62155000D01*
X121371728Y-62279900D01*
X121383988Y-62404382D01*
X121420298Y-62524080D01*
X121479263Y-62634394D01*
X121558615Y-62731085D01*
X121655306Y-62810437D01*
X121765620Y-62869402D01*
X121885318Y-62905712D01*
X122009800Y-62917972D01*
X123709800Y-62917972D01*
X123834282Y-62905712D01*
X123953980Y-62869402D01*
X124064294Y-62810437D01*
X124160985Y-62731085D01*
X124240337Y-62634394D01*
X124299302Y-62524080D01*
X124335612Y-62404382D01*
X124347872Y-62279900D01*
X124347872Y-60579900D01*
X124335612Y-60455418D01*
X124299302Y-60335720D01*
X124240337Y-60225406D01*
X124160985Y-60128715D01*
X124064294Y-60049363D01*
X123953980Y-59990398D01*
X123834282Y-59954088D01*
X123709800Y-59941828D01*
X122009800Y-59941828D01*
X121885318Y-59954088D01*
X121765620Y-59990398D01*
X121655306Y-60049363D01*
X121558615Y-60128715D01*
X121479263Y-60225406D01*
X121447409Y-60285000D01*
X116294560Y-60285000D01*
X116273636Y-60245854D01*
X116169291Y-60118709D01*
X116137426Y-60092558D01*
X116086092Y-60041225D01*
X116057226Y-59896102D01*
X115979205Y-59707744D01*
X115865937Y-59538226D01*
X115721774Y-59394063D01*
X115552256Y-59280795D01*
X115363898Y-59202774D01*
X115163939Y-59163000D01*
X114960061Y-59163000D01*
X114760102Y-59202774D01*
X114571744Y-59280795D01*
X114402226Y-59394063D01*
X114258063Y-59538226D01*
X114144795Y-59707744D01*
X114066774Y-59896102D01*
X114027000Y-60096061D01*
X114027000Y-60285000D01*
X113288737Y-60285000D01*
X113232962Y-60217038D01*
X113098386Y-60106595D01*
X112944850Y-60024528D01*
X112778254Y-59973992D01*
X112605000Y-59956928D01*
X111355000Y-59956928D01*
X111181746Y-59973992D01*
X111015150Y-60024528D01*
X110861614Y-60106595D01*
X110727038Y-60217038D01*
X110616595Y-60351614D01*
X110577768Y-60424254D01*
X110550528Y-60438814D01*
X110408156Y-60555656D01*
X110378874Y-60591336D01*
X109443283Y-61526928D01*
X109433750Y-61526928D01*
X109266592Y-61543392D01*
X109105858Y-61592150D01*
X108964889Y-61667500D01*
X107950435Y-61667500D01*
X107904500Y-61662976D01*
X107721208Y-61681028D01*
X107544959Y-61734493D01*
X107497237Y-61760001D01*
X107382528Y-61821314D01*
X107240156Y-61938156D01*
X107210870Y-61973841D01*
X107028571Y-62156140D01*
X103759000Y-62164813D01*
X103759000Y-61722000D01*
X103746799Y-61598118D01*
X103710664Y-61478996D01*
X103651983Y-61369213D01*
X103573013Y-61272987D01*
X103476787Y-61194017D01*
X103367004Y-61135336D01*
X103247882Y-61099201D01*
X103124000Y-61087000D01*
X88900000Y-61087000D01*
X88776118Y-61099201D01*
X88656996Y-61135336D01*
X88547213Y-61194017D01*
X88450987Y-61272987D01*
X88372017Y-61369213D01*
X88313336Y-61478996D01*
X88277201Y-61598118D01*
X88265000Y-61722000D01*
X84596189Y-61722000D01*
X83675430Y-60801241D01*
X83646144Y-60765556D01*
X83503772Y-60648714D01*
X83341340Y-60561893D01*
X83165092Y-60508429D01*
X83027732Y-60494900D01*
X82981800Y-60490376D01*
X82935868Y-60494900D01*
X81958647Y-60494900D01*
X81950875Y-60483268D01*
X81744032Y-60276425D01*
X81500811Y-60113910D01*
X81230558Y-60001968D01*
X80943660Y-59944900D01*
X80651140Y-59944900D01*
X80364242Y-60001968D01*
X80093989Y-60113910D01*
X79850768Y-60276425D01*
X79643925Y-60483268D01*
X79481410Y-60726489D01*
X79369468Y-60996742D01*
X79312400Y-61283640D01*
X77960000Y-61283640D01*
X77960000Y-57960000D01*
X124540001Y-57960000D01*
X124540000Y-77040000D01*
%TO.N,BC_GND*%
G36*
X105589998Y-62995820D02*
G01*
X105553688Y-63115518D01*
X105541428Y-63240000D01*
X105541428Y-63890000D01*
X105553688Y-64014482D01*
X105589998Y-64134180D01*
X105648963Y-64244494D01*
X105728315Y-64341185D01*
X105825006Y-64420537D01*
X105935320Y-64479502D01*
X106055018Y-64515812D01*
X106179500Y-64528072D01*
X107704500Y-64528072D01*
X107790501Y-64519602D01*
X107792543Y-65150599D01*
X107704500Y-65141928D01*
X106179500Y-65141928D01*
X106055018Y-65154188D01*
X105935320Y-65190498D01*
X105825006Y-65249463D01*
X105728315Y-65328815D01*
X105648963Y-65425506D01*
X105589998Y-65535820D01*
X105553688Y-65655518D01*
X105541428Y-65780000D01*
X105541428Y-66430000D01*
X105553688Y-66554482D01*
X105589998Y-66674180D01*
X105625180Y-66740000D01*
X105589998Y-66805820D01*
X105553688Y-66925518D01*
X105541428Y-67050000D01*
X105541428Y-67700000D01*
X105542701Y-67712925D01*
X105540058Y-67739758D01*
X105537000Y-67802000D01*
X105537000Y-68703617D01*
X105528973Y-68784675D01*
X105528392Y-68786592D01*
X105523042Y-68840910D01*
X105459872Y-69156760D01*
X105382073Y-69234559D01*
X105350210Y-69260709D01*
X105285739Y-69339267D01*
X105245864Y-69387855D01*
X105227805Y-69421641D01*
X105109509Y-69409990D01*
X105109508Y-69409990D01*
X105068490Y-69405950D01*
X105027472Y-69409990D01*
X104960101Y-69409990D01*
X104930729Y-69392442D01*
X104874101Y-69339267D01*
X104830148Y-69275219D01*
X104787941Y-69171361D01*
X104703791Y-68876833D01*
X104681499Y-68812206D01*
X104600553Y-68613026D01*
X104535853Y-68492804D01*
X104414202Y-68315530D01*
X104325302Y-68211919D01*
X104168570Y-68064745D01*
X104059576Y-67982530D01*
X103875008Y-67872260D01*
X103750958Y-67815244D01*
X103547085Y-67746975D01*
X103413714Y-67717792D01*
X103311900Y-67706783D01*
X103278343Y-67631274D01*
X103262653Y-67520777D01*
X103259272Y-66151344D01*
X103367004Y-66118664D01*
X103476787Y-66059983D01*
X103573013Y-65981013D01*
X103651983Y-65884787D01*
X103710664Y-65775004D01*
X103746799Y-65655882D01*
X103759000Y-65532000D01*
X103759000Y-62926817D01*
X105629534Y-62921855D01*
X105589998Y-62995820D01*
G37*
X105589998Y-62995820D02*
X105553688Y-63115518D01*
X105541428Y-63240000D01*
X105541428Y-63890000D01*
X105553688Y-64014482D01*
X105589998Y-64134180D01*
X105648963Y-64244494D01*
X105728315Y-64341185D01*
X105825006Y-64420537D01*
X105935320Y-64479502D01*
X106055018Y-64515812D01*
X106179500Y-64528072D01*
X107704500Y-64528072D01*
X107790501Y-64519602D01*
X107792543Y-65150599D01*
X107704500Y-65141928D01*
X106179500Y-65141928D01*
X106055018Y-65154188D01*
X105935320Y-65190498D01*
X105825006Y-65249463D01*
X105728315Y-65328815D01*
X105648963Y-65425506D01*
X105589998Y-65535820D01*
X105553688Y-65655518D01*
X105541428Y-65780000D01*
X105541428Y-66430000D01*
X105553688Y-66554482D01*
X105589998Y-66674180D01*
X105625180Y-66740000D01*
X105589998Y-66805820D01*
X105553688Y-66925518D01*
X105541428Y-67050000D01*
X105541428Y-67700000D01*
X105542701Y-67712925D01*
X105540058Y-67739758D01*
X105537000Y-67802000D01*
X105537000Y-68703617D01*
X105528973Y-68784675D01*
X105528392Y-68786592D01*
X105523042Y-68840910D01*
X105459872Y-69156760D01*
X105382073Y-69234559D01*
X105350210Y-69260709D01*
X105285739Y-69339267D01*
X105245864Y-69387855D01*
X105227805Y-69421641D01*
X105109509Y-69409990D01*
X105109508Y-69409990D01*
X105068490Y-69405950D01*
X105027472Y-69409990D01*
X104960101Y-69409990D01*
X104930729Y-69392442D01*
X104874101Y-69339267D01*
X104830148Y-69275219D01*
X104787941Y-69171361D01*
X104703791Y-68876833D01*
X104681499Y-68812206D01*
X104600553Y-68613026D01*
X104535853Y-68492804D01*
X104414202Y-68315530D01*
X104325302Y-68211919D01*
X104168570Y-68064745D01*
X104059576Y-67982530D01*
X103875008Y-67872260D01*
X103750958Y-67815244D01*
X103547085Y-67746975D01*
X103413714Y-67717792D01*
X103311900Y-67706783D01*
X103278343Y-67631274D01*
X103262653Y-67520777D01*
X103259272Y-66151344D01*
X103367004Y-66118664D01*
X103476787Y-66059983D01*
X103573013Y-65981013D01*
X103651983Y-65884787D01*
X103710664Y-65775004D01*
X103746799Y-65655882D01*
X103759000Y-65532000D01*
X103759000Y-62926817D01*
X105629534Y-62921855D01*
X105589998Y-62995820D01*
%TD*%
M02*
