%TF.GenerationSoftware,KiCad,Pcbnew,(5.1.6)-1*%
%TF.CreationDate,2021-05-11T15:15:27+02:00*%
%TF.ProjectId,Buck_Converter,4275636b-5f43-46f6-9e76-65727465722e,rev?*%
%TF.SameCoordinates,Original*%
%TF.FileFunction,Legend,Top*%
%TF.FilePolarity,Positive*%
%FSLAX46Y46*%
G04 Gerber Fmt 4.6, Leading zero omitted, Abs format (unit mm)*
G04 Created by KiCad (PCBNEW (5.1.6)-1) date 2021-05-11 15:15:27*
%MOMM*%
%LPD*%
G01*
G04 APERTURE LIST*
%ADD10C,0.150000*%
%ADD11C,0.120000*%
%ADD12C,0.200000*%
%ADD13C,0.254000*%
G04 APERTURE END LIST*
D10*
X100571419Y-60494942D02*
X101428561Y-61780657D01*
X102285704Y-60542561D02*
X101428561Y-61828276D01*
D11*
%TO.C,C1*%
X112890000Y-63222064D02*
X112890000Y-62017936D01*
X111070000Y-63222064D02*
X111070000Y-62017936D01*
%TO.C,C2*%
X110200000Y-63552779D02*
X110200000Y-63227221D01*
X109180000Y-63552779D02*
X109180000Y-63227221D01*
%TO.C,C3*%
X101945221Y-69598000D02*
X102270779Y-69598000D01*
X101945221Y-68578000D02*
X102270779Y-68578000D01*
%TO.C,C4*%
X102021421Y-71194200D02*
X102346979Y-71194200D01*
X102021421Y-72214200D02*
X102346979Y-72214200D01*
%TO.C,C5*%
X110073221Y-70356000D02*
X110398779Y-70356000D01*
X110073221Y-71376000D02*
X110398779Y-71376000D01*
%TO.C,C6*%
X87594000Y-72926064D02*
X87594000Y-71721936D01*
X89414000Y-72926064D02*
X89414000Y-71721936D01*
%TO.C,C7*%
X94674000Y-72896064D02*
X94674000Y-71691936D01*
X92854000Y-72896064D02*
X92854000Y-71691936D01*
%TO.C,C8*%
X90214000Y-72906064D02*
X90214000Y-71701936D01*
X92034000Y-72906064D02*
X92034000Y-71701936D01*
%TO.C,D1*%
X98566000Y-62354000D02*
X98566000Y-68054000D01*
X94266000Y-62354000D02*
X94266000Y-68054000D01*
X98566000Y-62354000D02*
X94266000Y-62354000D01*
D12*
%TO.C,IC1*%
X100755000Y-62890000D02*
X102280000Y-62890000D01*
D11*
%TO.C,L1*%
X87478000Y-62740000D02*
X89178000Y-62740000D01*
X87478000Y-69340000D02*
X87478000Y-62740000D01*
X89178000Y-69340000D02*
X87478000Y-69340000D01*
X93878000Y-69340000D02*
X92178000Y-69340000D01*
X93878000Y-62740000D02*
X93878000Y-69340000D01*
X92178000Y-62740000D02*
X93878000Y-62740000D01*
%TO.C,R1*%
X111252779Y-65710000D02*
X110927221Y-65710000D01*
X111252779Y-66730000D02*
X110927221Y-66730000D01*
%TO.C,R2*%
X105018621Y-71194200D02*
X105344179Y-71194200D01*
X105018621Y-72214200D02*
X105344179Y-72214200D01*
%TO.C,R3*%
X110398779Y-68832000D02*
X110073221Y-68832000D01*
X110398779Y-69852000D02*
X110073221Y-69852000D01*
%TO.C,R5*%
X113286000Y-69941221D02*
X113286000Y-70266779D01*
X112266000Y-69941221D02*
X112266000Y-70266779D01*
%TO.C,R4*%
X105962779Y-69720000D02*
X105637221Y-69720000D01*
X105962779Y-68700000D02*
X105637221Y-68700000D01*
%TO.C,R6*%
X115224779Y-63498000D02*
X114899221Y-63498000D01*
X115224779Y-64518000D02*
X114899221Y-64518000D01*
%TO.C,J1*%
X121529800Y-65299900D02*
X124189800Y-65299900D01*
X121529800Y-62699900D02*
X121529800Y-65299900D01*
X124189800Y-62699900D02*
X124189800Y-65299900D01*
X121529800Y-62699900D02*
X124189800Y-62699900D01*
X121529800Y-61429900D02*
X121529800Y-60099900D01*
X121529800Y-60099900D02*
X122859800Y-60099900D01*
%TO.C,J2*%
X82127400Y-65299900D02*
X80797400Y-65299900D01*
X82127400Y-63969900D02*
X82127400Y-65299900D01*
X82127400Y-62699900D02*
X79467400Y-62699900D01*
X79467400Y-62699900D02*
X79467400Y-60099900D01*
X82127400Y-62699900D02*
X82127400Y-60099900D01*
X82127400Y-60099900D02*
X79467400Y-60099900D01*
%TO.C,C1*%
D10*
X112320342Y-59348666D02*
X112367961Y-59396285D01*
X112415580Y-59539142D01*
X112415580Y-59634380D01*
X112367961Y-59777238D01*
X112272723Y-59872476D01*
X112177485Y-59920095D01*
X111987009Y-59967714D01*
X111844152Y-59967714D01*
X111653676Y-59920095D01*
X111558438Y-59872476D01*
X111463200Y-59777238D01*
X111415580Y-59634380D01*
X111415580Y-59539142D01*
X111463200Y-59396285D01*
X111510819Y-59348666D01*
X112415580Y-58396285D02*
X112415580Y-58967714D01*
X112415580Y-58682000D02*
X111415580Y-58682000D01*
X111558438Y-58777238D01*
X111653676Y-58872476D01*
X111701295Y-58967714D01*
%TO.C,C2*%
X110085142Y-60097966D02*
X110132761Y-60145585D01*
X110180380Y-60288442D01*
X110180380Y-60383680D01*
X110132761Y-60526538D01*
X110037523Y-60621776D01*
X109942285Y-60669395D01*
X109751809Y-60717014D01*
X109608952Y-60717014D01*
X109418476Y-60669395D01*
X109323238Y-60621776D01*
X109228000Y-60526538D01*
X109180380Y-60383680D01*
X109180380Y-60288442D01*
X109228000Y-60145585D01*
X109275619Y-60097966D01*
X109275619Y-59717014D02*
X109228000Y-59669395D01*
X109180380Y-59574157D01*
X109180380Y-59336061D01*
X109228000Y-59240823D01*
X109275619Y-59193204D01*
X109370857Y-59145585D01*
X109466095Y-59145585D01*
X109608952Y-59193204D01*
X110180380Y-59764633D01*
X110180380Y-59145585D01*
%TO.C,C3*%
X101573033Y-73839342D02*
X101525414Y-73886961D01*
X101382557Y-73934580D01*
X101287319Y-73934580D01*
X101144461Y-73886961D01*
X101049223Y-73791723D01*
X101001604Y-73696485D01*
X100953985Y-73506009D01*
X100953985Y-73363152D01*
X101001604Y-73172676D01*
X101049223Y-73077438D01*
X101144461Y-72982200D01*
X101287319Y-72934580D01*
X101382557Y-72934580D01*
X101525414Y-72982200D01*
X101573033Y-73029819D01*
X101906366Y-72934580D02*
X102525414Y-72934580D01*
X102192080Y-73315533D01*
X102334938Y-73315533D01*
X102430176Y-73363152D01*
X102477795Y-73410771D01*
X102525414Y-73506009D01*
X102525414Y-73744104D01*
X102477795Y-73839342D01*
X102430176Y-73886961D01*
X102334938Y-73934580D01*
X102049223Y-73934580D01*
X101953985Y-73886961D01*
X101906366Y-73839342D01*
%TO.C,C4*%
X101217433Y-75706242D02*
X101169814Y-75753861D01*
X101026957Y-75801480D01*
X100931719Y-75801480D01*
X100788861Y-75753861D01*
X100693623Y-75658623D01*
X100646004Y-75563385D01*
X100598385Y-75372909D01*
X100598385Y-75230052D01*
X100646004Y-75039576D01*
X100693623Y-74944338D01*
X100788861Y-74849100D01*
X100931719Y-74801480D01*
X101026957Y-74801480D01*
X101169814Y-74849100D01*
X101217433Y-74896719D01*
X102074576Y-75134814D02*
X102074576Y-75801480D01*
X101836480Y-74753861D02*
X101598385Y-75468147D01*
X102217433Y-75468147D01*
%TO.C,C5*%
X110145533Y-74334642D02*
X110097914Y-74382261D01*
X109955057Y-74429880D01*
X109859819Y-74429880D01*
X109716961Y-74382261D01*
X109621723Y-74287023D01*
X109574104Y-74191785D01*
X109526485Y-74001309D01*
X109526485Y-73858452D01*
X109574104Y-73667976D01*
X109621723Y-73572738D01*
X109716961Y-73477500D01*
X109859819Y-73429880D01*
X109955057Y-73429880D01*
X110097914Y-73477500D01*
X110145533Y-73525119D01*
X111050295Y-73429880D02*
X110574104Y-73429880D01*
X110526485Y-73906071D01*
X110574104Y-73858452D01*
X110669342Y-73810833D01*
X110907438Y-73810833D01*
X111002676Y-73858452D01*
X111050295Y-73906071D01*
X111097914Y-74001309D01*
X111097914Y-74239404D01*
X111050295Y-74334642D01*
X111002676Y-74382261D01*
X110907438Y-74429880D01*
X110669342Y-74429880D01*
X110574104Y-74382261D01*
X110526485Y-74334642D01*
%TO.C,C6*%
X88901542Y-75884066D02*
X88949161Y-75931685D01*
X88996780Y-76074542D01*
X88996780Y-76169780D01*
X88949161Y-76312638D01*
X88853923Y-76407876D01*
X88758685Y-76455495D01*
X88568209Y-76503114D01*
X88425352Y-76503114D01*
X88234876Y-76455495D01*
X88139638Y-76407876D01*
X88044400Y-76312638D01*
X87996780Y-76169780D01*
X87996780Y-76074542D01*
X88044400Y-75931685D01*
X88092019Y-75884066D01*
X87996780Y-75026923D02*
X87996780Y-75217400D01*
X88044400Y-75312638D01*
X88092019Y-75360257D01*
X88234876Y-75455495D01*
X88425352Y-75503114D01*
X88806304Y-75503114D01*
X88901542Y-75455495D01*
X88949161Y-75407876D01*
X88996780Y-75312638D01*
X88996780Y-75122161D01*
X88949161Y-75026923D01*
X88901542Y-74979304D01*
X88806304Y-74931685D01*
X88568209Y-74931685D01*
X88472971Y-74979304D01*
X88425352Y-75026923D01*
X88377733Y-75122161D01*
X88377733Y-75312638D01*
X88425352Y-75407876D01*
X88472971Y-75455495D01*
X88568209Y-75503114D01*
%TO.C,C7*%
X94235542Y-75922166D02*
X94283161Y-75969785D01*
X94330780Y-76112642D01*
X94330780Y-76207880D01*
X94283161Y-76350738D01*
X94187923Y-76445976D01*
X94092685Y-76493595D01*
X93902209Y-76541214D01*
X93759352Y-76541214D01*
X93568876Y-76493595D01*
X93473638Y-76445976D01*
X93378400Y-76350738D01*
X93330780Y-76207880D01*
X93330780Y-76112642D01*
X93378400Y-75969785D01*
X93426019Y-75922166D01*
X93330780Y-75588833D02*
X93330780Y-74922166D01*
X94330780Y-75350738D01*
%TO.C,C8*%
X91505042Y-75909466D02*
X91552661Y-75957085D01*
X91600280Y-76099942D01*
X91600280Y-76195180D01*
X91552661Y-76338038D01*
X91457423Y-76433276D01*
X91362185Y-76480895D01*
X91171709Y-76528514D01*
X91028852Y-76528514D01*
X90838376Y-76480895D01*
X90743138Y-76433276D01*
X90647900Y-76338038D01*
X90600280Y-76195180D01*
X90600280Y-76099942D01*
X90647900Y-75957085D01*
X90695519Y-75909466D01*
X91028852Y-75338038D02*
X90981233Y-75433276D01*
X90933614Y-75480895D01*
X90838376Y-75528514D01*
X90790757Y-75528514D01*
X90695519Y-75480895D01*
X90647900Y-75433276D01*
X90600280Y-75338038D01*
X90600280Y-75147561D01*
X90647900Y-75052323D01*
X90695519Y-75004704D01*
X90790757Y-74957085D01*
X90838376Y-74957085D01*
X90933614Y-75004704D01*
X90981233Y-75052323D01*
X91028852Y-75147561D01*
X91028852Y-75338038D01*
X91076471Y-75433276D01*
X91124090Y-75480895D01*
X91219328Y-75528514D01*
X91409804Y-75528514D01*
X91505042Y-75480895D01*
X91552661Y-75433276D01*
X91600280Y-75338038D01*
X91600280Y-75147561D01*
X91552661Y-75052323D01*
X91505042Y-75004704D01*
X91409804Y-74957085D01*
X91219328Y-74957085D01*
X91124090Y-75004704D01*
X91076471Y-75052323D01*
X91028852Y-75147561D01*
%TO.C,D1*%
X99868380Y-66642095D02*
X98868380Y-66642095D01*
X98868380Y-66404000D01*
X98916000Y-66261142D01*
X99011238Y-66165904D01*
X99106476Y-66118285D01*
X99296952Y-66070666D01*
X99439809Y-66070666D01*
X99630285Y-66118285D01*
X99725523Y-66165904D01*
X99820761Y-66261142D01*
X99868380Y-66404000D01*
X99868380Y-66642095D01*
X99868380Y-65118285D02*
X99868380Y-65689714D01*
X99868380Y-65404000D02*
X98868380Y-65404000D01*
X99011238Y-65499238D01*
X99106476Y-65594476D01*
X99154095Y-65689714D01*
%TO.C,IC1*%
D13*
X102887538Y-61674223D02*
X102887538Y-60404223D01*
X104218014Y-61553271D02*
X104157538Y-61613747D01*
X103976109Y-61674223D01*
X103855157Y-61674223D01*
X103673728Y-61613747D01*
X103552776Y-61492795D01*
X103492300Y-61371842D01*
X103431823Y-61129938D01*
X103431823Y-60948509D01*
X103492300Y-60706604D01*
X103552776Y-60585652D01*
X103673728Y-60464700D01*
X103855157Y-60404223D01*
X103976109Y-60404223D01*
X104157538Y-60464700D01*
X104218014Y-60525176D01*
X105427538Y-61674223D02*
X104701823Y-61674223D01*
X105064680Y-61674223D02*
X105064680Y-60404223D01*
X104943728Y-60585652D01*
X104822776Y-60706604D01*
X104701823Y-60767080D01*
%TO.C,L1*%
D10*
X86680380Y-66206666D02*
X86680380Y-66682857D01*
X85680380Y-66682857D01*
X86680380Y-65349523D02*
X86680380Y-65920952D01*
X86680380Y-65635238D02*
X85680380Y-65635238D01*
X85823238Y-65730476D01*
X85918476Y-65825714D01*
X85966095Y-65920952D01*
%TO.C,R1*%
X110923333Y-68102380D02*
X110590000Y-67626190D01*
X110351904Y-68102380D02*
X110351904Y-67102380D01*
X110732857Y-67102380D01*
X110828095Y-67150000D01*
X110875714Y-67197619D01*
X110923333Y-67292857D01*
X110923333Y-67435714D01*
X110875714Y-67530952D01*
X110828095Y-67578571D01*
X110732857Y-67626190D01*
X110351904Y-67626190D01*
X111875714Y-68102380D02*
X111304285Y-68102380D01*
X111590000Y-68102380D02*
X111590000Y-67102380D01*
X111494761Y-67245238D01*
X111399523Y-67340476D01*
X111304285Y-67388095D01*
%TO.C,R2*%
X104913133Y-75776080D02*
X104579800Y-75299890D01*
X104341704Y-75776080D02*
X104341704Y-74776080D01*
X104722657Y-74776080D01*
X104817895Y-74823700D01*
X104865514Y-74871319D01*
X104913133Y-74966557D01*
X104913133Y-75109414D01*
X104865514Y-75204652D01*
X104817895Y-75252271D01*
X104722657Y-75299890D01*
X104341704Y-75299890D01*
X105294085Y-74871319D02*
X105341704Y-74823700D01*
X105436942Y-74776080D01*
X105675038Y-74776080D01*
X105770276Y-74823700D01*
X105817895Y-74871319D01*
X105865514Y-74966557D01*
X105865514Y-75061795D01*
X105817895Y-75204652D01*
X105246466Y-75776080D01*
X105865514Y-75776080D01*
%TO.C,R3*%
X110069333Y-73020180D02*
X109736000Y-72543990D01*
X109497904Y-73020180D02*
X109497904Y-72020180D01*
X109878857Y-72020180D01*
X109974095Y-72067800D01*
X110021714Y-72115419D01*
X110069333Y-72210657D01*
X110069333Y-72353514D01*
X110021714Y-72448752D01*
X109974095Y-72496371D01*
X109878857Y-72543990D01*
X109497904Y-72543990D01*
X110402666Y-72020180D02*
X111021714Y-72020180D01*
X110688380Y-72401133D01*
X110831238Y-72401133D01*
X110926476Y-72448752D01*
X110974095Y-72496371D01*
X111021714Y-72591609D01*
X111021714Y-72829704D01*
X110974095Y-72924942D01*
X110926476Y-72972561D01*
X110831238Y-73020180D01*
X110545523Y-73020180D01*
X110450285Y-72972561D01*
X110402666Y-72924942D01*
%TO.C,R5*%
X114658380Y-70270666D02*
X114182190Y-70604000D01*
X114658380Y-70842095D02*
X113658380Y-70842095D01*
X113658380Y-70461142D01*
X113706000Y-70365904D01*
X113753619Y-70318285D01*
X113848857Y-70270666D01*
X113991714Y-70270666D01*
X114086952Y-70318285D01*
X114134571Y-70365904D01*
X114182190Y-70461142D01*
X114182190Y-70842095D01*
X113658380Y-69365904D02*
X113658380Y-69842095D01*
X114134571Y-69889714D01*
X114086952Y-69842095D01*
X114039333Y-69746857D01*
X114039333Y-69508761D01*
X114086952Y-69413523D01*
X114134571Y-69365904D01*
X114229809Y-69318285D01*
X114467904Y-69318285D01*
X114563142Y-69365904D01*
X114610761Y-69413523D01*
X114658380Y-69508761D01*
X114658380Y-69746857D01*
X114610761Y-69842095D01*
X114563142Y-69889714D01*
%TO.C,R4*%
X105598933Y-74048880D02*
X105265600Y-73572690D01*
X105027504Y-74048880D02*
X105027504Y-73048880D01*
X105408457Y-73048880D01*
X105503695Y-73096500D01*
X105551314Y-73144119D01*
X105598933Y-73239357D01*
X105598933Y-73382214D01*
X105551314Y-73477452D01*
X105503695Y-73525071D01*
X105408457Y-73572690D01*
X105027504Y-73572690D01*
X106456076Y-73382214D02*
X106456076Y-74048880D01*
X106217980Y-73001261D02*
X105979885Y-73715547D01*
X106598933Y-73715547D01*
%TO.C,R6*%
X114895333Y-65890380D02*
X114562000Y-65414190D01*
X114323904Y-65890380D02*
X114323904Y-64890380D01*
X114704857Y-64890380D01*
X114800095Y-64938000D01*
X114847714Y-64985619D01*
X114895333Y-65080857D01*
X114895333Y-65223714D01*
X114847714Y-65318952D01*
X114800095Y-65366571D01*
X114704857Y-65414190D01*
X114323904Y-65414190D01*
X115752476Y-64890380D02*
X115562000Y-64890380D01*
X115466761Y-64938000D01*
X115419142Y-64985619D01*
X115323904Y-65128476D01*
X115276285Y-65318952D01*
X115276285Y-65699904D01*
X115323904Y-65795142D01*
X115371523Y-65842761D01*
X115466761Y-65890380D01*
X115657238Y-65890380D01*
X115752476Y-65842761D01*
X115800095Y-65795142D01*
X115847714Y-65699904D01*
X115847714Y-65461809D01*
X115800095Y-65366571D01*
X115752476Y-65318952D01*
X115657238Y-65271333D01*
X115466761Y-65271333D01*
X115371523Y-65318952D01*
X115323904Y-65366571D01*
X115276285Y-65461809D01*
%TO.C,J1*%
X122526466Y-58552280D02*
X122526466Y-59266566D01*
X122478847Y-59409423D01*
X122383609Y-59504661D01*
X122240752Y-59552280D01*
X122145514Y-59552280D01*
X123526466Y-59552280D02*
X122955038Y-59552280D01*
X123240752Y-59552280D02*
X123240752Y-58552280D01*
X123145514Y-58695138D01*
X123050276Y-58790376D01*
X122955038Y-58837995D01*
%TO.C,J2*%
X80464066Y-65752280D02*
X80464066Y-66466566D01*
X80416447Y-66609423D01*
X80321209Y-66704661D01*
X80178352Y-66752280D01*
X80083114Y-66752280D01*
X80892638Y-65847519D02*
X80940257Y-65799900D01*
X81035495Y-65752280D01*
X81273590Y-65752280D01*
X81368828Y-65799900D01*
X81416447Y-65847519D01*
X81464066Y-65942757D01*
X81464066Y-66037995D01*
X81416447Y-66180852D01*
X80845019Y-66752280D01*
X81464066Y-66752280D01*
%TD*%
M02*
