%FSLAX45Y45*%
G04 Gerber Fmt 4.5, Leading zero omitted, Abs format (unit mm)*
G04 Created by KiCad (PCBNEW (5.1.6)-1) date 2021-05-11 15:15:30*
%MOMM*%
%LPD*%
G01*
G04 APERTURE LIST*
%TA.AperFunction,Profile*%
%ADD10C,0.150000*%
%TD*%
%ADD11C,0.200000*%
%ADD12C,0.300000*%
G04 APERTURE END LIST*
D10*
X12525000Y-5725000D02*
X7725000Y-5725000D01*
X12525000Y-7775000D02*
X12525000Y-5725000D01*
X7725000Y-7775000D02*
X12525000Y-7775000D01*
X7725000Y-5725000D02*
X7725000Y-7775000D01*
D11*
X8641400Y-7142800D02*
X8681400Y-7182800D01*
X8681400Y-7142800D02*
X8641400Y-7182800D01*
X11283000Y-6761800D02*
X11323000Y-6801800D01*
X11323000Y-6761800D02*
X11283000Y-6801800D01*
X11461000Y-6734000D02*
X11501000Y-6774000D01*
X11501000Y-6734000D02*
X11461000Y-6774000D01*
X11486200Y-5999800D02*
X11526200Y-6039800D01*
X11526200Y-5999800D02*
X11486200Y-6039800D01*
X8129740Y-6142990D02*
G75*
G03*
X8129740Y-6142990I-50000J0D01*
G01*
X8129740Y-6396990D02*
G75*
G03*
X8129740Y-6396990I-50000J0D01*
G01*
X12335980Y-6142990D02*
G75*
G03*
X12335980Y-6142990I-50000J0D01*
G01*
X12335980Y-6396990D02*
G75*
G03*
X12335980Y-6396990I-50000J0D01*
G01*
D12*
X8003928Y-8248214D02*
X8003928Y-7948214D01*
X8075357Y-7948214D01*
X8118214Y-7962500D01*
X8146786Y-7991071D01*
X8161071Y-8019643D01*
X8175357Y-8076786D01*
X8175357Y-8119643D01*
X8161071Y-8176786D01*
X8146786Y-8205357D01*
X8118214Y-8233929D01*
X8075357Y-8248214D01*
X8003928Y-8248214D01*
X8303928Y-8248214D02*
X8303928Y-8048214D01*
X8303928Y-8105357D02*
X8318214Y-8076786D01*
X8332500Y-8062500D01*
X8361071Y-8048214D01*
X8389643Y-8048214D01*
X8489643Y-8248214D02*
X8489643Y-8048214D01*
X8489643Y-7948214D02*
X8475357Y-7962500D01*
X8489643Y-7976786D01*
X8503928Y-7962500D01*
X8489643Y-7948214D01*
X8489643Y-7976786D01*
X8675357Y-8248214D02*
X8646786Y-8233929D01*
X8632500Y-8205357D01*
X8632500Y-7948214D01*
X8832500Y-8248214D02*
X8803928Y-8233929D01*
X8789643Y-8205357D01*
X8789643Y-7948214D01*
X9175357Y-8248214D02*
X9175357Y-7948214D01*
X9275357Y-8162500D01*
X9375357Y-7948214D01*
X9375357Y-8248214D01*
X9646786Y-8248214D02*
X9646786Y-8091071D01*
X9632500Y-8062500D01*
X9603928Y-8048214D01*
X9546786Y-8048214D01*
X9518214Y-8062500D01*
X9646786Y-8233929D02*
X9618214Y-8248214D01*
X9546786Y-8248214D01*
X9518214Y-8233929D01*
X9503928Y-8205357D01*
X9503928Y-8176786D01*
X9518214Y-8148214D01*
X9546786Y-8133929D01*
X9618214Y-8133929D01*
X9646786Y-8119643D01*
X9789643Y-8048214D02*
X9789643Y-8348214D01*
X9789643Y-8062500D02*
X9818214Y-8048214D01*
X9875357Y-8048214D01*
X9903928Y-8062500D01*
X9918214Y-8076786D01*
X9932500Y-8105357D01*
X9932500Y-8191071D01*
X9918214Y-8219643D01*
X9903928Y-8233929D01*
X9875357Y-8248214D01*
X9818214Y-8248214D01*
X9789643Y-8233929D01*
X10061071Y-8219643D02*
X10075357Y-8233929D01*
X10061071Y-8248214D01*
X10046786Y-8233929D01*
X10061071Y-8219643D01*
X10061071Y-8248214D01*
X10061071Y-8062500D02*
X10075357Y-8076786D01*
X10061071Y-8091071D01*
X10046786Y-8076786D01*
X10061071Y-8062500D01*
X10061071Y-8091071D01*
X7677500Y-8722500D02*
X7717500Y-8762500D01*
X7717500Y-8722500D02*
X7677500Y-8762500D01*
X8061071Y-8578214D02*
X8089643Y-8578214D01*
X8118214Y-8592500D01*
X8132500Y-8606786D01*
X8146786Y-8635357D01*
X8161071Y-8692500D01*
X8161071Y-8763929D01*
X8146786Y-8821072D01*
X8132500Y-8849643D01*
X8118214Y-8863929D01*
X8089643Y-8878214D01*
X8061071Y-8878214D01*
X8032500Y-8863929D01*
X8018214Y-8849643D01*
X8003928Y-8821072D01*
X7989643Y-8763929D01*
X7989643Y-8692500D01*
X8003928Y-8635357D01*
X8018214Y-8606786D01*
X8032500Y-8592500D01*
X8061071Y-8578214D01*
X8289643Y-8849643D02*
X8303928Y-8863929D01*
X8289643Y-8878214D01*
X8275357Y-8863929D01*
X8289643Y-8849643D01*
X8289643Y-8878214D01*
X8561071Y-8678214D02*
X8561071Y-8878214D01*
X8489643Y-8563929D02*
X8418214Y-8778214D01*
X8603928Y-8778214D01*
X8775357Y-8578214D02*
X8803928Y-8578214D01*
X8832500Y-8592500D01*
X8846786Y-8606786D01*
X8861071Y-8635357D01*
X8875357Y-8692500D01*
X8875357Y-8763929D01*
X8861071Y-8821072D01*
X8846786Y-8849643D01*
X8832500Y-8863929D01*
X8803928Y-8878214D01*
X8775357Y-8878214D01*
X8746786Y-8863929D01*
X8732500Y-8849643D01*
X8718214Y-8821072D01*
X8703928Y-8763929D01*
X8703928Y-8692500D01*
X8718214Y-8635357D01*
X8732500Y-8606786D01*
X8746786Y-8592500D01*
X8775357Y-8578214D01*
X9003928Y-8878214D02*
X9003928Y-8678214D01*
X9003928Y-8706786D02*
X9018214Y-8692500D01*
X9046786Y-8678214D01*
X9089643Y-8678214D01*
X9118214Y-8692500D01*
X9132500Y-8721072D01*
X9132500Y-8878214D01*
X9132500Y-8721072D02*
X9146786Y-8692500D01*
X9175357Y-8678214D01*
X9218214Y-8678214D01*
X9246786Y-8692500D01*
X9261071Y-8721072D01*
X9261071Y-8878214D01*
X9403928Y-8878214D02*
X9403928Y-8678214D01*
X9403928Y-8706786D02*
X9418214Y-8692500D01*
X9446786Y-8678214D01*
X9489643Y-8678214D01*
X9518214Y-8692500D01*
X9532500Y-8721072D01*
X9532500Y-8878214D01*
X9532500Y-8721072D02*
X9546786Y-8692500D01*
X9575357Y-8678214D01*
X9618214Y-8678214D01*
X9646786Y-8692500D01*
X9661071Y-8721072D01*
X9661071Y-8878214D01*
X10246786Y-8563929D02*
X9989643Y-8949643D01*
X10632500Y-8578214D02*
X10661071Y-8578214D01*
X10689643Y-8592500D01*
X10703928Y-8606786D01*
X10718214Y-8635357D01*
X10732500Y-8692500D01*
X10732500Y-8763929D01*
X10718214Y-8821072D01*
X10703928Y-8849643D01*
X10689643Y-8863929D01*
X10661071Y-8878214D01*
X10632500Y-8878214D01*
X10603928Y-8863929D01*
X10589643Y-8849643D01*
X10575357Y-8821072D01*
X10561071Y-8763929D01*
X10561071Y-8692500D01*
X10575357Y-8635357D01*
X10589643Y-8606786D01*
X10603928Y-8592500D01*
X10632500Y-8578214D01*
X10861071Y-8849643D02*
X10875357Y-8863929D01*
X10861071Y-8878214D01*
X10846786Y-8863929D01*
X10861071Y-8849643D01*
X10861071Y-8878214D01*
X11061071Y-8578214D02*
X11089643Y-8578214D01*
X11118214Y-8592500D01*
X11132500Y-8606786D01*
X11146786Y-8635357D01*
X11161071Y-8692500D01*
X11161071Y-8763929D01*
X11146786Y-8821072D01*
X11132500Y-8849643D01*
X11118214Y-8863929D01*
X11089643Y-8878214D01*
X11061071Y-8878214D01*
X11032500Y-8863929D01*
X11018214Y-8849643D01*
X11003928Y-8821072D01*
X10989643Y-8763929D01*
X10989643Y-8692500D01*
X11003928Y-8635357D01*
X11018214Y-8606786D01*
X11032500Y-8592500D01*
X11061071Y-8578214D01*
X11446786Y-8878214D02*
X11275357Y-8878214D01*
X11361071Y-8878214D02*
X11361071Y-8578214D01*
X11332500Y-8621072D01*
X11303928Y-8649643D01*
X11275357Y-8663929D01*
X11703928Y-8578214D02*
X11646786Y-8578214D01*
X11618214Y-8592500D01*
X11603928Y-8606786D01*
X11575357Y-8649643D01*
X11561071Y-8706786D01*
X11561071Y-8821072D01*
X11575357Y-8849643D01*
X11589643Y-8863929D01*
X11618214Y-8878214D01*
X11675357Y-8878214D01*
X11703928Y-8863929D01*
X11718214Y-8849643D01*
X11732500Y-8821072D01*
X11732500Y-8749643D01*
X11718214Y-8721072D01*
X11703928Y-8706786D01*
X11675357Y-8692500D01*
X11618214Y-8692500D01*
X11589643Y-8706786D01*
X11575357Y-8721072D01*
X11561071Y-8749643D01*
X11846786Y-8578214D02*
X11846786Y-8635357D01*
X11961071Y-8578214D02*
X11961071Y-8635357D01*
X12403928Y-8992500D02*
X12389643Y-8978214D01*
X12361071Y-8935357D01*
X12346786Y-8906786D01*
X12332500Y-8863929D01*
X12318214Y-8792500D01*
X12318214Y-8735357D01*
X12332500Y-8663929D01*
X12346786Y-8621072D01*
X12361071Y-8592500D01*
X12389643Y-8549643D01*
X12403928Y-8535357D01*
X12646786Y-8678214D02*
X12646786Y-8878214D01*
X12575357Y-8563929D02*
X12503928Y-8778214D01*
X12689643Y-8778214D01*
X13032500Y-8878214D02*
X13032500Y-8578214D01*
X13161071Y-8878214D02*
X13161071Y-8721072D01*
X13146786Y-8692500D01*
X13118214Y-8678214D01*
X13075357Y-8678214D01*
X13046786Y-8692500D01*
X13032500Y-8706786D01*
X13346786Y-8878214D02*
X13318214Y-8863929D01*
X13303928Y-8849643D01*
X13289643Y-8821072D01*
X13289643Y-8735357D01*
X13303928Y-8706786D01*
X13318214Y-8692500D01*
X13346786Y-8678214D01*
X13389643Y-8678214D01*
X13418214Y-8692500D01*
X13432500Y-8706786D01*
X13446786Y-8735357D01*
X13446786Y-8821072D01*
X13432500Y-8849643D01*
X13418214Y-8863929D01*
X13389643Y-8878214D01*
X13346786Y-8878214D01*
X13618214Y-8878214D02*
X13589643Y-8863929D01*
X13575357Y-8835357D01*
X13575357Y-8578214D01*
X13846786Y-8863929D02*
X13818214Y-8878214D01*
X13761071Y-8878214D01*
X13732500Y-8863929D01*
X13718214Y-8835357D01*
X13718214Y-8721072D01*
X13732500Y-8692500D01*
X13761071Y-8678214D01*
X13818214Y-8678214D01*
X13846786Y-8692500D01*
X13861071Y-8721072D01*
X13861071Y-8749643D01*
X13718214Y-8778214D01*
X13975357Y-8863929D02*
X14003928Y-8878214D01*
X14061071Y-8878214D01*
X14089643Y-8863929D01*
X14103928Y-8835357D01*
X14103928Y-8821072D01*
X14089643Y-8792500D01*
X14061071Y-8778214D01*
X14018214Y-8778214D01*
X13989643Y-8763929D01*
X13975357Y-8735357D01*
X13975357Y-8721072D01*
X13989643Y-8692500D01*
X14018214Y-8678214D01*
X14061071Y-8678214D01*
X14089643Y-8692500D01*
X14203928Y-8992500D02*
X14218214Y-8978214D01*
X14246786Y-8935357D01*
X14261071Y-8906786D01*
X14275357Y-8863929D01*
X14289643Y-8792500D01*
X14289643Y-8735357D01*
X14275357Y-8663929D01*
X14261071Y-8621072D01*
X14246786Y-8592500D01*
X14218214Y-8549643D01*
X14203928Y-8535357D01*
X7717500Y-9138500D02*
G75*
G03*
X7717500Y-9138500I-50000J0D01*
G01*
X8161071Y-9274214D02*
X7989643Y-9274214D01*
X8075357Y-9274214D02*
X8075357Y-8974214D01*
X8046786Y-9017072D01*
X8018214Y-9045643D01*
X7989643Y-9059929D01*
X8289643Y-9245643D02*
X8303928Y-9259929D01*
X8289643Y-9274214D01*
X8275357Y-9259929D01*
X8289643Y-9245643D01*
X8289643Y-9274214D01*
X8489643Y-8974214D02*
X8518214Y-8974214D01*
X8546786Y-8988500D01*
X8561071Y-9002786D01*
X8575357Y-9031357D01*
X8589643Y-9088500D01*
X8589643Y-9159929D01*
X8575357Y-9217072D01*
X8561071Y-9245643D01*
X8546786Y-9259929D01*
X8518214Y-9274214D01*
X8489643Y-9274214D01*
X8461071Y-9259929D01*
X8446786Y-9245643D01*
X8432500Y-9217072D01*
X8418214Y-9159929D01*
X8418214Y-9088500D01*
X8432500Y-9031357D01*
X8446786Y-9002786D01*
X8461071Y-8988500D01*
X8489643Y-8974214D01*
X8775357Y-8974214D02*
X8803928Y-8974214D01*
X8832500Y-8988500D01*
X8846786Y-9002786D01*
X8861071Y-9031357D01*
X8875357Y-9088500D01*
X8875357Y-9159929D01*
X8861071Y-9217072D01*
X8846786Y-9245643D01*
X8832500Y-9259929D01*
X8803928Y-9274214D01*
X8775357Y-9274214D01*
X8746786Y-9259929D01*
X8732500Y-9245643D01*
X8718214Y-9217072D01*
X8703928Y-9159929D01*
X8703928Y-9088500D01*
X8718214Y-9031357D01*
X8732500Y-9002786D01*
X8746786Y-8988500D01*
X8775357Y-8974214D01*
X9003928Y-9274214D02*
X9003928Y-9074214D01*
X9003928Y-9102786D02*
X9018214Y-9088500D01*
X9046786Y-9074214D01*
X9089643Y-9074214D01*
X9118214Y-9088500D01*
X9132500Y-9117072D01*
X9132500Y-9274214D01*
X9132500Y-9117072D02*
X9146786Y-9088500D01*
X9175357Y-9074214D01*
X9218214Y-9074214D01*
X9246786Y-9088500D01*
X9261071Y-9117072D01*
X9261071Y-9274214D01*
X9403928Y-9274214D02*
X9403928Y-9074214D01*
X9403928Y-9102786D02*
X9418214Y-9088500D01*
X9446786Y-9074214D01*
X9489643Y-9074214D01*
X9518214Y-9088500D01*
X9532500Y-9117072D01*
X9532500Y-9274214D01*
X9532500Y-9117072D02*
X9546786Y-9088500D01*
X9575357Y-9074214D01*
X9618214Y-9074214D01*
X9646786Y-9088500D01*
X9661071Y-9117072D01*
X9661071Y-9274214D01*
X10246786Y-8959929D02*
X9989643Y-9345643D01*
X10632500Y-8974214D02*
X10661071Y-8974214D01*
X10689643Y-8988500D01*
X10703928Y-9002786D01*
X10718214Y-9031357D01*
X10732500Y-9088500D01*
X10732500Y-9159929D01*
X10718214Y-9217072D01*
X10703928Y-9245643D01*
X10689643Y-9259929D01*
X10661071Y-9274214D01*
X10632500Y-9274214D01*
X10603928Y-9259929D01*
X10589643Y-9245643D01*
X10575357Y-9217072D01*
X10561071Y-9159929D01*
X10561071Y-9088500D01*
X10575357Y-9031357D01*
X10589643Y-9002786D01*
X10603928Y-8988500D01*
X10632500Y-8974214D01*
X10861071Y-9245643D02*
X10875357Y-9259929D01*
X10861071Y-9274214D01*
X10846786Y-9259929D01*
X10861071Y-9245643D01*
X10861071Y-9274214D01*
X11061071Y-8974214D02*
X11089643Y-8974214D01*
X11118214Y-8988500D01*
X11132500Y-9002786D01*
X11146786Y-9031357D01*
X11161071Y-9088500D01*
X11161071Y-9159929D01*
X11146786Y-9217072D01*
X11132500Y-9245643D01*
X11118214Y-9259929D01*
X11089643Y-9274214D01*
X11061071Y-9274214D01*
X11032500Y-9259929D01*
X11018214Y-9245643D01*
X11003928Y-9217072D01*
X10989643Y-9159929D01*
X10989643Y-9088500D01*
X11003928Y-9031357D01*
X11018214Y-9002786D01*
X11032500Y-8988500D01*
X11061071Y-8974214D01*
X11261071Y-8974214D02*
X11446786Y-8974214D01*
X11346786Y-9088500D01*
X11389643Y-9088500D01*
X11418214Y-9102786D01*
X11432500Y-9117072D01*
X11446786Y-9145643D01*
X11446786Y-9217072D01*
X11432500Y-9245643D01*
X11418214Y-9259929D01*
X11389643Y-9274214D01*
X11303928Y-9274214D01*
X11275357Y-9259929D01*
X11261071Y-9245643D01*
X11589643Y-9274214D02*
X11646786Y-9274214D01*
X11675357Y-9259929D01*
X11689643Y-9245643D01*
X11718214Y-9202786D01*
X11732500Y-9145643D01*
X11732500Y-9031357D01*
X11718214Y-9002786D01*
X11703928Y-8988500D01*
X11675357Y-8974214D01*
X11618214Y-8974214D01*
X11589643Y-8988500D01*
X11575357Y-9002786D01*
X11561071Y-9031357D01*
X11561071Y-9102786D01*
X11575357Y-9131357D01*
X11589643Y-9145643D01*
X11618214Y-9159929D01*
X11675357Y-9159929D01*
X11703928Y-9145643D01*
X11718214Y-9131357D01*
X11732500Y-9102786D01*
X11846786Y-8974214D02*
X11846786Y-9031357D01*
X11961071Y-8974214D02*
X11961071Y-9031357D01*
X12403928Y-9388500D02*
X12389643Y-9374214D01*
X12361071Y-9331357D01*
X12346786Y-9302786D01*
X12332500Y-9259929D01*
X12318214Y-9188500D01*
X12318214Y-9131357D01*
X12332500Y-9059929D01*
X12346786Y-9017072D01*
X12361071Y-8988500D01*
X12389643Y-8945643D01*
X12403928Y-8931357D01*
X12646786Y-9074214D02*
X12646786Y-9274214D01*
X12575357Y-8959929D02*
X12503928Y-9174214D01*
X12689643Y-9174214D01*
X13032500Y-9274214D02*
X13032500Y-8974214D01*
X13161071Y-9274214D02*
X13161071Y-9117072D01*
X13146786Y-9088500D01*
X13118214Y-9074214D01*
X13075357Y-9074214D01*
X13046786Y-9088500D01*
X13032500Y-9102786D01*
X13346786Y-9274214D02*
X13318214Y-9259929D01*
X13303928Y-9245643D01*
X13289643Y-9217072D01*
X13289643Y-9131357D01*
X13303928Y-9102786D01*
X13318214Y-9088500D01*
X13346786Y-9074214D01*
X13389643Y-9074214D01*
X13418214Y-9088500D01*
X13432500Y-9102786D01*
X13446786Y-9131357D01*
X13446786Y-9217072D01*
X13432500Y-9245643D01*
X13418214Y-9259929D01*
X13389643Y-9274214D01*
X13346786Y-9274214D01*
X13618214Y-9274214D02*
X13589643Y-9259929D01*
X13575357Y-9231357D01*
X13575357Y-8974214D01*
X13846786Y-9259929D02*
X13818214Y-9274214D01*
X13761071Y-9274214D01*
X13732500Y-9259929D01*
X13718214Y-9231357D01*
X13718214Y-9117072D01*
X13732500Y-9088500D01*
X13761071Y-9074214D01*
X13818214Y-9074214D01*
X13846786Y-9088500D01*
X13861071Y-9117072D01*
X13861071Y-9145643D01*
X13718214Y-9174214D01*
X13975357Y-9259929D02*
X14003928Y-9274214D01*
X14061071Y-9274214D01*
X14089643Y-9259929D01*
X14103928Y-9231357D01*
X14103928Y-9217072D01*
X14089643Y-9188500D01*
X14061071Y-9174214D01*
X14018214Y-9174214D01*
X13989643Y-9159929D01*
X13975357Y-9131357D01*
X13975357Y-9117072D01*
X13989643Y-9088500D01*
X14018214Y-9074214D01*
X14061071Y-9074214D01*
X14089643Y-9088500D01*
X14203928Y-9388500D02*
X14218214Y-9374214D01*
X14246786Y-9331357D01*
X14261071Y-9302786D01*
X14275357Y-9259929D01*
X14289643Y-9188500D01*
X14289643Y-9131357D01*
X14275357Y-9059929D01*
X14261071Y-9017072D01*
X14246786Y-8988500D01*
X14218214Y-8945643D01*
X14203928Y-8931357D01*
M02*
