%TF.GenerationSoftware,KiCad,Pcbnew,(5.1.6)-1*%
%TF.CreationDate,2021-05-11T15:15:27+02:00*%
%TF.ProjectId,Buck_Converter,4275636b-5f43-46f6-9e76-65727465722e,rev?*%
%TF.SameCoordinates,Original*%
%TF.FileFunction,Copper,L2,Bot*%
%TF.FilePolarity,Positive*%
%FSLAX46Y46*%
G04 Gerber Fmt 4.6, Leading zero omitted, Abs format (unit mm)*
G04 Created by KiCad (PCBNEW (5.1.6)-1) date 2021-05-11 15:15:27*
%MOMM*%
%LPD*%
G01*
G04 APERTURE LIST*
%TA.AperFunction,ComponentPad*%
%ADD10R,1.700000X1.700000*%
%TD*%
%TA.AperFunction,ComponentPad*%
%ADD11O,1.700000X1.700000*%
%TD*%
%TA.AperFunction,ViaPad*%
%ADD12C,0.800000*%
%TD*%
%TA.AperFunction,Conductor*%
%ADD13C,0.250000*%
%TD*%
%TA.AperFunction,Conductor*%
%ADD14C,0.400000*%
%TD*%
%TA.AperFunction,Conductor*%
%ADD15C,0.600000*%
%TD*%
%TA.AperFunction,Conductor*%
%ADD16C,0.254000*%
%TD*%
G04 APERTURE END LIST*
D10*
%TO.P,J1,1*%
%TO.N,/VIN*%
X122859800Y-61429900D03*
D11*
%TO.P,J1,2*%
%TO.N,GND*%
X122859800Y-63969900D03*
%TD*%
%TO.P,J2,2*%
%TO.N,/VOUT*%
X80797400Y-61429900D03*
D10*
%TO.P,J2,1*%
%TO.N,GND*%
X80797400Y-63969900D03*
%TD*%
D12*
%TO.N,/VIN*%
X114810000Y-67540000D03*
X115062000Y-60198000D03*
%TO.N,/VOUT*%
X113030000Y-67818000D03*
X86614000Y-71628000D03*
%TD*%
D13*
%TO.N,/VIN*%
X114990000Y-61220000D02*
X114990000Y-67360000D01*
X114990000Y-67360000D02*
X114810000Y-67540000D01*
D14*
X115062000Y-67288000D02*
X114810000Y-67540000D01*
X115062000Y-60198000D02*
X115062000Y-67288000D01*
D15*
%TO.N,/VOUT*%
X112522000Y-70866000D02*
X113030000Y-70358000D01*
X113030000Y-70358000D02*
X113030000Y-67818000D01*
X111760000Y-71628000D02*
X113030000Y-70358000D01*
X86614000Y-71628000D02*
X111760000Y-71628000D01*
%TD*%
D16*
%TO.N,GND*%
G36*
X124540000Y-77040000D02*
G01*
X77960000Y-77040000D01*
X77960000Y-71526061D01*
X85579000Y-71526061D01*
X85579000Y-71729939D01*
X85618774Y-71929898D01*
X85696795Y-72118256D01*
X85810063Y-72287774D01*
X85954226Y-72431937D01*
X86123744Y-72545205D01*
X86312102Y-72623226D01*
X86512061Y-72663000D01*
X86715939Y-72663000D01*
X86915898Y-72623226D01*
X87061295Y-72563000D01*
X111714068Y-72563000D01*
X111760000Y-72567524D01*
X111805932Y-72563000D01*
X111943292Y-72549471D01*
X112119540Y-72496007D01*
X112281972Y-72409186D01*
X112424344Y-72292344D01*
X112453630Y-72256659D01*
X113658665Y-71051625D01*
X113694344Y-71022344D01*
X113811186Y-70879972D01*
X113898007Y-70717540D01*
X113951471Y-70541292D01*
X113965000Y-70403932D01*
X113965000Y-70403931D01*
X113969524Y-70358001D01*
X113965000Y-70312069D01*
X113965000Y-68265295D01*
X113997468Y-68186911D01*
X114006063Y-68199774D01*
X114150226Y-68343937D01*
X114319744Y-68457205D01*
X114508102Y-68535226D01*
X114708061Y-68575000D01*
X114911939Y-68575000D01*
X115111898Y-68535226D01*
X115300256Y-68457205D01*
X115469774Y-68343937D01*
X115613937Y-68199774D01*
X115727205Y-68030256D01*
X115805226Y-67841898D01*
X115845000Y-67641939D01*
X115845000Y-67583281D01*
X115884918Y-67451689D01*
X115897000Y-67329019D01*
X115901040Y-67288000D01*
X115897000Y-67246982D01*
X115897000Y-64326790D01*
X121418324Y-64326790D01*
X121462975Y-64473999D01*
X121588159Y-64736820D01*
X121762212Y-64970169D01*
X121978445Y-65165078D01*
X122228548Y-65314057D01*
X122502909Y-65411381D01*
X122732800Y-65290714D01*
X122732800Y-64096900D01*
X122986800Y-64096900D01*
X122986800Y-65290714D01*
X123216691Y-65411381D01*
X123491052Y-65314057D01*
X123741155Y-65165078D01*
X123957388Y-64970169D01*
X124131441Y-64736820D01*
X124256625Y-64473999D01*
X124301276Y-64326790D01*
X124179955Y-64096900D01*
X122986800Y-64096900D01*
X122732800Y-64096900D01*
X121539645Y-64096900D01*
X121418324Y-64326790D01*
X115897000Y-64326790D01*
X115897000Y-60811285D01*
X115979205Y-60688256D01*
X116024087Y-60579900D01*
X121371728Y-60579900D01*
X121371728Y-62279900D01*
X121383988Y-62404382D01*
X121420298Y-62524080D01*
X121479263Y-62634394D01*
X121558615Y-62731085D01*
X121655306Y-62810437D01*
X121765620Y-62869402D01*
X121846266Y-62893866D01*
X121762212Y-62969631D01*
X121588159Y-63202980D01*
X121462975Y-63465801D01*
X121418324Y-63613010D01*
X121539645Y-63842900D01*
X122732800Y-63842900D01*
X122732800Y-63822900D01*
X122986800Y-63822900D01*
X122986800Y-63842900D01*
X124179955Y-63842900D01*
X124301276Y-63613010D01*
X124256625Y-63465801D01*
X124131441Y-63202980D01*
X123957388Y-62969631D01*
X123873334Y-62893866D01*
X123953980Y-62869402D01*
X124064294Y-62810437D01*
X124160985Y-62731085D01*
X124240337Y-62634394D01*
X124299302Y-62524080D01*
X124335612Y-62404382D01*
X124347872Y-62279900D01*
X124347872Y-60579900D01*
X124335612Y-60455418D01*
X124299302Y-60335720D01*
X124240337Y-60225406D01*
X124160985Y-60128715D01*
X124064294Y-60049363D01*
X123953980Y-59990398D01*
X123834282Y-59954088D01*
X123709800Y-59941828D01*
X122009800Y-59941828D01*
X121885318Y-59954088D01*
X121765620Y-59990398D01*
X121655306Y-60049363D01*
X121558615Y-60128715D01*
X121479263Y-60225406D01*
X121420298Y-60335720D01*
X121383988Y-60455418D01*
X121371728Y-60579900D01*
X116024087Y-60579900D01*
X116057226Y-60499898D01*
X116097000Y-60299939D01*
X116097000Y-60096061D01*
X116057226Y-59896102D01*
X115979205Y-59707744D01*
X115865937Y-59538226D01*
X115721774Y-59394063D01*
X115552256Y-59280795D01*
X115363898Y-59202774D01*
X115163939Y-59163000D01*
X114960061Y-59163000D01*
X114760102Y-59202774D01*
X114571744Y-59280795D01*
X114402226Y-59394063D01*
X114258063Y-59538226D01*
X114144795Y-59707744D01*
X114066774Y-59896102D01*
X114027000Y-60096061D01*
X114027000Y-60299939D01*
X114066774Y-60499898D01*
X114144795Y-60688256D01*
X114227000Y-60811285D01*
X114227001Y-66684764D01*
X114150226Y-66736063D01*
X114006063Y-66880226D01*
X113892795Y-67049744D01*
X113842532Y-67171089D01*
X113833937Y-67158226D01*
X113689774Y-67014063D01*
X113520256Y-66900795D01*
X113331898Y-66822774D01*
X113131939Y-66783000D01*
X112928061Y-66783000D01*
X112728102Y-66822774D01*
X112539744Y-66900795D01*
X112370226Y-67014063D01*
X112226063Y-67158226D01*
X112112795Y-67327744D01*
X112034774Y-67516102D01*
X111995000Y-67716061D01*
X111995000Y-67919939D01*
X112034774Y-68119898D01*
X112095001Y-68265297D01*
X112095000Y-69970710D01*
X111372711Y-70693000D01*
X87061295Y-70693000D01*
X86915898Y-70632774D01*
X86715939Y-70593000D01*
X86512061Y-70593000D01*
X86312102Y-70632774D01*
X86123744Y-70710795D01*
X85954226Y-70824063D01*
X85810063Y-70968226D01*
X85696795Y-71137744D01*
X85618774Y-71326102D01*
X85579000Y-71526061D01*
X77960000Y-71526061D01*
X77960000Y-64819900D01*
X79309328Y-64819900D01*
X79321588Y-64944382D01*
X79357898Y-65064080D01*
X79416863Y-65174394D01*
X79496215Y-65271085D01*
X79592906Y-65350437D01*
X79703220Y-65409402D01*
X79822918Y-65445712D01*
X79947400Y-65457972D01*
X80511650Y-65454900D01*
X80670400Y-65296150D01*
X80670400Y-64096900D01*
X80924400Y-64096900D01*
X80924400Y-65296150D01*
X81083150Y-65454900D01*
X81647400Y-65457972D01*
X81771882Y-65445712D01*
X81891580Y-65409402D01*
X82001894Y-65350437D01*
X82098585Y-65271085D01*
X82177937Y-65174394D01*
X82236902Y-65064080D01*
X82273212Y-64944382D01*
X82285472Y-64819900D01*
X82282400Y-64255650D01*
X82123650Y-64096900D01*
X80924400Y-64096900D01*
X80670400Y-64096900D01*
X79471150Y-64096900D01*
X79312400Y-64255650D01*
X79309328Y-64819900D01*
X77960000Y-64819900D01*
X77960000Y-63119900D01*
X79309328Y-63119900D01*
X79312400Y-63684150D01*
X79471150Y-63842900D01*
X80670400Y-63842900D01*
X80670400Y-63822900D01*
X80924400Y-63822900D01*
X80924400Y-63842900D01*
X82123650Y-63842900D01*
X82282400Y-63684150D01*
X82285472Y-63119900D01*
X82273212Y-62995418D01*
X82236902Y-62875720D01*
X82177937Y-62765406D01*
X82098585Y-62668715D01*
X82001894Y-62589363D01*
X81891580Y-62530398D01*
X81819020Y-62508387D01*
X81950875Y-62376532D01*
X82113390Y-62133311D01*
X82225332Y-61863058D01*
X82282400Y-61576160D01*
X82282400Y-61283640D01*
X82225332Y-60996742D01*
X82113390Y-60726489D01*
X81950875Y-60483268D01*
X81744032Y-60276425D01*
X81500811Y-60113910D01*
X81230558Y-60001968D01*
X80943660Y-59944900D01*
X80651140Y-59944900D01*
X80364242Y-60001968D01*
X80093989Y-60113910D01*
X79850768Y-60276425D01*
X79643925Y-60483268D01*
X79481410Y-60726489D01*
X79369468Y-60996742D01*
X79312400Y-61283640D01*
X79312400Y-61576160D01*
X79369468Y-61863058D01*
X79481410Y-62133311D01*
X79643925Y-62376532D01*
X79775780Y-62508387D01*
X79703220Y-62530398D01*
X79592906Y-62589363D01*
X79496215Y-62668715D01*
X79416863Y-62765406D01*
X79357898Y-62875720D01*
X79321588Y-62995418D01*
X79309328Y-63119900D01*
X77960000Y-63119900D01*
X77960000Y-57960000D01*
X124540001Y-57960000D01*
X124540000Y-77040000D01*
G37*
X124540000Y-77040000D02*
X77960000Y-77040000D01*
X77960000Y-71526061D01*
X85579000Y-71526061D01*
X85579000Y-71729939D01*
X85618774Y-71929898D01*
X85696795Y-72118256D01*
X85810063Y-72287774D01*
X85954226Y-72431937D01*
X86123744Y-72545205D01*
X86312102Y-72623226D01*
X86512061Y-72663000D01*
X86715939Y-72663000D01*
X86915898Y-72623226D01*
X87061295Y-72563000D01*
X111714068Y-72563000D01*
X111760000Y-72567524D01*
X111805932Y-72563000D01*
X111943292Y-72549471D01*
X112119540Y-72496007D01*
X112281972Y-72409186D01*
X112424344Y-72292344D01*
X112453630Y-72256659D01*
X113658665Y-71051625D01*
X113694344Y-71022344D01*
X113811186Y-70879972D01*
X113898007Y-70717540D01*
X113951471Y-70541292D01*
X113965000Y-70403932D01*
X113965000Y-70403931D01*
X113969524Y-70358001D01*
X113965000Y-70312069D01*
X113965000Y-68265295D01*
X113997468Y-68186911D01*
X114006063Y-68199774D01*
X114150226Y-68343937D01*
X114319744Y-68457205D01*
X114508102Y-68535226D01*
X114708061Y-68575000D01*
X114911939Y-68575000D01*
X115111898Y-68535226D01*
X115300256Y-68457205D01*
X115469774Y-68343937D01*
X115613937Y-68199774D01*
X115727205Y-68030256D01*
X115805226Y-67841898D01*
X115845000Y-67641939D01*
X115845000Y-67583281D01*
X115884918Y-67451689D01*
X115897000Y-67329019D01*
X115901040Y-67288000D01*
X115897000Y-67246982D01*
X115897000Y-64326790D01*
X121418324Y-64326790D01*
X121462975Y-64473999D01*
X121588159Y-64736820D01*
X121762212Y-64970169D01*
X121978445Y-65165078D01*
X122228548Y-65314057D01*
X122502909Y-65411381D01*
X122732800Y-65290714D01*
X122732800Y-64096900D01*
X122986800Y-64096900D01*
X122986800Y-65290714D01*
X123216691Y-65411381D01*
X123491052Y-65314057D01*
X123741155Y-65165078D01*
X123957388Y-64970169D01*
X124131441Y-64736820D01*
X124256625Y-64473999D01*
X124301276Y-64326790D01*
X124179955Y-64096900D01*
X122986800Y-64096900D01*
X122732800Y-64096900D01*
X121539645Y-64096900D01*
X121418324Y-64326790D01*
X115897000Y-64326790D01*
X115897000Y-60811285D01*
X115979205Y-60688256D01*
X116024087Y-60579900D01*
X121371728Y-60579900D01*
X121371728Y-62279900D01*
X121383988Y-62404382D01*
X121420298Y-62524080D01*
X121479263Y-62634394D01*
X121558615Y-62731085D01*
X121655306Y-62810437D01*
X121765620Y-62869402D01*
X121846266Y-62893866D01*
X121762212Y-62969631D01*
X121588159Y-63202980D01*
X121462975Y-63465801D01*
X121418324Y-63613010D01*
X121539645Y-63842900D01*
X122732800Y-63842900D01*
X122732800Y-63822900D01*
X122986800Y-63822900D01*
X122986800Y-63842900D01*
X124179955Y-63842900D01*
X124301276Y-63613010D01*
X124256625Y-63465801D01*
X124131441Y-63202980D01*
X123957388Y-62969631D01*
X123873334Y-62893866D01*
X123953980Y-62869402D01*
X124064294Y-62810437D01*
X124160985Y-62731085D01*
X124240337Y-62634394D01*
X124299302Y-62524080D01*
X124335612Y-62404382D01*
X124347872Y-62279900D01*
X124347872Y-60579900D01*
X124335612Y-60455418D01*
X124299302Y-60335720D01*
X124240337Y-60225406D01*
X124160985Y-60128715D01*
X124064294Y-60049363D01*
X123953980Y-59990398D01*
X123834282Y-59954088D01*
X123709800Y-59941828D01*
X122009800Y-59941828D01*
X121885318Y-59954088D01*
X121765620Y-59990398D01*
X121655306Y-60049363D01*
X121558615Y-60128715D01*
X121479263Y-60225406D01*
X121420298Y-60335720D01*
X121383988Y-60455418D01*
X121371728Y-60579900D01*
X116024087Y-60579900D01*
X116057226Y-60499898D01*
X116097000Y-60299939D01*
X116097000Y-60096061D01*
X116057226Y-59896102D01*
X115979205Y-59707744D01*
X115865937Y-59538226D01*
X115721774Y-59394063D01*
X115552256Y-59280795D01*
X115363898Y-59202774D01*
X115163939Y-59163000D01*
X114960061Y-59163000D01*
X114760102Y-59202774D01*
X114571744Y-59280795D01*
X114402226Y-59394063D01*
X114258063Y-59538226D01*
X114144795Y-59707744D01*
X114066774Y-59896102D01*
X114027000Y-60096061D01*
X114027000Y-60299939D01*
X114066774Y-60499898D01*
X114144795Y-60688256D01*
X114227000Y-60811285D01*
X114227001Y-66684764D01*
X114150226Y-66736063D01*
X114006063Y-66880226D01*
X113892795Y-67049744D01*
X113842532Y-67171089D01*
X113833937Y-67158226D01*
X113689774Y-67014063D01*
X113520256Y-66900795D01*
X113331898Y-66822774D01*
X113131939Y-66783000D01*
X112928061Y-66783000D01*
X112728102Y-66822774D01*
X112539744Y-66900795D01*
X112370226Y-67014063D01*
X112226063Y-67158226D01*
X112112795Y-67327744D01*
X112034774Y-67516102D01*
X111995000Y-67716061D01*
X111995000Y-67919939D01*
X112034774Y-68119898D01*
X112095001Y-68265297D01*
X112095000Y-69970710D01*
X111372711Y-70693000D01*
X87061295Y-70693000D01*
X86915898Y-70632774D01*
X86715939Y-70593000D01*
X86512061Y-70593000D01*
X86312102Y-70632774D01*
X86123744Y-70710795D01*
X85954226Y-70824063D01*
X85810063Y-70968226D01*
X85696795Y-71137744D01*
X85618774Y-71326102D01*
X85579000Y-71526061D01*
X77960000Y-71526061D01*
X77960000Y-64819900D01*
X79309328Y-64819900D01*
X79321588Y-64944382D01*
X79357898Y-65064080D01*
X79416863Y-65174394D01*
X79496215Y-65271085D01*
X79592906Y-65350437D01*
X79703220Y-65409402D01*
X79822918Y-65445712D01*
X79947400Y-65457972D01*
X80511650Y-65454900D01*
X80670400Y-65296150D01*
X80670400Y-64096900D01*
X80924400Y-64096900D01*
X80924400Y-65296150D01*
X81083150Y-65454900D01*
X81647400Y-65457972D01*
X81771882Y-65445712D01*
X81891580Y-65409402D01*
X82001894Y-65350437D01*
X82098585Y-65271085D01*
X82177937Y-65174394D01*
X82236902Y-65064080D01*
X82273212Y-64944382D01*
X82285472Y-64819900D01*
X82282400Y-64255650D01*
X82123650Y-64096900D01*
X80924400Y-64096900D01*
X80670400Y-64096900D01*
X79471150Y-64096900D01*
X79312400Y-64255650D01*
X79309328Y-64819900D01*
X77960000Y-64819900D01*
X77960000Y-63119900D01*
X79309328Y-63119900D01*
X79312400Y-63684150D01*
X79471150Y-63842900D01*
X80670400Y-63842900D01*
X80670400Y-63822900D01*
X80924400Y-63822900D01*
X80924400Y-63842900D01*
X82123650Y-63842900D01*
X82282400Y-63684150D01*
X82285472Y-63119900D01*
X82273212Y-62995418D01*
X82236902Y-62875720D01*
X82177937Y-62765406D01*
X82098585Y-62668715D01*
X82001894Y-62589363D01*
X81891580Y-62530398D01*
X81819020Y-62508387D01*
X81950875Y-62376532D01*
X82113390Y-62133311D01*
X82225332Y-61863058D01*
X82282400Y-61576160D01*
X82282400Y-61283640D01*
X82225332Y-60996742D01*
X82113390Y-60726489D01*
X81950875Y-60483268D01*
X81744032Y-60276425D01*
X81500811Y-60113910D01*
X81230558Y-60001968D01*
X80943660Y-59944900D01*
X80651140Y-59944900D01*
X80364242Y-60001968D01*
X80093989Y-60113910D01*
X79850768Y-60276425D01*
X79643925Y-60483268D01*
X79481410Y-60726489D01*
X79369468Y-60996742D01*
X79312400Y-61283640D01*
X79312400Y-61576160D01*
X79369468Y-61863058D01*
X79481410Y-62133311D01*
X79643925Y-62376532D01*
X79775780Y-62508387D01*
X79703220Y-62530398D01*
X79592906Y-62589363D01*
X79496215Y-62668715D01*
X79416863Y-62765406D01*
X79357898Y-62875720D01*
X79321588Y-62995418D01*
X79309328Y-63119900D01*
X77960000Y-63119900D01*
X77960000Y-57960000D01*
X124540001Y-57960000D01*
X124540000Y-77040000D01*
%TD*%
M02*
