G75*
%MOIN*%
%OFA0B0*%
%FSLAX24Y24*%
%IPPOS*%
%LPD*%
%AMOC8*
5,1,8,0,0,1.08239X$1,22.5*
%
%ADD10C,0.0060*%
%ADD11R,0.0602X0.0602*%
%ADD12C,0.0602*%
%ADD13C,0.0600*%
%ADD14R,0.0591X0.0591*%
%ADD15C,0.0591*%
%ADD16R,0.0827X0.0827*%
%ADD17C,0.0436*%
%ADD18R,0.0475X0.0475*%
%ADD19C,0.0475*%
%ADD20C,0.0500*%
%ADD21C,0.0320*%
%ADD22C,0.0357*%
%ADD23C,0.0240*%
%ADD24C,0.0160*%
%ADD25C,0.0400*%
D10*
X019516Y007710D02*
X019943Y007710D01*
X019516Y008137D01*
X019516Y008244D01*
X019622Y008351D01*
X019836Y008351D01*
X019943Y008244D01*
X020160Y008137D02*
X020374Y007710D01*
X020587Y008137D01*
X021449Y008244D02*
X021556Y008351D01*
X021769Y008351D01*
X021876Y008244D01*
X021876Y008137D01*
X021769Y008030D01*
X021556Y008030D01*
X021449Y007924D01*
X021449Y007817D01*
X021556Y007710D01*
X021769Y007710D01*
X021876Y007817D01*
X022307Y007710D02*
X022307Y008030D01*
X022094Y008244D01*
X022094Y008351D01*
X022307Y008030D02*
X022521Y008244D01*
X022521Y008351D01*
X022738Y008244D02*
X022738Y008030D01*
X022845Y007924D01*
X023165Y007924D01*
X022952Y007924D02*
X022738Y007710D01*
X023165Y007710D02*
X023165Y008351D01*
X022845Y008351D01*
X022738Y008244D01*
X023488Y008351D02*
X023488Y008457D01*
X023488Y008137D02*
X023488Y007710D01*
X023595Y007710D02*
X023381Y007710D01*
X023488Y008137D02*
X023595Y008137D01*
D11*
X014250Y007771D03*
X004750Y007771D03*
D12*
X003569Y007771D03*
X003569Y006589D03*
X004750Y006589D03*
X013069Y006589D03*
X014250Y006589D03*
X013069Y007771D03*
D13*
X011300Y010180D02*
X010700Y010180D01*
X010700Y011180D02*
X011300Y011180D01*
X011300Y012180D02*
X010700Y012180D01*
X010700Y013180D02*
X011300Y013180D01*
X011300Y014180D02*
X010700Y014180D01*
X010700Y015180D02*
X011300Y015180D01*
X011300Y016180D02*
X010700Y016180D01*
X010700Y017180D02*
X011300Y017180D01*
X007050Y017180D02*
X006450Y017180D01*
X006450Y016180D02*
X007050Y016180D01*
X007050Y015180D02*
X006450Y015180D01*
X006450Y014180D02*
X007050Y014180D01*
X007050Y013180D02*
X006450Y013180D01*
X006450Y012180D02*
X007050Y012180D01*
X007050Y011180D02*
X006450Y011180D01*
X006450Y010180D02*
X007050Y010180D01*
X002050Y010180D02*
X001450Y010180D01*
X001450Y011180D02*
X002050Y011180D01*
X002050Y012180D02*
X001450Y012180D01*
X001450Y013180D02*
X002050Y013180D01*
X002050Y014180D02*
X001450Y014180D01*
X001450Y015180D02*
X002050Y015180D01*
X002050Y016180D02*
X001450Y016180D01*
X001450Y017180D02*
X002050Y017180D01*
X015700Y017180D02*
X016300Y017180D01*
X016300Y016180D02*
X015700Y016180D01*
X015700Y015180D02*
X016300Y015180D01*
X016300Y014180D02*
X015700Y014180D01*
X015700Y013180D02*
X016300Y013180D01*
X016300Y012180D02*
X015700Y012180D01*
X015700Y011180D02*
X016300Y011180D01*
X016300Y010180D02*
X015700Y010180D01*
X018250Y017630D02*
X018250Y018230D01*
X019250Y018230D02*
X019250Y017630D01*
X020250Y017630D02*
X020250Y018230D01*
X021250Y018230D02*
X021250Y017630D01*
D14*
X001500Y019930D03*
X001500Y000930D03*
D15*
X002500Y000930D03*
X003500Y000930D03*
X003500Y001930D03*
X002500Y001930D03*
X001500Y001930D03*
X004500Y001930D03*
X005500Y001930D03*
X006500Y001930D03*
X007500Y001930D03*
X008500Y001930D03*
X009500Y001930D03*
X010500Y001930D03*
X011500Y001930D03*
X011500Y000930D03*
X010500Y000930D03*
X009500Y000930D03*
X008500Y000930D03*
X007500Y000930D03*
X006500Y000930D03*
X005500Y000930D03*
X004500Y000930D03*
X012500Y000930D03*
X013500Y000930D03*
X014500Y000930D03*
X015500Y000930D03*
X016500Y000930D03*
X017500Y000930D03*
X018500Y000930D03*
X018500Y001930D03*
X017500Y001930D03*
X016500Y001930D03*
X015500Y001930D03*
X014500Y001930D03*
X013500Y001930D03*
X012500Y001930D03*
X019500Y001930D03*
X020500Y001930D03*
X021500Y001930D03*
X022500Y001930D03*
X023500Y001930D03*
X023500Y000930D03*
X022500Y000930D03*
X021500Y000930D03*
X020500Y000930D03*
X019500Y000930D03*
X019500Y019930D03*
X020500Y019930D03*
X021500Y019930D03*
X022500Y019930D03*
X023500Y019930D03*
X023500Y020930D03*
X022500Y020930D03*
X021500Y020930D03*
X020500Y020930D03*
X019500Y020930D03*
X018500Y020930D03*
X017500Y020930D03*
X016500Y020930D03*
X015500Y020930D03*
X014500Y020930D03*
X013500Y020930D03*
X012500Y020930D03*
X011500Y020930D03*
X010500Y020930D03*
X009500Y020930D03*
X008500Y020930D03*
X007500Y020930D03*
X006500Y020930D03*
X005500Y020930D03*
X004500Y020930D03*
X003500Y020930D03*
X002500Y020930D03*
X001500Y020930D03*
X002500Y019930D03*
X003500Y019930D03*
X004500Y019930D03*
X005500Y019930D03*
X006500Y019930D03*
X007500Y019930D03*
X008500Y019930D03*
X009500Y019930D03*
X010500Y019930D03*
X011500Y019930D03*
X012500Y019930D03*
X013500Y019930D03*
X014500Y019930D03*
X015500Y019930D03*
X016500Y019930D03*
X017500Y019930D03*
X018500Y019930D03*
D16*
X024667Y017430D03*
X026833Y017430D03*
D17*
X023500Y012430D03*
X020500Y009930D03*
X024750Y008930D03*
X026250Y008930D03*
X024750Y006680D03*
X025250Y006180D03*
X026250Y006430D03*
X022750Y004930D03*
X022750Y004180D03*
X021000Y003680D03*
X018250Y005680D03*
X017500Y006180D03*
X016750Y005180D03*
X016750Y004430D03*
X016750Y003680D03*
X014159Y004192D03*
X013569Y004192D03*
X012978Y004192D03*
X012388Y004192D03*
X010409Y004442D03*
X009819Y004442D03*
X009228Y004442D03*
X008638Y004442D03*
X008638Y005942D03*
X009228Y005942D03*
X009819Y005942D03*
X010409Y005942D03*
X010409Y007442D03*
X009819Y007442D03*
X009228Y007442D03*
X008638Y007442D03*
X015750Y006180D03*
X024500Y000930D03*
D18*
X027000Y012180D03*
D19*
X027000Y013180D03*
X027000Y014180D03*
X027000Y015180D03*
D20*
X026833Y017430D02*
X026833Y018097D01*
X024667Y017430D02*
X023917Y016680D01*
X020750Y016680D01*
X020250Y017180D01*
X020250Y017930D01*
X020250Y011430D01*
X019000Y010180D01*
X016000Y010180D01*
X016000Y011180D02*
X018500Y011180D01*
X019250Y011930D01*
X019250Y017930D01*
X019250Y018680D01*
X019500Y018930D01*
X017250Y018930D01*
X016000Y017680D01*
X016000Y017180D01*
D21*
X016000Y011180D02*
X015500Y011180D01*
X015000Y010680D01*
X015000Y009680D01*
X015750Y008930D01*
X015750Y006180D01*
X015250Y004680D02*
X013250Y004680D01*
X013000Y004430D01*
X013000Y004213D01*
X012978Y004192D01*
X012978Y004452D01*
X012750Y004680D01*
X011500Y004680D01*
X011000Y005180D01*
X009228Y005180D01*
X009228Y004442D01*
X008638Y004442D02*
X008638Y004067D01*
X009025Y003680D01*
X012000Y003680D01*
X012388Y004068D01*
X012388Y004192D01*
X015250Y004680D02*
X015500Y004430D01*
X015500Y003180D01*
X017250Y003180D01*
X017375Y003055D01*
X017500Y002930D01*
X017500Y001930D01*
X009228Y005180D02*
X009228Y005942D01*
X009228Y007442D01*
X008638Y007442D02*
X008638Y005942D01*
X008638Y004442D01*
X008638Y007442D02*
X008625Y007455D01*
X008625Y008055D01*
X009500Y008930D01*
X009500Y011180D01*
X007500Y013180D01*
X006750Y013180D01*
X006750Y012180D02*
X005500Y012180D01*
X003500Y010180D01*
X003000Y010180D01*
X002500Y009680D01*
X002500Y005430D01*
X004500Y003430D01*
X004500Y001930D01*
X026833Y015347D02*
X027000Y015180D01*
X026833Y015347D02*
X026833Y017430D01*
D22*
X022750Y015180D03*
D23*
X012000Y012680D02*
X011500Y012180D01*
X011000Y012180D01*
X012000Y012680D02*
X012000Y017680D01*
X011500Y018180D01*
X011500Y019930D01*
X010500Y019930D02*
X010500Y017930D01*
X010000Y017430D01*
X010000Y013680D01*
X010500Y013180D01*
X011000Y013180D01*
X009500Y012180D02*
X010500Y011180D01*
X011000Y011180D01*
X009500Y012180D02*
X009500Y019930D01*
X008500Y019930D02*
X008500Y014930D01*
X007750Y014180D01*
X006750Y014180D01*
X006750Y015180D02*
X007500Y015180D01*
X007750Y015430D01*
X007750Y017680D01*
X007500Y017930D01*
X007500Y019930D01*
X006500Y019930D02*
X006500Y018180D01*
X005750Y017430D01*
X005750Y016680D01*
X006250Y016180D01*
X006750Y016180D01*
X006750Y011180D02*
X005750Y011180D01*
X005750Y003930D01*
X007000Y002680D01*
X008000Y002680D02*
X006750Y003930D01*
X006750Y010180D01*
X017375Y003055D02*
X017500Y003180D01*
X021750Y003180D01*
X022500Y002430D01*
X022500Y001930D01*
X023500Y001930D01*
X008500Y000930D02*
X008000Y001430D01*
X007500Y000930D02*
X007000Y001430D01*
D24*
X000765Y000445D02*
X000765Y021415D01*
X002272Y021415D01*
X002197Y021384D01*
X002046Y021233D01*
X001965Y021036D01*
X001965Y021034D01*
X001964Y021041D01*
X001940Y021112D01*
X001906Y021179D01*
X001863Y021240D01*
X001810Y021293D01*
X001749Y021336D01*
X001682Y021370D01*
X001611Y021394D01*
X001537Y021405D01*
X001518Y021405D01*
X001518Y020948D01*
X001482Y020948D01*
X001482Y020912D01*
X001518Y020912D01*
X001518Y020455D01*
X001537Y020455D01*
X001611Y020466D01*
X001682Y020490D01*
X001749Y020524D01*
X001810Y020567D01*
X001863Y020620D01*
X001906Y020681D01*
X001940Y020748D01*
X001964Y020819D01*
X001965Y020826D01*
X001965Y020824D01*
X002046Y020627D01*
X002197Y020476D01*
X002308Y020430D01*
X002197Y020384D01*
X002046Y020233D01*
X001975Y020062D01*
X001975Y020249D01*
X001963Y020295D01*
X001939Y020336D01*
X001906Y020369D01*
X001865Y020393D01*
X001819Y020405D01*
X001518Y020405D01*
X001518Y019948D01*
X001482Y019948D01*
X001482Y019912D01*
X001518Y019912D01*
X001518Y019455D01*
X001819Y019455D01*
X001865Y019467D01*
X001906Y019491D01*
X001939Y019524D01*
X001963Y019565D01*
X001975Y019611D01*
X001975Y019798D01*
X002046Y019627D01*
X002197Y019476D01*
X002394Y019395D01*
X002606Y019395D01*
X002803Y019476D01*
X002954Y019627D01*
X003000Y019738D01*
X003046Y019627D01*
X003197Y019476D01*
X003394Y019395D01*
X003606Y019395D01*
X003803Y019476D01*
X003954Y019627D01*
X004000Y019738D01*
X004046Y019627D01*
X004197Y019476D01*
X004394Y019395D01*
X004606Y019395D01*
X004803Y019476D01*
X004954Y019627D01*
X005000Y019738D01*
X005046Y019627D01*
X005197Y019476D01*
X005394Y019395D01*
X005606Y019395D01*
X005803Y019476D01*
X005954Y019627D01*
X006000Y019738D01*
X006046Y019627D01*
X006140Y019533D01*
X006140Y018329D01*
X005546Y017735D01*
X005445Y017634D01*
X005390Y017502D01*
X005390Y016608D01*
X005445Y016476D01*
X005945Y015976D01*
X005954Y015967D01*
X005992Y015874D01*
X006144Y015722D01*
X006246Y015680D01*
X006144Y015638D01*
X005992Y015486D01*
X005910Y015287D01*
X005910Y015073D01*
X005992Y014874D01*
X006144Y014722D01*
X006246Y014680D01*
X006144Y014638D01*
X005992Y014486D01*
X005910Y014287D01*
X005910Y014073D01*
X005992Y013874D01*
X006144Y013722D01*
X006246Y013680D01*
X006144Y013638D01*
X005992Y013486D01*
X005910Y013287D01*
X005910Y013073D01*
X005992Y012874D01*
X006144Y012722D01*
X006246Y012680D01*
X006144Y012638D01*
X006086Y012580D01*
X005420Y012580D01*
X005273Y012519D01*
X005161Y012407D01*
X003334Y010580D01*
X002920Y010580D01*
X002773Y010519D01*
X002661Y010407D01*
X002522Y010268D01*
X002518Y010292D01*
X002495Y010364D01*
X002461Y010432D01*
X002416Y010493D01*
X002363Y010546D01*
X002302Y010591D01*
X002234Y010625D01*
X002171Y010645D01*
X002356Y010722D01*
X002508Y010874D01*
X002590Y011073D01*
X002590Y011287D01*
X002508Y011486D01*
X002356Y011638D01*
X002254Y011680D01*
X002356Y011722D01*
X002508Y011874D01*
X002590Y012073D01*
X002590Y012287D01*
X002508Y012486D01*
X002356Y012638D01*
X002254Y012680D01*
X002356Y012722D01*
X002508Y012874D01*
X002590Y013073D01*
X002590Y013287D01*
X002508Y013486D01*
X002356Y013638D01*
X002254Y013680D01*
X002356Y013722D01*
X002508Y013874D01*
X002590Y014073D01*
X002590Y014287D01*
X002508Y014486D01*
X002356Y014638D01*
X002254Y014680D01*
X002356Y014722D01*
X002508Y014874D01*
X002590Y015073D01*
X002590Y015287D01*
X002508Y015486D01*
X002356Y015638D01*
X002171Y015715D01*
X002234Y015735D01*
X002302Y015769D01*
X002363Y015814D01*
X002416Y015867D01*
X002461Y015928D01*
X002495Y015996D01*
X002518Y016068D01*
X002530Y016142D01*
X002530Y016160D01*
X001770Y016160D01*
X001770Y016200D01*
X002530Y016200D01*
X002530Y016218D01*
X002518Y016292D01*
X002495Y016364D01*
X002461Y016432D01*
X002416Y016493D01*
X002363Y016546D01*
X002302Y016591D01*
X002234Y016625D01*
X002171Y016645D01*
X002356Y016722D01*
X002508Y016874D01*
X002590Y017073D01*
X002590Y017287D01*
X002508Y017486D01*
X002356Y017638D01*
X002157Y017720D01*
X001343Y017720D01*
X001144Y017638D01*
X000992Y017486D01*
X000910Y017287D01*
X000910Y017073D01*
X000992Y016874D01*
X001144Y016722D01*
X001329Y016645D01*
X001266Y016625D01*
X001198Y016591D01*
X001137Y016546D01*
X001084Y016493D01*
X001039Y016432D01*
X001005Y016364D01*
X000982Y016292D01*
X000970Y016218D01*
X000970Y016200D01*
X001730Y016200D01*
X001730Y016160D01*
X000970Y016160D01*
X000970Y016142D01*
X000982Y016068D01*
X001005Y015996D01*
X001039Y015928D01*
X001084Y015867D01*
X001137Y015814D01*
X001198Y015769D01*
X001266Y015735D01*
X001329Y015715D01*
X001144Y015638D01*
X000992Y015486D01*
X000910Y015287D01*
X000910Y015073D01*
X000992Y014874D01*
X001144Y014722D01*
X001246Y014680D01*
X001144Y014638D01*
X000992Y014486D01*
X000910Y014287D01*
X000910Y014073D01*
X000992Y013874D01*
X001144Y013722D01*
X001246Y013680D01*
X001144Y013638D01*
X000992Y013486D01*
X000910Y013287D01*
X000910Y013073D01*
X000992Y012874D01*
X001144Y012722D01*
X001246Y012680D01*
X001144Y012638D01*
X000992Y012486D01*
X000910Y012287D01*
X000910Y012073D01*
X000992Y011874D01*
X001144Y011722D01*
X001246Y011680D01*
X001144Y011638D01*
X000992Y011486D01*
X000910Y011287D01*
X000910Y011073D01*
X000992Y010874D01*
X001144Y010722D01*
X001329Y010645D01*
X001266Y010625D01*
X001198Y010591D01*
X001137Y010546D01*
X001084Y010493D01*
X001039Y010432D01*
X001005Y010364D01*
X000982Y010292D01*
X000970Y010218D01*
X000970Y010200D01*
X001730Y010200D01*
X001730Y010160D01*
X001770Y010160D01*
X001770Y009700D01*
X002088Y009700D01*
X002100Y009702D01*
X002100Y005350D01*
X002161Y005203D01*
X002273Y005091D01*
X004100Y003264D01*
X004100Y002287D01*
X004046Y002233D01*
X004000Y002122D01*
X003954Y002233D01*
X003803Y002384D01*
X003606Y002465D01*
X003394Y002465D01*
X003197Y002384D01*
X003046Y002233D01*
X003000Y002122D01*
X002954Y002233D01*
X002803Y002384D01*
X002606Y002465D01*
X002394Y002465D01*
X002197Y002384D01*
X002046Y002233D01*
X002000Y002122D01*
X001954Y002233D01*
X001803Y002384D01*
X001606Y002465D01*
X001394Y002465D01*
X001197Y002384D01*
X001046Y002233D01*
X000965Y002036D01*
X000965Y001824D01*
X001046Y001627D01*
X001197Y001476D01*
X001368Y001405D01*
X001181Y001405D01*
X001135Y001393D01*
X001094Y001369D01*
X001061Y001336D01*
X001037Y001295D01*
X001025Y001249D01*
X001025Y000948D01*
X001482Y000948D01*
X001482Y000912D01*
X001518Y000912D01*
X001518Y000455D01*
X001819Y000455D01*
X001865Y000467D01*
X001906Y000491D01*
X001939Y000524D01*
X001963Y000565D01*
X001975Y000611D01*
X001975Y000798D01*
X002046Y000627D01*
X002197Y000476D01*
X002272Y000445D01*
X000765Y000445D01*
X000765Y000564D02*
X001038Y000564D01*
X001037Y000565D02*
X001061Y000524D01*
X001094Y000491D01*
X001135Y000467D01*
X001181Y000455D01*
X001482Y000455D01*
X001482Y000912D01*
X001025Y000912D01*
X001025Y000611D01*
X001037Y000565D01*
X001025Y000723D02*
X000765Y000723D01*
X000765Y000881D02*
X001025Y000881D01*
X001025Y001040D02*
X000765Y001040D01*
X000765Y001198D02*
X001025Y001198D01*
X001081Y001357D02*
X000765Y001357D01*
X000765Y001515D02*
X001158Y001515D01*
X001027Y001674D02*
X000765Y001674D01*
X000765Y001832D02*
X000965Y001832D01*
X000965Y001991D02*
X000765Y001991D01*
X000765Y002149D02*
X001011Y002149D01*
X001121Y002308D02*
X000765Y002308D01*
X000765Y002466D02*
X004100Y002466D01*
X004100Y002308D02*
X003879Y002308D01*
X003989Y002149D02*
X004011Y002149D01*
X004100Y002625D02*
X000765Y002625D01*
X000765Y002783D02*
X004100Y002783D01*
X004100Y002942D02*
X000765Y002942D01*
X000765Y003100D02*
X004100Y003100D01*
X004100Y003259D02*
X000765Y003259D01*
X000765Y003417D02*
X003947Y003417D01*
X003789Y003576D02*
X000765Y003576D01*
X000765Y003734D02*
X003630Y003734D01*
X003472Y003893D02*
X000765Y003893D01*
X000765Y004051D02*
X003313Y004051D01*
X003155Y004210D02*
X000765Y004210D01*
X000765Y004368D02*
X002996Y004368D01*
X002838Y004527D02*
X000765Y004527D01*
X000765Y004685D02*
X002679Y004685D01*
X002521Y004844D02*
X000765Y004844D01*
X000765Y005002D02*
X002362Y005002D01*
X002204Y005161D02*
X000765Y005161D01*
X000765Y005319D02*
X002113Y005319D01*
X002100Y005478D02*
X000765Y005478D01*
X000765Y005636D02*
X002100Y005636D01*
X002100Y005795D02*
X000765Y005795D01*
X000765Y005953D02*
X002100Y005953D01*
X002100Y006112D02*
X000765Y006112D01*
X000765Y006270D02*
X002100Y006270D01*
X002100Y006429D02*
X000765Y006429D01*
X000765Y006587D02*
X002100Y006587D01*
X002100Y006746D02*
X000765Y006746D01*
X000765Y006904D02*
X002100Y006904D01*
X002100Y007063D02*
X000765Y007063D01*
X000765Y007221D02*
X002100Y007221D01*
X002100Y007380D02*
X000765Y007380D01*
X000765Y007538D02*
X002100Y007538D01*
X002100Y007697D02*
X000765Y007697D01*
X000765Y007855D02*
X002100Y007855D01*
X002100Y008014D02*
X000765Y008014D01*
X000765Y008172D02*
X002100Y008172D01*
X002100Y008331D02*
X000765Y008331D01*
X000765Y008489D02*
X002100Y008489D01*
X002100Y008648D02*
X000765Y008648D01*
X000765Y008806D02*
X002100Y008806D01*
X002100Y008965D02*
X000765Y008965D01*
X000765Y009123D02*
X002100Y009123D01*
X002100Y009282D02*
X000765Y009282D01*
X000765Y009440D02*
X002100Y009440D01*
X002100Y009599D02*
X000765Y009599D01*
X000765Y009757D02*
X001223Y009757D01*
X001198Y009769D02*
X001266Y009735D01*
X001338Y009712D01*
X001412Y009700D01*
X001730Y009700D01*
X001730Y010160D01*
X000970Y010160D01*
X000970Y010142D01*
X000982Y010068D01*
X001005Y009996D01*
X001039Y009928D01*
X001084Y009867D01*
X001137Y009814D01*
X001198Y009769D01*
X001049Y009916D02*
X000765Y009916D01*
X000765Y010074D02*
X000981Y010074D01*
X000972Y010233D02*
X000765Y010233D01*
X000765Y010391D02*
X001019Y010391D01*
X001142Y010550D02*
X000765Y010550D01*
X000765Y010708D02*
X001178Y010708D01*
X001000Y010867D02*
X000765Y010867D01*
X000765Y011025D02*
X000930Y011025D01*
X000910Y011184D02*
X000765Y011184D01*
X000765Y011342D02*
X000933Y011342D01*
X001007Y011501D02*
X000765Y011501D01*
X000765Y011659D02*
X001195Y011659D01*
X001049Y011818D02*
X000765Y011818D01*
X000765Y011976D02*
X000950Y011976D01*
X000910Y012135D02*
X000765Y012135D01*
X000765Y012293D02*
X000912Y012293D01*
X000978Y012452D02*
X000765Y012452D01*
X000765Y012610D02*
X001116Y012610D01*
X001098Y012769D02*
X000765Y012769D01*
X000765Y012927D02*
X000970Y012927D01*
X000910Y013086D02*
X000765Y013086D01*
X000765Y013244D02*
X000910Y013244D01*
X000958Y013403D02*
X000765Y013403D01*
X000765Y013561D02*
X001067Y013561D01*
X001151Y013720D02*
X000765Y013720D01*
X000765Y013878D02*
X000991Y013878D01*
X000925Y014037D02*
X000765Y014037D01*
X000765Y014195D02*
X000910Y014195D01*
X000937Y014354D02*
X000765Y014354D01*
X000765Y014512D02*
X001018Y014512D01*
X001223Y014671D02*
X000765Y014671D01*
X000765Y014829D02*
X001037Y014829D01*
X000945Y014988D02*
X000765Y014988D01*
X000765Y015146D02*
X000910Y015146D01*
X000917Y015305D02*
X000765Y015305D01*
X000765Y015463D02*
X000983Y015463D01*
X001128Y015622D02*
X000765Y015622D01*
X000765Y015780D02*
X001184Y015780D01*
X001034Y015939D02*
X000765Y015939D01*
X000765Y016097D02*
X000977Y016097D01*
X000976Y016256D02*
X000765Y016256D01*
X000765Y016414D02*
X001031Y016414D01*
X001174Y016573D02*
X000765Y016573D01*
X000765Y016731D02*
X001135Y016731D01*
X000986Y016890D02*
X000765Y016890D01*
X000765Y017048D02*
X000920Y017048D01*
X000910Y017207D02*
X000765Y017207D01*
X000765Y017365D02*
X000942Y017365D01*
X001030Y017524D02*
X000765Y017524D01*
X000765Y017682D02*
X001251Y017682D01*
X000765Y017841D02*
X005651Y017841D01*
X005810Y017999D02*
X000765Y017999D01*
X000765Y018158D02*
X005968Y018158D01*
X006127Y018316D02*
X000765Y018316D01*
X000765Y018475D02*
X006140Y018475D01*
X006140Y018633D02*
X000765Y018633D01*
X000765Y018792D02*
X006140Y018792D01*
X006140Y018950D02*
X000765Y018950D01*
X000765Y019109D02*
X006140Y019109D01*
X006140Y019267D02*
X000765Y019267D01*
X000765Y019426D02*
X002319Y019426D01*
X002089Y019584D02*
X001968Y019584D01*
X001975Y019743D02*
X001998Y019743D01*
X001975Y020218D02*
X002040Y020218D01*
X001893Y020377D02*
X002190Y020377D01*
X002138Y020535D02*
X001765Y020535D01*
X001913Y020694D02*
X002019Y020694D01*
X002020Y021169D02*
X001912Y021169D01*
X001761Y021328D02*
X002141Y021328D01*
X001518Y021328D02*
X001482Y021328D01*
X001482Y021405D02*
X001463Y021405D01*
X001389Y021394D01*
X001318Y021370D01*
X001251Y021336D01*
X001190Y021293D01*
X001137Y021240D01*
X001094Y021179D01*
X001060Y021112D01*
X001036Y021041D01*
X001025Y020967D01*
X001025Y020948D01*
X001482Y020948D01*
X001482Y021405D01*
X001482Y021169D02*
X001518Y021169D01*
X001518Y021011D02*
X001482Y021011D01*
X001482Y020912D02*
X001025Y020912D01*
X001025Y020893D01*
X001036Y020819D01*
X001060Y020748D01*
X001094Y020681D01*
X001137Y020620D01*
X001190Y020567D01*
X001251Y020524D01*
X001318Y020490D01*
X001389Y020466D01*
X001463Y020455D01*
X001482Y020455D01*
X001482Y020912D01*
X001482Y020852D02*
X001518Y020852D01*
X001518Y020694D02*
X001482Y020694D01*
X001482Y020535D02*
X001518Y020535D01*
X001482Y020405D02*
X001181Y020405D01*
X001135Y020393D01*
X001094Y020369D01*
X001061Y020336D01*
X001037Y020295D01*
X001025Y020249D01*
X001025Y019948D01*
X001482Y019948D01*
X001482Y020405D01*
X001482Y020377D02*
X001518Y020377D01*
X001518Y020218D02*
X001482Y020218D01*
X001482Y020060D02*
X001518Y020060D01*
X001482Y019912D02*
X001025Y019912D01*
X001025Y019611D01*
X001037Y019565D01*
X001061Y019524D01*
X001094Y019491D01*
X001135Y019467D01*
X001181Y019455D01*
X001482Y019455D01*
X001482Y019912D01*
X001482Y019901D02*
X001518Y019901D01*
X001518Y019743D02*
X001482Y019743D01*
X001482Y019584D02*
X001518Y019584D01*
X001032Y019584D02*
X000765Y019584D01*
X000765Y019743D02*
X001025Y019743D01*
X001025Y019901D02*
X000765Y019901D01*
X000765Y020060D02*
X001025Y020060D01*
X001025Y020218D02*
X000765Y020218D01*
X000765Y020377D02*
X001107Y020377D01*
X001235Y020535D02*
X000765Y020535D01*
X000765Y020694D02*
X001087Y020694D01*
X001031Y020852D02*
X000765Y020852D01*
X000765Y021011D02*
X001032Y021011D01*
X001088Y021169D02*
X000765Y021169D01*
X000765Y021328D02*
X001239Y021328D01*
X002911Y019584D02*
X003089Y019584D01*
X003319Y019426D02*
X002681Y019426D01*
X003681Y019426D02*
X004319Y019426D01*
X004089Y019584D02*
X003911Y019584D01*
X004681Y019426D02*
X005319Y019426D01*
X005089Y019584D02*
X004911Y019584D01*
X005681Y019426D02*
X006140Y019426D01*
X006089Y019584D02*
X005911Y019584D01*
X005493Y017682D02*
X002249Y017682D01*
X002470Y017524D02*
X005399Y017524D01*
X005390Y017365D02*
X002558Y017365D01*
X002590Y017207D02*
X005390Y017207D01*
X005390Y017048D02*
X002580Y017048D01*
X002514Y016890D02*
X005390Y016890D01*
X005390Y016731D02*
X002365Y016731D01*
X002326Y016573D02*
X005405Y016573D01*
X005507Y016414D02*
X002469Y016414D01*
X002524Y016256D02*
X005665Y016256D01*
X005824Y016097D02*
X002523Y016097D01*
X002466Y015939D02*
X005966Y015939D01*
X006086Y015780D02*
X002316Y015780D01*
X002372Y015622D02*
X006128Y015622D01*
X005983Y015463D02*
X002517Y015463D01*
X002583Y015305D02*
X005917Y015305D01*
X005910Y015146D02*
X002590Y015146D01*
X002555Y014988D02*
X005945Y014988D01*
X006037Y014829D02*
X002463Y014829D01*
X002277Y014671D02*
X006223Y014671D01*
X006018Y014512D02*
X002482Y014512D01*
X002563Y014354D02*
X005937Y014354D01*
X005910Y014195D02*
X002590Y014195D01*
X002575Y014037D02*
X005925Y014037D01*
X005991Y013878D02*
X002509Y013878D01*
X002349Y013720D02*
X006151Y013720D01*
X006067Y013561D02*
X002433Y013561D01*
X002542Y013403D02*
X005958Y013403D01*
X005910Y013244D02*
X002590Y013244D01*
X002590Y013086D02*
X005910Y013086D01*
X005970Y012927D02*
X002530Y012927D01*
X002402Y012769D02*
X006098Y012769D01*
X006116Y012610D02*
X002384Y012610D01*
X002522Y012452D02*
X005206Y012452D01*
X005047Y012293D02*
X002588Y012293D01*
X002590Y012135D02*
X004889Y012135D01*
X004730Y011976D02*
X002550Y011976D01*
X002451Y011818D02*
X004572Y011818D01*
X004413Y011659D02*
X002305Y011659D01*
X002493Y011501D02*
X004255Y011501D01*
X004096Y011342D02*
X002567Y011342D01*
X002590Y011184D02*
X003938Y011184D01*
X003779Y011025D02*
X002570Y011025D01*
X002500Y010867D02*
X003621Y010867D01*
X003462Y010708D02*
X002322Y010708D01*
X002358Y010550D02*
X002847Y010550D01*
X002645Y010391D02*
X002481Y010391D01*
X001770Y010074D02*
X001730Y010074D01*
X001730Y009916D02*
X001770Y009916D01*
X001770Y009757D02*
X001730Y009757D01*
X007110Y009640D02*
X007157Y009640D01*
X007356Y009722D01*
X007508Y009874D01*
X007590Y010073D01*
X007590Y010287D01*
X007508Y010486D01*
X007356Y010638D01*
X007254Y010680D01*
X007356Y010722D01*
X007508Y010874D01*
X007590Y011073D01*
X007590Y011287D01*
X007508Y011486D01*
X007356Y011638D01*
X007254Y011680D01*
X007356Y011722D01*
X007508Y011874D01*
X007590Y012073D01*
X007590Y012287D01*
X007508Y012486D01*
X007356Y012638D01*
X007254Y012680D01*
X007356Y012722D01*
X007374Y012740D01*
X009100Y011014D01*
X009100Y009096D01*
X008398Y008394D01*
X008286Y008282D01*
X008225Y008135D01*
X008225Y007642D01*
X008180Y007533D01*
X008180Y007351D01*
X008238Y007211D01*
X008238Y006172D01*
X008180Y006033D01*
X008180Y005851D01*
X008238Y005711D01*
X008238Y004672D01*
X008180Y004533D01*
X008180Y004351D01*
X008238Y004211D01*
X008238Y003987D01*
X008299Y003840D01*
X008798Y003341D01*
X008945Y003280D01*
X012080Y003280D01*
X012227Y003341D01*
X012727Y003841D01*
X012740Y003873D01*
X012790Y003839D01*
X012862Y003809D01*
X012939Y003794D01*
X012978Y003794D01*
X012978Y004192D01*
X012978Y004590D01*
X012939Y004590D01*
X012862Y004574D01*
X012790Y004544D01*
X012726Y004501D01*
X012647Y004580D01*
X012479Y004650D01*
X012297Y004650D01*
X012128Y004580D01*
X012000Y004451D01*
X011930Y004283D01*
X011930Y004176D01*
X011834Y004080D01*
X010695Y004080D01*
X010798Y004182D01*
X010867Y004351D01*
X010867Y004533D01*
X010798Y004701D01*
X010669Y004830D01*
X010501Y004900D01*
X010318Y004900D01*
X010150Y004830D01*
X010114Y004794D01*
X010078Y004830D01*
X009910Y004900D01*
X009728Y004900D01*
X009560Y004830D01*
X009481Y004751D01*
X009417Y004794D01*
X009344Y004824D01*
X009268Y004840D01*
X009228Y004840D01*
X009189Y004840D01*
X009112Y004824D01*
X009040Y004794D01*
X009038Y004793D01*
X009038Y005591D01*
X009040Y005589D01*
X009112Y005559D01*
X009189Y005544D01*
X009228Y005544D01*
X009228Y005942D01*
X009228Y006340D01*
X009189Y006340D01*
X009112Y006324D01*
X009040Y006294D01*
X009038Y006293D01*
X009038Y007091D01*
X009040Y007089D01*
X009112Y007059D01*
X009189Y007044D01*
X009228Y007044D01*
X009228Y007442D01*
X009228Y007840D01*
X009189Y007840D01*
X009112Y007824D01*
X009040Y007794D01*
X009025Y007784D01*
X009025Y007889D01*
X009839Y008703D01*
X009900Y008850D01*
X009900Y011260D01*
X009892Y011279D01*
X010195Y010976D01*
X010204Y010967D01*
X010242Y010874D01*
X010394Y010722D01*
X010496Y010680D01*
X010394Y010638D01*
X010242Y010486D01*
X010160Y010287D01*
X010160Y010073D01*
X010242Y009874D01*
X010394Y009722D01*
X010593Y009640D01*
X011407Y009640D01*
X011606Y009722D01*
X011758Y009874D01*
X011840Y010073D01*
X011840Y010287D01*
X011758Y010486D01*
X011606Y010638D01*
X011504Y010680D01*
X011606Y010722D01*
X011758Y010874D01*
X011840Y011073D01*
X011840Y011287D01*
X011758Y011486D01*
X011606Y011638D01*
X011504Y011680D01*
X011606Y011722D01*
X011758Y011874D01*
X011796Y011967D01*
X011805Y011976D01*
X015200Y011976D01*
X015160Y012073D02*
X015242Y011874D01*
X015394Y011722D01*
X015579Y011645D01*
X015516Y011625D01*
X015448Y011591D01*
X015387Y011546D01*
X015334Y011493D01*
X015289Y011432D01*
X015255Y011364D01*
X015232Y011292D01*
X015220Y011218D01*
X015220Y011200D01*
X015980Y011200D01*
X015980Y011160D01*
X015220Y011160D01*
X015220Y011142D01*
X015232Y011068D01*
X015255Y010996D01*
X015289Y010928D01*
X015334Y010867D01*
X015387Y010814D01*
X015448Y010769D01*
X015516Y010735D01*
X015579Y010715D01*
X015394Y010638D01*
X015242Y010486D01*
X015160Y010287D01*
X015160Y010073D01*
X015242Y009874D01*
X015394Y009722D01*
X015593Y009640D01*
X016407Y009640D01*
X016528Y009690D01*
X019097Y009690D01*
X019278Y009765D01*
X020528Y011015D01*
X020665Y011152D01*
X020740Y011333D01*
X020740Y016190D01*
X024015Y016190D01*
X024195Y016265D01*
X024707Y016777D01*
X025128Y016777D01*
X025217Y016813D01*
X025284Y016881D01*
X025321Y016969D01*
X025321Y017891D01*
X025284Y017979D01*
X025217Y018047D01*
X025128Y018083D01*
X024206Y018083D01*
X024118Y018047D01*
X024050Y017979D01*
X024014Y017891D01*
X024014Y017470D01*
X023714Y017170D01*
X021551Y017170D01*
X021556Y017172D01*
X021708Y017324D01*
X021790Y017523D01*
X021790Y018337D01*
X021708Y018536D01*
X021556Y018688D01*
X021357Y018770D01*
X021143Y018770D01*
X020944Y018688D01*
X020792Y018536D01*
X020750Y018434D01*
X020708Y018536D01*
X020556Y018688D01*
X020357Y018770D01*
X020143Y018770D01*
X019944Y018688D01*
X019792Y018536D01*
X019715Y018351D01*
X019695Y018414D01*
X019661Y018482D01*
X019616Y018543D01*
X019563Y018596D01*
X019502Y018641D01*
X019434Y018675D01*
X019362Y018698D01*
X019288Y018710D01*
X019270Y018710D01*
X019270Y017950D01*
X019230Y017950D01*
X019230Y018710D01*
X019212Y018710D01*
X019138Y018698D01*
X019066Y018675D01*
X018998Y018641D01*
X018937Y018596D01*
X018884Y018543D01*
X018839Y018482D01*
X018805Y018414D01*
X018785Y018351D01*
X018708Y018536D01*
X018556Y018688D01*
X018357Y018770D01*
X018143Y018770D01*
X017944Y018688D01*
X017792Y018536D01*
X017710Y018337D01*
X017710Y017523D01*
X017792Y017324D01*
X017944Y017172D01*
X018143Y017090D01*
X018357Y017090D01*
X018556Y017172D01*
X018708Y017324D01*
X018785Y017509D01*
X018805Y017446D01*
X018839Y017378D01*
X018884Y017317D01*
X018937Y017264D01*
X018998Y017219D01*
X019066Y017185D01*
X019138Y017162D01*
X019212Y017150D01*
X019230Y017150D01*
X019230Y017910D01*
X019270Y017910D01*
X019270Y017150D01*
X019288Y017150D01*
X019362Y017162D01*
X019434Y017185D01*
X019502Y017219D01*
X019563Y017264D01*
X019616Y017317D01*
X019661Y017378D01*
X019695Y017446D01*
X019715Y017509D01*
X019760Y017402D01*
X019760Y011633D01*
X018797Y010670D01*
X016528Y010670D01*
X016421Y010715D01*
X016484Y010735D01*
X016552Y010769D01*
X016613Y010814D01*
X016666Y010867D01*
X016711Y010928D01*
X016745Y010996D01*
X016768Y011068D01*
X016780Y011142D01*
X016780Y011160D01*
X016020Y011160D01*
X016020Y011200D01*
X016780Y011200D01*
X016780Y011218D01*
X016768Y011292D01*
X016745Y011364D01*
X016711Y011432D01*
X016666Y011493D01*
X016613Y011546D01*
X016552Y011591D01*
X016484Y011625D01*
X016421Y011645D01*
X016606Y011722D01*
X016758Y011874D01*
X016840Y012073D01*
X016840Y012287D01*
X016758Y012486D01*
X016606Y012638D01*
X016504Y012680D01*
X016606Y012722D01*
X016758Y012874D01*
X016840Y013073D01*
X016840Y013287D01*
X016758Y013486D01*
X016606Y013638D01*
X016504Y013680D01*
X016606Y013722D01*
X016758Y013874D01*
X016840Y014073D01*
X016840Y014287D01*
X016758Y014486D01*
X016606Y014638D01*
X016504Y014680D01*
X016606Y014722D01*
X016758Y014874D01*
X016840Y015073D01*
X016840Y015287D01*
X016758Y015486D01*
X016606Y015638D01*
X016504Y015680D01*
X016606Y015722D01*
X016758Y015874D01*
X016840Y016073D01*
X016840Y016287D01*
X016758Y016486D01*
X016606Y016638D01*
X016421Y016715D01*
X016484Y016735D01*
X016552Y016769D01*
X016613Y016814D01*
X016666Y016867D01*
X016711Y016928D01*
X016745Y016996D01*
X016768Y017068D01*
X016780Y017142D01*
X016780Y017160D01*
X016020Y017160D01*
X016020Y017200D01*
X015980Y017200D01*
X015980Y017660D01*
X015662Y017660D01*
X015588Y017648D01*
X015516Y017625D01*
X015448Y017591D01*
X015387Y017546D01*
X015334Y017493D01*
X015289Y017432D01*
X015255Y017364D01*
X015232Y017292D01*
X015220Y017218D01*
X015220Y017200D01*
X015980Y017200D01*
X015980Y017160D01*
X015220Y017160D01*
X015220Y017142D01*
X015232Y017068D01*
X015255Y016996D01*
X015289Y016928D01*
X015334Y016867D01*
X015387Y016814D01*
X015448Y016769D01*
X015516Y016735D01*
X015579Y016715D01*
X015394Y016638D01*
X015242Y016486D01*
X015160Y016287D01*
X015160Y016073D01*
X015242Y015874D01*
X015394Y015722D01*
X015496Y015680D01*
X015394Y015638D01*
X015242Y015486D01*
X015160Y015287D01*
X015160Y015073D01*
X015242Y014874D01*
X015394Y014722D01*
X015496Y014680D01*
X015394Y014638D01*
X015242Y014486D01*
X015160Y014287D01*
X015160Y014073D01*
X015242Y013874D01*
X015394Y013722D01*
X015496Y013680D01*
X015394Y013638D01*
X015242Y013486D01*
X015160Y013287D01*
X015160Y013073D01*
X015242Y012874D01*
X015394Y012722D01*
X015496Y012680D01*
X015394Y012638D01*
X015242Y012486D01*
X015160Y012287D01*
X015160Y012073D01*
X015160Y012135D02*
X011964Y012135D01*
X012122Y012293D02*
X015162Y012293D01*
X015228Y012452D02*
X012281Y012452D01*
X012305Y012476D02*
X012360Y012608D01*
X012360Y017752D01*
X012305Y017884D01*
X012204Y017985D01*
X011860Y018329D01*
X011860Y019533D01*
X011954Y019627D01*
X012000Y019738D01*
X012046Y019627D01*
X012197Y019476D01*
X012394Y019395D01*
X012606Y019395D01*
X012803Y019476D01*
X012954Y019627D01*
X013000Y019738D01*
X013046Y019627D01*
X013197Y019476D01*
X013394Y019395D01*
X013606Y019395D01*
X013803Y019476D01*
X013954Y019627D01*
X014000Y019738D01*
X014046Y019627D01*
X014197Y019476D01*
X014394Y019395D01*
X014606Y019395D01*
X014803Y019476D01*
X014954Y019627D01*
X015000Y019738D01*
X015046Y019627D01*
X015197Y019476D01*
X015394Y019395D01*
X015606Y019395D01*
X015803Y019476D01*
X015954Y019627D01*
X016000Y019738D01*
X016046Y019627D01*
X016197Y019476D01*
X016394Y019395D01*
X016606Y019395D01*
X016803Y019476D01*
X016954Y019627D01*
X017000Y019738D01*
X017046Y019627D01*
X017197Y019476D01*
X017394Y019395D01*
X017606Y019395D01*
X017803Y019476D01*
X017954Y019627D01*
X018000Y019738D01*
X018046Y019627D01*
X018197Y019476D01*
X018394Y019395D01*
X018606Y019395D01*
X018803Y019476D01*
X018954Y019627D01*
X019000Y019738D01*
X019046Y019627D01*
X019197Y019476D01*
X019394Y019395D01*
X019606Y019395D01*
X019803Y019476D01*
X019954Y019627D01*
X020000Y019738D01*
X020046Y019627D01*
X020197Y019476D01*
X020394Y019395D01*
X020606Y019395D01*
X020803Y019476D01*
X020954Y019627D01*
X021000Y019738D01*
X021046Y019627D01*
X021197Y019476D01*
X021394Y019395D01*
X021606Y019395D01*
X021803Y019476D01*
X021954Y019627D01*
X022000Y019738D01*
X022046Y019627D01*
X022197Y019476D01*
X022394Y019395D01*
X022606Y019395D01*
X022803Y019476D01*
X022954Y019627D01*
X023000Y019738D01*
X023046Y019627D01*
X023197Y019476D01*
X023394Y019395D01*
X023606Y019395D01*
X023803Y019476D01*
X023954Y019627D01*
X024035Y019824D01*
X024035Y020036D01*
X023954Y020233D01*
X023803Y020384D01*
X023692Y020430D01*
X023803Y020476D01*
X023954Y020627D01*
X024035Y020824D01*
X024035Y021036D01*
X023954Y021233D01*
X023865Y021322D01*
X024105Y021284D01*
X024812Y021055D01*
X025474Y020717D01*
X026075Y020281D01*
X026075Y020281D01*
X026601Y019755D01*
X027037Y019154D01*
X027375Y018492D01*
X027604Y017785D01*
X027720Y017052D01*
X027735Y016680D01*
X027735Y005180D01*
X027720Y004808D01*
X027604Y004075D01*
X027375Y003368D01*
X027037Y002706D01*
X026601Y002105D01*
X026570Y002074D01*
X026570Y006103D01*
X026638Y006171D01*
X026708Y006339D01*
X026708Y006521D01*
X026638Y006689D01*
X026509Y006818D01*
X026341Y006888D01*
X026159Y006888D01*
X026070Y006851D01*
X026070Y008297D01*
X026245Y008472D01*
X026341Y008472D01*
X026509Y008542D01*
X026638Y008671D01*
X026708Y008839D01*
X026708Y009021D01*
X026638Y009189D01*
X026509Y009318D01*
X026341Y009388D01*
X026159Y009388D01*
X025991Y009318D01*
X025862Y009189D01*
X025792Y009021D01*
X025792Y008925D01*
X025479Y008611D01*
X025430Y008494D01*
X025430Y006601D01*
X025341Y006638D01*
X025208Y006638D01*
X025208Y006771D01*
X025138Y006939D01*
X025009Y007068D01*
X024841Y007138D01*
X024659Y007138D01*
X024491Y007068D01*
X024362Y006939D01*
X024292Y006771D01*
X024292Y006675D01*
X024117Y006500D01*
X017827Y006500D01*
X017759Y006568D01*
X017591Y006638D01*
X017409Y006638D01*
X017241Y006568D01*
X017112Y006439D01*
X017042Y006271D01*
X017042Y006089D01*
X017112Y005921D01*
X017241Y005792D01*
X017409Y005722D01*
X017591Y005722D01*
X017759Y005792D01*
X017827Y005860D01*
X017829Y005860D01*
X017792Y005771D01*
X017792Y005589D01*
X017829Y005500D01*
X017077Y005500D01*
X017009Y005568D01*
X016841Y005638D01*
X016659Y005638D01*
X016491Y005568D01*
X016362Y005439D01*
X016292Y005271D01*
X016292Y005089D01*
X016362Y004921D01*
X016478Y004805D01*
X016362Y004689D01*
X016292Y004521D01*
X016292Y004339D01*
X016362Y004171D01*
X016478Y004055D01*
X016362Y003939D01*
X016292Y003771D01*
X016292Y003589D01*
X016362Y003421D01*
X016491Y003292D01*
X016659Y003222D01*
X016841Y003222D01*
X017009Y003292D01*
X017077Y003360D01*
X020673Y003360D01*
X020741Y003292D01*
X020909Y003222D01*
X021091Y003222D01*
X021259Y003292D01*
X021388Y003421D01*
X021458Y003589D01*
X021458Y003771D01*
X021388Y003939D01*
X021259Y004068D01*
X021158Y004110D01*
X022292Y004110D01*
X022292Y004089D01*
X022362Y003921D01*
X022491Y003792D01*
X022659Y003722D01*
X022841Y003722D01*
X023009Y003792D01*
X023138Y003921D01*
X023208Y004089D01*
X023208Y004271D01*
X023138Y004439D01*
X023022Y004555D01*
X023138Y004671D01*
X023208Y004839D01*
X023208Y005021D01*
X023138Y005189D01*
X023009Y005318D01*
X022908Y005360D01*
X024814Y005360D01*
X024931Y005409D01*
X025245Y005722D01*
X025341Y005722D01*
X025430Y005759D01*
X025430Y002063D01*
X025117Y001750D01*
X023941Y001750D01*
X023964Y001819D01*
X023975Y001893D01*
X023975Y001912D01*
X023518Y001912D01*
X023518Y001948D01*
X023482Y001948D01*
X023482Y001912D01*
X023025Y001912D01*
X023025Y001893D01*
X023036Y001819D01*
X023059Y001750D01*
X022941Y001750D01*
X022964Y001819D01*
X022975Y001893D01*
X022975Y001912D01*
X022518Y001912D01*
X022518Y001948D01*
X022482Y001948D01*
X022482Y002405D01*
X022463Y002405D01*
X022389Y002394D01*
X022318Y002370D01*
X022251Y002336D01*
X022190Y002293D01*
X022137Y002240D01*
X022094Y002179D01*
X022060Y002112D01*
X022036Y002041D01*
X022035Y002034D01*
X022035Y002036D01*
X021954Y002233D01*
X021803Y002384D01*
X021606Y002465D01*
X021394Y002465D01*
X021197Y002384D01*
X021046Y002233D01*
X021000Y002122D01*
X020954Y002233D01*
X020803Y002384D01*
X020606Y002465D01*
X020394Y002465D01*
X020197Y002384D01*
X020046Y002233D01*
X020000Y002122D01*
X019954Y002233D01*
X019803Y002384D01*
X019606Y002465D01*
X019394Y002465D01*
X019197Y002384D01*
X019046Y002233D01*
X019000Y002122D01*
X018954Y002233D01*
X018803Y002384D01*
X018606Y002465D01*
X018394Y002465D01*
X018197Y002384D01*
X018046Y002233D01*
X017965Y002036D01*
X017965Y002034D01*
X017964Y002041D01*
X017940Y002112D01*
X017906Y002179D01*
X017863Y002240D01*
X017810Y002293D01*
X017749Y002336D01*
X017682Y002370D01*
X017611Y002394D01*
X017537Y002405D01*
X017518Y002405D01*
X017518Y001948D01*
X017482Y001948D01*
X017482Y002405D01*
X017463Y002405D01*
X017389Y002394D01*
X017318Y002370D01*
X017251Y002336D01*
X017190Y002293D01*
X017137Y002240D01*
X017094Y002179D01*
X017060Y002112D01*
X017036Y002041D01*
X017035Y002034D01*
X017035Y002036D01*
X016954Y002233D01*
X016803Y002384D01*
X016606Y002465D01*
X016394Y002465D01*
X016197Y002384D01*
X016046Y002233D01*
X016000Y002122D01*
X015954Y002233D01*
X015803Y002384D01*
X015606Y002465D01*
X015394Y002465D01*
X015197Y002384D01*
X015046Y002233D01*
X015000Y002122D01*
X014954Y002233D01*
X014803Y002384D01*
X014606Y002465D01*
X014454Y002465D01*
X014479Y002526D01*
X014479Y003864D01*
X014548Y003932D01*
X014617Y004101D01*
X014617Y004283D01*
X014548Y004451D01*
X014419Y004580D01*
X014251Y004650D01*
X014068Y004650D01*
X013900Y004580D01*
X013864Y004544D01*
X013828Y004580D01*
X013660Y004650D01*
X013478Y004650D01*
X013310Y004580D01*
X013231Y004501D01*
X013167Y004544D01*
X013094Y004574D01*
X013018Y004590D01*
X012978Y004590D01*
X012978Y004192D01*
X012978Y004192D01*
X012978Y004192D01*
X012978Y003794D01*
X013018Y003794D01*
X013094Y003809D01*
X013167Y003839D01*
X013231Y003882D01*
X013249Y003864D01*
X013249Y003131D01*
X012583Y002465D01*
X012394Y002465D01*
X012197Y002384D01*
X012046Y002233D01*
X012000Y002122D01*
X011954Y002233D01*
X011803Y002384D01*
X011606Y002465D01*
X011394Y002465D01*
X011197Y002384D01*
X011046Y002233D01*
X011000Y002122D01*
X010954Y002233D01*
X010803Y002384D01*
X010606Y002465D01*
X010394Y002465D01*
X010197Y002384D01*
X010046Y002233D01*
X010000Y002122D01*
X009954Y002233D01*
X009803Y002384D01*
X009606Y002465D01*
X009394Y002465D01*
X009197Y002384D01*
X009046Y002233D01*
X009000Y002122D01*
X008954Y002233D01*
X008803Y002384D01*
X008606Y002465D01*
X008394Y002465D01*
X008320Y002435D01*
X008320Y002512D01*
X008360Y002608D01*
X008360Y002752D01*
X008305Y002884D01*
X007110Y004079D01*
X007110Y009640D01*
X007110Y009599D02*
X009100Y009599D01*
X009100Y009757D02*
X007391Y009757D01*
X007525Y009916D02*
X009100Y009916D01*
X009100Y010074D02*
X007590Y010074D01*
X007590Y010233D02*
X009100Y010233D01*
X009100Y010391D02*
X007547Y010391D01*
X007444Y010550D02*
X009100Y010550D01*
X009100Y010708D02*
X007322Y010708D01*
X007500Y010867D02*
X009100Y010867D01*
X009089Y011025D02*
X007570Y011025D01*
X007590Y011184D02*
X008931Y011184D01*
X008772Y011342D02*
X007567Y011342D01*
X007493Y011501D02*
X008614Y011501D01*
X008455Y011659D02*
X007305Y011659D01*
X007451Y011818D02*
X008297Y011818D01*
X008138Y011976D02*
X007550Y011976D01*
X007590Y012135D02*
X007980Y012135D01*
X007821Y012293D02*
X007588Y012293D01*
X007522Y012452D02*
X007663Y012452D01*
X007504Y012610D02*
X007384Y012610D01*
X009900Y011184D02*
X009987Y011184D01*
X009900Y011025D02*
X010146Y011025D01*
X010250Y010867D02*
X009900Y010867D01*
X009900Y010708D02*
X010428Y010708D01*
X010306Y010550D02*
X009900Y010550D01*
X009900Y010391D02*
X010203Y010391D01*
X010160Y010233D02*
X009900Y010233D01*
X009900Y010074D02*
X010160Y010074D01*
X010225Y009916D02*
X009900Y009916D01*
X009900Y009757D02*
X010359Y009757D01*
X009900Y009599D02*
X020184Y009599D01*
X020241Y009542D02*
X020409Y009472D01*
X020591Y009472D01*
X020759Y009542D01*
X020888Y009671D01*
X020958Y009839D01*
X020958Y009935D01*
X023133Y012110D01*
X023173Y012110D01*
X023241Y012042D01*
X023409Y011972D01*
X023591Y011972D01*
X023759Y012042D01*
X023888Y012171D01*
X023958Y012339D01*
X023958Y012521D01*
X023888Y012689D01*
X023759Y012818D01*
X023591Y012888D01*
X023409Y012888D01*
X023241Y012818D01*
X023173Y012750D01*
X022936Y012750D01*
X022819Y012701D01*
X020505Y010388D01*
X020409Y010388D01*
X020241Y010318D01*
X020112Y010189D01*
X020042Y010021D01*
X020042Y009839D01*
X020112Y009671D01*
X020241Y009542D01*
X020076Y009757D02*
X019259Y009757D01*
X019428Y009916D02*
X020042Y009916D01*
X020064Y010074D02*
X019587Y010074D01*
X019745Y010233D02*
X020155Y010233D01*
X019904Y010391D02*
X020508Y010391D01*
X020667Y010550D02*
X020062Y010550D01*
X020221Y010708D02*
X020825Y010708D01*
X020984Y010867D02*
X020379Y010867D01*
X020538Y011025D02*
X021142Y011025D01*
X021301Y011184D02*
X020678Y011184D01*
X020740Y011342D02*
X021459Y011342D01*
X021618Y011501D02*
X020740Y011501D01*
X020740Y011659D02*
X021776Y011659D01*
X021935Y011818D02*
X020740Y011818D01*
X020740Y011976D02*
X022093Y011976D01*
X022252Y012135D02*
X020740Y012135D01*
X020740Y012293D02*
X022410Y012293D01*
X022569Y012452D02*
X020740Y012452D01*
X020740Y012610D02*
X022727Y012610D01*
X023000Y012430D02*
X020500Y009930D01*
X020924Y009757D02*
X027735Y009757D01*
X027735Y009599D02*
X020816Y009599D01*
X020958Y009916D02*
X027735Y009916D01*
X027735Y010074D02*
X021097Y010074D01*
X021255Y010233D02*
X027735Y010233D01*
X027735Y010391D02*
X021414Y010391D01*
X021572Y010550D02*
X027735Y010550D01*
X027735Y010708D02*
X021731Y010708D01*
X021889Y010867D02*
X027735Y010867D01*
X027735Y011025D02*
X022048Y011025D01*
X022206Y011184D02*
X027735Y011184D01*
X027735Y011342D02*
X022365Y011342D01*
X022523Y011501D02*
X027735Y011501D01*
X027735Y011659D02*
X022682Y011659D01*
X022840Y011818D02*
X026555Y011818D01*
X026559Y011807D02*
X026627Y011739D01*
X026715Y011703D01*
X027285Y011703D01*
X027373Y011739D01*
X027441Y011807D01*
X027477Y011895D01*
X027477Y012465D01*
X027441Y012553D01*
X027373Y012621D01*
X027285Y012657D01*
X026715Y012657D01*
X026627Y012621D01*
X026559Y012553D01*
X026523Y012465D01*
X026523Y011895D01*
X026559Y011807D01*
X026523Y011976D02*
X023600Y011976D01*
X023400Y011976D02*
X022999Y011976D01*
X023000Y012430D02*
X023500Y012430D01*
X023921Y012610D02*
X026616Y012610D01*
X026523Y012452D02*
X023958Y012452D01*
X023939Y012293D02*
X026523Y012293D01*
X026523Y012135D02*
X023852Y012135D01*
X023809Y012769D02*
X026746Y012769D01*
X026730Y012775D02*
X026905Y012703D01*
X027095Y012703D01*
X027270Y012775D01*
X027405Y012910D01*
X027477Y013085D01*
X027477Y013275D01*
X027405Y013450D01*
X027270Y013585D01*
X027095Y013657D01*
X026905Y013657D01*
X026730Y013585D01*
X026595Y013450D01*
X026523Y013275D01*
X026523Y013085D01*
X026595Y012910D01*
X026730Y012775D01*
X026588Y012927D02*
X020740Y012927D01*
X020740Y012769D02*
X023191Y012769D01*
X020740Y013086D02*
X026523Y013086D01*
X026523Y013244D02*
X020740Y013244D01*
X020740Y013403D02*
X026575Y013403D01*
X026706Y013561D02*
X020740Y013561D01*
X020740Y013720D02*
X026864Y013720D01*
X026905Y013703D02*
X027095Y013703D01*
X027270Y013775D01*
X027405Y013910D01*
X027477Y014085D01*
X027477Y014275D01*
X027405Y014450D01*
X027270Y014585D01*
X027095Y014657D01*
X026905Y014657D01*
X026730Y014585D01*
X026595Y014450D01*
X026523Y014275D01*
X026523Y014085D01*
X026595Y013910D01*
X026730Y013775D01*
X026905Y013703D01*
X027136Y013720D02*
X027735Y013720D01*
X027735Y013878D02*
X027373Y013878D01*
X027457Y014037D02*
X027735Y014037D01*
X027735Y014195D02*
X027477Y014195D01*
X027445Y014354D02*
X027735Y014354D01*
X027735Y014512D02*
X027343Y014512D01*
X027219Y014823D02*
X027160Y014793D01*
X027098Y014773D01*
X027033Y014763D01*
X027000Y014763D01*
X027000Y015180D01*
X026500Y014680D01*
X024000Y014680D01*
X023500Y015180D01*
X022750Y015180D01*
X024018Y015414D02*
X024144Y015109D01*
X024378Y014875D01*
X024683Y014749D01*
X025014Y014749D01*
X025319Y014875D01*
X025553Y015109D01*
X025679Y015414D01*
X025679Y015745D01*
X025553Y016050D01*
X025319Y016284D01*
X025014Y016410D01*
X024683Y016410D01*
X024378Y016284D01*
X024144Y016050D01*
X024018Y015745D01*
X024018Y015414D01*
X024018Y015463D02*
X020740Y015463D01*
X020740Y015305D02*
X024063Y015305D01*
X024129Y015146D02*
X020740Y015146D01*
X020740Y014988D02*
X024266Y014988D01*
X024490Y014829D02*
X020740Y014829D01*
X020740Y014671D02*
X027735Y014671D01*
X027735Y014829D02*
X027227Y014829D01*
X027219Y014823D02*
X027272Y014862D01*
X027318Y014908D01*
X027357Y014961D01*
X027387Y015020D01*
X027407Y015082D01*
X027417Y015147D01*
X027417Y015180D01*
X027417Y015213D01*
X027407Y015278D01*
X027387Y015340D01*
X027357Y015399D01*
X027318Y015452D01*
X027272Y015498D01*
X027219Y015537D01*
X027160Y015567D01*
X027098Y015587D01*
X027033Y015597D01*
X027000Y015597D01*
X027000Y015180D01*
X027000Y015180D01*
X027417Y015180D01*
X027000Y015180D01*
X027000Y015180D01*
X027000Y015180D01*
X026583Y015180D01*
X026583Y015147D01*
X026593Y015082D01*
X026613Y015020D01*
X026643Y014961D01*
X026682Y014908D01*
X026728Y014862D01*
X026781Y014823D01*
X026840Y014793D01*
X026902Y014773D01*
X026967Y014763D01*
X027000Y014763D01*
X027000Y015180D01*
X027000Y015597D01*
X026967Y015597D01*
X026902Y015587D01*
X026840Y015567D01*
X026781Y015537D01*
X026728Y015498D01*
X026682Y015452D01*
X026643Y015399D01*
X026613Y015340D01*
X026593Y015278D01*
X026583Y015213D01*
X026583Y015180D01*
X027000Y015180D01*
X027000Y015180D01*
X027000Y015146D02*
X027000Y015146D01*
X027000Y014988D02*
X027000Y014988D01*
X027000Y014829D02*
X027000Y014829D01*
X026773Y014829D02*
X025207Y014829D01*
X025431Y014988D02*
X026630Y014988D01*
X026583Y015146D02*
X025568Y015146D01*
X025633Y015305D02*
X026601Y015305D01*
X026693Y015463D02*
X025679Y015463D01*
X025679Y015622D02*
X027735Y015622D01*
X027735Y015780D02*
X025664Y015780D01*
X025599Y015939D02*
X027735Y015939D01*
X027735Y016097D02*
X025506Y016097D01*
X025347Y016256D02*
X027735Y016256D01*
X027735Y016414D02*
X024344Y016414D01*
X024350Y016256D02*
X024173Y016256D01*
X024191Y016097D02*
X020740Y016097D01*
X020740Y015939D02*
X024098Y015939D01*
X024032Y015780D02*
X020740Y015780D01*
X020740Y015622D02*
X024018Y015622D01*
X024503Y016573D02*
X027735Y016573D01*
X027733Y016731D02*
X024661Y016731D01*
X025288Y016890D02*
X026292Y016890D01*
X026275Y016906D02*
X026309Y016873D01*
X026350Y016849D01*
X026396Y016837D01*
X026775Y016837D01*
X026775Y017372D01*
X026890Y017372D01*
X026890Y016837D01*
X027270Y016837D01*
X027316Y016849D01*
X027357Y016873D01*
X027390Y016906D01*
X027414Y016947D01*
X027426Y016993D01*
X027426Y017372D01*
X026890Y017372D01*
X026890Y017488D01*
X026775Y017488D01*
X026775Y018023D01*
X026396Y018023D01*
X026350Y018011D01*
X026309Y017987D01*
X026275Y017954D01*
X026252Y017913D01*
X026239Y017867D01*
X026239Y017488D01*
X026775Y017488D01*
X026775Y017372D01*
X026239Y017372D01*
X026239Y016993D01*
X026252Y016947D01*
X026275Y016906D01*
X026239Y017048D02*
X025321Y017048D01*
X025321Y017207D02*
X026239Y017207D01*
X026239Y017365D02*
X025321Y017365D01*
X025321Y017524D02*
X026239Y017524D01*
X026239Y017682D02*
X025321Y017682D01*
X025321Y017841D02*
X026239Y017841D01*
X026329Y017999D02*
X025264Y017999D01*
X025073Y018475D02*
X027380Y018475D01*
X027432Y018316D02*
X021790Y018316D01*
X021790Y018158D02*
X027483Y018158D01*
X027535Y017999D02*
X027336Y017999D01*
X027316Y018011D02*
X027357Y017987D01*
X027390Y017954D01*
X027414Y017913D01*
X027426Y017867D01*
X027426Y017488D01*
X026890Y017488D01*
X026890Y018023D01*
X027270Y018023D01*
X027316Y018011D01*
X027426Y017841D02*
X027586Y017841D01*
X027621Y017682D02*
X027426Y017682D01*
X027426Y017524D02*
X027646Y017524D01*
X027671Y017365D02*
X027426Y017365D01*
X027426Y017207D02*
X027696Y017207D01*
X027721Y017048D02*
X027426Y017048D01*
X027374Y016890D02*
X027727Y016890D01*
X026890Y016890D02*
X026775Y016890D01*
X026775Y017048D02*
X026890Y017048D01*
X026890Y017207D02*
X026775Y017207D01*
X026775Y017365D02*
X026890Y017365D01*
X026890Y017524D02*
X026775Y017524D01*
X026775Y017682D02*
X026890Y017682D01*
X026890Y017841D02*
X026775Y017841D01*
X026775Y017999D02*
X026890Y017999D01*
X027303Y018633D02*
X025376Y018633D01*
X025319Y018576D02*
X025553Y018810D01*
X025679Y019115D01*
X025679Y019446D01*
X025553Y019751D01*
X025319Y019985D01*
X025014Y020111D01*
X024683Y020111D01*
X024378Y019985D01*
X024144Y019751D01*
X024018Y019446D01*
X024018Y019115D01*
X024144Y018810D01*
X024378Y018576D01*
X024683Y018450D01*
X025014Y018450D01*
X025319Y018576D01*
X025534Y018792D02*
X027222Y018792D01*
X027141Y018950D02*
X025611Y018950D01*
X025676Y019109D02*
X027060Y019109D01*
X026955Y019267D02*
X025679Y019267D01*
X025679Y019426D02*
X026840Y019426D01*
X026725Y019584D02*
X025622Y019584D01*
X025556Y019743D02*
X026610Y019743D01*
X026455Y019901D02*
X025402Y019901D01*
X025138Y020060D02*
X026296Y020060D01*
X026138Y020218D02*
X023960Y020218D01*
X024026Y020060D02*
X024559Y020060D01*
X024294Y019901D02*
X024035Y019901D01*
X024002Y019743D02*
X024141Y019743D01*
X024075Y019584D02*
X023911Y019584D01*
X024018Y019426D02*
X023681Y019426D01*
X024018Y019267D02*
X011860Y019267D01*
X011860Y019109D02*
X024021Y019109D01*
X024086Y018950D02*
X011860Y018950D01*
X011860Y018792D02*
X024163Y018792D01*
X024321Y018633D02*
X021611Y018633D01*
X021733Y018475D02*
X024624Y018475D01*
X024070Y017999D02*
X021790Y017999D01*
X021790Y017841D02*
X024014Y017841D01*
X024014Y017682D02*
X021790Y017682D01*
X021790Y017524D02*
X024014Y017524D01*
X023909Y017365D02*
X021725Y017365D01*
X021590Y017207D02*
X023751Y017207D01*
X020889Y018633D02*
X020611Y018633D01*
X020733Y018475D02*
X020767Y018475D01*
X019889Y018633D02*
X019512Y018633D01*
X019664Y018475D02*
X019767Y018475D01*
X019270Y018475D02*
X019230Y018475D01*
X019230Y018633D02*
X019270Y018633D01*
X018988Y018633D02*
X018611Y018633D01*
X018733Y018475D02*
X018836Y018475D01*
X019230Y018316D02*
X019270Y018316D01*
X019270Y018158D02*
X019230Y018158D01*
X019230Y017999D02*
X019270Y017999D01*
X019270Y017841D02*
X019230Y017841D01*
X019230Y017682D02*
X019270Y017682D01*
X019270Y017524D02*
X019230Y017524D01*
X019230Y017365D02*
X019270Y017365D01*
X019270Y017207D02*
X019230Y017207D01*
X019024Y017207D02*
X018590Y017207D01*
X018725Y017365D02*
X018849Y017365D01*
X019476Y017207D02*
X019760Y017207D01*
X019760Y017365D02*
X019651Y017365D01*
X019760Y017048D02*
X016762Y017048D01*
X016780Y017200D02*
X016780Y017218D01*
X016768Y017292D01*
X016745Y017364D01*
X016711Y017432D01*
X016666Y017493D01*
X016613Y017546D01*
X016552Y017591D01*
X016484Y017625D01*
X016412Y017648D01*
X016338Y017660D01*
X016020Y017660D01*
X016020Y017200D01*
X016780Y017200D01*
X016780Y017207D02*
X017910Y017207D01*
X017775Y017365D02*
X016744Y017365D01*
X016635Y017524D02*
X017710Y017524D01*
X017710Y017682D02*
X012360Y017682D01*
X012360Y017524D02*
X015365Y017524D01*
X015256Y017365D02*
X012360Y017365D01*
X012360Y017207D02*
X015220Y017207D01*
X015238Y017048D02*
X012360Y017048D01*
X012360Y016890D02*
X015318Y016890D01*
X015528Y016731D02*
X012360Y016731D01*
X012360Y016573D02*
X015329Y016573D01*
X015212Y016414D02*
X012360Y016414D01*
X012360Y016256D02*
X015160Y016256D01*
X015160Y016097D02*
X012360Y016097D01*
X012360Y015939D02*
X015216Y015939D01*
X015336Y015780D02*
X012360Y015780D01*
X012360Y015622D02*
X015378Y015622D01*
X015233Y015463D02*
X012360Y015463D01*
X012360Y015305D02*
X015167Y015305D01*
X015160Y015146D02*
X012360Y015146D01*
X012360Y014988D02*
X015195Y014988D01*
X015287Y014829D02*
X012360Y014829D01*
X012360Y014671D02*
X015473Y014671D01*
X015268Y014512D02*
X012360Y014512D01*
X012360Y014354D02*
X015187Y014354D01*
X015160Y014195D02*
X012360Y014195D01*
X012360Y014037D02*
X015175Y014037D01*
X015241Y013878D02*
X012360Y013878D01*
X012360Y013720D02*
X015401Y013720D01*
X015317Y013561D02*
X012360Y013561D01*
X012360Y013403D02*
X015208Y013403D01*
X015160Y013244D02*
X012360Y013244D01*
X012360Y013086D02*
X015160Y013086D01*
X015220Y012927D02*
X012360Y012927D01*
X012360Y012769D02*
X015348Y012769D01*
X015366Y012610D02*
X012360Y012610D01*
X012305Y012476D02*
X011805Y011976D01*
X011701Y011818D02*
X015299Y011818D01*
X015547Y011659D02*
X011555Y011659D01*
X011743Y011501D02*
X015342Y011501D01*
X015248Y011342D02*
X011817Y011342D01*
X011840Y011184D02*
X015980Y011184D01*
X016020Y011184D02*
X019311Y011184D01*
X019469Y011342D02*
X016752Y011342D01*
X016658Y011501D02*
X019628Y011501D01*
X019760Y011659D02*
X016453Y011659D01*
X016701Y011818D02*
X019760Y011818D01*
X019760Y011976D02*
X016800Y011976D01*
X016840Y012135D02*
X019760Y012135D01*
X019760Y012293D02*
X016838Y012293D01*
X016772Y012452D02*
X019760Y012452D01*
X019760Y012610D02*
X016634Y012610D01*
X016652Y012769D02*
X019760Y012769D01*
X019760Y012927D02*
X016780Y012927D01*
X016840Y013086D02*
X019760Y013086D01*
X019760Y013244D02*
X016840Y013244D01*
X016792Y013403D02*
X019760Y013403D01*
X019760Y013561D02*
X016683Y013561D01*
X016599Y013720D02*
X019760Y013720D01*
X019760Y013878D02*
X016759Y013878D01*
X016825Y014037D02*
X019760Y014037D01*
X019760Y014195D02*
X016840Y014195D01*
X016813Y014354D02*
X019760Y014354D01*
X019760Y014512D02*
X016732Y014512D01*
X016527Y014671D02*
X019760Y014671D01*
X019760Y014829D02*
X016713Y014829D01*
X016805Y014988D02*
X019760Y014988D01*
X019760Y015146D02*
X016840Y015146D01*
X016833Y015305D02*
X019760Y015305D01*
X019760Y015463D02*
X016767Y015463D01*
X016622Y015622D02*
X019760Y015622D01*
X019760Y015780D02*
X016664Y015780D01*
X016784Y015939D02*
X019760Y015939D01*
X019760Y016097D02*
X016840Y016097D01*
X016840Y016256D02*
X019760Y016256D01*
X019760Y016414D02*
X016788Y016414D01*
X016671Y016573D02*
X019760Y016573D01*
X019760Y016731D02*
X016472Y016731D01*
X016682Y016890D02*
X019760Y016890D01*
X017710Y017841D02*
X012323Y017841D01*
X012190Y017999D02*
X017710Y017999D01*
X017710Y018158D02*
X012032Y018158D01*
X011873Y018316D02*
X017710Y018316D01*
X017767Y018475D02*
X011860Y018475D01*
X011860Y018633D02*
X017889Y018633D01*
X017681Y019426D02*
X018319Y019426D01*
X018089Y019584D02*
X017911Y019584D01*
X017319Y019426D02*
X016681Y019426D01*
X016911Y019584D02*
X017089Y019584D01*
X016319Y019426D02*
X015681Y019426D01*
X015911Y019584D02*
X016089Y019584D01*
X015319Y019426D02*
X014681Y019426D01*
X014911Y019584D02*
X015089Y019584D01*
X014319Y019426D02*
X013681Y019426D01*
X013911Y019584D02*
X014089Y019584D01*
X013319Y019426D02*
X012681Y019426D01*
X012911Y019584D02*
X013089Y019584D01*
X012319Y019426D02*
X011860Y019426D01*
X011911Y019584D02*
X012089Y019584D01*
X015980Y017524D02*
X016020Y017524D01*
X016020Y017365D02*
X015980Y017365D01*
X015980Y017207D02*
X016020Y017207D01*
X018681Y019426D02*
X019319Y019426D01*
X019089Y019584D02*
X018911Y019584D01*
X019681Y019426D02*
X020319Y019426D01*
X020089Y019584D02*
X019911Y019584D01*
X020681Y019426D02*
X021319Y019426D01*
X021089Y019584D02*
X020911Y019584D01*
X021681Y019426D02*
X022319Y019426D01*
X022089Y019584D02*
X021911Y019584D01*
X022681Y019426D02*
X023319Y019426D01*
X023089Y019584D02*
X022911Y019584D01*
X023810Y020377D02*
X025943Y020377D01*
X025725Y020535D02*
X023862Y020535D01*
X023981Y020694D02*
X025507Y020694D01*
X025210Y020852D02*
X024035Y020852D01*
X024035Y021011D02*
X024898Y021011D01*
X024460Y021169D02*
X023980Y021169D01*
X027000Y015463D02*
X027000Y015463D01*
X027000Y015305D02*
X027000Y015305D01*
X027307Y015463D02*
X027735Y015463D01*
X027735Y015305D02*
X027399Y015305D01*
X027417Y015146D02*
X027735Y015146D01*
X027735Y014988D02*
X027370Y014988D01*
X026657Y014512D02*
X020740Y014512D01*
X020740Y014354D02*
X026555Y014354D01*
X026523Y014195D02*
X020740Y014195D01*
X020740Y014037D02*
X026543Y014037D01*
X026627Y013878D02*
X020740Y013878D01*
X019152Y011025D02*
X016754Y011025D01*
X016665Y010867D02*
X018994Y010867D01*
X018835Y010708D02*
X016436Y010708D01*
X015564Y010708D02*
X011572Y010708D01*
X011694Y010550D02*
X015306Y010550D01*
X015203Y010391D02*
X011797Y010391D01*
X011840Y010233D02*
X015160Y010233D01*
X015160Y010074D02*
X011840Y010074D01*
X011775Y009916D02*
X015225Y009916D01*
X015359Y009757D02*
X011641Y009757D01*
X011750Y010867D02*
X015335Y010867D01*
X015246Y011025D02*
X011820Y011025D01*
X009900Y009440D02*
X027735Y009440D01*
X027735Y009282D02*
X026546Y009282D01*
X026666Y009123D02*
X027735Y009123D01*
X027735Y008965D02*
X026708Y008965D01*
X026694Y008806D02*
X027735Y008806D01*
X027735Y008648D02*
X026615Y008648D01*
X026382Y008489D02*
X027735Y008489D01*
X027735Y008331D02*
X026103Y008331D01*
X026070Y008172D02*
X027735Y008172D01*
X027735Y008014D02*
X026070Y008014D01*
X026070Y007855D02*
X027735Y007855D01*
X027735Y007697D02*
X026070Y007697D01*
X026070Y007538D02*
X027735Y007538D01*
X027735Y007380D02*
X026070Y007380D01*
X026070Y007221D02*
X027735Y007221D01*
X027735Y007063D02*
X026070Y007063D01*
X026070Y006904D02*
X027735Y006904D01*
X027735Y006746D02*
X026582Y006746D01*
X026680Y006587D02*
X027735Y006587D01*
X027735Y006429D02*
X026708Y006429D01*
X026679Y006270D02*
X027735Y006270D01*
X027735Y006112D02*
X026579Y006112D01*
X026570Y005953D02*
X027735Y005953D01*
X027735Y005795D02*
X026570Y005795D01*
X026570Y005636D02*
X027735Y005636D01*
X027735Y005478D02*
X026570Y005478D01*
X026570Y005319D02*
X027735Y005319D01*
X027734Y005161D02*
X026570Y005161D01*
X026570Y005002D02*
X027728Y005002D01*
X027722Y004844D02*
X026570Y004844D01*
X026570Y004685D02*
X027701Y004685D01*
X027676Y004527D02*
X026570Y004527D01*
X026570Y004368D02*
X027651Y004368D01*
X027626Y004210D02*
X026570Y004210D01*
X026570Y004051D02*
X027596Y004051D01*
X027545Y003893D02*
X026570Y003893D01*
X026570Y003734D02*
X027493Y003734D01*
X027442Y003576D02*
X026570Y003576D01*
X026570Y003417D02*
X027390Y003417D01*
X027319Y003259D02*
X026570Y003259D01*
X026570Y003100D02*
X027238Y003100D01*
X027157Y002942D02*
X026570Y002942D01*
X026570Y002783D02*
X027077Y002783D01*
X026978Y002625D02*
X026570Y002625D01*
X026570Y002466D02*
X026863Y002466D01*
X026748Y002308D02*
X026570Y002308D01*
X026570Y002149D02*
X026633Y002149D01*
X026250Y001930D02*
X026250Y006430D01*
X025430Y006746D02*
X025208Y006746D01*
X025153Y006904D02*
X025430Y006904D01*
X025430Y007063D02*
X025015Y007063D01*
X025430Y007221D02*
X023940Y007221D01*
X023950Y007225D02*
X023975Y007236D01*
X023997Y007251D01*
X024019Y007267D01*
X024038Y007286D01*
X024054Y007308D01*
X024069Y007330D01*
X024080Y007355D01*
X024089Y007380D01*
X024095Y007406D01*
X024098Y007433D01*
X024098Y008627D01*
X024095Y008654D01*
X024089Y008680D01*
X024080Y008705D01*
X024069Y008730D01*
X024054Y008752D01*
X024038Y008774D01*
X024019Y008793D01*
X023997Y008809D01*
X023975Y008824D01*
X023950Y008835D01*
X023925Y008844D01*
X023899Y008850D01*
X023872Y008853D01*
X019671Y008853D01*
X019644Y008850D01*
X019618Y008844D01*
X019592Y008835D01*
X019568Y008824D01*
X019545Y008809D01*
X019524Y008793D01*
X019505Y008774D01*
X019488Y008752D01*
X019474Y008730D01*
X019462Y008705D01*
X019453Y008680D01*
X019447Y008654D01*
X019444Y008627D01*
X019444Y007433D01*
X019447Y007406D01*
X019453Y007380D01*
X019462Y007355D01*
X019474Y007330D01*
X019488Y007308D01*
X019505Y007286D01*
X019524Y007267D01*
X019545Y007251D01*
X019568Y007236D01*
X019592Y007225D01*
X019618Y007216D01*
X019644Y007210D01*
X019671Y007207D01*
X023872Y007207D01*
X023899Y007210D01*
X023925Y007216D01*
X023950Y007225D01*
X024089Y007380D02*
X025430Y007380D01*
X025430Y007538D02*
X024098Y007538D01*
X024098Y007697D02*
X025430Y007697D01*
X025430Y007855D02*
X024098Y007855D01*
X024098Y008014D02*
X025430Y008014D01*
X025430Y008172D02*
X024098Y008172D01*
X024098Y008331D02*
X025430Y008331D01*
X025430Y008489D02*
X024098Y008489D01*
X024096Y008648D02*
X025515Y008648D01*
X025673Y008806D02*
X024002Y008806D01*
X024750Y008930D02*
X018500Y008930D01*
X015750Y006180D01*
X016400Y005478D02*
X009038Y005478D01*
X009038Y005319D02*
X016312Y005319D01*
X016292Y005161D02*
X009038Y005161D01*
X009038Y005002D02*
X016328Y005002D01*
X016439Y004844D02*
X010636Y004844D01*
X010804Y004685D02*
X016360Y004685D01*
X016294Y004527D02*
X014472Y004527D01*
X014582Y004368D02*
X016292Y004368D01*
X016346Y004210D02*
X014617Y004210D01*
X014597Y004051D02*
X016474Y004051D01*
X016343Y003893D02*
X014508Y003893D01*
X014479Y003734D02*
X016292Y003734D01*
X016298Y003576D02*
X014479Y003576D01*
X014479Y003417D02*
X016366Y003417D01*
X016571Y003259D02*
X014479Y003259D01*
X014479Y003100D02*
X025430Y003100D01*
X025430Y002942D02*
X014479Y002942D01*
X014479Y002783D02*
X025430Y002783D01*
X025430Y002625D02*
X014479Y002625D01*
X014455Y002466D02*
X025430Y002466D01*
X025430Y002308D02*
X023789Y002308D01*
X023810Y002293D02*
X023749Y002336D01*
X023682Y002370D01*
X023611Y002394D01*
X023537Y002405D01*
X023518Y002405D01*
X023518Y001948D01*
X023975Y001948D01*
X023975Y001967D01*
X023964Y002041D01*
X023940Y002112D01*
X023906Y002179D01*
X023863Y002240D01*
X023810Y002293D01*
X023922Y002149D02*
X025430Y002149D01*
X025358Y001991D02*
X023972Y001991D01*
X023966Y001832D02*
X025199Y001832D01*
X025250Y001430D02*
X025750Y001930D01*
X025750Y008430D01*
X026250Y008930D01*
X025954Y009282D02*
X009900Y009282D01*
X009900Y009123D02*
X025834Y009123D01*
X025792Y008965D02*
X009900Y008965D01*
X009882Y008806D02*
X019541Y008806D01*
X019447Y008648D02*
X009783Y008648D01*
X009625Y008489D02*
X019444Y008489D01*
X019444Y008331D02*
X009466Y008331D01*
X009308Y008172D02*
X012705Y008172D01*
X012762Y008229D02*
X012610Y008077D01*
X012528Y007878D01*
X012528Y007663D01*
X012610Y007464D01*
X012762Y007312D01*
X012961Y007229D01*
X013177Y007229D01*
X013375Y007312D01*
X013528Y007464D01*
X013610Y007663D01*
X013610Y007878D01*
X013528Y008077D01*
X013375Y008229D01*
X013177Y008312D01*
X012961Y008312D01*
X012762Y008229D01*
X012584Y008014D02*
X009149Y008014D01*
X009228Y007840D02*
X009228Y007442D01*
X009228Y007442D01*
X009228Y007442D01*
X009228Y007044D01*
X009268Y007044D01*
X009344Y007059D01*
X009417Y007089D01*
X009481Y007132D01*
X009560Y007054D01*
X009728Y006984D01*
X009910Y006984D01*
X010078Y007054D01*
X010114Y007090D01*
X010150Y007054D01*
X010318Y006984D01*
X010501Y006984D01*
X010669Y007054D01*
X010798Y007182D01*
X010867Y007351D01*
X010867Y007533D01*
X010798Y007701D01*
X010669Y007830D01*
X010501Y007900D01*
X010318Y007900D01*
X010150Y007830D01*
X010114Y007794D01*
X010078Y007830D01*
X009910Y007900D01*
X009728Y007900D01*
X009560Y007830D01*
X009481Y007751D01*
X009417Y007794D01*
X009344Y007824D01*
X009268Y007840D01*
X009228Y007840D01*
X009228Y007697D02*
X009228Y007697D01*
X009228Y007538D02*
X009228Y007538D01*
X009228Y007380D02*
X009228Y007380D01*
X009228Y007221D02*
X009228Y007221D01*
X009228Y007063D02*
X009228Y007063D01*
X009105Y007063D02*
X009038Y007063D01*
X009038Y006904D02*
X012618Y006904D01*
X012610Y006896D02*
X012528Y006697D01*
X012528Y006482D01*
X012610Y006283D01*
X012762Y006131D01*
X012961Y006048D01*
X013177Y006048D01*
X013375Y006131D01*
X013528Y006283D01*
X013610Y006482D01*
X013610Y006697D01*
X013528Y006896D01*
X013375Y007048D01*
X013177Y007131D01*
X012961Y007131D01*
X012762Y007048D01*
X012610Y006896D01*
X012548Y006746D02*
X009038Y006746D01*
X009038Y006587D02*
X012528Y006587D01*
X012550Y006429D02*
X009038Y006429D01*
X009228Y006340D02*
X009228Y005942D01*
X009228Y005942D01*
X009228Y005942D01*
X009228Y005544D01*
X009268Y005544D01*
X009344Y005559D01*
X009417Y005589D01*
X009481Y005632D01*
X009560Y005554D01*
X009728Y005484D01*
X009910Y005484D01*
X010078Y005554D01*
X010114Y005590D01*
X010150Y005554D01*
X010318Y005484D01*
X010501Y005484D01*
X010669Y005554D01*
X010798Y005682D01*
X010867Y005851D01*
X010867Y006033D01*
X010798Y006201D01*
X010669Y006330D01*
X010501Y006400D01*
X010318Y006400D01*
X010150Y006330D01*
X010114Y006294D01*
X010078Y006330D01*
X009910Y006400D01*
X009728Y006400D01*
X009560Y006330D01*
X009481Y006251D01*
X009417Y006294D01*
X009344Y006324D01*
X009268Y006340D01*
X009228Y006340D01*
X009228Y006270D02*
X009228Y006270D01*
X009228Y006112D02*
X009228Y006112D01*
X009228Y005953D02*
X009228Y005953D01*
X009228Y005795D02*
X009228Y005795D01*
X009228Y005636D02*
X009228Y005636D01*
X009453Y006270D02*
X009500Y006270D01*
X009551Y007063D02*
X009352Y007063D01*
X010087Y007063D02*
X010141Y007063D01*
X010678Y007063D02*
X012797Y007063D01*
X013341Y007063D02*
X013978Y007063D01*
X013943Y007048D02*
X013791Y006896D01*
X013709Y006697D01*
X013709Y006482D01*
X013791Y006283D01*
X013943Y006131D01*
X014142Y006048D01*
X014358Y006048D01*
X014557Y006131D01*
X014709Y006283D01*
X014791Y006482D01*
X014791Y006697D01*
X014709Y006896D01*
X014557Y007048D01*
X014358Y007131D01*
X014142Y007131D01*
X013943Y007048D01*
X013901Y007229D02*
X014599Y007229D01*
X014687Y007266D01*
X014755Y007333D01*
X014791Y007422D01*
X014791Y008119D01*
X014755Y008208D01*
X014687Y008275D01*
X014599Y008312D01*
X013901Y008312D01*
X013813Y008275D01*
X013745Y008208D01*
X013709Y008119D01*
X013709Y007422D01*
X013745Y007333D01*
X013813Y007266D01*
X013901Y007229D01*
X013726Y007380D02*
X013443Y007380D01*
X013558Y007538D02*
X013709Y007538D01*
X013709Y007697D02*
X013610Y007697D01*
X013610Y007855D02*
X013709Y007855D01*
X013709Y008014D02*
X013554Y008014D01*
X013433Y008172D02*
X013731Y008172D01*
X012528Y007855D02*
X010608Y007855D01*
X010799Y007697D02*
X012528Y007697D01*
X012579Y007538D02*
X010865Y007538D01*
X010867Y007380D02*
X012695Y007380D01*
X013520Y006904D02*
X013799Y006904D01*
X013729Y006746D02*
X013590Y006746D01*
X013610Y006587D02*
X013709Y006587D01*
X013731Y006429D02*
X013588Y006429D01*
X013515Y006270D02*
X013804Y006270D01*
X013990Y006112D02*
X013329Y006112D01*
X012809Y006112D02*
X010835Y006112D01*
X010867Y005953D02*
X017099Y005953D01*
X017042Y006112D02*
X014510Y006112D01*
X014696Y006270D02*
X017042Y006270D01*
X017107Y006429D02*
X014769Y006429D01*
X014791Y006587D02*
X017286Y006587D01*
X017714Y006587D02*
X024204Y006587D01*
X024292Y006746D02*
X014771Y006746D01*
X014701Y006904D02*
X024347Y006904D01*
X024485Y007063D02*
X014522Y007063D01*
X014774Y007380D02*
X019453Y007380D01*
X019444Y007538D02*
X014791Y007538D01*
X014791Y007697D02*
X019444Y007697D01*
X019444Y007855D02*
X014791Y007855D01*
X014791Y008014D02*
X019444Y008014D01*
X019444Y008172D02*
X014769Y008172D01*
X012623Y006270D02*
X010729Y006270D01*
X010844Y005795D02*
X017238Y005795D01*
X016845Y005636D02*
X017792Y005636D01*
X017802Y005795D02*
X017762Y005795D01*
X017500Y006180D02*
X024250Y006180D01*
X024750Y006680D01*
X025250Y006180D02*
X024750Y005680D01*
X018250Y005680D01*
X016750Y005180D02*
X022500Y005180D01*
X022750Y004930D01*
X023150Y005161D02*
X025430Y005161D01*
X025430Y005319D02*
X023007Y005319D01*
X023208Y005002D02*
X025430Y005002D01*
X025430Y004844D02*
X023208Y004844D01*
X023144Y004685D02*
X025430Y004685D01*
X025430Y004527D02*
X023051Y004527D01*
X023168Y004368D02*
X025430Y004368D01*
X025430Y004210D02*
X023208Y004210D01*
X023192Y004051D02*
X025430Y004051D01*
X025430Y003893D02*
X023110Y003893D01*
X022870Y003734D02*
X025430Y003734D01*
X025430Y003576D02*
X021452Y003576D01*
X021458Y003734D02*
X022630Y003734D01*
X022390Y003893D02*
X021407Y003893D01*
X021276Y004051D02*
X022308Y004051D01*
X022500Y004430D02*
X022750Y004180D01*
X022500Y004430D02*
X016750Y004430D01*
X016750Y003680D02*
X021000Y003680D01*
X021384Y003417D02*
X025430Y003417D01*
X025430Y003259D02*
X021179Y003259D01*
X020821Y003259D02*
X016929Y003259D01*
X016879Y002308D02*
X017211Y002308D01*
X017078Y002149D02*
X016989Y002149D01*
X017482Y002149D02*
X017518Y002149D01*
X017518Y001991D02*
X017482Y001991D01*
X017482Y002308D02*
X017518Y002308D01*
X017789Y002308D02*
X018121Y002308D01*
X018011Y002149D02*
X017922Y002149D01*
X018879Y002308D02*
X019121Y002308D01*
X019011Y002149D02*
X018989Y002149D01*
X019879Y002308D02*
X020121Y002308D01*
X020011Y002149D02*
X019989Y002149D01*
X020879Y002308D02*
X021121Y002308D01*
X021011Y002149D02*
X020989Y002149D01*
X021500Y001930D02*
X022000Y001430D01*
X025250Y001430D01*
X025250Y000930D02*
X026250Y001930D01*
X025250Y000930D02*
X024500Y000930D01*
X024079Y001110D02*
X024042Y001021D01*
X024042Y000839D01*
X024112Y000671D01*
X024182Y000601D01*
X024105Y000576D01*
X023737Y000518D01*
X023749Y000524D01*
X023810Y000567D01*
X023863Y000620D01*
X023906Y000681D01*
X023940Y000748D01*
X023964Y000819D01*
X023975Y000893D01*
X023975Y000912D01*
X023518Y000912D01*
X023518Y000948D01*
X023975Y000948D01*
X023975Y000967D01*
X023964Y001041D01*
X023941Y001110D01*
X024079Y001110D01*
X024050Y001040D02*
X023964Y001040D01*
X023973Y000881D02*
X024042Y000881D01*
X024090Y000723D02*
X023928Y000723D01*
X024031Y000564D02*
X023805Y000564D01*
X023402Y000464D02*
X023372Y000460D01*
X023000Y000445D01*
X021728Y000445D01*
X021803Y000476D01*
X021954Y000627D01*
X022035Y000824D01*
X022035Y000826D01*
X022036Y000819D01*
X022060Y000748D01*
X022094Y000681D01*
X022137Y000620D01*
X022190Y000567D01*
X022251Y000524D01*
X022318Y000490D01*
X022389Y000466D01*
X022463Y000455D01*
X022482Y000455D01*
X022482Y000912D01*
X022518Y000912D01*
X022518Y000948D01*
X022975Y000948D01*
X022975Y000967D01*
X022964Y001041D01*
X022941Y001110D01*
X023059Y001110D01*
X023036Y001041D01*
X023025Y000967D01*
X023025Y000948D01*
X023482Y000948D01*
X023482Y000912D01*
X023025Y000912D01*
X023025Y000893D01*
X023036Y000819D01*
X023060Y000748D01*
X023094Y000681D01*
X023137Y000620D01*
X023190Y000567D01*
X023251Y000524D01*
X023318Y000490D01*
X023389Y000466D01*
X023402Y000464D01*
X023195Y000564D02*
X022805Y000564D01*
X022810Y000567D02*
X022863Y000620D01*
X022906Y000681D01*
X022940Y000748D01*
X022964Y000819D01*
X022975Y000893D01*
X022975Y000912D01*
X022518Y000912D01*
X022518Y000455D01*
X022537Y000455D01*
X022611Y000466D01*
X022682Y000490D01*
X022749Y000524D01*
X022810Y000567D01*
X022928Y000723D02*
X023072Y000723D01*
X023027Y000881D02*
X022973Y000881D01*
X022964Y001040D02*
X023036Y001040D01*
X022518Y000881D02*
X022482Y000881D01*
X022482Y000723D02*
X022518Y000723D01*
X022518Y000564D02*
X022482Y000564D01*
X022195Y000564D02*
X021891Y000564D01*
X021993Y000723D02*
X022072Y000723D01*
X022518Y001948D02*
X022975Y001948D01*
X022975Y001967D01*
X022964Y002041D01*
X022940Y002112D01*
X022906Y002179D01*
X022863Y002240D01*
X022810Y002293D01*
X022749Y002336D01*
X022682Y002370D01*
X022611Y002394D01*
X022537Y002405D01*
X022518Y002405D01*
X022518Y001948D01*
X022518Y001991D02*
X022482Y001991D01*
X022482Y002149D02*
X022518Y002149D01*
X022518Y002308D02*
X022482Y002308D01*
X022211Y002308D02*
X021879Y002308D01*
X021989Y002149D02*
X022078Y002149D01*
X022789Y002308D02*
X023211Y002308D01*
X023190Y002293D02*
X023137Y002240D01*
X023094Y002179D01*
X023060Y002112D01*
X023036Y002041D01*
X023025Y001967D01*
X023025Y001948D01*
X023482Y001948D01*
X023482Y002405D01*
X023463Y002405D01*
X023389Y002394D01*
X023318Y002370D01*
X023251Y002336D01*
X023190Y002293D01*
X023078Y002149D02*
X022922Y002149D01*
X022972Y001991D02*
X023028Y001991D01*
X023034Y001832D02*
X022966Y001832D01*
X023482Y001991D02*
X023518Y001991D01*
X023518Y002149D02*
X023482Y002149D01*
X023482Y002308D02*
X023518Y002308D01*
X025000Y005478D02*
X025430Y005478D01*
X025430Y005636D02*
X025159Y005636D01*
X019602Y007221D02*
X010814Y007221D01*
X010211Y007855D02*
X010018Y007855D01*
X009620Y007855D02*
X009025Y007855D01*
X008335Y008331D02*
X007110Y008331D01*
X007110Y008489D02*
X008493Y008489D01*
X008652Y008648D02*
X007110Y008648D01*
X007110Y008806D02*
X008810Y008806D01*
X008969Y008965D02*
X007110Y008965D01*
X007110Y009123D02*
X009100Y009123D01*
X009100Y009282D02*
X007110Y009282D01*
X007110Y009440D02*
X009100Y009440D01*
X008241Y008172D02*
X007110Y008172D01*
X007110Y008014D02*
X008225Y008014D01*
X008225Y007855D02*
X007110Y007855D01*
X007110Y007697D02*
X008225Y007697D01*
X008182Y007538D02*
X007110Y007538D01*
X007110Y007380D02*
X008180Y007380D01*
X008234Y007221D02*
X007110Y007221D01*
X007110Y007063D02*
X008238Y007063D01*
X008238Y006904D02*
X007110Y006904D01*
X007110Y006746D02*
X008238Y006746D01*
X008238Y006587D02*
X007110Y006587D01*
X007110Y006429D02*
X008238Y006429D01*
X008238Y006270D02*
X007110Y006270D01*
X007110Y006112D02*
X008213Y006112D01*
X008180Y005953D02*
X007110Y005953D01*
X007110Y005795D02*
X008203Y005795D01*
X008238Y005636D02*
X007110Y005636D01*
X007110Y005478D02*
X008238Y005478D01*
X008238Y005319D02*
X007110Y005319D01*
X007110Y005161D02*
X008238Y005161D01*
X008238Y005002D02*
X007110Y005002D01*
X007110Y004844D02*
X008238Y004844D01*
X008238Y004685D02*
X007110Y004685D01*
X007110Y004527D02*
X008180Y004527D01*
X008180Y004368D02*
X007110Y004368D01*
X007110Y004210D02*
X008238Y004210D01*
X008238Y004051D02*
X007138Y004051D01*
X007297Y003893D02*
X008277Y003893D01*
X008405Y003734D02*
X007455Y003734D01*
X007614Y003576D02*
X008563Y003576D01*
X008722Y003417D02*
X007772Y003417D01*
X007931Y003259D02*
X013249Y003259D01*
X013249Y003417D02*
X012303Y003417D01*
X012461Y003576D02*
X013249Y003576D01*
X013249Y003734D02*
X012620Y003734D01*
X012978Y003893D02*
X012978Y003893D01*
X012978Y004051D02*
X012978Y004051D01*
X012978Y004210D02*
X012978Y004210D01*
X012978Y004368D02*
X012978Y004368D01*
X012978Y004527D02*
X012978Y004527D01*
X012763Y004527D02*
X012701Y004527D01*
X013193Y004527D02*
X013256Y004527D01*
X013569Y004192D02*
X013569Y002999D01*
X012500Y001930D01*
X012121Y002308D02*
X011879Y002308D01*
X011989Y002149D02*
X012011Y002149D01*
X012583Y002466D02*
X008320Y002466D01*
X008360Y002625D02*
X012742Y002625D01*
X012900Y002783D02*
X008347Y002783D01*
X008248Y002942D02*
X013059Y002942D01*
X013217Y003100D02*
X008089Y003100D01*
X008000Y002680D02*
X008000Y001430D01*
X008989Y002149D02*
X009011Y002149D01*
X009121Y002308D02*
X008879Y002308D01*
X009879Y002308D02*
X010121Y002308D01*
X010011Y002149D02*
X009989Y002149D01*
X010879Y002308D02*
X011121Y002308D01*
X011011Y002149D02*
X010989Y002149D01*
X013500Y001930D02*
X014159Y002589D01*
X014159Y004192D01*
X012075Y004527D02*
X010867Y004527D01*
X010867Y004368D02*
X011965Y004368D01*
X011930Y004210D02*
X010809Y004210D01*
X010183Y004844D02*
X010045Y004844D01*
X009592Y004844D02*
X009038Y004844D01*
X009228Y004840D02*
X009228Y004442D01*
X009228Y004442D01*
X009228Y004840D01*
X009228Y004685D02*
X009228Y004685D01*
X009228Y004527D02*
X009228Y004527D01*
X010751Y005636D02*
X016655Y005636D01*
X016121Y002308D02*
X015879Y002308D01*
X015989Y002149D02*
X016011Y002149D01*
X015121Y002308D02*
X014879Y002308D01*
X014989Y002149D02*
X015011Y002149D01*
X007000Y002680D02*
X007000Y001430D01*
X003121Y002308D02*
X002879Y002308D01*
X002989Y002149D02*
X003011Y002149D01*
X002500Y001930D02*
X002500Y000930D01*
X002007Y000723D02*
X001975Y000723D01*
X001962Y000564D02*
X002109Y000564D01*
X001518Y000564D02*
X001482Y000564D01*
X001482Y000723D02*
X001518Y000723D01*
X001518Y000881D02*
X001482Y000881D01*
X001989Y002149D02*
X002011Y002149D01*
X002121Y002308D02*
X001879Y002308D01*
X027445Y011818D02*
X027735Y011818D01*
X027735Y011976D02*
X027477Y011976D01*
X027477Y012135D02*
X027735Y012135D01*
X027735Y012293D02*
X027477Y012293D01*
X027477Y012452D02*
X027735Y012452D01*
X027735Y012610D02*
X027384Y012610D01*
X027254Y012769D02*
X027735Y012769D01*
X027735Y012927D02*
X027412Y012927D01*
X027477Y013086D02*
X027735Y013086D01*
X027735Y013244D02*
X027477Y013244D01*
X027425Y013403D02*
X027735Y013403D01*
X027735Y013561D02*
X027294Y013561D01*
D25*
X026833Y018097D02*
X026500Y018430D01*
X023750Y018430D01*
X023250Y018930D01*
X019500Y018930D01*
M02*
