%
M48
M72
T01C0.0197
T02C0.0276
T03C0.0315
T04C0.0394
T05C0.0400
T06C0.0402
T07C0.0551
T08C0.1181
%
T01
X22750Y15180
T02
X23500Y12430
X20500Y9930
X24750Y8930
X26250Y8930
X24750Y6680
X25250Y6180
X26250Y6430
X22750Y4930
X22750Y4180
X21000Y3680
X18250Y5680
X17500Y6180
X16750Y5180
X16750Y4430
X16750Y3680
X14159Y4192
X13569Y4192
X12978Y4192
X12388Y4192
X10409Y4442
X9819Y4442
X9228Y4442
X8638Y4442
X8638Y5942
X9228Y5942
X9819Y5942
X10409Y5942
X10409Y7442
X9819Y7442
X9228Y7442
X8638Y7442
X15750Y6180
X24500Y930
T03
X27000Y12180
X27000Y13180
X27000Y14180
X27000Y15180
T04
X1500Y930
X2500Y930
X3500Y930
X3500Y1930
X2500Y1930
X1500Y1930
X4500Y1930
X5500Y1930
X6500Y1930
X7500Y1930
X8500Y1930
X9500Y1930
X10500Y1930
X11500Y1930
X11500Y930
X10500Y930
X9500Y930
X8500Y930
X7500Y930
X6500Y930
X5500Y930
X4500Y930
X12500Y930
X13500Y930
X14500Y930
X15500Y930
X16500Y930
X17500Y930
X18500Y930
X18500Y1930
X17500Y1930
X16500Y1930
X15500Y1930
X14500Y1930
X13500Y1930
X12500Y1930
X19500Y1930
X20500Y1930
X21500Y1930
X22500Y1930
X23500Y1930
X23500Y930
X22500Y930
X21500Y930
X20500Y930
X19500Y930
X19500Y19930
X20500Y19930
X21500Y19930
X22500Y19930
X23500Y19930
X23500Y20930
X22500Y20930
X21500Y20930
X20500Y20930
X19500Y20930
X18500Y20930
X17500Y20930
X16500Y20930
X15500Y20930
X14500Y20930
X13500Y20930
X12500Y20930
X11500Y20930
X10500Y20930
X9500Y20930
X8500Y20930
X7500Y20930
X6500Y20930
X5500Y20930
X4500Y20930
X3500Y20930
X2500Y20930
X1500Y20930
X1500Y19930
X2500Y19930
X3500Y19930
X4500Y19930
X5500Y19930
X6500Y19930
X7500Y19930
X8500Y19930
X9500Y19930
X10500Y19930
X11500Y19930
X12500Y19930
X13500Y19930
X14500Y19930
X15500Y19930
X16500Y19930
X17500Y19930
X18500Y19930
T05
X18250Y17930
X19250Y17930
X20250Y17930
X21250Y17930
X16000Y17180
X16000Y16180
X16000Y15180
X16000Y14180
X16000Y13180
X16000Y12180
X16000Y11180
X16000Y10180
X11000Y10180
X11000Y11180
X11000Y12180
X11000Y13180
X11000Y14180
X11000Y15180
X11000Y16180
X11000Y17180
X6750Y17180
X6750Y16180
X6750Y15180
X6750Y14180
X6750Y13180
X6750Y12180
X6750Y11180
X6750Y10180
X1750Y10180
X1750Y11180
X1750Y12180
X1750Y13180
X1750Y14180
X1750Y15180
X1750Y16180
X1750Y17180
T06
X3569Y7771
X4750Y7771
X4750Y6589
X3569Y6589
X13069Y6589
X14250Y6589
X14250Y7771
X13069Y7771
T07
X24667Y17430
X26833Y17430
T08
X24848Y15580
X24848Y19280
M30
