G75*
%MOIN*%
%OFA0B0*%
%FSLAX24Y24*%
%IPPOS*%
%LPD*%
%AMOC8*
5,1,8,0,0,1.08239X$1,22.5*
%
%ADD10C,0.0050*%
%ADD11C,0.0000*%
D10*
X000500Y000180D02*
X000500Y021680D01*
X023000Y021680D01*
X023140Y021678D01*
X023280Y021672D01*
X023420Y021662D01*
X023560Y021649D01*
X023699Y021631D01*
X023838Y021609D01*
X023975Y021584D01*
X024113Y021555D01*
X024249Y021522D01*
X024384Y021485D01*
X024518Y021444D01*
X024651Y021399D01*
X024783Y021351D01*
X024913Y021299D01*
X025042Y021244D01*
X025169Y021185D01*
X025295Y021122D01*
X025419Y021056D01*
X025540Y020987D01*
X025660Y020914D01*
X025778Y020837D01*
X025893Y020758D01*
X026007Y020675D01*
X026117Y020589D01*
X026226Y020500D01*
X026332Y020408D01*
X026435Y020313D01*
X026536Y020216D01*
X026633Y020115D01*
X026728Y020012D01*
X026820Y019906D01*
X026909Y019797D01*
X026995Y019687D01*
X027078Y019573D01*
X027157Y019458D01*
X027234Y019340D01*
X027307Y019220D01*
X027376Y019099D01*
X027442Y018975D01*
X027505Y018849D01*
X027564Y018722D01*
X027619Y018593D01*
X027671Y018463D01*
X027719Y018331D01*
X027764Y018198D01*
X027805Y018064D01*
X027842Y017929D01*
X027875Y017793D01*
X027904Y017655D01*
X027929Y017518D01*
X027951Y017379D01*
X027969Y017240D01*
X027982Y017100D01*
X027992Y016960D01*
X027998Y016820D01*
X028000Y016680D01*
X028000Y005180D01*
X027998Y005040D01*
X027992Y004900D01*
X027982Y004760D01*
X027969Y004620D01*
X027951Y004481D01*
X027929Y004342D01*
X027904Y004205D01*
X027875Y004067D01*
X027842Y003931D01*
X027805Y003796D01*
X027764Y003662D01*
X027719Y003529D01*
X027671Y003397D01*
X027619Y003267D01*
X027564Y003138D01*
X027505Y003011D01*
X027442Y002885D01*
X027376Y002761D01*
X027307Y002640D01*
X027234Y002520D01*
X027157Y002402D01*
X027078Y002287D01*
X026995Y002173D01*
X026909Y002063D01*
X026820Y001954D01*
X026728Y001848D01*
X026633Y001745D01*
X026536Y001644D01*
X026435Y001547D01*
X026332Y001452D01*
X026226Y001360D01*
X026117Y001271D01*
X026007Y001185D01*
X025893Y001102D01*
X025778Y001023D01*
X025660Y000946D01*
X025540Y000873D01*
X025419Y000804D01*
X025295Y000738D01*
X025169Y000675D01*
X025042Y000616D01*
X024913Y000561D01*
X024783Y000509D01*
X024651Y000461D01*
X024518Y000416D01*
X024384Y000375D01*
X024249Y000338D01*
X024113Y000305D01*
X023975Y000276D01*
X023838Y000251D01*
X023699Y000229D01*
X023560Y000211D01*
X023420Y000198D01*
X023280Y000188D01*
X023140Y000182D01*
X023000Y000180D01*
X000500Y000180D01*
D11*
X024257Y015580D02*
X024259Y015628D01*
X024265Y015676D01*
X024275Y015723D01*
X024288Y015769D01*
X024306Y015814D01*
X024326Y015858D01*
X024351Y015900D01*
X024379Y015939D01*
X024409Y015976D01*
X024443Y016010D01*
X024480Y016042D01*
X024518Y016071D01*
X024559Y016096D01*
X024602Y016118D01*
X024647Y016136D01*
X024693Y016150D01*
X024740Y016161D01*
X024788Y016168D01*
X024836Y016171D01*
X024884Y016170D01*
X024932Y016165D01*
X024980Y016156D01*
X025026Y016144D01*
X025071Y016127D01*
X025115Y016107D01*
X025157Y016084D01*
X025197Y016057D01*
X025235Y016027D01*
X025270Y015994D01*
X025302Y015958D01*
X025332Y015920D01*
X025358Y015879D01*
X025380Y015836D01*
X025400Y015792D01*
X025415Y015747D01*
X025427Y015700D01*
X025435Y015652D01*
X025439Y015604D01*
X025439Y015556D01*
X025435Y015508D01*
X025427Y015460D01*
X025415Y015413D01*
X025400Y015368D01*
X025380Y015324D01*
X025358Y015281D01*
X025332Y015240D01*
X025302Y015202D01*
X025270Y015166D01*
X025235Y015133D01*
X025197Y015103D01*
X025157Y015076D01*
X025115Y015053D01*
X025071Y015033D01*
X025026Y015016D01*
X024980Y015004D01*
X024932Y014995D01*
X024884Y014990D01*
X024836Y014989D01*
X024788Y014992D01*
X024740Y014999D01*
X024693Y015010D01*
X024647Y015024D01*
X024602Y015042D01*
X024559Y015064D01*
X024518Y015089D01*
X024480Y015118D01*
X024443Y015150D01*
X024409Y015184D01*
X024379Y015221D01*
X024351Y015260D01*
X024326Y015302D01*
X024306Y015346D01*
X024288Y015391D01*
X024275Y015437D01*
X024265Y015484D01*
X024259Y015532D01*
X024257Y015580D01*
X024257Y019280D02*
X024259Y019328D01*
X024265Y019376D01*
X024275Y019423D01*
X024288Y019469D01*
X024306Y019514D01*
X024326Y019558D01*
X024351Y019600D01*
X024379Y019639D01*
X024409Y019676D01*
X024443Y019710D01*
X024480Y019742D01*
X024518Y019771D01*
X024559Y019796D01*
X024602Y019818D01*
X024647Y019836D01*
X024693Y019850D01*
X024740Y019861D01*
X024788Y019868D01*
X024836Y019871D01*
X024884Y019870D01*
X024932Y019865D01*
X024980Y019856D01*
X025026Y019844D01*
X025071Y019827D01*
X025115Y019807D01*
X025157Y019784D01*
X025197Y019757D01*
X025235Y019727D01*
X025270Y019694D01*
X025302Y019658D01*
X025332Y019620D01*
X025358Y019579D01*
X025380Y019536D01*
X025400Y019492D01*
X025415Y019447D01*
X025427Y019400D01*
X025435Y019352D01*
X025439Y019304D01*
X025439Y019256D01*
X025435Y019208D01*
X025427Y019160D01*
X025415Y019113D01*
X025400Y019068D01*
X025380Y019024D01*
X025358Y018981D01*
X025332Y018940D01*
X025302Y018902D01*
X025270Y018866D01*
X025235Y018833D01*
X025197Y018803D01*
X025157Y018776D01*
X025115Y018753D01*
X025071Y018733D01*
X025026Y018716D01*
X024980Y018704D01*
X024932Y018695D01*
X024884Y018690D01*
X024836Y018689D01*
X024788Y018692D01*
X024740Y018699D01*
X024693Y018710D01*
X024647Y018724D01*
X024602Y018742D01*
X024559Y018764D01*
X024518Y018789D01*
X024480Y018818D01*
X024443Y018850D01*
X024409Y018884D01*
X024379Y018921D01*
X024351Y018960D01*
X024326Y019002D01*
X024306Y019046D01*
X024288Y019091D01*
X024275Y019137D01*
X024265Y019184D01*
X024259Y019232D01*
X024257Y019280D01*
M02*
