G75*
%MOIN*%
%OFA0B0*%
%FSLAX24Y24*%
%IPPOS*%
%LPD*%
%AMOC8*
5,1,8,0,0,1.08239X$1,22.5*
%
%ADD10R,0.0394X0.0965*%
%ADD11R,0.0965X0.0394*%
%ADD12R,0.0630X0.1024*%
%ADD13R,0.0602X0.0602*%
%ADD14C,0.0602*%
%ADD15C,0.0600*%
%ADD16R,0.0394X0.0433*%
%ADD17R,0.0315X0.0315*%
%ADD18R,0.0591X0.0591*%
%ADD19C,0.0591*%
%ADD20R,0.0827X0.0827*%
%ADD21C,0.0436*%
%ADD22R,0.0475X0.0475*%
%ADD23C,0.0475*%
%ADD24R,0.0512X0.0591*%
%ADD25C,0.0160*%
%ADD26C,0.0320*%
%ADD27C,0.0500*%
%ADD28C,0.0240*%
%ADD29C,0.0357*%
%ADD30C,0.0400*%
D10*
X023600Y005160D03*
X024152Y005160D03*
X024703Y005160D03*
X025254Y005160D03*
X025805Y005160D03*
X026356Y005160D03*
X026907Y005160D03*
X027459Y005160D03*
X027459Y010200D03*
X026907Y010200D03*
X026356Y010200D03*
X025805Y010200D03*
X025254Y010200D03*
X024703Y010200D03*
X024152Y010200D03*
X023600Y010200D03*
D11*
X022697Y009609D03*
X022697Y009058D03*
X022697Y008507D03*
X022697Y007956D03*
X022697Y007404D03*
X022697Y006853D03*
X022697Y006302D03*
X022697Y005751D03*
D12*
X018750Y006971D03*
X018750Y008389D03*
X016750Y008389D03*
X016750Y006971D03*
X004000Y017221D03*
X004000Y018639D03*
D13*
X004750Y007771D03*
X014250Y007771D03*
D14*
X013069Y007771D03*
X013069Y006589D03*
X014250Y006589D03*
X004750Y006589D03*
X003569Y006589D03*
X003569Y007771D03*
D15*
X002050Y010180D02*
X001450Y010180D01*
X001450Y011180D02*
X002050Y011180D01*
X002050Y012180D02*
X001450Y012180D01*
X001450Y013180D02*
X002050Y013180D01*
X002050Y014180D02*
X001450Y014180D01*
X001450Y015180D02*
X002050Y015180D01*
X002050Y016180D02*
X001450Y016180D01*
X001450Y017180D02*
X002050Y017180D01*
X006450Y017180D02*
X007050Y017180D01*
X007050Y016180D02*
X006450Y016180D01*
X006450Y015180D02*
X007050Y015180D01*
X007050Y014180D02*
X006450Y014180D01*
X006450Y013180D02*
X007050Y013180D01*
X007050Y012180D02*
X006450Y012180D01*
X006450Y011180D02*
X007050Y011180D01*
X007050Y010180D02*
X006450Y010180D01*
X010700Y010180D02*
X011300Y010180D01*
X011300Y011180D02*
X010700Y011180D01*
X010700Y012180D02*
X011300Y012180D01*
X011300Y013180D02*
X010700Y013180D01*
X010700Y014180D02*
X011300Y014180D01*
X011300Y015180D02*
X010700Y015180D01*
X010700Y016180D02*
X011300Y016180D01*
X011300Y017180D02*
X010700Y017180D01*
X015700Y017180D02*
X016300Y017180D01*
X016300Y016180D02*
X015700Y016180D01*
X015700Y015180D02*
X016300Y015180D01*
X016300Y014180D02*
X015700Y014180D01*
X015700Y013180D02*
X016300Y013180D01*
X016300Y012180D02*
X015700Y012180D01*
X015700Y011180D02*
X016300Y011180D01*
X016300Y010180D02*
X015700Y010180D01*
X018250Y017630D02*
X018250Y018230D01*
X019250Y018230D02*
X019250Y017630D01*
X020250Y017630D02*
X020250Y018230D01*
X021250Y018230D02*
X021250Y017630D01*
D16*
X024665Y003930D03*
X025335Y003930D03*
X025335Y003180D03*
X024665Y003180D03*
X024665Y002430D03*
X025335Y002430D03*
D17*
X026205Y003180D03*
X026795Y003180D03*
X026795Y003930D03*
X026205Y003930D03*
D18*
X001500Y000930D03*
X001500Y019930D03*
D19*
X002500Y019930D03*
X003500Y019930D03*
X004500Y019930D03*
X005500Y019930D03*
X006500Y019930D03*
X007500Y019930D03*
X008500Y019930D03*
X009500Y019930D03*
X010500Y019930D03*
X011500Y019930D03*
X012500Y019930D03*
X013500Y019930D03*
X014500Y019930D03*
X015500Y019930D03*
X016500Y019930D03*
X017500Y019930D03*
X018500Y019930D03*
X019500Y019930D03*
X020500Y019930D03*
X021500Y019930D03*
X022500Y019930D03*
X023500Y019930D03*
X023500Y020930D03*
X022500Y020930D03*
X021500Y020930D03*
X020500Y020930D03*
X019500Y020930D03*
X018500Y020930D03*
X017500Y020930D03*
X016500Y020930D03*
X015500Y020930D03*
X014500Y020930D03*
X013500Y020930D03*
X012500Y020930D03*
X011500Y020930D03*
X010500Y020930D03*
X009500Y020930D03*
X008500Y020930D03*
X007500Y020930D03*
X006500Y020930D03*
X005500Y020930D03*
X004500Y020930D03*
X003500Y020930D03*
X002500Y020930D03*
X001500Y020930D03*
X001500Y001930D03*
X002500Y001930D03*
X003500Y001930D03*
X003500Y000930D03*
X002500Y000930D03*
X004500Y000930D03*
X005500Y000930D03*
X006500Y000930D03*
X007500Y000930D03*
X008500Y000930D03*
X009500Y000930D03*
X010500Y000930D03*
X011500Y000930D03*
X011500Y001930D03*
X010500Y001930D03*
X009500Y001930D03*
X008500Y001930D03*
X007500Y001930D03*
X006500Y001930D03*
X005500Y001930D03*
X004500Y001930D03*
X012500Y001930D03*
X013500Y001930D03*
X014500Y001930D03*
X015500Y001930D03*
X016500Y001930D03*
X017500Y001930D03*
X018500Y001930D03*
X018500Y000930D03*
X017500Y000930D03*
X016500Y000930D03*
X015500Y000930D03*
X014500Y000930D03*
X013500Y000930D03*
X012500Y000930D03*
X019500Y000930D03*
X020500Y000930D03*
X021500Y000930D03*
X022500Y000930D03*
X023500Y000930D03*
X023500Y001930D03*
X022500Y001930D03*
X021500Y001930D03*
X020500Y001930D03*
X019500Y001930D03*
D20*
X024667Y017430D03*
X026833Y017430D03*
D21*
X023500Y012430D03*
X020500Y009930D03*
X024750Y008930D03*
X026250Y008930D03*
X024750Y006680D03*
X025250Y006180D03*
X026250Y006430D03*
X022750Y004930D03*
X022750Y004180D03*
X021000Y003680D03*
X018250Y005680D03*
X017500Y006180D03*
X016750Y005180D03*
X016750Y004430D03*
X016750Y003680D03*
X014159Y004192D03*
X013569Y004192D03*
X012978Y004192D03*
X012388Y004192D03*
X010409Y004442D03*
X009819Y004442D03*
X009228Y004442D03*
X008638Y004442D03*
X008638Y005942D03*
X009228Y005942D03*
X009819Y005942D03*
X010409Y005942D03*
X010409Y007442D03*
X009819Y007442D03*
X009228Y007442D03*
X008638Y007442D03*
X015750Y006180D03*
X024500Y000930D03*
D22*
X027000Y012180D03*
D23*
X027000Y013180D03*
X027000Y014180D03*
X027000Y015180D03*
D24*
X025374Y014180D03*
X024626Y014180D03*
X024626Y013430D03*
X025374Y013430D03*
X025374Y012680D03*
X024626Y012680D03*
X023374Y013430D03*
X022626Y013430D03*
X022626Y014180D03*
X023374Y014180D03*
X023374Y011680D03*
X022626Y011680D03*
D25*
X000765Y021415D02*
X000765Y000445D01*
X002272Y000445D01*
X002197Y000476D01*
X002046Y000627D01*
X001975Y000798D01*
X001975Y000611D01*
X001963Y000565D01*
X001939Y000524D01*
X001906Y000491D01*
X001865Y000467D01*
X001819Y000455D01*
X001518Y000455D01*
X001518Y000912D01*
X001482Y000912D01*
X001482Y000455D01*
X001181Y000455D01*
X001135Y000467D01*
X001094Y000491D01*
X001061Y000524D01*
X001037Y000565D01*
X001025Y000611D01*
X001025Y000912D01*
X001482Y000912D01*
X001482Y000948D01*
X001025Y000948D01*
X001025Y001249D01*
X001037Y001295D01*
X001061Y001336D01*
X001094Y001369D01*
X001135Y001393D01*
X001181Y001405D01*
X001368Y001405D01*
X001197Y001476D01*
X001046Y001627D01*
X000965Y001824D01*
X000965Y002036D01*
X001046Y002233D01*
X001197Y002384D01*
X001394Y002465D01*
X001606Y002465D01*
X001803Y002384D01*
X001954Y002233D01*
X002000Y002122D01*
X002046Y002233D01*
X002197Y002384D01*
X002394Y002465D01*
X002606Y002465D01*
X002803Y002384D01*
X002954Y002233D01*
X003000Y002122D01*
X003046Y002233D01*
X003197Y002384D01*
X003394Y002465D01*
X003606Y002465D01*
X003803Y002384D01*
X003857Y002330D01*
X004143Y002330D01*
X004197Y002384D01*
X004394Y002465D01*
X004606Y002465D01*
X004803Y002384D01*
X004954Y002233D01*
X005000Y002122D01*
X005046Y002233D01*
X005197Y002384D01*
X005394Y002465D01*
X005606Y002465D01*
X005680Y002435D01*
X005680Y006826D01*
X005260Y006406D01*
X005209Y006283D01*
X005057Y006131D01*
X004858Y006048D01*
X004642Y006048D01*
X004443Y006131D01*
X004291Y006283D01*
X004209Y006482D01*
X004209Y006697D01*
X004291Y006896D01*
X004443Y007048D01*
X004567Y007099D01*
X004697Y007229D01*
X004401Y007229D01*
X004313Y007266D01*
X004245Y007333D01*
X004209Y007422D01*
X004209Y007619D01*
X004110Y007718D01*
X004110Y007663D01*
X004028Y007464D01*
X003875Y007312D01*
X003677Y007229D01*
X003622Y007229D01*
X003752Y007099D01*
X003875Y007048D01*
X004028Y006896D01*
X004110Y006697D01*
X004110Y006482D01*
X004028Y006283D01*
X003875Y006131D01*
X003677Y006048D01*
X003461Y006048D01*
X003262Y006131D01*
X003110Y006283D01*
X003059Y006406D01*
X002335Y007131D01*
X002260Y007311D01*
X002260Y009748D01*
X002234Y009735D01*
X002162Y009712D01*
X002088Y009700D01*
X001770Y009700D01*
X001770Y010160D01*
X001730Y010160D01*
X001730Y009700D01*
X001412Y009700D01*
X001338Y009712D01*
X001266Y009735D01*
X001198Y009769D01*
X001137Y009814D01*
X001084Y009867D01*
X001039Y009928D01*
X001005Y009996D01*
X000982Y010068D01*
X000970Y010142D01*
X000970Y010160D01*
X001730Y010160D01*
X001730Y010200D01*
X000970Y010200D01*
X000970Y010218D01*
X000982Y010292D01*
X001005Y010364D01*
X001039Y010432D01*
X001084Y010493D01*
X001137Y010546D01*
X001198Y010591D01*
X001266Y010625D01*
X001329Y010645D01*
X001144Y010722D01*
X000992Y010874D01*
X000910Y011073D01*
X000910Y011287D01*
X000992Y011486D01*
X001144Y011638D01*
X001246Y011680D01*
X001144Y011722D01*
X000992Y011874D01*
X000910Y012073D01*
X000910Y012287D01*
X000992Y012486D01*
X001144Y012638D01*
X001246Y012680D01*
X001144Y012722D01*
X000992Y012874D01*
X000910Y013073D01*
X000910Y013287D01*
X000992Y013486D01*
X001144Y013638D01*
X001246Y013680D01*
X001144Y013722D01*
X000992Y013874D01*
X000910Y014073D01*
X000910Y014287D01*
X000992Y014486D01*
X001144Y014638D01*
X001246Y014680D01*
X001144Y014722D01*
X000992Y014874D01*
X000910Y015073D01*
X000910Y015287D01*
X000992Y015486D01*
X001144Y015638D01*
X001329Y015715D01*
X001266Y015735D01*
X001198Y015769D01*
X001137Y015814D01*
X001084Y015867D01*
X001039Y015928D01*
X001005Y015996D01*
X000982Y016068D01*
X000970Y016142D01*
X000970Y016160D01*
X001730Y016160D01*
X001730Y016200D01*
X000970Y016200D01*
X000970Y016218D01*
X000982Y016292D01*
X001005Y016364D01*
X001039Y016432D01*
X001084Y016493D01*
X001137Y016546D01*
X001198Y016591D01*
X001266Y016625D01*
X001329Y016645D01*
X001144Y016722D01*
X000992Y016874D01*
X000910Y017073D01*
X000910Y017287D01*
X000992Y017486D01*
X001144Y017638D01*
X001260Y017686D01*
X001260Y017777D01*
X001335Y017958D01*
X002335Y018958D01*
X002472Y019095D01*
X002653Y019170D01*
X003445Y019170D01*
X003445Y019198D01*
X003482Y019286D01*
X003549Y019354D01*
X003637Y019390D01*
X004331Y019390D01*
X004368Y019405D01*
X004197Y019476D01*
X004046Y019627D01*
X004000Y019738D01*
X003954Y019627D01*
X003803Y019476D01*
X003606Y019395D01*
X003394Y019395D01*
X003197Y019476D01*
X003046Y019627D01*
X003000Y019738D01*
X002954Y019627D01*
X002803Y019476D01*
X002606Y019395D01*
X002394Y019395D01*
X002197Y019476D01*
X002046Y019627D01*
X001975Y019798D01*
X001975Y019611D01*
X001963Y019565D01*
X001939Y019524D01*
X001906Y019491D01*
X001865Y019467D01*
X001819Y019455D01*
X001518Y019455D01*
X001518Y019912D01*
X001482Y019912D01*
X001482Y019455D01*
X001181Y019455D01*
X001135Y019467D01*
X001094Y019491D01*
X001061Y019524D01*
X001037Y019565D01*
X001025Y019611D01*
X001025Y019912D01*
X001482Y019912D01*
X001482Y019948D01*
X001025Y019948D01*
X001025Y020249D01*
X001037Y020295D01*
X001061Y020336D01*
X001094Y020369D01*
X001135Y020393D01*
X001181Y020405D01*
X001482Y020405D01*
X001482Y019948D01*
X001518Y019948D01*
X001518Y020405D01*
X001819Y020405D01*
X001865Y020393D01*
X001906Y020369D01*
X001939Y020336D01*
X001963Y020295D01*
X001975Y020249D01*
X001975Y020062D01*
X002046Y020233D01*
X002197Y020384D01*
X002308Y020430D01*
X002197Y020476D01*
X002046Y020627D01*
X001965Y020824D01*
X001965Y020826D01*
X001964Y020819D01*
X001940Y020748D01*
X001906Y020681D01*
X001863Y020620D01*
X001810Y020567D01*
X001749Y020524D01*
X001682Y020490D01*
X001611Y020466D01*
X001537Y020455D01*
X001518Y020455D01*
X001518Y020912D01*
X001482Y020912D01*
X001482Y020455D01*
X001463Y020455D01*
X001389Y020466D01*
X001318Y020490D01*
X001251Y020524D01*
X001190Y020567D01*
X001137Y020620D01*
X001094Y020681D01*
X001060Y020748D01*
X001036Y020819D01*
X001025Y020893D01*
X001025Y020912D01*
X001482Y020912D01*
X001482Y020948D01*
X001025Y020948D01*
X001025Y020967D01*
X001036Y021041D01*
X001060Y021112D01*
X001094Y021179D01*
X001137Y021240D01*
X001190Y021293D01*
X001251Y021336D01*
X001318Y021370D01*
X001389Y021394D01*
X001463Y021405D01*
X001482Y021405D01*
X001482Y020948D01*
X001518Y020948D01*
X001518Y021405D01*
X001537Y021405D01*
X001611Y021394D01*
X001682Y021370D01*
X001749Y021336D01*
X001810Y021293D01*
X001863Y021240D01*
X001906Y021179D01*
X001940Y021112D01*
X001964Y021041D01*
X001965Y021034D01*
X001965Y021036D01*
X002046Y021233D01*
X002197Y021384D01*
X002272Y021415D01*
X000765Y021415D01*
X000765Y021328D02*
X001239Y021328D01*
X001088Y021169D02*
X000765Y021169D01*
X000765Y021011D02*
X001032Y021011D01*
X001031Y020852D02*
X000765Y020852D01*
X000765Y020694D02*
X001087Y020694D01*
X001235Y020535D02*
X000765Y020535D01*
X000765Y020377D02*
X001107Y020377D01*
X001025Y020218D02*
X000765Y020218D01*
X000765Y020060D02*
X001025Y020060D01*
X001025Y019901D02*
X000765Y019901D01*
X000765Y019743D02*
X001025Y019743D01*
X001032Y019584D02*
X000765Y019584D01*
X000765Y019426D02*
X002319Y019426D01*
X002089Y019584D02*
X001968Y019584D01*
X001975Y019743D02*
X001998Y019743D01*
X001975Y020218D02*
X002040Y020218D01*
X001893Y020377D02*
X002190Y020377D01*
X002138Y020535D02*
X001765Y020535D01*
X001913Y020694D02*
X002019Y020694D01*
X002020Y021169D02*
X001912Y021169D01*
X001761Y021328D02*
X002141Y021328D01*
X001518Y021328D02*
X001482Y021328D01*
X001482Y021169D02*
X001518Y021169D01*
X001518Y021011D02*
X001482Y021011D01*
X001482Y020852D02*
X001518Y020852D01*
X001518Y020694D02*
X001482Y020694D01*
X001482Y020535D02*
X001518Y020535D01*
X001518Y020377D02*
X001482Y020377D01*
X001482Y020218D02*
X001518Y020218D01*
X001518Y020060D02*
X001482Y020060D01*
X001482Y019901D02*
X001518Y019901D01*
X001518Y019743D02*
X001482Y019743D01*
X001482Y019584D02*
X001518Y019584D01*
X000765Y019267D02*
X003474Y019267D01*
X003319Y019426D02*
X002681Y019426D01*
X002911Y019584D02*
X003089Y019584D01*
X003681Y019426D02*
X004319Y019426D01*
X004089Y019584D02*
X003911Y019584D01*
X004703Y018440D02*
X017752Y018440D01*
X017710Y018337D01*
X017710Y017523D01*
X017792Y017324D01*
X017810Y017306D01*
X017810Y016620D01*
X016624Y016620D01*
X016606Y016638D01*
X016421Y016715D01*
X016484Y016735D01*
X016552Y016769D01*
X016613Y016814D01*
X016666Y016867D01*
X016711Y016928D01*
X016745Y016996D01*
X016768Y017068D01*
X016780Y017142D01*
X016780Y017160D01*
X016020Y017160D01*
X016020Y017200D01*
X015980Y017200D01*
X015980Y017660D01*
X015662Y017660D01*
X015588Y017648D01*
X015516Y017625D01*
X015448Y017591D01*
X015387Y017546D01*
X015334Y017493D01*
X015289Y017432D01*
X015255Y017364D01*
X015232Y017292D01*
X015220Y017218D01*
X015220Y017200D01*
X015980Y017200D01*
X015980Y017160D01*
X015220Y017160D01*
X015220Y017142D01*
X015232Y017068D01*
X015255Y016996D01*
X015289Y016928D01*
X015334Y016867D01*
X015387Y016814D01*
X015448Y016769D01*
X015516Y016735D01*
X015579Y016715D01*
X015394Y016638D01*
X015376Y016620D01*
X013162Y016620D01*
X013001Y016553D01*
X012877Y016429D01*
X012068Y015620D01*
X011624Y015620D01*
X011606Y015638D01*
X011504Y015680D01*
X011606Y015722D01*
X011758Y015874D01*
X011840Y016073D01*
X011840Y016287D01*
X011758Y016486D01*
X011606Y016638D01*
X011504Y016680D01*
X011606Y016722D01*
X011758Y016874D01*
X011840Y017073D01*
X011840Y017287D01*
X011758Y017486D01*
X011606Y017638D01*
X011407Y017720D01*
X010593Y017720D01*
X010394Y017638D01*
X010296Y017540D01*
X008928Y017540D01*
X008796Y017485D01*
X007590Y016279D01*
X007590Y016287D01*
X007508Y016486D01*
X007356Y016638D01*
X007254Y016680D01*
X007356Y016722D01*
X007508Y016874D01*
X007590Y017073D01*
X007590Y017287D01*
X007508Y017486D01*
X007356Y017638D01*
X007157Y017720D01*
X006343Y017720D01*
X006144Y017638D01*
X005992Y017486D01*
X005954Y017393D01*
X005546Y016985D01*
X005445Y016884D01*
X005390Y016752D01*
X005390Y013733D01*
X005278Y013845D01*
X003528Y015595D01*
X003347Y015670D01*
X002278Y015670D01*
X002171Y015715D01*
X002234Y015735D01*
X002302Y015769D01*
X002363Y015814D01*
X002416Y015867D01*
X002461Y015928D01*
X002495Y015996D01*
X002518Y016068D01*
X002530Y016142D01*
X002530Y016160D01*
X001770Y016160D01*
X001770Y016200D01*
X002530Y016200D01*
X002530Y016218D01*
X002518Y016292D01*
X002495Y016364D01*
X002461Y016432D01*
X002416Y016493D01*
X002363Y016546D01*
X002302Y016591D01*
X002234Y016625D01*
X002171Y016645D01*
X002356Y016722D01*
X002508Y016874D01*
X002590Y017073D01*
X002590Y017287D01*
X002508Y017486D01*
X002378Y017615D01*
X002953Y018190D01*
X003445Y018190D01*
X003445Y018079D01*
X003482Y017991D01*
X003549Y017923D01*
X003610Y017898D01*
X003575Y017877D01*
X003541Y017844D01*
X003517Y017803D01*
X003505Y017757D01*
X003505Y017299D01*
X003923Y017299D01*
X003923Y017144D01*
X004077Y017144D01*
X004077Y016530D01*
X004339Y016530D01*
X004384Y016542D01*
X004425Y016565D01*
X004459Y016599D01*
X004483Y016640D01*
X004495Y016686D01*
X004495Y017144D01*
X004077Y017144D01*
X004077Y017299D01*
X004495Y017299D01*
X004495Y017757D01*
X004483Y017803D01*
X004459Y017844D01*
X004425Y017877D01*
X004390Y017898D01*
X004451Y017923D01*
X004518Y017991D01*
X004555Y018079D01*
X004555Y018292D01*
X004703Y018440D01*
X004579Y018316D02*
X017710Y018316D01*
X017710Y018158D02*
X004555Y018158D01*
X004522Y017999D02*
X017710Y017999D01*
X017710Y017841D02*
X004461Y017841D01*
X004495Y017682D02*
X006251Y017682D01*
X006030Y017524D02*
X004495Y017524D01*
X004495Y017365D02*
X005926Y017365D01*
X005767Y017207D02*
X004077Y017207D01*
X003923Y017207D02*
X002590Y017207D01*
X002580Y017048D02*
X003505Y017048D01*
X003505Y017144D02*
X003505Y016686D01*
X003517Y016640D01*
X003541Y016599D01*
X003575Y016565D01*
X003616Y016542D01*
X003661Y016530D01*
X003923Y016530D01*
X003923Y017144D01*
X003505Y017144D01*
X003505Y017365D02*
X002558Y017365D01*
X002470Y017524D02*
X003505Y017524D01*
X003505Y017682D02*
X002445Y017682D01*
X002603Y017841D02*
X003539Y017841D01*
X003478Y017999D02*
X002762Y017999D01*
X002920Y018158D02*
X003445Y018158D01*
X002327Y018950D02*
X000765Y018950D01*
X000765Y018792D02*
X002169Y018792D01*
X002010Y018633D02*
X000765Y018633D01*
X000765Y018475D02*
X001852Y018475D01*
X001693Y018316D02*
X000765Y018316D01*
X000765Y018158D02*
X001535Y018158D01*
X001376Y017999D02*
X000765Y017999D01*
X000765Y017841D02*
X001286Y017841D01*
X001251Y017682D02*
X000765Y017682D01*
X000765Y017524D02*
X001030Y017524D01*
X000942Y017365D02*
X000765Y017365D01*
X000765Y017207D02*
X000910Y017207D01*
X000920Y017048D02*
X000765Y017048D01*
X000765Y016890D02*
X000986Y016890D01*
X001135Y016731D02*
X000765Y016731D01*
X000765Y016573D02*
X001174Y016573D01*
X001031Y016414D02*
X000765Y016414D01*
X000765Y016256D02*
X000976Y016256D01*
X000977Y016097D02*
X000765Y016097D01*
X000765Y015939D02*
X001034Y015939D01*
X001184Y015780D02*
X000765Y015780D01*
X000765Y015622D02*
X001128Y015622D01*
X000983Y015463D02*
X000765Y015463D01*
X000765Y015305D02*
X000917Y015305D01*
X000910Y015146D02*
X000765Y015146D01*
X000765Y014988D02*
X000945Y014988D01*
X001037Y014829D02*
X000765Y014829D01*
X000765Y014671D02*
X001223Y014671D01*
X001018Y014512D02*
X000765Y014512D01*
X000765Y014354D02*
X000937Y014354D01*
X000910Y014195D02*
X000765Y014195D01*
X000765Y014037D02*
X000925Y014037D01*
X000991Y013878D02*
X000765Y013878D01*
X000765Y013720D02*
X001151Y013720D01*
X001067Y013561D02*
X000765Y013561D01*
X000765Y013403D02*
X000958Y013403D01*
X000910Y013244D02*
X000765Y013244D01*
X000765Y013086D02*
X000910Y013086D01*
X000970Y012927D02*
X000765Y012927D01*
X000765Y012769D02*
X001098Y012769D01*
X001116Y012610D02*
X000765Y012610D01*
X000765Y012452D02*
X000978Y012452D01*
X000912Y012293D02*
X000765Y012293D01*
X000765Y012135D02*
X000910Y012135D01*
X000950Y011976D02*
X000765Y011976D01*
X000765Y011818D02*
X001049Y011818D01*
X001195Y011659D02*
X000765Y011659D01*
X000765Y011501D02*
X001007Y011501D01*
X000933Y011342D02*
X000765Y011342D01*
X000765Y011184D02*
X000910Y011184D01*
X000930Y011025D02*
X000765Y011025D01*
X000765Y010867D02*
X001000Y010867D01*
X001178Y010708D02*
X000765Y010708D01*
X000765Y010550D02*
X001142Y010550D01*
X001019Y010391D02*
X000765Y010391D01*
X000765Y010233D02*
X000972Y010233D01*
X000981Y010074D02*
X000765Y010074D01*
X000765Y009916D02*
X001049Y009916D01*
X001223Y009757D02*
X000765Y009757D01*
X000765Y009599D02*
X002260Y009599D01*
X002260Y009440D02*
X000765Y009440D01*
X000765Y009282D02*
X002260Y009282D01*
X002260Y009123D02*
X000765Y009123D01*
X000765Y008965D02*
X002260Y008965D01*
X002260Y008806D02*
X000765Y008806D01*
X000765Y008648D02*
X002260Y008648D01*
X002260Y008489D02*
X000765Y008489D01*
X000765Y008331D02*
X002260Y008331D01*
X002260Y008172D02*
X000765Y008172D01*
X000765Y008014D02*
X002260Y008014D01*
X002260Y007855D02*
X000765Y007855D01*
X000765Y007697D02*
X002260Y007697D01*
X002260Y007538D02*
X000765Y007538D01*
X000765Y007380D02*
X002260Y007380D01*
X002297Y007221D02*
X000765Y007221D01*
X000765Y007063D02*
X002403Y007063D01*
X002561Y006904D02*
X000765Y006904D01*
X000765Y006746D02*
X002720Y006746D01*
X002878Y006587D02*
X000765Y006587D01*
X000765Y006429D02*
X003037Y006429D01*
X003123Y006270D02*
X000765Y006270D01*
X000765Y006112D02*
X003309Y006112D01*
X003829Y006112D02*
X004490Y006112D01*
X004304Y006270D02*
X004015Y006270D01*
X004088Y006429D02*
X004231Y006429D01*
X004209Y006587D02*
X004110Y006587D01*
X004090Y006746D02*
X004229Y006746D01*
X004299Y006904D02*
X004020Y006904D01*
X003841Y007063D02*
X004478Y007063D01*
X004689Y007221D02*
X003630Y007221D01*
X003943Y007380D02*
X004226Y007380D01*
X004209Y007538D02*
X004058Y007538D01*
X004110Y007697D02*
X004131Y007697D01*
X005441Y006587D02*
X005680Y006587D01*
X005680Y006429D02*
X005282Y006429D01*
X005196Y006270D02*
X005680Y006270D01*
X005680Y006112D02*
X005010Y006112D01*
X005680Y005953D02*
X000765Y005953D01*
X000765Y005795D02*
X005680Y005795D01*
X005680Y005636D02*
X000765Y005636D01*
X000765Y005478D02*
X005680Y005478D01*
X005680Y005319D02*
X000765Y005319D01*
X000765Y005161D02*
X005680Y005161D01*
X005680Y005002D02*
X000765Y005002D01*
X000765Y004844D02*
X005680Y004844D01*
X005680Y004685D02*
X000765Y004685D01*
X000765Y004527D02*
X005680Y004527D01*
X005680Y004368D02*
X000765Y004368D01*
X000765Y004210D02*
X005680Y004210D01*
X005680Y004051D02*
X000765Y004051D01*
X000765Y003893D02*
X005680Y003893D01*
X005680Y003734D02*
X000765Y003734D01*
X000765Y003576D02*
X005680Y003576D01*
X005680Y003417D02*
X000765Y003417D01*
X000765Y003259D02*
X005680Y003259D01*
X005680Y003100D02*
X000765Y003100D01*
X000765Y002942D02*
X005680Y002942D01*
X005680Y002783D02*
X000765Y002783D01*
X000765Y002625D02*
X005680Y002625D01*
X005680Y002466D02*
X000765Y002466D01*
X000765Y002308D02*
X001121Y002308D01*
X001011Y002149D02*
X000765Y002149D01*
X000765Y001991D02*
X000965Y001991D01*
X000965Y001832D02*
X000765Y001832D01*
X000765Y001674D02*
X001027Y001674D01*
X001158Y001515D02*
X000765Y001515D01*
X000765Y001357D02*
X001081Y001357D01*
X001025Y001198D02*
X000765Y001198D01*
X000765Y001040D02*
X001025Y001040D01*
X001025Y000881D02*
X000765Y000881D01*
X000765Y000723D02*
X001025Y000723D01*
X001038Y000564D02*
X000765Y000564D01*
X001482Y000564D02*
X001518Y000564D01*
X001518Y000723D02*
X001482Y000723D01*
X001482Y000881D02*
X001518Y000881D01*
X001975Y000723D02*
X002007Y000723D01*
X001962Y000564D02*
X002109Y000564D01*
X002011Y002149D02*
X001989Y002149D01*
X001879Y002308D02*
X002121Y002308D01*
X002879Y002308D02*
X003121Y002308D01*
X003011Y002149D02*
X002989Y002149D01*
X004879Y002308D02*
X005121Y002308D01*
X005011Y002149D02*
X004989Y002149D01*
X006000Y001430D02*
X006000Y008680D01*
X005680Y006746D02*
X005599Y006746D01*
X007875Y006555D02*
X007875Y003305D01*
X008500Y002680D01*
X009625Y002680D01*
X010000Y002305D01*
X010000Y001430D01*
X010500Y000930D01*
X011000Y001430D02*
X011500Y000930D01*
X011000Y001430D02*
X011000Y002680D01*
X009819Y003861D01*
X009819Y004442D01*
X009481Y004751D02*
X009417Y004794D01*
X009344Y004824D01*
X009268Y004840D01*
X009228Y004840D01*
X009189Y004840D01*
X009112Y004824D01*
X009040Y004794D01*
X008976Y004751D01*
X008897Y004830D01*
X008729Y004900D01*
X008570Y004900D01*
X008570Y005484D01*
X008729Y005484D01*
X008897Y005554D01*
X008976Y005632D01*
X009040Y005589D01*
X009112Y005559D01*
X009189Y005544D01*
X009228Y005544D01*
X009228Y005942D01*
X009228Y005942D01*
X009228Y005544D01*
X009268Y005544D01*
X009344Y005559D01*
X009417Y005589D01*
X009481Y005632D01*
X009540Y005573D01*
X009548Y005555D01*
X010237Y004866D01*
X010150Y004830D01*
X010114Y004794D01*
X010078Y004830D01*
X009910Y004900D01*
X009728Y004900D01*
X009560Y004830D01*
X009481Y004751D01*
X009592Y004844D02*
X008864Y004844D01*
X008570Y005002D02*
X010100Y005002D01*
X010045Y004844D02*
X010183Y004844D01*
X010409Y004442D02*
X010409Y003896D01*
X011500Y002805D01*
X011500Y001930D01*
X012000Y001430D02*
X012500Y000930D01*
X012000Y001430D02*
X012000Y002805D01*
X011375Y003430D01*
X011375Y004180D01*
X009819Y005736D01*
X009819Y005942D01*
X009625Y005478D02*
X008570Y005478D01*
X008570Y005319D02*
X009783Y005319D01*
X009942Y005161D02*
X008570Y005161D01*
X009228Y004840D02*
X009228Y004442D01*
X009228Y004442D01*
X009228Y004840D01*
X009228Y004685D02*
X009228Y004685D01*
X009228Y004527D02*
X009228Y004527D01*
X009228Y004442D02*
X009228Y004044D01*
X009228Y004442D01*
X009228Y004442D01*
X009228Y004368D02*
X009228Y004368D01*
X009228Y004210D02*
X009228Y004210D01*
X009228Y004051D02*
X009228Y004051D01*
X009228Y004044D02*
X009189Y004044D01*
X009112Y004059D01*
X009040Y004089D01*
X008976Y004132D01*
X008897Y004054D01*
X008729Y003984D01*
X008570Y003984D01*
X008570Y003688D01*
X008758Y003500D01*
X009727Y003500D01*
X009548Y003680D01*
X009499Y003797D01*
X009499Y004114D01*
X009481Y004132D01*
X009417Y004089D01*
X009344Y004059D01*
X009268Y004044D01*
X009228Y004044D01*
X009154Y004051D02*
X008891Y004051D01*
X008570Y003893D02*
X009499Y003893D01*
X009499Y004051D02*
X009303Y004051D01*
X009525Y003734D02*
X008570Y003734D01*
X008682Y003576D02*
X009652Y003576D01*
X009875Y003180D02*
X008625Y003180D01*
X008250Y003555D01*
X008250Y006180D01*
X008500Y006430D01*
X010125Y006430D01*
X010409Y006714D01*
X010409Y007442D01*
X010729Y007114D02*
X010798Y007182D01*
X010867Y007351D01*
X010867Y007533D01*
X010798Y007701D01*
X010669Y007830D01*
X010501Y007900D01*
X010318Y007900D01*
X010150Y007830D01*
X010114Y007794D01*
X010078Y007830D01*
X009910Y007900D01*
X009728Y007900D01*
X009560Y007830D01*
X009481Y007751D01*
X009417Y007794D01*
X009344Y007824D01*
X009268Y007840D01*
X009228Y007840D01*
X009189Y007840D01*
X009112Y007824D01*
X009040Y007794D01*
X008976Y007751D01*
X008931Y007796D01*
X010166Y009030D01*
X012080Y009030D01*
X012227Y009091D01*
X012260Y009124D01*
X012260Y008633D01*
X011972Y008345D01*
X011835Y008208D01*
X011760Y008027D01*
X011760Y006833D01*
X011835Y006652D01*
X012085Y006402D01*
X012222Y006265D01*
X012403Y006190D01*
X012703Y006190D01*
X012762Y006131D01*
X012961Y006048D01*
X013177Y006048D01*
X013375Y006131D01*
X013528Y006283D01*
X013610Y006482D01*
X013610Y006697D01*
X013528Y006896D01*
X013375Y007048D01*
X013177Y007131D01*
X013171Y007131D01*
X013076Y007170D01*
X012740Y007170D01*
X012740Y007334D01*
X012762Y007312D01*
X012961Y007229D01*
X013177Y007229D01*
X013375Y007312D01*
X013528Y007464D01*
X013579Y007588D01*
X013709Y007718D01*
X013709Y007422D01*
X013745Y007333D01*
X013813Y007266D01*
X013901Y007229D01*
X014197Y007229D01*
X014067Y007099D01*
X013943Y007048D01*
X013791Y006896D01*
X013709Y006697D01*
X013709Y006482D01*
X013791Y006283D01*
X013943Y006131D01*
X014142Y006048D01*
X014358Y006048D01*
X014557Y006131D01*
X014709Y006283D01*
X014760Y006406D01*
X015415Y007062D01*
X015490Y007242D01*
X015490Y009682D01*
X015593Y009640D01*
X015600Y009640D01*
X015600Y009059D01*
X015661Y008912D01*
X016195Y008378D01*
X016195Y007829D01*
X016232Y007741D01*
X016299Y007673D01*
X016360Y007648D01*
X016325Y007627D01*
X016291Y007594D01*
X016267Y007553D01*
X016255Y007507D01*
X016255Y007049D01*
X016673Y007049D01*
X016673Y006894D01*
X016827Y006894D01*
X016827Y006280D01*
X017046Y006280D01*
X017042Y006271D01*
X017042Y006175D01*
X016979Y006111D01*
X016930Y005994D01*
X016930Y005601D01*
X016841Y005638D01*
X016659Y005638D01*
X016491Y005568D01*
X016362Y005439D01*
X016292Y005271D01*
X016292Y005175D01*
X014229Y003111D01*
X014180Y002994D01*
X014180Y002367D01*
X014046Y002233D01*
X014000Y002122D01*
X013954Y002233D01*
X013803Y002384D01*
X013606Y002465D01*
X013394Y002465D01*
X013320Y002435D01*
X013320Y002494D01*
X013271Y002611D01*
X013181Y002701D01*
X012195Y003688D01*
X012195Y003776D01*
X012297Y003734D01*
X012479Y003734D01*
X012647Y003804D01*
X012726Y003882D01*
X012790Y003839D01*
X012862Y003809D01*
X012939Y003794D01*
X012978Y003794D01*
X012978Y004192D01*
X012978Y004590D01*
X012939Y004590D01*
X012862Y004574D01*
X012790Y004544D01*
X012726Y004501D01*
X012647Y004580D01*
X012479Y004650D01*
X012297Y004650D01*
X012128Y004580D01*
X012091Y004542D01*
X012056Y004576D01*
X010842Y005790D01*
X010867Y005851D01*
X010867Y006033D01*
X010798Y006201D01*
X010669Y006330D01*
X010533Y006386D01*
X010681Y006533D01*
X010729Y006651D01*
X010729Y007114D01*
X010729Y007063D02*
X011760Y007063D01*
X011760Y007221D02*
X010814Y007221D01*
X010867Y007380D02*
X011760Y007380D01*
X011760Y007538D02*
X010865Y007538D01*
X010799Y007697D02*
X011760Y007697D01*
X011760Y007855D02*
X010608Y007855D01*
X010211Y007855D02*
X010018Y007855D01*
X009620Y007855D02*
X008991Y007855D01*
X009149Y008014D02*
X011760Y008014D01*
X011820Y008172D02*
X009308Y008172D01*
X009466Y008331D02*
X011958Y008331D01*
X012116Y008489D02*
X009625Y008489D01*
X009783Y008648D02*
X012260Y008648D01*
X012260Y008806D02*
X009942Y008806D01*
X010100Y008965D02*
X012260Y008965D01*
X012259Y009123D02*
X012260Y009123D01*
X013688Y007697D02*
X013709Y007697D01*
X013709Y007538D02*
X013558Y007538D01*
X013443Y007380D02*
X013726Y007380D01*
X013978Y007063D02*
X013341Y007063D01*
X013520Y006904D02*
X013799Y006904D01*
X013729Y006746D02*
X013590Y006746D01*
X013610Y006587D02*
X013709Y006587D01*
X013731Y006429D02*
X013588Y006429D01*
X013515Y006270D02*
X013804Y006270D01*
X013990Y006112D02*
X013329Y006112D01*
X012809Y006112D02*
X010835Y006112D01*
X010867Y005953D02*
X016930Y005953D01*
X016930Y005795D02*
X010844Y005795D01*
X010997Y005636D02*
X016655Y005636D01*
X016845Y005636D02*
X016930Y005636D01*
X017250Y005930D02*
X017500Y006180D01*
X017250Y005930D02*
X017250Y003430D01*
X017000Y003180D01*
X017000Y001680D01*
X016750Y001430D01*
X016000Y001430D01*
X015500Y000930D01*
X016500Y000930D02*
X016750Y000930D01*
X017250Y001430D01*
X017750Y001430D01*
X018000Y001680D01*
X018000Y005430D01*
X018250Y005680D01*
X018662Y005478D02*
X019180Y005478D01*
X019180Y005636D02*
X018708Y005636D01*
X018708Y005589D02*
X018708Y005771D01*
X018638Y005939D01*
X018509Y006068D01*
X018341Y006138D01*
X018159Y006138D01*
X017991Y006068D01*
X017920Y005997D01*
X017958Y006089D01*
X017958Y006271D01*
X017888Y006439D01*
X017759Y006568D01*
X017591Y006638D01*
X017409Y006638D01*
X017245Y006570D01*
X017245Y006894D01*
X016827Y006894D01*
X016827Y007049D01*
X017245Y007049D01*
X017245Y007507D01*
X017233Y007553D01*
X017209Y007594D01*
X017175Y007627D01*
X017140Y007648D01*
X017201Y007673D01*
X017268Y007741D01*
X017305Y007829D01*
X017305Y008948D01*
X017268Y009036D01*
X017201Y009104D01*
X017113Y009140D01*
X016564Y009140D01*
X016400Y009304D01*
X016400Y009640D01*
X016407Y009640D01*
X016606Y009722D01*
X016758Y009874D01*
X016840Y010073D01*
X016840Y010287D01*
X016758Y010486D01*
X016606Y010638D01*
X016421Y010715D01*
X016484Y010735D01*
X016552Y010769D01*
X016613Y010814D01*
X016666Y010867D01*
X016711Y010928D01*
X016745Y010996D01*
X016768Y011068D01*
X016780Y011142D01*
X016780Y011160D01*
X016020Y011160D01*
X016020Y011200D01*
X016780Y011200D01*
X016780Y011218D01*
X016768Y011292D01*
X016745Y011364D01*
X016711Y011432D01*
X016666Y011493D01*
X016613Y011546D01*
X016552Y011591D01*
X016484Y011625D01*
X016421Y011645D01*
X016606Y011722D01*
X016758Y011874D01*
X016840Y012073D01*
X016840Y012287D01*
X016758Y012486D01*
X016606Y012638D01*
X016504Y012680D01*
X016606Y012722D01*
X016758Y012874D01*
X016840Y013073D01*
X016840Y013287D01*
X016758Y013486D01*
X016606Y013638D01*
X016504Y013680D01*
X016606Y013722D01*
X016758Y013874D01*
X016840Y014073D01*
X016840Y014287D01*
X016758Y014486D01*
X016606Y014638D01*
X016504Y014680D01*
X016606Y014722D01*
X016758Y014874D01*
X016840Y015073D01*
X016840Y015287D01*
X016758Y015486D01*
X016606Y015638D01*
X016504Y015680D01*
X016606Y015722D01*
X016624Y015740D01*
X017810Y015740D01*
X017810Y008801D01*
X017877Y008639D01*
X018195Y008321D01*
X018195Y007829D01*
X018232Y007741D01*
X018299Y007673D01*
X018360Y007648D01*
X018325Y007627D01*
X018291Y007594D01*
X018267Y007553D01*
X018255Y007507D01*
X018255Y007049D01*
X018673Y007049D01*
X018673Y006894D01*
X018827Y006894D01*
X018827Y006280D01*
X019089Y006280D01*
X019134Y006292D01*
X019175Y006315D01*
X019180Y006320D01*
X019180Y003063D01*
X018583Y002465D01*
X018394Y002465D01*
X018320Y002435D01*
X018320Y005222D01*
X018341Y005222D01*
X018509Y005292D01*
X018638Y005421D01*
X018708Y005589D01*
X018698Y005795D02*
X019180Y005795D01*
X019180Y005953D02*
X018624Y005953D01*
X018405Y006112D02*
X019180Y006112D01*
X019180Y006270D02*
X017958Y006270D01*
X017958Y006112D02*
X018095Y006112D01*
X018325Y006315D02*
X018366Y006292D01*
X018411Y006280D01*
X018673Y006280D01*
X018673Y006894D01*
X018255Y006894D01*
X018255Y006436D01*
X018267Y006390D01*
X018291Y006349D01*
X018325Y006315D01*
X018257Y006429D02*
X017893Y006429D01*
X017714Y006587D02*
X018255Y006587D01*
X018255Y006746D02*
X017245Y006746D01*
X017245Y006587D02*
X017286Y006587D01*
X017042Y006270D02*
X014696Y006270D01*
X014782Y006429D02*
X016257Y006429D01*
X016255Y006436D02*
X016267Y006390D01*
X016291Y006349D01*
X016325Y006315D01*
X016366Y006292D01*
X016411Y006280D01*
X016673Y006280D01*
X016673Y006894D01*
X016255Y006894D01*
X016255Y006436D01*
X016255Y006587D02*
X014941Y006587D01*
X015099Y006746D02*
X016255Y006746D01*
X016255Y007063D02*
X015416Y007063D01*
X015481Y007221D02*
X016255Y007221D01*
X016255Y007380D02*
X015490Y007380D01*
X015490Y007538D02*
X016263Y007538D01*
X016276Y007697D02*
X015490Y007697D01*
X015490Y007855D02*
X016195Y007855D01*
X016195Y008014D02*
X015490Y008014D01*
X015490Y008172D02*
X016195Y008172D01*
X016195Y008331D02*
X015490Y008331D01*
X015490Y008489D02*
X016084Y008489D01*
X015925Y008648D02*
X015490Y008648D01*
X015490Y008806D02*
X015767Y008806D01*
X015639Y008965D02*
X015490Y008965D01*
X015490Y009123D02*
X015600Y009123D01*
X015600Y009282D02*
X015490Y009282D01*
X015490Y009440D02*
X015600Y009440D01*
X015600Y009599D02*
X015490Y009599D01*
X016400Y009599D02*
X017810Y009599D01*
X017810Y009757D02*
X016641Y009757D01*
X016775Y009916D02*
X017810Y009916D01*
X017810Y010074D02*
X016840Y010074D01*
X016840Y010233D02*
X017810Y010233D01*
X017810Y010391D02*
X016797Y010391D01*
X016694Y010550D02*
X017810Y010550D01*
X017810Y010708D02*
X016436Y010708D01*
X016665Y010867D02*
X017810Y010867D01*
X017810Y011025D02*
X016754Y011025D01*
X016752Y011342D02*
X017810Y011342D01*
X017810Y011184D02*
X016020Y011184D01*
X016453Y011659D02*
X017810Y011659D01*
X017810Y011501D02*
X016658Y011501D01*
X016701Y011818D02*
X017810Y011818D01*
X017810Y011976D02*
X016800Y011976D01*
X016840Y012135D02*
X017810Y012135D01*
X017810Y012293D02*
X016838Y012293D01*
X016772Y012452D02*
X017810Y012452D01*
X017810Y012610D02*
X016634Y012610D01*
X016652Y012769D02*
X017810Y012769D01*
X017810Y012927D02*
X016780Y012927D01*
X016840Y013086D02*
X017810Y013086D01*
X017810Y013244D02*
X016840Y013244D01*
X016792Y013403D02*
X017810Y013403D01*
X017810Y013561D02*
X016683Y013561D01*
X016599Y013720D02*
X017810Y013720D01*
X017810Y013878D02*
X016759Y013878D01*
X016825Y014037D02*
X017810Y014037D01*
X017810Y014195D02*
X016840Y014195D01*
X016813Y014354D02*
X017810Y014354D01*
X017810Y014512D02*
X016732Y014512D01*
X016527Y014671D02*
X017810Y014671D01*
X017810Y014829D02*
X016713Y014829D01*
X016805Y014988D02*
X017810Y014988D01*
X017810Y015146D02*
X016840Y015146D01*
X016833Y015305D02*
X017810Y015305D01*
X017810Y015463D02*
X016767Y015463D01*
X016622Y015622D02*
X017810Y015622D01*
X018690Y015622D02*
X019739Y015622D01*
X019897Y015780D02*
X018690Y015780D01*
X018690Y015939D02*
X020056Y015939D01*
X020069Y015951D02*
X019319Y015201D01*
X019229Y015111D01*
X019180Y014994D01*
X019180Y009113D01*
X019113Y009140D01*
X018690Y009140D01*
X018690Y017306D01*
X018708Y017324D01*
X018785Y017509D01*
X018805Y017446D01*
X018839Y017378D01*
X018884Y017317D01*
X018937Y017264D01*
X018998Y017219D01*
X019066Y017185D01*
X019138Y017162D01*
X019212Y017150D01*
X019230Y017150D01*
X019230Y017910D01*
X019270Y017910D01*
X019270Y017150D01*
X019288Y017150D01*
X019362Y017162D01*
X019434Y017185D01*
X019502Y017219D01*
X019563Y017264D01*
X019616Y017317D01*
X019661Y017378D01*
X019695Y017446D01*
X019715Y017509D01*
X019792Y017324D01*
X019944Y017172D01*
X020143Y017090D01*
X020357Y017090D01*
X020556Y017172D01*
X020708Y017324D01*
X020750Y017426D01*
X020792Y017324D01*
X020944Y017172D01*
X021143Y017090D01*
X021357Y017090D01*
X021556Y017172D01*
X021708Y017324D01*
X021790Y017523D01*
X021790Y018337D01*
X021708Y018536D01*
X021556Y018688D01*
X021357Y018770D01*
X021143Y018770D01*
X020944Y018688D01*
X020792Y018536D01*
X020750Y018434D01*
X020740Y018458D01*
X020740Y018777D01*
X020665Y018958D01*
X020528Y019095D01*
X020278Y019345D01*
X020097Y019420D01*
X019667Y019420D01*
X019803Y019476D01*
X019954Y019627D01*
X020000Y019738D01*
X020046Y019627D01*
X020197Y019476D01*
X020394Y019395D01*
X020606Y019395D01*
X020803Y019476D01*
X020954Y019627D01*
X021000Y019738D01*
X021046Y019627D01*
X021197Y019476D01*
X021394Y019395D01*
X021606Y019395D01*
X021803Y019476D01*
X021954Y019627D01*
X022000Y019738D01*
X022046Y019627D01*
X022197Y019476D01*
X022394Y019395D01*
X022606Y019395D01*
X022803Y019476D01*
X022954Y019627D01*
X023000Y019738D01*
X023046Y019627D01*
X023197Y019476D01*
X023394Y019395D01*
X023606Y019395D01*
X023803Y019476D01*
X023954Y019627D01*
X024035Y019824D01*
X024035Y020036D01*
X023954Y020233D01*
X023803Y020384D01*
X023692Y020430D01*
X023803Y020476D01*
X023954Y020627D01*
X024035Y020824D01*
X024035Y021036D01*
X023954Y021233D01*
X023865Y021322D01*
X024105Y021284D01*
X024812Y021055D01*
X025474Y020717D01*
X026075Y020281D01*
X026601Y019755D01*
X027037Y019154D01*
X027375Y018492D01*
X027604Y017785D01*
X027720Y017052D01*
X027735Y016680D01*
X027735Y010909D01*
X027703Y010922D01*
X027214Y010922D01*
X027183Y010909D01*
X027152Y010922D01*
X026663Y010922D01*
X026632Y010909D01*
X026601Y010922D01*
X026112Y010922D01*
X026081Y010909D01*
X026050Y010922D01*
X025561Y010922D01*
X025530Y010909D01*
X025499Y010922D01*
X025009Y010922D01*
X024978Y010909D01*
X024947Y010922D01*
X024570Y010922D01*
X024570Y010994D01*
X024521Y011111D01*
X024431Y011201D01*
X024231Y011402D01*
X024305Y011476D01*
X024931Y012102D01*
X024953Y012154D01*
X025000Y012174D01*
X025070Y012145D01*
X025678Y012145D01*
X025766Y012181D01*
X025833Y012249D01*
X025846Y012280D01*
X026334Y012280D01*
X026523Y012092D01*
X026523Y011895D01*
X026559Y011807D01*
X026627Y011739D01*
X026715Y011703D01*
X027285Y011703D01*
X027373Y011739D01*
X027441Y011807D01*
X027477Y011895D01*
X027477Y012465D01*
X027441Y012553D01*
X027373Y012621D01*
X027285Y012657D01*
X027088Y012657D01*
X027043Y012703D01*
X027095Y012703D01*
X027270Y012775D01*
X027405Y012910D01*
X027477Y013085D01*
X027477Y013275D01*
X027405Y013450D01*
X027270Y013585D01*
X027095Y013657D01*
X027088Y013657D01*
X027043Y013703D01*
X027095Y013703D01*
X027270Y013775D01*
X027405Y013910D01*
X027477Y014085D01*
X027477Y014275D01*
X027405Y014450D01*
X027270Y014585D01*
X027095Y014657D01*
X026905Y014657D01*
X026730Y014585D01*
X026725Y014580D01*
X025846Y014580D01*
X025833Y014611D01*
X025766Y014679D01*
X025678Y014715D01*
X025070Y014715D01*
X025000Y014686D01*
X024930Y014715D01*
X024322Y014715D01*
X024234Y014679D01*
X024167Y014611D01*
X024154Y014580D01*
X023846Y014580D01*
X023833Y014611D01*
X023766Y014679D01*
X023694Y014708D01*
X023694Y015370D01*
X023645Y015487D01*
X023271Y015861D01*
X023181Y015951D01*
X023064Y016000D01*
X020186Y016000D01*
X020069Y015951D01*
X020250Y015680D02*
X019500Y014930D01*
X019500Y002930D01*
X018500Y001930D01*
X017680Y002371D02*
X017611Y002394D01*
X017537Y002405D01*
X017518Y002405D01*
X017518Y001948D01*
X017482Y001948D01*
X017482Y002405D01*
X017463Y002405D01*
X017389Y002394D01*
X017320Y002371D01*
X017320Y003047D01*
X017431Y003159D01*
X017521Y003249D01*
X017570Y003366D01*
X017570Y005722D01*
X017591Y005722D01*
X017759Y005792D01*
X017830Y005863D01*
X017792Y005771D01*
X017792Y005675D01*
X017729Y005611D01*
X017680Y005494D01*
X017680Y002371D01*
X017680Y002466D02*
X017320Y002466D01*
X017320Y002625D02*
X017680Y002625D01*
X017680Y002783D02*
X017320Y002783D01*
X017320Y002942D02*
X017680Y002942D01*
X017680Y003100D02*
X017373Y003100D01*
X017525Y003259D02*
X017680Y003259D01*
X017680Y003417D02*
X017570Y003417D01*
X017570Y003576D02*
X017680Y003576D01*
X017680Y003734D02*
X017570Y003734D01*
X017570Y003893D02*
X017680Y003893D01*
X017680Y004051D02*
X017570Y004051D01*
X017570Y004210D02*
X017680Y004210D01*
X017680Y004368D02*
X017570Y004368D01*
X017570Y004527D02*
X017680Y004527D01*
X017680Y004685D02*
X017570Y004685D01*
X017570Y004844D02*
X017680Y004844D01*
X017680Y005002D02*
X017570Y005002D01*
X017570Y005161D02*
X017680Y005161D01*
X017680Y005319D02*
X017570Y005319D01*
X017570Y005478D02*
X017680Y005478D01*
X017753Y005636D02*
X017570Y005636D01*
X017762Y005795D02*
X017802Y005795D01*
X016979Y006112D02*
X014510Y006112D01*
X015258Y006904D02*
X016673Y006904D01*
X016827Y006904D02*
X018673Y006904D01*
X018673Y006746D02*
X018827Y006746D01*
X018827Y006587D02*
X018673Y006587D01*
X018673Y006429D02*
X018827Y006429D01*
X018255Y007063D02*
X017245Y007063D01*
X017245Y007221D02*
X018255Y007221D01*
X018255Y007380D02*
X017245Y007380D01*
X017237Y007538D02*
X018263Y007538D01*
X018276Y007697D02*
X017224Y007697D01*
X017305Y007855D02*
X018195Y007855D01*
X018195Y008014D02*
X017305Y008014D01*
X017305Y008172D02*
X018195Y008172D01*
X018186Y008331D02*
X017305Y008331D01*
X017305Y008489D02*
X018027Y008489D01*
X017874Y008648D02*
X017305Y008648D01*
X017305Y008806D02*
X017810Y008806D01*
X017810Y008965D02*
X017298Y008965D01*
X017155Y009123D02*
X017810Y009123D01*
X017810Y009282D02*
X016423Y009282D01*
X016400Y009440D02*
X017810Y009440D01*
X018690Y009440D02*
X019180Y009440D01*
X019180Y009282D02*
X018690Y009282D01*
X019155Y009123D02*
X019180Y009123D01*
X019180Y009599D02*
X018690Y009599D01*
X018690Y009757D02*
X019180Y009757D01*
X019180Y009916D02*
X018690Y009916D01*
X018690Y010074D02*
X019180Y010074D01*
X019180Y010233D02*
X018690Y010233D01*
X018690Y010391D02*
X019180Y010391D01*
X019180Y010550D02*
X018690Y010550D01*
X018690Y010708D02*
X019180Y010708D01*
X019180Y010867D02*
X018690Y010867D01*
X018690Y011025D02*
X019180Y011025D01*
X019180Y011184D02*
X018690Y011184D01*
X018690Y011342D02*
X019180Y011342D01*
X019180Y011501D02*
X018690Y011501D01*
X018690Y011659D02*
X019180Y011659D01*
X019180Y011818D02*
X018690Y011818D01*
X018690Y011976D02*
X019180Y011976D01*
X019180Y012135D02*
X018690Y012135D01*
X018690Y012293D02*
X019180Y012293D01*
X019180Y012452D02*
X018690Y012452D01*
X018690Y012610D02*
X019180Y012610D01*
X019180Y012769D02*
X018690Y012769D01*
X018690Y012927D02*
X019180Y012927D01*
X019180Y013086D02*
X018690Y013086D01*
X018690Y013244D02*
X019180Y013244D01*
X019180Y013403D02*
X018690Y013403D01*
X018690Y013561D02*
X019180Y013561D01*
X019180Y013720D02*
X018690Y013720D01*
X018690Y013878D02*
X019180Y013878D01*
X019180Y014037D02*
X018690Y014037D01*
X018690Y014195D02*
X019180Y014195D01*
X019180Y014354D02*
X018690Y014354D01*
X018690Y014512D02*
X019180Y014512D01*
X019180Y014671D02*
X018690Y014671D01*
X018690Y014829D02*
X019180Y014829D01*
X019180Y014988D02*
X018690Y014988D01*
X018690Y015146D02*
X019263Y015146D01*
X019422Y015305D02*
X018690Y015305D01*
X018690Y015463D02*
X019580Y015463D01*
X020010Y014988D02*
X023054Y014988D01*
X023054Y015146D02*
X020169Y015146D01*
X020327Y015305D02*
X022923Y015305D01*
X022867Y015360D02*
X023054Y015173D01*
X023054Y014708D01*
X022982Y014679D01*
X022947Y014644D01*
X022906Y014655D01*
X022674Y014655D01*
X022674Y014228D01*
X022578Y014228D01*
X022578Y014655D01*
X022346Y014655D01*
X022301Y014643D01*
X022260Y014619D01*
X022226Y014586D01*
X022202Y014545D01*
X022190Y014499D01*
X022190Y014228D01*
X022578Y014228D01*
X022578Y014132D01*
X022674Y014132D01*
X022674Y013478D01*
X022578Y013478D01*
X022578Y013905D01*
X022578Y014132D01*
X022190Y014132D01*
X022190Y013861D01*
X022202Y013815D01*
X022208Y013805D01*
X022202Y013795D01*
X022190Y013749D01*
X022190Y013478D01*
X022578Y013478D01*
X022578Y013382D01*
X022674Y013382D01*
X022674Y012955D01*
X022906Y012955D01*
X022947Y012966D01*
X022982Y012931D01*
X023054Y012901D01*
X023054Y012550D01*
X023042Y012521D01*
X023042Y012339D01*
X023093Y012215D01*
X023070Y012215D01*
X022982Y012179D01*
X022947Y012144D01*
X022906Y012155D01*
X022674Y012155D01*
X022674Y011728D01*
X022578Y011728D01*
X022578Y012155D01*
X022346Y012155D01*
X022301Y012143D01*
X022260Y012119D01*
X022226Y012086D01*
X022202Y012045D01*
X022190Y011999D01*
X022190Y011728D01*
X022578Y011728D01*
X022578Y011632D01*
X022190Y011632D01*
X022190Y011361D01*
X022198Y011331D01*
X020938Y010070D01*
X020888Y010189D01*
X020759Y010318D01*
X020591Y010388D01*
X020409Y010388D01*
X020241Y010318D01*
X020112Y010189D01*
X020042Y010021D01*
X020042Y009925D01*
X019820Y009703D01*
X019820Y014797D01*
X020383Y015360D01*
X022867Y015360D01*
X023000Y015680D02*
X020250Y015680D01*
X019852Y014829D02*
X023054Y014829D01*
X022974Y014671D02*
X019820Y014671D01*
X019820Y014512D02*
X022194Y014512D01*
X022190Y014354D02*
X019820Y014354D01*
X019820Y014195D02*
X022578Y014195D01*
X022578Y014037D02*
X022674Y014037D01*
X022674Y013878D02*
X022578Y013878D01*
X022578Y013720D02*
X022674Y013720D01*
X022674Y013561D02*
X022578Y013561D01*
X022578Y013403D02*
X019820Y013403D01*
X019820Y013561D02*
X022190Y013561D01*
X022190Y013720D02*
X019820Y013720D01*
X019820Y013878D02*
X022190Y013878D01*
X022190Y014037D02*
X019820Y014037D01*
X019820Y013244D02*
X022190Y013244D01*
X022190Y013111D02*
X022202Y013065D01*
X022226Y013024D01*
X022260Y012991D01*
X022301Y012967D01*
X022346Y012955D01*
X022578Y012955D01*
X022578Y013382D01*
X022190Y013382D01*
X022190Y013111D01*
X022197Y013086D02*
X019820Y013086D01*
X019820Y012927D02*
X022992Y012927D01*
X023054Y012769D02*
X019820Y012769D01*
X019820Y012610D02*
X023054Y012610D01*
X023042Y012452D02*
X019820Y012452D01*
X019820Y012293D02*
X023061Y012293D01*
X023374Y012556D02*
X023500Y012430D01*
X023374Y012556D02*
X023374Y013430D01*
X022674Y013244D02*
X022578Y013244D01*
X022578Y013086D02*
X022674Y013086D01*
X022674Y012135D02*
X022578Y012135D01*
X022578Y011976D02*
X022674Y011976D01*
X022674Y011818D02*
X022578Y011818D01*
X022578Y011659D02*
X019820Y011659D01*
X019820Y011501D02*
X022190Y011501D01*
X022195Y011342D02*
X019820Y011342D01*
X019820Y011184D02*
X022051Y011184D01*
X021892Y011025D02*
X019820Y011025D01*
X019820Y010867D02*
X021734Y010867D01*
X021575Y010708D02*
X019820Y010708D01*
X019820Y010550D02*
X021417Y010550D01*
X021258Y010391D02*
X019820Y010391D01*
X019820Y010233D02*
X020155Y010233D01*
X020064Y010074D02*
X019820Y010074D01*
X019820Y009916D02*
X020033Y009916D01*
X019874Y009757D02*
X019820Y009757D01*
X020000Y009430D02*
X020000Y002430D01*
X019500Y001930D01*
X020500Y001930D02*
X020500Y009180D01*
X022500Y011180D01*
X023000Y011180D01*
X023374Y011554D01*
X023374Y011680D01*
X023500Y011180D02*
X024000Y011180D01*
X024250Y010930D01*
X024250Y010298D01*
X024152Y010200D01*
X024703Y010200D01*
X025254Y010200D01*
X025530Y009490D02*
X025561Y009477D01*
X025930Y009477D01*
X025930Y009257D01*
X025862Y009189D01*
X025792Y009021D01*
X025792Y008839D01*
X025862Y008671D01*
X025991Y008542D01*
X026159Y008472D01*
X026341Y008472D01*
X026509Y008542D01*
X026638Y008671D01*
X026708Y008839D01*
X026708Y009021D01*
X026638Y009189D01*
X026570Y009257D01*
X026570Y009477D01*
X026601Y009477D01*
X026632Y009490D01*
X026663Y009477D01*
X027152Y009477D01*
X027183Y009490D01*
X027214Y009477D01*
X027703Y009477D01*
X027735Y009491D01*
X027735Y005805D01*
X027725Y005810D01*
X027679Y005823D01*
X027477Y005823D01*
X027477Y005179D01*
X027440Y005179D01*
X027440Y005823D01*
X027238Y005823D01*
X027192Y005810D01*
X027183Y005805D01*
X027174Y005810D01*
X027128Y005823D01*
X026926Y005823D01*
X026926Y005179D01*
X026889Y005179D01*
X026889Y005823D01*
X026713Y005823D01*
X026689Y005846D01*
X026601Y005883D01*
X026570Y005883D01*
X026570Y006103D01*
X026638Y006171D01*
X026708Y006339D01*
X026708Y006521D01*
X026638Y006689D01*
X026509Y006818D01*
X026341Y006888D01*
X026159Y006888D01*
X025991Y006818D01*
X025862Y006689D01*
X025792Y006521D01*
X025792Y006339D01*
X025862Y006171D01*
X025930Y006103D01*
X025930Y005823D01*
X025824Y005823D01*
X025824Y005179D01*
X025787Y005179D01*
X025787Y005823D01*
X025610Y005823D01*
X025587Y005846D01*
X025570Y005853D01*
X025638Y005921D01*
X025708Y006089D01*
X025708Y006271D01*
X025638Y006439D01*
X025509Y006568D01*
X025341Y006638D01*
X025208Y006638D01*
X025208Y006771D01*
X025138Y006939D01*
X025009Y007068D01*
X024841Y007138D01*
X024659Y007138D01*
X024491Y007068D01*
X024362Y006939D01*
X024292Y006771D01*
X024292Y006589D01*
X024362Y006421D01*
X024430Y006353D01*
X024430Y005871D01*
X024427Y005870D01*
X024396Y005883D01*
X023907Y005883D01*
X023876Y005870D01*
X023845Y005883D01*
X023359Y005883D01*
X023359Y005946D01*
X023383Y005969D01*
X023419Y006057D01*
X023419Y006547D01*
X023406Y006578D01*
X023419Y006609D01*
X023419Y007098D01*
X023406Y007129D01*
X023419Y007160D01*
X023419Y007649D01*
X023406Y007680D01*
X023419Y007711D01*
X023419Y008200D01*
X023406Y008231D01*
X023419Y008262D01*
X023419Y008751D01*
X023406Y008782D01*
X023419Y008813D01*
X023419Y009303D01*
X023406Y009334D01*
X023419Y009365D01*
X023419Y009537D01*
X023582Y009537D01*
X023582Y010181D01*
X023619Y010181D01*
X023619Y009537D01*
X023795Y009537D01*
X023819Y009514D01*
X023907Y009477D01*
X024396Y009477D01*
X024427Y009490D01*
X024458Y009477D01*
X024947Y009477D01*
X024978Y009490D01*
X025009Y009477D01*
X025499Y009477D01*
X025530Y009490D01*
X025834Y009123D02*
X023419Y009123D01*
X023419Y008965D02*
X025792Y008965D01*
X025806Y008806D02*
X023416Y008806D01*
X023419Y008648D02*
X025885Y008648D01*
X026118Y008489D02*
X023419Y008489D01*
X023419Y008331D02*
X027735Y008331D01*
X027735Y008489D02*
X026382Y008489D01*
X026615Y008648D02*
X027735Y008648D01*
X027735Y008806D02*
X026694Y008806D01*
X026708Y008965D02*
X027735Y008965D01*
X027735Y009123D02*
X026666Y009123D01*
X026570Y009282D02*
X027735Y009282D01*
X027735Y009440D02*
X026570Y009440D01*
X026250Y008930D02*
X026250Y010093D01*
X026356Y010200D01*
X025930Y009440D02*
X023419Y009440D01*
X023419Y009282D02*
X025930Y009282D01*
X024750Y008930D02*
X024000Y008930D01*
X023600Y009330D01*
X023600Y010200D01*
X023600Y008080D01*
X023750Y007930D01*
X023750Y006430D01*
X023071Y005751D01*
X022697Y005751D01*
X022715Y005769D02*
X022715Y005732D01*
X023181Y005732D01*
X023196Y005769D01*
X022715Y005769D01*
X023366Y005953D02*
X024430Y005953D01*
X024430Y006112D02*
X023419Y006112D01*
X023419Y006270D02*
X024430Y006270D01*
X024359Y006429D02*
X023419Y006429D01*
X023410Y006587D02*
X024293Y006587D01*
X024292Y006746D02*
X023419Y006746D01*
X023419Y006904D02*
X024347Y006904D01*
X024485Y007063D02*
X023419Y007063D01*
X023419Y007221D02*
X027735Y007221D01*
X027735Y007063D02*
X025015Y007063D01*
X025153Y006904D02*
X027735Y006904D01*
X027735Y006746D02*
X026582Y006746D01*
X026680Y006587D02*
X027735Y006587D01*
X027735Y006429D02*
X026708Y006429D01*
X026679Y006270D02*
X027735Y006270D01*
X027735Y006112D02*
X026579Y006112D01*
X026570Y005953D02*
X027735Y005953D01*
X027477Y005795D02*
X027440Y005795D01*
X027440Y005636D02*
X027477Y005636D01*
X027477Y005478D02*
X027440Y005478D01*
X027440Y005319D02*
X027477Y005319D01*
X027440Y005179D02*
X027440Y005142D01*
X027284Y005142D01*
X026926Y005142D01*
X026926Y005179D01*
X027440Y005179D01*
X027440Y005161D02*
X026926Y005161D01*
X026907Y005160D02*
X026907Y007023D01*
X026750Y007180D01*
X026000Y007180D01*
X025875Y007055D01*
X024000Y008930D01*
X023619Y009599D02*
X023582Y009599D01*
X023582Y009757D02*
X023619Y009757D01*
X023619Y009916D02*
X023582Y009916D01*
X023582Y010074D02*
X023619Y010074D01*
X023582Y010181D02*
X023224Y010181D01*
X023224Y010046D01*
X022569Y010046D01*
X022883Y010360D01*
X023064Y010360D01*
X023181Y010409D01*
X023224Y010451D01*
X023224Y010218D01*
X023582Y010218D01*
X023582Y010181D01*
X023224Y010233D02*
X022755Y010233D01*
X022597Y010074D02*
X023224Y010074D01*
X023224Y010391D02*
X023139Y010391D01*
X023000Y010680D02*
X023500Y011180D01*
X023000Y010680D02*
X022750Y010680D01*
X021000Y008930D01*
X021000Y003680D01*
X021500Y003930D02*
X022250Y003180D01*
X024665Y003180D01*
X024415Y002680D02*
X024665Y002430D01*
X024665Y001095D01*
X024500Y000930D01*
X024182Y000601D02*
X024112Y000671D01*
X024042Y000839D01*
X024042Y001021D01*
X024112Y001189D01*
X024241Y001318D01*
X024345Y001361D01*
X024345Y002005D01*
X024333Y002010D01*
X024265Y002078D01*
X024229Y002166D01*
X024229Y002360D01*
X023703Y002360D01*
X023749Y002336D01*
X023810Y002293D01*
X023863Y002240D01*
X023906Y002179D01*
X023940Y002112D01*
X023964Y002041D01*
X023975Y001967D01*
X023975Y001948D01*
X023518Y001948D01*
X023518Y001912D01*
X023975Y001912D01*
X023975Y001893D01*
X023964Y001819D01*
X023940Y001748D01*
X023906Y001681D01*
X023863Y001620D01*
X023810Y001567D01*
X023749Y001524D01*
X023682Y001490D01*
X023611Y001466D01*
X023537Y001455D01*
X023518Y001455D01*
X023518Y001912D01*
X023482Y001912D01*
X023482Y001455D01*
X023463Y001455D01*
X023389Y001466D01*
X023318Y001490D01*
X023251Y001524D01*
X023190Y001567D01*
X023137Y001620D01*
X023094Y001681D01*
X023060Y001748D01*
X023036Y001819D01*
X023025Y001893D01*
X023025Y001912D01*
X023482Y001912D01*
X023482Y001948D01*
X023025Y001948D01*
X023025Y001967D01*
X023036Y002041D01*
X023060Y002112D01*
X023094Y002179D01*
X023137Y002240D01*
X023190Y002293D01*
X023251Y002336D01*
X023297Y002360D01*
X022703Y002360D01*
X022749Y002336D01*
X022810Y002293D01*
X022863Y002240D01*
X022906Y002179D01*
X022940Y002112D01*
X022964Y002041D01*
X022975Y001967D01*
X022975Y001948D01*
X022518Y001948D01*
X022518Y001912D01*
X022975Y001912D01*
X022975Y001893D01*
X022964Y001819D01*
X022940Y001748D01*
X022906Y001681D01*
X022863Y001620D01*
X022810Y001567D01*
X022749Y001524D01*
X022682Y001490D01*
X022611Y001466D01*
X022537Y001455D01*
X022518Y001455D01*
X022518Y001912D01*
X022482Y001912D01*
X022482Y001455D01*
X022463Y001455D01*
X022389Y001466D01*
X022320Y001489D01*
X022320Y001371D01*
X022389Y001394D01*
X022463Y001405D01*
X022482Y001405D01*
X022482Y000948D01*
X022518Y000948D01*
X022518Y001405D01*
X022537Y001405D01*
X022611Y001394D01*
X022682Y001370D01*
X022749Y001336D01*
X022810Y001293D01*
X022863Y001240D01*
X022906Y001179D01*
X022940Y001112D01*
X022964Y001041D01*
X022975Y000967D01*
X022975Y000948D01*
X022518Y000948D01*
X022518Y000912D01*
X022975Y000912D01*
X022975Y000893D01*
X022964Y000819D01*
X022940Y000748D01*
X022906Y000681D01*
X022863Y000620D01*
X022810Y000567D01*
X022749Y000524D01*
X022682Y000490D01*
X022611Y000466D01*
X022537Y000455D01*
X022518Y000455D01*
X022518Y000912D01*
X022482Y000912D01*
X022482Y000455D01*
X022463Y000455D01*
X022389Y000466D01*
X022318Y000490D01*
X022251Y000524D01*
X022190Y000567D01*
X022137Y000620D01*
X022094Y000681D01*
X022060Y000748D01*
X022050Y000777D01*
X021992Y000720D01*
X021954Y000627D01*
X021803Y000476D01*
X021728Y000445D01*
X023000Y000445D01*
X023372Y000460D01*
X023402Y000464D01*
X023389Y000466D01*
X023318Y000490D01*
X023251Y000524D01*
X023190Y000567D01*
X023137Y000620D01*
X023094Y000681D01*
X023060Y000748D01*
X023036Y000819D01*
X023025Y000893D01*
X023025Y000912D01*
X023482Y000912D01*
X023482Y000948D01*
X023025Y000948D01*
X023025Y000967D01*
X023036Y001041D01*
X023060Y001112D01*
X023094Y001179D01*
X023137Y001240D01*
X023190Y001293D01*
X023251Y001336D01*
X023318Y001370D01*
X023389Y001394D01*
X023463Y001405D01*
X023482Y001405D01*
X023482Y000948D01*
X023518Y000948D01*
X023518Y001405D01*
X023537Y001405D01*
X023611Y001394D01*
X023682Y001370D01*
X023749Y001336D01*
X023810Y001293D01*
X023863Y001240D01*
X023906Y001179D01*
X023940Y001112D01*
X023964Y001041D01*
X023975Y000967D01*
X023975Y000948D01*
X023518Y000948D01*
X023518Y000912D01*
X023975Y000912D01*
X023975Y000893D01*
X023964Y000819D01*
X023940Y000748D01*
X023906Y000681D01*
X023863Y000620D01*
X023810Y000567D01*
X023749Y000524D01*
X023737Y000518D01*
X024105Y000576D01*
X024182Y000601D01*
X024090Y000723D02*
X023928Y000723D01*
X023973Y000881D02*
X024042Y000881D01*
X024050Y001040D02*
X023964Y001040D01*
X023893Y001198D02*
X024121Y001198D01*
X024333Y001357D02*
X023710Y001357D01*
X023732Y001515D02*
X024345Y001515D01*
X024345Y001674D02*
X023901Y001674D01*
X023966Y001832D02*
X024345Y001832D01*
X024345Y001991D02*
X023972Y001991D01*
X023922Y002149D02*
X024235Y002149D01*
X024229Y002308D02*
X023789Y002308D01*
X023518Y001832D02*
X023482Y001832D01*
X023482Y001674D02*
X023518Y001674D01*
X023518Y001515D02*
X023482Y001515D01*
X023482Y001357D02*
X023518Y001357D01*
X023518Y001198D02*
X023482Y001198D01*
X023482Y001040D02*
X023518Y001040D01*
X023107Y001198D02*
X022893Y001198D01*
X022964Y001040D02*
X023036Y001040D01*
X023027Y000881D02*
X022973Y000881D01*
X022928Y000723D02*
X023072Y000723D01*
X023195Y000564D02*
X022805Y000564D01*
X022518Y000564D02*
X022482Y000564D01*
X022482Y000723D02*
X022518Y000723D01*
X022518Y000881D02*
X022482Y000881D01*
X022482Y001040D02*
X022518Y001040D01*
X022518Y001198D02*
X022482Y001198D01*
X022482Y001357D02*
X022518Y001357D01*
X022518Y001515D02*
X022482Y001515D01*
X022482Y001674D02*
X022518Y001674D01*
X022518Y001832D02*
X022482Y001832D01*
X022901Y001674D02*
X023099Y001674D01*
X023034Y001832D02*
X022966Y001832D01*
X022972Y001991D02*
X023028Y001991D01*
X023078Y002149D02*
X022922Y002149D01*
X022789Y002308D02*
X023211Y002308D01*
X022250Y002680D02*
X024415Y002680D01*
X024985Y002005D02*
X024998Y002010D01*
X025046Y002058D01*
X025068Y002046D01*
X025114Y002033D01*
X025316Y002033D01*
X025316Y002412D01*
X025353Y002412D01*
X025353Y002033D01*
X025555Y002033D01*
X025601Y002046D01*
X025642Y002069D01*
X025676Y002103D01*
X025699Y002144D01*
X025711Y002190D01*
X025711Y002385D01*
X025771Y002360D01*
X026314Y002360D01*
X026431Y002409D01*
X026521Y002499D01*
X026760Y002738D01*
X026815Y002783D01*
X027000Y002783D01*
X027089Y002819D01*
X027101Y002832D01*
X027037Y002706D01*
X026601Y002105D01*
X026075Y001579D01*
X025474Y001143D01*
X024958Y000880D01*
X024958Y000965D01*
X024985Y001032D01*
X024985Y002005D01*
X024985Y001991D02*
X026486Y001991D01*
X026633Y002149D02*
X025701Y002149D01*
X025711Y002308D02*
X026748Y002308D01*
X026750Y002430D02*
X027250Y002930D01*
X027250Y003475D01*
X026795Y003930D01*
X026795Y004267D01*
X026614Y004267D01*
X026568Y004255D01*
X026546Y004243D01*
X026498Y004291D01*
X026410Y004327D01*
X026000Y004327D01*
X025911Y004291D01*
X025870Y004250D01*
X025748Y004250D01*
X025735Y004282D01*
X025667Y004350D01*
X025579Y004387D01*
X025090Y004387D01*
X025002Y004350D01*
X025000Y004348D01*
X024998Y004350D01*
X024910Y004387D01*
X024421Y004387D01*
X024401Y004378D01*
X024423Y004400D01*
X024441Y004445D01*
X024458Y004438D01*
X024947Y004438D01*
X024978Y004451D01*
X025009Y004438D01*
X025499Y004438D01*
X025587Y004475D01*
X025610Y004498D01*
X025787Y004498D01*
X025787Y005142D01*
X025824Y005142D01*
X025824Y004498D01*
X026000Y004498D01*
X026023Y004475D01*
X026112Y004438D01*
X026601Y004438D01*
X026689Y004475D01*
X026713Y004498D01*
X026889Y004498D01*
X026889Y005142D01*
X026926Y005142D01*
X026926Y004498D01*
X027128Y004498D01*
X027174Y004510D01*
X027183Y004516D01*
X027192Y004510D01*
X027238Y004498D01*
X027440Y004498D01*
X027440Y005142D01*
X027477Y005142D01*
X027477Y004498D01*
X027671Y004498D01*
X027604Y004075D01*
X027375Y003368D01*
X027193Y003011D01*
X027193Y003385D01*
X027156Y003473D01*
X027089Y003541D01*
X027000Y003577D01*
X026590Y003577D01*
X026502Y003541D01*
X026454Y003493D01*
X026432Y003505D01*
X026386Y003517D01*
X026205Y003517D01*
X026205Y003180D01*
X026205Y003180D01*
X026205Y003385D01*
X026250Y003430D01*
X026295Y003430D01*
X026795Y003930D01*
X026795Y003930D01*
X026795Y003930D01*
X026795Y003593D01*
X026614Y003593D01*
X026568Y003605D01*
X026546Y003617D01*
X026498Y003569D01*
X026410Y003533D01*
X026000Y003533D01*
X025911Y003569D01*
X025870Y003610D01*
X025748Y003610D01*
X025735Y003578D01*
X025712Y003555D01*
X025735Y003532D01*
X025771Y003444D01*
X025771Y003196D01*
X025867Y003100D01*
X025867Y003100D01*
X025867Y003180D01*
X026205Y003180D01*
X026205Y003517D01*
X026024Y003517D01*
X025978Y003505D01*
X025937Y003482D01*
X025903Y003448D01*
X025880Y003407D01*
X025867Y003361D01*
X025867Y003180D01*
X026205Y003180D01*
X026205Y003180D01*
X026205Y003259D02*
X026205Y003259D01*
X026205Y003417D02*
X026205Y003417D01*
X025885Y003417D02*
X025771Y003417D01*
X025771Y003259D02*
X025867Y003259D01*
X025335Y003180D02*
X025835Y002680D01*
X026250Y002680D01*
X026545Y002975D01*
X026795Y003180D01*
X027193Y003259D02*
X027319Y003259D01*
X027390Y003417D02*
X027180Y003417D01*
X027005Y003576D02*
X027442Y003576D01*
X027493Y003734D02*
X027129Y003734D01*
X027133Y003749D02*
X027133Y003930D01*
X027133Y004111D01*
X027120Y004157D01*
X027097Y004198D01*
X027063Y004232D01*
X027022Y004255D01*
X026976Y004267D01*
X026795Y004267D01*
X026795Y003930D01*
X026907Y004042D01*
X026907Y005160D01*
X027459Y005160D01*
X027440Y005002D02*
X027477Y005002D01*
X027477Y004844D02*
X027440Y004844D01*
X027440Y004685D02*
X027477Y004685D01*
X027477Y004527D02*
X027440Y004527D01*
X027651Y004368D02*
X025624Y004368D01*
X025787Y004527D02*
X025824Y004527D01*
X025824Y004685D02*
X025787Y004685D01*
X025787Y004844D02*
X025824Y004844D01*
X025824Y005002D02*
X025787Y005002D01*
X025805Y005160D02*
X025750Y005215D01*
X025750Y006930D01*
X025875Y007055D01*
X025918Y006746D02*
X025208Y006746D01*
X025464Y006587D02*
X025820Y006587D01*
X025792Y006429D02*
X025643Y006429D01*
X025708Y006270D02*
X025821Y006270D01*
X025921Y006112D02*
X025708Y006112D01*
X025651Y005953D02*
X025930Y005953D01*
X025824Y005795D02*
X025787Y005795D01*
X025787Y005636D02*
X025824Y005636D01*
X025824Y005478D02*
X025787Y005478D01*
X025787Y005319D02*
X025824Y005319D01*
X025254Y005160D02*
X025250Y005164D01*
X025250Y006180D01*
X024750Y006680D02*
X024750Y005208D01*
X024703Y005160D01*
X024152Y005160D02*
X024152Y004582D01*
X023750Y004180D01*
X022750Y004180D01*
X022500Y003680D02*
X022000Y004180D01*
X022000Y007180D01*
X022250Y007430D01*
X022671Y007430D01*
X022697Y007404D01*
X022697Y007956D02*
X021776Y007956D01*
X021500Y007680D01*
X021500Y003930D01*
X022500Y003680D02*
X024000Y003680D01*
X024250Y003930D01*
X024665Y003930D01*
X024955Y004368D02*
X025045Y004368D01*
X025335Y003930D02*
X026205Y003930D01*
X026505Y003576D02*
X026585Y003576D01*
X026795Y003593D02*
X026976Y003593D01*
X027022Y003605D01*
X027063Y003628D01*
X027097Y003662D01*
X027120Y003703D01*
X027133Y003749D01*
X027133Y003893D02*
X027545Y003893D01*
X027596Y004051D02*
X027133Y004051D01*
X027133Y003930D02*
X026795Y003930D01*
X026795Y003593D01*
X026795Y003734D02*
X026795Y003734D01*
X026795Y003893D02*
X026795Y003893D01*
X026795Y003930D02*
X026795Y003930D01*
X027133Y003930D01*
X027085Y004210D02*
X027626Y004210D01*
X026926Y004527D02*
X026889Y004527D01*
X026889Y004685D02*
X026926Y004685D01*
X026926Y004844D02*
X026889Y004844D01*
X026889Y005002D02*
X026926Y005002D01*
X026926Y005319D02*
X026889Y005319D01*
X026889Y005478D02*
X026926Y005478D01*
X026926Y005636D02*
X026889Y005636D01*
X026889Y005795D02*
X026926Y005795D01*
X026250Y005267D02*
X026250Y006430D01*
X026250Y005267D02*
X026356Y005160D01*
X026795Y004210D02*
X026795Y004210D01*
X026795Y004051D02*
X026795Y004051D01*
X025905Y003576D02*
X025733Y003576D01*
X027002Y002783D02*
X027077Y002783D01*
X026978Y002625D02*
X026647Y002625D01*
X026750Y002430D02*
X025335Y002430D01*
X025316Y002308D02*
X025353Y002308D01*
X025353Y002149D02*
X025316Y002149D01*
X024985Y001832D02*
X026328Y001832D01*
X026169Y001674D02*
X024985Y001674D01*
X024985Y001515D02*
X025986Y001515D01*
X025768Y001357D02*
X024985Y001357D01*
X024985Y001198D02*
X025550Y001198D01*
X025271Y001040D02*
X024985Y001040D01*
X024960Y000881D02*
X024958Y000881D01*
X024031Y000564D02*
X023805Y000564D01*
X023290Y001357D02*
X022710Y001357D01*
X022732Y001515D02*
X023268Y001515D01*
X022072Y000723D02*
X021995Y000723D01*
X021891Y000564D02*
X022195Y000564D01*
X021750Y000930D02*
X021500Y000930D01*
X021750Y000930D02*
X022000Y001180D01*
X022000Y002430D01*
X022250Y002680D01*
X019180Y003100D02*
X018320Y003100D01*
X018320Y002942D02*
X019059Y002942D01*
X018900Y002783D02*
X018320Y002783D01*
X018320Y002625D02*
X018742Y002625D01*
X018583Y002466D02*
X018320Y002466D01*
X018320Y003259D02*
X019180Y003259D01*
X019180Y003417D02*
X018320Y003417D01*
X018320Y003576D02*
X019180Y003576D01*
X019180Y003734D02*
X018320Y003734D01*
X018320Y003893D02*
X019180Y003893D01*
X019180Y004051D02*
X018320Y004051D01*
X018320Y004210D02*
X019180Y004210D01*
X019180Y004368D02*
X018320Y004368D01*
X018320Y004527D02*
X019180Y004527D01*
X019180Y004685D02*
X018320Y004685D01*
X018320Y004844D02*
X019180Y004844D01*
X019180Y005002D02*
X018320Y005002D01*
X018320Y005161D02*
X019180Y005161D01*
X019180Y005319D02*
X018536Y005319D01*
X016750Y005180D02*
X014500Y002930D01*
X014500Y001930D01*
X014121Y002308D02*
X013879Y002308D01*
X013989Y002149D02*
X014011Y002149D01*
X014180Y002466D02*
X013320Y002466D01*
X013258Y002625D02*
X014180Y002625D01*
X014180Y002783D02*
X013100Y002783D01*
X012941Y002942D02*
X014180Y002942D01*
X014224Y003100D02*
X012783Y003100D01*
X012624Y003259D02*
X014376Y003259D01*
X014534Y003417D02*
X012466Y003417D01*
X012307Y003576D02*
X014693Y003576D01*
X014851Y003734D02*
X012195Y003734D01*
X011875Y003555D02*
X013000Y002430D01*
X013000Y001430D01*
X013500Y000930D01*
X015500Y001930D02*
X015500Y003180D01*
X016750Y004430D01*
X016750Y003680D02*
X016500Y003430D01*
X016500Y001930D01*
X017482Y001991D02*
X017518Y001991D01*
X017518Y002149D02*
X017482Y002149D01*
X017482Y002308D02*
X017518Y002308D01*
X015327Y004210D02*
X014617Y004210D01*
X014617Y004283D02*
X014617Y004101D01*
X014548Y003932D01*
X014419Y003804D01*
X014251Y003734D01*
X014068Y003734D01*
X013900Y003804D01*
X013864Y003840D01*
X013828Y003804D01*
X013660Y003734D01*
X013478Y003734D01*
X013310Y003804D01*
X013231Y003882D01*
X013167Y003839D01*
X013094Y003809D01*
X013018Y003794D01*
X012978Y003794D01*
X012978Y004192D01*
X012978Y004192D01*
X012978Y004590D01*
X013018Y004590D01*
X013094Y004574D01*
X013167Y004544D01*
X013231Y004501D01*
X013310Y004580D01*
X013478Y004650D01*
X013660Y004650D01*
X013828Y004580D01*
X013864Y004544D01*
X013900Y004580D01*
X014068Y004650D01*
X014251Y004650D01*
X014419Y004580D01*
X014548Y004451D01*
X014617Y004283D01*
X014582Y004368D02*
X015485Y004368D01*
X015644Y004527D02*
X014472Y004527D01*
X014597Y004051D02*
X015168Y004051D01*
X015010Y003893D02*
X014508Y003893D01*
X013256Y004527D02*
X013193Y004527D01*
X012978Y004527D02*
X012978Y004527D01*
X012978Y004368D02*
X012978Y004368D01*
X012978Y004210D02*
X012978Y004210D01*
X012978Y004192D02*
X012978Y004192D01*
X012978Y004051D02*
X012978Y004051D01*
X012978Y003893D02*
X012978Y003893D01*
X012763Y004527D02*
X012701Y004527D01*
X011948Y004685D02*
X015802Y004685D01*
X015961Y004844D02*
X011789Y004844D01*
X011631Y005002D02*
X016119Y005002D01*
X016278Y005161D02*
X011472Y005161D01*
X011314Y005319D02*
X016312Y005319D01*
X016400Y005478D02*
X011155Y005478D01*
X010409Y005771D02*
X011875Y004305D01*
X011875Y003555D01*
X010500Y002555D02*
X009875Y003180D01*
X010500Y002555D02*
X010500Y001930D01*
X009228Y005636D02*
X009228Y005636D01*
X009228Y005795D02*
X009228Y005795D01*
X009750Y006805D02*
X008125Y006805D01*
X007875Y006555D01*
X009228Y007442D02*
X009228Y007840D01*
X009228Y007442D01*
X009228Y007442D01*
X009228Y007538D02*
X009228Y007538D01*
X009228Y007697D02*
X009228Y007697D01*
X009819Y007442D02*
X009819Y006874D01*
X009750Y006805D01*
X010576Y006429D02*
X012059Y006429D01*
X011900Y006587D02*
X010703Y006587D01*
X010729Y006746D02*
X011796Y006746D01*
X011760Y006904D02*
X010729Y006904D01*
X010729Y006270D02*
X012217Y006270D01*
X012740Y007221D02*
X014189Y007221D01*
X016673Y006746D02*
X016827Y006746D01*
X016827Y006587D02*
X016673Y006587D01*
X016673Y006429D02*
X016827Y006429D01*
X020000Y009430D02*
X020500Y009930D01*
X020936Y010074D02*
X020941Y010074D01*
X020845Y010233D02*
X021100Y010233D01*
X022190Y011818D02*
X019820Y011818D01*
X019820Y011976D02*
X022190Y011976D01*
X022286Y012135D02*
X019820Y012135D01*
X022578Y014354D02*
X022674Y014354D01*
X022674Y014512D02*
X022578Y014512D01*
X023374Y014180D02*
X023374Y015306D01*
X023000Y015680D01*
X023194Y015939D02*
X024098Y015939D01*
X024144Y016050D02*
X024018Y015745D01*
X024018Y015414D01*
X024144Y015109D01*
X024378Y014875D01*
X024683Y014749D01*
X025014Y014749D01*
X025319Y014875D01*
X025553Y015109D01*
X025679Y015414D01*
X025679Y015745D01*
X025553Y016050D01*
X025319Y016284D01*
X025014Y016410D01*
X024683Y016410D01*
X024378Y016284D01*
X024144Y016050D01*
X024191Y016097D02*
X018690Y016097D01*
X018690Y016256D02*
X024350Y016256D01*
X024206Y016777D02*
X025128Y016777D01*
X025217Y016813D01*
X025284Y016881D01*
X025321Y016969D01*
X025321Y017891D01*
X025284Y017979D01*
X025217Y018047D01*
X025128Y018083D01*
X024206Y018083D01*
X024118Y018047D01*
X024050Y017979D01*
X024014Y017891D01*
X024014Y016969D01*
X024050Y016881D01*
X024118Y016813D01*
X024206Y016777D01*
X024047Y016890D02*
X018690Y016890D01*
X018690Y017048D02*
X024014Y017048D01*
X024014Y017207D02*
X021590Y017207D01*
X021725Y017365D02*
X024014Y017365D01*
X024014Y017524D02*
X021790Y017524D01*
X021790Y017682D02*
X024014Y017682D01*
X024014Y017841D02*
X021790Y017841D01*
X021790Y017999D02*
X024070Y017999D01*
X024378Y018576D02*
X024683Y018450D01*
X025014Y018450D01*
X025319Y018576D01*
X025553Y018810D01*
X025679Y019115D01*
X025679Y019446D01*
X025553Y019751D01*
X025319Y019985D01*
X025014Y020111D01*
X024683Y020111D01*
X024378Y019985D01*
X024144Y019751D01*
X024018Y019446D01*
X024018Y019115D01*
X024144Y018810D01*
X024378Y018576D01*
X024321Y018633D02*
X021611Y018633D01*
X021733Y018475D02*
X024624Y018475D01*
X025073Y018475D02*
X027380Y018475D01*
X027432Y018316D02*
X021790Y018316D01*
X021790Y018158D02*
X027483Y018158D01*
X027535Y017999D02*
X027336Y017999D01*
X027316Y018011D02*
X027357Y017987D01*
X027390Y017954D01*
X027414Y017913D01*
X027426Y017867D01*
X027426Y017488D01*
X026890Y017488D01*
X026775Y017488D01*
X026775Y018023D01*
X026396Y018023D01*
X026350Y018011D01*
X026309Y017987D01*
X026275Y017954D01*
X026252Y017913D01*
X026239Y017867D01*
X026239Y017488D01*
X026775Y017488D01*
X026775Y017372D01*
X026890Y017372D01*
X026890Y016837D01*
X027270Y016837D01*
X027316Y016849D01*
X027357Y016873D01*
X027390Y016906D01*
X027414Y016947D01*
X027426Y016993D01*
X027426Y017372D01*
X026890Y017372D01*
X026890Y017488D01*
X026890Y018023D01*
X027270Y018023D01*
X027316Y018011D01*
X027426Y017841D02*
X027586Y017841D01*
X027621Y017682D02*
X027426Y017682D01*
X027426Y017524D02*
X027646Y017524D01*
X027671Y017365D02*
X027426Y017365D01*
X027426Y017207D02*
X027696Y017207D01*
X027721Y017048D02*
X027426Y017048D01*
X027374Y016890D02*
X027727Y016890D01*
X027733Y016731D02*
X018690Y016731D01*
X018690Y016573D02*
X027735Y016573D01*
X027735Y016414D02*
X018690Y016414D01*
X018690Y017207D02*
X019024Y017207D01*
X019230Y017207D02*
X019270Y017207D01*
X019270Y017365D02*
X019230Y017365D01*
X019230Y017524D02*
X019270Y017524D01*
X019270Y017682D02*
X019230Y017682D01*
X019230Y017841D02*
X019270Y017841D01*
X019651Y017365D02*
X019775Y017365D01*
X019910Y017207D02*
X019476Y017207D01*
X018849Y017365D02*
X018725Y017365D01*
X017810Y017207D02*
X016780Y017207D01*
X016780Y017200D02*
X016780Y017218D01*
X016768Y017292D01*
X016745Y017364D01*
X016711Y017432D01*
X016666Y017493D01*
X016613Y017546D01*
X016552Y017591D01*
X016484Y017625D01*
X016412Y017648D01*
X016338Y017660D01*
X016020Y017660D01*
X016020Y017200D01*
X016780Y017200D01*
X016762Y017048D02*
X017810Y017048D01*
X017810Y016890D02*
X016682Y016890D01*
X016472Y016731D02*
X017810Y016731D01*
X017775Y017365D02*
X016744Y017365D01*
X016635Y017524D02*
X017710Y017524D01*
X017710Y017682D02*
X011499Y017682D01*
X011720Y017524D02*
X015365Y017524D01*
X015256Y017365D02*
X011808Y017365D01*
X011840Y017207D02*
X015220Y017207D01*
X015238Y017048D02*
X011830Y017048D01*
X011764Y016890D02*
X015318Y016890D01*
X015528Y016731D02*
X011615Y016731D01*
X011671Y016573D02*
X013048Y016573D01*
X012862Y016414D02*
X011788Y016414D01*
X011840Y016256D02*
X012703Y016256D01*
X012545Y016097D02*
X011840Y016097D01*
X011784Y015939D02*
X012386Y015939D01*
X012228Y015780D02*
X011664Y015780D01*
X011622Y015622D02*
X012069Y015622D01*
X010501Y017682D02*
X007249Y017682D01*
X007470Y017524D02*
X008889Y017524D01*
X008676Y017365D02*
X007558Y017365D01*
X007590Y017207D02*
X008517Y017207D01*
X008359Y017048D02*
X007580Y017048D01*
X007514Y016890D02*
X008200Y016890D01*
X008042Y016731D02*
X007365Y016731D01*
X007421Y016573D02*
X007883Y016573D01*
X007725Y016414D02*
X007538Y016414D01*
X005609Y017048D02*
X004495Y017048D01*
X004495Y016890D02*
X005450Y016890D01*
X005390Y016731D02*
X004495Y016731D01*
X004433Y016573D02*
X005390Y016573D01*
X005390Y016414D02*
X002469Y016414D01*
X002524Y016256D02*
X005390Y016256D01*
X005390Y016097D02*
X002523Y016097D01*
X002466Y015939D02*
X005390Y015939D01*
X005390Y015780D02*
X002316Y015780D01*
X002326Y016573D02*
X003567Y016573D01*
X003505Y016731D02*
X002365Y016731D01*
X002514Y016890D02*
X003505Y016890D01*
X003923Y016890D02*
X004077Y016890D01*
X004077Y017048D02*
X003923Y017048D01*
X003923Y016731D02*
X004077Y016731D01*
X004077Y016573D02*
X003923Y016573D01*
X003464Y015622D02*
X005390Y015622D01*
X005390Y015463D02*
X003660Y015463D01*
X003818Y015305D02*
X005390Y015305D01*
X005390Y015146D02*
X003977Y015146D01*
X004135Y014988D02*
X005390Y014988D01*
X005390Y014829D02*
X004294Y014829D01*
X004452Y014671D02*
X005390Y014671D01*
X005390Y014512D02*
X004611Y014512D01*
X004769Y014354D02*
X005390Y014354D01*
X005390Y014195D02*
X004928Y014195D01*
X005086Y014037D02*
X005390Y014037D01*
X005390Y013878D02*
X005245Y013878D01*
X001770Y010074D02*
X001730Y010074D01*
X001730Y009916D02*
X001770Y009916D01*
X001770Y009757D02*
X001730Y009757D01*
X010409Y005942D02*
X010409Y005771D01*
X022750Y004930D02*
X023370Y004930D01*
X023600Y005160D01*
X023419Y007380D02*
X027735Y007380D01*
X027735Y007538D02*
X023419Y007538D01*
X023413Y007697D02*
X027735Y007697D01*
X027735Y007855D02*
X023419Y007855D01*
X023419Y008014D02*
X027735Y008014D01*
X027735Y008172D02*
X023419Y008172D01*
X024557Y011025D02*
X027735Y011025D01*
X027735Y011184D02*
X024449Y011184D01*
X024291Y011342D02*
X027735Y011342D01*
X027735Y011501D02*
X024330Y011501D01*
X024488Y011659D02*
X027735Y011659D01*
X027735Y011818D02*
X027445Y011818D01*
X027477Y011976D02*
X027735Y011976D01*
X027735Y012135D02*
X027477Y012135D01*
X027477Y012293D02*
X027735Y012293D01*
X027735Y012452D02*
X027477Y012452D01*
X027384Y012610D02*
X027735Y012610D01*
X027735Y012769D02*
X027254Y012769D01*
X027412Y012927D02*
X027735Y012927D01*
X027735Y013086D02*
X027477Y013086D01*
X027477Y013244D02*
X027735Y013244D01*
X027735Y013403D02*
X027425Y013403D01*
X027294Y013561D02*
X027735Y013561D01*
X027735Y013720D02*
X027136Y013720D01*
X027373Y013878D02*
X027735Y013878D01*
X027735Y014037D02*
X027457Y014037D01*
X027477Y014195D02*
X027735Y014195D01*
X027735Y014354D02*
X027445Y014354D01*
X027343Y014512D02*
X027735Y014512D01*
X027735Y014671D02*
X025774Y014671D01*
X025431Y014988D02*
X026630Y014988D01*
X026643Y014961D02*
X026682Y014908D01*
X026728Y014862D01*
X026781Y014823D01*
X026840Y014793D01*
X026902Y014773D01*
X026967Y014763D01*
X027000Y014763D01*
X027033Y014763D01*
X027098Y014773D01*
X027160Y014793D01*
X027219Y014823D01*
X027272Y014862D01*
X027318Y014908D01*
X027357Y014961D01*
X027387Y015020D01*
X027407Y015082D01*
X027417Y015147D01*
X027417Y015180D01*
X027417Y015213D01*
X027407Y015278D01*
X027387Y015340D01*
X027357Y015399D01*
X027318Y015452D01*
X027272Y015498D01*
X027219Y015537D01*
X027160Y015567D01*
X027098Y015587D01*
X027033Y015597D01*
X027000Y015597D01*
X027000Y015180D01*
X027000Y015180D01*
X027417Y015180D01*
X027000Y015180D01*
X027000Y015180D01*
X027000Y015180D01*
X026583Y015180D01*
X026583Y015147D01*
X026593Y015082D01*
X026613Y015020D01*
X026643Y014961D01*
X026773Y014829D02*
X025207Y014829D01*
X025568Y015146D02*
X026583Y015146D01*
X026583Y015180D02*
X027000Y015180D01*
X027000Y015597D01*
X026967Y015597D01*
X026902Y015587D01*
X026840Y015567D01*
X026781Y015537D01*
X026728Y015498D01*
X026682Y015452D01*
X026643Y015399D01*
X026613Y015340D01*
X026593Y015278D01*
X026583Y015213D01*
X026583Y015180D01*
X026601Y015305D02*
X025633Y015305D01*
X025679Y015463D02*
X026693Y015463D01*
X027000Y015463D02*
X027000Y015463D01*
X027000Y015305D02*
X027000Y015305D01*
X027000Y015180D02*
X027000Y014763D01*
X027000Y015180D01*
X027000Y015180D01*
X027000Y015146D02*
X027000Y015146D01*
X027000Y014988D02*
X027000Y014988D01*
X027000Y014829D02*
X027000Y014829D01*
X027227Y014829D02*
X027735Y014829D01*
X027735Y014988D02*
X027370Y014988D01*
X027417Y015146D02*
X027735Y015146D01*
X027735Y015305D02*
X027399Y015305D01*
X027307Y015463D02*
X027735Y015463D01*
X027735Y015622D02*
X025679Y015622D01*
X025664Y015780D02*
X027735Y015780D01*
X027735Y015939D02*
X025599Y015939D01*
X025506Y016097D02*
X027735Y016097D01*
X027735Y016256D02*
X025347Y016256D01*
X025288Y016890D02*
X026292Y016890D01*
X026275Y016906D02*
X026309Y016873D01*
X026350Y016849D01*
X026396Y016837D01*
X026775Y016837D01*
X026775Y017372D01*
X026239Y017372D01*
X026239Y016993D01*
X026252Y016947D01*
X026275Y016906D01*
X026239Y017048D02*
X025321Y017048D01*
X025321Y017207D02*
X026239Y017207D01*
X026239Y017365D02*
X025321Y017365D01*
X025321Y017524D02*
X026239Y017524D01*
X026239Y017682D02*
X025321Y017682D01*
X025321Y017841D02*
X026239Y017841D01*
X026329Y017999D02*
X025264Y017999D01*
X025376Y018633D02*
X027303Y018633D01*
X027222Y018792D02*
X025534Y018792D01*
X025611Y018950D02*
X027141Y018950D01*
X027060Y019109D02*
X025676Y019109D01*
X025679Y019267D02*
X026955Y019267D01*
X026840Y019426D02*
X025679Y019426D01*
X025622Y019584D02*
X026725Y019584D01*
X026610Y019743D02*
X025556Y019743D01*
X025402Y019901D02*
X026455Y019901D01*
X026296Y020060D02*
X025138Y020060D01*
X024559Y020060D02*
X024026Y020060D01*
X024035Y019901D02*
X024294Y019901D01*
X024141Y019743D02*
X024002Y019743D01*
X024075Y019584D02*
X023911Y019584D01*
X024018Y019426D02*
X023681Y019426D01*
X024018Y019267D02*
X020356Y019267D01*
X020319Y019426D02*
X019681Y019426D01*
X019911Y019584D02*
X020089Y019584D01*
X020681Y019426D02*
X021319Y019426D01*
X021089Y019584D02*
X020911Y019584D01*
X020514Y019109D02*
X024021Y019109D01*
X024086Y018950D02*
X020669Y018950D01*
X020734Y018792D02*
X024163Y018792D01*
X023319Y019426D02*
X022681Y019426D01*
X022911Y019584D02*
X023089Y019584D01*
X022319Y019426D02*
X021681Y019426D01*
X021911Y019584D02*
X022089Y019584D01*
X020889Y018633D02*
X020740Y018633D01*
X020740Y018475D02*
X020767Y018475D01*
X020725Y017365D02*
X020775Y017365D01*
X020910Y017207D02*
X020590Y017207D01*
X023353Y015780D02*
X024032Y015780D01*
X024018Y015622D02*
X023511Y015622D01*
X023655Y015463D02*
X024018Y015463D01*
X024063Y015305D02*
X023694Y015305D01*
X023694Y015146D02*
X024129Y015146D01*
X024266Y014988D02*
X023694Y014988D01*
X023694Y014829D02*
X024490Y014829D01*
X024226Y014671D02*
X023774Y014671D01*
X026775Y016890D02*
X026890Y016890D01*
X026890Y017048D02*
X026775Y017048D01*
X026775Y017207D02*
X026890Y017207D01*
X026890Y017365D02*
X026775Y017365D01*
X026775Y017524D02*
X026890Y017524D01*
X026890Y017682D02*
X026775Y017682D01*
X026775Y017841D02*
X026890Y017841D01*
X026890Y017999D02*
X026775Y017999D01*
X026138Y020218D02*
X023960Y020218D01*
X023810Y020377D02*
X025943Y020377D01*
X025725Y020535D02*
X023862Y020535D01*
X023981Y020694D02*
X025507Y020694D01*
X025210Y020852D02*
X024035Y020852D01*
X024035Y021011D02*
X024898Y021011D01*
X024460Y021169D02*
X023980Y021169D01*
X016020Y017524D02*
X015980Y017524D01*
X015980Y017365D02*
X016020Y017365D01*
X016020Y017207D02*
X015980Y017207D01*
X024647Y011818D02*
X026555Y011818D01*
X026523Y011976D02*
X024805Y011976D01*
X024945Y012135D02*
X026480Y012135D01*
X027193Y003100D02*
X027238Y003100D01*
X026863Y002466D02*
X026489Y002466D01*
X002504Y019109D02*
X000765Y019109D01*
D26*
X001500Y018930D02*
X000750Y018180D01*
X000750Y016680D01*
X001250Y016180D01*
X001750Y016180D01*
X002000Y016180D02*
X001000Y016180D01*
X000750Y015930D01*
X000750Y010680D01*
X001250Y010180D01*
X001750Y010180D01*
X001750Y003180D01*
X000750Y002180D01*
X000750Y001180D01*
X001000Y000930D01*
X001500Y000930D01*
X003500Y000930D02*
X003500Y001930D01*
X004500Y001930D01*
X004500Y000930D01*
X012978Y004192D02*
X013000Y004213D01*
X013000Y004430D01*
X013250Y004680D01*
X015500Y004680D01*
X016500Y005680D01*
X016250Y005680D01*
X015750Y006180D01*
X016500Y005680D02*
X016750Y005930D01*
X016750Y006971D01*
X018750Y006971D01*
X016750Y008389D02*
X016000Y009139D01*
X016000Y010180D01*
X012000Y009430D02*
X010000Y009430D01*
X008500Y007930D01*
X008500Y007580D01*
X008638Y007442D01*
X012000Y009430D02*
X012000Y013930D01*
X011750Y014180D01*
X011000Y014180D01*
X001500Y018930D02*
X001500Y019930D01*
X001500Y020930D01*
X022626Y014180D02*
X022626Y013430D01*
X022626Y011680D01*
X023374Y013430D02*
X024626Y013430D01*
X025374Y013430D02*
X026750Y013430D01*
X027000Y013180D01*
X026500Y012680D02*
X027000Y012180D01*
X026500Y012680D02*
X025374Y012680D01*
X025374Y014180D02*
X027000Y014180D01*
X024626Y014180D02*
X023374Y014180D01*
D27*
X020250Y017930D02*
X020250Y018680D01*
X020000Y018930D01*
X004500Y018930D01*
X004209Y018639D01*
X004000Y018639D01*
X003959Y018680D01*
X002750Y018680D01*
X001750Y017680D01*
X001750Y017180D01*
X001750Y016180D02*
X002000Y016180D01*
X002959Y016180D01*
X004000Y017221D01*
X004291Y017221D01*
X005250Y018180D01*
X015000Y018180D01*
X016000Y017180D01*
X016000Y015180D02*
X014500Y015180D01*
X012750Y013430D01*
X012750Y008430D01*
X012250Y007930D01*
X012250Y006930D01*
X012500Y006680D01*
X012978Y006680D01*
X013069Y006589D01*
X014250Y006589D02*
X015000Y007339D01*
X015000Y011680D01*
X015500Y012180D01*
X016000Y012180D01*
X016000Y013180D02*
X015000Y013180D01*
X014250Y012430D01*
X014250Y007771D01*
X013500Y008202D02*
X013069Y007771D01*
X013500Y008202D02*
X013500Y012930D01*
X014750Y014180D01*
X016000Y014180D01*
X005500Y008430D02*
X005500Y007339D01*
X004750Y006589D01*
X003569Y006589D02*
X002750Y007408D01*
X002750Y011930D01*
X002500Y012180D01*
X001750Y012180D01*
X001750Y013180D02*
X002750Y013180D01*
X003500Y012430D01*
X003500Y007839D01*
X003569Y007771D01*
X004250Y008271D02*
X004750Y007771D01*
X004250Y008271D02*
X004250Y012930D01*
X003000Y014180D01*
X001750Y014180D01*
X001750Y015180D02*
X003250Y015180D01*
X005000Y013430D01*
X005000Y008930D01*
X005500Y008430D01*
D28*
X005750Y008930D02*
X006000Y008680D01*
X005750Y008930D02*
X005750Y016680D01*
X006250Y017180D01*
X006750Y017180D01*
X007750Y015930D02*
X007750Y009680D01*
X006500Y008430D01*
X006500Y001930D01*
X006000Y001430D02*
X006500Y000930D01*
X007500Y001930D02*
X007000Y002430D01*
X007000Y008180D01*
X008250Y009430D01*
X008250Y015430D01*
X009000Y016180D01*
X011000Y016180D01*
X011000Y015180D02*
X011000Y014180D01*
X009000Y017180D02*
X007750Y015930D01*
X009000Y017180D02*
X011000Y017180D01*
X006750Y013180D02*
X006750Y012180D01*
X009750Y010180D02*
X007500Y007930D01*
X007500Y002930D01*
X008500Y001930D01*
X009750Y010180D02*
X011000Y010180D01*
X022626Y011680D02*
X022626Y015056D01*
X022750Y015180D01*
X024626Y012680D02*
X024626Y012306D01*
X024000Y011680D01*
X023374Y011680D01*
X023500Y001930D02*
X022500Y001930D01*
X023500Y001930D02*
X023500Y000930D01*
X022500Y000930D01*
D29*
X022750Y015180D03*
D30*
X018250Y016180D02*
X013250Y016180D01*
X012250Y015180D01*
X011000Y015180D01*
X018250Y016180D02*
X018250Y008889D01*
X018750Y008389D01*
X018250Y016180D02*
X018250Y017930D01*
M02*
