%TF.GenerationSoftware,KiCad,Pcbnew,(5.1.6)-1*%
%TF.CreationDate,2021-02-26T18:45:46+01:00*%
%TF.ProjectId,STM32G031K8U6_Board,53544d33-3247-4303-9331-4b3855365f42,rev?*%
%TF.SameCoordinates,Original*%
%TF.FileFunction,Paste,Bot*%
%TF.FilePolarity,Positive*%
%FSLAX46Y46*%
G04 Gerber Fmt 4.6, Leading zero omitted, Abs format (unit mm)*
G04 Created by KiCad (PCBNEW (5.1.6)-1) date 2021-02-26 18:45:46*
%MOMM*%
%LPD*%
G01*
G04 APERTURE LIST*
G04 APERTURE END LIST*
%TO.C,C3*%
G36*
G01*
X118175000Y-68125000D02*
X118175000Y-66875000D01*
G75*
G02*
X118425000Y-66625000I250000J0D01*
G01*
X119350000Y-66625000D01*
G75*
G02*
X119600000Y-66875000I0J-250000D01*
G01*
X119600000Y-68125000D01*
G75*
G02*
X119350000Y-68375000I-250000J0D01*
G01*
X118425000Y-68375000D01*
G75*
G02*
X118175000Y-68125000I0J250000D01*
G01*
G37*
G36*
G01*
X115200000Y-68125000D02*
X115200000Y-66875000D01*
G75*
G02*
X115450000Y-66625000I250000J0D01*
G01*
X116375000Y-66625000D01*
G75*
G02*
X116625000Y-66875000I0J-250000D01*
G01*
X116625000Y-68125000D01*
G75*
G02*
X116375000Y-68375000I-250000J0D01*
G01*
X115450000Y-68375000D01*
G75*
G02*
X115200000Y-68125000I0J250000D01*
G01*
G37*
%TD*%
%TO.C,C5*%
G36*
G01*
X120887500Y-75225000D02*
X120887500Y-73975000D01*
G75*
G02*
X121137500Y-73725000I250000J0D01*
G01*
X122062500Y-73725000D01*
G75*
G02*
X122312500Y-73975000I0J-250000D01*
G01*
X122312500Y-75225000D01*
G75*
G02*
X122062500Y-75475000I-250000J0D01*
G01*
X121137500Y-75475000D01*
G75*
G02*
X120887500Y-75225000I0J250000D01*
G01*
G37*
G36*
G01*
X123862500Y-75225000D02*
X123862500Y-73975000D01*
G75*
G02*
X124112500Y-73725000I250000J0D01*
G01*
X125037500Y-73725000D01*
G75*
G02*
X125287500Y-73975000I0J-250000D01*
G01*
X125287500Y-75225000D01*
G75*
G02*
X125037500Y-75475000I-250000J0D01*
G01*
X124112500Y-75475000D01*
G75*
G02*
X123862500Y-75225000I0J250000D01*
G01*
G37*
%TD*%
%TO.C,U2*%
G36*
G01*
X121245000Y-66000000D02*
X121545000Y-66000000D01*
G75*
G02*
X121695000Y-66150000I0J-150000D01*
G01*
X121695000Y-67800000D01*
G75*
G02*
X121545000Y-67950000I-150000J0D01*
G01*
X121245000Y-67950000D01*
G75*
G02*
X121095000Y-67800000I0J150000D01*
G01*
X121095000Y-66150000D01*
G75*
G02*
X121245000Y-66000000I150000J0D01*
G01*
G37*
G36*
G01*
X122515000Y-66000000D02*
X122815000Y-66000000D01*
G75*
G02*
X122965000Y-66150000I0J-150000D01*
G01*
X122965000Y-67800000D01*
G75*
G02*
X122815000Y-67950000I-150000J0D01*
G01*
X122515000Y-67950000D01*
G75*
G02*
X122365000Y-67800000I0J150000D01*
G01*
X122365000Y-66150000D01*
G75*
G02*
X122515000Y-66000000I150000J0D01*
G01*
G37*
G36*
G01*
X123785000Y-66000000D02*
X124085000Y-66000000D01*
G75*
G02*
X124235000Y-66150000I0J-150000D01*
G01*
X124235000Y-67800000D01*
G75*
G02*
X124085000Y-67950000I-150000J0D01*
G01*
X123785000Y-67950000D01*
G75*
G02*
X123635000Y-67800000I0J150000D01*
G01*
X123635000Y-66150000D01*
G75*
G02*
X123785000Y-66000000I150000J0D01*
G01*
G37*
G36*
G01*
X125055000Y-66000000D02*
X125355000Y-66000000D01*
G75*
G02*
X125505000Y-66150000I0J-150000D01*
G01*
X125505000Y-67800000D01*
G75*
G02*
X125355000Y-67950000I-150000J0D01*
G01*
X125055000Y-67950000D01*
G75*
G02*
X124905000Y-67800000I0J150000D01*
G01*
X124905000Y-66150000D01*
G75*
G02*
X125055000Y-66000000I150000J0D01*
G01*
G37*
G36*
G01*
X125055000Y-70950000D02*
X125355000Y-70950000D01*
G75*
G02*
X125505000Y-71100000I0J-150000D01*
G01*
X125505000Y-72750000D01*
G75*
G02*
X125355000Y-72900000I-150000J0D01*
G01*
X125055000Y-72900000D01*
G75*
G02*
X124905000Y-72750000I0J150000D01*
G01*
X124905000Y-71100000D01*
G75*
G02*
X125055000Y-70950000I150000J0D01*
G01*
G37*
G36*
G01*
X123785000Y-70950000D02*
X124085000Y-70950000D01*
G75*
G02*
X124235000Y-71100000I0J-150000D01*
G01*
X124235000Y-72750000D01*
G75*
G02*
X124085000Y-72900000I-150000J0D01*
G01*
X123785000Y-72900000D01*
G75*
G02*
X123635000Y-72750000I0J150000D01*
G01*
X123635000Y-71100000D01*
G75*
G02*
X123785000Y-70950000I150000J0D01*
G01*
G37*
G36*
G01*
X122515000Y-70950000D02*
X122815000Y-70950000D01*
G75*
G02*
X122965000Y-71100000I0J-150000D01*
G01*
X122965000Y-72750000D01*
G75*
G02*
X122815000Y-72900000I-150000J0D01*
G01*
X122515000Y-72900000D01*
G75*
G02*
X122365000Y-72750000I0J150000D01*
G01*
X122365000Y-71100000D01*
G75*
G02*
X122515000Y-70950000I150000J0D01*
G01*
G37*
G36*
G01*
X121245000Y-70950000D02*
X121545000Y-70950000D01*
G75*
G02*
X121695000Y-71100000I0J-150000D01*
G01*
X121695000Y-72750000D01*
G75*
G02*
X121545000Y-72900000I-150000J0D01*
G01*
X121245000Y-72900000D01*
G75*
G02*
X121095000Y-72750000I0J150000D01*
G01*
X121095000Y-71100000D01*
G75*
G02*
X121245000Y-70950000I150000J0D01*
G01*
G37*
%TD*%
M02*
