%TF.GenerationSoftware,KiCad,Pcbnew,(5.1.6)-1*%
%TF.CreationDate,2021-02-26T18:45:46+01:00*%
%TF.ProjectId,STM32G031K8U6_Board,53544d33-3247-4303-9331-4b3855365f42,rev?*%
%TF.SameCoordinates,Original*%
%TF.FileFunction,Soldermask,Bot*%
%TF.FilePolarity,Negative*%
%FSLAX46Y46*%
G04 Gerber Fmt 4.6, Leading zero omitted, Abs format (unit mm)*
G04 Created by KiCad (PCBNEW (5.1.6)-1) date 2021-02-26 18:45:46*
%MOMM*%
%LPD*%
G01*
G04 APERTURE LIST*
%ADD10R,1.800000X1.800000*%
%ADD11O,1.800000X1.800000*%
G04 APERTURE END LIST*
D10*
%TO.C,J4*%
X111760000Y-78740000D03*
D11*
X111760000Y-76200000D03*
X111760000Y-73660000D03*
X111760000Y-71120000D03*
X111760000Y-68580000D03*
X111760000Y-66040000D03*
X111760000Y-63500000D03*
X111760000Y-60960000D03*
X111760000Y-58420000D03*
X111760000Y-55880000D03*
X111760000Y-53340000D03*
X111760000Y-50800000D03*
X111760000Y-48260000D03*
X111760000Y-45720000D03*
X111760000Y-43180000D03*
%TD*%
%TO.C,C3*%
G36*
G01*
X118125000Y-68157456D02*
X118125000Y-66842544D01*
G75*
G02*
X118392544Y-66575000I267544J0D01*
G01*
X119382456Y-66575000D01*
G75*
G02*
X119650000Y-66842544I0J-267544D01*
G01*
X119650000Y-68157456D01*
G75*
G02*
X119382456Y-68425000I-267544J0D01*
G01*
X118392544Y-68425000D01*
G75*
G02*
X118125000Y-68157456I0J267544D01*
G01*
G37*
G36*
G01*
X115150000Y-68157456D02*
X115150000Y-66842544D01*
G75*
G02*
X115417544Y-66575000I267544J0D01*
G01*
X116407456Y-66575000D01*
G75*
G02*
X116675000Y-66842544I0J-267544D01*
G01*
X116675000Y-68157456D01*
G75*
G02*
X116407456Y-68425000I-267544J0D01*
G01*
X115417544Y-68425000D01*
G75*
G02*
X115150000Y-68157456I0J267544D01*
G01*
G37*
%TD*%
%TO.C,C5*%
G36*
G01*
X120837500Y-75257456D02*
X120837500Y-73942544D01*
G75*
G02*
X121105044Y-73675000I267544J0D01*
G01*
X122094956Y-73675000D01*
G75*
G02*
X122362500Y-73942544I0J-267544D01*
G01*
X122362500Y-75257456D01*
G75*
G02*
X122094956Y-75525000I-267544J0D01*
G01*
X121105044Y-75525000D01*
G75*
G02*
X120837500Y-75257456I0J267544D01*
G01*
G37*
G36*
G01*
X123812500Y-75257456D02*
X123812500Y-73942544D01*
G75*
G02*
X124080044Y-73675000I267544J0D01*
G01*
X125069956Y-73675000D01*
G75*
G02*
X125337500Y-73942544I0J-267544D01*
G01*
X125337500Y-75257456D01*
G75*
G02*
X125069956Y-75525000I-267544J0D01*
G01*
X124080044Y-75525000D01*
G75*
G02*
X123812500Y-75257456I0J267544D01*
G01*
G37*
%TD*%
D10*
%TO.C,J1*%
X134620000Y-78740000D03*
D11*
X134620000Y-76200000D03*
X134620000Y-73660000D03*
X134620000Y-71120000D03*
X134620000Y-68580000D03*
X134620000Y-66040000D03*
X134620000Y-63500000D03*
X134620000Y-60960000D03*
X134620000Y-58420000D03*
X134620000Y-55880000D03*
X134620000Y-53340000D03*
X134620000Y-50800000D03*
X134620000Y-48260000D03*
X134620000Y-45720000D03*
X134620000Y-43180000D03*
%TD*%
D10*
%TO.C,J2*%
X134620000Y-39000000D03*
D11*
X132080000Y-39000000D03*
X129540000Y-39000000D03*
X127000000Y-39000000D03*
%TD*%
D10*
%TO.C,J3*%
X121920000Y-39000000D03*
D11*
X119380000Y-39000000D03*
X116840000Y-39000000D03*
X114300000Y-39000000D03*
X111760000Y-39000000D03*
%TD*%
%TO.C,J5*%
X119380000Y-79000000D03*
X121920000Y-79000000D03*
X124460000Y-79000000D03*
D10*
X127000000Y-79000000D03*
%TD*%
%TO.C,U2*%
G36*
G01*
X121220000Y-65950000D02*
X121570000Y-65950000D01*
G75*
G02*
X121745000Y-66125000I0J-175000D01*
G01*
X121745000Y-67825000D01*
G75*
G02*
X121570000Y-68000000I-175000J0D01*
G01*
X121220000Y-68000000D01*
G75*
G02*
X121045000Y-67825000I0J175000D01*
G01*
X121045000Y-66125000D01*
G75*
G02*
X121220000Y-65950000I175000J0D01*
G01*
G37*
G36*
G01*
X122490000Y-65950000D02*
X122840000Y-65950000D01*
G75*
G02*
X123015000Y-66125000I0J-175000D01*
G01*
X123015000Y-67825000D01*
G75*
G02*
X122840000Y-68000000I-175000J0D01*
G01*
X122490000Y-68000000D01*
G75*
G02*
X122315000Y-67825000I0J175000D01*
G01*
X122315000Y-66125000D01*
G75*
G02*
X122490000Y-65950000I175000J0D01*
G01*
G37*
G36*
G01*
X123760000Y-65950000D02*
X124110000Y-65950000D01*
G75*
G02*
X124285000Y-66125000I0J-175000D01*
G01*
X124285000Y-67825000D01*
G75*
G02*
X124110000Y-68000000I-175000J0D01*
G01*
X123760000Y-68000000D01*
G75*
G02*
X123585000Y-67825000I0J175000D01*
G01*
X123585000Y-66125000D01*
G75*
G02*
X123760000Y-65950000I175000J0D01*
G01*
G37*
G36*
G01*
X125030000Y-65950000D02*
X125380000Y-65950000D01*
G75*
G02*
X125555000Y-66125000I0J-175000D01*
G01*
X125555000Y-67825000D01*
G75*
G02*
X125380000Y-68000000I-175000J0D01*
G01*
X125030000Y-68000000D01*
G75*
G02*
X124855000Y-67825000I0J175000D01*
G01*
X124855000Y-66125000D01*
G75*
G02*
X125030000Y-65950000I175000J0D01*
G01*
G37*
G36*
G01*
X125030000Y-70900000D02*
X125380000Y-70900000D01*
G75*
G02*
X125555000Y-71075000I0J-175000D01*
G01*
X125555000Y-72775000D01*
G75*
G02*
X125380000Y-72950000I-175000J0D01*
G01*
X125030000Y-72950000D01*
G75*
G02*
X124855000Y-72775000I0J175000D01*
G01*
X124855000Y-71075000D01*
G75*
G02*
X125030000Y-70900000I175000J0D01*
G01*
G37*
G36*
G01*
X123760000Y-70900000D02*
X124110000Y-70900000D01*
G75*
G02*
X124285000Y-71075000I0J-175000D01*
G01*
X124285000Y-72775000D01*
G75*
G02*
X124110000Y-72950000I-175000J0D01*
G01*
X123760000Y-72950000D01*
G75*
G02*
X123585000Y-72775000I0J175000D01*
G01*
X123585000Y-71075000D01*
G75*
G02*
X123760000Y-70900000I175000J0D01*
G01*
G37*
G36*
G01*
X122490000Y-70900000D02*
X122840000Y-70900000D01*
G75*
G02*
X123015000Y-71075000I0J-175000D01*
G01*
X123015000Y-72775000D01*
G75*
G02*
X122840000Y-72950000I-175000J0D01*
G01*
X122490000Y-72950000D01*
G75*
G02*
X122315000Y-72775000I0J175000D01*
G01*
X122315000Y-71075000D01*
G75*
G02*
X122490000Y-70900000I175000J0D01*
G01*
G37*
G36*
G01*
X121220000Y-70900000D02*
X121570000Y-70900000D01*
G75*
G02*
X121745000Y-71075000I0J-175000D01*
G01*
X121745000Y-72775000D01*
G75*
G02*
X121570000Y-72950000I-175000J0D01*
G01*
X121220000Y-72950000D01*
G75*
G02*
X121045000Y-72775000I0J175000D01*
G01*
X121045000Y-71075000D01*
G75*
G02*
X121220000Y-70900000I175000J0D01*
G01*
G37*
%TD*%
M02*
