G75*
%MOIN*%
%OFA0B0*%
%FSLAX25Y25*%
%IPPOS*%
%LPD*%
%AMOC8*
5,1,8,0,0,1.08239X$1,22.5*
%
%ADD10C,0.06000*%
%ADD11R,0.06024X0.06024*%
%ADD12C,0.06024*%
%ADD13R,0.04800X0.04800*%
%ADD14C,0.04800*%
%ADD15C,0.03200*%
%ADD16C,0.04000*%
%ADD17C,0.01600*%
%ADD18C,0.03962*%
%ADD19C,0.02400*%
D10*
X0066300Y0021800D02*
X0072300Y0021800D01*
X0072300Y0031800D02*
X0066300Y0031800D01*
X0066300Y0041800D02*
X0072300Y0041800D01*
X0072300Y0051800D02*
X0066300Y0051800D01*
X0066300Y0061800D02*
X0072300Y0061800D01*
X0072300Y0071800D02*
X0066300Y0071800D01*
X0066300Y0081800D02*
X0072300Y0081800D01*
X0072300Y0091800D02*
X0066300Y0091800D01*
X0046800Y0062300D02*
X0046800Y0056300D01*
X0036800Y0056300D02*
X0036800Y0062300D01*
X0026800Y0062300D02*
X0026800Y0056300D01*
X0016800Y0056300D02*
X0016800Y0062300D01*
X0116300Y0061800D02*
X0122300Y0061800D01*
X0122300Y0051800D02*
X0116300Y0051800D01*
X0116300Y0041800D02*
X0122300Y0041800D01*
X0122300Y0031800D02*
X0116300Y0031800D01*
X0116300Y0021800D02*
X0122300Y0021800D01*
X0156300Y0024300D02*
X0162300Y0024300D01*
X0162300Y0034300D02*
X0156300Y0034300D01*
X0156300Y0044300D02*
X0162300Y0044300D01*
X0162300Y0054300D02*
X0156300Y0054300D01*
X0156300Y0064300D02*
X0162300Y0064300D01*
X0162300Y0074300D02*
X0156300Y0074300D01*
X0156300Y0084300D02*
X0162300Y0084300D01*
X0162300Y0094300D02*
X0156300Y0094300D01*
X0156300Y0104300D02*
X0162300Y0104300D01*
X0162300Y0114300D02*
X0156300Y0114300D01*
X0156300Y0124300D02*
X0162300Y0124300D01*
X0162300Y0134300D02*
X0156300Y0134300D01*
X0156300Y0144300D02*
X0162300Y0144300D01*
X0162300Y0154300D02*
X0156300Y0154300D01*
X0156300Y0164300D02*
X0162300Y0164300D01*
X0216300Y0164300D02*
X0222300Y0164300D01*
X0222300Y0154300D02*
X0216300Y0154300D01*
X0216300Y0144300D02*
X0222300Y0144300D01*
X0222300Y0134300D02*
X0216300Y0134300D01*
X0216300Y0124300D02*
X0222300Y0124300D01*
X0222300Y0114300D02*
X0216300Y0114300D01*
X0216300Y0104300D02*
X0222300Y0104300D01*
X0222300Y0094300D02*
X0216300Y0094300D01*
X0216300Y0084300D02*
X0222300Y0084300D01*
X0222300Y0074300D02*
X0216300Y0074300D01*
X0216300Y0064300D02*
X0222300Y0064300D01*
X0222300Y0054300D02*
X0216300Y0054300D01*
X0216300Y0044300D02*
X0222300Y0044300D01*
X0222300Y0034300D02*
X0216300Y0034300D01*
X0216300Y0024300D02*
X0222300Y0024300D01*
X0256300Y0021800D02*
X0262300Y0021800D01*
X0262300Y0031800D02*
X0256300Y0031800D01*
X0256300Y0041800D02*
X0262300Y0041800D01*
X0262300Y0051800D02*
X0256300Y0051800D01*
X0256300Y0061800D02*
X0262300Y0061800D01*
X0262300Y0071800D02*
X0256300Y0071800D01*
X0256300Y0081800D02*
X0262300Y0081800D01*
X0262300Y0091800D02*
X0256300Y0091800D01*
X0306300Y0091800D02*
X0312300Y0091800D01*
X0312300Y0081800D02*
X0306300Y0081800D01*
X0306300Y0071800D02*
X0312300Y0071800D01*
X0312300Y0061800D02*
X0306300Y0061800D01*
X0306300Y0051800D02*
X0312300Y0051800D01*
X0312300Y0041800D02*
X0306300Y0041800D01*
X0306300Y0031800D02*
X0312300Y0031800D01*
X0312300Y0021800D02*
X0306300Y0021800D01*
X0122300Y0071800D02*
X0116300Y0071800D01*
X0116300Y0081800D02*
X0122300Y0081800D01*
X0122300Y0091800D02*
X0116300Y0091800D01*
D11*
X0124300Y0127706D03*
X0037706Y0096800D03*
X0264300Y0127706D03*
D12*
X0252489Y0127706D03*
X0252489Y0115894D03*
X0264300Y0115894D03*
X0124300Y0115894D03*
X0112489Y0115894D03*
X0112489Y0127706D03*
X0037706Y0108611D03*
X0025894Y0108611D03*
X0025894Y0096800D03*
D13*
X0104674Y0199300D03*
X0137174Y0199300D03*
X0169674Y0199300D03*
X0202174Y0199300D03*
X0243611Y0199300D03*
X0283611Y0199300D03*
D14*
X0275737Y0199300D03*
X0267863Y0199300D03*
X0259989Y0199300D03*
X0235737Y0199300D03*
X0227863Y0199300D03*
X0219989Y0199300D03*
X0194300Y0199300D03*
X0186426Y0199300D03*
X0161800Y0199300D03*
X0153926Y0199300D03*
X0129300Y0199300D03*
X0121426Y0199300D03*
X0096800Y0199300D03*
X0088926Y0199300D03*
D15*
X0104674Y0199300D02*
X0104674Y0206426D01*
X0104300Y0206800D01*
X0049300Y0206800D01*
X0039300Y0196800D01*
X0039300Y0110206D01*
X0037706Y0108611D01*
D16*
X0039300Y0110206D02*
X0050894Y0110206D01*
X0069300Y0091800D01*
X0219300Y0164300D02*
X0249300Y0164300D01*
X0309300Y0104300D01*
X0309300Y0091800D01*
D17*
X0003800Y0003800D02*
X0003800Y0207261D01*
X0213301Y0207261D01*
X0206374Y0200334D01*
X0206374Y0201937D01*
X0206251Y0202395D01*
X0206014Y0202805D01*
X0205679Y0203140D01*
X0205269Y0203377D01*
X0204811Y0203500D01*
X0202174Y0203500D01*
X0199537Y0203500D01*
X0199079Y0203377D01*
X0198669Y0203140D01*
X0198334Y0202805D01*
X0198097Y0202395D01*
X0197974Y0201937D01*
X0197974Y0201848D01*
X0196792Y0203030D01*
X0195175Y0203700D01*
X0193425Y0203700D01*
X0191808Y0203030D01*
X0190570Y0201792D01*
X0190363Y0201293D01*
X0190156Y0201792D01*
X0188918Y0203030D01*
X0187301Y0203700D01*
X0185551Y0203700D01*
X0183934Y0203030D01*
X0182696Y0201792D01*
X0182026Y0200175D01*
X0182026Y0198425D01*
X0182696Y0196808D01*
X0183934Y0195570D01*
X0185551Y0194900D01*
X0185940Y0194900D01*
X0165640Y0174600D01*
X0156060Y0174600D01*
X0163386Y0181926D01*
X0164174Y0182714D01*
X0164600Y0183743D01*
X0164600Y0195877D01*
X0165474Y0196751D01*
X0165474Y0196663D01*
X0165597Y0196205D01*
X0165834Y0195795D01*
X0166169Y0195460D01*
X0166579Y0195223D01*
X0167037Y0195100D01*
X0169674Y0195100D01*
X0172311Y0195100D01*
X0172769Y0195223D01*
X0173179Y0195460D01*
X0173514Y0195795D01*
X0173751Y0196205D01*
X0173874Y0196663D01*
X0173874Y0199300D01*
X0173874Y0201937D01*
X0173751Y0202395D01*
X0173514Y0202805D01*
X0173179Y0203140D01*
X0172769Y0203377D01*
X0172311Y0203500D01*
X0169674Y0203500D01*
X0167037Y0203500D01*
X0166579Y0203377D01*
X0166169Y0203140D01*
X0165834Y0202805D01*
X0165597Y0202395D01*
X0165474Y0201937D01*
X0165474Y0201848D01*
X0164292Y0203030D01*
X0162675Y0203700D01*
X0160925Y0203700D01*
X0159308Y0203030D01*
X0158070Y0201792D01*
X0157863Y0201293D01*
X0157656Y0201792D01*
X0156418Y0203030D01*
X0154801Y0203700D01*
X0153051Y0203700D01*
X0151434Y0203030D01*
X0150196Y0201792D01*
X0149526Y0200175D01*
X0149526Y0198425D01*
X0150196Y0196808D01*
X0151434Y0195570D01*
X0153051Y0194900D01*
X0154801Y0194900D01*
X0156418Y0195570D01*
X0157656Y0196808D01*
X0157863Y0197307D01*
X0158070Y0196808D01*
X0159000Y0195877D01*
X0159000Y0185460D01*
X0145550Y0172010D01*
X0132100Y0185460D01*
X0132100Y0195877D01*
X0132974Y0196751D01*
X0132974Y0196663D01*
X0133097Y0196205D01*
X0133334Y0195795D01*
X0133669Y0195460D01*
X0134079Y0195223D01*
X0134537Y0195100D01*
X0137174Y0195100D01*
X0139811Y0195100D01*
X0140269Y0195223D01*
X0140679Y0195460D01*
X0141014Y0195795D01*
X0141251Y0196205D01*
X0141374Y0196663D01*
X0141374Y0199300D01*
X0141374Y0201937D01*
X0141251Y0202395D01*
X0141014Y0202805D01*
X0140679Y0203140D01*
X0140269Y0203377D01*
X0139811Y0203500D01*
X0137174Y0203500D01*
X0134537Y0203500D01*
X0134079Y0203377D01*
X0133669Y0203140D01*
X0133334Y0202805D01*
X0133097Y0202395D01*
X0132974Y0201937D01*
X0132974Y0201848D01*
X0131792Y0203030D01*
X0130175Y0203700D01*
X0128425Y0203700D01*
X0126808Y0203030D01*
X0125570Y0201792D01*
X0125363Y0201293D01*
X0125156Y0201792D01*
X0123918Y0203030D01*
X0122301Y0203700D01*
X0120551Y0203700D01*
X0118934Y0203030D01*
X0117696Y0201792D01*
X0117026Y0200175D01*
X0117026Y0198425D01*
X0117696Y0196808D01*
X0118934Y0195570D01*
X0120551Y0194900D01*
X0122301Y0194900D01*
X0123918Y0195570D01*
X0125156Y0196808D01*
X0125363Y0197307D01*
X0125570Y0196808D01*
X0126500Y0195877D01*
X0126500Y0186060D01*
X0120886Y0191674D01*
X0119857Y0192100D01*
X0105460Y0192100D01*
X0102460Y0195100D01*
X0104674Y0195100D01*
X0107311Y0195100D01*
X0107769Y0195223D01*
X0108179Y0195460D01*
X0108514Y0195795D01*
X0108751Y0196205D01*
X0108874Y0196663D01*
X0108874Y0199300D01*
X0108874Y0201937D01*
X0108751Y0202395D01*
X0108514Y0202805D01*
X0108179Y0203140D01*
X0107769Y0203377D01*
X0107311Y0203500D01*
X0104674Y0203500D01*
X0102037Y0203500D01*
X0101579Y0203377D01*
X0101169Y0203140D01*
X0100834Y0202805D01*
X0100597Y0202395D01*
X0100474Y0201937D01*
X0100474Y0201848D01*
X0099292Y0203030D01*
X0097675Y0203700D01*
X0095925Y0203700D01*
X0094308Y0203030D01*
X0093070Y0201792D01*
X0092863Y0201293D01*
X0092656Y0201792D01*
X0091418Y0203030D01*
X0089801Y0203700D01*
X0088051Y0203700D01*
X0086434Y0203030D01*
X0085196Y0201792D01*
X0084526Y0200175D01*
X0084526Y0198425D01*
X0085196Y0196808D01*
X0086434Y0195570D01*
X0088051Y0194900D01*
X0088801Y0194900D01*
X0122113Y0161587D01*
X0123289Y0161100D01*
X0131870Y0161100D01*
X0132045Y0160925D01*
X0133508Y0160319D01*
X0135092Y0160319D01*
X0136555Y0160925D01*
X0137675Y0162045D01*
X0138281Y0163508D01*
X0138281Y0165092D01*
X0137675Y0166555D01*
X0136555Y0167675D01*
X0135092Y0168281D01*
X0133508Y0168281D01*
X0132045Y0167675D01*
X0131870Y0167500D01*
X0125251Y0167500D01*
X0106251Y0186500D01*
X0118140Y0186500D01*
X0139000Y0165640D01*
X0139000Y0068743D01*
X0139426Y0067714D01*
X0151460Y0055680D01*
X0151300Y0055295D01*
X0151300Y0053305D01*
X0152061Y0051468D01*
X0153468Y0050061D01*
X0155305Y0049300D01*
X0153468Y0048539D01*
X0152061Y0047132D01*
X0151300Y0045295D01*
X0151300Y0043305D01*
X0152061Y0041468D01*
X0153468Y0040061D01*
X0155305Y0039300D01*
X0153468Y0038539D01*
X0152061Y0037132D01*
X0151300Y0035295D01*
X0151300Y0033305D01*
X0152061Y0031468D01*
X0153468Y0030061D01*
X0155305Y0029300D01*
X0153468Y0028539D01*
X0152061Y0027132D01*
X0151300Y0025295D01*
X0151300Y0023305D01*
X0152061Y0021468D01*
X0153468Y0020061D01*
X0155305Y0019300D01*
X0163295Y0019300D01*
X0165132Y0020061D01*
X0166500Y0021429D01*
X0166500Y0020460D01*
X0163140Y0017100D01*
X0124019Y0017100D01*
X0125132Y0017561D01*
X0126539Y0018968D01*
X0127300Y0020805D01*
X0127300Y0022795D01*
X0126539Y0024632D01*
X0125132Y0026039D01*
X0123295Y0026800D01*
X0125132Y0027561D01*
X0126539Y0028968D01*
X0127300Y0030805D01*
X0127300Y0032795D01*
X0126539Y0034632D01*
X0125132Y0036039D01*
X0123295Y0036800D01*
X0125132Y0037561D01*
X0126539Y0038968D01*
X0127300Y0040805D01*
X0127300Y0042795D01*
X0126539Y0044632D01*
X0125132Y0046039D01*
X0123295Y0046800D01*
X0125132Y0047561D01*
X0126539Y0048968D01*
X0127300Y0050805D01*
X0127300Y0052795D01*
X0126539Y0054632D01*
X0125132Y0056039D01*
X0123295Y0056800D01*
X0125132Y0057561D01*
X0126539Y0058968D01*
X0127300Y0060805D01*
X0127300Y0062795D01*
X0126539Y0064632D01*
X0125132Y0066039D01*
X0123295Y0066800D01*
X0125132Y0067561D01*
X0126539Y0068968D01*
X0127300Y0070805D01*
X0127300Y0072795D01*
X0126539Y0074632D01*
X0125132Y0076039D01*
X0123295Y0076800D01*
X0125132Y0077561D01*
X0126539Y0078968D01*
X0127300Y0080805D01*
X0127300Y0082795D01*
X0126539Y0084632D01*
X0125132Y0086039D01*
X0123295Y0086800D01*
X0125132Y0087561D01*
X0126539Y0088968D01*
X0127300Y0090805D01*
X0127300Y0092795D01*
X0126539Y0094632D01*
X0125132Y0096039D01*
X0123295Y0096800D01*
X0115305Y0096800D01*
X0113468Y0096039D01*
X0112061Y0094632D01*
X0111300Y0092795D01*
X0111300Y0090805D01*
X0112061Y0088968D01*
X0113468Y0087561D01*
X0115305Y0086800D01*
X0123295Y0086800D01*
X0115305Y0086800D01*
X0113468Y0086039D01*
X0112061Y0084632D01*
X0111300Y0082795D01*
X0111300Y0080805D01*
X0112061Y0078968D01*
X0113468Y0077561D01*
X0115305Y0076800D01*
X0123295Y0076800D01*
X0115305Y0076800D01*
X0113468Y0076039D01*
X0112061Y0074632D01*
X0111300Y0072795D01*
X0111300Y0070805D01*
X0112061Y0068968D01*
X0113468Y0067561D01*
X0115305Y0066800D01*
X0123295Y0066800D01*
X0115305Y0066800D01*
X0113468Y0066039D01*
X0112061Y0064632D01*
X0111300Y0062795D01*
X0111300Y0060805D01*
X0112061Y0058968D01*
X0113468Y0057561D01*
X0115305Y0056800D01*
X0123295Y0056800D01*
X0115305Y0056800D01*
X0113468Y0056039D01*
X0112061Y0054632D01*
X0111300Y0052795D01*
X0111300Y0050805D01*
X0112061Y0048968D01*
X0113468Y0047561D01*
X0115305Y0046800D01*
X0123295Y0046800D01*
X0115305Y0046800D01*
X0113468Y0046039D01*
X0112061Y0044632D01*
X0111300Y0042795D01*
X0111300Y0040805D01*
X0112061Y0038968D01*
X0113468Y0037561D01*
X0115305Y0036800D01*
X0123295Y0036800D01*
X0115305Y0036800D01*
X0113468Y0036039D01*
X0112061Y0034632D01*
X0111300Y0032795D01*
X0111300Y0030805D01*
X0112061Y0028968D01*
X0113468Y0027561D01*
X0115305Y0026800D01*
X0123295Y0026800D01*
X0115305Y0026800D01*
X0113468Y0026039D01*
X0112061Y0024632D01*
X0111300Y0022795D01*
X0111300Y0020805D01*
X0112061Y0018968D01*
X0113468Y0017561D01*
X0114581Y0017100D01*
X0074019Y0017100D01*
X0075132Y0017561D01*
X0076539Y0018968D01*
X0077300Y0020805D01*
X0077300Y0022795D01*
X0076539Y0024632D01*
X0075132Y0026039D01*
X0073295Y0026800D01*
X0065305Y0026800D01*
X0063468Y0026039D01*
X0062061Y0024632D01*
X0061300Y0022795D01*
X0061300Y0020805D01*
X0062061Y0018968D01*
X0063468Y0017561D01*
X0064581Y0017100D01*
X0040460Y0017100D01*
X0012100Y0045460D01*
X0012100Y0054581D01*
X0012561Y0053468D01*
X0013968Y0052061D01*
X0015805Y0051300D01*
X0017795Y0051300D01*
X0019632Y0052061D01*
X0021039Y0053468D01*
X0021800Y0055305D01*
X0022561Y0053468D01*
X0023968Y0052061D01*
X0025805Y0051300D01*
X0027795Y0051300D01*
X0029632Y0052061D01*
X0031039Y0053468D01*
X0031800Y0055305D01*
X0031800Y0063295D01*
X0031039Y0065132D01*
X0029632Y0066539D01*
X0027795Y0067300D01*
X0025805Y0067300D01*
X0023968Y0066539D01*
X0022561Y0065132D01*
X0021800Y0063295D01*
X0021800Y0055305D01*
X0021800Y0063295D01*
X0021039Y0065132D01*
X0019632Y0066539D01*
X0017795Y0067300D01*
X0015805Y0067300D01*
X0013968Y0066539D01*
X0012561Y0065132D01*
X0012100Y0064019D01*
X0012100Y0165640D01*
X0024279Y0177819D01*
X0025092Y0177819D01*
X0026555Y0178425D01*
X0027675Y0179545D01*
X0028281Y0181008D01*
X0028281Y0182592D01*
X0027675Y0184055D01*
X0026555Y0185175D01*
X0025092Y0185781D01*
X0023508Y0185781D01*
X0022045Y0185175D01*
X0020925Y0184055D01*
X0020319Y0182592D01*
X0020319Y0181779D01*
X0006926Y0168386D01*
X0006500Y0167357D01*
X0006500Y0043743D01*
X0006926Y0042714D01*
X0007714Y0041926D01*
X0037714Y0011926D01*
X0038743Y0011500D01*
X0164857Y0011500D01*
X0165886Y0011926D01*
X0166674Y0012714D01*
X0171674Y0017714D01*
X0172100Y0018743D01*
X0172100Y0069857D01*
X0171674Y0070886D01*
X0170886Y0071674D01*
X0167300Y0075260D01*
X0167300Y0075295D01*
X0166539Y0077132D01*
X0165132Y0078539D01*
X0163295Y0079300D01*
X0165132Y0080061D01*
X0166539Y0081468D01*
X0167300Y0083305D01*
X0167300Y0085295D01*
X0166539Y0087132D01*
X0165132Y0088539D01*
X0163295Y0089300D01*
X0165132Y0090061D01*
X0166539Y0091468D01*
X0167300Y0093305D01*
X0167300Y0095295D01*
X0166539Y0097132D01*
X0166315Y0097356D01*
X0173386Y0104426D01*
X0174174Y0105214D01*
X0174600Y0106243D01*
X0174600Y0165640D01*
X0197960Y0189000D01*
X0225920Y0189000D01*
X0226949Y0189426D01*
X0229023Y0191500D01*
X0264857Y0191500D01*
X0265886Y0191926D01*
X0266674Y0192714D01*
X0268946Y0194986D01*
X0270355Y0195570D01*
X0271593Y0196808D01*
X0271800Y0197307D01*
X0272007Y0196808D01*
X0273245Y0195570D01*
X0274862Y0194900D01*
X0276612Y0194900D01*
X0278229Y0195570D01*
X0279411Y0196751D01*
X0279411Y0196663D01*
X0279534Y0196205D01*
X0279771Y0195795D01*
X0280106Y0195460D01*
X0280516Y0195223D01*
X0280974Y0195100D01*
X0283611Y0195100D01*
X0283611Y0199300D01*
X0283611Y0203500D01*
X0280974Y0203500D01*
X0280516Y0203377D01*
X0280106Y0203140D01*
X0279771Y0202805D01*
X0279534Y0202395D01*
X0279411Y0201937D01*
X0279411Y0201848D01*
X0278537Y0202723D01*
X0278537Y0205920D01*
X0278111Y0206949D01*
X0277799Y0207261D01*
X0375001Y0207261D01*
X0375001Y0003800D01*
X0003800Y0003800D01*
X0003800Y0004300D02*
X0375001Y0004300D01*
X0375001Y0005899D02*
X0003800Y0005899D01*
X0003800Y0007497D02*
X0011866Y0007497D01*
X0012099Y0007264D02*
X0015149Y0006001D01*
X0018451Y0006001D01*
X0021501Y0007264D01*
X0023836Y0009599D01*
X0025099Y0012649D01*
X0025099Y0015951D01*
X0023836Y0019001D01*
X0021501Y0021336D01*
X0018451Y0022599D01*
X0015149Y0022599D01*
X0012099Y0021336D01*
X0009764Y0019001D01*
X0008501Y0015951D01*
X0008501Y0012649D01*
X0009764Y0009599D01*
X0012099Y0007264D01*
X0010268Y0009096D02*
X0003800Y0009096D01*
X0003800Y0010694D02*
X0009311Y0010694D01*
X0008648Y0012293D02*
X0003800Y0012293D01*
X0003800Y0013891D02*
X0008501Y0013891D01*
X0008501Y0015490D02*
X0003800Y0015490D01*
X0003800Y0017088D02*
X0008972Y0017088D01*
X0009634Y0018687D02*
X0003800Y0018687D01*
X0003800Y0020285D02*
X0011048Y0020285D01*
X0013422Y0021884D02*
X0003800Y0021884D01*
X0003800Y0023482D02*
X0026158Y0023482D01*
X0027757Y0021884D02*
X0020178Y0021884D01*
X0022552Y0020285D02*
X0029355Y0020285D01*
X0030954Y0018687D02*
X0023966Y0018687D01*
X0024628Y0017088D02*
X0032552Y0017088D01*
X0034151Y0015490D02*
X0025099Y0015490D01*
X0025099Y0013891D02*
X0035749Y0013891D01*
X0037348Y0012293D02*
X0024951Y0012293D01*
X0024289Y0010694D02*
X0354311Y0010694D01*
X0354764Y0009599D02*
X0357099Y0007264D01*
X0360149Y0006001D01*
X0363451Y0006001D01*
X0366501Y0007264D01*
X0368836Y0009599D01*
X0370099Y0012649D01*
X0370099Y0015951D01*
X0368836Y0019001D01*
X0366501Y0021336D01*
X0363451Y0022599D01*
X0360149Y0022599D01*
X0357099Y0021336D01*
X0354764Y0019001D01*
X0353501Y0015951D01*
X0353501Y0012649D01*
X0354764Y0009599D01*
X0355268Y0009096D02*
X0023332Y0009096D01*
X0021734Y0007497D02*
X0356866Y0007497D01*
X0353648Y0012293D02*
X0166252Y0012293D01*
X0167851Y0013891D02*
X0353501Y0013891D01*
X0353501Y0015490D02*
X0169449Y0015490D01*
X0171048Y0017088D02*
X0254610Y0017088D01*
X0255305Y0016800D02*
X0263295Y0016800D01*
X0265132Y0017561D01*
X0266539Y0018968D01*
X0267300Y0020805D01*
X0267300Y0022795D01*
X0266539Y0024632D01*
X0265132Y0026039D01*
X0263295Y0026800D01*
X0255305Y0026800D01*
X0253468Y0026039D01*
X0252061Y0024632D01*
X0251300Y0022795D01*
X0251300Y0020805D01*
X0252061Y0018968D01*
X0253468Y0017561D01*
X0255305Y0016800D01*
X0252342Y0018687D02*
X0172077Y0018687D01*
X0172100Y0020285D02*
X0213244Y0020285D01*
X0213468Y0020061D02*
X0215305Y0019300D01*
X0223295Y0019300D01*
X0225132Y0020061D01*
X0226539Y0021468D01*
X0227300Y0023305D01*
X0227300Y0025295D01*
X0226539Y0027132D01*
X0225132Y0028539D01*
X0223295Y0029300D01*
X0225132Y0030061D01*
X0226539Y0031468D01*
X0227300Y0033305D01*
X0227300Y0035295D01*
X0226539Y0037132D01*
X0225132Y0038539D01*
X0223295Y0039300D01*
X0225132Y0040061D01*
X0226539Y0041468D01*
X0227300Y0043305D01*
X0227300Y0045295D01*
X0226539Y0047132D01*
X0225132Y0048539D01*
X0223295Y0049300D01*
X0225132Y0050061D01*
X0226539Y0051468D01*
X0227300Y0053305D01*
X0227300Y0055295D01*
X0226539Y0057132D01*
X0225132Y0058539D01*
X0223295Y0059300D01*
X0225132Y0060061D01*
X0226500Y0061429D01*
X0226500Y0058743D01*
X0226926Y0057714D01*
X0227714Y0056926D01*
X0245214Y0039426D01*
X0246243Y0039000D01*
X0252048Y0039000D01*
X0252061Y0038968D01*
X0253468Y0037561D01*
X0255305Y0036800D01*
X0253468Y0036039D01*
X0252061Y0034632D01*
X0251300Y0032795D01*
X0251300Y0030805D01*
X0252061Y0028968D01*
X0253468Y0027561D01*
X0255305Y0026800D01*
X0263295Y0026800D01*
X0265132Y0027561D01*
X0266539Y0028968D01*
X0267300Y0030805D01*
X0267300Y0032795D01*
X0266539Y0034632D01*
X0265132Y0036039D01*
X0263295Y0036800D01*
X0255305Y0036800D01*
X0263295Y0036800D01*
X0265132Y0037561D01*
X0266539Y0038968D01*
X0267300Y0040805D01*
X0267300Y0042795D01*
X0266539Y0044632D01*
X0265132Y0046039D01*
X0263295Y0046800D01*
X0265132Y0047561D01*
X0266539Y0048968D01*
X0267300Y0050805D01*
X0267300Y0052795D01*
X0266539Y0054632D01*
X0265132Y0056039D01*
X0263295Y0056800D01*
X0255305Y0056800D01*
X0253468Y0056039D01*
X0252061Y0054632D01*
X0251300Y0052795D01*
X0251300Y0050805D01*
X0252061Y0048968D01*
X0253468Y0047561D01*
X0255305Y0046800D01*
X0263295Y0046800D01*
X0255305Y0046800D01*
X0253468Y0046039D01*
X0252061Y0044632D01*
X0252048Y0044600D01*
X0247960Y0044600D01*
X0232100Y0060460D01*
X0232100Y0127357D01*
X0231674Y0128386D01*
X0227140Y0132920D01*
X0227300Y0133305D01*
X0227300Y0135295D01*
X0226539Y0137132D01*
X0225132Y0138539D01*
X0223295Y0139300D01*
X0225132Y0140061D01*
X0226539Y0141468D01*
X0227300Y0143305D01*
X0227300Y0145295D01*
X0226539Y0147132D01*
X0225132Y0148539D01*
X0223295Y0149300D01*
X0215305Y0149300D01*
X0213468Y0148539D01*
X0212061Y0147132D01*
X0211300Y0145295D01*
X0211300Y0143305D01*
X0212061Y0141468D01*
X0213468Y0140061D01*
X0215305Y0139300D01*
X0223295Y0139300D01*
X0215305Y0139300D01*
X0213468Y0138539D01*
X0212061Y0137132D01*
X0211300Y0135295D01*
X0211300Y0133305D01*
X0212061Y0131468D01*
X0213468Y0130061D01*
X0215305Y0129300D01*
X0213468Y0128539D01*
X0212061Y0127132D01*
X0211300Y0125295D01*
X0211300Y0123305D01*
X0212061Y0121468D01*
X0213468Y0120061D01*
X0215305Y0119300D01*
X0213468Y0118539D01*
X0212061Y0117132D01*
X0211300Y0115295D01*
X0211300Y0113305D01*
X0212061Y0111468D01*
X0213468Y0110061D01*
X0215305Y0109300D01*
X0213468Y0108539D01*
X0212061Y0107132D01*
X0211300Y0105295D01*
X0211300Y0103305D01*
X0212061Y0101468D01*
X0213468Y0100061D01*
X0215305Y0099300D01*
X0213468Y0098539D01*
X0212061Y0097132D01*
X0211300Y0095295D01*
X0211300Y0093305D01*
X0212061Y0091468D01*
X0213468Y0090061D01*
X0215305Y0089300D01*
X0213468Y0088539D01*
X0212061Y0087132D01*
X0211300Y0085295D01*
X0211300Y0083305D01*
X0212061Y0081468D01*
X0213468Y0080061D01*
X0215305Y0079300D01*
X0213468Y0078539D01*
X0212061Y0077132D01*
X0211300Y0075295D01*
X0211300Y0073305D01*
X0212061Y0071468D01*
X0213468Y0070061D01*
X0215305Y0069300D01*
X0213468Y0068539D01*
X0212061Y0067132D01*
X0211300Y0065295D01*
X0211300Y0063305D01*
X0212061Y0061468D01*
X0213468Y0060061D01*
X0215305Y0059300D01*
X0223295Y0059300D01*
X0215305Y0059300D01*
X0213468Y0058539D01*
X0212061Y0057132D01*
X0211300Y0055295D01*
X0211300Y0053305D01*
X0212061Y0051468D01*
X0213468Y0050061D01*
X0215305Y0049300D01*
X0223295Y0049300D01*
X0215305Y0049300D01*
X0213468Y0048539D01*
X0212061Y0047132D01*
X0211300Y0045295D01*
X0211300Y0043305D01*
X0212061Y0041468D01*
X0213468Y0040061D01*
X0215305Y0039300D01*
X0223295Y0039300D01*
X0215305Y0039300D01*
X0213468Y0038539D01*
X0212061Y0037132D01*
X0211300Y0035295D01*
X0211300Y0033305D01*
X0212061Y0031468D01*
X0213468Y0030061D01*
X0215305Y0029300D01*
X0223295Y0029300D01*
X0215305Y0029300D01*
X0213468Y0028539D01*
X0212061Y0027132D01*
X0211300Y0025295D01*
X0211300Y0023305D01*
X0212061Y0021468D01*
X0213468Y0020061D01*
X0211889Y0021884D02*
X0172100Y0021884D01*
X0172100Y0023482D02*
X0211300Y0023482D01*
X0211300Y0025081D02*
X0172100Y0025081D01*
X0172100Y0026679D02*
X0211874Y0026679D01*
X0213207Y0028278D02*
X0172100Y0028278D01*
X0172100Y0029876D02*
X0213914Y0029876D01*
X0212058Y0031475D02*
X0172100Y0031475D01*
X0172100Y0033073D02*
X0211396Y0033073D01*
X0211300Y0034672D02*
X0172100Y0034672D01*
X0172100Y0036270D02*
X0211704Y0036270D01*
X0212798Y0037869D02*
X0172100Y0037869D01*
X0172100Y0039467D02*
X0214902Y0039467D01*
X0212463Y0041066D02*
X0172100Y0041066D01*
X0172100Y0042664D02*
X0211566Y0042664D01*
X0211300Y0044263D02*
X0172100Y0044263D01*
X0172100Y0045861D02*
X0211535Y0045861D01*
X0212389Y0047460D02*
X0172100Y0047460D01*
X0172100Y0049058D02*
X0214722Y0049058D01*
X0212872Y0050657D02*
X0172100Y0050657D01*
X0172100Y0052255D02*
X0211735Y0052255D01*
X0211300Y0053854D02*
X0172100Y0053854D01*
X0172100Y0055452D02*
X0211365Y0055452D01*
X0212027Y0057051D02*
X0172100Y0057051D01*
X0172100Y0058649D02*
X0213735Y0058649D01*
X0213281Y0060248D02*
X0172100Y0060248D01*
X0172100Y0061846D02*
X0211904Y0061846D01*
X0211300Y0063445D02*
X0172100Y0063445D01*
X0172100Y0065043D02*
X0211300Y0065043D01*
X0211858Y0066642D02*
X0172100Y0066642D01*
X0172100Y0068240D02*
X0213169Y0068240D01*
X0214004Y0069839D02*
X0172100Y0069839D01*
X0171122Y0071437D02*
X0212091Y0071437D01*
X0211412Y0073036D02*
X0169524Y0073036D01*
X0167925Y0074634D02*
X0211300Y0074634D01*
X0211689Y0076233D02*
X0166911Y0076233D01*
X0165840Y0077832D02*
X0212760Y0077832D01*
X0214991Y0079430D02*
X0163608Y0079430D01*
X0163295Y0079300D02*
X0155305Y0079300D01*
X0153468Y0080061D01*
X0152061Y0081468D01*
X0151300Y0083305D01*
X0151300Y0085295D01*
X0151460Y0085680D01*
X0147100Y0090040D01*
X0147100Y0077960D01*
X0151300Y0073760D01*
X0151300Y0075295D01*
X0152061Y0077132D01*
X0153468Y0078539D01*
X0155305Y0079300D01*
X0163295Y0079300D01*
X0166100Y0081029D02*
X0212500Y0081029D01*
X0211581Y0082627D02*
X0167019Y0082627D01*
X0167300Y0084226D02*
X0211300Y0084226D01*
X0211519Y0085824D02*
X0167081Y0085824D01*
X0166248Y0087423D02*
X0212352Y0087423D01*
X0214632Y0089021D02*
X0163968Y0089021D01*
X0163295Y0089300D02*
X0155760Y0089300D01*
X0155760Y0089300D01*
X0163295Y0089300D01*
X0165691Y0090620D02*
X0212909Y0090620D01*
X0211750Y0092218D02*
X0166850Y0092218D01*
X0167300Y0093817D02*
X0211300Y0093817D01*
X0211350Y0095415D02*
X0167250Y0095415D01*
X0166588Y0097014D02*
X0212012Y0097014D01*
X0213645Y0098612D02*
X0167572Y0098612D01*
X0169170Y0100211D02*
X0213318Y0100211D01*
X0211920Y0101809D02*
X0170769Y0101809D01*
X0172367Y0103408D02*
X0211300Y0103408D01*
X0211300Y0105006D02*
X0173966Y0105006D01*
X0174600Y0106605D02*
X0211843Y0106605D01*
X0213132Y0108203D02*
X0174600Y0108203D01*
X0174600Y0109802D02*
X0214094Y0109802D01*
X0215305Y0109300D02*
X0223295Y0109300D01*
X0225132Y0108539D01*
X0226500Y0107171D01*
X0226500Y0111429D01*
X0225132Y0110061D01*
X0223295Y0109300D01*
X0215305Y0109300D01*
X0212129Y0111400D02*
X0174600Y0111400D01*
X0174600Y0112999D02*
X0211427Y0112999D01*
X0211300Y0114597D02*
X0174600Y0114597D01*
X0174600Y0116196D02*
X0211673Y0116196D01*
X0212723Y0117794D02*
X0174600Y0117794D01*
X0174600Y0119393D02*
X0215081Y0119393D01*
X0215305Y0119300D02*
X0223295Y0119300D01*
X0225132Y0118539D01*
X0226500Y0117171D01*
X0226500Y0121429D01*
X0225132Y0120061D01*
X0223295Y0119300D01*
X0215305Y0119300D01*
X0212538Y0120991D02*
X0174600Y0120991D01*
X0174600Y0122590D02*
X0211596Y0122590D01*
X0211300Y0124188D02*
X0174600Y0124188D01*
X0174600Y0125787D02*
X0211504Y0125787D01*
X0212314Y0127385D02*
X0174600Y0127385D01*
X0174600Y0128984D02*
X0214542Y0128984D01*
X0215305Y0129300D02*
X0222840Y0129300D01*
X0222840Y0129300D01*
X0215305Y0129300D01*
X0212947Y0130582D02*
X0174600Y0130582D01*
X0174600Y0132181D02*
X0211766Y0132181D01*
X0211300Y0133779D02*
X0174600Y0133779D01*
X0174600Y0135378D02*
X0211335Y0135378D01*
X0211997Y0136976D02*
X0174600Y0136976D01*
X0174600Y0138575D02*
X0213555Y0138575D01*
X0213355Y0140173D02*
X0174600Y0140173D01*
X0174600Y0141772D02*
X0211935Y0141772D01*
X0211300Y0143370D02*
X0174600Y0143370D01*
X0174600Y0144969D02*
X0211300Y0144969D01*
X0211827Y0146568D02*
X0174600Y0146568D01*
X0174600Y0148166D02*
X0213095Y0148166D01*
X0213784Y0150195D02*
X0214457Y0149852D01*
X0215176Y0149618D01*
X0215922Y0149500D01*
X0219100Y0149500D01*
X0219100Y0154100D01*
X0219500Y0154100D01*
X0219500Y0154500D01*
X0219100Y0154500D01*
X0219100Y0159100D01*
X0215922Y0159100D01*
X0215176Y0158982D01*
X0214457Y0158748D01*
X0213784Y0158405D01*
X0213173Y0157961D01*
X0212639Y0157427D01*
X0212195Y0156816D01*
X0211852Y0156143D01*
X0211618Y0155424D01*
X0211500Y0154678D01*
X0211500Y0154500D01*
X0219100Y0154500D01*
X0219100Y0154100D01*
X0211500Y0154100D01*
X0211500Y0153922D01*
X0211618Y0153176D01*
X0211852Y0152457D01*
X0212195Y0151784D01*
X0212639Y0151173D01*
X0213173Y0150639D01*
X0213784Y0150195D01*
X0214726Y0149765D02*
X0174600Y0149765D01*
X0174600Y0151363D02*
X0186775Y0151363D01*
X0187649Y0151001D02*
X0190951Y0151001D01*
X0194001Y0152264D01*
X0196336Y0154599D01*
X0197599Y0157649D01*
X0197599Y0160951D01*
X0196336Y0164001D01*
X0194001Y0166336D01*
X0190951Y0167599D01*
X0187649Y0167599D01*
X0184599Y0166336D01*
X0182264Y0164001D01*
X0181001Y0160951D01*
X0181001Y0157649D01*
X0182264Y0154599D01*
X0184599Y0152264D01*
X0187649Y0151001D01*
X0191825Y0151363D02*
X0212501Y0151363D01*
X0211688Y0152962D02*
X0194698Y0152962D01*
X0196297Y0154560D02*
X0211500Y0154560D01*
X0211860Y0156159D02*
X0196982Y0156159D01*
X0197599Y0157757D02*
X0212969Y0157757D01*
X0213468Y0160061D02*
X0215305Y0159300D01*
X0223295Y0159300D01*
X0225132Y0160061D01*
X0225371Y0160300D01*
X0247643Y0160300D01*
X0305300Y0102643D01*
X0305300Y0096798D01*
X0303468Y0096039D01*
X0302061Y0094632D01*
X0301300Y0092795D01*
X0301300Y0090805D01*
X0302061Y0088968D01*
X0303468Y0087561D01*
X0305305Y0086800D01*
X0313295Y0086800D01*
X0315132Y0087561D01*
X0316539Y0088968D01*
X0317300Y0090805D01*
X0317300Y0092795D01*
X0316539Y0094632D01*
X0315132Y0096039D01*
X0313300Y0096798D01*
X0313300Y0105096D01*
X0312691Y0106566D01*
X0311566Y0107691D01*
X0251566Y0167691D01*
X0250096Y0168300D01*
X0225371Y0168300D01*
X0225132Y0168539D01*
X0223295Y0169300D01*
X0215305Y0169300D01*
X0213468Y0168539D01*
X0212061Y0167132D01*
X0211300Y0165295D01*
X0211300Y0163305D01*
X0212061Y0161468D01*
X0213468Y0160061D01*
X0212575Y0160954D02*
X0197598Y0160954D01*
X0197599Y0159356D02*
X0215171Y0159356D01*
X0219100Y0157757D02*
X0219500Y0157757D01*
X0219500Y0159100D02*
X0219500Y0154500D01*
X0227100Y0154500D01*
X0227100Y0154678D01*
X0226982Y0155424D01*
X0226748Y0156143D01*
X0226405Y0156816D01*
X0225961Y0157427D01*
X0225427Y0157961D01*
X0224816Y0158405D01*
X0224143Y0158748D01*
X0223424Y0158982D01*
X0222678Y0159100D01*
X0219500Y0159100D01*
X0219500Y0156159D02*
X0219100Y0156159D01*
X0219100Y0154560D02*
X0219500Y0154560D01*
X0219500Y0154100D02*
X0227100Y0154100D01*
X0227100Y0153922D01*
X0226982Y0153176D01*
X0226748Y0152457D01*
X0226405Y0151784D01*
X0225961Y0151173D01*
X0225427Y0150639D01*
X0224816Y0150195D01*
X0224143Y0149852D01*
X0223424Y0149618D01*
X0222678Y0149500D01*
X0219500Y0149500D01*
X0219500Y0154100D01*
X0219500Y0152962D02*
X0219100Y0152962D01*
X0219100Y0151363D02*
X0219500Y0151363D01*
X0219500Y0149765D02*
X0219100Y0149765D01*
X0223874Y0149765D02*
X0258179Y0149765D01*
X0256580Y0151363D02*
X0226099Y0151363D01*
X0226912Y0152962D02*
X0254982Y0152962D01*
X0253383Y0154560D02*
X0227100Y0154560D01*
X0226740Y0156159D02*
X0251785Y0156159D01*
X0250186Y0157757D02*
X0225631Y0157757D01*
X0223429Y0159356D02*
X0248588Y0159356D01*
X0255106Y0164151D02*
X0361500Y0164151D01*
X0361500Y0162960D02*
X0354321Y0155781D01*
X0353508Y0155781D01*
X0352045Y0155175D01*
X0350925Y0154055D01*
X0350319Y0152592D01*
X0350319Y0151008D01*
X0350925Y0149545D01*
X0352045Y0148425D01*
X0353508Y0147819D01*
X0355092Y0147819D01*
X0356555Y0148425D01*
X0357675Y0149545D01*
X0358281Y0151008D01*
X0358281Y0151821D01*
X0366674Y0160214D01*
X0367100Y0161243D01*
X0367100Y0181470D01*
X0367675Y0182045D01*
X0368281Y0183508D01*
X0368281Y0185092D01*
X0367675Y0186555D01*
X0366555Y0187675D01*
X0365092Y0188281D01*
X0363508Y0188281D01*
X0362045Y0187675D01*
X0360925Y0186555D01*
X0360319Y0185092D01*
X0360319Y0183508D01*
X0360925Y0182045D01*
X0361500Y0181470D01*
X0361500Y0162960D01*
X0361093Y0162553D02*
X0256704Y0162553D01*
X0258303Y0160954D02*
X0359494Y0160954D01*
X0357896Y0159356D02*
X0259901Y0159356D01*
X0261500Y0157757D02*
X0356297Y0157757D01*
X0354699Y0156159D02*
X0263098Y0156159D01*
X0264697Y0154560D02*
X0351430Y0154560D01*
X0350472Y0152962D02*
X0266295Y0152962D01*
X0267894Y0151363D02*
X0350319Y0151363D01*
X0350834Y0149765D02*
X0269492Y0149765D01*
X0271091Y0148166D02*
X0352670Y0148166D01*
X0355930Y0148166D02*
X0375001Y0148166D01*
X0375001Y0146568D02*
X0272689Y0146568D01*
X0274288Y0144969D02*
X0375001Y0144969D01*
X0375001Y0143370D02*
X0275886Y0143370D01*
X0277485Y0141772D02*
X0375001Y0141772D01*
X0375001Y0140173D02*
X0279083Y0140173D01*
X0280682Y0138575D02*
X0375001Y0138575D01*
X0375001Y0136976D02*
X0282280Y0136976D01*
X0283879Y0135378D02*
X0375001Y0135378D01*
X0375001Y0133779D02*
X0285477Y0133779D01*
X0287076Y0132181D02*
X0375001Y0132181D01*
X0375001Y0130582D02*
X0288674Y0130582D01*
X0290273Y0128984D02*
X0375001Y0128984D01*
X0375001Y0127385D02*
X0291871Y0127385D01*
X0293470Y0125787D02*
X0375001Y0125787D01*
X0375001Y0124188D02*
X0295068Y0124188D01*
X0296667Y0122590D02*
X0375001Y0122590D01*
X0375001Y0120991D02*
X0298266Y0120991D01*
X0299864Y0119393D02*
X0375001Y0119393D01*
X0375001Y0117794D02*
X0301463Y0117794D01*
X0303061Y0116196D02*
X0375001Y0116196D01*
X0375001Y0114597D02*
X0304660Y0114597D01*
X0306258Y0112999D02*
X0375001Y0112999D01*
X0375001Y0111400D02*
X0307857Y0111400D01*
X0309455Y0109802D02*
X0375001Y0109802D01*
X0375001Y0108203D02*
X0311054Y0108203D01*
X0312652Y0106605D02*
X0375001Y0106605D01*
X0375001Y0105006D02*
X0313300Y0105006D01*
X0313300Y0103408D02*
X0375001Y0103408D01*
X0375001Y0101809D02*
X0313300Y0101809D01*
X0313300Y0100211D02*
X0375001Y0100211D01*
X0375001Y0098612D02*
X0313300Y0098612D01*
X0313300Y0097014D02*
X0375001Y0097014D01*
X0375001Y0095415D02*
X0315756Y0095415D01*
X0316877Y0093817D02*
X0375001Y0093817D01*
X0375001Y0092218D02*
X0317300Y0092218D01*
X0317223Y0090620D02*
X0375001Y0090620D01*
X0375001Y0089021D02*
X0316561Y0089021D01*
X0314798Y0087423D02*
X0375001Y0087423D01*
X0375001Y0085824D02*
X0314928Y0085824D01*
X0314816Y0085905D02*
X0314143Y0086248D01*
X0313424Y0086482D01*
X0312678Y0086600D01*
X0309500Y0086600D01*
X0309500Y0082000D01*
X0309100Y0082000D01*
X0309100Y0086600D01*
X0305922Y0086600D01*
X0305176Y0086482D01*
X0304457Y0086248D01*
X0303784Y0085905D01*
X0303173Y0085461D01*
X0302639Y0084927D01*
X0302195Y0084316D01*
X0301852Y0083643D01*
X0301618Y0082924D01*
X0301500Y0082178D01*
X0301500Y0082000D01*
X0309100Y0082000D01*
X0309100Y0081600D01*
X0309500Y0081600D01*
X0309500Y0082000D01*
X0317100Y0082000D01*
X0317100Y0082178D01*
X0316982Y0082924D01*
X0316748Y0083643D01*
X0316405Y0084316D01*
X0315961Y0084927D01*
X0315427Y0085461D01*
X0314816Y0085905D01*
X0316451Y0084226D02*
X0375001Y0084226D01*
X0375001Y0082627D02*
X0317029Y0082627D01*
X0317100Y0081600D02*
X0309500Y0081600D01*
X0309500Y0077000D01*
X0312678Y0077000D01*
X0313424Y0077118D01*
X0314143Y0077352D01*
X0314816Y0077695D01*
X0315427Y0078139D01*
X0315961Y0078673D01*
X0316405Y0079284D01*
X0316748Y0079957D01*
X0316982Y0080676D01*
X0317100Y0081422D01*
X0317100Y0081600D01*
X0317038Y0081029D02*
X0375001Y0081029D01*
X0375001Y0079430D02*
X0316480Y0079430D01*
X0315004Y0077832D02*
X0375001Y0077832D01*
X0375001Y0076233D02*
X0314663Y0076233D01*
X0315132Y0076039D02*
X0313295Y0076800D01*
X0305305Y0076800D01*
X0303468Y0076039D01*
X0302061Y0074632D01*
X0301300Y0072795D01*
X0301300Y0070805D01*
X0302061Y0068968D01*
X0303468Y0067561D01*
X0305305Y0066800D01*
X0303468Y0066039D01*
X0302061Y0064632D01*
X0301300Y0062795D01*
X0301300Y0060805D01*
X0302061Y0058968D01*
X0303468Y0057561D01*
X0305305Y0056800D01*
X0303468Y0056039D01*
X0302061Y0054632D01*
X0301300Y0052795D01*
X0301300Y0050805D01*
X0302061Y0048968D01*
X0303468Y0047561D01*
X0305305Y0046800D01*
X0303468Y0046039D01*
X0302061Y0044632D01*
X0301300Y0042795D01*
X0301300Y0040805D01*
X0302061Y0038968D01*
X0303468Y0037561D01*
X0305305Y0036800D01*
X0303468Y0036039D01*
X0302061Y0034632D01*
X0301300Y0032795D01*
X0301300Y0030805D01*
X0302061Y0028968D01*
X0303468Y0027561D01*
X0305305Y0026800D01*
X0313295Y0026800D01*
X0315132Y0027561D01*
X0316539Y0028968D01*
X0317300Y0030805D01*
X0317300Y0032795D01*
X0316539Y0034632D01*
X0315132Y0036039D01*
X0313295Y0036800D01*
X0305305Y0036800D01*
X0313295Y0036800D01*
X0315132Y0037561D01*
X0316539Y0038968D01*
X0317300Y0040805D01*
X0317300Y0042795D01*
X0316539Y0044632D01*
X0315132Y0046039D01*
X0313295Y0046800D01*
X0305305Y0046800D01*
X0313295Y0046800D01*
X0315132Y0047561D01*
X0316539Y0048968D01*
X0317300Y0050805D01*
X0317300Y0052795D01*
X0316539Y0054632D01*
X0315132Y0056039D01*
X0313295Y0056800D01*
X0305305Y0056800D01*
X0313295Y0056800D01*
X0315132Y0057561D01*
X0316539Y0058968D01*
X0317300Y0060805D01*
X0317300Y0062795D01*
X0316539Y0064632D01*
X0315132Y0066039D01*
X0313295Y0066800D01*
X0305305Y0066800D01*
X0313295Y0066800D01*
X0315132Y0067561D01*
X0316539Y0068968D01*
X0317300Y0070805D01*
X0317300Y0072795D01*
X0316539Y0074632D01*
X0315132Y0076039D01*
X0316537Y0074634D02*
X0375001Y0074634D01*
X0375001Y0073036D02*
X0317200Y0073036D01*
X0317300Y0071437D02*
X0375001Y0071437D01*
X0375001Y0069839D02*
X0316900Y0069839D01*
X0315812Y0068240D02*
X0375001Y0068240D01*
X0375001Y0066642D02*
X0313676Y0066642D01*
X0316128Y0065043D02*
X0375001Y0065043D01*
X0375001Y0063445D02*
X0317031Y0063445D01*
X0317300Y0061846D02*
X0375001Y0061846D01*
X0375001Y0060248D02*
X0317069Y0060248D01*
X0316220Y0058649D02*
X0375001Y0058649D01*
X0375001Y0057051D02*
X0313900Y0057051D01*
X0315719Y0055452D02*
X0375001Y0055452D01*
X0375001Y0053854D02*
X0316861Y0053854D01*
X0317300Y0052255D02*
X0375001Y0052255D01*
X0375001Y0050657D02*
X0317238Y0050657D01*
X0316576Y0049058D02*
X0375001Y0049058D01*
X0375001Y0047460D02*
X0314887Y0047460D01*
X0315310Y0045861D02*
X0375001Y0045861D01*
X0375001Y0044263D02*
X0316692Y0044263D01*
X0317300Y0042664D02*
X0375001Y0042664D01*
X0375001Y0041066D02*
X0317300Y0041066D01*
X0316746Y0039467D02*
X0375001Y0039467D01*
X0375001Y0037869D02*
X0315440Y0037869D01*
X0314574Y0036270D02*
X0375001Y0036270D01*
X0375001Y0034672D02*
X0316499Y0034672D01*
X0317185Y0033073D02*
X0375001Y0033073D01*
X0375001Y0031475D02*
X0317300Y0031475D01*
X0316915Y0029876D02*
X0375001Y0029876D01*
X0375001Y0028278D02*
X0315849Y0028278D01*
X0314816Y0025905D02*
X0314143Y0026248D01*
X0313424Y0026482D01*
X0312678Y0026600D01*
X0309500Y0026600D01*
X0309500Y0022000D01*
X0309100Y0022000D01*
X0309100Y0026600D01*
X0305922Y0026600D01*
X0305176Y0026482D01*
X0304457Y0026248D01*
X0303784Y0025905D01*
X0303173Y0025461D01*
X0302639Y0024927D01*
X0302195Y0024316D01*
X0301852Y0023643D01*
X0301618Y0022924D01*
X0301500Y0022178D01*
X0301500Y0022000D01*
X0309100Y0022000D01*
X0309100Y0021600D01*
X0309500Y0021600D01*
X0309500Y0022000D01*
X0317100Y0022000D01*
X0317100Y0022178D01*
X0316982Y0022924D01*
X0316748Y0023643D01*
X0316405Y0024316D01*
X0315961Y0024927D01*
X0315427Y0025461D01*
X0314816Y0025905D01*
X0315808Y0025081D02*
X0375001Y0025081D01*
X0375001Y0026679D02*
X0263586Y0026679D01*
X0265849Y0028278D02*
X0302751Y0028278D01*
X0301685Y0029876D02*
X0266915Y0029876D01*
X0267300Y0031475D02*
X0301300Y0031475D01*
X0301415Y0033073D02*
X0267185Y0033073D01*
X0266499Y0034672D02*
X0302101Y0034672D01*
X0304026Y0036270D02*
X0264574Y0036270D01*
X0265440Y0037869D02*
X0303160Y0037869D01*
X0301854Y0039467D02*
X0266746Y0039467D01*
X0267300Y0041066D02*
X0301300Y0041066D01*
X0301300Y0042664D02*
X0267300Y0042664D01*
X0266692Y0044263D02*
X0301908Y0044263D01*
X0303290Y0045861D02*
X0265310Y0045861D01*
X0264887Y0047460D02*
X0303713Y0047460D01*
X0302024Y0049058D02*
X0266576Y0049058D01*
X0267238Y0050657D02*
X0301362Y0050657D01*
X0301300Y0052255D02*
X0267300Y0052255D01*
X0266861Y0053854D02*
X0301739Y0053854D01*
X0302881Y0055452D02*
X0265719Y0055452D01*
X0265132Y0057561D02*
X0263295Y0056800D01*
X0255305Y0056800D01*
X0253468Y0057561D01*
X0252061Y0058968D01*
X0251300Y0060805D01*
X0251300Y0062795D01*
X0252061Y0064632D01*
X0253468Y0066039D01*
X0255305Y0066800D01*
X0263295Y0066800D01*
X0265132Y0066039D01*
X0266539Y0064632D01*
X0267300Y0062795D01*
X0267300Y0060805D01*
X0266539Y0058968D01*
X0265132Y0057561D01*
X0263900Y0057051D02*
X0304700Y0057051D01*
X0302380Y0058649D02*
X0266220Y0058649D01*
X0267069Y0060248D02*
X0301531Y0060248D01*
X0301300Y0061846D02*
X0267300Y0061846D01*
X0267031Y0063445D02*
X0301569Y0063445D01*
X0302472Y0065043D02*
X0266128Y0065043D01*
X0265132Y0067561D02*
X0263295Y0066800D01*
X0255305Y0066800D01*
X0253468Y0067561D01*
X0252061Y0068968D01*
X0251300Y0070805D01*
X0251300Y0072795D01*
X0252061Y0074632D01*
X0253468Y0076039D01*
X0255305Y0076800D01*
X0263295Y0076800D01*
X0265132Y0076039D01*
X0266539Y0074632D01*
X0267300Y0072795D01*
X0267300Y0070805D01*
X0266539Y0068968D01*
X0265132Y0067561D01*
X0265812Y0068240D02*
X0302788Y0068240D01*
X0301700Y0069839D02*
X0266900Y0069839D01*
X0267300Y0071437D02*
X0301300Y0071437D01*
X0301400Y0073036D02*
X0267200Y0073036D01*
X0266537Y0074634D02*
X0302063Y0074634D01*
X0303937Y0076233D02*
X0264663Y0076233D01*
X0265132Y0077561D02*
X0263295Y0076800D01*
X0255305Y0076800D01*
X0253468Y0077561D01*
X0252061Y0078968D01*
X0251300Y0080805D01*
X0251300Y0082795D01*
X0252061Y0084632D01*
X0253468Y0086039D01*
X0255305Y0086800D01*
X0263295Y0086800D01*
X0265132Y0086039D01*
X0266539Y0084632D01*
X0267300Y0082795D01*
X0267300Y0080805D01*
X0266539Y0078968D01*
X0265132Y0077561D01*
X0265403Y0077832D02*
X0303596Y0077832D01*
X0303784Y0077695D02*
X0304457Y0077352D01*
X0305176Y0077118D01*
X0305922Y0077000D01*
X0309100Y0077000D01*
X0309100Y0081600D01*
X0301500Y0081600D01*
X0301500Y0081422D01*
X0301618Y0080676D01*
X0301852Y0079957D01*
X0302195Y0079284D01*
X0302639Y0078673D01*
X0303173Y0078139D01*
X0303784Y0077695D01*
X0302120Y0079430D02*
X0266730Y0079430D01*
X0267300Y0081029D02*
X0301562Y0081029D01*
X0301571Y0082627D02*
X0267300Y0082627D01*
X0266707Y0084226D02*
X0302149Y0084226D01*
X0303672Y0085824D02*
X0265347Y0085824D01*
X0264798Y0087423D02*
X0303802Y0087423D01*
X0302039Y0089021D02*
X0266561Y0089021D01*
X0266539Y0088968D02*
X0267300Y0090805D01*
X0267300Y0092795D01*
X0266539Y0094632D01*
X0265132Y0096039D01*
X0263295Y0096800D01*
X0255305Y0096800D01*
X0253468Y0096039D01*
X0252061Y0094632D01*
X0251300Y0092795D01*
X0251300Y0090805D01*
X0252061Y0088968D01*
X0253468Y0087561D01*
X0255305Y0086800D01*
X0263295Y0086800D01*
X0265132Y0087561D01*
X0266539Y0088968D01*
X0267223Y0090620D02*
X0301377Y0090620D01*
X0301300Y0092218D02*
X0267300Y0092218D01*
X0266877Y0093817D02*
X0301723Y0093817D01*
X0302844Y0095415D02*
X0265756Y0095415D01*
X0253802Y0087423D02*
X0232100Y0087423D01*
X0232100Y0089021D02*
X0252039Y0089021D01*
X0251377Y0090620D02*
X0232100Y0090620D01*
X0232100Y0092218D02*
X0251300Y0092218D01*
X0251723Y0093817D02*
X0232100Y0093817D01*
X0232100Y0095415D02*
X0252844Y0095415D01*
X0253253Y0085824D02*
X0232100Y0085824D01*
X0232100Y0084226D02*
X0251893Y0084226D01*
X0251300Y0082627D02*
X0232100Y0082627D01*
X0232100Y0081029D02*
X0251300Y0081029D01*
X0251870Y0079430D02*
X0232100Y0079430D01*
X0232100Y0077832D02*
X0253197Y0077832D01*
X0253937Y0076233D02*
X0232100Y0076233D01*
X0232100Y0074634D02*
X0252063Y0074634D01*
X0251400Y0073036D02*
X0232100Y0073036D01*
X0232100Y0071437D02*
X0251300Y0071437D01*
X0251700Y0069839D02*
X0232100Y0069839D01*
X0232100Y0068240D02*
X0252788Y0068240D01*
X0254924Y0066642D02*
X0232100Y0066642D01*
X0232100Y0065043D02*
X0252472Y0065043D01*
X0251569Y0063445D02*
X0232100Y0063445D01*
X0232100Y0061846D02*
X0251300Y0061846D01*
X0251531Y0060248D02*
X0232312Y0060248D01*
X0233910Y0058649D02*
X0252380Y0058649D01*
X0254700Y0057051D02*
X0235509Y0057051D01*
X0237107Y0055452D02*
X0252881Y0055452D01*
X0251739Y0053854D02*
X0238706Y0053854D01*
X0240304Y0052255D02*
X0251300Y0052255D01*
X0251362Y0050657D02*
X0241903Y0050657D01*
X0243501Y0049058D02*
X0252024Y0049058D01*
X0253713Y0047460D02*
X0245100Y0047460D01*
X0246698Y0045861D02*
X0253290Y0045861D01*
X0259300Y0041800D02*
X0246800Y0041800D01*
X0229300Y0059300D01*
X0229300Y0126800D01*
X0221800Y0134300D01*
X0219300Y0134300D01*
X0225045Y0138575D02*
X0269368Y0138575D01*
X0267770Y0140173D02*
X0225245Y0140173D01*
X0226665Y0141772D02*
X0266171Y0141772D01*
X0264573Y0143370D02*
X0227300Y0143370D01*
X0227300Y0144969D02*
X0262974Y0144969D01*
X0261376Y0146568D02*
X0226773Y0146568D01*
X0225505Y0148166D02*
X0259777Y0148166D01*
X0270967Y0136976D02*
X0226603Y0136976D01*
X0227265Y0135378D02*
X0272565Y0135378D01*
X0274164Y0133779D02*
X0227300Y0133779D01*
X0227879Y0132181D02*
X0250197Y0132181D01*
X0249650Y0131954D02*
X0251492Y0132717D01*
X0253486Y0132717D01*
X0255328Y0131954D01*
X0256738Y0130544D01*
X0257501Y0128702D01*
X0257501Y0126709D01*
X0256738Y0124867D01*
X0255328Y0123457D01*
X0253486Y0122694D01*
X0251492Y0122694D01*
X0249650Y0123457D01*
X0248240Y0124867D01*
X0247477Y0126709D01*
X0247477Y0128702D01*
X0248240Y0130544D01*
X0249650Y0131954D01*
X0248278Y0130582D02*
X0229477Y0130582D01*
X0231076Y0128984D02*
X0247594Y0128984D01*
X0247477Y0127385D02*
X0232088Y0127385D01*
X0232100Y0125787D02*
X0247859Y0125787D01*
X0248918Y0124188D02*
X0232100Y0124188D01*
X0232100Y0122590D02*
X0285353Y0122590D01*
X0283755Y0124188D02*
X0269312Y0124188D01*
X0269312Y0123865D02*
X0269312Y0131546D01*
X0268140Y0132717D01*
X0260460Y0132717D01*
X0259288Y0131546D01*
X0259288Y0123865D01*
X0260460Y0122694D01*
X0268140Y0122694D01*
X0269312Y0123865D01*
X0269312Y0125787D02*
X0282156Y0125787D01*
X0280558Y0127385D02*
X0269312Y0127385D01*
X0269312Y0128984D02*
X0278959Y0128984D01*
X0277361Y0130582D02*
X0269312Y0130582D01*
X0268677Y0132181D02*
X0275762Y0132181D01*
X0267139Y0120143D02*
X0265297Y0120906D01*
X0263303Y0120906D01*
X0261461Y0120143D01*
X0260051Y0118733D01*
X0259288Y0116891D01*
X0259288Y0114898D01*
X0260051Y0113056D01*
X0261461Y0111646D01*
X0263303Y0110883D01*
X0265297Y0110883D01*
X0267139Y0111646D01*
X0268549Y0113056D01*
X0269312Y0114898D01*
X0269312Y0116891D01*
X0268549Y0118733D01*
X0267139Y0120143D01*
X0267889Y0119393D02*
X0288550Y0119393D01*
X0286952Y0120991D02*
X0232100Y0120991D01*
X0232100Y0119393D02*
X0248900Y0119393D01*
X0248240Y0118733D02*
X0247477Y0116891D01*
X0247477Y0114898D01*
X0248240Y0113056D01*
X0249650Y0111646D01*
X0251492Y0110883D01*
X0253486Y0110883D01*
X0255328Y0111646D01*
X0256738Y0113056D01*
X0257501Y0114898D01*
X0257501Y0116891D01*
X0256738Y0118733D01*
X0255328Y0120143D01*
X0253486Y0120906D01*
X0251492Y0120906D01*
X0249650Y0120143D01*
X0248240Y0118733D01*
X0247851Y0117794D02*
X0232100Y0117794D01*
X0232100Y0116196D02*
X0247477Y0116196D01*
X0247602Y0114597D02*
X0232100Y0114597D01*
X0232100Y0112999D02*
X0248297Y0112999D01*
X0250243Y0111400D02*
X0232100Y0111400D01*
X0232100Y0109802D02*
X0298141Y0109802D01*
X0296543Y0111400D02*
X0266546Y0111400D01*
X0268492Y0112999D02*
X0294944Y0112999D01*
X0293346Y0114597D02*
X0269187Y0114597D01*
X0269312Y0116196D02*
X0291747Y0116196D01*
X0290149Y0117794D02*
X0268938Y0117794D01*
X0262054Y0111400D02*
X0254735Y0111400D01*
X0256681Y0112999D02*
X0260108Y0112999D01*
X0259413Y0114597D02*
X0257376Y0114597D01*
X0257501Y0116196D02*
X0259288Y0116196D01*
X0259662Y0117794D02*
X0257127Y0117794D01*
X0256078Y0119393D02*
X0260711Y0119393D01*
X0259288Y0124188D02*
X0256060Y0124188D01*
X0257119Y0125787D02*
X0259288Y0125787D01*
X0259288Y0127385D02*
X0257501Y0127385D01*
X0257384Y0128984D02*
X0259288Y0128984D01*
X0259288Y0130582D02*
X0256700Y0130582D01*
X0254781Y0132181D02*
X0259923Y0132181D01*
X0226500Y0120991D02*
X0226062Y0120991D01*
X0226500Y0119393D02*
X0223519Y0119393D01*
X0225877Y0117794D02*
X0226500Y0117794D01*
X0226471Y0111400D02*
X0226500Y0111400D01*
X0226500Y0109802D02*
X0224506Y0109802D01*
X0225468Y0108203D02*
X0226500Y0108203D01*
X0232100Y0108203D02*
X0299740Y0108203D01*
X0301338Y0106605D02*
X0232100Y0106605D01*
X0232100Y0105006D02*
X0302937Y0105006D01*
X0304535Y0103408D02*
X0232100Y0103408D01*
X0232100Y0101809D02*
X0305300Y0101809D01*
X0305300Y0100211D02*
X0232100Y0100211D01*
X0232100Y0098612D02*
X0305300Y0098612D01*
X0305300Y0097014D02*
X0232100Y0097014D01*
X0226500Y0097171D02*
X0226500Y0101429D01*
X0225132Y0100061D01*
X0223295Y0099300D01*
X0215305Y0099300D01*
X0223295Y0099300D01*
X0225132Y0098539D01*
X0226500Y0097171D01*
X0226500Y0098612D02*
X0224955Y0098612D01*
X0225282Y0100211D02*
X0226500Y0100211D01*
X0226500Y0091429D02*
X0226500Y0087171D01*
X0225132Y0088539D01*
X0223295Y0089300D01*
X0215305Y0089300D01*
X0223295Y0089300D01*
X0225132Y0090061D01*
X0226500Y0091429D01*
X0226500Y0090620D02*
X0225691Y0090620D01*
X0226500Y0089021D02*
X0223968Y0089021D01*
X0226248Y0087423D02*
X0226500Y0087423D01*
X0226500Y0081429D02*
X0226500Y0077171D01*
X0225132Y0078539D01*
X0223295Y0079300D01*
X0215305Y0079300D01*
X0223295Y0079300D01*
X0225132Y0080061D01*
X0226500Y0081429D01*
X0226500Y0081029D02*
X0226100Y0081029D01*
X0226500Y0079430D02*
X0223608Y0079430D01*
X0225840Y0077832D02*
X0226500Y0077832D01*
X0226500Y0071429D02*
X0226500Y0067171D01*
X0225132Y0068539D01*
X0223295Y0069300D01*
X0215305Y0069300D01*
X0223295Y0069300D01*
X0225132Y0070061D01*
X0226500Y0071429D01*
X0226500Y0069839D02*
X0224596Y0069839D01*
X0225431Y0068240D02*
X0226500Y0068240D01*
X0226500Y0060248D02*
X0225319Y0060248D01*
X0224865Y0058649D02*
X0226539Y0058649D01*
X0226573Y0057051D02*
X0227589Y0057051D01*
X0227235Y0055452D02*
X0229188Y0055452D01*
X0230786Y0053854D02*
X0227300Y0053854D01*
X0226865Y0052255D02*
X0232385Y0052255D01*
X0233983Y0050657D02*
X0225728Y0050657D01*
X0223878Y0049058D02*
X0235582Y0049058D01*
X0237180Y0047460D02*
X0226211Y0047460D01*
X0227065Y0045861D02*
X0238779Y0045861D01*
X0240377Y0044263D02*
X0227300Y0044263D01*
X0227034Y0042664D02*
X0241976Y0042664D01*
X0243574Y0041066D02*
X0226137Y0041066D01*
X0223698Y0039467D02*
X0245173Y0039467D01*
X0253160Y0037869D02*
X0225802Y0037869D01*
X0226896Y0036270D02*
X0254026Y0036270D01*
X0252101Y0034672D02*
X0227300Y0034672D01*
X0227204Y0033073D02*
X0251415Y0033073D01*
X0251300Y0031475D02*
X0226542Y0031475D01*
X0224686Y0029876D02*
X0251685Y0029876D01*
X0252751Y0028278D02*
X0225393Y0028278D01*
X0226726Y0026679D02*
X0255014Y0026679D01*
X0252510Y0025081D02*
X0227300Y0025081D01*
X0227300Y0023482D02*
X0251585Y0023482D01*
X0251300Y0021884D02*
X0226711Y0021884D01*
X0225356Y0020285D02*
X0251516Y0020285D01*
X0263990Y0017088D02*
X0305366Y0017088D01*
X0305176Y0017118D02*
X0305922Y0017000D01*
X0309100Y0017000D01*
X0309100Y0021600D01*
X0301500Y0021600D01*
X0301500Y0021422D01*
X0301618Y0020676D01*
X0301852Y0019957D01*
X0302195Y0019284D01*
X0302639Y0018673D01*
X0303173Y0018139D01*
X0303784Y0017695D01*
X0304457Y0017352D01*
X0305176Y0017118D01*
X0302629Y0018687D02*
X0266258Y0018687D01*
X0267084Y0020285D02*
X0301745Y0020285D01*
X0301800Y0023482D02*
X0267015Y0023482D01*
X0267300Y0021884D02*
X0309100Y0021884D01*
X0309500Y0021884D02*
X0358422Y0021884D01*
X0356048Y0020285D02*
X0316855Y0020285D01*
X0316748Y0019957D02*
X0316982Y0020676D01*
X0317100Y0021422D01*
X0317100Y0021600D01*
X0309500Y0021600D01*
X0309500Y0017000D01*
X0312678Y0017000D01*
X0313424Y0017118D01*
X0314143Y0017352D01*
X0314816Y0017695D01*
X0315427Y0018139D01*
X0315961Y0018673D01*
X0316405Y0019284D01*
X0316748Y0019957D01*
X0315971Y0018687D02*
X0354634Y0018687D01*
X0353972Y0017088D02*
X0313234Y0017088D01*
X0309500Y0017088D02*
X0309100Y0017088D01*
X0309100Y0018687D02*
X0309500Y0018687D01*
X0309500Y0020285D02*
X0309100Y0020285D01*
X0309100Y0023482D02*
X0309500Y0023482D01*
X0309500Y0025081D02*
X0309100Y0025081D01*
X0302792Y0025081D02*
X0266090Y0025081D01*
X0316800Y0023482D02*
X0375001Y0023482D01*
X0375001Y0021884D02*
X0365178Y0021884D01*
X0367552Y0020285D02*
X0375001Y0020285D01*
X0375001Y0018687D02*
X0368966Y0018687D01*
X0369628Y0017088D02*
X0375001Y0017088D01*
X0375001Y0015490D02*
X0370099Y0015490D01*
X0370099Y0013891D02*
X0375001Y0013891D01*
X0375001Y0012293D02*
X0369951Y0012293D01*
X0369289Y0010694D02*
X0375001Y0010694D01*
X0375001Y0009096D02*
X0368332Y0009096D01*
X0366734Y0007497D02*
X0375001Y0007497D01*
X0304924Y0066642D02*
X0263676Y0066642D01*
X0309100Y0077832D02*
X0309500Y0077832D01*
X0309500Y0079430D02*
X0309100Y0079430D01*
X0309100Y0081029D02*
X0309500Y0081029D01*
X0309500Y0082627D02*
X0309100Y0082627D01*
X0309100Y0084226D02*
X0309500Y0084226D01*
X0309500Y0085824D02*
X0309100Y0085824D01*
X0357766Y0149765D02*
X0375001Y0149765D01*
X0375001Y0151363D02*
X0358281Y0151363D01*
X0359421Y0152962D02*
X0375001Y0152962D01*
X0375001Y0154560D02*
X0361020Y0154560D01*
X0362618Y0156159D02*
X0375001Y0156159D01*
X0375001Y0157757D02*
X0364217Y0157757D01*
X0365815Y0159356D02*
X0375001Y0159356D01*
X0375001Y0160954D02*
X0366980Y0160954D01*
X0367100Y0162553D02*
X0375001Y0162553D01*
X0375001Y0164151D02*
X0367100Y0164151D01*
X0367100Y0165750D02*
X0375001Y0165750D01*
X0375001Y0167348D02*
X0367100Y0167348D01*
X0367100Y0168947D02*
X0375001Y0168947D01*
X0375001Y0170545D02*
X0367100Y0170545D01*
X0367100Y0172144D02*
X0375001Y0172144D01*
X0375001Y0173742D02*
X0367100Y0173742D01*
X0367100Y0175341D02*
X0375001Y0175341D01*
X0375001Y0176939D02*
X0367100Y0176939D01*
X0367100Y0178538D02*
X0375001Y0178538D01*
X0375001Y0180136D02*
X0367100Y0180136D01*
X0367365Y0181735D02*
X0375001Y0181735D01*
X0375001Y0183333D02*
X0368209Y0183333D01*
X0368281Y0184932D02*
X0375001Y0184932D01*
X0375001Y0186530D02*
X0367685Y0186530D01*
X0365460Y0188129D02*
X0375001Y0188129D01*
X0375001Y0189727D02*
X0227250Y0189727D01*
X0228849Y0191326D02*
X0375001Y0191326D01*
X0375001Y0192924D02*
X0266884Y0192924D01*
X0268483Y0194523D02*
X0375001Y0194523D01*
X0375001Y0196121D02*
X0287640Y0196121D01*
X0287688Y0196205D02*
X0287811Y0196663D01*
X0287811Y0199300D01*
X0287811Y0201937D01*
X0287688Y0202395D01*
X0287451Y0202805D01*
X0287116Y0203140D01*
X0286706Y0203377D01*
X0286248Y0203500D01*
X0283611Y0203500D01*
X0283611Y0199300D01*
X0283611Y0199300D01*
X0283611Y0199300D01*
X0287811Y0199300D01*
X0283611Y0199300D01*
X0283611Y0199300D01*
X0283611Y0195100D01*
X0286248Y0195100D01*
X0286706Y0195223D01*
X0287116Y0195460D01*
X0287451Y0195795D01*
X0287688Y0196205D01*
X0287811Y0197720D02*
X0375001Y0197720D01*
X0375001Y0199318D02*
X0287811Y0199318D01*
X0287811Y0200917D02*
X0375001Y0200917D01*
X0375001Y0202515D02*
X0287619Y0202515D01*
X0283611Y0202515D02*
X0283611Y0202515D01*
X0283611Y0200917D02*
X0283611Y0200917D01*
X0283611Y0199318D02*
X0283611Y0199318D01*
X0283611Y0197720D02*
X0283611Y0197720D01*
X0283611Y0196121D02*
X0283611Y0196121D01*
X0279582Y0196121D02*
X0278781Y0196121D01*
X0275737Y0199300D02*
X0275737Y0205363D01*
X0274300Y0206800D01*
X0236800Y0206800D01*
X0235737Y0205737D01*
X0235737Y0199300D01*
X0238537Y0202723D02*
X0239411Y0201848D01*
X0239411Y0201937D01*
X0239534Y0202395D01*
X0239771Y0202805D01*
X0240106Y0203140D01*
X0240516Y0203377D01*
X0240974Y0203500D01*
X0243611Y0203500D01*
X0243611Y0199300D01*
X0243611Y0199300D01*
X0243611Y0203500D01*
X0246248Y0203500D01*
X0246706Y0203377D01*
X0247116Y0203140D01*
X0247451Y0202805D01*
X0247688Y0202395D01*
X0247811Y0201937D01*
X0247811Y0199300D01*
X0243611Y0199300D01*
X0243611Y0199300D01*
X0247811Y0199300D01*
X0247811Y0197100D01*
X0256138Y0197100D01*
X0255589Y0198425D01*
X0255589Y0200175D01*
X0256259Y0201792D01*
X0257497Y0203030D01*
X0259114Y0203700D01*
X0260864Y0203700D01*
X0262481Y0203030D01*
X0263719Y0201792D01*
X0263926Y0201293D01*
X0264133Y0201792D01*
X0265371Y0203030D01*
X0266988Y0203700D01*
X0268738Y0203700D01*
X0270355Y0203030D01*
X0271593Y0201792D01*
X0271800Y0201293D01*
X0272007Y0201792D01*
X0272937Y0202723D01*
X0272937Y0204000D01*
X0238537Y0204000D01*
X0238537Y0202723D01*
X0238744Y0202515D02*
X0239603Y0202515D01*
X0243611Y0202515D02*
X0243611Y0202515D01*
X0243611Y0200917D02*
X0243611Y0200917D01*
X0243611Y0199318D02*
X0243611Y0199318D01*
X0247811Y0199318D02*
X0255589Y0199318D01*
X0255881Y0197720D02*
X0247811Y0197720D01*
X0247811Y0200917D02*
X0255896Y0200917D01*
X0256982Y0202515D02*
X0247619Y0202515D01*
X0236800Y0206800D02*
X0216800Y0206800D01*
X0204300Y0194300D01*
X0194300Y0194300D01*
X0169300Y0169300D01*
X0169300Y0111800D01*
X0161800Y0104300D01*
X0159300Y0104300D01*
X0159300Y0094300D02*
X0171800Y0106800D01*
X0171800Y0166800D01*
X0196800Y0191800D01*
X0225363Y0191800D01*
X0227863Y0194300D01*
X0264300Y0194300D01*
X0267863Y0197863D01*
X0267863Y0199300D01*
X0270907Y0196121D02*
X0272693Y0196121D01*
X0272730Y0202515D02*
X0270870Y0202515D01*
X0264856Y0202515D02*
X0262996Y0202515D01*
X0278537Y0204114D02*
X0375001Y0204114D01*
X0375001Y0205712D02*
X0278537Y0205712D01*
X0278744Y0202515D02*
X0279603Y0202515D01*
X0286008Y0183281D02*
X0284545Y0182675D01*
X0284370Y0182500D01*
X0201730Y0182500D01*
X0201555Y0182675D01*
X0200092Y0183281D01*
X0198508Y0183281D01*
X0197045Y0182675D01*
X0195925Y0181555D01*
X0195319Y0180092D01*
X0195319Y0178508D01*
X0195925Y0177045D01*
X0197045Y0175925D01*
X0198508Y0175319D01*
X0200092Y0175319D01*
X0201555Y0175925D01*
X0201730Y0176100D01*
X0284370Y0176100D01*
X0284545Y0175925D01*
X0286008Y0175319D01*
X0287592Y0175319D01*
X0289055Y0175925D01*
X0290175Y0177045D01*
X0290781Y0178508D01*
X0290781Y0180092D01*
X0290175Y0181555D01*
X0289055Y0182675D01*
X0287592Y0183281D01*
X0286008Y0183281D01*
X0289995Y0181735D02*
X0361235Y0181735D01*
X0361500Y0180136D02*
X0290763Y0180136D01*
X0290781Y0178538D02*
X0361500Y0178538D01*
X0361500Y0176939D02*
X0290069Y0176939D01*
X0287645Y0175341D02*
X0361500Y0175341D01*
X0361500Y0173742D02*
X0182702Y0173742D01*
X0181103Y0172144D02*
X0361500Y0172144D01*
X0361500Y0170545D02*
X0179505Y0170545D01*
X0177906Y0168947D02*
X0214452Y0168947D01*
X0212277Y0167348D02*
X0191557Y0167348D01*
X0194587Y0165750D02*
X0211489Y0165750D01*
X0211300Y0164151D02*
X0196186Y0164151D01*
X0196936Y0162553D02*
X0211612Y0162553D01*
X0224148Y0168947D02*
X0361500Y0168947D01*
X0361500Y0167348D02*
X0251909Y0167348D01*
X0253507Y0165750D02*
X0361500Y0165750D01*
X0364300Y0161800D02*
X0354300Y0151800D01*
X0364300Y0161800D02*
X0364300Y0184300D01*
X0360391Y0183333D02*
X0192293Y0183333D01*
X0190695Y0181735D02*
X0196105Y0181735D01*
X0195337Y0180136D02*
X0189096Y0180136D01*
X0187498Y0178538D02*
X0195319Y0178538D01*
X0196031Y0176939D02*
X0185899Y0176939D01*
X0184301Y0175341D02*
X0198455Y0175341D01*
X0200145Y0175341D02*
X0285955Y0175341D01*
X0227863Y0194300D02*
X0227863Y0199300D01*
X0211753Y0205712D02*
X0003800Y0205712D01*
X0003800Y0204114D02*
X0210154Y0204114D01*
X0208556Y0202515D02*
X0206182Y0202515D01*
X0206374Y0200917D02*
X0206957Y0200917D01*
X0202174Y0200917D02*
X0202174Y0200917D01*
X0202174Y0202515D02*
X0202174Y0202515D01*
X0202174Y0203500D02*
X0202174Y0199300D01*
X0202174Y0203500D01*
X0198166Y0202515D02*
X0197307Y0202515D01*
X0194300Y0199300D02*
X0166800Y0171800D01*
X0154300Y0171800D01*
X0149300Y0166800D01*
X0149300Y0121800D01*
X0156800Y0114300D01*
X0159300Y0114300D01*
X0166500Y0127171D02*
X0165132Y0128539D01*
X0163295Y0129300D01*
X0155305Y0129300D01*
X0153468Y0128539D01*
X0152100Y0127171D01*
X0152100Y0131970D01*
X0152195Y0131784D01*
X0152639Y0131173D01*
X0153173Y0130639D01*
X0153784Y0130195D01*
X0154457Y0129852D01*
X0155176Y0129618D01*
X0155922Y0129500D01*
X0159100Y0129500D01*
X0159100Y0134100D01*
X0159500Y0134100D01*
X0159500Y0129500D01*
X0162678Y0129500D01*
X0163424Y0129618D01*
X0164143Y0129852D01*
X0164816Y0130195D01*
X0165427Y0130639D01*
X0165961Y0131173D01*
X0166405Y0131784D01*
X0166500Y0131970D01*
X0166500Y0127171D01*
X0166500Y0127385D02*
X0166286Y0127385D01*
X0166500Y0128984D02*
X0164058Y0128984D01*
X0165349Y0130582D02*
X0166500Y0130582D01*
X0159500Y0130582D02*
X0159100Y0130582D01*
X0159100Y0132181D02*
X0159500Y0132181D01*
X0159500Y0133779D02*
X0159100Y0133779D01*
X0159100Y0134500D02*
X0159100Y0139100D01*
X0155922Y0139100D01*
X0155176Y0138982D01*
X0154457Y0138748D01*
X0153784Y0138405D01*
X0153173Y0137961D01*
X0152639Y0137427D01*
X0152195Y0136816D01*
X0152100Y0136630D01*
X0152100Y0141429D01*
X0153468Y0140061D01*
X0155305Y0139300D01*
X0163295Y0139300D01*
X0165132Y0140061D01*
X0166500Y0141429D01*
X0166500Y0136630D01*
X0166405Y0136816D01*
X0165961Y0137427D01*
X0165427Y0137961D01*
X0164816Y0138405D01*
X0164143Y0138748D01*
X0163424Y0138982D01*
X0162678Y0139100D01*
X0159500Y0139100D01*
X0159500Y0134500D01*
X0159100Y0134500D01*
X0159100Y0135378D02*
X0159500Y0135378D01*
X0159500Y0136976D02*
X0159100Y0136976D01*
X0159100Y0138575D02*
X0159500Y0138575D01*
X0164483Y0138575D02*
X0166500Y0138575D01*
X0166500Y0140173D02*
X0165245Y0140173D01*
X0166289Y0136976D02*
X0166500Y0136976D01*
X0154117Y0138575D02*
X0152100Y0138575D01*
X0152100Y0140173D02*
X0153355Y0140173D01*
X0152311Y0136976D02*
X0152100Y0136976D01*
X0152100Y0130582D02*
X0153251Y0130582D01*
X0152100Y0128984D02*
X0154542Y0128984D01*
X0152314Y0127385D02*
X0152100Y0127385D01*
X0139000Y0127385D02*
X0129312Y0127385D01*
X0129312Y0125787D02*
X0139000Y0125787D01*
X0139000Y0124188D02*
X0129312Y0124188D01*
X0129312Y0123865D02*
X0129312Y0131546D01*
X0128140Y0132717D01*
X0120460Y0132717D01*
X0119288Y0131546D01*
X0119288Y0123865D01*
X0120460Y0122694D01*
X0128140Y0122694D01*
X0129312Y0123865D01*
X0127139Y0120143D02*
X0125297Y0120906D01*
X0123303Y0120906D01*
X0121461Y0120143D01*
X0120051Y0118733D01*
X0119288Y0116891D01*
X0119288Y0114898D01*
X0120051Y0113056D01*
X0121461Y0111646D01*
X0123303Y0110883D01*
X0125297Y0110883D01*
X0127139Y0111646D01*
X0128549Y0113056D01*
X0129312Y0114898D01*
X0129312Y0116891D01*
X0128549Y0118733D01*
X0127139Y0120143D01*
X0127889Y0119393D02*
X0139000Y0119393D01*
X0139000Y0120991D02*
X0012100Y0120991D01*
X0012100Y0119393D02*
X0108900Y0119393D01*
X0108240Y0118733D02*
X0107477Y0116891D01*
X0107477Y0114898D01*
X0108240Y0113056D01*
X0109650Y0111646D01*
X0111492Y0110883D01*
X0113486Y0110883D01*
X0115328Y0111646D01*
X0116738Y0113056D01*
X0117501Y0114898D01*
X0117501Y0116891D01*
X0116738Y0118733D01*
X0115328Y0120143D01*
X0113486Y0120906D01*
X0111492Y0120906D01*
X0109650Y0120143D01*
X0108240Y0118733D01*
X0107851Y0117794D02*
X0012100Y0117794D01*
X0012100Y0116196D02*
X0107477Y0116196D01*
X0107602Y0114597D02*
X0012100Y0114597D01*
X0012100Y0112999D02*
X0023391Y0112999D01*
X0023056Y0112860D02*
X0021646Y0111450D01*
X0020883Y0109608D01*
X0020883Y0107614D01*
X0021646Y0105772D01*
X0023056Y0104362D01*
X0024898Y0103599D01*
X0026891Y0103599D01*
X0028733Y0104362D01*
X0030143Y0105772D01*
X0030906Y0107614D01*
X0030906Y0109608D01*
X0030143Y0111450D01*
X0028733Y0112860D01*
X0026891Y0113623D01*
X0024898Y0113623D01*
X0023056Y0112860D01*
X0021625Y0111400D02*
X0012100Y0111400D01*
X0012100Y0109802D02*
X0020963Y0109802D01*
X0020883Y0108203D02*
X0012100Y0108203D01*
X0012100Y0106605D02*
X0021301Y0106605D01*
X0022412Y0105006D02*
X0012100Y0105006D01*
X0012100Y0103408D02*
X0139000Y0103408D01*
X0139000Y0105006D02*
X0040906Y0105006D01*
X0040840Y0104941D02*
X0041376Y0105476D01*
X0041821Y0106089D01*
X0042165Y0106764D01*
X0042399Y0107484D01*
X0042517Y0108232D01*
X0042517Y0108407D01*
X0037910Y0108407D01*
X0037910Y0108815D01*
X0042517Y0108815D01*
X0042517Y0108990D01*
X0042399Y0109738D01*
X0042165Y0110458D01*
X0041821Y0111133D01*
X0041376Y0111746D01*
X0040840Y0112281D01*
X0040227Y0112726D01*
X0039553Y0113070D01*
X0038832Y0113304D01*
X0038084Y0113423D01*
X0037909Y0113423D01*
X0037909Y0108815D01*
X0037502Y0108815D01*
X0037502Y0113423D01*
X0037327Y0113423D01*
X0036579Y0113304D01*
X0035858Y0113070D01*
X0035184Y0112726D01*
X0034571Y0112281D01*
X0034035Y0111746D01*
X0033590Y0111133D01*
X0033246Y0110458D01*
X0033012Y0109738D01*
X0032894Y0108990D01*
X0032894Y0108815D01*
X0037501Y0108815D01*
X0037501Y0108407D01*
X0032894Y0108407D01*
X0032894Y0108232D01*
X0033012Y0107484D01*
X0033246Y0106764D01*
X0033590Y0106089D01*
X0034035Y0105476D01*
X0034571Y0104941D01*
X0035184Y0104496D01*
X0035858Y0104152D01*
X0036579Y0103918D01*
X0037327Y0103799D01*
X0037502Y0103799D01*
X0037502Y0108407D01*
X0037909Y0108407D01*
X0037909Y0103799D01*
X0038084Y0103799D01*
X0038832Y0103918D01*
X0039553Y0104152D01*
X0040227Y0104496D01*
X0040840Y0104941D01*
X0042084Y0106605D02*
X0139000Y0106605D01*
X0139000Y0108203D02*
X0042513Y0108203D01*
X0042378Y0109802D02*
X0139000Y0109802D01*
X0139000Y0111400D02*
X0126546Y0111400D01*
X0128492Y0112999D02*
X0139000Y0112999D01*
X0139000Y0114597D02*
X0129187Y0114597D01*
X0129312Y0116196D02*
X0139000Y0116196D01*
X0139000Y0117794D02*
X0128938Y0117794D01*
X0122054Y0111400D02*
X0114735Y0111400D01*
X0116681Y0112999D02*
X0120108Y0112999D01*
X0119413Y0114597D02*
X0117376Y0114597D01*
X0117501Y0116196D02*
X0119288Y0116196D01*
X0119662Y0117794D02*
X0117127Y0117794D01*
X0116078Y0119393D02*
X0120711Y0119393D01*
X0119288Y0124188D02*
X0116060Y0124188D01*
X0116738Y0124867D02*
X0117501Y0126709D01*
X0117501Y0128702D01*
X0116738Y0130544D01*
X0115328Y0131954D01*
X0113486Y0132717D01*
X0111492Y0132717D01*
X0109650Y0131954D01*
X0108240Y0130544D01*
X0107477Y0128702D01*
X0107477Y0126709D01*
X0108240Y0124867D01*
X0109650Y0123457D01*
X0111492Y0122694D01*
X0113486Y0122694D01*
X0115328Y0123457D01*
X0116738Y0124867D01*
X0117119Y0125787D02*
X0119288Y0125787D01*
X0119288Y0127385D02*
X0117501Y0127385D01*
X0117384Y0128984D02*
X0119288Y0128984D01*
X0119288Y0130582D02*
X0116700Y0130582D01*
X0114781Y0132181D02*
X0119923Y0132181D01*
X0128677Y0132181D02*
X0139000Y0132181D01*
X0139000Y0133779D02*
X0012100Y0133779D01*
X0012100Y0132181D02*
X0110197Y0132181D01*
X0108278Y0130582D02*
X0012100Y0130582D01*
X0012100Y0128984D02*
X0107594Y0128984D01*
X0107477Y0127385D02*
X0012100Y0127385D01*
X0012100Y0125787D02*
X0107859Y0125787D01*
X0108918Y0124188D02*
X0012100Y0124188D01*
X0012100Y0122590D02*
X0139000Y0122590D01*
X0139000Y0128984D02*
X0129312Y0128984D01*
X0129312Y0130582D02*
X0139000Y0130582D01*
X0139000Y0135378D02*
X0012100Y0135378D01*
X0012100Y0136976D02*
X0139000Y0136976D01*
X0139000Y0138575D02*
X0012100Y0138575D01*
X0012100Y0140173D02*
X0139000Y0140173D01*
X0139000Y0141772D02*
X0012100Y0141772D01*
X0012100Y0143370D02*
X0139000Y0143370D01*
X0139000Y0144969D02*
X0012100Y0144969D01*
X0012100Y0146568D02*
X0139000Y0146568D01*
X0139000Y0148166D02*
X0012100Y0148166D01*
X0012100Y0149765D02*
X0139000Y0149765D01*
X0139000Y0151363D02*
X0012100Y0151363D01*
X0012100Y0152962D02*
X0139000Y0152962D01*
X0139000Y0154560D02*
X0012100Y0154560D01*
X0012100Y0156159D02*
X0139000Y0156159D01*
X0139000Y0157757D02*
X0012100Y0157757D01*
X0012100Y0159356D02*
X0139000Y0159356D01*
X0139000Y0160954D02*
X0136584Y0160954D01*
X0137885Y0162553D02*
X0139000Y0162553D01*
X0139000Y0164151D02*
X0138281Y0164151D01*
X0138009Y0165750D02*
X0138891Y0165750D01*
X0137292Y0167348D02*
X0136882Y0167348D01*
X0135694Y0168947D02*
X0123805Y0168947D01*
X0122206Y0170545D02*
X0134095Y0170545D01*
X0132497Y0172144D02*
X0120608Y0172144D01*
X0119009Y0173742D02*
X0130898Y0173742D01*
X0129299Y0175341D02*
X0117411Y0175341D01*
X0115812Y0176939D02*
X0127701Y0176939D01*
X0126102Y0178538D02*
X0114214Y0178538D01*
X0112615Y0180136D02*
X0124504Y0180136D01*
X0122905Y0181735D02*
X0111017Y0181735D01*
X0109418Y0183333D02*
X0121307Y0183333D01*
X0119708Y0184932D02*
X0107820Y0184932D01*
X0104300Y0189300D02*
X0119300Y0189300D01*
X0141800Y0166800D01*
X0141800Y0069300D01*
X0156800Y0054300D01*
X0159300Y0054300D01*
X0155305Y0049300D02*
X0163295Y0049300D01*
X0155305Y0049300D01*
X0154722Y0049058D02*
X0126576Y0049058D01*
X0127238Y0050657D02*
X0152872Y0050657D01*
X0151735Y0052255D02*
X0127300Y0052255D01*
X0126861Y0053854D02*
X0151300Y0053854D01*
X0151365Y0055452D02*
X0125719Y0055452D01*
X0123900Y0057051D02*
X0150089Y0057051D01*
X0148491Y0058649D02*
X0126220Y0058649D01*
X0127069Y0060248D02*
X0146892Y0060248D01*
X0145294Y0061846D02*
X0127300Y0061846D01*
X0127031Y0063445D02*
X0143695Y0063445D01*
X0142097Y0065043D02*
X0126128Y0065043D01*
X0123676Y0066642D02*
X0140498Y0066642D01*
X0139208Y0068240D02*
X0125812Y0068240D01*
X0126900Y0069839D02*
X0139000Y0069839D01*
X0139000Y0071437D02*
X0127300Y0071437D01*
X0127200Y0073036D02*
X0139000Y0073036D01*
X0139000Y0074634D02*
X0126537Y0074634D01*
X0124663Y0076233D02*
X0139000Y0076233D01*
X0139000Y0077832D02*
X0125403Y0077832D01*
X0126730Y0079430D02*
X0139000Y0079430D01*
X0139000Y0081029D02*
X0127300Y0081029D01*
X0127300Y0082627D02*
X0139000Y0082627D01*
X0139000Y0084226D02*
X0126707Y0084226D01*
X0125347Y0085824D02*
X0139000Y0085824D01*
X0139000Y0087423D02*
X0124798Y0087423D01*
X0126561Y0089021D02*
X0139000Y0089021D01*
X0139000Y0090620D02*
X0127223Y0090620D01*
X0127300Y0092218D02*
X0139000Y0092218D01*
X0139000Y0093817D02*
X0126877Y0093817D01*
X0125756Y0095415D02*
X0139000Y0095415D01*
X0139000Y0097014D02*
X0042517Y0097014D01*
X0042517Y0097004D02*
X0042517Y0100049D01*
X0042395Y0100507D01*
X0042158Y0100917D01*
X0041823Y0101252D01*
X0041412Y0101489D01*
X0040954Y0101612D01*
X0037909Y0101612D01*
X0037909Y0097004D01*
X0037502Y0097004D01*
X0037502Y0101612D01*
X0034457Y0101612D01*
X0033999Y0101489D01*
X0033588Y0101252D01*
X0033253Y0100917D01*
X0033016Y0100507D01*
X0032894Y0100049D01*
X0032894Y0097004D01*
X0037501Y0097004D01*
X0037501Y0096596D01*
X0032894Y0096596D01*
X0032894Y0093551D01*
X0033016Y0093093D01*
X0033253Y0092683D01*
X0033588Y0092348D01*
X0033999Y0092111D01*
X0034457Y0091988D01*
X0037502Y0091988D01*
X0037502Y0096596D01*
X0037909Y0096596D01*
X0037909Y0091988D01*
X0040954Y0091988D01*
X0041412Y0092111D01*
X0041823Y0092348D01*
X0042158Y0092683D01*
X0042395Y0093093D01*
X0042517Y0093551D01*
X0042517Y0096596D01*
X0037910Y0096596D01*
X0037910Y0097004D01*
X0042517Y0097004D01*
X0042517Y0095415D02*
X0063127Y0095415D01*
X0063173Y0095461D02*
X0062639Y0094927D01*
X0062195Y0094316D01*
X0061852Y0093643D01*
X0061618Y0092924D01*
X0061500Y0092178D01*
X0061500Y0092000D01*
X0069100Y0092000D01*
X0069100Y0096600D01*
X0065922Y0096600D01*
X0065176Y0096482D01*
X0064457Y0096248D01*
X0063784Y0095905D01*
X0063173Y0095461D01*
X0061940Y0093817D02*
X0042517Y0093817D01*
X0041598Y0092218D02*
X0061506Y0092218D01*
X0061500Y0091600D02*
X0061500Y0091422D01*
X0061618Y0090676D01*
X0061852Y0089957D01*
X0062195Y0089284D01*
X0062639Y0088673D01*
X0063173Y0088139D01*
X0063784Y0087695D01*
X0064457Y0087352D01*
X0065176Y0087118D01*
X0065922Y0087000D01*
X0069100Y0087000D01*
X0069100Y0091600D01*
X0069500Y0091600D01*
X0069500Y0092000D01*
X0069100Y0092000D01*
X0069100Y0091600D01*
X0061500Y0091600D01*
X0061637Y0090620D02*
X0012100Y0090620D01*
X0012100Y0092218D02*
X0023860Y0092218D01*
X0023056Y0092551D02*
X0024898Y0091788D01*
X0026891Y0091788D01*
X0028733Y0092551D01*
X0030143Y0093961D01*
X0030906Y0095803D01*
X0030906Y0097797D01*
X0030143Y0099639D01*
X0028733Y0101049D01*
X0026891Y0101812D01*
X0024898Y0101812D01*
X0023056Y0101049D01*
X0021646Y0099639D01*
X0020883Y0097797D01*
X0020883Y0095803D01*
X0021646Y0093961D01*
X0023056Y0092551D01*
X0021790Y0093817D02*
X0012100Y0093817D01*
X0012100Y0095415D02*
X0021043Y0095415D01*
X0020883Y0097014D02*
X0012100Y0097014D01*
X0012100Y0098612D02*
X0021220Y0098612D01*
X0022217Y0100211D02*
X0012100Y0100211D01*
X0012100Y0101809D02*
X0024891Y0101809D01*
X0026898Y0101809D02*
X0139000Y0101809D01*
X0139000Y0100211D02*
X0042474Y0100211D01*
X0042517Y0098612D02*
X0139000Y0098612D01*
X0146800Y0094300D02*
X0146800Y0169300D01*
X0161800Y0184300D01*
X0161800Y0199300D01*
X0164844Y0196121D02*
X0165645Y0196121D01*
X0164600Y0194523D02*
X0185563Y0194523D01*
X0183965Y0192924D02*
X0164600Y0192924D01*
X0164600Y0191326D02*
X0182366Y0191326D01*
X0180768Y0189727D02*
X0164600Y0189727D01*
X0164600Y0188129D02*
X0179169Y0188129D01*
X0177571Y0186530D02*
X0164600Y0186530D01*
X0164600Y0184932D02*
X0175972Y0184932D01*
X0174373Y0183333D02*
X0164430Y0183333D01*
X0163195Y0181735D02*
X0172775Y0181735D01*
X0171176Y0180136D02*
X0161596Y0180136D01*
X0159998Y0178538D02*
X0169578Y0178538D01*
X0167979Y0176939D02*
X0158399Y0176939D01*
X0156800Y0175341D02*
X0166381Y0175341D01*
X0155275Y0181735D02*
X0135825Y0181735D01*
X0134227Y0183333D02*
X0156873Y0183333D01*
X0158472Y0184932D02*
X0132628Y0184932D01*
X0132100Y0186530D02*
X0159000Y0186530D01*
X0159000Y0188129D02*
X0132100Y0188129D01*
X0132100Y0189727D02*
X0159000Y0189727D01*
X0159000Y0191326D02*
X0132100Y0191326D01*
X0132100Y0192924D02*
X0159000Y0192924D01*
X0159000Y0194523D02*
X0132100Y0194523D01*
X0132344Y0196121D02*
X0133145Y0196121D01*
X0137174Y0196121D02*
X0137174Y0196121D01*
X0137174Y0195100D02*
X0137174Y0199300D01*
X0141374Y0199300D01*
X0137174Y0199300D01*
X0137174Y0199300D01*
X0137174Y0203500D01*
X0137174Y0199300D01*
X0137174Y0199300D01*
X0137174Y0199300D01*
X0137174Y0195100D01*
X0137174Y0197720D02*
X0137174Y0197720D01*
X0137174Y0199318D02*
X0137174Y0199318D01*
X0137174Y0200917D02*
X0137174Y0200917D01*
X0137174Y0202515D02*
X0137174Y0202515D01*
X0133166Y0202515D02*
X0132307Y0202515D01*
X0126293Y0202515D02*
X0124433Y0202515D01*
X0118419Y0202515D02*
X0108682Y0202515D01*
X0108874Y0200917D02*
X0117333Y0200917D01*
X0117026Y0199318D02*
X0108874Y0199318D01*
X0108874Y0199300D02*
X0104674Y0199300D01*
X0104674Y0203500D01*
X0104674Y0199300D01*
X0104674Y0199300D01*
X0104674Y0199300D01*
X0108874Y0199300D01*
X0108874Y0197720D02*
X0117318Y0197720D01*
X0118382Y0196121D02*
X0108703Y0196121D01*
X0104674Y0196121D02*
X0104674Y0196121D01*
X0104674Y0195100D02*
X0104674Y0199300D01*
X0104674Y0199300D01*
X0104674Y0195100D01*
X0103037Y0194523D02*
X0126500Y0194523D01*
X0126500Y0192924D02*
X0104635Y0192924D01*
X0104300Y0189300D02*
X0096800Y0196800D01*
X0096800Y0199300D01*
X0099807Y0202515D02*
X0100666Y0202515D01*
X0104674Y0202515D02*
X0104674Y0202515D01*
X0104674Y0200917D02*
X0104674Y0200917D01*
X0104674Y0199318D02*
X0104674Y0199318D01*
X0104674Y0197720D02*
X0104674Y0197720D01*
X0093793Y0202515D02*
X0091933Y0202515D01*
X0085919Y0202515D02*
X0003800Y0202515D01*
X0003800Y0200917D02*
X0084833Y0200917D01*
X0084526Y0199318D02*
X0003800Y0199318D01*
X0003800Y0197720D02*
X0084818Y0197720D01*
X0085882Y0196121D02*
X0003800Y0196121D01*
X0003800Y0194523D02*
X0089178Y0194523D01*
X0090776Y0192924D02*
X0003800Y0192924D01*
X0003800Y0191326D02*
X0092375Y0191326D01*
X0093973Y0189727D02*
X0003800Y0189727D01*
X0003800Y0188129D02*
X0095572Y0188129D01*
X0097170Y0186530D02*
X0003800Y0186530D01*
X0003800Y0184932D02*
X0021802Y0184932D01*
X0020626Y0183333D02*
X0003800Y0183333D01*
X0003800Y0181735D02*
X0020275Y0181735D01*
X0018676Y0180136D02*
X0003800Y0180136D01*
X0003800Y0178538D02*
X0017078Y0178538D01*
X0015479Y0176939D02*
X0003800Y0176939D01*
X0003800Y0175341D02*
X0013881Y0175341D01*
X0012282Y0173742D02*
X0003800Y0173742D01*
X0003800Y0172144D02*
X0010684Y0172144D01*
X0009085Y0170545D02*
X0003800Y0170545D01*
X0003800Y0168947D02*
X0007487Y0168947D01*
X0006500Y0167348D02*
X0003800Y0167348D01*
X0003800Y0165750D02*
X0006500Y0165750D01*
X0006500Y0164151D02*
X0003800Y0164151D01*
X0003800Y0162553D02*
X0006500Y0162553D01*
X0006500Y0160954D02*
X0003800Y0160954D01*
X0003800Y0159356D02*
X0006500Y0159356D01*
X0006500Y0157757D02*
X0003800Y0157757D01*
X0003800Y0156159D02*
X0006500Y0156159D01*
X0006500Y0154560D02*
X0003800Y0154560D01*
X0003800Y0152962D02*
X0006500Y0152962D01*
X0006500Y0151363D02*
X0003800Y0151363D01*
X0003800Y0149765D02*
X0006500Y0149765D01*
X0006500Y0148166D02*
X0003800Y0148166D01*
X0003800Y0146568D02*
X0006500Y0146568D01*
X0006500Y0144969D02*
X0003800Y0144969D01*
X0003800Y0143370D02*
X0006500Y0143370D01*
X0006500Y0141772D02*
X0003800Y0141772D01*
X0003800Y0140173D02*
X0006500Y0140173D01*
X0006500Y0138575D02*
X0003800Y0138575D01*
X0003800Y0136976D02*
X0006500Y0136976D01*
X0006500Y0135378D02*
X0003800Y0135378D01*
X0003800Y0133779D02*
X0006500Y0133779D01*
X0006500Y0132181D02*
X0003800Y0132181D01*
X0003800Y0130582D02*
X0006500Y0130582D01*
X0006500Y0128984D02*
X0003800Y0128984D01*
X0003800Y0127385D02*
X0006500Y0127385D01*
X0006500Y0125787D02*
X0003800Y0125787D01*
X0003800Y0124188D02*
X0006500Y0124188D01*
X0006500Y0122590D02*
X0003800Y0122590D01*
X0003800Y0120991D02*
X0006500Y0120991D01*
X0006500Y0119393D02*
X0003800Y0119393D01*
X0003800Y0117794D02*
X0006500Y0117794D01*
X0006500Y0116196D02*
X0003800Y0116196D01*
X0003800Y0114597D02*
X0006500Y0114597D01*
X0006500Y0112999D02*
X0003800Y0112999D01*
X0003800Y0111400D02*
X0006500Y0111400D01*
X0006500Y0109802D02*
X0003800Y0109802D01*
X0003800Y0108203D02*
X0006500Y0108203D01*
X0006500Y0106605D02*
X0003800Y0106605D01*
X0003800Y0105006D02*
X0006500Y0105006D01*
X0006500Y0103408D02*
X0003800Y0103408D01*
X0003800Y0101809D02*
X0006500Y0101809D01*
X0006500Y0100211D02*
X0003800Y0100211D01*
X0003800Y0098612D02*
X0006500Y0098612D01*
X0006500Y0097014D02*
X0003800Y0097014D01*
X0003800Y0095415D02*
X0006500Y0095415D01*
X0006500Y0093817D02*
X0003800Y0093817D01*
X0003800Y0092218D02*
X0006500Y0092218D01*
X0006500Y0090620D02*
X0003800Y0090620D01*
X0003800Y0089021D02*
X0006500Y0089021D01*
X0006500Y0087423D02*
X0003800Y0087423D01*
X0003800Y0085824D02*
X0006500Y0085824D01*
X0006500Y0084226D02*
X0003800Y0084226D01*
X0003800Y0082627D02*
X0006500Y0082627D01*
X0006500Y0081029D02*
X0003800Y0081029D01*
X0003800Y0079430D02*
X0006500Y0079430D01*
X0006500Y0077832D02*
X0003800Y0077832D01*
X0003800Y0076233D02*
X0006500Y0076233D01*
X0006500Y0074634D02*
X0003800Y0074634D01*
X0003800Y0073036D02*
X0006500Y0073036D01*
X0006500Y0071437D02*
X0003800Y0071437D01*
X0003800Y0069839D02*
X0006500Y0069839D01*
X0006500Y0068240D02*
X0003800Y0068240D01*
X0003800Y0066642D02*
X0006500Y0066642D01*
X0006500Y0065043D02*
X0003800Y0065043D01*
X0003800Y0063445D02*
X0006500Y0063445D01*
X0006500Y0061846D02*
X0003800Y0061846D01*
X0003800Y0060248D02*
X0006500Y0060248D01*
X0006500Y0058649D02*
X0003800Y0058649D01*
X0003800Y0057051D02*
X0006500Y0057051D01*
X0006500Y0055452D02*
X0003800Y0055452D01*
X0003800Y0053854D02*
X0006500Y0053854D01*
X0006500Y0052255D02*
X0003800Y0052255D01*
X0003800Y0050657D02*
X0006500Y0050657D01*
X0006500Y0049058D02*
X0003800Y0049058D01*
X0003800Y0047460D02*
X0006500Y0047460D01*
X0006500Y0045861D02*
X0003800Y0045861D01*
X0003800Y0044263D02*
X0006500Y0044263D01*
X0006976Y0042664D02*
X0003800Y0042664D01*
X0003800Y0041066D02*
X0008574Y0041066D01*
X0010173Y0039467D02*
X0003800Y0039467D01*
X0003800Y0037869D02*
X0011771Y0037869D01*
X0013370Y0036270D02*
X0003800Y0036270D01*
X0003800Y0034672D02*
X0014968Y0034672D01*
X0016567Y0033073D02*
X0003800Y0033073D01*
X0003800Y0031475D02*
X0018166Y0031475D01*
X0019764Y0029876D02*
X0003800Y0029876D01*
X0003800Y0028278D02*
X0021363Y0028278D01*
X0022961Y0026679D02*
X0003800Y0026679D01*
X0003800Y0025081D02*
X0024560Y0025081D01*
X0029282Y0028278D02*
X0063034Y0028278D01*
X0063173Y0028139D02*
X0063784Y0027695D01*
X0064457Y0027352D01*
X0065176Y0027118D01*
X0065922Y0027000D01*
X0069100Y0027000D01*
X0069100Y0031600D01*
X0069500Y0031600D01*
X0069500Y0032000D01*
X0069100Y0032000D01*
X0069100Y0036600D01*
X0065922Y0036600D01*
X0065176Y0036482D01*
X0064457Y0036248D01*
X0063784Y0035905D01*
X0063173Y0035461D01*
X0062639Y0034927D01*
X0062195Y0034316D01*
X0061852Y0033643D01*
X0061618Y0032924D01*
X0061500Y0032178D01*
X0061500Y0032000D01*
X0069100Y0032000D01*
X0069100Y0031600D01*
X0061500Y0031600D01*
X0061500Y0031422D01*
X0061618Y0030676D01*
X0061852Y0029957D01*
X0062195Y0029284D01*
X0062639Y0028673D01*
X0063173Y0028139D01*
X0061893Y0029876D02*
X0027684Y0029876D01*
X0026085Y0031475D02*
X0061500Y0031475D01*
X0061667Y0033073D02*
X0024487Y0033073D01*
X0022888Y0034672D02*
X0062453Y0034672D01*
X0064525Y0036270D02*
X0021290Y0036270D01*
X0019691Y0037869D02*
X0063160Y0037869D01*
X0063468Y0037561D02*
X0065305Y0036800D01*
X0073295Y0036800D01*
X0075132Y0037561D01*
X0076539Y0038968D01*
X0077300Y0040805D01*
X0077300Y0042795D01*
X0076539Y0044632D01*
X0075132Y0046039D01*
X0073295Y0046800D01*
X0075132Y0047561D01*
X0076539Y0048968D01*
X0077300Y0050805D01*
X0077300Y0052795D01*
X0076539Y0054632D01*
X0075132Y0056039D01*
X0073295Y0056800D01*
X0075132Y0057561D01*
X0076539Y0058968D01*
X0077300Y0060805D01*
X0077300Y0062795D01*
X0076539Y0064632D01*
X0075132Y0066039D01*
X0073295Y0066800D01*
X0075132Y0067561D01*
X0076539Y0068968D01*
X0077300Y0070805D01*
X0077300Y0072795D01*
X0076539Y0074632D01*
X0075132Y0076039D01*
X0073295Y0076800D01*
X0075132Y0077561D01*
X0076539Y0078968D01*
X0077300Y0080805D01*
X0077300Y0082795D01*
X0076539Y0084632D01*
X0075132Y0086039D01*
X0073295Y0086800D01*
X0065305Y0086800D01*
X0063468Y0086039D01*
X0062061Y0084632D01*
X0061300Y0082795D01*
X0061300Y0080805D01*
X0062061Y0078968D01*
X0063468Y0077561D01*
X0065305Y0076800D01*
X0073295Y0076800D01*
X0065305Y0076800D01*
X0063468Y0076039D01*
X0062061Y0074632D01*
X0061300Y0072795D01*
X0061300Y0070805D01*
X0062061Y0068968D01*
X0063468Y0067561D01*
X0065305Y0066800D01*
X0073295Y0066800D01*
X0065305Y0066800D01*
X0063468Y0066039D01*
X0062061Y0064632D01*
X0061300Y0062795D01*
X0061300Y0060805D01*
X0062061Y0058968D01*
X0063468Y0057561D01*
X0065305Y0056800D01*
X0073295Y0056800D01*
X0065305Y0056800D01*
X0063468Y0056039D01*
X0062061Y0054632D01*
X0061300Y0052795D01*
X0061300Y0050805D01*
X0062061Y0048968D01*
X0063468Y0047561D01*
X0065305Y0046800D01*
X0073295Y0046800D01*
X0065305Y0046800D01*
X0063468Y0046039D01*
X0062061Y0044632D01*
X0061300Y0042795D01*
X0061300Y0040805D01*
X0062061Y0038968D01*
X0063468Y0037561D01*
X0061854Y0039467D02*
X0018093Y0039467D01*
X0016494Y0041066D02*
X0061300Y0041066D01*
X0061300Y0042664D02*
X0014896Y0042664D01*
X0013297Y0044263D02*
X0061908Y0044263D01*
X0063290Y0045861D02*
X0012100Y0045861D01*
X0012100Y0047460D02*
X0063713Y0047460D01*
X0062024Y0049058D02*
X0012100Y0049058D01*
X0012100Y0050657D02*
X0061362Y0050657D01*
X0061300Y0052255D02*
X0049826Y0052255D01*
X0049632Y0052061D02*
X0051039Y0053468D01*
X0051800Y0055305D01*
X0051800Y0063295D01*
X0051039Y0065132D01*
X0049632Y0066539D01*
X0047795Y0067300D01*
X0045805Y0067300D01*
X0043968Y0066539D01*
X0042561Y0065132D01*
X0041800Y0063295D01*
X0041800Y0055305D01*
X0042561Y0053468D01*
X0043968Y0052061D01*
X0045805Y0051300D01*
X0047795Y0051300D01*
X0049632Y0052061D01*
X0051199Y0053854D02*
X0061739Y0053854D01*
X0062881Y0055452D02*
X0051800Y0055452D01*
X0051800Y0057051D02*
X0064700Y0057051D01*
X0062380Y0058649D02*
X0051800Y0058649D01*
X0051800Y0060248D02*
X0061531Y0060248D01*
X0061300Y0061846D02*
X0051800Y0061846D01*
X0051738Y0063445D02*
X0061569Y0063445D01*
X0062472Y0065043D02*
X0051076Y0065043D01*
X0049383Y0066642D02*
X0064924Y0066642D01*
X0062788Y0068240D02*
X0012100Y0068240D01*
X0012100Y0066642D02*
X0014217Y0066642D01*
X0012524Y0065043D02*
X0012100Y0065043D01*
X0012100Y0069839D02*
X0061700Y0069839D01*
X0061300Y0071437D02*
X0012100Y0071437D01*
X0012100Y0073036D02*
X0061400Y0073036D01*
X0062063Y0074634D02*
X0012100Y0074634D01*
X0012100Y0076233D02*
X0063937Y0076233D01*
X0063197Y0077832D02*
X0012100Y0077832D01*
X0012100Y0079430D02*
X0061870Y0079430D01*
X0061300Y0081029D02*
X0012100Y0081029D01*
X0012100Y0082627D02*
X0061300Y0082627D01*
X0061893Y0084226D02*
X0012100Y0084226D01*
X0012100Y0085824D02*
X0063253Y0085824D01*
X0064318Y0087423D02*
X0012100Y0087423D01*
X0012100Y0089021D02*
X0062386Y0089021D01*
X0069100Y0089021D02*
X0069500Y0089021D01*
X0069500Y0087423D02*
X0069100Y0087423D01*
X0069500Y0087000D02*
X0072678Y0087000D01*
X0073424Y0087118D01*
X0074143Y0087352D01*
X0074816Y0087695D01*
X0075427Y0088139D01*
X0075961Y0088673D01*
X0076405Y0089284D01*
X0076748Y0089957D01*
X0076982Y0090676D01*
X0077100Y0091422D01*
X0077100Y0091600D01*
X0069500Y0091600D01*
X0069500Y0087000D01*
X0069500Y0090620D02*
X0069100Y0090620D01*
X0069500Y0092000D02*
X0077100Y0092000D01*
X0077100Y0092178D01*
X0076982Y0092924D01*
X0076748Y0093643D01*
X0076405Y0094316D01*
X0075961Y0094927D01*
X0075427Y0095461D01*
X0074816Y0095905D01*
X0074143Y0096248D01*
X0073424Y0096482D01*
X0072678Y0096600D01*
X0069500Y0096600D01*
X0069500Y0092000D01*
X0069500Y0092218D02*
X0069100Y0092218D01*
X0069100Y0093817D02*
X0069500Y0093817D01*
X0069500Y0095415D02*
X0069100Y0095415D01*
X0075473Y0095415D02*
X0112844Y0095415D01*
X0111723Y0093817D02*
X0076660Y0093817D01*
X0077094Y0092218D02*
X0111300Y0092218D01*
X0111377Y0090620D02*
X0076963Y0090620D01*
X0076214Y0089021D02*
X0112039Y0089021D01*
X0113802Y0087423D02*
X0074282Y0087423D01*
X0075347Y0085824D02*
X0113253Y0085824D01*
X0111893Y0084226D02*
X0076707Y0084226D01*
X0077300Y0082627D02*
X0111300Y0082627D01*
X0111300Y0081029D02*
X0077300Y0081029D01*
X0076730Y0079430D02*
X0111870Y0079430D01*
X0113197Y0077832D02*
X0075403Y0077832D01*
X0074663Y0076233D02*
X0113937Y0076233D01*
X0112063Y0074634D02*
X0076537Y0074634D01*
X0077200Y0073036D02*
X0111400Y0073036D01*
X0111300Y0071437D02*
X0077300Y0071437D01*
X0076900Y0069839D02*
X0111700Y0069839D01*
X0112788Y0068240D02*
X0075812Y0068240D01*
X0073676Y0066642D02*
X0114924Y0066642D01*
X0112472Y0065043D02*
X0076128Y0065043D01*
X0077031Y0063445D02*
X0111569Y0063445D01*
X0111300Y0061846D02*
X0077300Y0061846D01*
X0077069Y0060248D02*
X0111531Y0060248D01*
X0112380Y0058649D02*
X0076220Y0058649D01*
X0073900Y0057051D02*
X0114700Y0057051D01*
X0112881Y0055452D02*
X0075719Y0055452D01*
X0076861Y0053854D02*
X0111739Y0053854D01*
X0111300Y0052255D02*
X0077300Y0052255D01*
X0077238Y0050657D02*
X0111362Y0050657D01*
X0112024Y0049058D02*
X0076576Y0049058D01*
X0074887Y0047460D02*
X0113713Y0047460D01*
X0113290Y0045861D02*
X0075310Y0045861D01*
X0076692Y0044263D02*
X0111908Y0044263D01*
X0111300Y0042664D02*
X0077300Y0042664D01*
X0077300Y0041066D02*
X0111300Y0041066D01*
X0111854Y0039467D02*
X0076746Y0039467D01*
X0075440Y0037869D02*
X0113160Y0037869D01*
X0114026Y0036270D02*
X0074075Y0036270D01*
X0074143Y0036248D02*
X0073424Y0036482D01*
X0072678Y0036600D01*
X0069500Y0036600D01*
X0069500Y0032000D01*
X0077100Y0032000D01*
X0077100Y0032178D01*
X0076982Y0032924D01*
X0076748Y0033643D01*
X0076405Y0034316D01*
X0075961Y0034927D01*
X0075427Y0035461D01*
X0074816Y0035905D01*
X0074143Y0036248D01*
X0076147Y0034672D02*
X0112101Y0034672D01*
X0111415Y0033073D02*
X0076933Y0033073D01*
X0077100Y0031600D02*
X0069500Y0031600D01*
X0069500Y0027000D01*
X0072678Y0027000D01*
X0073424Y0027118D01*
X0074143Y0027352D01*
X0074816Y0027695D01*
X0075427Y0028139D01*
X0075961Y0028673D01*
X0076405Y0029284D01*
X0076748Y0029957D01*
X0076982Y0030676D01*
X0077100Y0031422D01*
X0077100Y0031600D01*
X0077100Y0031475D02*
X0111300Y0031475D01*
X0111685Y0029876D02*
X0076707Y0029876D01*
X0075566Y0028278D02*
X0112751Y0028278D01*
X0115014Y0026679D02*
X0073586Y0026679D01*
X0076090Y0025081D02*
X0112510Y0025081D01*
X0111585Y0023482D02*
X0077015Y0023482D01*
X0077300Y0021884D02*
X0111300Y0021884D01*
X0111516Y0020285D02*
X0077084Y0020285D01*
X0076258Y0018687D02*
X0112342Y0018687D01*
X0123586Y0026679D02*
X0151874Y0026679D01*
X0151300Y0025081D02*
X0126090Y0025081D01*
X0127015Y0023482D02*
X0151300Y0023482D01*
X0151889Y0021884D02*
X0127300Y0021884D01*
X0127084Y0020285D02*
X0153244Y0020285D01*
X0153207Y0028278D02*
X0125849Y0028278D01*
X0126915Y0029876D02*
X0153914Y0029876D01*
X0155305Y0029300D02*
X0163295Y0029300D01*
X0165132Y0028539D01*
X0166500Y0027171D01*
X0166500Y0031429D01*
X0165132Y0030061D01*
X0163295Y0029300D01*
X0155305Y0029300D01*
X0152058Y0031475D02*
X0127300Y0031475D01*
X0127185Y0033073D02*
X0151396Y0033073D01*
X0151300Y0034672D02*
X0126499Y0034672D01*
X0124574Y0036270D02*
X0151704Y0036270D01*
X0152798Y0037869D02*
X0125440Y0037869D01*
X0126746Y0039467D02*
X0154902Y0039467D01*
X0155305Y0039300D02*
X0163295Y0039300D01*
X0165132Y0038539D01*
X0166500Y0037171D01*
X0166500Y0041429D01*
X0165132Y0040061D01*
X0163295Y0039300D01*
X0155305Y0039300D01*
X0152463Y0041066D02*
X0127300Y0041066D01*
X0127300Y0042664D02*
X0151566Y0042664D01*
X0151300Y0044263D02*
X0126692Y0044263D01*
X0125310Y0045861D02*
X0151535Y0045861D01*
X0152389Y0047460D02*
X0124887Y0047460D01*
X0144300Y0076800D02*
X0156800Y0064300D01*
X0159300Y0064300D01*
X0169300Y0069300D02*
X0169300Y0019300D01*
X0164300Y0014300D01*
X0039300Y0014300D01*
X0009300Y0044300D01*
X0009300Y0166800D01*
X0024300Y0181800D01*
X0027974Y0183333D02*
X0100367Y0183333D01*
X0101966Y0181735D02*
X0028281Y0181735D01*
X0027920Y0180136D02*
X0103564Y0180136D01*
X0105163Y0178538D02*
X0026668Y0178538D01*
X0023399Y0176939D02*
X0106761Y0176939D01*
X0108360Y0175341D02*
X0021801Y0175341D01*
X0020202Y0173742D02*
X0109958Y0173742D01*
X0111557Y0172144D02*
X0018603Y0172144D01*
X0017005Y0170545D02*
X0113155Y0170545D01*
X0114754Y0168947D02*
X0015406Y0168947D01*
X0013808Y0167348D02*
X0116352Y0167348D01*
X0117951Y0165750D02*
X0012209Y0165750D01*
X0012100Y0164151D02*
X0119549Y0164151D01*
X0121148Y0162553D02*
X0012100Y0162553D01*
X0012100Y0160954D02*
X0132016Y0160954D01*
X0144300Y0169300D02*
X0144300Y0076800D01*
X0147228Y0077832D02*
X0152760Y0077832D01*
X0151689Y0076233D02*
X0148827Y0076233D01*
X0150425Y0074634D02*
X0151300Y0074634D01*
X0154991Y0079430D02*
X0147100Y0079430D01*
X0147100Y0081029D02*
X0152500Y0081029D01*
X0151581Y0082627D02*
X0147100Y0082627D01*
X0147100Y0084226D02*
X0151300Y0084226D01*
X0151316Y0085824D02*
X0147100Y0085824D01*
X0147100Y0087423D02*
X0149718Y0087423D01*
X0148119Y0089021D02*
X0147100Y0089021D01*
X0146800Y0094300D02*
X0156800Y0084300D01*
X0159300Y0084300D01*
X0159300Y0074300D02*
X0164300Y0074300D01*
X0169300Y0069300D01*
X0166500Y0051429D02*
X0166500Y0047171D01*
X0165132Y0048539D01*
X0163295Y0049300D01*
X0165132Y0050061D01*
X0166500Y0051429D01*
X0166500Y0050657D02*
X0165728Y0050657D01*
X0166500Y0049058D02*
X0163878Y0049058D01*
X0166211Y0047460D02*
X0166500Y0047460D01*
X0166500Y0041066D02*
X0166137Y0041066D01*
X0166500Y0039467D02*
X0163698Y0039467D01*
X0165802Y0037869D02*
X0166500Y0037869D01*
X0166500Y0029876D02*
X0164686Y0029876D01*
X0165393Y0028278D02*
X0166500Y0028278D01*
X0166325Y0020285D02*
X0165356Y0020285D01*
X0164727Y0018687D02*
X0126258Y0018687D01*
X0069500Y0028278D02*
X0069100Y0028278D01*
X0069100Y0029876D02*
X0069500Y0029876D01*
X0069500Y0031475D02*
X0069100Y0031475D01*
X0069100Y0033073D02*
X0069500Y0033073D01*
X0069500Y0034672D02*
X0069100Y0034672D01*
X0069100Y0036270D02*
X0069500Y0036270D01*
X0065014Y0026679D02*
X0030881Y0026679D01*
X0032479Y0025081D02*
X0062510Y0025081D01*
X0061585Y0023482D02*
X0034078Y0023482D01*
X0035676Y0021884D02*
X0061300Y0021884D01*
X0061516Y0020285D02*
X0037275Y0020285D01*
X0038873Y0018687D02*
X0062342Y0018687D01*
X0038643Y0051852D02*
X0037924Y0051618D01*
X0037178Y0051500D01*
X0037000Y0051500D01*
X0037000Y0059100D01*
X0037000Y0059500D01*
X0041600Y0059500D01*
X0041600Y0062678D01*
X0041482Y0063424D01*
X0041248Y0064143D01*
X0040905Y0064816D01*
X0040461Y0065427D01*
X0039927Y0065961D01*
X0039316Y0066405D01*
X0038643Y0066748D01*
X0037924Y0066982D01*
X0037178Y0067100D01*
X0037000Y0067100D01*
X0037000Y0059500D01*
X0036600Y0059500D01*
X0036600Y0067100D01*
X0036422Y0067100D01*
X0035676Y0066982D01*
X0034957Y0066748D01*
X0034284Y0066405D01*
X0033673Y0065961D01*
X0033139Y0065427D01*
X0032695Y0064816D01*
X0032352Y0064143D01*
X0032118Y0063424D01*
X0032000Y0062678D01*
X0032000Y0059500D01*
X0036600Y0059500D01*
X0036600Y0059100D01*
X0037000Y0059100D01*
X0041600Y0059100D01*
X0041600Y0055922D01*
X0041482Y0055176D01*
X0041248Y0054457D01*
X0040905Y0053784D01*
X0040461Y0053173D01*
X0039927Y0052639D01*
X0039316Y0052195D01*
X0038643Y0051852D01*
X0039399Y0052255D02*
X0043774Y0052255D01*
X0042401Y0053854D02*
X0040941Y0053854D01*
X0041526Y0055452D02*
X0041800Y0055452D01*
X0041800Y0057051D02*
X0041600Y0057051D01*
X0041600Y0058649D02*
X0041800Y0058649D01*
X0041800Y0060248D02*
X0041600Y0060248D01*
X0041600Y0061846D02*
X0041800Y0061846D01*
X0041862Y0063445D02*
X0041475Y0063445D01*
X0040740Y0065043D02*
X0042524Y0065043D01*
X0044217Y0066642D02*
X0038851Y0066642D01*
X0037000Y0066642D02*
X0036600Y0066642D01*
X0036600Y0065043D02*
X0037000Y0065043D01*
X0037000Y0063445D02*
X0036600Y0063445D01*
X0036600Y0061846D02*
X0037000Y0061846D01*
X0037000Y0060248D02*
X0036600Y0060248D01*
X0036600Y0059100D02*
X0032000Y0059100D01*
X0032000Y0055922D01*
X0032118Y0055176D01*
X0032352Y0054457D01*
X0032695Y0053784D01*
X0033139Y0053173D01*
X0033673Y0052639D01*
X0034284Y0052195D01*
X0034957Y0051852D01*
X0035676Y0051618D01*
X0036422Y0051500D01*
X0036600Y0051500D01*
X0036600Y0059100D01*
X0036600Y0058649D02*
X0037000Y0058649D01*
X0037000Y0057051D02*
X0036600Y0057051D01*
X0036600Y0055452D02*
X0037000Y0055452D01*
X0037000Y0053854D02*
X0036600Y0053854D01*
X0036600Y0052255D02*
X0037000Y0052255D01*
X0034201Y0052255D02*
X0029826Y0052255D01*
X0031199Y0053854D02*
X0032659Y0053854D01*
X0032074Y0055452D02*
X0031800Y0055452D01*
X0031800Y0057051D02*
X0032000Y0057051D01*
X0032000Y0058649D02*
X0031800Y0058649D01*
X0031800Y0060248D02*
X0032000Y0060248D01*
X0032000Y0061846D02*
X0031800Y0061846D01*
X0031738Y0063445D02*
X0032125Y0063445D01*
X0032860Y0065043D02*
X0031076Y0065043D01*
X0029383Y0066642D02*
X0034749Y0066642D01*
X0024217Y0066642D02*
X0019383Y0066642D01*
X0021076Y0065043D02*
X0022524Y0065043D01*
X0021862Y0063445D02*
X0021738Y0063445D01*
X0021800Y0061846D02*
X0021800Y0061846D01*
X0021800Y0060248D02*
X0021800Y0060248D01*
X0021800Y0058649D02*
X0021800Y0058649D01*
X0021800Y0057051D02*
X0021800Y0057051D01*
X0021800Y0055452D02*
X0021800Y0055452D01*
X0021199Y0053854D02*
X0022401Y0053854D01*
X0023774Y0052255D02*
X0019826Y0052255D01*
X0013774Y0052255D02*
X0012100Y0052255D01*
X0012100Y0053854D02*
X0012401Y0053854D01*
X0027929Y0092218D02*
X0033813Y0092218D01*
X0032894Y0093817D02*
X0029999Y0093817D01*
X0030746Y0095415D02*
X0032894Y0095415D01*
X0032894Y0097014D02*
X0030906Y0097014D01*
X0030569Y0098612D02*
X0032894Y0098612D01*
X0032937Y0100211D02*
X0029572Y0100211D01*
X0029377Y0105006D02*
X0034505Y0105006D01*
X0033327Y0106605D02*
X0030488Y0106605D01*
X0030906Y0108203D02*
X0032898Y0108203D01*
X0033033Y0109802D02*
X0030826Y0109802D01*
X0030164Y0111400D02*
X0033784Y0111400D01*
X0035718Y0112999D02*
X0028398Y0112999D01*
X0037502Y0112999D02*
X0037909Y0112999D01*
X0037909Y0111400D02*
X0037502Y0111400D01*
X0037502Y0109802D02*
X0037909Y0109802D01*
X0037909Y0108203D02*
X0037502Y0108203D01*
X0037502Y0106605D02*
X0037909Y0106605D01*
X0037909Y0105006D02*
X0037502Y0105006D01*
X0037502Y0100211D02*
X0037909Y0100211D01*
X0037909Y0098612D02*
X0037502Y0098612D01*
X0037502Y0097014D02*
X0037909Y0097014D01*
X0037909Y0095415D02*
X0037502Y0095415D01*
X0037502Y0093817D02*
X0037909Y0093817D01*
X0037909Y0092218D02*
X0037502Y0092218D01*
X0041627Y0111400D02*
X0110243Y0111400D01*
X0108297Y0112999D02*
X0039693Y0112999D01*
X0139022Y0178538D02*
X0152078Y0178538D01*
X0153676Y0180136D02*
X0137424Y0180136D01*
X0140621Y0176939D02*
X0150479Y0176939D01*
X0148881Y0175341D02*
X0142219Y0175341D01*
X0143818Y0173742D02*
X0147282Y0173742D01*
X0145684Y0172144D02*
X0145416Y0172144D01*
X0144300Y0169300D02*
X0129300Y0184300D01*
X0129300Y0199300D01*
X0126256Y0196121D02*
X0124470Y0196121D01*
X0126500Y0191326D02*
X0121234Y0191326D01*
X0122832Y0189727D02*
X0126500Y0189727D01*
X0126500Y0188129D02*
X0124431Y0188129D01*
X0126029Y0186530D02*
X0126500Y0186530D01*
X0141203Y0196121D02*
X0150882Y0196121D01*
X0149818Y0197720D02*
X0141374Y0197720D01*
X0141374Y0199318D02*
X0149526Y0199318D01*
X0149833Y0200917D02*
X0141374Y0200917D01*
X0141182Y0202515D02*
X0150919Y0202515D01*
X0156933Y0202515D02*
X0158793Y0202515D01*
X0164807Y0202515D02*
X0165666Y0202515D01*
X0169674Y0202515D02*
X0169674Y0202515D01*
X0169674Y0203500D02*
X0169674Y0199300D01*
X0169674Y0203500D01*
X0169674Y0200917D02*
X0169674Y0200917D01*
X0169674Y0199318D02*
X0169674Y0199318D01*
X0169674Y0199300D02*
X0169674Y0199300D01*
X0173874Y0199300D01*
X0169674Y0199300D01*
X0169674Y0199300D01*
X0169674Y0195100D01*
X0169674Y0199300D01*
X0169674Y0199300D01*
X0169674Y0197720D02*
X0169674Y0197720D01*
X0169674Y0196121D02*
X0169674Y0196121D01*
X0173703Y0196121D02*
X0183382Y0196121D01*
X0182318Y0197720D02*
X0173874Y0197720D01*
X0173874Y0199318D02*
X0182026Y0199318D01*
X0182333Y0200917D02*
X0173874Y0200917D01*
X0173682Y0202515D02*
X0183419Y0202515D01*
X0189433Y0202515D02*
X0191293Y0202515D01*
X0202174Y0199318D02*
X0202174Y0199318D01*
X0202174Y0199300D02*
X0202174Y0199300D01*
X0197089Y0188129D02*
X0363140Y0188129D01*
X0360915Y0186530D02*
X0195490Y0186530D01*
X0193892Y0184932D02*
X0360319Y0184932D01*
X0187043Y0167348D02*
X0176308Y0167348D01*
X0174709Y0165750D02*
X0184013Y0165750D01*
X0182414Y0164151D02*
X0174600Y0164151D01*
X0174600Y0162553D02*
X0181664Y0162553D01*
X0181002Y0160954D02*
X0174600Y0160954D01*
X0174600Y0159356D02*
X0181001Y0159356D01*
X0181001Y0157757D02*
X0174600Y0157757D01*
X0174600Y0156159D02*
X0181618Y0156159D01*
X0182303Y0154560D02*
X0174600Y0154560D01*
X0174600Y0152962D02*
X0183902Y0152962D01*
X0158756Y0196121D02*
X0156970Y0196121D01*
X0098769Y0184932D02*
X0026798Y0184932D01*
D18*
X0024300Y0181800D03*
X0134300Y0164300D03*
X0199300Y0179300D03*
X0286800Y0179300D03*
X0354300Y0151800D03*
X0364300Y0184300D03*
D19*
X0286800Y0179300D02*
X0199300Y0179300D01*
X0134300Y0164300D02*
X0123926Y0164300D01*
X0088926Y0199300D01*
M02*
