G75*
%MOIN*%
%OFA0B0*%
%FSLAX25Y25*%
%IPPOS*%
%LPD*%
%AMOC8*
5,1,8,0,0,1.08239X$1,22.5*
%
%ADD10C,0.00000*%
D10*
X0001800Y0001800D02*
X0001800Y0209261D01*
X0377001Y0209261D01*
X0377001Y0001800D01*
X0001800Y0001800D01*
X0010501Y0014300D02*
X0010503Y0014458D01*
X0010509Y0014616D01*
X0010519Y0014774D01*
X0010533Y0014932D01*
X0010551Y0015089D01*
X0010572Y0015246D01*
X0010598Y0015402D01*
X0010628Y0015558D01*
X0010661Y0015713D01*
X0010699Y0015866D01*
X0010740Y0016019D01*
X0010785Y0016171D01*
X0010834Y0016322D01*
X0010887Y0016471D01*
X0010943Y0016619D01*
X0011003Y0016765D01*
X0011067Y0016910D01*
X0011135Y0017053D01*
X0011206Y0017195D01*
X0011280Y0017335D01*
X0011358Y0017472D01*
X0011440Y0017608D01*
X0011524Y0017742D01*
X0011613Y0017873D01*
X0011704Y0018002D01*
X0011799Y0018129D01*
X0011896Y0018254D01*
X0011997Y0018376D01*
X0012101Y0018495D01*
X0012208Y0018612D01*
X0012318Y0018726D01*
X0012431Y0018837D01*
X0012546Y0018946D01*
X0012664Y0019051D01*
X0012785Y0019153D01*
X0012908Y0019253D01*
X0013034Y0019349D01*
X0013162Y0019442D01*
X0013292Y0019532D01*
X0013425Y0019618D01*
X0013560Y0019702D01*
X0013696Y0019781D01*
X0013835Y0019858D01*
X0013976Y0019930D01*
X0014118Y0020000D01*
X0014262Y0020065D01*
X0014408Y0020127D01*
X0014555Y0020185D01*
X0014704Y0020240D01*
X0014854Y0020291D01*
X0015005Y0020338D01*
X0015157Y0020381D01*
X0015310Y0020420D01*
X0015465Y0020456D01*
X0015620Y0020487D01*
X0015776Y0020515D01*
X0015932Y0020539D01*
X0016089Y0020559D01*
X0016247Y0020575D01*
X0016404Y0020587D01*
X0016563Y0020595D01*
X0016721Y0020599D01*
X0016879Y0020599D01*
X0017037Y0020595D01*
X0017196Y0020587D01*
X0017353Y0020575D01*
X0017511Y0020559D01*
X0017668Y0020539D01*
X0017824Y0020515D01*
X0017980Y0020487D01*
X0018135Y0020456D01*
X0018290Y0020420D01*
X0018443Y0020381D01*
X0018595Y0020338D01*
X0018746Y0020291D01*
X0018896Y0020240D01*
X0019045Y0020185D01*
X0019192Y0020127D01*
X0019338Y0020065D01*
X0019482Y0020000D01*
X0019624Y0019930D01*
X0019765Y0019858D01*
X0019904Y0019781D01*
X0020040Y0019702D01*
X0020175Y0019618D01*
X0020308Y0019532D01*
X0020438Y0019442D01*
X0020566Y0019349D01*
X0020692Y0019253D01*
X0020815Y0019153D01*
X0020936Y0019051D01*
X0021054Y0018946D01*
X0021169Y0018837D01*
X0021282Y0018726D01*
X0021392Y0018612D01*
X0021499Y0018495D01*
X0021603Y0018376D01*
X0021704Y0018254D01*
X0021801Y0018129D01*
X0021896Y0018002D01*
X0021987Y0017873D01*
X0022076Y0017742D01*
X0022160Y0017608D01*
X0022242Y0017472D01*
X0022320Y0017335D01*
X0022394Y0017195D01*
X0022465Y0017053D01*
X0022533Y0016910D01*
X0022597Y0016765D01*
X0022657Y0016619D01*
X0022713Y0016471D01*
X0022766Y0016322D01*
X0022815Y0016171D01*
X0022860Y0016019D01*
X0022901Y0015866D01*
X0022939Y0015713D01*
X0022972Y0015558D01*
X0023002Y0015402D01*
X0023028Y0015246D01*
X0023049Y0015089D01*
X0023067Y0014932D01*
X0023081Y0014774D01*
X0023091Y0014616D01*
X0023097Y0014458D01*
X0023099Y0014300D01*
X0023097Y0014142D01*
X0023091Y0013984D01*
X0023081Y0013826D01*
X0023067Y0013668D01*
X0023049Y0013511D01*
X0023028Y0013354D01*
X0023002Y0013198D01*
X0022972Y0013042D01*
X0022939Y0012887D01*
X0022901Y0012734D01*
X0022860Y0012581D01*
X0022815Y0012429D01*
X0022766Y0012278D01*
X0022713Y0012129D01*
X0022657Y0011981D01*
X0022597Y0011835D01*
X0022533Y0011690D01*
X0022465Y0011547D01*
X0022394Y0011405D01*
X0022320Y0011265D01*
X0022242Y0011128D01*
X0022160Y0010992D01*
X0022076Y0010858D01*
X0021987Y0010727D01*
X0021896Y0010598D01*
X0021801Y0010471D01*
X0021704Y0010346D01*
X0021603Y0010224D01*
X0021499Y0010105D01*
X0021392Y0009988D01*
X0021282Y0009874D01*
X0021169Y0009763D01*
X0021054Y0009654D01*
X0020936Y0009549D01*
X0020815Y0009447D01*
X0020692Y0009347D01*
X0020566Y0009251D01*
X0020438Y0009158D01*
X0020308Y0009068D01*
X0020175Y0008982D01*
X0020040Y0008898D01*
X0019904Y0008819D01*
X0019765Y0008742D01*
X0019624Y0008670D01*
X0019482Y0008600D01*
X0019338Y0008535D01*
X0019192Y0008473D01*
X0019045Y0008415D01*
X0018896Y0008360D01*
X0018746Y0008309D01*
X0018595Y0008262D01*
X0018443Y0008219D01*
X0018290Y0008180D01*
X0018135Y0008144D01*
X0017980Y0008113D01*
X0017824Y0008085D01*
X0017668Y0008061D01*
X0017511Y0008041D01*
X0017353Y0008025D01*
X0017196Y0008013D01*
X0017037Y0008005D01*
X0016879Y0008001D01*
X0016721Y0008001D01*
X0016563Y0008005D01*
X0016404Y0008013D01*
X0016247Y0008025D01*
X0016089Y0008041D01*
X0015932Y0008061D01*
X0015776Y0008085D01*
X0015620Y0008113D01*
X0015465Y0008144D01*
X0015310Y0008180D01*
X0015157Y0008219D01*
X0015005Y0008262D01*
X0014854Y0008309D01*
X0014704Y0008360D01*
X0014555Y0008415D01*
X0014408Y0008473D01*
X0014262Y0008535D01*
X0014118Y0008600D01*
X0013976Y0008670D01*
X0013835Y0008742D01*
X0013696Y0008819D01*
X0013560Y0008898D01*
X0013425Y0008982D01*
X0013292Y0009068D01*
X0013162Y0009158D01*
X0013034Y0009251D01*
X0012908Y0009347D01*
X0012785Y0009447D01*
X0012664Y0009549D01*
X0012546Y0009654D01*
X0012431Y0009763D01*
X0012318Y0009874D01*
X0012208Y0009988D01*
X0012101Y0010105D01*
X0011997Y0010224D01*
X0011896Y0010346D01*
X0011799Y0010471D01*
X0011704Y0010598D01*
X0011613Y0010727D01*
X0011524Y0010858D01*
X0011440Y0010992D01*
X0011358Y0011128D01*
X0011280Y0011265D01*
X0011206Y0011405D01*
X0011135Y0011547D01*
X0011067Y0011690D01*
X0011003Y0011835D01*
X0010943Y0011981D01*
X0010887Y0012129D01*
X0010834Y0012278D01*
X0010785Y0012429D01*
X0010740Y0012581D01*
X0010699Y0012734D01*
X0010661Y0012887D01*
X0010628Y0013042D01*
X0010598Y0013198D01*
X0010572Y0013354D01*
X0010551Y0013511D01*
X0010533Y0013668D01*
X0010519Y0013826D01*
X0010509Y0013984D01*
X0010503Y0014142D01*
X0010501Y0014300D01*
X0183001Y0159300D02*
X0183003Y0159458D01*
X0183009Y0159616D01*
X0183019Y0159774D01*
X0183033Y0159932D01*
X0183051Y0160089D01*
X0183072Y0160246D01*
X0183098Y0160402D01*
X0183128Y0160558D01*
X0183161Y0160713D01*
X0183199Y0160866D01*
X0183240Y0161019D01*
X0183285Y0161171D01*
X0183334Y0161322D01*
X0183387Y0161471D01*
X0183443Y0161619D01*
X0183503Y0161765D01*
X0183567Y0161910D01*
X0183635Y0162053D01*
X0183706Y0162195D01*
X0183780Y0162335D01*
X0183858Y0162472D01*
X0183940Y0162608D01*
X0184024Y0162742D01*
X0184113Y0162873D01*
X0184204Y0163002D01*
X0184299Y0163129D01*
X0184396Y0163254D01*
X0184497Y0163376D01*
X0184601Y0163495D01*
X0184708Y0163612D01*
X0184818Y0163726D01*
X0184931Y0163837D01*
X0185046Y0163946D01*
X0185164Y0164051D01*
X0185285Y0164153D01*
X0185408Y0164253D01*
X0185534Y0164349D01*
X0185662Y0164442D01*
X0185792Y0164532D01*
X0185925Y0164618D01*
X0186060Y0164702D01*
X0186196Y0164781D01*
X0186335Y0164858D01*
X0186476Y0164930D01*
X0186618Y0165000D01*
X0186762Y0165065D01*
X0186908Y0165127D01*
X0187055Y0165185D01*
X0187204Y0165240D01*
X0187354Y0165291D01*
X0187505Y0165338D01*
X0187657Y0165381D01*
X0187810Y0165420D01*
X0187965Y0165456D01*
X0188120Y0165487D01*
X0188276Y0165515D01*
X0188432Y0165539D01*
X0188589Y0165559D01*
X0188747Y0165575D01*
X0188904Y0165587D01*
X0189063Y0165595D01*
X0189221Y0165599D01*
X0189379Y0165599D01*
X0189537Y0165595D01*
X0189696Y0165587D01*
X0189853Y0165575D01*
X0190011Y0165559D01*
X0190168Y0165539D01*
X0190324Y0165515D01*
X0190480Y0165487D01*
X0190635Y0165456D01*
X0190790Y0165420D01*
X0190943Y0165381D01*
X0191095Y0165338D01*
X0191246Y0165291D01*
X0191396Y0165240D01*
X0191545Y0165185D01*
X0191692Y0165127D01*
X0191838Y0165065D01*
X0191982Y0165000D01*
X0192124Y0164930D01*
X0192265Y0164858D01*
X0192404Y0164781D01*
X0192540Y0164702D01*
X0192675Y0164618D01*
X0192808Y0164532D01*
X0192938Y0164442D01*
X0193066Y0164349D01*
X0193192Y0164253D01*
X0193315Y0164153D01*
X0193436Y0164051D01*
X0193554Y0163946D01*
X0193669Y0163837D01*
X0193782Y0163726D01*
X0193892Y0163612D01*
X0193999Y0163495D01*
X0194103Y0163376D01*
X0194204Y0163254D01*
X0194301Y0163129D01*
X0194396Y0163002D01*
X0194487Y0162873D01*
X0194576Y0162742D01*
X0194660Y0162608D01*
X0194742Y0162472D01*
X0194820Y0162335D01*
X0194894Y0162195D01*
X0194965Y0162053D01*
X0195033Y0161910D01*
X0195097Y0161765D01*
X0195157Y0161619D01*
X0195213Y0161471D01*
X0195266Y0161322D01*
X0195315Y0161171D01*
X0195360Y0161019D01*
X0195401Y0160866D01*
X0195439Y0160713D01*
X0195472Y0160558D01*
X0195502Y0160402D01*
X0195528Y0160246D01*
X0195549Y0160089D01*
X0195567Y0159932D01*
X0195581Y0159774D01*
X0195591Y0159616D01*
X0195597Y0159458D01*
X0195599Y0159300D01*
X0195597Y0159142D01*
X0195591Y0158984D01*
X0195581Y0158826D01*
X0195567Y0158668D01*
X0195549Y0158511D01*
X0195528Y0158354D01*
X0195502Y0158198D01*
X0195472Y0158042D01*
X0195439Y0157887D01*
X0195401Y0157734D01*
X0195360Y0157581D01*
X0195315Y0157429D01*
X0195266Y0157278D01*
X0195213Y0157129D01*
X0195157Y0156981D01*
X0195097Y0156835D01*
X0195033Y0156690D01*
X0194965Y0156547D01*
X0194894Y0156405D01*
X0194820Y0156265D01*
X0194742Y0156128D01*
X0194660Y0155992D01*
X0194576Y0155858D01*
X0194487Y0155727D01*
X0194396Y0155598D01*
X0194301Y0155471D01*
X0194204Y0155346D01*
X0194103Y0155224D01*
X0193999Y0155105D01*
X0193892Y0154988D01*
X0193782Y0154874D01*
X0193669Y0154763D01*
X0193554Y0154654D01*
X0193436Y0154549D01*
X0193315Y0154447D01*
X0193192Y0154347D01*
X0193066Y0154251D01*
X0192938Y0154158D01*
X0192808Y0154068D01*
X0192675Y0153982D01*
X0192540Y0153898D01*
X0192404Y0153819D01*
X0192265Y0153742D01*
X0192124Y0153670D01*
X0191982Y0153600D01*
X0191838Y0153535D01*
X0191692Y0153473D01*
X0191545Y0153415D01*
X0191396Y0153360D01*
X0191246Y0153309D01*
X0191095Y0153262D01*
X0190943Y0153219D01*
X0190790Y0153180D01*
X0190635Y0153144D01*
X0190480Y0153113D01*
X0190324Y0153085D01*
X0190168Y0153061D01*
X0190011Y0153041D01*
X0189853Y0153025D01*
X0189696Y0153013D01*
X0189537Y0153005D01*
X0189379Y0153001D01*
X0189221Y0153001D01*
X0189063Y0153005D01*
X0188904Y0153013D01*
X0188747Y0153025D01*
X0188589Y0153041D01*
X0188432Y0153061D01*
X0188276Y0153085D01*
X0188120Y0153113D01*
X0187965Y0153144D01*
X0187810Y0153180D01*
X0187657Y0153219D01*
X0187505Y0153262D01*
X0187354Y0153309D01*
X0187204Y0153360D01*
X0187055Y0153415D01*
X0186908Y0153473D01*
X0186762Y0153535D01*
X0186618Y0153600D01*
X0186476Y0153670D01*
X0186335Y0153742D01*
X0186196Y0153819D01*
X0186060Y0153898D01*
X0185925Y0153982D01*
X0185792Y0154068D01*
X0185662Y0154158D01*
X0185534Y0154251D01*
X0185408Y0154347D01*
X0185285Y0154447D01*
X0185164Y0154549D01*
X0185046Y0154654D01*
X0184931Y0154763D01*
X0184818Y0154874D01*
X0184708Y0154988D01*
X0184601Y0155105D01*
X0184497Y0155224D01*
X0184396Y0155346D01*
X0184299Y0155471D01*
X0184204Y0155598D01*
X0184113Y0155727D01*
X0184024Y0155858D01*
X0183940Y0155992D01*
X0183858Y0156128D01*
X0183780Y0156265D01*
X0183706Y0156405D01*
X0183635Y0156547D01*
X0183567Y0156690D01*
X0183503Y0156835D01*
X0183443Y0156981D01*
X0183387Y0157129D01*
X0183334Y0157278D01*
X0183285Y0157429D01*
X0183240Y0157581D01*
X0183199Y0157734D01*
X0183161Y0157887D01*
X0183128Y0158042D01*
X0183098Y0158198D01*
X0183072Y0158354D01*
X0183051Y0158511D01*
X0183033Y0158668D01*
X0183019Y0158826D01*
X0183009Y0158984D01*
X0183003Y0159142D01*
X0183001Y0159300D01*
X0355501Y0014300D02*
X0355503Y0014458D01*
X0355509Y0014616D01*
X0355519Y0014774D01*
X0355533Y0014932D01*
X0355551Y0015089D01*
X0355572Y0015246D01*
X0355598Y0015402D01*
X0355628Y0015558D01*
X0355661Y0015713D01*
X0355699Y0015866D01*
X0355740Y0016019D01*
X0355785Y0016171D01*
X0355834Y0016322D01*
X0355887Y0016471D01*
X0355943Y0016619D01*
X0356003Y0016765D01*
X0356067Y0016910D01*
X0356135Y0017053D01*
X0356206Y0017195D01*
X0356280Y0017335D01*
X0356358Y0017472D01*
X0356440Y0017608D01*
X0356524Y0017742D01*
X0356613Y0017873D01*
X0356704Y0018002D01*
X0356799Y0018129D01*
X0356896Y0018254D01*
X0356997Y0018376D01*
X0357101Y0018495D01*
X0357208Y0018612D01*
X0357318Y0018726D01*
X0357431Y0018837D01*
X0357546Y0018946D01*
X0357664Y0019051D01*
X0357785Y0019153D01*
X0357908Y0019253D01*
X0358034Y0019349D01*
X0358162Y0019442D01*
X0358292Y0019532D01*
X0358425Y0019618D01*
X0358560Y0019702D01*
X0358696Y0019781D01*
X0358835Y0019858D01*
X0358976Y0019930D01*
X0359118Y0020000D01*
X0359262Y0020065D01*
X0359408Y0020127D01*
X0359555Y0020185D01*
X0359704Y0020240D01*
X0359854Y0020291D01*
X0360005Y0020338D01*
X0360157Y0020381D01*
X0360310Y0020420D01*
X0360465Y0020456D01*
X0360620Y0020487D01*
X0360776Y0020515D01*
X0360932Y0020539D01*
X0361089Y0020559D01*
X0361247Y0020575D01*
X0361404Y0020587D01*
X0361563Y0020595D01*
X0361721Y0020599D01*
X0361879Y0020599D01*
X0362037Y0020595D01*
X0362196Y0020587D01*
X0362353Y0020575D01*
X0362511Y0020559D01*
X0362668Y0020539D01*
X0362824Y0020515D01*
X0362980Y0020487D01*
X0363135Y0020456D01*
X0363290Y0020420D01*
X0363443Y0020381D01*
X0363595Y0020338D01*
X0363746Y0020291D01*
X0363896Y0020240D01*
X0364045Y0020185D01*
X0364192Y0020127D01*
X0364338Y0020065D01*
X0364482Y0020000D01*
X0364624Y0019930D01*
X0364765Y0019858D01*
X0364904Y0019781D01*
X0365040Y0019702D01*
X0365175Y0019618D01*
X0365308Y0019532D01*
X0365438Y0019442D01*
X0365566Y0019349D01*
X0365692Y0019253D01*
X0365815Y0019153D01*
X0365936Y0019051D01*
X0366054Y0018946D01*
X0366169Y0018837D01*
X0366282Y0018726D01*
X0366392Y0018612D01*
X0366499Y0018495D01*
X0366603Y0018376D01*
X0366704Y0018254D01*
X0366801Y0018129D01*
X0366896Y0018002D01*
X0366987Y0017873D01*
X0367076Y0017742D01*
X0367160Y0017608D01*
X0367242Y0017472D01*
X0367320Y0017335D01*
X0367394Y0017195D01*
X0367465Y0017053D01*
X0367533Y0016910D01*
X0367597Y0016765D01*
X0367657Y0016619D01*
X0367713Y0016471D01*
X0367766Y0016322D01*
X0367815Y0016171D01*
X0367860Y0016019D01*
X0367901Y0015866D01*
X0367939Y0015713D01*
X0367972Y0015558D01*
X0368002Y0015402D01*
X0368028Y0015246D01*
X0368049Y0015089D01*
X0368067Y0014932D01*
X0368081Y0014774D01*
X0368091Y0014616D01*
X0368097Y0014458D01*
X0368099Y0014300D01*
X0368097Y0014142D01*
X0368091Y0013984D01*
X0368081Y0013826D01*
X0368067Y0013668D01*
X0368049Y0013511D01*
X0368028Y0013354D01*
X0368002Y0013198D01*
X0367972Y0013042D01*
X0367939Y0012887D01*
X0367901Y0012734D01*
X0367860Y0012581D01*
X0367815Y0012429D01*
X0367766Y0012278D01*
X0367713Y0012129D01*
X0367657Y0011981D01*
X0367597Y0011835D01*
X0367533Y0011690D01*
X0367465Y0011547D01*
X0367394Y0011405D01*
X0367320Y0011265D01*
X0367242Y0011128D01*
X0367160Y0010992D01*
X0367076Y0010858D01*
X0366987Y0010727D01*
X0366896Y0010598D01*
X0366801Y0010471D01*
X0366704Y0010346D01*
X0366603Y0010224D01*
X0366499Y0010105D01*
X0366392Y0009988D01*
X0366282Y0009874D01*
X0366169Y0009763D01*
X0366054Y0009654D01*
X0365936Y0009549D01*
X0365815Y0009447D01*
X0365692Y0009347D01*
X0365566Y0009251D01*
X0365438Y0009158D01*
X0365308Y0009068D01*
X0365175Y0008982D01*
X0365040Y0008898D01*
X0364904Y0008819D01*
X0364765Y0008742D01*
X0364624Y0008670D01*
X0364482Y0008600D01*
X0364338Y0008535D01*
X0364192Y0008473D01*
X0364045Y0008415D01*
X0363896Y0008360D01*
X0363746Y0008309D01*
X0363595Y0008262D01*
X0363443Y0008219D01*
X0363290Y0008180D01*
X0363135Y0008144D01*
X0362980Y0008113D01*
X0362824Y0008085D01*
X0362668Y0008061D01*
X0362511Y0008041D01*
X0362353Y0008025D01*
X0362196Y0008013D01*
X0362037Y0008005D01*
X0361879Y0008001D01*
X0361721Y0008001D01*
X0361563Y0008005D01*
X0361404Y0008013D01*
X0361247Y0008025D01*
X0361089Y0008041D01*
X0360932Y0008061D01*
X0360776Y0008085D01*
X0360620Y0008113D01*
X0360465Y0008144D01*
X0360310Y0008180D01*
X0360157Y0008219D01*
X0360005Y0008262D01*
X0359854Y0008309D01*
X0359704Y0008360D01*
X0359555Y0008415D01*
X0359408Y0008473D01*
X0359262Y0008535D01*
X0359118Y0008600D01*
X0358976Y0008670D01*
X0358835Y0008742D01*
X0358696Y0008819D01*
X0358560Y0008898D01*
X0358425Y0008982D01*
X0358292Y0009068D01*
X0358162Y0009158D01*
X0358034Y0009251D01*
X0357908Y0009347D01*
X0357785Y0009447D01*
X0357664Y0009549D01*
X0357546Y0009654D01*
X0357431Y0009763D01*
X0357318Y0009874D01*
X0357208Y0009988D01*
X0357101Y0010105D01*
X0356997Y0010224D01*
X0356896Y0010346D01*
X0356799Y0010471D01*
X0356704Y0010598D01*
X0356613Y0010727D01*
X0356524Y0010858D01*
X0356440Y0010992D01*
X0356358Y0011128D01*
X0356280Y0011265D01*
X0356206Y0011405D01*
X0356135Y0011547D01*
X0356067Y0011690D01*
X0356003Y0011835D01*
X0355943Y0011981D01*
X0355887Y0012129D01*
X0355834Y0012278D01*
X0355785Y0012429D01*
X0355740Y0012581D01*
X0355699Y0012734D01*
X0355661Y0012887D01*
X0355628Y0013042D01*
X0355598Y0013198D01*
X0355572Y0013354D01*
X0355551Y0013511D01*
X0355533Y0013668D01*
X0355519Y0013826D01*
X0355509Y0013984D01*
X0355503Y0014142D01*
X0355501Y0014300D01*
M02*
