G04*
G04 #@! TF.GenerationSoftware,Altium Limited,Altium Designer,18.1.9 (240)*
G04*
G04 Layer_Color=65535*
%FSLAX24Y24*%
%MOIN*%
G70*
G01*
G75*
%ADD10C,0.0100*%
%ADD11C,0.0079*%
%ADD12C,0.0197*%
%ADD13C,0.0394*%
D10*
X30315Y15354D02*
G03*
X29134Y14173I0J-1181D01*
G01*
Y13386D02*
G03*
X30315Y12205I1181J0D01*
G01*
X32283Y14173D02*
G03*
X31102Y15354I-1181J0D01*
G01*
Y12205D02*
G03*
X32283Y13386I0J1181D01*
G01*
X30315Y3543D02*
G03*
X29134Y2362I0J-1181D01*
G01*
Y1575D02*
G03*
X30315Y394I1181J0D01*
G01*
X32283Y2362D02*
G03*
X31102Y3543I-1181J0D01*
G01*
Y394D02*
G03*
X32283Y1575I0J1181D01*
G01*
X4331Y3543D02*
G03*
X3150Y2362I0J-1181D01*
G01*
Y1575D02*
G03*
X4331Y394I1181J0D01*
G01*
X6299Y2362D02*
G03*
X5118Y3543I-1181J0D01*
G01*
Y394D02*
G03*
X6299Y1575I0J1181D01*
G01*
X4331Y15354D02*
G03*
X3150Y14173I0J-1181D01*
G01*
Y13386D02*
G03*
X4331Y12205I1181J0D01*
G01*
X6299Y14173D02*
G03*
X5118Y15354I-1181J0D01*
G01*
Y12205D02*
G03*
X6299Y13386I0J1181D01*
G01*
X30315Y12205D02*
X31102D01*
X29134Y13386D02*
Y14173D01*
X30315Y15354D02*
X31102D01*
X32283Y13386D02*
Y14173D01*
X30315Y394D02*
X31102D01*
X29134Y1575D02*
Y2362D01*
X30315Y3543D02*
X31102D01*
X32283Y1575D02*
Y2362D01*
X4331Y394D02*
X5118D01*
X3150Y1575D02*
Y2362D01*
X4331Y3543D02*
X5118D01*
X6299Y1575D02*
Y2362D01*
X4331Y12205D02*
X5118D01*
X3150Y13386D02*
Y14173D01*
X4331Y15354D02*
X5118D01*
X6299Y13386D02*
Y14173D01*
X2638Y4891D02*
Y4291D01*
X2938D01*
X3038Y4391D01*
Y4491D01*
X2938Y4591D01*
X2638D01*
X2938D01*
X3038Y4691D01*
Y4791D01*
X2938Y4891D01*
X2638D01*
X3238Y4291D02*
X3438D01*
X3338D01*
Y4891D01*
X3238Y4791D01*
X16047Y9369D02*
X15847D01*
X15947D01*
Y8869D01*
X15847Y8769D01*
X15747D01*
X15647Y8869D01*
X16247Y8769D02*
X16446D01*
X16347D01*
Y9369D01*
X16247Y9269D01*
X16746Y8769D02*
X16946D01*
X16846D01*
Y9369D01*
X16746Y9269D01*
X16047Y3463D02*
X15847D01*
X15947D01*
Y2963D01*
X15847Y2864D01*
X15747D01*
X15647Y2963D01*
X16247Y2864D02*
X16446D01*
X16347D01*
Y3463D01*
X16247Y3363D01*
X16746D02*
X16846Y3463D01*
X17046D01*
X17146Y3363D01*
Y2963D01*
X17046Y2864D01*
X16846D01*
X16746Y2963D01*
Y3363D01*
X16047Y15274D02*
X15847D01*
X15947D01*
Y14775D01*
X15847Y14675D01*
X15747D01*
X15647Y14775D01*
X16247D02*
X16347Y14675D01*
X16546D01*
X16646Y14775D01*
Y15174D01*
X16546Y15274D01*
X16347D01*
X16247Y15174D01*
Y15074D01*
X16347Y14974D01*
X16646D01*
X19196Y15274D02*
X18996D01*
X19096D01*
Y14775D01*
X18996Y14675D01*
X18896D01*
X18796Y14775D01*
X19396Y15174D02*
X19496Y15274D01*
X19696D01*
X19796Y15174D01*
Y15074D01*
X19696Y14974D01*
X19796Y14874D01*
Y14775D01*
X19696Y14675D01*
X19496D01*
X19396Y14775D01*
Y14874D01*
X19496Y14974D01*
X19396Y15074D01*
Y15174D01*
X19496Y14974D02*
X19696D01*
X19196Y9369D02*
X18996D01*
X19096D01*
Y8869D01*
X18996Y8769D01*
X18896D01*
X18796Y8869D01*
X19396Y9369D02*
X19796D01*
Y9269D01*
X19396Y8869D01*
Y8769D01*
X19196Y3463D02*
X18996D01*
X19096D01*
Y2963D01*
X18996Y2864D01*
X18896D01*
X18796Y2963D01*
X19796Y3463D02*
X19596Y3363D01*
X19396Y3163D01*
Y2963D01*
X19496Y2864D01*
X19696D01*
X19796Y2963D01*
Y3063D01*
X19696Y3163D01*
X19396D01*
X33077Y13986D02*
X32877D01*
X32977D01*
Y13486D01*
X32877Y13386D01*
X32777D01*
X32677Y13486D01*
X33577Y13386D02*
Y13986D01*
X33277Y13686D01*
X33677D01*
X33077Y2175D02*
X32877D01*
X32977D01*
Y1675D01*
X32877Y1575D01*
X32777D01*
X32677Y1675D01*
X33277Y2075D02*
X33377Y2175D01*
X33577D01*
X33677Y2075D01*
Y1975D01*
X33577Y1875D01*
X33477D01*
X33577D01*
X33677Y1775D01*
Y1675D01*
X33577Y1575D01*
X33377D01*
X33277Y1675D01*
X7093Y2175D02*
X6893D01*
X6993D01*
Y1675D01*
X6893Y1575D01*
X6793D01*
X6693Y1675D01*
X7693Y1575D02*
X7293D01*
X7693Y1975D01*
Y2075D01*
X7593Y2175D01*
X7393D01*
X7293Y2075D01*
X7093Y13986D02*
X6893D01*
X6993D01*
Y13486D01*
X6893Y13386D01*
X6793D01*
X6693Y13486D01*
X7693Y13986D02*
X7293D01*
Y13686D01*
X7493Y13786D01*
X7593D01*
X7693Y13686D01*
Y13486D01*
X7593Y13386D01*
X7393D01*
X7293Y13486D01*
D11*
X18740Y1417D02*
Y2520D01*
Y1417D02*
X19843D01*
Y2520D01*
X18740D02*
X19843D01*
X18740Y7323D02*
Y8425D01*
Y7323D02*
X19843D01*
Y8425D01*
X18740D02*
X19843D01*
X18740Y13228D02*
Y14331D01*
Y13228D02*
X19843D01*
Y14331D01*
X18740D02*
X19843D01*
X15591Y13228D02*
Y14331D01*
Y13228D02*
X16693D01*
Y14331D01*
X15591D02*
X16693D01*
X15591Y1417D02*
Y2520D01*
Y1417D02*
X16693D01*
Y2520D01*
X15591D02*
X16693D01*
X15591Y7323D02*
Y8425D01*
Y7323D02*
X16693D01*
Y8425D01*
X15591D02*
X16693D01*
D12*
X22244Y14212D02*
X22506D01*
X22375D01*
Y14999D01*
X22244Y14868D01*
X22900D02*
X23031Y14999D01*
X23294D01*
X23425Y14868D01*
Y14737D01*
X23294Y14606D01*
X23425Y14475D01*
Y14343D01*
X23294Y14212D01*
X23031D01*
X22900Y14343D01*
Y14475D01*
X23031Y14606D01*
X22900Y14737D01*
Y14868D01*
X23031Y14606D02*
X23294D01*
X24212Y14999D02*
X23950Y14868D01*
X23687Y14606D01*
Y14343D01*
X23818Y14212D01*
X24081D01*
X24212Y14343D01*
Y14475D01*
X24081Y14606D01*
X23687D01*
X24999Y14999D02*
X24474D01*
Y14606D01*
X24737Y14737D01*
X24868D01*
X24999Y14606D01*
Y14343D01*
X24868Y14212D01*
X24606D01*
X24474Y14343D01*
X25261Y14868D02*
X25393Y14999D01*
X25655D01*
X25786Y14868D01*
Y14343D01*
X25655Y14212D01*
X25393D01*
X25261Y14343D01*
Y14868D01*
X22244Y12795D02*
Y13320D01*
X22375D01*
X22506Y13189D01*
Y12795D01*
Y13189D01*
X22638Y13320D01*
X22769Y13189D01*
Y12795D01*
X23162D02*
X23425D01*
X23556Y12926D01*
Y13189D01*
X23425Y13320D01*
X23162D01*
X23031Y13189D01*
Y12926D01*
X23162Y12795D01*
X24343Y13582D02*
Y12795D01*
X23950D01*
X23818Y12926D01*
Y13189D01*
X23950Y13320D01*
X24343D01*
X24606D02*
Y12926D01*
X24737Y12795D01*
X25130D01*
Y13320D01*
X25393Y12795D02*
X25655D01*
X25524D01*
Y13582D01*
X25393D01*
X26442Y12795D02*
X26180D01*
X26049Y12926D01*
Y13189D01*
X26180Y13320D01*
X26442D01*
X26573Y13189D01*
Y13058D01*
X26049D01*
X11850Y2386D02*
Y1598D01*
Y1861D01*
X12375Y2386D01*
X11982Y1992D01*
X12375Y1598D01*
X11326Y2386D02*
X11850D01*
Y1992D01*
X11588D01*
X11850D01*
Y1598D01*
D13*
X11811Y7874D02*
X10761D01*
X24409D02*
X23360D01*
X23885Y7350D02*
Y8399D01*
M02*
