M48
; DRILL file {KiCad (5.1.6)-1} date 02/23/21 14:27:10
; FORMAT={-:-/ absolute / metric / decimal}
; #@! TF.CreationDate,2021-02-23T14:27:10+01:00
; #@! TF.GenerationSoftware,Kicad,Pcbnew,(5.1.6)-1
FMAT,2
METRIC
T1C0.400
T2C1.000
%
G90
G05
T1
X114.624Y-69.3
X115.912Y-67.5
X115.944Y-62.944
X116.84Y-43.18
X118.173Y-41.847
X118.887Y-67.5
X120.2Y-60.3
X120.65Y-41.91
X121.7Y-57.7
X122.0Y-60.8
X123.05Y-73.0
X123.05Y-74.9
X123.935Y-66.975
X126.9Y-50.3
X127.6Y-51.9
T2
X111.76Y-39.0
X114.3Y-39.0
X116.84Y-39.0
X119.38Y-39.0
X121.92Y-39.0
X127.0Y-39.0
X129.54Y-39.0
X132.08Y-39.0
X134.62Y-39.0
X134.62Y-43.18
X134.62Y-45.72
X134.62Y-48.26
X134.62Y-50.8
X134.62Y-53.34
X134.62Y-55.88
X134.62Y-58.42
X134.62Y-60.96
X134.62Y-63.5
X134.62Y-66.04
X134.62Y-68.58
X134.62Y-71.12
X134.62Y-73.66
X134.62Y-76.2
X134.62Y-78.74
X119.38Y-79.0
X121.92Y-79.0
X124.46Y-79.0
X127.0Y-79.0
X111.76Y-43.18
X111.76Y-45.72
X111.76Y-48.26
X111.76Y-50.8
X111.76Y-53.34
X111.76Y-55.88
X111.76Y-58.42
X111.76Y-60.96
X111.76Y-63.5
X111.76Y-66.04
X111.76Y-68.58
X111.76Y-71.12
X111.76Y-73.66
X111.76Y-76.2
X111.76Y-78.74
T0
M30
