G75*
%MOIN*%
%OFA0B0*%
%FSLAX25Y25*%
%IPPOS*%
%LPD*%
%AMOC8*
5,1,8,0,0,1.08239X$1,22.5*
%
%ADD10C,0.00600*%
%ADD11R,0.06024X0.06024*%
%ADD12C,0.06024*%
%ADD13C,0.06000*%
%ADD14R,0.05906X0.05906*%
%ADD15C,0.05906*%
%ADD16R,0.04800X0.04800*%
%ADD17C,0.04800*%
%ADD18C,0.01600*%
%ADD19C,0.02400*%
%ADD20C,0.01200*%
%ADD21C,0.03569*%
%ADD22C,0.05000*%
D10*
X0264550Y0058075D02*
X0264550Y0060211D01*
X0264550Y0059143D02*
X0268820Y0059143D01*
X0268820Y0058075D01*
X0270955Y0059143D02*
X0272023Y0059143D01*
X0270955Y0062372D02*
X0270955Y0065575D01*
X0269888Y0066643D01*
X0267753Y0066643D01*
X0266685Y0065575D01*
X0266685Y0062372D01*
X0264550Y0062372D02*
X0270955Y0062372D01*
X0266685Y0064508D02*
X0264550Y0066643D01*
X0264550Y0070953D02*
X0267753Y0070953D01*
X0269888Y0073088D01*
X0270955Y0073088D01*
X0269888Y0075263D02*
X0268820Y0075263D01*
X0267753Y0076331D01*
X0267753Y0078466D01*
X0266685Y0079534D01*
X0265618Y0079534D01*
X0264550Y0078466D01*
X0264550Y0076331D01*
X0265618Y0075263D01*
X0269888Y0075263D02*
X0270955Y0076331D01*
X0270955Y0078466D01*
X0269888Y0079534D01*
X0269888Y0088154D02*
X0270955Y0089222D01*
X0270955Y0091357D01*
X0269888Y0092425D01*
X0268820Y0092425D01*
X0267753Y0091357D01*
X0266685Y0092425D01*
X0265618Y0092425D01*
X0264550Y0091357D01*
X0264550Y0089222D01*
X0265618Y0088154D01*
X0267753Y0090290D02*
X0267753Y0091357D01*
X0267753Y0070953D02*
X0269888Y0068818D01*
X0270955Y0068818D01*
D11*
X0156250Y0047144D03*
X0071250Y0047144D03*
X0258406Y0166800D03*
D12*
X0246594Y0166800D03*
X0246594Y0178611D03*
X0258406Y0178611D03*
X0168061Y0058956D03*
X0156250Y0058956D03*
X0168061Y0047144D03*
X0083061Y0047144D03*
X0083061Y0058956D03*
X0071250Y0058956D03*
D13*
X0054250Y0078050D02*
X0048250Y0078050D01*
X0048250Y0088050D02*
X0054250Y0088050D01*
X0054250Y0098050D02*
X0048250Y0098050D01*
X0048250Y0108050D02*
X0054250Y0108050D01*
X0054250Y0118050D02*
X0048250Y0118050D01*
X0048250Y0128050D02*
X0054250Y0128050D01*
X0054250Y0138050D02*
X0048250Y0138050D01*
X0048250Y0148050D02*
X0054250Y0148050D01*
X0098250Y0148050D02*
X0104250Y0148050D01*
X0104250Y0138050D02*
X0098250Y0138050D01*
X0098250Y0128050D02*
X0104250Y0128050D01*
X0104250Y0118050D02*
X0098250Y0118050D01*
X0098250Y0108050D02*
X0104250Y0108050D01*
X0104250Y0098050D02*
X0098250Y0098050D01*
X0098250Y0088050D02*
X0104250Y0088050D01*
X0104250Y0078050D02*
X0098250Y0078050D01*
X0133250Y0078050D02*
X0139250Y0078050D01*
X0139250Y0088050D02*
X0133250Y0088050D01*
X0133250Y0098050D02*
X0139250Y0098050D01*
X0139250Y0108050D02*
X0133250Y0108050D01*
X0133250Y0118050D02*
X0139250Y0118050D01*
X0139250Y0128050D02*
X0133250Y0128050D01*
X0133250Y0138050D02*
X0139250Y0138050D01*
X0139250Y0148050D02*
X0133250Y0148050D01*
X0183250Y0148050D02*
X0189250Y0148050D01*
X0189250Y0138050D02*
X0183250Y0138050D01*
X0183250Y0128050D02*
X0189250Y0128050D01*
X0189250Y0118050D02*
X0183250Y0118050D01*
X0183250Y0108050D02*
X0189250Y0108050D01*
X0189250Y0098050D02*
X0183250Y0098050D01*
X0183250Y0088050D02*
X0189250Y0088050D01*
X0189250Y0078050D02*
X0183250Y0078050D01*
X0214500Y0119300D02*
X0220500Y0119300D01*
X0220500Y0129300D02*
X0214500Y0129300D01*
X0214500Y0139300D02*
X0220500Y0139300D01*
X0220500Y0149300D02*
X0214500Y0149300D01*
X0214500Y0159300D02*
X0220500Y0159300D01*
D14*
X0015000Y0199300D03*
X0015000Y0009300D03*
D15*
X0015000Y0019300D03*
X0025000Y0019300D03*
X0035000Y0019300D03*
X0045000Y0019300D03*
X0055000Y0019300D03*
X0065000Y0019300D03*
X0065000Y0009300D03*
X0055000Y0009300D03*
X0045000Y0009300D03*
X0035000Y0009300D03*
X0025000Y0009300D03*
X0075000Y0009300D03*
X0085000Y0009300D03*
X0095000Y0009300D03*
X0105000Y0009300D03*
X0115000Y0009300D03*
X0115000Y0019300D03*
X0105000Y0019300D03*
X0095000Y0019300D03*
X0085000Y0019300D03*
X0075000Y0019300D03*
X0125000Y0019300D03*
X0135000Y0019300D03*
X0145000Y0019300D03*
X0155000Y0019300D03*
X0165000Y0019300D03*
X0165000Y0009300D03*
X0155000Y0009300D03*
X0145000Y0009300D03*
X0135000Y0009300D03*
X0125000Y0009300D03*
X0175000Y0009300D03*
X0185000Y0009300D03*
X0195000Y0009300D03*
X0205000Y0009300D03*
X0215000Y0009300D03*
X0215000Y0019300D03*
X0205000Y0019300D03*
X0195000Y0019300D03*
X0185000Y0019300D03*
X0175000Y0019300D03*
X0225000Y0019300D03*
X0235000Y0019300D03*
X0235000Y0009300D03*
X0225000Y0009300D03*
X0225000Y0199300D03*
X0235000Y0199300D03*
X0235000Y0209300D03*
X0225000Y0209300D03*
X0215000Y0209300D03*
X0205000Y0209300D03*
X0195000Y0209300D03*
X0185000Y0209300D03*
X0175000Y0209300D03*
X0165000Y0209300D03*
X0155000Y0209300D03*
X0145000Y0209300D03*
X0135000Y0209300D03*
X0125000Y0209300D03*
X0115000Y0209300D03*
X0105000Y0209300D03*
X0095000Y0209300D03*
X0085000Y0209300D03*
X0075000Y0209300D03*
X0065000Y0209300D03*
X0055000Y0209300D03*
X0045000Y0209300D03*
X0035000Y0209300D03*
X0025000Y0209300D03*
X0015000Y0209300D03*
X0025000Y0199300D03*
X0035000Y0199300D03*
X0045000Y0199300D03*
X0055000Y0199300D03*
X0065000Y0199300D03*
X0075000Y0199300D03*
X0085000Y0199300D03*
X0095000Y0199300D03*
X0105000Y0199300D03*
X0115000Y0199300D03*
X0125000Y0199300D03*
X0135000Y0199300D03*
X0145000Y0199300D03*
X0155000Y0199300D03*
X0165000Y0199300D03*
X0175000Y0199300D03*
X0185000Y0199300D03*
X0195000Y0199300D03*
X0205000Y0199300D03*
X0215000Y0199300D03*
D16*
X0153248Y0179300D03*
X0099498Y0179300D03*
X0048248Y0179300D03*
X0020000Y0155048D03*
X0020000Y0105048D03*
X0020000Y0053424D03*
D17*
X0020000Y0045550D03*
X0020000Y0037676D03*
X0020000Y0073552D03*
X0020000Y0081426D03*
X0020000Y0089300D03*
X0020000Y0097174D03*
X0020000Y0123552D03*
X0020000Y0131426D03*
X0020000Y0139300D03*
X0020000Y0147174D03*
X0016752Y0179300D03*
X0024626Y0179300D03*
X0032500Y0179300D03*
X0040374Y0179300D03*
X0068002Y0179300D03*
X0075876Y0179300D03*
X0083750Y0179300D03*
X0091624Y0179300D03*
X0121752Y0179300D03*
X0129626Y0179300D03*
X0137500Y0179300D03*
X0145374Y0179300D03*
D18*
X0007650Y0172809D02*
X0007650Y0004450D01*
X0022722Y0004450D01*
X0021968Y0004762D01*
X0020462Y0006268D01*
X0019753Y0007981D01*
X0019753Y0006110D01*
X0019630Y0005652D01*
X0019393Y0005242D01*
X0019058Y0004907D01*
X0018648Y0004670D01*
X0018190Y0004547D01*
X0015184Y0004547D01*
X0015184Y0009116D01*
X0014816Y0009116D01*
X0014816Y0004547D01*
X0011810Y0004547D01*
X0011352Y0004670D01*
X0010942Y0004907D01*
X0010607Y0005242D01*
X0010370Y0005652D01*
X0010247Y0006110D01*
X0010247Y0009116D01*
X0014816Y0009116D01*
X0014816Y0009484D01*
X0010247Y0009484D01*
X0010247Y0012490D01*
X0010370Y0012948D01*
X0010607Y0013358D01*
X0010942Y0013693D01*
X0011352Y0013930D01*
X0011810Y0014053D01*
X0013681Y0014053D01*
X0011968Y0014762D01*
X0010462Y0016268D01*
X0009647Y0018235D01*
X0009647Y0020365D01*
X0010462Y0022332D01*
X0011968Y0023838D01*
X0013935Y0024653D01*
X0016065Y0024653D01*
X0018032Y0023838D01*
X0019538Y0022332D01*
X0020000Y0021216D01*
X0020462Y0022332D01*
X0021968Y0023838D01*
X0023935Y0024653D01*
X0025262Y0024653D01*
X0031400Y0030791D01*
X0031400Y0153766D01*
X0031948Y0155089D01*
X0032961Y0156102D01*
X0032961Y0156102D01*
X0038369Y0161510D01*
X0038953Y0162920D01*
X0040130Y0164097D01*
X0041668Y0164734D01*
X0043332Y0164734D01*
X0044870Y0164097D01*
X0046047Y0162920D01*
X0046684Y0161382D01*
X0046684Y0159718D01*
X0046047Y0158180D01*
X0044870Y0157003D01*
X0043460Y0156419D01*
X0038600Y0151559D01*
X0038600Y0097991D01*
X0041711Y0101102D01*
X0043034Y0101650D01*
X0044213Y0101650D01*
X0045191Y0102628D01*
X0046210Y0103050D01*
X0045191Y0103472D01*
X0043672Y0104991D01*
X0042850Y0106976D01*
X0042850Y0109124D01*
X0043672Y0111109D01*
X0045191Y0112628D01*
X0046210Y0113050D01*
X0045191Y0113472D01*
X0043672Y0114991D01*
X0042850Y0116976D01*
X0042850Y0119124D01*
X0043672Y0121109D01*
X0045191Y0122628D01*
X0046210Y0123050D01*
X0045191Y0123472D01*
X0043672Y0124991D01*
X0042850Y0126976D01*
X0042850Y0129124D01*
X0043672Y0131109D01*
X0045191Y0132628D01*
X0046210Y0133050D01*
X0045191Y0133472D01*
X0043672Y0134991D01*
X0042850Y0136976D01*
X0042850Y0139124D01*
X0043672Y0141109D01*
X0045191Y0142628D01*
X0046210Y0143050D01*
X0045191Y0143472D01*
X0043672Y0144991D01*
X0042850Y0146976D01*
X0042850Y0149124D01*
X0043672Y0151109D01*
X0045191Y0152628D01*
X0047176Y0153450D01*
X0054566Y0153450D01*
X0054566Y0153882D01*
X0055203Y0155420D01*
X0056380Y0156597D01*
X0057918Y0157234D01*
X0058692Y0157234D01*
X0062051Y0160593D01*
X0063153Y0161050D01*
X0157507Y0161050D01*
X0169551Y0173093D01*
X0170653Y0173550D01*
X0185007Y0173550D01*
X0197000Y0185543D01*
X0197000Y0194335D01*
X0196065Y0193947D01*
X0193935Y0193947D01*
X0191968Y0194762D01*
X0190462Y0196268D01*
X0190000Y0197384D01*
X0189538Y0196268D01*
X0188032Y0194762D01*
X0186065Y0193947D01*
X0183935Y0193947D01*
X0181968Y0194762D01*
X0180462Y0196268D01*
X0180000Y0197384D01*
X0179538Y0196268D01*
X0178032Y0194762D01*
X0176065Y0193947D01*
X0173935Y0193947D01*
X0171968Y0194762D01*
X0170462Y0196268D01*
X0170000Y0197384D01*
X0169538Y0196268D01*
X0168032Y0194762D01*
X0166065Y0193947D01*
X0163935Y0193947D01*
X0161968Y0194762D01*
X0160462Y0196268D01*
X0160000Y0197384D01*
X0159538Y0196268D01*
X0158032Y0194762D01*
X0156065Y0193947D01*
X0153935Y0193947D01*
X0151968Y0194762D01*
X0150462Y0196268D01*
X0150000Y0197384D01*
X0149538Y0196268D01*
X0148032Y0194762D01*
X0146065Y0193947D01*
X0143935Y0193947D01*
X0141968Y0194762D01*
X0140462Y0196268D01*
X0140000Y0197384D01*
X0139538Y0196268D01*
X0138032Y0194762D01*
X0136065Y0193947D01*
X0133935Y0193947D01*
X0131968Y0194762D01*
X0130462Y0196268D01*
X0130000Y0197384D01*
X0129538Y0196268D01*
X0128032Y0194762D01*
X0126065Y0193947D01*
X0123935Y0193947D01*
X0121968Y0194762D01*
X0120462Y0196268D01*
X0120000Y0197384D01*
X0119538Y0196268D01*
X0118032Y0194762D01*
X0116065Y0193947D01*
X0113935Y0193947D01*
X0111968Y0194762D01*
X0110462Y0196268D01*
X0110000Y0197384D01*
X0109538Y0196268D01*
X0108032Y0194762D01*
X0106065Y0193947D01*
X0103935Y0193947D01*
X0101968Y0194762D01*
X0100462Y0196268D01*
X0100000Y0197384D01*
X0099538Y0196268D01*
X0098032Y0194762D01*
X0096065Y0193947D01*
X0093935Y0193947D01*
X0091968Y0194762D01*
X0090462Y0196268D01*
X0090000Y0197384D01*
X0089538Y0196268D01*
X0088032Y0194762D01*
X0086065Y0193947D01*
X0083935Y0193947D01*
X0081968Y0194762D01*
X0080462Y0196268D01*
X0080000Y0197384D01*
X0079538Y0196268D01*
X0078032Y0194762D01*
X0076065Y0193947D01*
X0073935Y0193947D01*
X0071968Y0194762D01*
X0070462Y0196268D01*
X0070000Y0197384D01*
X0069538Y0196268D01*
X0068032Y0194762D01*
X0066065Y0193947D01*
X0063935Y0193947D01*
X0061968Y0194762D01*
X0060462Y0196268D01*
X0060000Y0197384D01*
X0059538Y0196268D01*
X0058032Y0194762D01*
X0056065Y0193947D01*
X0053935Y0193947D01*
X0051968Y0194762D01*
X0050462Y0196268D01*
X0050000Y0197384D01*
X0049538Y0196268D01*
X0048032Y0194762D01*
X0046065Y0193947D01*
X0043935Y0193947D01*
X0041968Y0194762D01*
X0040462Y0196268D01*
X0040000Y0197384D01*
X0039538Y0196268D01*
X0038032Y0194762D01*
X0036065Y0193947D01*
X0033935Y0193947D01*
X0031968Y0194762D01*
X0030462Y0196268D01*
X0030000Y0197384D01*
X0029538Y0196268D01*
X0028032Y0194762D01*
X0026065Y0193947D01*
X0023935Y0193947D01*
X0021968Y0194762D01*
X0020462Y0196268D01*
X0019753Y0197981D01*
X0019753Y0196110D01*
X0019630Y0195652D01*
X0019393Y0195242D01*
X0019058Y0194907D01*
X0018648Y0194670D01*
X0018190Y0194547D01*
X0015184Y0194547D01*
X0015184Y0199116D01*
X0014816Y0199116D01*
X0014816Y0194547D01*
X0011810Y0194547D01*
X0011352Y0194670D01*
X0010942Y0194907D01*
X0010607Y0195242D01*
X0010370Y0195652D01*
X0010247Y0196110D01*
X0010247Y0199116D01*
X0014816Y0199116D01*
X0014816Y0199484D01*
X0010247Y0199484D01*
X0010247Y0202490D01*
X0010370Y0202948D01*
X0010607Y0203358D01*
X0010942Y0203693D01*
X0011352Y0203930D01*
X0011810Y0204053D01*
X0014816Y0204053D01*
X0014816Y0199484D01*
X0015184Y0199484D01*
X0015184Y0204053D01*
X0018190Y0204053D01*
X0018648Y0203930D01*
X0019058Y0203693D01*
X0019393Y0203358D01*
X0019630Y0202948D01*
X0019753Y0202490D01*
X0019753Y0200619D01*
X0020462Y0202332D01*
X0021968Y0203838D01*
X0023084Y0204300D01*
X0021968Y0204762D01*
X0020462Y0206268D01*
X0019647Y0208235D01*
X0019647Y0208260D01*
X0019636Y0208187D01*
X0019405Y0207476D01*
X0019065Y0206809D01*
X0018625Y0206204D01*
X0018096Y0205675D01*
X0017491Y0205235D01*
X0016824Y0204895D01*
X0016113Y0204664D01*
X0015374Y0204547D01*
X0015184Y0204547D01*
X0015184Y0209116D01*
X0014816Y0209116D01*
X0014816Y0204547D01*
X0014626Y0204547D01*
X0013887Y0204664D01*
X0013176Y0204895D01*
X0012509Y0205235D01*
X0011904Y0205675D01*
X0011375Y0206204D01*
X0010935Y0206809D01*
X0010595Y0207476D01*
X0010364Y0208187D01*
X0010247Y0208926D01*
X0010247Y0209116D01*
X0014816Y0209116D01*
X0014816Y0209484D01*
X0010247Y0209484D01*
X0010247Y0209674D01*
X0010364Y0210413D01*
X0010595Y0211124D01*
X0010935Y0211791D01*
X0011375Y0212396D01*
X0011904Y0212925D01*
X0012509Y0213365D01*
X0013176Y0213705D01*
X0013887Y0213936D01*
X0014626Y0214053D01*
X0014816Y0214053D01*
X0014816Y0209484D01*
X0015184Y0209484D01*
X0015184Y0214053D01*
X0015374Y0214053D01*
X0016113Y0213936D01*
X0016824Y0213705D01*
X0017491Y0213365D01*
X0018096Y0212925D01*
X0018625Y0212396D01*
X0019065Y0211791D01*
X0019405Y0211124D01*
X0019636Y0210413D01*
X0019647Y0210340D01*
X0019647Y0210365D01*
X0020462Y0212332D01*
X0021968Y0213838D01*
X0022722Y0214150D01*
X0007650Y0214150D01*
X0007650Y0183291D01*
X0010698Y0186339D01*
X0011711Y0187352D01*
X0013034Y0187900D01*
X0150716Y0187900D01*
X0152039Y0187352D01*
X0153052Y0186339D01*
X0155291Y0184100D01*
X0156125Y0184100D01*
X0157008Y0183735D01*
X0157683Y0183059D01*
X0158048Y0182177D01*
X0158048Y0176423D01*
X0157683Y0175541D01*
X0157008Y0174865D01*
X0156125Y0174500D01*
X0150371Y0174500D01*
X0149489Y0174865D01*
X0148813Y0175541D01*
X0148448Y0176423D01*
X0148448Y0176434D01*
X0148110Y0176096D01*
X0147575Y0175708D01*
X0146986Y0175408D01*
X0146358Y0175203D01*
X0145705Y0175100D01*
X0145374Y0175100D01*
X0145374Y0179300D01*
X0145374Y0179300D01*
X0145374Y0175100D01*
X0145043Y0175100D01*
X0144391Y0175203D01*
X0143762Y0175408D01*
X0143173Y0175708D01*
X0142638Y0176096D01*
X0142170Y0176564D01*
X0141783Y0177097D01*
X0141569Y0176581D01*
X0140219Y0175231D01*
X0138455Y0174500D01*
X0136545Y0174500D01*
X0134781Y0175231D01*
X0133563Y0176449D01*
X0132345Y0175231D01*
X0130581Y0174500D01*
X0128671Y0174500D01*
X0126907Y0175231D01*
X0125689Y0176449D01*
X0124471Y0175231D01*
X0122707Y0174500D01*
X0120797Y0174500D01*
X0119033Y0175231D01*
X0117683Y0176581D01*
X0116952Y0178345D01*
X0116952Y0180255D01*
X0117136Y0180700D01*
X0105989Y0180700D01*
X0104298Y0179009D01*
X0104298Y0176423D01*
X0103933Y0175541D01*
X0103258Y0174865D01*
X0102375Y0174500D01*
X0096621Y0174500D01*
X0095739Y0174865D01*
X0095063Y0175541D01*
X0094698Y0176423D01*
X0094698Y0176434D01*
X0094360Y0176096D01*
X0093825Y0175708D01*
X0093236Y0175408D01*
X0092608Y0175203D01*
X0091955Y0175100D01*
X0091624Y0175100D01*
X0091624Y0179300D01*
X0091624Y0179300D01*
X0091624Y0175100D01*
X0091293Y0175100D01*
X0090641Y0175203D01*
X0090012Y0175408D01*
X0089423Y0175708D01*
X0088888Y0176096D01*
X0088420Y0176564D01*
X0088033Y0177097D01*
X0087819Y0176581D01*
X0086469Y0175231D01*
X0084705Y0174500D01*
X0082795Y0174500D01*
X0081031Y0175231D01*
X0079813Y0176449D01*
X0078595Y0175231D01*
X0076831Y0174500D01*
X0074921Y0174500D01*
X0073157Y0175231D01*
X0071939Y0176449D01*
X0070721Y0175231D01*
X0068957Y0174500D01*
X0067047Y0174500D01*
X0065283Y0175231D01*
X0063933Y0176581D01*
X0063202Y0178345D01*
X0063202Y0180255D01*
X0063386Y0180700D01*
X0055241Y0180700D01*
X0053048Y0178507D01*
X0053048Y0176423D01*
X0052683Y0175541D01*
X0052008Y0174865D01*
X0051125Y0174500D01*
X0045371Y0174500D01*
X0044489Y0174865D01*
X0043813Y0175541D01*
X0043448Y0176423D01*
X0043448Y0176434D01*
X0043110Y0176096D01*
X0042575Y0175708D01*
X0041986Y0175408D01*
X0041358Y0175203D01*
X0040705Y0175100D01*
X0040374Y0175100D01*
X0040374Y0179300D01*
X0040374Y0179300D01*
X0040374Y0175100D01*
X0040043Y0175100D01*
X0039391Y0175203D01*
X0038762Y0175408D01*
X0038173Y0175708D01*
X0037638Y0176096D01*
X0037170Y0176564D01*
X0036783Y0177097D01*
X0036569Y0176581D01*
X0035219Y0175231D01*
X0033455Y0174500D01*
X0031545Y0174500D01*
X0029781Y0175231D01*
X0028563Y0176449D01*
X0027345Y0175231D01*
X0025581Y0174500D01*
X0023671Y0174500D01*
X0021907Y0175231D01*
X0020689Y0176449D01*
X0019471Y0175231D01*
X0017707Y0174500D01*
X0016141Y0174500D01*
X0023052Y0167589D01*
X0023600Y0166266D01*
X0023600Y0163739D01*
X0030147Y0170287D01*
X0030203Y0170420D01*
X0031380Y0171597D01*
X0032918Y0172234D01*
X0034582Y0172234D01*
X0036120Y0171597D01*
X0037297Y0170420D01*
X0037934Y0168882D01*
X0037934Y0167218D01*
X0037297Y0165680D01*
X0036120Y0164503D01*
X0034582Y0163866D01*
X0033909Y0163866D01*
X0024800Y0154757D01*
X0024800Y0152171D01*
X0024435Y0151289D01*
X0023759Y0150613D01*
X0022877Y0150248D01*
X0022866Y0150248D01*
X0023204Y0149910D01*
X0023592Y0149375D01*
X0023892Y0148786D01*
X0024097Y0148158D01*
X0024200Y0147505D01*
X0024200Y0147174D01*
X0020000Y0147174D01*
X0020000Y0147174D01*
X0024200Y0147174D01*
X0024200Y0146843D01*
X0024097Y0146191D01*
X0023892Y0145562D01*
X0023592Y0144973D01*
X0023204Y0144438D01*
X0022736Y0143970D01*
X0022203Y0143583D01*
X0022719Y0143369D01*
X0024069Y0142019D01*
X0024800Y0140255D01*
X0024800Y0138345D01*
X0024069Y0136581D01*
X0022851Y0135363D01*
X0024069Y0134145D01*
X0024800Y0132381D01*
X0024800Y0130471D01*
X0024069Y0128707D01*
X0022851Y0127489D01*
X0024069Y0126271D01*
X0024800Y0124507D01*
X0024800Y0122597D01*
X0024069Y0120833D01*
X0022719Y0119483D01*
X0020955Y0118752D01*
X0019045Y0118752D01*
X0018600Y0118936D01*
X0018600Y0109848D01*
X0022877Y0109848D01*
X0023759Y0109483D01*
X0024435Y0108808D01*
X0024800Y0107925D01*
X0024800Y0102171D01*
X0024435Y0101289D01*
X0023759Y0100613D01*
X0022877Y0100248D01*
X0022866Y0100248D01*
X0023204Y0099910D01*
X0023592Y0099375D01*
X0023892Y0098786D01*
X0024097Y0098158D01*
X0024200Y0097505D01*
X0024200Y0097174D01*
X0020000Y0097174D01*
X0020000Y0097174D01*
X0024200Y0097174D01*
X0024200Y0096843D01*
X0024097Y0096191D01*
X0023892Y0095562D01*
X0023592Y0094973D01*
X0023204Y0094438D01*
X0022736Y0093970D01*
X0022203Y0093583D01*
X0022719Y0093369D01*
X0024069Y0092019D01*
X0024800Y0090255D01*
X0024800Y0088345D01*
X0024069Y0086581D01*
X0022851Y0085363D01*
X0024069Y0084145D01*
X0024800Y0082381D01*
X0024800Y0080471D01*
X0024069Y0078707D01*
X0022851Y0077489D01*
X0024069Y0076271D01*
X0024800Y0074507D01*
X0024800Y0072597D01*
X0024069Y0070833D01*
X0022719Y0069483D01*
X0020955Y0068752D01*
X0019045Y0068752D01*
X0017281Y0069483D01*
X0015931Y0070833D01*
X0015200Y0072597D01*
X0015200Y0074507D01*
X0015931Y0076271D01*
X0017149Y0077489D01*
X0015931Y0078707D01*
X0015200Y0080471D01*
X0015200Y0082381D01*
X0015931Y0084145D01*
X0017149Y0085363D01*
X0015931Y0086581D01*
X0015200Y0088345D01*
X0015200Y0090255D01*
X0015931Y0092019D01*
X0017281Y0093369D01*
X0017797Y0093583D01*
X0017264Y0093970D01*
X0016796Y0094438D01*
X0016408Y0094973D01*
X0016108Y0095562D01*
X0015903Y0096191D01*
X0015800Y0096843D01*
X0015800Y0097174D01*
X0020000Y0097174D01*
X0020000Y0097174D01*
X0015800Y0097174D01*
X0015800Y0097505D01*
X0015903Y0098158D01*
X0016108Y0098786D01*
X0016408Y0099375D01*
X0016796Y0099910D01*
X0017134Y0100248D01*
X0017123Y0100248D01*
X0016241Y0100613D01*
X0015565Y0101289D01*
X0015200Y0102171D01*
X0015200Y0102257D01*
X0011948Y0105509D01*
X0011400Y0106832D01*
X0011400Y0151266D01*
X0011948Y0152589D01*
X0012961Y0153602D01*
X0015200Y0155841D01*
X0015200Y0157925D01*
X0015565Y0158808D01*
X0016241Y0159483D01*
X0016400Y0159549D01*
X0016400Y0164059D01*
X0007961Y0172498D01*
X0007961Y0172498D01*
X0007650Y0172809D01*
X0007650Y0171939D02*
X0008520Y0171939D01*
X0007650Y0170341D02*
X0010118Y0170341D01*
X0011717Y0168742D02*
X0007650Y0168742D01*
X0007650Y0167144D02*
X0013315Y0167144D01*
X0014914Y0165545D02*
X0007650Y0165545D01*
X0007650Y0163947D02*
X0016400Y0163947D01*
X0016400Y0162348D02*
X0007650Y0162348D01*
X0007650Y0160750D02*
X0016400Y0160750D01*
X0015909Y0159151D02*
X0007650Y0159151D01*
X0007650Y0157553D02*
X0015200Y0157553D01*
X0015200Y0155954D02*
X0007650Y0155954D01*
X0007650Y0154356D02*
X0013714Y0154356D01*
X0012116Y0152757D02*
X0007650Y0152757D01*
X0007650Y0151159D02*
X0011400Y0151159D01*
X0011400Y0149560D02*
X0007650Y0149560D01*
X0007650Y0147962D02*
X0011400Y0147962D01*
X0011400Y0146363D02*
X0007650Y0146363D01*
X0007650Y0144765D02*
X0011400Y0144765D01*
X0011400Y0143166D02*
X0007650Y0143166D01*
X0007650Y0141568D02*
X0011400Y0141568D01*
X0011400Y0139969D02*
X0007650Y0139969D01*
X0007650Y0138370D02*
X0011400Y0138370D01*
X0011400Y0136772D02*
X0007650Y0136772D01*
X0007650Y0135173D02*
X0011400Y0135173D01*
X0011400Y0133575D02*
X0007650Y0133575D01*
X0007650Y0131976D02*
X0011400Y0131976D01*
X0011400Y0130378D02*
X0007650Y0130378D01*
X0007650Y0128779D02*
X0011400Y0128779D01*
X0011400Y0127181D02*
X0007650Y0127181D01*
X0007650Y0125582D02*
X0011400Y0125582D01*
X0011400Y0123984D02*
X0007650Y0123984D01*
X0007650Y0122385D02*
X0011400Y0122385D01*
X0011400Y0120787D02*
X0007650Y0120787D01*
X0007650Y0119188D02*
X0011400Y0119188D01*
X0011400Y0117590D02*
X0007650Y0117590D01*
X0007650Y0115991D02*
X0011400Y0115991D01*
X0011400Y0114393D02*
X0007650Y0114393D01*
X0007650Y0112794D02*
X0011400Y0112794D01*
X0011400Y0111196D02*
X0007650Y0111196D01*
X0007650Y0109597D02*
X0011400Y0109597D01*
X0011400Y0107999D02*
X0007650Y0107999D01*
X0007650Y0106400D02*
X0011579Y0106400D01*
X0012655Y0104802D02*
X0007650Y0104802D01*
X0007650Y0103203D02*
X0014254Y0103203D01*
X0015434Y0101605D02*
X0007650Y0101605D01*
X0007650Y0100006D02*
X0016893Y0100006D01*
X0015985Y0098408D02*
X0007650Y0098408D01*
X0007650Y0096809D02*
X0015805Y0096809D01*
X0016287Y0095211D02*
X0007650Y0095211D01*
X0007650Y0093612D02*
X0017757Y0093612D01*
X0015929Y0092014D02*
X0007650Y0092014D01*
X0007650Y0090415D02*
X0015266Y0090415D01*
X0015200Y0088817D02*
X0007650Y0088817D01*
X0007650Y0087218D02*
X0015667Y0087218D01*
X0016892Y0085620D02*
X0007650Y0085620D01*
X0007650Y0084021D02*
X0015879Y0084021D01*
X0015217Y0082423D02*
X0007650Y0082423D01*
X0007650Y0080824D02*
X0015200Y0080824D01*
X0015716Y0079226D02*
X0007650Y0079226D01*
X0007650Y0077627D02*
X0017011Y0077627D01*
X0015830Y0076029D02*
X0007650Y0076029D01*
X0007650Y0074430D02*
X0015200Y0074430D01*
X0015200Y0072832D02*
X0007650Y0072832D01*
X0007650Y0071233D02*
X0015765Y0071233D01*
X0017129Y0069634D02*
X0007650Y0069634D01*
X0007650Y0068036D02*
X0031400Y0068036D01*
X0031400Y0069634D02*
X0022871Y0069634D01*
X0024235Y0071233D02*
X0031400Y0071233D01*
X0031400Y0072832D02*
X0024800Y0072832D01*
X0024800Y0074430D02*
X0031400Y0074430D01*
X0031400Y0076029D02*
X0024170Y0076029D01*
X0022989Y0077627D02*
X0031400Y0077627D01*
X0031400Y0079226D02*
X0024284Y0079226D01*
X0024800Y0080824D02*
X0031400Y0080824D01*
X0031400Y0082423D02*
X0024783Y0082423D01*
X0024121Y0084021D02*
X0031400Y0084021D01*
X0031400Y0085620D02*
X0023108Y0085620D01*
X0024333Y0087218D02*
X0031400Y0087218D01*
X0031400Y0088817D02*
X0024800Y0088817D01*
X0024734Y0090415D02*
X0031400Y0090415D01*
X0031400Y0092014D02*
X0024071Y0092014D01*
X0022243Y0093612D02*
X0031400Y0093612D01*
X0031400Y0095211D02*
X0023713Y0095211D01*
X0024195Y0096809D02*
X0031400Y0096809D01*
X0031400Y0098408D02*
X0024015Y0098408D01*
X0023107Y0100006D02*
X0031400Y0100006D01*
X0031400Y0101605D02*
X0024566Y0101605D01*
X0024800Y0103203D02*
X0031400Y0103203D01*
X0031400Y0104802D02*
X0024800Y0104802D01*
X0024800Y0106400D02*
X0031400Y0106400D01*
X0031400Y0107999D02*
X0024770Y0107999D01*
X0023483Y0109597D02*
X0031400Y0109597D01*
X0031400Y0111196D02*
X0018600Y0111196D01*
X0018600Y0112794D02*
X0031400Y0112794D01*
X0031400Y0114393D02*
X0018600Y0114393D01*
X0018600Y0115991D02*
X0031400Y0115991D01*
X0031400Y0117590D02*
X0018600Y0117590D01*
X0022008Y0119188D02*
X0031400Y0119188D01*
X0031400Y0120787D02*
X0024023Y0120787D01*
X0024712Y0122385D02*
X0031400Y0122385D01*
X0031400Y0123984D02*
X0024800Y0123984D01*
X0024354Y0125582D02*
X0031400Y0125582D01*
X0031400Y0127181D02*
X0023159Y0127181D01*
X0024099Y0128779D02*
X0031400Y0128779D01*
X0031400Y0130378D02*
X0024761Y0130378D01*
X0024800Y0131976D02*
X0031400Y0131976D01*
X0031400Y0133575D02*
X0024305Y0133575D01*
X0023041Y0135173D02*
X0031400Y0135173D01*
X0031400Y0136772D02*
X0024148Y0136772D01*
X0024800Y0138370D02*
X0031400Y0138370D01*
X0031400Y0139969D02*
X0024800Y0139969D01*
X0024256Y0141568D02*
X0031400Y0141568D01*
X0031400Y0143166D02*
X0022922Y0143166D01*
X0023441Y0144765D02*
X0031400Y0144765D01*
X0031400Y0146363D02*
X0024124Y0146363D01*
X0024128Y0147962D02*
X0031400Y0147962D01*
X0031400Y0149560D02*
X0023458Y0149560D01*
X0024305Y0151159D02*
X0031400Y0151159D01*
X0031400Y0152757D02*
X0024800Y0152757D01*
X0024800Y0154356D02*
X0031644Y0154356D01*
X0032813Y0155954D02*
X0025997Y0155954D01*
X0027596Y0157553D02*
X0034411Y0157553D01*
X0036010Y0159151D02*
X0029194Y0159151D01*
X0030793Y0160750D02*
X0037608Y0160750D01*
X0038716Y0162348D02*
X0032391Y0162348D01*
X0034778Y0163947D02*
X0039979Y0163947D01*
X0037163Y0165545D02*
X0162003Y0165545D01*
X0163601Y0167144D02*
X0037904Y0167144D01*
X0037934Y0168742D02*
X0165200Y0168742D01*
X0166798Y0170341D02*
X0037330Y0170341D01*
X0035295Y0171939D02*
X0168397Y0171939D01*
X0170624Y0173538D02*
X0017103Y0173538D01*
X0018702Y0171939D02*
X0032205Y0171939D01*
X0030170Y0170341D02*
X0020300Y0170341D01*
X0021899Y0168742D02*
X0028603Y0168742D01*
X0027005Y0167144D02*
X0023236Y0167144D01*
X0023600Y0165545D02*
X0025406Y0165545D01*
X0023807Y0163947D02*
X0023600Y0163947D01*
X0022135Y0175136D02*
X0019243Y0175136D01*
X0027117Y0175136D02*
X0030009Y0175136D01*
X0034991Y0175136D02*
X0039815Y0175136D01*
X0040374Y0175136D02*
X0040374Y0175136D01*
X0040933Y0175136D02*
X0044218Y0175136D01*
X0040374Y0176735D02*
X0040374Y0176735D01*
X0040374Y0178333D02*
X0040374Y0178333D01*
X0037046Y0176735D02*
X0036633Y0176735D01*
X0052278Y0175136D02*
X0065511Y0175136D01*
X0063869Y0176735D02*
X0053048Y0176735D01*
X0053048Y0178333D02*
X0063207Y0178333D01*
X0063202Y0179932D02*
X0054473Y0179932D01*
X0070493Y0175136D02*
X0073385Y0175136D01*
X0078367Y0175136D02*
X0081259Y0175136D01*
X0086241Y0175136D02*
X0091065Y0175136D01*
X0091624Y0175136D02*
X0091624Y0175136D01*
X0092183Y0175136D02*
X0095468Y0175136D01*
X0091624Y0176735D02*
X0091624Y0176735D01*
X0091624Y0178333D02*
X0091624Y0178333D01*
X0088296Y0176735D02*
X0087883Y0176735D01*
X0103528Y0175136D02*
X0119261Y0175136D01*
X0117619Y0176735D02*
X0104298Y0176735D01*
X0104298Y0178333D02*
X0116957Y0178333D01*
X0116952Y0179932D02*
X0105221Y0179932D01*
X0106961Y0194318D02*
X0113039Y0194318D01*
X0110813Y0195917D02*
X0109187Y0195917D01*
X0103039Y0194318D02*
X0096961Y0194318D01*
X0099187Y0195917D02*
X0100813Y0195917D01*
X0093039Y0194318D02*
X0086961Y0194318D01*
X0089187Y0195917D02*
X0090813Y0195917D01*
X0083039Y0194318D02*
X0076961Y0194318D01*
X0079187Y0195917D02*
X0080813Y0195917D01*
X0073039Y0194318D02*
X0066961Y0194318D01*
X0069187Y0195917D02*
X0070813Y0195917D01*
X0063039Y0194318D02*
X0056961Y0194318D01*
X0059187Y0195917D02*
X0060813Y0195917D01*
X0053039Y0194318D02*
X0046961Y0194318D01*
X0049187Y0195917D02*
X0050813Y0195917D01*
X0043039Y0194318D02*
X0036961Y0194318D01*
X0039187Y0195917D02*
X0040813Y0195917D01*
X0033039Y0194318D02*
X0026961Y0194318D01*
X0029187Y0195917D02*
X0030813Y0195917D01*
X0023039Y0194318D02*
X0007650Y0194318D01*
X0007650Y0192720D02*
X0197000Y0192720D01*
X0196961Y0194318D02*
X0197000Y0194318D01*
X0197000Y0191121D02*
X0007650Y0191121D01*
X0007650Y0189523D02*
X0197000Y0189523D01*
X0197000Y0187924D02*
X0007650Y0187924D01*
X0007650Y0186326D02*
X0010685Y0186326D01*
X0009086Y0184727D02*
X0007650Y0184727D01*
X0007650Y0195917D02*
X0010299Y0195917D01*
X0010247Y0197515D02*
X0007650Y0197515D01*
X0007650Y0199114D02*
X0010247Y0199114D01*
X0010247Y0200712D02*
X0007650Y0200712D01*
X0007650Y0202311D02*
X0010247Y0202311D01*
X0011317Y0203909D02*
X0007650Y0203909D01*
X0007650Y0205508D02*
X0012133Y0205508D01*
X0010784Y0207106D02*
X0007650Y0207106D01*
X0007650Y0208705D02*
X0010282Y0208705D01*
X0010347Y0210303D02*
X0007650Y0210303D01*
X0007650Y0211902D02*
X0011016Y0211902D01*
X0012775Y0213501D02*
X0007650Y0213501D01*
X0014816Y0213501D02*
X0015184Y0213501D01*
X0015184Y0211902D02*
X0014816Y0211902D01*
X0014816Y0210303D02*
X0015184Y0210303D01*
X0015184Y0208705D02*
X0014816Y0208705D01*
X0014816Y0207106D02*
X0015184Y0207106D01*
X0015184Y0205508D02*
X0014816Y0205508D01*
X0014816Y0203909D02*
X0015184Y0203909D01*
X0015184Y0202311D02*
X0014816Y0202311D01*
X0014816Y0200712D02*
X0015184Y0200712D01*
X0015184Y0199114D02*
X0014816Y0199114D01*
X0014816Y0197515D02*
X0015184Y0197515D01*
X0015184Y0195917D02*
X0014816Y0195917D01*
X0019701Y0195917D02*
X0020813Y0195917D01*
X0019945Y0197515D02*
X0019753Y0197515D01*
X0019753Y0200712D02*
X0019791Y0200712D01*
X0019753Y0202311D02*
X0020453Y0202311D01*
X0022141Y0203909D02*
X0018683Y0203909D01*
X0017867Y0205508D02*
X0021222Y0205508D01*
X0020115Y0207106D02*
X0019216Y0207106D01*
X0018984Y0211902D02*
X0020284Y0211902D01*
X0021631Y0213501D02*
X0017225Y0213501D01*
X0045021Y0163947D02*
X0160404Y0163947D01*
X0158806Y0162348D02*
X0046284Y0162348D01*
X0046684Y0160750D02*
X0062428Y0160750D01*
X0060608Y0159151D02*
X0046450Y0159151D01*
X0045420Y0157553D02*
X0059010Y0157553D01*
X0055737Y0155954D02*
X0042995Y0155954D01*
X0041397Y0154356D02*
X0054762Y0154356D01*
X0045503Y0152757D02*
X0039798Y0152757D01*
X0038600Y0151159D02*
X0043722Y0151159D01*
X0043031Y0149560D02*
X0038600Y0149560D01*
X0038600Y0147962D02*
X0042850Y0147962D01*
X0043104Y0146363D02*
X0038600Y0146363D01*
X0038600Y0144765D02*
X0043899Y0144765D01*
X0045930Y0143166D02*
X0038600Y0143166D01*
X0038600Y0141568D02*
X0044131Y0141568D01*
X0043200Y0139969D02*
X0038600Y0139969D01*
X0038600Y0138370D02*
X0042850Y0138370D01*
X0042934Y0136772D02*
X0038600Y0136772D01*
X0038600Y0135173D02*
X0043597Y0135173D01*
X0045088Y0133575D02*
X0038600Y0133575D01*
X0038600Y0131976D02*
X0044540Y0131976D01*
X0043369Y0130378D02*
X0038600Y0130378D01*
X0038600Y0128779D02*
X0042850Y0128779D01*
X0042850Y0127181D02*
X0038600Y0127181D01*
X0038600Y0125582D02*
X0043427Y0125582D01*
X0044679Y0123984D02*
X0038600Y0123984D01*
X0038600Y0122385D02*
X0044949Y0122385D01*
X0043539Y0120787D02*
X0038600Y0120787D01*
X0038600Y0119188D02*
X0042877Y0119188D01*
X0042850Y0117590D02*
X0038600Y0117590D01*
X0038600Y0115991D02*
X0043258Y0115991D01*
X0044270Y0114393D02*
X0038600Y0114393D01*
X0038600Y0112794D02*
X0045593Y0112794D01*
X0043759Y0111196D02*
X0038600Y0111196D01*
X0038600Y0109597D02*
X0043046Y0109597D01*
X0042850Y0107999D02*
X0038600Y0107999D01*
X0038600Y0106400D02*
X0043088Y0106400D01*
X0043861Y0104802D02*
X0038600Y0104802D01*
X0038600Y0103203D02*
X0045840Y0103203D01*
X0042925Y0101605D02*
X0038600Y0101605D01*
X0038600Y0100006D02*
X0040615Y0100006D01*
X0039017Y0098408D02*
X0038600Y0098408D01*
X0056290Y0103050D02*
X0057309Y0103472D01*
X0058828Y0104991D01*
X0059650Y0106976D01*
X0059650Y0109124D01*
X0058828Y0111109D01*
X0057309Y0112628D01*
X0056290Y0113050D01*
X0057309Y0113472D01*
X0058828Y0114991D01*
X0058852Y0115050D01*
X0092614Y0115050D01*
X0093496Y0115415D01*
X0093672Y0114991D01*
X0095191Y0113472D01*
X0096210Y0113050D01*
X0095191Y0112628D01*
X0093672Y0111109D01*
X0092850Y0109124D01*
X0092850Y0106976D01*
X0093672Y0104991D01*
X0095191Y0103472D01*
X0096210Y0103050D01*
X0095191Y0102628D01*
X0093672Y0101109D01*
X0092850Y0099124D01*
X0092850Y0096976D01*
X0093672Y0094991D01*
X0095191Y0093472D01*
X0096210Y0093050D01*
X0095191Y0092628D01*
X0093672Y0091109D01*
X0092850Y0089124D01*
X0092850Y0086976D01*
X0093672Y0084991D01*
X0095191Y0083472D01*
X0097043Y0082705D01*
X0096407Y0082498D01*
X0095734Y0082155D01*
X0095123Y0081711D01*
X0094589Y0081177D01*
X0094145Y0080566D01*
X0093802Y0079893D01*
X0093568Y0079174D01*
X0093450Y0078428D01*
X0093450Y0078250D01*
X0101050Y0078250D01*
X0101050Y0077850D01*
X0101450Y0077850D01*
X0101450Y0078250D01*
X0109050Y0078250D01*
X0109050Y0078428D01*
X0108932Y0079174D01*
X0108698Y0079893D01*
X0108355Y0080566D01*
X0107911Y0081177D01*
X0107377Y0081711D01*
X0106766Y0082155D01*
X0106093Y0082498D01*
X0105457Y0082705D01*
X0107309Y0083472D01*
X0108828Y0084991D01*
X0109650Y0086976D01*
X0109650Y0089124D01*
X0108828Y0091109D01*
X0107309Y0092628D01*
X0106290Y0093050D01*
X0107309Y0093472D01*
X0108828Y0094991D01*
X0109650Y0096976D01*
X0109650Y0099124D01*
X0108828Y0101109D01*
X0107309Y0102628D01*
X0106290Y0103050D01*
X0107309Y0103472D01*
X0108828Y0104991D01*
X0109650Y0106976D01*
X0109650Y0109124D01*
X0108828Y0111109D01*
X0107309Y0112628D01*
X0106290Y0113050D01*
X0107309Y0113472D01*
X0108828Y0114991D01*
X0109004Y0115415D01*
X0109886Y0115050D01*
X0128648Y0115050D01*
X0128672Y0114991D01*
X0130191Y0113472D01*
X0131210Y0113050D01*
X0130191Y0112628D01*
X0128672Y0111109D01*
X0127850Y0109124D01*
X0127850Y0106976D01*
X0128672Y0104991D01*
X0130191Y0103472D01*
X0131210Y0103050D01*
X0130191Y0102628D01*
X0128672Y0101109D01*
X0128286Y0100177D01*
X0128198Y0100089D01*
X0120461Y0092352D01*
X0120461Y0092352D01*
X0119448Y0091339D01*
X0118900Y0090016D01*
X0118900Y0034541D01*
X0118509Y0034150D01*
X0043600Y0034150D01*
X0043600Y0075165D01*
X0043672Y0074991D01*
X0045191Y0073472D01*
X0047176Y0072650D01*
X0055324Y0072650D01*
X0057309Y0073472D01*
X0058828Y0074991D01*
X0059650Y0076976D01*
X0059650Y0079124D01*
X0058828Y0081109D01*
X0057309Y0082628D01*
X0056290Y0083050D01*
X0057309Y0083472D01*
X0058828Y0084991D01*
X0059650Y0086976D01*
X0059650Y0089124D01*
X0058828Y0091109D01*
X0057309Y0092628D01*
X0056290Y0093050D01*
X0057309Y0093472D01*
X0058828Y0094991D01*
X0059650Y0096976D01*
X0059650Y0099124D01*
X0058828Y0101109D01*
X0057309Y0102628D01*
X0056290Y0103050D01*
X0056660Y0103203D02*
X0095840Y0103203D01*
X0094168Y0101605D02*
X0058332Y0101605D01*
X0059285Y0100006D02*
X0093215Y0100006D01*
X0092850Y0098408D02*
X0059650Y0098408D01*
X0059581Y0096809D02*
X0092919Y0096809D01*
X0093581Y0095211D02*
X0058919Y0095211D01*
X0057449Y0093612D02*
X0095051Y0093612D01*
X0094577Y0092014D02*
X0057923Y0092014D01*
X0059115Y0090415D02*
X0093385Y0090415D01*
X0092850Y0088817D02*
X0059650Y0088817D01*
X0059650Y0087218D02*
X0092850Y0087218D01*
X0093412Y0085620D02*
X0059088Y0085620D01*
X0057858Y0084021D02*
X0094642Y0084021D01*
X0096259Y0082423D02*
X0057514Y0082423D01*
X0058946Y0080824D02*
X0094332Y0080824D01*
X0093585Y0079226D02*
X0059608Y0079226D01*
X0059650Y0077627D02*
X0093457Y0077627D01*
X0093450Y0077672D02*
X0093568Y0076926D01*
X0093802Y0076207D01*
X0094145Y0075534D01*
X0094589Y0074923D01*
X0095123Y0074389D01*
X0095734Y0073945D01*
X0096407Y0073602D01*
X0097126Y0073368D01*
X0097872Y0073250D01*
X0101050Y0073250D01*
X0101050Y0077850D01*
X0093450Y0077850D01*
X0093450Y0077672D01*
X0093893Y0076029D02*
X0059258Y0076029D01*
X0058267Y0074430D02*
X0095082Y0074430D01*
X0101050Y0074430D02*
X0101450Y0074430D01*
X0101450Y0073250D02*
X0104628Y0073250D01*
X0105374Y0073368D01*
X0106093Y0073602D01*
X0106766Y0073945D01*
X0107377Y0074389D01*
X0107911Y0074923D01*
X0108355Y0075534D01*
X0108698Y0076207D01*
X0108932Y0076926D01*
X0109050Y0077672D01*
X0109050Y0077850D01*
X0101450Y0077850D01*
X0101450Y0073250D01*
X0101450Y0076029D02*
X0101050Y0076029D01*
X0101050Y0077627D02*
X0101450Y0077627D01*
X0107418Y0074430D02*
X0118900Y0074430D01*
X0118900Y0072832D02*
X0055762Y0072832D01*
X0046738Y0072832D02*
X0043600Y0072832D01*
X0043600Y0074430D02*
X0044233Y0074430D01*
X0043600Y0071233D02*
X0118900Y0071233D01*
X0118900Y0069634D02*
X0043600Y0069634D01*
X0043600Y0068036D02*
X0118900Y0068036D01*
X0118900Y0066437D02*
X0043600Y0066437D01*
X0043600Y0064839D02*
X0118900Y0064839D01*
X0118900Y0063240D02*
X0086430Y0063240D01*
X0086127Y0063543D02*
X0084138Y0064367D01*
X0081985Y0064367D01*
X0079995Y0063543D01*
X0078473Y0062021D01*
X0077649Y0060032D01*
X0077649Y0057879D01*
X0078473Y0055890D01*
X0079995Y0054368D01*
X0081985Y0053544D01*
X0084138Y0053544D01*
X0086127Y0054368D01*
X0087649Y0055890D01*
X0088473Y0057879D01*
X0088473Y0060032D01*
X0087649Y0062021D01*
X0086127Y0063543D01*
X0087806Y0061642D02*
X0118900Y0061642D01*
X0118900Y0060043D02*
X0088468Y0060043D01*
X0088473Y0058445D02*
X0118900Y0058445D01*
X0118900Y0056846D02*
X0088045Y0056846D01*
X0087007Y0055248D02*
X0118900Y0055248D01*
X0118900Y0053649D02*
X0084393Y0053649D01*
X0084138Y0052556D02*
X0081985Y0052556D01*
X0079995Y0051732D01*
X0078473Y0050210D01*
X0077649Y0048221D01*
X0077649Y0046068D01*
X0078473Y0044079D01*
X0079995Y0042557D01*
X0081985Y0041733D01*
X0084138Y0041733D01*
X0086127Y0042557D01*
X0087649Y0044079D01*
X0088473Y0046068D01*
X0088473Y0048221D01*
X0087649Y0050210D01*
X0086127Y0051732D01*
X0084138Y0052556D01*
X0085358Y0052051D02*
X0118900Y0052051D01*
X0118900Y0050452D02*
X0087407Y0050452D01*
X0088211Y0048854D02*
X0118900Y0048854D01*
X0118900Y0047255D02*
X0088473Y0047255D01*
X0088303Y0045657D02*
X0118900Y0045657D01*
X0118900Y0044058D02*
X0087628Y0044058D01*
X0085893Y0042460D02*
X0118900Y0042460D01*
X0118900Y0040861D02*
X0043600Y0040861D01*
X0043600Y0039263D02*
X0118900Y0039263D01*
X0118900Y0037664D02*
X0043600Y0037664D01*
X0043600Y0036066D02*
X0118900Y0036066D01*
X0118826Y0034467D02*
X0043600Y0034467D01*
X0031400Y0034467D02*
X0022729Y0034467D01*
X0022736Y0034472D02*
X0023204Y0034940D01*
X0023592Y0035475D01*
X0023892Y0036064D01*
X0024097Y0036692D01*
X0024200Y0037345D01*
X0024200Y0037676D01*
X0024200Y0038007D01*
X0024097Y0038659D01*
X0023892Y0039288D01*
X0023592Y0039877D01*
X0023204Y0040412D01*
X0022736Y0040880D01*
X0022203Y0041267D01*
X0022719Y0041481D01*
X0024069Y0042831D01*
X0024800Y0044595D01*
X0024800Y0046505D01*
X0024069Y0048269D01*
X0023469Y0048869D01*
X0023759Y0048989D01*
X0024435Y0049665D01*
X0024800Y0050547D01*
X0024800Y0056301D01*
X0024435Y0057184D01*
X0023759Y0057859D01*
X0022877Y0058224D01*
X0017123Y0058224D01*
X0016241Y0057859D01*
X0015565Y0057184D01*
X0015200Y0056301D01*
X0015200Y0050547D01*
X0015565Y0049665D01*
X0016241Y0048989D01*
X0016531Y0048869D01*
X0015931Y0048269D01*
X0015200Y0046505D01*
X0015200Y0044595D01*
X0015931Y0042831D01*
X0017281Y0041481D01*
X0017797Y0041267D01*
X0017264Y0040880D01*
X0016796Y0040412D01*
X0016408Y0039877D01*
X0016108Y0039288D01*
X0015903Y0038659D01*
X0015800Y0038007D01*
X0015800Y0037676D01*
X0020000Y0037676D01*
X0024200Y0037676D01*
X0020000Y0037676D01*
X0020000Y0037676D01*
X0020000Y0037676D01*
X0020000Y0033476D01*
X0020331Y0033476D01*
X0020984Y0033579D01*
X0021612Y0033784D01*
X0022201Y0034084D01*
X0022736Y0034472D01*
X0023893Y0036066D02*
X0031400Y0036066D01*
X0031400Y0037664D02*
X0024200Y0037664D01*
X0023901Y0039263D02*
X0031400Y0039263D01*
X0031400Y0040861D02*
X0022754Y0040861D01*
X0023698Y0042460D02*
X0031400Y0042460D01*
X0031400Y0044058D02*
X0024578Y0044058D01*
X0024800Y0045657D02*
X0031400Y0045657D01*
X0031400Y0047255D02*
X0024489Y0047255D01*
X0023484Y0048854D02*
X0031400Y0048854D01*
X0031400Y0050452D02*
X0024761Y0050452D01*
X0024800Y0052051D02*
X0031400Y0052051D01*
X0031400Y0053649D02*
X0024800Y0053649D01*
X0024800Y0055248D02*
X0031400Y0055248D01*
X0031400Y0056846D02*
X0024574Y0056846D01*
X0031400Y0058445D02*
X0007650Y0058445D01*
X0007650Y0060043D02*
X0031400Y0060043D01*
X0031400Y0061642D02*
X0007650Y0061642D01*
X0007650Y0063240D02*
X0031400Y0063240D01*
X0031400Y0064839D02*
X0007650Y0064839D01*
X0007650Y0066437D02*
X0031400Y0066437D01*
X0043600Y0063240D02*
X0067881Y0063240D01*
X0068184Y0063543D02*
X0066662Y0062021D01*
X0065838Y0060032D01*
X0065838Y0057879D01*
X0066662Y0055890D01*
X0068184Y0054368D01*
X0070174Y0053544D01*
X0072326Y0053544D01*
X0074316Y0054368D01*
X0075838Y0055890D01*
X0076662Y0057879D01*
X0076662Y0060032D01*
X0075838Y0062021D01*
X0074316Y0063543D01*
X0072326Y0064367D01*
X0070174Y0064367D01*
X0068184Y0063543D01*
X0066505Y0061642D02*
X0043600Y0061642D01*
X0043600Y0060043D02*
X0065843Y0060043D01*
X0065838Y0058445D02*
X0043600Y0058445D01*
X0043600Y0056846D02*
X0066266Y0056846D01*
X0067304Y0055248D02*
X0043600Y0055248D01*
X0043600Y0053649D02*
X0069918Y0053649D01*
X0067761Y0052556D02*
X0066879Y0052191D01*
X0066204Y0051516D01*
X0065838Y0050634D01*
X0065838Y0043655D01*
X0066204Y0042773D01*
X0066879Y0042098D01*
X0067761Y0041733D01*
X0074739Y0041733D01*
X0075621Y0042098D01*
X0076296Y0042773D01*
X0076662Y0043655D01*
X0076662Y0050634D01*
X0076296Y0051516D01*
X0075621Y0052191D01*
X0074739Y0052556D01*
X0067761Y0052556D01*
X0066739Y0052051D02*
X0043600Y0052051D01*
X0043600Y0050452D02*
X0065838Y0050452D01*
X0065838Y0048854D02*
X0043600Y0048854D01*
X0043600Y0047255D02*
X0065838Y0047255D01*
X0065838Y0045657D02*
X0043600Y0045657D01*
X0043600Y0044058D02*
X0065838Y0044058D01*
X0066517Y0042460D02*
X0043600Y0042460D01*
X0031400Y0032869D02*
X0007650Y0032869D01*
X0007650Y0034467D02*
X0017271Y0034467D01*
X0017264Y0034472D02*
X0017799Y0034084D01*
X0018388Y0033784D01*
X0019016Y0033579D01*
X0019669Y0033476D01*
X0020000Y0033476D01*
X0020000Y0037676D01*
X0020000Y0037676D01*
X0015800Y0037676D01*
X0015800Y0037345D01*
X0015903Y0036692D01*
X0016108Y0036064D01*
X0016408Y0035475D01*
X0016796Y0034940D01*
X0017264Y0034472D01*
X0016107Y0036066D02*
X0007650Y0036066D01*
X0007650Y0037664D02*
X0015800Y0037664D01*
X0016099Y0039263D02*
X0007650Y0039263D01*
X0007650Y0040861D02*
X0017246Y0040861D01*
X0016302Y0042460D02*
X0007650Y0042460D01*
X0007650Y0044058D02*
X0015422Y0044058D01*
X0015200Y0045657D02*
X0007650Y0045657D01*
X0007650Y0047255D02*
X0015511Y0047255D01*
X0016516Y0048854D02*
X0007650Y0048854D01*
X0007650Y0050452D02*
X0015239Y0050452D01*
X0015200Y0052051D02*
X0007650Y0052051D01*
X0007650Y0053649D02*
X0015200Y0053649D01*
X0015200Y0055248D02*
X0007650Y0055248D01*
X0007650Y0056846D02*
X0015426Y0056846D01*
X0020000Y0037664D02*
X0020000Y0037664D01*
X0020000Y0036066D02*
X0020000Y0036066D01*
X0020000Y0034467D02*
X0020000Y0034467D01*
X0028682Y0028073D02*
X0007650Y0028073D01*
X0007650Y0026475D02*
X0027084Y0026475D01*
X0025485Y0024876D02*
X0007650Y0024876D01*
X0007650Y0023278D02*
X0011408Y0023278D01*
X0010192Y0021679D02*
X0007650Y0021679D01*
X0007650Y0020081D02*
X0009647Y0020081D01*
X0009647Y0018482D02*
X0007650Y0018482D01*
X0007650Y0016884D02*
X0010207Y0016884D01*
X0011445Y0015285D02*
X0007650Y0015285D01*
X0007650Y0013687D02*
X0010936Y0013687D01*
X0010247Y0012088D02*
X0007650Y0012088D01*
X0007650Y0010490D02*
X0010247Y0010490D01*
X0010247Y0008891D02*
X0007650Y0008891D01*
X0007650Y0007293D02*
X0010247Y0007293D01*
X0010359Y0005694D02*
X0007650Y0005694D01*
X0014816Y0005694D02*
X0015184Y0005694D01*
X0015184Y0007293D02*
X0014816Y0007293D01*
X0014816Y0008891D02*
X0015184Y0008891D01*
X0019753Y0007293D02*
X0020038Y0007293D01*
X0019641Y0005694D02*
X0021036Y0005694D01*
X0020192Y0021679D02*
X0019808Y0021679D01*
X0018592Y0023278D02*
X0021408Y0023278D01*
X0030281Y0029672D02*
X0007650Y0029672D01*
X0007650Y0031270D02*
X0031400Y0031270D01*
X0072582Y0053649D02*
X0081729Y0053649D01*
X0080764Y0052051D02*
X0075761Y0052051D01*
X0076662Y0050452D02*
X0078715Y0050452D01*
X0077911Y0048854D02*
X0076662Y0048854D01*
X0076662Y0047255D02*
X0077649Y0047255D01*
X0077820Y0045657D02*
X0076662Y0045657D01*
X0076662Y0044058D02*
X0078494Y0044058D01*
X0080229Y0042460D02*
X0075983Y0042460D01*
X0075196Y0055248D02*
X0079115Y0055248D01*
X0078077Y0056846D02*
X0076234Y0056846D01*
X0076662Y0058445D02*
X0077649Y0058445D01*
X0077654Y0060043D02*
X0076657Y0060043D01*
X0075995Y0061642D02*
X0078316Y0061642D01*
X0079693Y0063240D02*
X0074619Y0063240D01*
X0108607Y0076029D02*
X0118900Y0076029D01*
X0118900Y0077627D02*
X0109043Y0077627D01*
X0108915Y0079226D02*
X0118900Y0079226D01*
X0118900Y0080824D02*
X0108168Y0080824D01*
X0106241Y0082423D02*
X0118900Y0082423D01*
X0118900Y0084021D02*
X0107858Y0084021D01*
X0109088Y0085620D02*
X0118900Y0085620D01*
X0118900Y0087218D02*
X0109650Y0087218D01*
X0109650Y0088817D02*
X0118900Y0088817D01*
X0119065Y0090415D02*
X0109115Y0090415D01*
X0107923Y0092014D02*
X0120122Y0092014D01*
X0121721Y0093612D02*
X0107449Y0093612D01*
X0108919Y0095211D02*
X0123320Y0095211D01*
X0124918Y0096809D02*
X0109581Y0096809D01*
X0109650Y0098408D02*
X0126517Y0098408D01*
X0128115Y0100006D02*
X0109285Y0100006D01*
X0108332Y0101605D02*
X0129168Y0101605D01*
X0128198Y0100089D02*
X0128198Y0100089D01*
X0130840Y0103203D02*
X0106660Y0103203D01*
X0108638Y0104802D02*
X0128861Y0104802D01*
X0128088Y0106400D02*
X0109412Y0106400D01*
X0109650Y0107999D02*
X0127850Y0107999D01*
X0128046Y0109597D02*
X0109454Y0109597D01*
X0108741Y0111196D02*
X0128759Y0111196D01*
X0130593Y0112794D02*
X0106907Y0112794D01*
X0108230Y0114393D02*
X0129270Y0114393D01*
X0128157Y0089866D02*
X0127850Y0089124D01*
X0127850Y0086976D01*
X0128672Y0084991D01*
X0130191Y0083472D01*
X0131210Y0083050D01*
X0130191Y0082628D01*
X0128672Y0081109D01*
X0127850Y0079124D01*
X0127850Y0076976D01*
X0128672Y0074991D01*
X0130191Y0073472D01*
X0132176Y0072650D01*
X0140324Y0072650D01*
X0142309Y0073472D01*
X0143828Y0074991D01*
X0143852Y0075050D01*
X0150597Y0075050D01*
X0151699Y0075507D01*
X0152543Y0076351D01*
X0177543Y0101351D01*
X0178000Y0102453D01*
X0178000Y0106614D01*
X0178672Y0104991D01*
X0180191Y0103472D01*
X0181210Y0103050D01*
X0180191Y0102628D01*
X0178672Y0101109D01*
X0177850Y0099124D01*
X0177850Y0096976D01*
X0178672Y0094991D01*
X0180191Y0093472D01*
X0181210Y0093050D01*
X0180191Y0092628D01*
X0178672Y0091109D01*
X0177850Y0089124D01*
X0177850Y0086976D01*
X0178672Y0084991D01*
X0180191Y0083472D01*
X0182043Y0082705D01*
X0181407Y0082498D01*
X0180734Y0082155D01*
X0180123Y0081711D01*
X0179589Y0081177D01*
X0179145Y0080566D01*
X0178802Y0079893D01*
X0178568Y0079174D01*
X0178450Y0078428D01*
X0178450Y0078250D01*
X0186050Y0078250D01*
X0186050Y0077850D01*
X0186450Y0077850D01*
X0186450Y0078250D01*
X0194050Y0078250D01*
X0194050Y0078428D01*
X0193932Y0079174D01*
X0193698Y0079893D01*
X0193355Y0080566D01*
X0192911Y0081177D01*
X0192377Y0081711D01*
X0191766Y0082155D01*
X0191093Y0082498D01*
X0190457Y0082705D01*
X0192309Y0083472D01*
X0193828Y0084991D01*
X0194650Y0086976D01*
X0194650Y0089124D01*
X0193828Y0091109D01*
X0192309Y0092628D01*
X0191290Y0093050D01*
X0192309Y0093472D01*
X0193828Y0094991D01*
X0194650Y0096976D01*
X0194650Y0099124D01*
X0193828Y0101109D01*
X0192309Y0102628D01*
X0191290Y0103050D01*
X0192309Y0103472D01*
X0193828Y0104991D01*
X0194650Y0106976D01*
X0194650Y0109124D01*
X0193828Y0111109D01*
X0192309Y0112628D01*
X0191290Y0113050D01*
X0192309Y0113472D01*
X0193828Y0114991D01*
X0194650Y0116976D01*
X0194650Y0119124D01*
X0193828Y0121109D01*
X0192309Y0122628D01*
X0191290Y0123050D01*
X0192309Y0123472D01*
X0193828Y0124991D01*
X0194650Y0126976D01*
X0194650Y0129124D01*
X0193828Y0131109D01*
X0192309Y0132628D01*
X0190457Y0133395D01*
X0191093Y0133602D01*
X0191766Y0133945D01*
X0192377Y0134389D01*
X0192911Y0134923D01*
X0193355Y0135534D01*
X0193698Y0136207D01*
X0193932Y0136926D01*
X0194050Y0137672D01*
X0194050Y0137850D01*
X0186450Y0137850D01*
X0186450Y0138250D01*
X0194050Y0138250D01*
X0194050Y0138428D01*
X0193932Y0139174D01*
X0193698Y0139893D01*
X0193355Y0140566D01*
X0192911Y0141177D01*
X0192377Y0141711D01*
X0191766Y0142155D01*
X0191093Y0142498D01*
X0190457Y0142705D01*
X0191531Y0143150D01*
X0210713Y0143150D01*
X0209922Y0142359D01*
X0209100Y0140374D01*
X0209100Y0138226D01*
X0209922Y0136241D01*
X0211441Y0134722D01*
X0213293Y0133955D01*
X0212657Y0133748D01*
X0211984Y0133405D01*
X0211373Y0132961D01*
X0210839Y0132427D01*
X0210395Y0131816D01*
X0210052Y0131143D01*
X0209818Y0130424D01*
X0209700Y0129678D01*
X0209700Y0129500D01*
X0217300Y0129500D01*
X0217300Y0129100D01*
X0209700Y0129100D01*
X0209700Y0128922D01*
X0209818Y0128176D01*
X0210052Y0127457D01*
X0210395Y0126784D01*
X0210839Y0126173D01*
X0211373Y0125639D01*
X0211984Y0125195D01*
X0212657Y0124852D01*
X0213293Y0124645D01*
X0211441Y0123878D01*
X0209922Y0122359D01*
X0209100Y0120374D01*
X0209100Y0118226D01*
X0209922Y0116241D01*
X0211441Y0114722D01*
X0213426Y0113900D01*
X0217809Y0113900D01*
X0218900Y0112809D01*
X0218900Y0095791D01*
X0181948Y0058839D01*
X0181400Y0057516D01*
X0181400Y0049541D01*
X0174759Y0042900D01*
X0171470Y0042900D01*
X0172649Y0044079D01*
X0173473Y0046068D01*
X0173473Y0048221D01*
X0172649Y0050210D01*
X0171127Y0051732D01*
X0169138Y0052556D01*
X0166985Y0052556D01*
X0164995Y0051732D01*
X0163473Y0050210D01*
X0162649Y0048221D01*
X0162649Y0046068D01*
X0163473Y0044079D01*
X0164652Y0042900D01*
X0161349Y0042900D01*
X0161662Y0043655D01*
X0161662Y0050634D01*
X0161296Y0051516D01*
X0160621Y0052191D01*
X0159739Y0052556D01*
X0152761Y0052556D01*
X0151879Y0052191D01*
X0151204Y0051516D01*
X0150838Y0050634D01*
X0150838Y0043655D01*
X0151151Y0042900D01*
X0126100Y0042900D01*
X0126100Y0087809D01*
X0128157Y0089866D01*
X0127850Y0088817D02*
X0127108Y0088817D01*
X0127850Y0087218D02*
X0126100Y0087218D01*
X0126100Y0085620D02*
X0128412Y0085620D01*
X0129642Y0084021D02*
X0126100Y0084021D01*
X0126100Y0082423D02*
X0129986Y0082423D01*
X0128554Y0080824D02*
X0126100Y0080824D01*
X0126100Y0079226D02*
X0127892Y0079226D01*
X0127850Y0077627D02*
X0126100Y0077627D01*
X0126100Y0076029D02*
X0128242Y0076029D01*
X0129233Y0074430D02*
X0126100Y0074430D01*
X0126100Y0072832D02*
X0131738Y0072832D01*
X0126100Y0071233D02*
X0194342Y0071233D01*
X0195940Y0072832D02*
X0140762Y0072832D01*
X0143267Y0074430D02*
X0180082Y0074430D01*
X0180123Y0074389D02*
X0180734Y0073945D01*
X0181407Y0073602D01*
X0182126Y0073368D01*
X0182872Y0073250D01*
X0186050Y0073250D01*
X0186050Y0077850D01*
X0178450Y0077850D01*
X0178450Y0077672D01*
X0178568Y0076926D01*
X0178802Y0076207D01*
X0179145Y0075534D01*
X0179589Y0074923D01*
X0180123Y0074389D01*
X0178893Y0076029D02*
X0152221Y0076029D01*
X0153820Y0077627D02*
X0178457Y0077627D01*
X0178585Y0079226D02*
X0155418Y0079226D01*
X0157017Y0080824D02*
X0179332Y0080824D01*
X0181259Y0082423D02*
X0158615Y0082423D01*
X0160214Y0084021D02*
X0179642Y0084021D01*
X0178412Y0085620D02*
X0161812Y0085620D01*
X0163411Y0087218D02*
X0177850Y0087218D01*
X0177850Y0088817D02*
X0165009Y0088817D01*
X0166608Y0090415D02*
X0178385Y0090415D01*
X0179577Y0092014D02*
X0168206Y0092014D01*
X0169805Y0093612D02*
X0180051Y0093612D01*
X0178581Y0095211D02*
X0171403Y0095211D01*
X0173002Y0096809D02*
X0177919Y0096809D01*
X0177850Y0098408D02*
X0174600Y0098408D01*
X0176199Y0100006D02*
X0178215Y0100006D01*
X0177649Y0101605D02*
X0179168Y0101605D01*
X0178000Y0103203D02*
X0180840Y0103203D01*
X0178861Y0104802D02*
X0178000Y0104802D01*
X0178000Y0106400D02*
X0178088Y0106400D01*
X0191660Y0103203D02*
X0218900Y0103203D01*
X0218900Y0101605D02*
X0193332Y0101605D01*
X0194285Y0100006D02*
X0218900Y0100006D01*
X0218900Y0098408D02*
X0194650Y0098408D01*
X0194581Y0096809D02*
X0218900Y0096809D01*
X0218320Y0095211D02*
X0193919Y0095211D01*
X0192449Y0093612D02*
X0216721Y0093612D01*
X0215122Y0092014D02*
X0192923Y0092014D01*
X0194115Y0090415D02*
X0213524Y0090415D01*
X0211925Y0088817D02*
X0194650Y0088817D01*
X0194650Y0087218D02*
X0210327Y0087218D01*
X0208728Y0085620D02*
X0194088Y0085620D01*
X0192858Y0084021D02*
X0207130Y0084021D01*
X0205531Y0082423D02*
X0191241Y0082423D01*
X0193168Y0080824D02*
X0203933Y0080824D01*
X0202334Y0079226D02*
X0193915Y0079226D01*
X0194050Y0077850D02*
X0186450Y0077850D01*
X0186450Y0073250D01*
X0189628Y0073250D01*
X0190374Y0073368D01*
X0191093Y0073602D01*
X0191766Y0073945D01*
X0192377Y0074389D01*
X0192911Y0074923D01*
X0193355Y0075534D01*
X0193698Y0076207D01*
X0193932Y0076926D01*
X0194050Y0077672D01*
X0194050Y0077850D01*
X0194043Y0077627D02*
X0200736Y0077627D01*
X0199137Y0076029D02*
X0193607Y0076029D01*
X0192418Y0074430D02*
X0197539Y0074430D01*
X0192743Y0069634D02*
X0126100Y0069634D01*
X0126100Y0068036D02*
X0191145Y0068036D01*
X0189546Y0066437D02*
X0126100Y0066437D01*
X0126100Y0064839D02*
X0187948Y0064839D01*
X0186349Y0063240D02*
X0171430Y0063240D01*
X0171127Y0063543D02*
X0169138Y0064367D01*
X0166985Y0064367D01*
X0164995Y0063543D01*
X0163473Y0062021D01*
X0162649Y0060032D01*
X0162649Y0057879D01*
X0163473Y0055890D01*
X0164995Y0054368D01*
X0166985Y0053544D01*
X0169138Y0053544D01*
X0171127Y0054368D01*
X0172649Y0055890D01*
X0173473Y0057879D01*
X0173473Y0060032D01*
X0172649Y0062021D01*
X0171127Y0063543D01*
X0172806Y0061642D02*
X0184751Y0061642D01*
X0183152Y0060043D02*
X0173468Y0060043D01*
X0173473Y0058445D02*
X0181785Y0058445D01*
X0181400Y0056846D02*
X0173045Y0056846D01*
X0172007Y0055248D02*
X0181400Y0055248D01*
X0181400Y0053649D02*
X0169393Y0053649D01*
X0170358Y0052051D02*
X0181400Y0052051D01*
X0181400Y0050452D02*
X0172407Y0050452D01*
X0173211Y0048854D02*
X0180713Y0048854D01*
X0179114Y0047255D02*
X0173473Y0047255D01*
X0173303Y0045657D02*
X0177516Y0045657D01*
X0175917Y0044058D02*
X0172628Y0044058D01*
X0163494Y0044058D02*
X0161662Y0044058D01*
X0161662Y0045657D02*
X0162820Y0045657D01*
X0162649Y0047255D02*
X0161662Y0047255D01*
X0161662Y0048854D02*
X0162911Y0048854D01*
X0163715Y0050452D02*
X0161662Y0050452D01*
X0160761Y0052051D02*
X0165764Y0052051D01*
X0166729Y0053649D02*
X0157582Y0053649D01*
X0157326Y0053544D02*
X0159316Y0054368D01*
X0160838Y0055890D01*
X0161662Y0057879D01*
X0161662Y0060032D01*
X0160838Y0062021D01*
X0159316Y0063543D01*
X0157326Y0064367D01*
X0155174Y0064367D01*
X0153184Y0063543D01*
X0151662Y0062021D01*
X0150838Y0060032D01*
X0150838Y0057879D01*
X0151662Y0055890D01*
X0153184Y0054368D01*
X0155174Y0053544D01*
X0157326Y0053544D01*
X0154918Y0053649D02*
X0126100Y0053649D01*
X0126100Y0052051D02*
X0151739Y0052051D01*
X0150838Y0050452D02*
X0126100Y0050452D01*
X0126100Y0048854D02*
X0150838Y0048854D01*
X0150838Y0047255D02*
X0126100Y0047255D01*
X0126100Y0045657D02*
X0150838Y0045657D01*
X0150838Y0044058D02*
X0126100Y0044058D01*
X0126100Y0055248D02*
X0152304Y0055248D01*
X0151266Y0056846D02*
X0126100Y0056846D01*
X0126100Y0058445D02*
X0150838Y0058445D01*
X0150843Y0060043D02*
X0126100Y0060043D01*
X0126100Y0061642D02*
X0151505Y0061642D01*
X0152881Y0063240D02*
X0126100Y0063240D01*
X0159619Y0063240D02*
X0164693Y0063240D01*
X0163316Y0061642D02*
X0160995Y0061642D01*
X0161657Y0060043D02*
X0162654Y0060043D01*
X0162649Y0058445D02*
X0161662Y0058445D01*
X0161234Y0056846D02*
X0163077Y0056846D01*
X0164115Y0055248D02*
X0160196Y0055248D01*
X0186050Y0074430D02*
X0186450Y0074430D01*
X0186450Y0076029D02*
X0186050Y0076029D01*
X0186050Y0077627D02*
X0186450Y0077627D01*
X0212138Y0058445D02*
X0228652Y0058445D01*
X0227054Y0056846D02*
X0210539Y0056846D01*
X0208941Y0055248D02*
X0225455Y0055248D01*
X0223857Y0053649D02*
X0207342Y0053649D01*
X0207177Y0053484D02*
X0271293Y0117601D01*
X0271750Y0118703D01*
X0271750Y0136383D01*
X0272297Y0136930D01*
X0272934Y0138468D01*
X0272934Y0140132D01*
X0272297Y0141670D01*
X0271120Y0142847D01*
X0269582Y0143484D01*
X0267918Y0143484D01*
X0266380Y0142847D01*
X0265203Y0141670D01*
X0264566Y0140132D01*
X0264566Y0138468D01*
X0265203Y0136930D01*
X0265750Y0136383D01*
X0265750Y0120543D01*
X0260500Y0115293D01*
X0260500Y0136383D01*
X0261047Y0136930D01*
X0261684Y0138468D01*
X0261684Y0140132D01*
X0261047Y0141670D01*
X0259870Y0142847D01*
X0258332Y0143484D01*
X0256668Y0143484D01*
X0255130Y0142847D01*
X0253953Y0141670D01*
X0253316Y0140132D01*
X0253316Y0138468D01*
X0253953Y0136930D01*
X0254500Y0136383D01*
X0254500Y0116793D01*
X0244250Y0106543D01*
X0244250Y0136383D01*
X0244797Y0136930D01*
X0245434Y0138468D01*
X0245434Y0140132D01*
X0244797Y0141670D01*
X0243620Y0142847D01*
X0242082Y0143484D01*
X0240418Y0143484D01*
X0238880Y0142847D01*
X0237703Y0141670D01*
X0237066Y0140132D01*
X0237066Y0138468D01*
X0237703Y0136930D01*
X0238250Y0136383D01*
X0238250Y0108043D01*
X0226100Y0095893D01*
X0226100Y0115016D01*
X0225552Y0116339D01*
X0225245Y0116646D01*
X0225900Y0118226D01*
X0225900Y0120374D01*
X0225078Y0122359D01*
X0223559Y0123878D01*
X0221707Y0124645D01*
X0222343Y0124852D01*
X0223016Y0125195D01*
X0223627Y0125639D01*
X0224161Y0126173D01*
X0224605Y0126784D01*
X0224948Y0127457D01*
X0225182Y0128176D01*
X0225300Y0128922D01*
X0225300Y0129100D01*
X0217700Y0129100D01*
X0217700Y0129500D01*
X0225300Y0129500D01*
X0225300Y0129678D01*
X0225182Y0130424D01*
X0224948Y0131143D01*
X0224605Y0131816D01*
X0224161Y0132427D01*
X0223627Y0132961D01*
X0223016Y0133405D01*
X0222343Y0133748D01*
X0221707Y0133955D01*
X0223559Y0134722D01*
X0225078Y0136241D01*
X0225900Y0138226D01*
X0225900Y0140374D01*
X0225078Y0142359D01*
X0223559Y0143878D01*
X0222540Y0144300D01*
X0223559Y0144722D01*
X0225078Y0146241D01*
X0225900Y0148226D01*
X0225900Y0150374D01*
X0225078Y0152359D01*
X0223559Y0153878D01*
X0222540Y0154300D01*
X0223559Y0154722D01*
X0225078Y0156241D01*
X0225900Y0158226D01*
X0225900Y0160374D01*
X0225078Y0162359D01*
X0223559Y0163878D01*
X0221574Y0164700D01*
X0213426Y0164700D01*
X0211441Y0163878D01*
X0209922Y0162359D01*
X0209100Y0160374D01*
X0209100Y0158226D01*
X0209922Y0156241D01*
X0211441Y0154722D01*
X0212460Y0154300D01*
X0211441Y0153878D01*
X0210513Y0152950D01*
X0199143Y0152950D01*
X0237543Y0191351D01*
X0238000Y0192453D01*
X0238000Y0194749D01*
X0238032Y0194762D01*
X0239538Y0196268D01*
X0240353Y0198235D01*
X0240353Y0200365D01*
X0239538Y0202332D01*
X0238032Y0203838D01*
X0236916Y0204300D01*
X0238032Y0204762D01*
X0239538Y0206268D01*
X0240353Y0208235D01*
X0240353Y0210365D01*
X0239538Y0212332D01*
X0238647Y0213223D01*
X0241054Y0212842D01*
X0248120Y0210546D01*
X0254740Y0207173D01*
X0260751Y0202805D01*
X0266005Y0197551D01*
X0270373Y0191540D01*
X0273746Y0184920D01*
X0276042Y0177854D01*
X0277204Y0170515D01*
X0277350Y0166800D01*
X0277350Y0051800D01*
X0277204Y0048085D01*
X0276042Y0040746D01*
X0273746Y0033680D01*
X0270373Y0027060D01*
X0266005Y0021049D01*
X0260751Y0015795D01*
X0254740Y0011427D01*
X0248120Y0008054D01*
X0241054Y0005758D01*
X0237374Y0005175D01*
X0237491Y0005235D01*
X0238096Y0005675D01*
X0238625Y0006204D01*
X0239065Y0006809D01*
X0239405Y0007476D01*
X0239636Y0008187D01*
X0239753Y0008926D01*
X0239753Y0009116D01*
X0235184Y0009116D01*
X0235184Y0009484D01*
X0234816Y0009484D01*
X0234816Y0009116D01*
X0230247Y0009116D01*
X0230247Y0008926D01*
X0230364Y0008187D01*
X0230595Y0007476D01*
X0230935Y0006809D01*
X0231375Y0006204D01*
X0231904Y0005675D01*
X0232509Y0005235D01*
X0233176Y0004895D01*
X0233887Y0004664D01*
X0234017Y0004644D01*
X0233715Y0004596D01*
X0230000Y0004450D01*
X0217278Y0004450D01*
X0218032Y0004762D01*
X0219538Y0006268D01*
X0220353Y0008235D01*
X0220353Y0008260D01*
X0220364Y0008187D01*
X0220595Y0007476D01*
X0220935Y0006809D01*
X0221375Y0006204D01*
X0221904Y0005675D01*
X0222509Y0005235D01*
X0223176Y0004895D01*
X0223887Y0004664D01*
X0224626Y0004547D01*
X0224816Y0004547D01*
X0224816Y0009116D01*
X0225184Y0009116D01*
X0225184Y0004547D01*
X0225374Y0004547D01*
X0226113Y0004664D01*
X0226824Y0004895D01*
X0227491Y0005235D01*
X0228096Y0005675D01*
X0228625Y0006204D01*
X0229065Y0006809D01*
X0229405Y0007476D01*
X0229636Y0008187D01*
X0229753Y0008926D01*
X0229753Y0009116D01*
X0225184Y0009116D01*
X0225184Y0009484D01*
X0224816Y0009484D01*
X0224816Y0014053D01*
X0224626Y0014053D01*
X0223887Y0013936D01*
X0223176Y0013705D01*
X0223000Y0013615D01*
X0223000Y0014985D01*
X0223176Y0014895D01*
X0223887Y0014664D01*
X0224626Y0014547D01*
X0224816Y0014547D01*
X0224816Y0019116D01*
X0225184Y0019116D01*
X0225184Y0014547D01*
X0225374Y0014547D01*
X0226113Y0014664D01*
X0226824Y0014895D01*
X0227491Y0015235D01*
X0228096Y0015675D01*
X0228625Y0016204D01*
X0229065Y0016809D01*
X0229405Y0017476D01*
X0229636Y0018187D01*
X0229753Y0018926D01*
X0229753Y0019116D01*
X0225184Y0019116D01*
X0225184Y0019484D01*
X0229753Y0019484D01*
X0229753Y0019674D01*
X0229636Y0020413D01*
X0229405Y0021124D01*
X0229315Y0021300D01*
X0230685Y0021300D01*
X0230595Y0021124D01*
X0230364Y0020413D01*
X0230247Y0019674D01*
X0230247Y0019484D01*
X0234816Y0019484D01*
X0234816Y0019116D01*
X0235184Y0019116D01*
X0235184Y0014547D01*
X0235374Y0014547D01*
X0236113Y0014664D01*
X0236824Y0014895D01*
X0237491Y0015235D01*
X0238096Y0015675D01*
X0238625Y0016204D01*
X0239065Y0016809D01*
X0239405Y0017476D01*
X0239636Y0018187D01*
X0239753Y0018926D01*
X0239753Y0019116D01*
X0235184Y0019116D01*
X0235184Y0019484D01*
X0239753Y0019484D01*
X0239753Y0019674D01*
X0239636Y0020413D01*
X0239405Y0021124D01*
X0239065Y0021791D01*
X0238625Y0022396D01*
X0238096Y0022925D01*
X0237491Y0023365D01*
X0237204Y0023511D01*
X0252558Y0038866D01*
X0253332Y0038866D01*
X0254870Y0039503D01*
X0256047Y0040680D01*
X0256684Y0042218D01*
X0256684Y0043882D01*
X0256047Y0045420D01*
X0254870Y0046597D01*
X0253332Y0047234D01*
X0251668Y0047234D01*
X0250130Y0046597D01*
X0249375Y0045842D01*
X0248620Y0046597D01*
X0247082Y0047234D01*
X0245418Y0047234D01*
X0243880Y0046597D01*
X0243125Y0045842D01*
X0242370Y0046597D01*
X0240832Y0047234D01*
X0239168Y0047234D01*
X0237630Y0046597D01*
X0236875Y0045842D01*
X0236120Y0046597D01*
X0234582Y0047234D01*
X0233427Y0047234D01*
X0246699Y0060507D01*
X0247543Y0061351D01*
X0248000Y0062453D01*
X0248000Y0077633D01*
X0248547Y0078180D01*
X0249184Y0079718D01*
X0249184Y0081382D01*
X0248547Y0082920D01*
X0247370Y0084097D01*
X0245832Y0084734D01*
X0244168Y0084734D01*
X0242630Y0084097D01*
X0241453Y0082920D01*
X0240816Y0081382D01*
X0240816Y0079718D01*
X0241453Y0078180D01*
X0242000Y0077633D01*
X0242000Y0064293D01*
X0241657Y0063949D01*
X0241047Y0065420D01*
X0239870Y0066597D01*
X0238332Y0067234D01*
X0236668Y0067234D01*
X0235130Y0066597D01*
X0233953Y0065420D01*
X0233316Y0063882D01*
X0233316Y0063108D01*
X0222507Y0052300D01*
X0210417Y0052300D01*
X0209870Y0052847D01*
X0208332Y0053484D01*
X0207177Y0053484D01*
X0213736Y0060043D02*
X0230251Y0060043D01*
X0231849Y0061642D02*
X0215335Y0061642D01*
X0216933Y0063240D02*
X0233316Y0063240D01*
X0233712Y0064839D02*
X0218532Y0064839D01*
X0220130Y0066437D02*
X0234970Y0066437D01*
X0240030Y0066437D02*
X0242000Y0066437D01*
X0242000Y0064839D02*
X0241288Y0064839D01*
X0242000Y0068036D02*
X0221729Y0068036D01*
X0223327Y0069634D02*
X0242000Y0069634D01*
X0242000Y0071233D02*
X0224926Y0071233D01*
X0226524Y0072832D02*
X0242000Y0072832D01*
X0242000Y0074430D02*
X0228123Y0074430D01*
X0229721Y0076029D02*
X0242000Y0076029D01*
X0242000Y0077627D02*
X0231320Y0077627D01*
X0232918Y0079226D02*
X0241020Y0079226D01*
X0240816Y0080824D02*
X0234517Y0080824D01*
X0236115Y0082423D02*
X0241247Y0082423D01*
X0242554Y0084021D02*
X0237714Y0084021D01*
X0239312Y0085620D02*
X0264682Y0085620D01*
X0265080Y0085454D02*
X0266155Y0085454D01*
X0267147Y0085865D01*
X0267753Y0086471D01*
X0268358Y0085865D01*
X0269351Y0085454D01*
X0270425Y0085454D01*
X0271417Y0085865D01*
X0272485Y0086933D01*
X0273244Y0087693D01*
X0273655Y0088685D01*
X0273655Y0091894D01*
X0273490Y0092294D01*
X0273244Y0092887D01*
X0272177Y0093954D01*
X0271417Y0094714D01*
X0270998Y0094887D01*
X0270425Y0095125D01*
X0268283Y0095125D01*
X0267753Y0094905D01*
X0267222Y0095125D01*
X0265080Y0095125D01*
X0264491Y0094881D01*
X0264088Y0094714D01*
X0264060Y0094686D01*
X0263329Y0093954D01*
X0262289Y0092915D01*
X0262261Y0092887D01*
X0262261Y0092887D01*
X0262025Y0092317D01*
X0261850Y0091894D01*
X0261850Y0088685D01*
X0262261Y0087693D01*
X0263021Y0086933D01*
X0264088Y0085865D01*
X0265080Y0085454D01*
X0266553Y0085620D02*
X0268952Y0085620D01*
X0270824Y0085620D02*
X0277350Y0085620D01*
X0277350Y0087218D02*
X0272770Y0087218D01*
X0273655Y0088817D02*
X0277350Y0088817D01*
X0277350Y0090415D02*
X0273655Y0090415D01*
X0273606Y0092014D02*
X0277350Y0092014D01*
X0277350Y0093612D02*
X0272519Y0093612D01*
X0272177Y0093954D02*
X0272177Y0093954D01*
X0277350Y0095211D02*
X0248903Y0095211D01*
X0250502Y0096809D02*
X0277350Y0096809D01*
X0277350Y0098408D02*
X0252100Y0098408D01*
X0253699Y0100006D02*
X0277350Y0100006D01*
X0277350Y0101605D02*
X0255297Y0101605D01*
X0256896Y0103203D02*
X0277350Y0103203D01*
X0277350Y0104802D02*
X0258494Y0104802D01*
X0260093Y0106400D02*
X0277350Y0106400D01*
X0277350Y0107999D02*
X0261691Y0107999D01*
X0263290Y0109597D02*
X0277350Y0109597D01*
X0277350Y0111196D02*
X0264888Y0111196D01*
X0266487Y0112794D02*
X0277350Y0112794D01*
X0277350Y0114393D02*
X0268085Y0114393D01*
X0269684Y0115991D02*
X0277350Y0115991D01*
X0277350Y0117590D02*
X0271282Y0117590D01*
X0271750Y0119188D02*
X0277350Y0119188D01*
X0277350Y0120787D02*
X0271750Y0120787D01*
X0271750Y0122385D02*
X0277350Y0122385D01*
X0277350Y0123984D02*
X0271750Y0123984D01*
X0271750Y0125582D02*
X0277350Y0125582D01*
X0277350Y0127181D02*
X0271750Y0127181D01*
X0271750Y0128779D02*
X0277350Y0128779D01*
X0277350Y0130378D02*
X0271750Y0130378D01*
X0271750Y0131976D02*
X0277350Y0131976D01*
X0277350Y0133575D02*
X0271750Y0133575D01*
X0271750Y0135173D02*
X0277350Y0135173D01*
X0277350Y0136772D02*
X0272139Y0136772D01*
X0272894Y0138370D02*
X0277350Y0138370D01*
X0277350Y0139969D02*
X0272934Y0139969D01*
X0272340Y0141568D02*
X0277350Y0141568D01*
X0277350Y0143166D02*
X0270351Y0143166D01*
X0267149Y0143166D02*
X0259101Y0143166D01*
X0261090Y0141568D02*
X0265160Y0141568D01*
X0264566Y0139969D02*
X0261684Y0139969D01*
X0261644Y0138370D02*
X0264606Y0138370D01*
X0265361Y0136772D02*
X0260889Y0136772D01*
X0260500Y0135173D02*
X0265750Y0135173D01*
X0265750Y0133575D02*
X0260500Y0133575D01*
X0260500Y0131976D02*
X0265750Y0131976D01*
X0265750Y0130378D02*
X0260500Y0130378D01*
X0260500Y0128779D02*
X0265750Y0128779D01*
X0265750Y0127181D02*
X0260500Y0127181D01*
X0260500Y0125582D02*
X0265750Y0125582D01*
X0265750Y0123984D02*
X0260500Y0123984D01*
X0260500Y0122385D02*
X0265750Y0122385D01*
X0265750Y0120787D02*
X0260500Y0120787D01*
X0260500Y0119188D02*
X0264396Y0119188D01*
X0262797Y0117590D02*
X0260500Y0117590D01*
X0260500Y0115991D02*
X0261199Y0115991D01*
X0254500Y0117590D02*
X0244250Y0117590D01*
X0244250Y0119188D02*
X0254500Y0119188D01*
X0254500Y0120787D02*
X0244250Y0120787D01*
X0244250Y0122385D02*
X0254500Y0122385D01*
X0254500Y0123984D02*
X0244250Y0123984D01*
X0244250Y0125582D02*
X0254500Y0125582D01*
X0254500Y0127181D02*
X0244250Y0127181D01*
X0244250Y0128779D02*
X0254500Y0128779D01*
X0254500Y0130378D02*
X0244250Y0130378D01*
X0244250Y0131976D02*
X0254500Y0131976D01*
X0254500Y0133575D02*
X0244250Y0133575D01*
X0244250Y0135173D02*
X0254500Y0135173D01*
X0254111Y0136772D02*
X0244639Y0136772D01*
X0245394Y0138370D02*
X0253356Y0138370D01*
X0253316Y0139969D02*
X0245434Y0139969D01*
X0244840Y0141568D02*
X0253910Y0141568D01*
X0255899Y0143166D02*
X0242851Y0143166D01*
X0239649Y0143166D02*
X0224271Y0143166D01*
X0223601Y0144765D02*
X0277350Y0144765D01*
X0277350Y0146363D02*
X0225128Y0146363D01*
X0225791Y0147962D02*
X0277350Y0147962D01*
X0277350Y0149560D02*
X0225900Y0149560D01*
X0225575Y0151159D02*
X0277350Y0151159D01*
X0277350Y0152757D02*
X0224680Y0152757D01*
X0222674Y0154356D02*
X0277350Y0154356D01*
X0277350Y0155954D02*
X0224791Y0155954D01*
X0225621Y0157553D02*
X0277350Y0157553D01*
X0277350Y0159151D02*
X0225900Y0159151D01*
X0225744Y0160750D02*
X0277350Y0160750D01*
X0277350Y0162348D02*
X0262523Y0162348D01*
X0262858Y0162683D01*
X0263095Y0163093D01*
X0263217Y0163551D01*
X0263217Y0166596D01*
X0258610Y0166596D01*
X0258610Y0167004D01*
X0263217Y0167004D01*
X0263217Y0170049D01*
X0263095Y0170507D01*
X0262858Y0170917D01*
X0262523Y0171252D01*
X0262112Y0171489D01*
X0261654Y0171612D01*
X0258609Y0171612D01*
X0258609Y0167004D01*
X0258202Y0167004D01*
X0258202Y0171612D01*
X0255157Y0171612D01*
X0254699Y0171489D01*
X0254288Y0171252D01*
X0253953Y0170917D01*
X0253716Y0170507D01*
X0253594Y0170049D01*
X0253594Y0167004D01*
X0258201Y0167004D01*
X0258201Y0166596D01*
X0253594Y0166596D01*
X0253594Y0163551D01*
X0253716Y0163093D01*
X0253953Y0162683D01*
X0254288Y0162348D01*
X0249796Y0162348D01*
X0249660Y0162212D02*
X0251182Y0163734D01*
X0252006Y0165724D01*
X0252006Y0167876D01*
X0251182Y0169866D01*
X0249660Y0171388D01*
X0247671Y0172212D01*
X0245518Y0172212D01*
X0243529Y0171388D01*
X0242007Y0169866D01*
X0241183Y0167876D01*
X0241183Y0165724D01*
X0242007Y0163734D01*
X0243529Y0162212D01*
X0245518Y0161388D01*
X0247671Y0161388D01*
X0249660Y0162212D01*
X0251270Y0163947D02*
X0253594Y0163947D01*
X0253594Y0165545D02*
X0251932Y0165545D01*
X0252006Y0167144D02*
X0253594Y0167144D01*
X0253594Y0168742D02*
X0251648Y0168742D01*
X0250707Y0170341D02*
X0253672Y0170341D01*
X0258202Y0170341D02*
X0258609Y0170341D01*
X0258609Y0168742D02*
X0258202Y0168742D01*
X0258202Y0167144D02*
X0258609Y0167144D01*
X0258609Y0166596D02*
X0258609Y0161988D01*
X0261654Y0161988D01*
X0262112Y0162111D01*
X0262523Y0162348D01*
X0263217Y0163947D02*
X0277350Y0163947D01*
X0277350Y0165545D02*
X0263217Y0165545D01*
X0263217Y0167144D02*
X0277336Y0167144D01*
X0277274Y0168742D02*
X0263217Y0168742D01*
X0263139Y0170341D02*
X0277211Y0170341D01*
X0276978Y0171939D02*
X0248329Y0171939D01*
X0247671Y0173199D02*
X0245518Y0173199D01*
X0243529Y0174023D01*
X0242007Y0175545D01*
X0241183Y0177535D01*
X0241183Y0179687D01*
X0242007Y0181677D01*
X0243529Y0183199D01*
X0245518Y0184023D01*
X0247671Y0184023D01*
X0249660Y0183199D01*
X0251182Y0181677D01*
X0252006Y0179687D01*
X0252006Y0177535D01*
X0251182Y0175545D01*
X0249660Y0174023D01*
X0247671Y0173199D01*
X0248488Y0173538D02*
X0256512Y0173538D01*
X0257329Y0173199D02*
X0259482Y0173199D01*
X0261471Y0174023D01*
X0262993Y0175545D01*
X0263817Y0177535D01*
X0263817Y0179687D01*
X0262993Y0181677D01*
X0261471Y0183199D01*
X0259482Y0184023D01*
X0257329Y0184023D01*
X0255340Y0183199D01*
X0253818Y0181677D01*
X0252994Y0179687D01*
X0252994Y0177535D01*
X0253818Y0175545D01*
X0255340Y0174023D01*
X0257329Y0173199D01*
X0260299Y0173538D02*
X0276725Y0173538D01*
X0276472Y0175136D02*
X0262584Y0175136D01*
X0263486Y0176735D02*
X0276219Y0176735D01*
X0275886Y0178333D02*
X0263817Y0178333D01*
X0263716Y0179932D02*
X0275366Y0179932D01*
X0274847Y0181530D02*
X0263054Y0181530D01*
X0261541Y0183129D02*
X0274328Y0183129D01*
X0273808Y0184727D02*
X0230920Y0184727D01*
X0229321Y0183129D02*
X0243459Y0183129D01*
X0241946Y0181530D02*
X0227723Y0181530D01*
X0226124Y0179932D02*
X0241284Y0179932D01*
X0241183Y0178333D02*
X0224526Y0178333D01*
X0222927Y0176735D02*
X0241514Y0176735D01*
X0242416Y0175136D02*
X0221329Y0175136D01*
X0219730Y0173538D02*
X0244701Y0173538D01*
X0244860Y0171939D02*
X0218132Y0171939D01*
X0216533Y0170341D02*
X0242482Y0170341D01*
X0241541Y0168742D02*
X0214935Y0168742D01*
X0213336Y0167144D02*
X0241183Y0167144D01*
X0241257Y0165545D02*
X0211738Y0165545D01*
X0211607Y0163947D02*
X0210139Y0163947D01*
X0209918Y0162348D02*
X0208541Y0162348D01*
X0209256Y0160750D02*
X0206942Y0160750D01*
X0205344Y0159151D02*
X0209100Y0159151D01*
X0209379Y0157553D02*
X0203745Y0157553D01*
X0202147Y0155954D02*
X0210209Y0155954D01*
X0212326Y0154356D02*
X0200548Y0154356D01*
X0192521Y0141568D02*
X0209594Y0141568D01*
X0209100Y0139969D02*
X0193659Y0139969D01*
X0194050Y0138370D02*
X0209100Y0138370D01*
X0209702Y0136772D02*
X0193882Y0136772D01*
X0193093Y0135173D02*
X0210990Y0135173D01*
X0212317Y0133575D02*
X0191010Y0133575D01*
X0192960Y0131976D02*
X0210511Y0131976D01*
X0209811Y0130378D02*
X0194131Y0130378D01*
X0194650Y0128779D02*
X0209723Y0128779D01*
X0210193Y0127181D02*
X0194650Y0127181D01*
X0194073Y0125582D02*
X0211451Y0125582D01*
X0211697Y0123984D02*
X0192821Y0123984D01*
X0192551Y0122385D02*
X0209949Y0122385D01*
X0209271Y0120787D02*
X0193961Y0120787D01*
X0194623Y0119188D02*
X0209100Y0119188D01*
X0209363Y0117590D02*
X0194650Y0117590D01*
X0194242Y0115991D02*
X0210172Y0115991D01*
X0212236Y0114393D02*
X0193230Y0114393D01*
X0191907Y0112794D02*
X0218900Y0112794D01*
X0218900Y0111196D02*
X0193741Y0111196D01*
X0194454Y0109597D02*
X0218900Y0109597D01*
X0218900Y0107999D02*
X0194650Y0107999D01*
X0194412Y0106400D02*
X0218900Y0106400D01*
X0218900Y0104802D02*
X0193638Y0104802D01*
X0223303Y0123984D02*
X0238250Y0123984D01*
X0238250Y0125582D02*
X0223549Y0125582D01*
X0224807Y0127181D02*
X0238250Y0127181D01*
X0238250Y0128779D02*
X0225277Y0128779D01*
X0225189Y0130378D02*
X0238250Y0130378D01*
X0238250Y0131976D02*
X0224489Y0131976D01*
X0222683Y0133575D02*
X0238250Y0133575D01*
X0238250Y0135173D02*
X0224010Y0135173D01*
X0225298Y0136772D02*
X0237861Y0136772D01*
X0237106Y0138370D02*
X0225900Y0138370D01*
X0225900Y0139969D02*
X0237066Y0139969D01*
X0237660Y0141568D02*
X0225406Y0141568D01*
X0225051Y0122385D02*
X0238250Y0122385D01*
X0238250Y0120787D02*
X0225729Y0120787D01*
X0225900Y0119188D02*
X0238250Y0119188D01*
X0238250Y0117590D02*
X0225637Y0117590D01*
X0225696Y0115991D02*
X0238250Y0115991D01*
X0238250Y0114393D02*
X0226100Y0114393D01*
X0226100Y0112794D02*
X0238250Y0112794D01*
X0238250Y0111196D02*
X0226100Y0111196D01*
X0226100Y0109597D02*
X0238250Y0109597D01*
X0238206Y0107999D02*
X0226100Y0107999D01*
X0226100Y0106400D02*
X0236608Y0106400D01*
X0235009Y0104802D02*
X0226100Y0104802D01*
X0226100Y0103203D02*
X0233411Y0103203D01*
X0231812Y0101605D02*
X0226100Y0101605D01*
X0226100Y0100006D02*
X0230214Y0100006D01*
X0228615Y0098408D02*
X0226100Y0098408D01*
X0226100Y0096809D02*
X0227017Y0096809D01*
X0240911Y0087218D02*
X0262736Y0087218D01*
X0263021Y0086933D02*
X0263021Y0086933D01*
X0261850Y0088817D02*
X0242509Y0088817D01*
X0244108Y0090415D02*
X0261850Y0090415D01*
X0261899Y0092014D02*
X0245706Y0092014D01*
X0247305Y0093612D02*
X0262987Y0093612D01*
X0263329Y0093954D02*
X0263329Y0093954D01*
X0264088Y0094714D02*
X0264088Y0094714D01*
X0265080Y0082234D02*
X0264491Y0081990D01*
X0264088Y0081823D01*
X0264060Y0081795D01*
X0263329Y0081063D01*
X0262289Y0080024D01*
X0262261Y0079996D01*
X0262261Y0079996D01*
X0262025Y0079426D01*
X0261850Y0079003D01*
X0261850Y0075794D01*
X0262261Y0074802D01*
X0263586Y0073476D01*
X0263021Y0073242D01*
X0262261Y0072483D01*
X0261850Y0071490D01*
X0261850Y0070416D01*
X0262261Y0069424D01*
X0262887Y0068798D01*
X0262261Y0068172D01*
X0261850Y0067180D01*
X0261850Y0066106D01*
X0262261Y0065113D01*
X0262867Y0064508D01*
X0262261Y0063902D01*
X0261850Y0062910D01*
X0261850Y0061835D01*
X0262075Y0061292D01*
X0261850Y0060748D01*
X0261850Y0057538D01*
X0262261Y0056546D01*
X0263021Y0055787D01*
X0264013Y0055375D01*
X0265087Y0055375D01*
X0266079Y0055787D01*
X0266685Y0056392D01*
X0267291Y0055787D01*
X0268283Y0055375D01*
X0269357Y0055375D01*
X0270350Y0055787D01*
X0271006Y0056443D01*
X0272560Y0056443D01*
X0273552Y0056854D01*
X0274312Y0057614D01*
X0274723Y0058606D01*
X0274723Y0059680D01*
X0274312Y0060672D01*
X0273552Y0061432D01*
X0273498Y0061455D01*
X0273655Y0061835D01*
X0273655Y0066112D01*
X0273490Y0066512D01*
X0273244Y0067105D01*
X0273152Y0067197D01*
X0273244Y0067289D01*
X0273655Y0068281D01*
X0273655Y0069355D01*
X0273244Y0070347D01*
X0272639Y0070953D01*
X0273244Y0071559D01*
X0273655Y0072551D01*
X0273655Y0073625D01*
X0273244Y0074618D01*
X0273152Y0074710D01*
X0273244Y0074802D01*
X0273655Y0075794D01*
X0273655Y0079003D01*
X0273480Y0079426D01*
X0273244Y0079996D01*
X0273216Y0080024D01*
X0271417Y0081823D01*
X0270425Y0082234D01*
X0269351Y0082234D01*
X0268358Y0081823D01*
X0268287Y0081751D01*
X0268215Y0081823D01*
X0267222Y0082234D01*
X0265080Y0082234D01*
X0264088Y0081823D02*
X0264088Y0081823D01*
X0263329Y0081063D02*
X0263329Y0081063D01*
X0263090Y0080824D02*
X0249184Y0080824D01*
X0248980Y0079226D02*
X0261942Y0079226D01*
X0261850Y0077627D02*
X0248000Y0077627D01*
X0248000Y0076029D02*
X0261850Y0076029D01*
X0262633Y0074430D02*
X0248000Y0074430D01*
X0248000Y0072832D02*
X0262610Y0072832D01*
X0261850Y0071233D02*
X0248000Y0071233D01*
X0248000Y0069634D02*
X0262174Y0069634D01*
X0262205Y0068036D02*
X0248000Y0068036D01*
X0248000Y0066437D02*
X0261850Y0066437D01*
X0262535Y0064839D02*
X0248000Y0064839D01*
X0248000Y0063240D02*
X0261987Y0063240D01*
X0261930Y0061642D02*
X0247664Y0061642D01*
X0246236Y0060043D02*
X0261850Y0060043D01*
X0261850Y0058445D02*
X0244638Y0058445D01*
X0243039Y0056846D02*
X0262137Y0056846D01*
X0273534Y0056846D02*
X0277350Y0056846D01*
X0277350Y0055248D02*
X0241441Y0055248D01*
X0239842Y0053649D02*
X0277350Y0053649D01*
X0277350Y0052051D02*
X0238244Y0052051D01*
X0236645Y0050452D02*
X0277297Y0050452D01*
X0277234Y0048854D02*
X0235046Y0048854D01*
X0233448Y0047255D02*
X0277073Y0047255D01*
X0276819Y0045657D02*
X0255811Y0045657D01*
X0256611Y0044058D02*
X0276566Y0044058D01*
X0276313Y0042460D02*
X0256684Y0042460D01*
X0256122Y0040861D02*
X0276060Y0040861D01*
X0275560Y0039263D02*
X0254291Y0039263D01*
X0251357Y0037664D02*
X0275040Y0037664D01*
X0274521Y0036066D02*
X0249758Y0036066D01*
X0248160Y0034467D02*
X0274002Y0034467D01*
X0273332Y0032869D02*
X0246561Y0032869D01*
X0244963Y0031270D02*
X0272518Y0031270D01*
X0271703Y0029672D02*
X0243364Y0029672D01*
X0241766Y0028073D02*
X0270889Y0028073D01*
X0269948Y0026475D02*
X0240167Y0026475D01*
X0238569Y0024876D02*
X0268786Y0024876D01*
X0267625Y0023278D02*
X0237611Y0023278D01*
X0239122Y0021679D02*
X0266463Y0021679D01*
X0265037Y0020081D02*
X0239688Y0020081D01*
X0239682Y0018482D02*
X0263439Y0018482D01*
X0261840Y0016884D02*
X0239103Y0016884D01*
X0237560Y0015285D02*
X0260050Y0015285D01*
X0257850Y0013687D02*
X0236860Y0013687D01*
X0236824Y0013705D02*
X0236113Y0013936D01*
X0235374Y0014053D01*
X0235184Y0014053D01*
X0235184Y0009484D01*
X0239753Y0009484D01*
X0239753Y0009674D01*
X0239636Y0010413D01*
X0239405Y0011124D01*
X0239065Y0011791D01*
X0238625Y0012396D01*
X0238096Y0012925D01*
X0237491Y0013365D01*
X0236824Y0013705D01*
X0235184Y0013687D02*
X0234816Y0013687D01*
X0234816Y0014053D02*
X0234626Y0014053D01*
X0233887Y0013936D01*
X0233176Y0013705D01*
X0232509Y0013365D01*
X0231904Y0012925D01*
X0231375Y0012396D01*
X0230935Y0011791D01*
X0230595Y0011124D01*
X0230364Y0010413D01*
X0230247Y0009674D01*
X0230247Y0009484D01*
X0234816Y0009484D01*
X0234816Y0014053D01*
X0234816Y0014547D02*
X0234816Y0019116D01*
X0230247Y0019116D01*
X0230247Y0018926D01*
X0230364Y0018187D01*
X0230595Y0017476D01*
X0230935Y0016809D01*
X0231375Y0016204D01*
X0231904Y0015675D01*
X0232509Y0015235D01*
X0233176Y0014895D01*
X0233887Y0014664D01*
X0234626Y0014547D01*
X0234816Y0014547D01*
X0234816Y0015285D02*
X0235184Y0015285D01*
X0235184Y0016884D02*
X0234816Y0016884D01*
X0234816Y0018482D02*
X0235184Y0018482D01*
X0232440Y0015285D02*
X0227560Y0015285D01*
X0226824Y0013705D02*
X0226113Y0013936D01*
X0225374Y0014053D01*
X0225184Y0014053D01*
X0225184Y0009484D01*
X0229753Y0009484D01*
X0229753Y0009674D01*
X0229636Y0010413D01*
X0229405Y0011124D01*
X0229065Y0011791D01*
X0228625Y0012396D01*
X0228096Y0012925D01*
X0227491Y0013365D01*
X0226824Y0013705D01*
X0226860Y0013687D02*
X0233140Y0013687D01*
X0234816Y0012088D02*
X0235184Y0012088D01*
X0235184Y0010490D02*
X0234816Y0010490D01*
X0231151Y0012088D02*
X0228849Y0012088D01*
X0229611Y0010490D02*
X0230389Y0010490D01*
X0230253Y0008891D02*
X0229747Y0008891D01*
X0229311Y0007293D02*
X0230689Y0007293D01*
X0231885Y0005694D02*
X0228115Y0005694D01*
X0225184Y0005694D02*
X0224816Y0005694D01*
X0224816Y0007293D02*
X0225184Y0007293D01*
X0225184Y0008891D02*
X0224816Y0008891D01*
X0224816Y0010490D02*
X0225184Y0010490D01*
X0225184Y0012088D02*
X0224816Y0012088D01*
X0224816Y0013687D02*
X0225184Y0013687D01*
X0225184Y0015285D02*
X0224816Y0015285D01*
X0224816Y0016884D02*
X0225184Y0016884D01*
X0225184Y0018482D02*
X0224816Y0018482D01*
X0229103Y0016884D02*
X0230897Y0016884D01*
X0230318Y0018482D02*
X0229682Y0018482D01*
X0229688Y0020081D02*
X0230312Y0020081D01*
X0223140Y0013687D02*
X0223000Y0013687D01*
X0220689Y0007293D02*
X0219962Y0007293D01*
X0218964Y0005694D02*
X0221885Y0005694D01*
X0238115Y0005694D02*
X0240648Y0005694D01*
X0239311Y0007293D02*
X0245776Y0007293D01*
X0249762Y0008891D02*
X0239747Y0008891D01*
X0239611Y0010490D02*
X0252900Y0010490D01*
X0255650Y0012088D02*
X0238849Y0012088D01*
X0176126Y0023932D02*
X0176113Y0023936D01*
X0175374Y0024053D01*
X0175184Y0024053D01*
X0175184Y0019484D01*
X0174816Y0019484D01*
X0174816Y0024053D01*
X0174626Y0024053D01*
X0173887Y0023936D01*
X0173176Y0023705D01*
X0172509Y0023365D01*
X0171904Y0022925D01*
X0171375Y0022396D01*
X0170935Y0021791D01*
X0170595Y0021124D01*
X0170364Y0020413D01*
X0170353Y0020340D01*
X0170353Y0020365D01*
X0169538Y0022332D01*
X0168032Y0023838D01*
X0166065Y0024653D01*
X0163935Y0024653D01*
X0161968Y0023838D01*
X0160462Y0022332D01*
X0160000Y0021216D01*
X0159538Y0022332D01*
X0158032Y0023838D01*
X0156065Y0024653D01*
X0153935Y0024653D01*
X0151968Y0023838D01*
X0150462Y0022332D01*
X0150000Y0021216D01*
X0149538Y0022332D01*
X0148032Y0023838D01*
X0146065Y0024653D01*
X0143935Y0024653D01*
X0141968Y0023838D01*
X0140462Y0022332D01*
X0140000Y0021216D01*
X0139538Y0022332D01*
X0138032Y0023838D01*
X0136065Y0024653D01*
X0133935Y0024653D01*
X0131968Y0023838D01*
X0130462Y0022332D01*
X0130000Y0021216D01*
X0129538Y0022332D01*
X0128032Y0023838D01*
X0126065Y0024653D01*
X0125845Y0024653D01*
X0128743Y0027550D01*
X0132507Y0027550D01*
X0133707Y0026351D01*
X0134551Y0025507D01*
X0135653Y0025050D01*
X0175007Y0025050D01*
X0176126Y0023932D01*
X0175184Y0023278D02*
X0174816Y0023278D01*
X0174816Y0021679D02*
X0175184Y0021679D01*
X0175184Y0020081D02*
X0174816Y0020081D01*
X0172389Y0023278D02*
X0168592Y0023278D01*
X0169808Y0021679D02*
X0170878Y0021679D01*
X0175181Y0024876D02*
X0126069Y0024876D01*
X0127667Y0026475D02*
X0133583Y0026475D01*
X0131408Y0023278D02*
X0128592Y0023278D01*
X0129808Y0021679D02*
X0130192Y0021679D01*
X0138592Y0023278D02*
X0141408Y0023278D01*
X0140192Y0021679D02*
X0139808Y0021679D01*
X0148592Y0023278D02*
X0151408Y0023278D01*
X0150192Y0021679D02*
X0149808Y0021679D01*
X0158592Y0023278D02*
X0161408Y0023278D01*
X0160192Y0021679D02*
X0159808Y0021679D01*
X0247446Y0084021D02*
X0277350Y0084021D01*
X0277350Y0082423D02*
X0248753Y0082423D01*
X0272416Y0080824D02*
X0277350Y0080824D01*
X0277350Y0079226D02*
X0273563Y0079226D01*
X0273244Y0079996D02*
X0273244Y0079996D01*
X0273655Y0077627D02*
X0277350Y0077627D01*
X0277350Y0076029D02*
X0273655Y0076029D01*
X0273322Y0074430D02*
X0277350Y0074430D01*
X0277350Y0072832D02*
X0273655Y0072832D01*
X0272919Y0071233D02*
X0277350Y0071233D01*
X0277350Y0069634D02*
X0273540Y0069634D01*
X0273554Y0068036D02*
X0277350Y0068036D01*
X0277350Y0066437D02*
X0273521Y0066437D01*
X0273655Y0064839D02*
X0277350Y0064839D01*
X0277350Y0063240D02*
X0273655Y0063240D01*
X0273575Y0061642D02*
X0277350Y0061642D01*
X0277350Y0060043D02*
X0274573Y0060043D01*
X0274656Y0058445D02*
X0277350Y0058445D01*
X0245706Y0107999D02*
X0244250Y0107999D01*
X0244250Y0109597D02*
X0247305Y0109597D01*
X0248903Y0111196D02*
X0244250Y0111196D01*
X0244250Y0112794D02*
X0250502Y0112794D01*
X0252100Y0114393D02*
X0244250Y0114393D01*
X0244250Y0115991D02*
X0253699Y0115991D01*
X0255157Y0161988D02*
X0258202Y0161988D01*
X0258202Y0166596D01*
X0258609Y0166596D01*
X0258609Y0165545D02*
X0258202Y0165545D01*
X0258202Y0163947D02*
X0258609Y0163947D01*
X0258609Y0162348D02*
X0258202Y0162348D01*
X0255157Y0161988D02*
X0254699Y0162111D01*
X0254288Y0162348D01*
X0243393Y0162348D02*
X0225082Y0162348D01*
X0223393Y0163947D02*
X0241919Y0163947D01*
X0250773Y0175136D02*
X0254227Y0175136D01*
X0253325Y0176735D02*
X0251675Y0176735D01*
X0252006Y0178333D02*
X0252994Y0178333D01*
X0253095Y0179932D02*
X0251905Y0179932D01*
X0251243Y0181530D02*
X0253757Y0181530D01*
X0255270Y0183129D02*
X0249730Y0183129D01*
X0237314Y0191121D02*
X0270586Y0191121D01*
X0271400Y0189523D02*
X0235715Y0189523D01*
X0234117Y0187924D02*
X0272215Y0187924D01*
X0273029Y0186326D02*
X0232518Y0186326D01*
X0238000Y0192720D02*
X0269516Y0192720D01*
X0268354Y0194318D02*
X0238000Y0194318D01*
X0239187Y0195917D02*
X0267193Y0195917D01*
X0266031Y0197515D02*
X0240055Y0197515D01*
X0240353Y0199114D02*
X0264443Y0199114D01*
X0262844Y0200712D02*
X0240209Y0200712D01*
X0239547Y0202311D02*
X0261246Y0202311D01*
X0259232Y0203909D02*
X0237859Y0203909D01*
X0238778Y0205508D02*
X0257031Y0205508D01*
X0254831Y0207106D02*
X0239885Y0207106D01*
X0240353Y0208705D02*
X0251733Y0208705D01*
X0248595Y0210303D02*
X0240353Y0210303D01*
X0239716Y0211902D02*
X0243946Y0211902D01*
X0197000Y0186326D02*
X0153065Y0186326D01*
X0154664Y0184727D02*
X0196185Y0184727D01*
X0194586Y0183129D02*
X0157613Y0183129D01*
X0158048Y0181530D02*
X0192988Y0181530D01*
X0191389Y0179932D02*
X0158048Y0179932D01*
X0158048Y0178333D02*
X0189791Y0178333D01*
X0188192Y0176735D02*
X0158048Y0176735D01*
X0157278Y0175136D02*
X0186594Y0175136D01*
X0186961Y0194318D02*
X0193039Y0194318D01*
X0190813Y0195917D02*
X0189187Y0195917D01*
X0183039Y0194318D02*
X0176961Y0194318D01*
X0179187Y0195917D02*
X0180813Y0195917D01*
X0173039Y0194318D02*
X0166961Y0194318D01*
X0169187Y0195917D02*
X0170813Y0195917D01*
X0163039Y0194318D02*
X0156961Y0194318D01*
X0159187Y0195917D02*
X0160813Y0195917D01*
X0153039Y0194318D02*
X0146961Y0194318D01*
X0149187Y0195917D02*
X0150813Y0195917D01*
X0143039Y0194318D02*
X0136961Y0194318D01*
X0139187Y0195917D02*
X0140813Y0195917D01*
X0133039Y0194318D02*
X0126961Y0194318D01*
X0129187Y0195917D02*
X0130813Y0195917D01*
X0123039Y0194318D02*
X0116961Y0194318D01*
X0119187Y0195917D02*
X0120813Y0195917D01*
X0145374Y0178333D02*
X0145374Y0178333D01*
X0145374Y0176735D02*
X0145374Y0176735D01*
X0145374Y0175136D02*
X0145374Y0175136D01*
X0145933Y0175136D02*
X0149218Y0175136D01*
X0144815Y0175136D02*
X0139991Y0175136D01*
X0141633Y0176735D02*
X0142046Y0176735D01*
X0135009Y0175136D02*
X0132117Y0175136D01*
X0127135Y0175136D02*
X0124243Y0175136D01*
X0178000Y0146614D02*
X0178672Y0144991D01*
X0180191Y0143472D01*
X0182043Y0142705D01*
X0181407Y0142498D01*
X0180734Y0142155D01*
X0180123Y0141711D01*
X0179589Y0141177D01*
X0179145Y0140566D01*
X0178802Y0139893D01*
X0178568Y0139174D01*
X0178450Y0138428D01*
X0178450Y0138250D01*
X0186050Y0138250D01*
X0186050Y0137850D01*
X0178450Y0137850D01*
X0178450Y0137672D01*
X0178568Y0136926D01*
X0178802Y0136207D01*
X0179145Y0135534D01*
X0179589Y0134923D01*
X0180123Y0134389D01*
X0180734Y0133945D01*
X0181407Y0133602D01*
X0182043Y0133395D01*
X0180191Y0132628D01*
X0178672Y0131109D01*
X0178000Y0129486D01*
X0178000Y0146614D01*
X0178000Y0146363D02*
X0178104Y0146363D01*
X0178000Y0144765D02*
X0178899Y0144765D01*
X0178000Y0143166D02*
X0180930Y0143166D01*
X0179979Y0141568D02*
X0178000Y0141568D01*
X0178000Y0139969D02*
X0178841Y0139969D01*
X0178450Y0138370D02*
X0178000Y0138370D01*
X0178000Y0136772D02*
X0178618Y0136772D01*
X0178000Y0135173D02*
X0179407Y0135173D01*
X0178000Y0133575D02*
X0181490Y0133575D01*
X0179540Y0131976D02*
X0178000Y0131976D01*
X0178000Y0130378D02*
X0178369Y0130378D01*
X0095593Y0112794D02*
X0056907Y0112794D01*
X0058230Y0114393D02*
X0094270Y0114393D01*
X0093759Y0111196D02*
X0058741Y0111196D01*
X0059454Y0109597D02*
X0093046Y0109597D01*
X0092850Y0107999D02*
X0059650Y0107999D01*
X0059412Y0106400D02*
X0093088Y0106400D01*
X0093861Y0104802D02*
X0058638Y0104802D01*
D19*
X0051250Y0108050D02*
X0051250Y0098050D01*
X0043750Y0098050D01*
X0040000Y0094300D01*
X0040000Y0030550D01*
X0120000Y0030550D01*
X0122500Y0033050D01*
X0122500Y0039300D01*
X0176250Y0039300D01*
X0185000Y0048050D01*
X0185000Y0056800D01*
X0222500Y0094300D01*
X0222500Y0114300D01*
X0217500Y0119300D01*
X0158750Y0175550D02*
X0157500Y0174300D01*
X0141250Y0174300D01*
X0096624Y0174300D01*
X0045374Y0174300D01*
X0045374Y0172548D01*
X0028750Y0155924D01*
X0028750Y0104300D01*
X0021624Y0097174D01*
X0020000Y0097174D01*
X0016624Y0097174D01*
X0011250Y0091800D01*
X0011250Y0036800D01*
X0012126Y0037676D01*
X0020000Y0037676D01*
X0011250Y0036800D02*
X0011250Y0028050D01*
X0008750Y0025550D01*
X0008750Y0015550D01*
X0015000Y0009300D01*
X0025000Y0019300D02*
X0035000Y0029300D01*
X0035000Y0153050D01*
X0042500Y0160550D01*
X0033750Y0168050D02*
X0033002Y0168050D01*
X0020000Y0155048D01*
X0019498Y0155048D01*
X0015000Y0150550D01*
X0015000Y0107548D01*
X0017500Y0105048D01*
X0020000Y0105048D01*
X0020000Y0147174D02*
X0028750Y0155924D01*
X0020000Y0155048D02*
X0020000Y0165550D01*
X0010000Y0175550D01*
X0010000Y0180550D01*
X0013750Y0184300D01*
X0053750Y0184300D01*
X0048750Y0179300D01*
X0048248Y0179300D01*
X0045374Y0174300D02*
X0040374Y0179300D01*
X0053750Y0184300D02*
X0104498Y0184300D01*
X0099498Y0179300D01*
X0096624Y0174300D02*
X0091624Y0179300D01*
X0104498Y0184300D02*
X0150000Y0184300D01*
X0153248Y0181052D01*
X0153248Y0179300D01*
X0158750Y0183050D02*
X0158750Y0175550D01*
X0158750Y0183050D02*
X0153750Y0188050D01*
X0022500Y0188050D01*
X0015000Y0195550D01*
X0015000Y0199300D01*
X0015000Y0209300D01*
X0141250Y0174300D02*
X0145374Y0178424D01*
X0145374Y0179300D01*
X0136250Y0108050D02*
X0136250Y0098050D01*
X0131250Y0098050D01*
X0122500Y0089300D01*
X0122500Y0039300D01*
X0040000Y0030550D02*
X0040000Y0024300D01*
X0035000Y0019300D01*
D20*
X0068750Y0024300D02*
X0121250Y0024300D01*
X0127500Y0030550D01*
X0133750Y0030550D01*
X0136250Y0028050D01*
X0176250Y0028050D01*
X0185000Y0019300D01*
X0190000Y0014300D02*
X0190000Y0055550D01*
X0241250Y0106800D01*
X0241250Y0139300D01*
X0257500Y0139300D02*
X0257500Y0115550D01*
X0195000Y0053050D01*
X0195000Y0019300D01*
X0190000Y0014300D02*
X0185000Y0009300D01*
X0175000Y0019300D02*
X0168750Y0025550D01*
X0131250Y0025550D01*
X0200000Y0025550D02*
X0200000Y0050550D01*
X0268750Y0119300D01*
X0268750Y0139300D01*
X0205000Y0185550D02*
X0187500Y0168050D01*
X0172500Y0168050D01*
X0160000Y0155550D01*
X0068750Y0155550D01*
X0065000Y0153050D01*
X0063750Y0158050D02*
X0058750Y0153050D01*
X0063750Y0158050D02*
X0158750Y0158050D01*
X0171250Y0170550D01*
X0186250Y0170550D01*
X0200000Y0184300D01*
X0200000Y0204300D01*
X0205000Y0209300D01*
X0210000Y0204300D02*
X0210000Y0186800D01*
X0188750Y0165550D01*
X0173750Y0165550D01*
X0156250Y0148050D01*
X0136250Y0148050D01*
X0110483Y0148050D01*
X0106075Y0152457D01*
X0096425Y0152457D01*
X0092017Y0148050D01*
X0051250Y0148050D01*
X0051250Y0138050D02*
X0092017Y0138050D01*
X0096425Y0142457D01*
X0106075Y0142457D01*
X0110483Y0138050D01*
X0136250Y0138050D01*
X0150000Y0138050D01*
X0175000Y0163050D01*
X0190000Y0163050D01*
X0215000Y0188050D01*
X0215000Y0199300D01*
X0210000Y0204300D02*
X0215000Y0209300D01*
X0220000Y0204300D02*
X0220000Y0189300D01*
X0191250Y0160550D01*
X0176250Y0160550D01*
X0143750Y0128050D01*
X0136250Y0128050D01*
X0110483Y0128050D01*
X0106075Y0132457D01*
X0096425Y0132457D01*
X0092017Y0128050D01*
X0051250Y0128050D01*
X0051250Y0118050D02*
X0092017Y0118050D01*
X0096425Y0122457D01*
X0106075Y0122457D01*
X0110483Y0118050D01*
X0136250Y0118050D01*
X0137500Y0119300D01*
X0138750Y0119300D01*
X0177500Y0158050D01*
X0192500Y0158050D01*
X0225000Y0190550D01*
X0225000Y0199300D01*
X0220000Y0204300D02*
X0225000Y0209300D01*
X0230000Y0204300D02*
X0230000Y0191800D01*
X0193750Y0155550D01*
X0178750Y0155550D01*
X0172500Y0149300D01*
X0172500Y0105550D01*
X0155000Y0088050D01*
X0136250Y0088050D01*
X0136250Y0078050D02*
X0150000Y0078050D01*
X0175000Y0103050D01*
X0175000Y0148050D01*
X0180000Y0153050D01*
X0195000Y0153050D01*
X0235000Y0193050D01*
X0235000Y0199300D01*
X0230000Y0204300D02*
X0235000Y0209300D01*
X0205000Y0199300D02*
X0205000Y0185550D01*
X0245000Y0080550D02*
X0245000Y0063050D01*
X0225000Y0043050D01*
X0207500Y0043050D01*
X0207500Y0036800D02*
X0227500Y0036800D01*
X0233750Y0043050D01*
X0240000Y0043050D02*
X0227500Y0030550D01*
X0207500Y0030550D01*
X0200000Y0025550D02*
X0205000Y0020550D01*
X0205000Y0019300D01*
X0210000Y0024300D02*
X0217500Y0024300D01*
X0221250Y0028050D01*
X0231250Y0028050D01*
X0246250Y0043050D01*
X0252500Y0043050D02*
X0233750Y0024300D01*
X0222500Y0024300D01*
X0220000Y0021800D01*
X0220000Y0013050D01*
X0216250Y0009300D01*
X0215000Y0009300D01*
X0207500Y0049300D02*
X0223750Y0049300D01*
X0237500Y0063050D01*
D21*
X0237500Y0063050D03*
X0245000Y0080550D03*
X0207500Y0049300D03*
X0207500Y0043050D03*
X0207500Y0036800D03*
X0207500Y0030550D03*
X0210000Y0024300D03*
X0233750Y0043050D03*
X0240000Y0043050D03*
X0246250Y0043050D03*
X0252500Y0043050D03*
X0131250Y0025550D03*
X0068750Y0024300D03*
X0241250Y0139300D03*
X0257500Y0139300D03*
X0268750Y0139300D03*
X0065000Y0153050D03*
X0058750Y0153050D03*
X0042500Y0160550D03*
X0033750Y0168050D03*
D22*
X0186250Y0148050D02*
X0216250Y0148050D01*
X0217500Y0149300D01*
X0231250Y0143050D02*
X0246250Y0158050D01*
X0253750Y0158050D01*
X0258750Y0163050D01*
X0258750Y0166456D01*
X0258406Y0166800D01*
X0231250Y0143050D02*
X0231250Y0135550D01*
X0225000Y0129300D01*
X0217500Y0129300D01*
X0208750Y0129300D01*
X0200000Y0138050D01*
X0186250Y0138050D01*
M02*
