%
M48
M72
T01C0.01969
T02C0.03200
T03C0.03937
T04C0.04000
T05C0.04016
%
T01
X68750Y24300
X131250Y25550
X207500Y30550
X207500Y36800
X207500Y43050
X207500Y49300
X233750Y43050
X240000Y43050
X246250Y43050
X252500Y43050
X237500Y63050
X245000Y80550
X241250Y139300
X257500Y139300
X268750Y139300
X210000Y24300
X65000Y153050
X58750Y153050
X42500Y160550
X33750Y168050
T02
X32500Y179300
X40374Y179300
X48248Y179300
X68002Y179300
X75876Y179300
X83750Y179300
X91624Y179300
X99498Y179300
X121752Y179300
X129626Y179300
X137500Y179300
X145374Y179300
X153248Y179300
X24626Y179300
X16752Y179300
X20000Y155048
X20000Y147174
X20000Y139300
X20000Y131426
X20000Y123552
X20000Y105048
X20000Y97174
X20000Y89300
X20000Y81426
X20000Y73552
X20000Y53424
X20000Y45550
X20000Y37676
T03
X15000Y9300
X15000Y19300
X25000Y19300
X35000Y19300
X45000Y19300
X55000Y19300
X65000Y19300
X65000Y9300
X55000Y9300
X45000Y9300
X35000Y9300
X25000Y9300
X75000Y9300
X85000Y9300
X95000Y9300
X105000Y9300
X115000Y9300
X115000Y19300
X105000Y19300
X95000Y19300
X85000Y19300
X75000Y19300
X125000Y19300
X135000Y19300
X145000Y19300
X155000Y19300
X165000Y19300
X165000Y9300
X155000Y9300
X145000Y9300
X135000Y9300
X125000Y9300
X175000Y9300
X185000Y9300
X195000Y9300
X205000Y9300
X215000Y9300
X215000Y19300
X205000Y19300
X195000Y19300
X185000Y19300
X175000Y19300
X225000Y19300
X235000Y19300
X235000Y9300
X225000Y9300
X225000Y199300
X235000Y199300
X235000Y209300
X225000Y209300
X215000Y209300
X205000Y209300
X195000Y209300
X185000Y209300
X175000Y209300
X165000Y209300
X155000Y209300
X145000Y209300
X135000Y209300
X125000Y209300
X115000Y209300
X105000Y209300
X95000Y209300
X85000Y209300
X75000Y209300
X65000Y209300
X55000Y209300
X45000Y209300
X35000Y209300
X25000Y209300
X15000Y209300
X15000Y199300
X25000Y199300
X35000Y199300
X45000Y199300
X55000Y199300
X65000Y199300
X75000Y199300
X85000Y199300
X95000Y199300
X105000Y199300
X115000Y199300
X125000Y199300
X135000Y199300
X145000Y199300
X155000Y199300
X165000Y199300
X175000Y199300
X185000Y199300
X195000Y199300
X205000Y199300
X215000Y199300
T04
X217500Y159300
X217500Y149300
X217500Y139300
X217500Y129300
X217500Y119300
X186250Y118050
X186250Y128050
X186250Y138050
X186250Y148050
X136250Y148050
X136250Y138050
X136250Y128050
X136250Y118050
X136250Y108050
X136250Y98050
X136250Y88050
X136250Y78050
X101250Y78050
X101250Y88050
X101250Y98050
X101250Y108050
X101250Y118050
X101250Y128050
X101250Y138050
X101250Y148050
X51250Y148050
X51250Y138050
X51250Y128050
X51250Y118050
X51250Y108050
X51250Y98050
X51250Y88050
X51250Y78050
X186250Y78050
X186250Y88050
X186250Y98050
X186250Y108050
T05
X168061Y58956
X156250Y58956
X156250Y47144
X168061Y47144
X83061Y47144
X71250Y47144
X71250Y58956
X83061Y58956
X246594Y166800
X258406Y166800
X258406Y178611
X246594Y178611
M30
