G75*
%MOIN*%
%OFA0B0*%
%FSLAX25Y25*%
%IPPOS*%
%LPD*%
%AMOC8*
5,1,8,0,0,1.08239X$1,22.5*
%
%ADD10C,0.00600*%
%ADD11R,0.03937X0.09646*%
%ADD12R,0.09646X0.03937*%
%ADD13R,0.06299X0.10236*%
%ADD14R,0.06024X0.06024*%
%ADD15C,0.06024*%
%ADD16C,0.06000*%
%ADD17R,0.03937X0.04331*%
%ADD18R,0.03150X0.03150*%
%ADD19R,0.05906X0.05906*%
%ADD20C,0.05906*%
%ADD21R,0.04331X0.03937*%
%ADD22R,0.05906X0.05118*%
%ADD23R,0.04800X0.04800*%
%ADD24C,0.04800*%
%ADD25C,0.02400*%
%ADD26C,0.01600*%
%ADD27C,0.04000*%
%ADD28C,0.03569*%
%ADD29C,0.01200*%
%ADD30C,0.05000*%
D10*
X0186550Y0177100D02*
X0189753Y0177100D01*
X0190820Y0178168D01*
X0190820Y0179235D01*
X0189753Y0180303D01*
X0186550Y0180303D01*
X0186550Y0183505D02*
X0189753Y0183505D01*
X0190820Y0182438D01*
X0190820Y0181370D01*
X0189753Y0180303D01*
X0186550Y0177100D02*
X0186550Y0183505D01*
X0192995Y0183505D02*
X0195131Y0183505D01*
X0194063Y0183505D02*
X0194063Y0177100D01*
X0192995Y0177100D02*
X0195131Y0177100D01*
X0197292Y0178168D02*
X0198360Y0177100D01*
X0200495Y0177100D01*
X0201563Y0178168D01*
X0201563Y0182438D01*
X0200495Y0183505D01*
X0198360Y0183505D01*
X0197292Y0182438D01*
X0197292Y0178168D01*
X0203738Y0177100D02*
X0203738Y0183505D01*
X0208008Y0177100D01*
X0208008Y0183505D01*
X0210183Y0183505D02*
X0212319Y0183505D01*
X0211251Y0183505D02*
X0211251Y0177100D01*
X0210183Y0177100D02*
X0212319Y0177100D01*
X0214480Y0177100D02*
X0214480Y0183505D01*
X0215548Y0180303D02*
X0218751Y0177100D01*
X0214480Y0179235D02*
X0218751Y0183505D01*
D11*
X0228504Y0104497D03*
X0234016Y0104497D03*
X0239528Y0104497D03*
X0245039Y0104497D03*
X0250551Y0104497D03*
X0256063Y0104497D03*
X0261575Y0104497D03*
X0267087Y0104497D03*
X0267087Y0054103D03*
X0261575Y0054103D03*
X0256063Y0054103D03*
X0250551Y0054103D03*
X0245039Y0054103D03*
X0239528Y0054103D03*
X0234016Y0054103D03*
X0228504Y0054103D03*
D12*
X0219469Y0060009D03*
X0219469Y0065520D03*
X0219469Y0071032D03*
X0219469Y0076544D03*
X0219469Y0082056D03*
X0219469Y0087568D03*
X0219469Y0093080D03*
X0219469Y0098591D03*
D13*
X0131250Y0053887D03*
X0131250Y0039713D03*
X0110000Y0039713D03*
X0110000Y0053887D03*
D14*
X0071250Y0047144D03*
X0156250Y0047144D03*
X0258406Y0166800D03*
D15*
X0246594Y0166800D03*
X0246594Y0178611D03*
X0258406Y0178611D03*
X0168061Y0058956D03*
X0156250Y0058956D03*
X0168061Y0047144D03*
X0083061Y0047144D03*
X0083061Y0058956D03*
X0071250Y0058956D03*
D16*
X0054250Y0078050D02*
X0048250Y0078050D01*
X0048250Y0088050D02*
X0054250Y0088050D01*
X0054250Y0098050D02*
X0048250Y0098050D01*
X0048250Y0108050D02*
X0054250Y0108050D01*
X0054250Y0118050D02*
X0048250Y0118050D01*
X0048250Y0128050D02*
X0054250Y0128050D01*
X0054250Y0138050D02*
X0048250Y0138050D01*
X0048250Y0148050D02*
X0054250Y0148050D01*
X0098250Y0148050D02*
X0104250Y0148050D01*
X0104250Y0138050D02*
X0098250Y0138050D01*
X0098250Y0128050D02*
X0104250Y0128050D01*
X0104250Y0118050D02*
X0098250Y0118050D01*
X0098250Y0108050D02*
X0104250Y0108050D01*
X0104250Y0098050D02*
X0098250Y0098050D01*
X0098250Y0088050D02*
X0104250Y0088050D01*
X0104250Y0078050D02*
X0098250Y0078050D01*
X0133250Y0078050D02*
X0139250Y0078050D01*
X0139250Y0088050D02*
X0133250Y0088050D01*
X0133250Y0098050D02*
X0139250Y0098050D01*
X0139250Y0108050D02*
X0133250Y0108050D01*
X0133250Y0118050D02*
X0139250Y0118050D01*
X0139250Y0128050D02*
X0133250Y0128050D01*
X0133250Y0138050D02*
X0139250Y0138050D01*
X0139250Y0148050D02*
X0133250Y0148050D01*
X0183250Y0148050D02*
X0189250Y0148050D01*
X0189250Y0138050D02*
X0183250Y0138050D01*
X0183250Y0128050D02*
X0189250Y0128050D01*
X0189250Y0118050D02*
X0183250Y0118050D01*
X0183250Y0108050D02*
X0189250Y0108050D01*
X0189250Y0098050D02*
X0183250Y0098050D01*
X0183250Y0088050D02*
X0189250Y0088050D01*
X0189250Y0078050D02*
X0183250Y0078050D01*
X0214500Y0119300D02*
X0220500Y0119300D01*
X0220500Y0129300D02*
X0214500Y0129300D01*
X0214500Y0139300D02*
X0220500Y0139300D01*
X0220500Y0149300D02*
X0214500Y0149300D01*
X0214500Y0159300D02*
X0220500Y0159300D01*
D17*
X0246654Y0036800D03*
X0253346Y0036800D03*
X0253346Y0030550D03*
X0246654Y0030550D03*
X0246654Y0024300D03*
X0253346Y0024300D03*
D18*
X0262047Y0031800D03*
X0267953Y0031800D03*
X0267953Y0039300D03*
X0262047Y0039300D03*
D19*
X0015000Y0009300D03*
X0015000Y0199300D03*
D20*
X0025000Y0199300D03*
X0035000Y0199300D03*
X0045000Y0199300D03*
X0055000Y0199300D03*
X0065000Y0199300D03*
X0075000Y0199300D03*
X0085000Y0199300D03*
X0095000Y0199300D03*
X0105000Y0199300D03*
X0115000Y0199300D03*
X0125000Y0199300D03*
X0135000Y0199300D03*
X0145000Y0199300D03*
X0155000Y0199300D03*
X0165000Y0199300D03*
X0175000Y0199300D03*
X0185000Y0199300D03*
X0195000Y0199300D03*
X0205000Y0199300D03*
X0215000Y0199300D03*
X0225000Y0199300D03*
X0235000Y0199300D03*
X0235000Y0209300D03*
X0225000Y0209300D03*
X0215000Y0209300D03*
X0205000Y0209300D03*
X0195000Y0209300D03*
X0185000Y0209300D03*
X0175000Y0209300D03*
X0165000Y0209300D03*
X0155000Y0209300D03*
X0145000Y0209300D03*
X0135000Y0209300D03*
X0125000Y0209300D03*
X0115000Y0209300D03*
X0105000Y0209300D03*
X0095000Y0209300D03*
X0085000Y0209300D03*
X0075000Y0209300D03*
X0065000Y0209300D03*
X0055000Y0209300D03*
X0045000Y0209300D03*
X0035000Y0209300D03*
X0025000Y0209300D03*
X0015000Y0209300D03*
X0015000Y0019300D03*
X0025000Y0019300D03*
X0035000Y0019300D03*
X0045000Y0019300D03*
X0055000Y0019300D03*
X0065000Y0019300D03*
X0065000Y0009300D03*
X0055000Y0009300D03*
X0045000Y0009300D03*
X0035000Y0009300D03*
X0025000Y0009300D03*
X0075000Y0009300D03*
X0085000Y0009300D03*
X0095000Y0009300D03*
X0105000Y0009300D03*
X0115000Y0009300D03*
X0115000Y0019300D03*
X0105000Y0019300D03*
X0095000Y0019300D03*
X0085000Y0019300D03*
X0075000Y0019300D03*
X0125000Y0019300D03*
X0135000Y0019300D03*
X0145000Y0019300D03*
X0155000Y0019300D03*
X0165000Y0019300D03*
X0165000Y0009300D03*
X0155000Y0009300D03*
X0145000Y0009300D03*
X0135000Y0009300D03*
X0125000Y0009300D03*
X0175000Y0009300D03*
X0185000Y0009300D03*
X0195000Y0009300D03*
X0205000Y0009300D03*
X0215000Y0009300D03*
X0215000Y0019300D03*
X0205000Y0019300D03*
X0195000Y0019300D03*
X0185000Y0019300D03*
X0175000Y0019300D03*
X0225000Y0019300D03*
X0235000Y0019300D03*
X0235000Y0009300D03*
X0225000Y0009300D03*
D21*
X0246250Y0129704D03*
X0246250Y0136396D03*
X0246250Y0142204D03*
X0246250Y0148896D03*
X0262500Y0148896D03*
X0262500Y0142204D03*
X0262500Y0136396D03*
X0262500Y0129704D03*
X0275000Y0129704D03*
X0275000Y0136396D03*
X0275000Y0142204D03*
X0275000Y0148896D03*
D22*
X0123750Y0139290D03*
X0123750Y0131810D03*
X0038750Y0131810D03*
X0038750Y0139290D03*
D23*
X0020000Y0155048D03*
X0048248Y0179300D03*
X0099498Y0179300D03*
X0153248Y0179300D03*
X0020000Y0105048D03*
X0020000Y0053424D03*
D24*
X0020000Y0045550D03*
X0020000Y0037676D03*
X0020000Y0073552D03*
X0020000Y0081426D03*
X0020000Y0089300D03*
X0020000Y0097174D03*
X0020000Y0123552D03*
X0020000Y0131426D03*
X0020000Y0139300D03*
X0020000Y0147174D03*
X0016752Y0179300D03*
X0024626Y0179300D03*
X0032500Y0179300D03*
X0040374Y0179300D03*
X0068002Y0179300D03*
X0075876Y0179300D03*
X0083750Y0179300D03*
X0091624Y0179300D03*
X0121752Y0179300D03*
X0129626Y0179300D03*
X0137500Y0179300D03*
X0145374Y0179300D03*
D25*
X0143750Y0177676D01*
X0143750Y0163050D01*
X0042500Y0160550D02*
X0034343Y0168707D01*
X0034343Y0168643D01*
X0033750Y0168050D01*
X0225000Y0019300D02*
X0235000Y0019300D01*
X0235000Y0009300D01*
X0225000Y0009300D01*
D26*
X0007650Y0004450D02*
X0007650Y0079159D01*
X0015801Y0071009D01*
X0015870Y0070980D01*
X0015931Y0070833D01*
X0017281Y0069483D01*
X0019045Y0068752D01*
X0020955Y0068752D01*
X0022719Y0069483D01*
X0023960Y0070724D01*
X0046133Y0048550D01*
X0023788Y0048550D01*
X0023469Y0048869D01*
X0023759Y0048989D01*
X0024435Y0049665D01*
X0024800Y0050547D01*
X0024800Y0056301D01*
X0024435Y0057184D01*
X0023759Y0057859D01*
X0022877Y0058224D01*
X0017123Y0058224D01*
X0016241Y0057859D01*
X0015565Y0057184D01*
X0015334Y0056624D01*
X0014737Y0056624D01*
X0013561Y0056137D01*
X0011937Y0054513D01*
X0011037Y0053613D01*
X0010550Y0052437D01*
X0010550Y0032413D01*
X0011037Y0031237D01*
X0014787Y0027487D01*
X0015687Y0026587D01*
X0016863Y0026100D01*
X0023675Y0026100D01*
X0025122Y0024653D01*
X0023935Y0024653D01*
X0021968Y0023838D01*
X0020462Y0022332D01*
X0020000Y0021216D01*
X0019538Y0022332D01*
X0018032Y0023838D01*
X0016065Y0024653D01*
X0013935Y0024653D01*
X0011968Y0023838D01*
X0010462Y0022332D01*
X0009647Y0020365D01*
X0009647Y0018235D01*
X0010462Y0016268D01*
X0011968Y0014762D01*
X0013681Y0014053D01*
X0011810Y0014053D01*
X0011352Y0013930D01*
X0010942Y0013693D01*
X0010607Y0013358D01*
X0010370Y0012948D01*
X0010247Y0012490D01*
X0010247Y0009484D01*
X0014816Y0009484D01*
X0014816Y0009116D01*
X0015184Y0009116D01*
X0015184Y0004547D01*
X0018190Y0004547D01*
X0018648Y0004670D01*
X0019058Y0004907D01*
X0019393Y0005242D01*
X0019630Y0005652D01*
X0019753Y0006110D01*
X0019753Y0007981D01*
X0020462Y0006268D01*
X0021968Y0004762D01*
X0022722Y0004450D01*
X0007650Y0004450D01*
X0007650Y0005694D02*
X0010359Y0005694D01*
X0010370Y0005652D02*
X0010607Y0005242D01*
X0010942Y0004907D01*
X0011352Y0004670D01*
X0011810Y0004547D01*
X0014816Y0004547D01*
X0014816Y0009116D01*
X0010247Y0009116D01*
X0010247Y0006110D01*
X0010370Y0005652D01*
X0010247Y0007293D02*
X0007650Y0007293D01*
X0007650Y0008891D02*
X0010247Y0008891D01*
X0010247Y0010490D02*
X0007650Y0010490D01*
X0007650Y0012088D02*
X0010247Y0012088D01*
X0010936Y0013687D02*
X0007650Y0013687D01*
X0007650Y0015285D02*
X0011445Y0015285D01*
X0010207Y0016884D02*
X0007650Y0016884D01*
X0007650Y0018482D02*
X0009647Y0018482D01*
X0009647Y0020081D02*
X0007650Y0020081D01*
X0007650Y0021679D02*
X0010192Y0021679D01*
X0011408Y0023278D02*
X0007650Y0023278D01*
X0007650Y0024876D02*
X0024898Y0024876D01*
X0021408Y0023278D02*
X0018592Y0023278D01*
X0019808Y0021679D02*
X0020192Y0021679D01*
X0015959Y0026475D02*
X0007650Y0026475D01*
X0007650Y0028073D02*
X0014201Y0028073D01*
X0012603Y0029672D02*
X0007650Y0029672D01*
X0007650Y0031270D02*
X0011024Y0031270D01*
X0010550Y0032869D02*
X0007650Y0032869D01*
X0007650Y0034467D02*
X0010550Y0034467D01*
X0010550Y0036066D02*
X0007650Y0036066D01*
X0007650Y0037664D02*
X0010550Y0037664D01*
X0010550Y0039263D02*
X0007650Y0039263D01*
X0007650Y0040861D02*
X0010550Y0040861D01*
X0010550Y0042460D02*
X0007650Y0042460D01*
X0007650Y0044058D02*
X0010550Y0044058D01*
X0010550Y0045657D02*
X0007650Y0045657D01*
X0007650Y0047255D02*
X0010550Y0047255D01*
X0010550Y0048854D02*
X0007650Y0048854D01*
X0007650Y0050452D02*
X0010550Y0050452D01*
X0010550Y0052051D02*
X0007650Y0052051D01*
X0007650Y0053649D02*
X0011074Y0053649D01*
X0012672Y0055248D02*
X0007650Y0055248D01*
X0007650Y0056846D02*
X0015426Y0056846D01*
X0015374Y0053424D02*
X0013750Y0051800D01*
X0013750Y0033050D01*
X0017500Y0029300D01*
X0025000Y0029300D01*
X0035000Y0019300D01*
X0040000Y0021216D02*
X0039538Y0022332D01*
X0038032Y0023838D01*
X0036065Y0024653D01*
X0034173Y0024653D01*
X0026813Y0032013D01*
X0025637Y0032500D01*
X0018825Y0032500D01*
X0016950Y0034375D01*
X0016950Y0034786D01*
X0017264Y0034472D01*
X0017799Y0034084D01*
X0018388Y0033784D01*
X0019016Y0033579D01*
X0019669Y0033476D01*
X0020000Y0033476D01*
X0020331Y0033476D01*
X0020984Y0033579D01*
X0021612Y0033784D01*
X0022201Y0034084D01*
X0022736Y0034472D01*
X0023204Y0034940D01*
X0023592Y0035475D01*
X0023892Y0036064D01*
X0024097Y0036692D01*
X0024200Y0037345D01*
X0024200Y0037676D01*
X0024200Y0038007D01*
X0024097Y0038659D01*
X0023892Y0039288D01*
X0023592Y0039877D01*
X0023204Y0040412D01*
X0022736Y0040880D01*
X0022203Y0041267D01*
X0022719Y0041481D01*
X0023788Y0042550D01*
X0045007Y0042550D01*
X0062457Y0025101D01*
X0063206Y0024351D01*
X0061968Y0023838D01*
X0060462Y0022332D01*
X0060000Y0021216D01*
X0059538Y0022332D01*
X0058032Y0023838D01*
X0056065Y0024653D01*
X0053935Y0024653D01*
X0051968Y0023838D01*
X0050462Y0022332D01*
X0050000Y0021216D01*
X0049538Y0022332D01*
X0048032Y0023838D01*
X0046065Y0024653D01*
X0043935Y0024653D01*
X0041968Y0023838D01*
X0040462Y0022332D01*
X0040000Y0021216D01*
X0039808Y0021679D02*
X0040192Y0021679D01*
X0041408Y0023278D02*
X0038592Y0023278D01*
X0033949Y0024876D02*
X0062681Y0024876D01*
X0062457Y0025101D02*
X0062457Y0025101D01*
X0061083Y0026475D02*
X0032351Y0026475D01*
X0030752Y0028073D02*
X0059484Y0028073D01*
X0057886Y0029672D02*
X0029154Y0029672D01*
X0027555Y0031270D02*
X0056287Y0031270D01*
X0054689Y0032869D02*
X0018457Y0032869D01*
X0020000Y0033476D02*
X0020000Y0037676D01*
X0024200Y0037676D01*
X0020000Y0037676D01*
X0020000Y0037676D01*
X0020000Y0033476D01*
X0020000Y0034467D02*
X0020000Y0034467D01*
X0020000Y0036066D02*
X0020000Y0036066D01*
X0020000Y0037664D02*
X0020000Y0037664D01*
X0020000Y0037676D02*
X0020000Y0037676D01*
X0024200Y0037664D02*
X0049893Y0037664D01*
X0051492Y0036066D02*
X0023893Y0036066D01*
X0022729Y0034467D02*
X0053090Y0034467D01*
X0048295Y0039263D02*
X0023901Y0039263D01*
X0022754Y0040861D02*
X0046696Y0040861D01*
X0045098Y0042460D02*
X0023698Y0042460D01*
X0023484Y0048854D02*
X0045829Y0048854D01*
X0044231Y0050452D02*
X0024761Y0050452D01*
X0024800Y0052051D02*
X0042632Y0052051D01*
X0041034Y0053649D02*
X0024800Y0053649D01*
X0024800Y0055248D02*
X0039435Y0055248D01*
X0037837Y0056846D02*
X0024574Y0056846D01*
X0020000Y0053424D02*
X0015374Y0053424D01*
X0007650Y0058445D02*
X0036238Y0058445D01*
X0034640Y0060043D02*
X0007650Y0060043D01*
X0007650Y0061642D02*
X0033041Y0061642D01*
X0031443Y0063240D02*
X0007650Y0063240D01*
X0007650Y0064839D02*
X0029844Y0064839D01*
X0028246Y0066437D02*
X0007650Y0066437D01*
X0007650Y0068036D02*
X0026647Y0068036D01*
X0025049Y0069634D02*
X0022871Y0069634D01*
X0017129Y0069634D02*
X0007650Y0069634D01*
X0007650Y0071233D02*
X0015576Y0071233D01*
X0013978Y0072832D02*
X0007650Y0072832D01*
X0007650Y0074430D02*
X0012379Y0074430D01*
X0010781Y0076029D02*
X0007650Y0076029D01*
X0007650Y0077627D02*
X0009182Y0077627D01*
X0015500Y0090979D02*
X0015500Y0101446D01*
X0015565Y0101289D01*
X0016241Y0100613D01*
X0017123Y0100248D01*
X0017134Y0100248D01*
X0016796Y0099910D01*
X0016408Y0099375D01*
X0016108Y0098786D01*
X0015903Y0098158D01*
X0015800Y0097505D01*
X0015800Y0097174D01*
X0015800Y0096843D01*
X0015903Y0096191D01*
X0016108Y0095562D01*
X0016408Y0094973D01*
X0016796Y0094438D01*
X0017264Y0093970D01*
X0017797Y0093583D01*
X0017281Y0093369D01*
X0015931Y0092019D01*
X0015500Y0090979D01*
X0015500Y0092014D02*
X0015929Y0092014D01*
X0015500Y0093612D02*
X0017757Y0093612D01*
X0016287Y0095211D02*
X0015500Y0095211D01*
X0015500Y0096809D02*
X0015805Y0096809D01*
X0015800Y0097174D02*
X0020000Y0097174D01*
X0024200Y0097174D01*
X0024200Y0097505D01*
X0024097Y0098158D01*
X0023892Y0098786D01*
X0023592Y0099375D01*
X0023204Y0099910D01*
X0022866Y0100248D01*
X0022877Y0100248D01*
X0023759Y0100613D01*
X0024435Y0101289D01*
X0024500Y0101446D01*
X0024500Y0094293D01*
X0023148Y0092940D01*
X0022719Y0093369D01*
X0022203Y0093583D01*
X0022736Y0093970D01*
X0023204Y0094438D01*
X0023592Y0094973D01*
X0023892Y0095562D01*
X0024097Y0096191D01*
X0024200Y0096843D01*
X0024200Y0097174D01*
X0020000Y0097174D01*
X0020000Y0097174D01*
X0020000Y0097174D01*
X0015800Y0097174D01*
X0015985Y0098408D02*
X0015500Y0098408D01*
X0015500Y0100006D02*
X0016893Y0100006D01*
X0023107Y0100006D02*
X0024500Y0100006D01*
X0024500Y0098408D02*
X0024015Y0098408D01*
X0024195Y0096809D02*
X0024500Y0096809D01*
X0024500Y0095211D02*
X0023713Y0095211D01*
X0023820Y0093612D02*
X0022243Y0093612D01*
X0030500Y0093612D02*
X0045051Y0093612D01*
X0045191Y0093472D02*
X0046210Y0093050D01*
X0045191Y0092628D01*
X0043672Y0091109D01*
X0042850Y0089124D01*
X0042850Y0086976D01*
X0043672Y0084991D01*
X0045191Y0083472D01*
X0046210Y0083050D01*
X0045191Y0082628D01*
X0043672Y0081109D01*
X0042850Y0079124D01*
X0042850Y0076976D01*
X0043672Y0074991D01*
X0045191Y0073472D01*
X0047176Y0072650D01*
X0055324Y0072650D01*
X0057309Y0073472D01*
X0058828Y0074991D01*
X0059574Y0076793D01*
X0062747Y0079173D01*
X0062949Y0079257D01*
X0063221Y0079528D01*
X0063527Y0079758D01*
X0063639Y0079946D01*
X0063793Y0080101D01*
X0063940Y0080455D01*
X0064135Y0080785D01*
X0064166Y0081001D01*
X0064250Y0081203D01*
X0064250Y0081587D01*
X0064304Y0081966D01*
X0064250Y0082178D01*
X0064250Y0148057D01*
X0065058Y0148866D01*
X0065832Y0148866D01*
X0067370Y0149503D01*
X0068547Y0150680D01*
X0069184Y0152218D01*
X0069184Y0153882D01*
X0068547Y0155420D01*
X0067370Y0156597D01*
X0065832Y0157234D01*
X0064168Y0157234D01*
X0062630Y0156597D01*
X0061875Y0155842D01*
X0061120Y0156597D01*
X0059582Y0157234D01*
X0057918Y0157234D01*
X0056380Y0156597D01*
X0055203Y0155420D01*
X0054566Y0153882D01*
X0054566Y0153450D01*
X0047176Y0153450D01*
X0045191Y0152628D01*
X0043672Y0151109D01*
X0042850Y0149124D01*
X0042850Y0148893D01*
X0038207Y0144249D01*
X0035320Y0144249D01*
X0034438Y0143884D01*
X0033763Y0143209D01*
X0033397Y0142327D01*
X0033397Y0136254D01*
X0033689Y0135550D01*
X0033397Y0134846D01*
X0033397Y0128773D01*
X0033763Y0127891D01*
X0034438Y0127216D01*
X0035320Y0126851D01*
X0035750Y0126851D01*
X0035750Y0119953D01*
X0036207Y0118851D01*
X0037051Y0118007D01*
X0043810Y0111247D01*
X0043672Y0111109D01*
X0042850Y0109124D01*
X0042850Y0106976D01*
X0043672Y0104991D01*
X0045191Y0103472D01*
X0046210Y0103050D01*
X0045191Y0102628D01*
X0043672Y0101109D01*
X0042850Y0099124D01*
X0042850Y0096976D01*
X0043672Y0094991D01*
X0045191Y0093472D01*
X0044577Y0092014D02*
X0030500Y0092014D01*
X0030500Y0090415D02*
X0043385Y0090415D01*
X0042850Y0088817D02*
X0030500Y0088817D01*
X0030500Y0087218D02*
X0042850Y0087218D01*
X0043412Y0085620D02*
X0030500Y0085620D01*
X0030500Y0084021D02*
X0044642Y0084021D01*
X0044986Y0082423D02*
X0030500Y0082423D01*
X0030500Y0080824D02*
X0043554Y0080824D01*
X0042892Y0079226D02*
X0030500Y0079226D01*
X0030500Y0077627D02*
X0042850Y0077627D01*
X0043242Y0076029D02*
X0031264Y0076029D01*
X0030500Y0076793D02*
X0030500Y0132397D01*
X0030043Y0133499D01*
X0024868Y0138675D01*
X0026699Y0140507D01*
X0027543Y0141351D01*
X0028000Y0142453D01*
X0028000Y0170557D01*
X0031943Y0174500D01*
X0033057Y0174500D01*
X0035386Y0172171D01*
X0035060Y0172306D01*
X0033627Y0172306D01*
X0033453Y0172234D01*
X0032918Y0172234D01*
X0031380Y0171597D01*
X0030203Y0170420D01*
X0029566Y0168882D01*
X0029566Y0167218D01*
X0030203Y0165680D01*
X0031380Y0164503D01*
X0032918Y0163866D01*
X0034093Y0163866D01*
X0038369Y0159590D01*
X0038953Y0158180D01*
X0040130Y0157003D01*
X0041668Y0156366D01*
X0043332Y0156366D01*
X0044870Y0157003D01*
X0046047Y0158180D01*
X0046684Y0159718D01*
X0046684Y0161382D01*
X0046047Y0162920D01*
X0044870Y0164097D01*
X0043460Y0164681D01*
X0039297Y0168844D01*
X0039403Y0168800D01*
X0078097Y0168800D01*
X0079199Y0169257D01*
X0080043Y0170101D01*
X0084375Y0174432D01*
X0088707Y0170101D01*
X0089551Y0169257D01*
X0090653Y0168800D01*
X0130597Y0168800D01*
X0131699Y0169257D01*
X0132543Y0170101D01*
X0136943Y0174500D01*
X0138455Y0174500D01*
X0140219Y0175231D01*
X0141569Y0176581D01*
X0141783Y0177097D01*
X0142170Y0176564D01*
X0142638Y0176096D01*
X0143173Y0175708D01*
X0143762Y0175408D01*
X0144391Y0175203D01*
X0145043Y0175100D01*
X0145374Y0175100D01*
X0145705Y0175100D01*
X0146358Y0175203D01*
X0146986Y0175408D01*
X0147575Y0175708D01*
X0148110Y0176096D01*
X0148448Y0176434D01*
X0148448Y0176423D01*
X0148813Y0175541D01*
X0149489Y0174865D01*
X0150371Y0174500D01*
X0153523Y0174500D01*
X0161435Y0166587D01*
X0162612Y0166100D01*
X0197425Y0166100D01*
X0198050Y0165475D01*
X0198050Y0114913D01*
X0198537Y0113737D01*
X0199437Y0112837D01*
X0203187Y0109087D01*
X0204363Y0108600D01*
X0224735Y0108600D01*
X0224735Y0104681D01*
X0228320Y0104681D01*
X0228320Y0104313D01*
X0228688Y0104313D01*
X0228688Y0097874D01*
X0230453Y0097874D01*
X0230688Y0097639D01*
X0231570Y0097274D01*
X0236462Y0097274D01*
X0236772Y0097402D01*
X0237082Y0097274D01*
X0241973Y0097274D01*
X0242283Y0097402D01*
X0242593Y0097274D01*
X0247485Y0097274D01*
X0247795Y0097402D01*
X0248105Y0097274D01*
X0252997Y0097274D01*
X0253250Y0097379D01*
X0253250Y0096793D01*
X0242457Y0085999D01*
X0242000Y0084897D01*
X0242000Y0083467D01*
X0241453Y0082920D01*
X0240816Y0081382D01*
X0240816Y0079718D01*
X0241453Y0078180D01*
X0242630Y0077003D01*
X0244168Y0076366D01*
X0245832Y0076366D01*
X0247370Y0077003D01*
X0248547Y0078180D01*
X0249184Y0079718D01*
X0249184Y0081382D01*
X0248547Y0082920D01*
X0248205Y0083262D01*
X0257949Y0093007D01*
X0258793Y0093851D01*
X0259250Y0094953D01*
X0259250Y0097274D01*
X0264021Y0097274D01*
X0264331Y0097402D01*
X0264641Y0097274D01*
X0269533Y0097274D01*
X0270415Y0097639D01*
X0271090Y0098315D01*
X0271455Y0099197D01*
X0271455Y0109797D01*
X0271090Y0110679D01*
X0270415Y0111354D01*
X0269533Y0111720D01*
X0264641Y0111720D01*
X0264331Y0111591D01*
X0264021Y0111720D01*
X0259129Y0111720D01*
X0258819Y0111591D01*
X0258509Y0111720D01*
X0253617Y0111720D01*
X0253307Y0111591D01*
X0252997Y0111720D01*
X0248105Y0111720D01*
X0247795Y0111591D01*
X0247485Y0111720D01*
X0242593Y0111720D01*
X0242283Y0111591D01*
X0241973Y0111720D01*
X0237082Y0111720D01*
X0236914Y0111650D01*
X0236729Y0112097D01*
X0235213Y0113613D01*
X0234313Y0114513D01*
X0233137Y0115000D01*
X0223837Y0115000D01*
X0225078Y0116241D01*
X0225900Y0118226D01*
X0225900Y0120374D01*
X0225078Y0122359D01*
X0223559Y0123878D01*
X0221707Y0124645D01*
X0222343Y0124852D01*
X0223016Y0125195D01*
X0223627Y0125639D01*
X0224161Y0126173D01*
X0224605Y0126784D01*
X0224948Y0127457D01*
X0225182Y0128176D01*
X0225300Y0128922D01*
X0225300Y0129100D01*
X0217700Y0129100D01*
X0217700Y0129500D01*
X0225300Y0129500D01*
X0225300Y0129678D01*
X0225182Y0130424D01*
X0224948Y0131143D01*
X0224605Y0131816D01*
X0224161Y0132427D01*
X0223627Y0132961D01*
X0223016Y0133405D01*
X0222343Y0133748D01*
X0221707Y0133955D01*
X0223559Y0134722D01*
X0225078Y0136241D01*
X0225900Y0138226D01*
X0225900Y0140374D01*
X0225078Y0142359D01*
X0223559Y0143878D01*
X0222540Y0144300D01*
X0222781Y0144400D01*
X0227225Y0144400D01*
X0229026Y0145146D01*
X0236654Y0152774D01*
X0237400Y0154575D01*
X0237400Y0169770D01*
X0241341Y0173711D01*
X0244282Y0173711D01*
X0245518Y0173199D01*
X0247671Y0173199D01*
X0249660Y0174023D01*
X0251182Y0175545D01*
X0252006Y0177535D01*
X0252006Y0179687D01*
X0251182Y0181677D01*
X0250500Y0182359D01*
X0250500Y0183057D01*
X0252493Y0185050D01*
X0263757Y0185050D01*
X0272000Y0176807D01*
X0272000Y0153117D01*
X0271475Y0152900D01*
X0270800Y0152224D01*
X0270435Y0151342D01*
X0270435Y0146451D01*
X0270800Y0145568D01*
X0270818Y0145550D01*
X0270800Y0145532D01*
X0270435Y0144649D01*
X0270435Y0143131D01*
X0269582Y0143484D01*
X0267918Y0143484D01*
X0267065Y0143131D01*
X0267065Y0144649D01*
X0266700Y0145532D01*
X0266681Y0145550D01*
X0266700Y0145568D01*
X0267065Y0146451D01*
X0267065Y0151342D01*
X0266700Y0152224D01*
X0266025Y0152900D01*
X0265542Y0153100D01*
X0270449Y0158007D01*
X0271293Y0158851D01*
X0271750Y0159953D01*
X0271750Y0168863D01*
X0271293Y0169966D01*
X0263790Y0177469D01*
X0263817Y0177535D01*
X0263817Y0179687D01*
X0262993Y0181677D01*
X0261471Y0183199D01*
X0259482Y0184023D01*
X0257329Y0184023D01*
X0255340Y0183199D01*
X0253818Y0181677D01*
X0252994Y0179687D01*
X0252994Y0177535D01*
X0253818Y0175545D01*
X0255340Y0174023D01*
X0257329Y0173199D01*
X0259482Y0173199D01*
X0259548Y0173226D01*
X0261162Y0171612D01*
X0258609Y0171612D01*
X0258609Y0167004D01*
X0258202Y0167004D01*
X0258202Y0171612D01*
X0255157Y0171612D01*
X0254699Y0171489D01*
X0254288Y0171252D01*
X0253953Y0170917D01*
X0253716Y0170507D01*
X0253594Y0170049D01*
X0253594Y0167004D01*
X0258201Y0167004D01*
X0258201Y0166596D01*
X0253594Y0166596D01*
X0253594Y0163551D01*
X0253716Y0163093D01*
X0253953Y0162683D01*
X0254288Y0162348D01*
X0249796Y0162348D01*
X0249660Y0162212D02*
X0251182Y0163734D01*
X0252006Y0165724D01*
X0252006Y0167876D01*
X0251182Y0169866D01*
X0249660Y0171388D01*
X0247671Y0172212D01*
X0245518Y0172212D01*
X0243529Y0171388D01*
X0242007Y0169866D01*
X0241183Y0167876D01*
X0241183Y0165724D01*
X0242007Y0163734D01*
X0243250Y0162491D01*
X0243250Y0153117D01*
X0242725Y0152900D01*
X0242050Y0152224D01*
X0241685Y0151342D01*
X0241685Y0146451D01*
X0242050Y0145568D01*
X0242068Y0145550D01*
X0242050Y0145532D01*
X0241685Y0144649D01*
X0241685Y0143484D01*
X0240418Y0143484D01*
X0238880Y0142847D01*
X0237703Y0141670D01*
X0237066Y0140132D01*
X0237066Y0138468D01*
X0237703Y0136930D01*
X0238880Y0135753D01*
X0240418Y0135116D01*
X0241685Y0135116D01*
X0241685Y0133951D01*
X0242050Y0133068D01*
X0242533Y0132585D01*
X0242407Y0132367D01*
X0242285Y0131909D01*
X0242285Y0129888D01*
X0246066Y0129888D01*
X0246066Y0129519D01*
X0246434Y0129519D01*
X0246434Y0125935D01*
X0248652Y0125935D01*
X0249110Y0126058D01*
X0249521Y0126295D01*
X0249856Y0126630D01*
X0250093Y0127040D01*
X0250215Y0127498D01*
X0250215Y0129519D01*
X0246434Y0129519D01*
X0246434Y0129888D01*
X0250215Y0129888D01*
X0250215Y0131909D01*
X0250093Y0132367D01*
X0249967Y0132585D01*
X0250450Y0133068D01*
X0250815Y0133951D01*
X0250815Y0138842D01*
X0250626Y0139300D01*
X0250815Y0139758D01*
X0250815Y0144649D01*
X0250450Y0145532D01*
X0250431Y0145550D01*
X0250450Y0145568D01*
X0250815Y0146451D01*
X0250815Y0151342D01*
X0250450Y0152224D01*
X0249775Y0152900D01*
X0249250Y0153117D01*
X0249250Y0162042D01*
X0249660Y0162212D01*
X0249250Y0160750D02*
X0264707Y0160750D01*
X0265750Y0161793D02*
X0259957Y0155999D01*
X0259500Y0154897D01*
X0259500Y0153117D01*
X0258975Y0152900D01*
X0258300Y0152224D01*
X0257935Y0151342D01*
X0257935Y0146451D01*
X0258300Y0145568D01*
X0258318Y0145550D01*
X0258300Y0145532D01*
X0257935Y0144649D01*
X0257935Y0143484D01*
X0256668Y0143484D01*
X0255130Y0142847D01*
X0253953Y0141670D01*
X0253316Y0140132D01*
X0253316Y0138468D01*
X0253953Y0136930D01*
X0255130Y0135753D01*
X0256668Y0135116D01*
X0257935Y0135116D01*
X0257935Y0133951D01*
X0258300Y0133068D01*
X0258783Y0132585D01*
X0258657Y0132367D01*
X0258535Y0131909D01*
X0258535Y0129888D01*
X0262316Y0129888D01*
X0262316Y0129519D01*
X0262684Y0129519D01*
X0262684Y0125935D01*
X0264902Y0125935D01*
X0265360Y0126058D01*
X0265771Y0126295D01*
X0266106Y0126630D01*
X0266343Y0127040D01*
X0266465Y0127498D01*
X0266465Y0129519D01*
X0262684Y0129519D01*
X0262684Y0129888D01*
X0266465Y0129888D01*
X0266465Y0131909D01*
X0266343Y0132367D01*
X0266217Y0132585D01*
X0266700Y0133068D01*
X0267065Y0133951D01*
X0267065Y0135469D01*
X0267918Y0135116D01*
X0269582Y0135116D01*
X0270435Y0135469D01*
X0270435Y0133951D01*
X0270800Y0133068D01*
X0271283Y0132585D01*
X0271157Y0132367D01*
X0271035Y0131909D01*
X0271035Y0129888D01*
X0274816Y0129888D01*
X0274816Y0129519D01*
X0275184Y0129519D01*
X0275184Y0125935D01*
X0277350Y0125935D01*
X0277350Y0051800D01*
X0277204Y0048085D01*
X0276042Y0040746D01*
X0273746Y0033680D01*
X0271928Y0030112D01*
X0271928Y0033852D01*
X0271562Y0034734D01*
X0270887Y0035409D01*
X0270005Y0035775D01*
X0265901Y0035775D01*
X0265018Y0035409D01*
X0264535Y0034926D01*
X0264317Y0035052D01*
X0263859Y0035175D01*
X0262448Y0035175D01*
X0262598Y0035325D01*
X0264099Y0035325D01*
X0264982Y0035691D01*
X0265465Y0036174D01*
X0265683Y0036048D01*
X0266141Y0035925D01*
X0267953Y0035925D01*
X0269765Y0035925D01*
X0270222Y0036048D01*
X0270633Y0036285D01*
X0270968Y0036620D01*
X0271205Y0037030D01*
X0271328Y0037488D01*
X0271328Y0039300D01*
X0271328Y0041112D01*
X0271205Y0041570D01*
X0270968Y0041980D01*
X0270633Y0042315D01*
X0270222Y0042552D01*
X0269765Y0042675D01*
X0267953Y0042675D01*
X0267953Y0039300D01*
X0271328Y0039300D01*
X0267953Y0039300D01*
X0267953Y0039300D01*
X0267953Y0039300D01*
X0267953Y0035925D01*
X0267953Y0039300D01*
X0267953Y0039300D01*
X0272500Y0034753D01*
X0272500Y0029300D01*
X0267500Y0024300D01*
X0253346Y0024300D01*
X0252500Y0024300D01*
X0253162Y0024484D02*
X0251022Y0024484D01*
X0251022Y0024116D01*
X0253162Y0024116D01*
X0253162Y0024484D01*
X0253346Y0024300D02*
X0248346Y0019300D01*
X0235000Y0019300D01*
X0235184Y0019484D02*
X0239753Y0019484D01*
X0239753Y0019674D01*
X0239636Y0020413D01*
X0239412Y0021100D01*
X0242516Y0021100D01*
X0242650Y0020775D01*
X0243326Y0020100D01*
X0244208Y0019735D01*
X0249099Y0019735D01*
X0249982Y0020100D01*
X0250465Y0020583D01*
X0250683Y0020457D01*
X0251141Y0020335D01*
X0253162Y0020335D01*
X0253162Y0024116D01*
X0253531Y0024116D01*
X0253531Y0024484D01*
X0257115Y0024484D01*
X0257115Y0024850D01*
X0264387Y0024850D01*
X0265563Y0025337D01*
X0266463Y0026237D01*
X0267603Y0027378D01*
X0268150Y0027825D01*
X0270005Y0027825D01*
X0270887Y0028191D01*
X0271013Y0028316D01*
X0270373Y0027060D01*
X0266005Y0021049D01*
X0260751Y0015795D01*
X0260751Y0015795D01*
X0254740Y0011427D01*
X0248120Y0008054D01*
X0241054Y0005758D01*
X0237374Y0005175D01*
X0237491Y0005235D01*
X0238096Y0005675D01*
X0238625Y0006204D01*
X0239065Y0006809D01*
X0239405Y0007476D01*
X0239636Y0008187D01*
X0239753Y0008926D01*
X0239753Y0009116D01*
X0235184Y0009116D01*
X0235184Y0009484D01*
X0234816Y0009484D01*
X0234816Y0009116D01*
X0230247Y0009116D01*
X0230247Y0008926D01*
X0230364Y0008187D01*
X0230595Y0007476D01*
X0230935Y0006809D01*
X0231375Y0006204D01*
X0231904Y0005675D01*
X0232509Y0005235D01*
X0233176Y0004895D01*
X0233887Y0004664D01*
X0234017Y0004644D01*
X0233715Y0004596D01*
X0230000Y0004450D01*
X0217278Y0004450D01*
X0218032Y0004762D01*
X0219538Y0006268D01*
X0220353Y0008235D01*
X0220353Y0008260D01*
X0220364Y0008187D01*
X0220595Y0007476D01*
X0220935Y0006809D01*
X0221375Y0006204D01*
X0221904Y0005675D01*
X0222509Y0005235D01*
X0223176Y0004895D01*
X0223887Y0004664D01*
X0224626Y0004547D01*
X0224816Y0004547D01*
X0224816Y0009116D01*
X0225184Y0009116D01*
X0225184Y0004547D01*
X0225374Y0004547D01*
X0226113Y0004664D01*
X0226824Y0004895D01*
X0227491Y0005235D01*
X0228096Y0005675D01*
X0228625Y0006204D01*
X0229065Y0006809D01*
X0229405Y0007476D01*
X0229636Y0008187D01*
X0229753Y0008926D01*
X0229753Y0009116D01*
X0225184Y0009116D01*
X0225184Y0009484D01*
X0224816Y0009484D01*
X0224816Y0014053D01*
X0224626Y0014053D01*
X0223887Y0013936D01*
X0223200Y0013712D01*
X0223200Y0014888D01*
X0223887Y0014664D01*
X0224626Y0014547D01*
X0224816Y0014547D01*
X0224816Y0019116D01*
X0225184Y0019116D01*
X0225184Y0014547D01*
X0225374Y0014547D01*
X0226113Y0014664D01*
X0226824Y0014895D01*
X0227491Y0015235D01*
X0228096Y0015675D01*
X0228625Y0016204D01*
X0229065Y0016809D01*
X0229405Y0017476D01*
X0229636Y0018187D01*
X0229753Y0018926D01*
X0229753Y0019116D01*
X0225184Y0019116D01*
X0225184Y0019484D01*
X0229753Y0019484D01*
X0229753Y0019674D01*
X0229636Y0020413D01*
X0229412Y0021100D01*
X0230588Y0021100D01*
X0230364Y0020413D01*
X0230247Y0019674D01*
X0230247Y0019484D01*
X0234816Y0019484D01*
X0234816Y0019116D01*
X0235184Y0019116D01*
X0235184Y0014547D01*
X0235374Y0014547D01*
X0236113Y0014664D01*
X0236824Y0014895D01*
X0237491Y0015235D01*
X0238096Y0015675D01*
X0238625Y0016204D01*
X0239065Y0016809D01*
X0239405Y0017476D01*
X0239636Y0018187D01*
X0239753Y0018926D01*
X0239753Y0019116D01*
X0235184Y0019116D01*
X0235184Y0019484D01*
X0234816Y0019116D02*
X0234816Y0014547D01*
X0234626Y0014547D01*
X0233887Y0014664D01*
X0233176Y0014895D01*
X0232509Y0015235D01*
X0231904Y0015675D01*
X0231375Y0016204D01*
X0230935Y0016809D01*
X0230595Y0017476D01*
X0230364Y0018187D01*
X0230247Y0018926D01*
X0230247Y0019116D01*
X0234816Y0019116D01*
X0234816Y0018482D02*
X0235184Y0018482D01*
X0235184Y0016884D02*
X0234816Y0016884D01*
X0234816Y0015285D02*
X0235184Y0015285D01*
X0235184Y0014053D02*
X0235184Y0009484D01*
X0239753Y0009484D01*
X0239753Y0009674D01*
X0239636Y0010413D01*
X0239405Y0011124D01*
X0239065Y0011791D01*
X0238625Y0012396D01*
X0238096Y0012925D01*
X0237491Y0013365D01*
X0236824Y0013705D01*
X0236113Y0013936D01*
X0235374Y0014053D01*
X0235184Y0014053D01*
X0235184Y0013687D02*
X0234816Y0013687D01*
X0234816Y0014053D02*
X0234626Y0014053D01*
X0233887Y0013936D01*
X0233176Y0013705D01*
X0232509Y0013365D01*
X0231904Y0012925D01*
X0231375Y0012396D01*
X0230935Y0011791D01*
X0230595Y0011124D01*
X0230364Y0010413D01*
X0230247Y0009674D01*
X0230247Y0009484D01*
X0234816Y0009484D01*
X0234816Y0014053D01*
X0233140Y0013687D02*
X0226860Y0013687D01*
X0226824Y0013705D02*
X0226113Y0013936D01*
X0225374Y0014053D01*
X0225184Y0014053D01*
X0225184Y0009484D01*
X0229753Y0009484D01*
X0229753Y0009674D01*
X0229636Y0010413D01*
X0229405Y0011124D01*
X0229065Y0011791D01*
X0228625Y0012396D01*
X0228096Y0012925D01*
X0227491Y0013365D01*
X0226824Y0013705D01*
X0225184Y0013687D02*
X0224816Y0013687D01*
X0224816Y0015285D02*
X0225184Y0015285D01*
X0225184Y0016884D02*
X0224816Y0016884D01*
X0224816Y0018482D02*
X0225184Y0018482D01*
X0229103Y0016884D02*
X0230897Y0016884D01*
X0230318Y0018482D02*
X0229682Y0018482D01*
X0229688Y0020081D02*
X0230312Y0020081D01*
X0222500Y0024300D02*
X0246654Y0024300D01*
X0249935Y0020081D02*
X0265037Y0020081D01*
X0266463Y0021679D02*
X0257056Y0021679D01*
X0257115Y0021898D02*
X0257115Y0024116D01*
X0253531Y0024116D01*
X0253531Y0020335D01*
X0255552Y0020335D01*
X0256010Y0020457D01*
X0256420Y0020694D01*
X0256755Y0021029D01*
X0256992Y0021440D01*
X0257115Y0021898D01*
X0257115Y0023278D02*
X0267625Y0023278D01*
X0268786Y0024876D02*
X0264450Y0024876D01*
X0266700Y0026475D02*
X0269948Y0026475D01*
X0270604Y0028073D02*
X0270889Y0028073D01*
X0267953Y0031800D02*
X0265453Y0029753D01*
X0263750Y0028050D01*
X0255846Y0028050D01*
X0253346Y0030550D01*
X0257715Y0031250D02*
X0257715Y0033193D01*
X0257546Y0033600D01*
X0258672Y0033600D01*
X0258672Y0031800D01*
X0262047Y0031800D01*
X0262047Y0031800D01*
X0258672Y0031800D01*
X0258672Y0031250D01*
X0257715Y0031250D01*
X0257715Y0031270D02*
X0258672Y0031270D01*
X0258672Y0032869D02*
X0257715Y0032869D01*
X0262047Y0032869D02*
X0262047Y0032869D01*
X0262047Y0033847D02*
X0262047Y0031800D01*
X0262047Y0034774D01*
X0262047Y0034775D01*
X0262047Y0031800D01*
X0262047Y0031800D01*
X0262047Y0033847D02*
X0262500Y0034300D01*
X0262953Y0034300D01*
X0267953Y0039300D01*
X0269075Y0040422D01*
X0267953Y0040861D02*
X0267953Y0040861D01*
X0267953Y0039300D02*
X0267953Y0042675D01*
X0266141Y0042675D01*
X0265683Y0042552D01*
X0265465Y0042426D01*
X0264982Y0042909D01*
X0264099Y0043275D01*
X0259995Y0043275D01*
X0259113Y0042909D01*
X0258438Y0042234D01*
X0258072Y0041352D01*
X0258072Y0040000D01*
X0257484Y0040000D01*
X0257350Y0040325D01*
X0256674Y0041000D01*
X0256252Y0041175D01*
X0256684Y0042218D01*
X0256684Y0042992D01*
X0258606Y0044914D01*
X0259063Y0046016D01*
X0259063Y0047110D01*
X0259391Y0047246D01*
X0259626Y0047480D01*
X0261391Y0047480D01*
X0261391Y0053919D01*
X0261759Y0053919D01*
X0261759Y0054287D01*
X0266902Y0054287D01*
X0266902Y0053919D01*
X0263318Y0053919D01*
X0261759Y0053919D01*
X0261759Y0047480D01*
X0263780Y0047480D01*
X0264238Y0047603D01*
X0264331Y0047656D01*
X0264423Y0047603D01*
X0264881Y0047480D01*
X0266902Y0047480D01*
X0266902Y0053919D01*
X0267271Y0053919D01*
X0267271Y0054287D01*
X0270855Y0054287D01*
X0270855Y0059163D01*
X0270732Y0059621D01*
X0270495Y0060031D01*
X0270160Y0060366D01*
X0269750Y0060603D01*
X0269292Y0060726D01*
X0267271Y0060726D01*
X0267271Y0054287D01*
X0266902Y0054287D01*
X0266902Y0060726D01*
X0264881Y0060726D01*
X0264423Y0060603D01*
X0264331Y0060550D01*
X0264238Y0060603D01*
X0263780Y0060726D01*
X0261759Y0060726D01*
X0261759Y0054287D01*
X0261391Y0054287D01*
X0261391Y0060726D01*
X0259626Y0060726D01*
X0259391Y0060961D01*
X0258509Y0061326D01*
X0253617Y0061326D01*
X0252735Y0060961D01*
X0252500Y0060726D01*
X0250735Y0060726D01*
X0250735Y0054287D01*
X0250367Y0054287D01*
X0250367Y0060726D01*
X0248602Y0060726D01*
X0248367Y0060961D01*
X0247485Y0061326D01*
X0242593Y0061326D01*
X0242283Y0061198D01*
X0241973Y0061326D01*
X0241315Y0061326D01*
X0241684Y0062218D01*
X0241684Y0063882D01*
X0241047Y0065420D01*
X0239870Y0066597D01*
X0238332Y0067234D01*
X0236668Y0067234D01*
X0235130Y0066597D01*
X0234583Y0066050D01*
X0233153Y0066050D01*
X0232051Y0065593D01*
X0227783Y0061326D01*
X0226091Y0061326D01*
X0226091Y0061958D01*
X0226326Y0062192D01*
X0226691Y0063075D01*
X0226691Y0067966D01*
X0226563Y0068276D01*
X0226691Y0068586D01*
X0226691Y0073478D01*
X0226563Y0073788D01*
X0226691Y0074098D01*
X0226691Y0078990D01*
X0226563Y0079300D01*
X0226691Y0079610D01*
X0226691Y0084502D01*
X0226563Y0084812D01*
X0226691Y0085122D01*
X0226691Y0090014D01*
X0226563Y0090324D01*
X0226691Y0090634D01*
X0226691Y0095525D01*
X0226563Y0095835D01*
X0226691Y0096145D01*
X0226691Y0097874D01*
X0228320Y0097874D01*
X0228320Y0104313D01*
X0224735Y0104313D01*
X0224735Y0102960D01*
X0214168Y0102960D01*
X0213286Y0102594D01*
X0212611Y0101919D01*
X0212246Y0101037D01*
X0212246Y0096145D01*
X0212374Y0095835D01*
X0212246Y0095525D01*
X0212246Y0090634D01*
X0212374Y0090324D01*
X0212246Y0090014D01*
X0212246Y0085122D01*
X0212374Y0084812D01*
X0212246Y0084502D01*
X0212246Y0084424D01*
X0212051Y0084343D01*
X0211207Y0083499D01*
X0208301Y0080593D01*
X0207457Y0079749D01*
X0207000Y0078647D01*
X0207000Y0053484D01*
X0206668Y0053484D01*
X0205130Y0052847D01*
X0203953Y0051670D01*
X0203316Y0050132D01*
X0203316Y0049358D01*
X0191257Y0037300D01*
X0158153Y0037300D01*
X0157051Y0036843D01*
X0156207Y0035999D01*
X0144860Y0024653D01*
X0143935Y0024653D01*
X0141968Y0023838D01*
X0140462Y0022332D01*
X0140000Y0021216D01*
X0139538Y0022332D01*
X0138032Y0023838D01*
X0136065Y0024653D01*
X0133935Y0024653D01*
X0131968Y0023838D01*
X0130462Y0022332D01*
X0130000Y0021216D01*
X0129538Y0022332D01*
X0128032Y0023838D01*
X0126065Y0024653D01*
X0123935Y0024653D01*
X0121968Y0023838D01*
X0120462Y0022332D01*
X0120000Y0021216D01*
X0119538Y0022332D01*
X0118032Y0023838D01*
X0116065Y0024653D01*
X0113935Y0024653D01*
X0111968Y0023838D01*
X0110462Y0022332D01*
X0110000Y0021216D01*
X0109538Y0022332D01*
X0108032Y0023838D01*
X0106065Y0024653D01*
X0103935Y0024653D01*
X0101968Y0023838D01*
X0100462Y0022332D01*
X0100000Y0021216D01*
X0099538Y0022332D01*
X0098032Y0023838D01*
X0096065Y0024653D01*
X0095140Y0024653D01*
X0090043Y0029749D01*
X0089199Y0030593D01*
X0088097Y0031050D01*
X0076243Y0031050D01*
X0030500Y0076793D01*
X0032863Y0074430D02*
X0044233Y0074430D01*
X0046738Y0072832D02*
X0034461Y0072832D01*
X0036060Y0071233D02*
X0060710Y0071233D01*
X0060020Y0070542D02*
X0059350Y0068925D01*
X0059350Y0054675D01*
X0060020Y0053058D01*
X0061258Y0051820D01*
X0065838Y0047239D01*
X0065838Y0043655D01*
X0066204Y0042773D01*
X0066879Y0042098D01*
X0067761Y0041733D01*
X0074739Y0041733D01*
X0075621Y0042098D01*
X0076296Y0042773D01*
X0076662Y0043655D01*
X0076662Y0050634D01*
X0076296Y0051516D01*
X0075621Y0052191D01*
X0074739Y0052556D01*
X0072966Y0052556D01*
X0071979Y0053544D01*
X0072326Y0053544D01*
X0074316Y0054368D01*
X0075838Y0055890D01*
X0076662Y0057879D01*
X0076662Y0060032D01*
X0075838Y0062021D01*
X0075650Y0062209D01*
X0075650Y0063727D01*
X0078661Y0066738D01*
X0078661Y0062209D01*
X0078473Y0062021D01*
X0077649Y0060032D01*
X0077649Y0057879D01*
X0078473Y0055890D01*
X0079995Y0054368D01*
X0081985Y0053544D01*
X0084138Y0053544D01*
X0085600Y0054149D01*
X0085600Y0053623D01*
X0084418Y0052440D01*
X0084138Y0052556D01*
X0081985Y0052556D01*
X0079995Y0051732D01*
X0078473Y0050210D01*
X0077649Y0048221D01*
X0077649Y0046068D01*
X0078473Y0044079D01*
X0079995Y0042557D01*
X0081985Y0041733D01*
X0084138Y0041733D01*
X0086127Y0042557D01*
X0086381Y0042812D01*
X0087837Y0043414D01*
X0092492Y0048070D01*
X0093730Y0049308D01*
X0094400Y0050925D01*
X0094400Y0075183D01*
X0094589Y0074923D01*
X0095123Y0074389D01*
X0095734Y0073945D01*
X0096407Y0073602D01*
X0097126Y0073368D01*
X0097872Y0073250D01*
X0101050Y0073250D01*
X0101050Y0077850D01*
X0101450Y0077850D01*
X0101450Y0078250D01*
X0109050Y0078250D01*
X0109050Y0078428D01*
X0108932Y0079174D01*
X0108698Y0079893D01*
X0108355Y0080566D01*
X0107911Y0081177D01*
X0107377Y0081711D01*
X0106766Y0082155D01*
X0106093Y0082498D01*
X0105457Y0082705D01*
X0107309Y0083472D01*
X0108828Y0084991D01*
X0109650Y0086976D01*
X0109650Y0089124D01*
X0108828Y0091109D01*
X0107309Y0092628D01*
X0106290Y0093050D01*
X0107309Y0093472D01*
X0108828Y0094991D01*
X0109650Y0096976D01*
X0109650Y0099124D01*
X0108828Y0101109D01*
X0107309Y0102628D01*
X0106290Y0103050D01*
X0107309Y0103472D01*
X0108828Y0104991D01*
X0109650Y0106976D01*
X0109650Y0109124D01*
X0108828Y0111109D01*
X0107309Y0112628D01*
X0106290Y0113050D01*
X0107309Y0113472D01*
X0108828Y0114991D01*
X0109650Y0116976D01*
X0109650Y0119124D01*
X0109259Y0120069D01*
X0110008Y0119320D01*
X0116850Y0112477D01*
X0116850Y0058287D01*
X0115550Y0058287D01*
X0115550Y0059482D01*
X0115184Y0060364D01*
X0114509Y0061039D01*
X0113627Y0061405D01*
X0106373Y0061405D01*
X0105491Y0061039D01*
X0104816Y0060364D01*
X0104450Y0059482D01*
X0104450Y0048291D01*
X0104816Y0047409D01*
X0105491Y0046734D01*
X0106105Y0046480D01*
X0105745Y0046272D01*
X0105410Y0045937D01*
X0105173Y0045526D01*
X0105050Y0045068D01*
X0105050Y0040488D01*
X0109225Y0040488D01*
X0109225Y0038939D01*
X0105050Y0038939D01*
X0105050Y0034358D01*
X0105173Y0033900D01*
X0105410Y0033490D01*
X0105745Y0033155D01*
X0106156Y0032918D01*
X0106613Y0032795D01*
X0109225Y0032795D01*
X0109225Y0038938D01*
X0110775Y0038938D01*
X0110775Y0032795D01*
X0113387Y0032795D01*
X0113844Y0032918D01*
X0114255Y0033155D01*
X0114590Y0033490D01*
X0114827Y0033900D01*
X0114950Y0034358D01*
X0114950Y0038939D01*
X0110775Y0038939D01*
X0110775Y0040488D01*
X0114950Y0040488D01*
X0114950Y0045068D01*
X0114827Y0045526D01*
X0114590Y0045937D01*
X0114255Y0046272D01*
X0113895Y0046480D01*
X0114509Y0046734D01*
X0115184Y0047409D01*
X0115550Y0048291D01*
X0115550Y0049487D01*
X0125700Y0049487D01*
X0125700Y0048291D01*
X0126066Y0047409D01*
X0126741Y0046734D01*
X0127355Y0046480D01*
X0126995Y0046272D01*
X0126660Y0045937D01*
X0126423Y0045526D01*
X0126300Y0045068D01*
X0126300Y0040488D01*
X0130475Y0040488D01*
X0130475Y0038939D01*
X0126300Y0038939D01*
X0126300Y0034358D01*
X0126423Y0033900D01*
X0126660Y0033490D01*
X0126995Y0033155D01*
X0127406Y0032918D01*
X0127863Y0032795D01*
X0130475Y0032795D01*
X0130475Y0038938D01*
X0132025Y0038938D01*
X0132025Y0032795D01*
X0134637Y0032795D01*
X0135094Y0032918D01*
X0135505Y0033155D01*
X0135840Y0033490D01*
X0136077Y0033900D01*
X0136200Y0034358D01*
X0136200Y0038939D01*
X0132025Y0038939D01*
X0132025Y0040488D01*
X0136200Y0040488D01*
X0136200Y0045068D01*
X0136077Y0045526D01*
X0135840Y0045937D01*
X0135505Y0046272D01*
X0135145Y0046480D01*
X0135759Y0046734D01*
X0136434Y0047409D01*
X0136800Y0048291D01*
X0136800Y0059482D01*
X0136434Y0060364D01*
X0135759Y0061039D01*
X0134877Y0061405D01*
X0127623Y0061405D01*
X0126741Y0061039D01*
X0126066Y0060364D01*
X0125700Y0059482D01*
X0125700Y0058287D01*
X0125650Y0058287D01*
X0125650Y0114407D01*
X0128810Y0111247D01*
X0128672Y0111109D01*
X0127850Y0109124D01*
X0127850Y0106976D01*
X0128672Y0104991D01*
X0130191Y0103472D01*
X0131210Y0103050D01*
X0130191Y0102628D01*
X0128672Y0101109D01*
X0127850Y0099124D01*
X0127850Y0096976D01*
X0128672Y0094991D01*
X0130191Y0093472D01*
X0131210Y0093050D01*
X0130191Y0092628D01*
X0128672Y0091109D01*
X0127850Y0089124D01*
X0127850Y0086976D01*
X0128672Y0084991D01*
X0130191Y0083472D01*
X0131210Y0083050D01*
X0130191Y0082628D01*
X0128672Y0081109D01*
X0127850Y0079124D01*
X0127850Y0076976D01*
X0128672Y0074991D01*
X0130191Y0073472D01*
X0132176Y0072650D01*
X0140324Y0072650D01*
X0142309Y0073472D01*
X0143828Y0074991D01*
X0144350Y0076252D01*
X0144350Y0050925D01*
X0145020Y0049308D01*
X0146258Y0048070D01*
X0150913Y0043414D01*
X0150943Y0043402D01*
X0151204Y0042773D01*
X0151879Y0042098D01*
X0152761Y0041733D01*
X0159739Y0041733D01*
X0160621Y0042098D01*
X0161296Y0042773D01*
X0161662Y0043655D01*
X0161662Y0050634D01*
X0161296Y0051516D01*
X0160621Y0052191D01*
X0159739Y0052556D01*
X0154216Y0052556D01*
X0153150Y0053623D01*
X0153150Y0054402D01*
X0153184Y0054368D01*
X0155174Y0053544D01*
X0157326Y0053544D01*
X0159316Y0054368D01*
X0160838Y0055890D01*
X0161662Y0057879D01*
X0161662Y0060032D01*
X0160838Y0062021D01*
X0160650Y0062209D01*
X0160650Y0093727D01*
X0163661Y0096738D01*
X0163661Y0062209D01*
X0163473Y0062021D01*
X0162649Y0060032D01*
X0162649Y0057879D01*
X0163473Y0055890D01*
X0164995Y0054368D01*
X0166985Y0053544D01*
X0169138Y0053544D01*
X0170600Y0054149D01*
X0170600Y0051950D01*
X0169138Y0052556D01*
X0166985Y0052556D01*
X0164995Y0051732D01*
X0163473Y0050210D01*
X0162649Y0048221D01*
X0162649Y0046068D01*
X0163473Y0044079D01*
X0164995Y0042557D01*
X0166985Y0041733D01*
X0169138Y0041733D01*
X0171127Y0042557D01*
X0171314Y0042744D01*
X0173720Y0042744D01*
X0175337Y0043414D01*
X0177492Y0045570D01*
X0178730Y0046808D01*
X0179400Y0048425D01*
X0179400Y0075183D01*
X0179589Y0074923D01*
X0180123Y0074389D01*
X0180734Y0073945D01*
X0181407Y0073602D01*
X0182126Y0073368D01*
X0182872Y0073250D01*
X0186050Y0073250D01*
X0186050Y0077850D01*
X0186450Y0077850D01*
X0186450Y0078250D01*
X0194050Y0078250D01*
X0194050Y0078428D01*
X0193932Y0079174D01*
X0193698Y0079893D01*
X0193355Y0080566D01*
X0192911Y0081177D01*
X0192377Y0081711D01*
X0191766Y0082155D01*
X0191093Y0082498D01*
X0190457Y0082705D01*
X0192309Y0083472D01*
X0193828Y0084991D01*
X0194650Y0086976D01*
X0194650Y0089124D01*
X0193828Y0091109D01*
X0192309Y0092628D01*
X0191290Y0093050D01*
X0192309Y0093472D01*
X0193828Y0094991D01*
X0194650Y0096976D01*
X0194650Y0099124D01*
X0193828Y0101109D01*
X0192309Y0102628D01*
X0191290Y0103050D01*
X0192309Y0103472D01*
X0193828Y0104991D01*
X0194650Y0106976D01*
X0194650Y0109124D01*
X0193828Y0111109D01*
X0192309Y0112628D01*
X0191290Y0113050D01*
X0192309Y0113472D01*
X0193828Y0114991D01*
X0194650Y0116976D01*
X0194650Y0119124D01*
X0193828Y0121109D01*
X0192309Y0122628D01*
X0191290Y0123050D01*
X0192309Y0123472D01*
X0193828Y0124991D01*
X0194650Y0126976D01*
X0194650Y0129124D01*
X0193828Y0131109D01*
X0192309Y0132628D01*
X0190457Y0133395D01*
X0191093Y0133602D01*
X0191766Y0133945D01*
X0192377Y0134389D01*
X0192911Y0134923D01*
X0193355Y0135534D01*
X0193698Y0136207D01*
X0193932Y0136926D01*
X0194050Y0137672D01*
X0194050Y0137850D01*
X0186450Y0137850D01*
X0186450Y0138250D01*
X0194050Y0138250D01*
X0194050Y0138428D01*
X0193932Y0139174D01*
X0193698Y0139893D01*
X0193355Y0140566D01*
X0192911Y0141177D01*
X0192377Y0141711D01*
X0191766Y0142155D01*
X0191093Y0142498D01*
X0190457Y0142705D01*
X0192309Y0143472D01*
X0193828Y0144991D01*
X0194650Y0146976D01*
X0194650Y0149124D01*
X0193828Y0151109D01*
X0192309Y0152628D01*
X0190324Y0153450D01*
X0187073Y0153450D01*
X0179992Y0160530D01*
X0178375Y0161200D01*
X0131625Y0161200D01*
X0130008Y0160530D01*
X0128770Y0159292D01*
X0121927Y0152450D01*
X0107487Y0152450D01*
X0107309Y0152628D01*
X0105324Y0153450D01*
X0097176Y0153450D01*
X0095191Y0152628D01*
X0093672Y0151109D01*
X0092850Y0149124D01*
X0092850Y0146976D01*
X0093672Y0144991D01*
X0095191Y0143472D01*
X0097043Y0142705D01*
X0096407Y0142498D01*
X0095734Y0142155D01*
X0095123Y0141711D01*
X0094589Y0141177D01*
X0094145Y0140566D01*
X0093802Y0139893D01*
X0093568Y0139174D01*
X0093450Y0138428D01*
X0093450Y0138250D01*
X0101050Y0138250D01*
X0101050Y0137850D01*
X0093450Y0137850D01*
X0093450Y0137672D01*
X0093568Y0136926D01*
X0093802Y0136207D01*
X0094145Y0135534D01*
X0094589Y0134923D01*
X0095123Y0134389D01*
X0095734Y0133945D01*
X0096407Y0133602D01*
X0097043Y0133395D01*
X0095191Y0132628D01*
X0095013Y0132450D01*
X0090375Y0132450D01*
X0088758Y0131780D01*
X0087520Y0130542D01*
X0066270Y0109292D01*
X0065600Y0107675D01*
X0065600Y0076123D01*
X0060020Y0070542D01*
X0059644Y0069634D02*
X0037658Y0069634D01*
X0039257Y0068036D02*
X0059350Y0068036D01*
X0059350Y0066437D02*
X0040855Y0066437D01*
X0042454Y0064839D02*
X0059350Y0064839D01*
X0059350Y0063240D02*
X0044052Y0063240D01*
X0045651Y0061642D02*
X0059350Y0061642D01*
X0059350Y0060043D02*
X0047249Y0060043D01*
X0048848Y0058445D02*
X0059350Y0058445D01*
X0059350Y0056846D02*
X0050446Y0056846D01*
X0052045Y0055248D02*
X0059350Y0055248D01*
X0059775Y0053649D02*
X0053643Y0053649D01*
X0055242Y0052051D02*
X0061027Y0052051D01*
X0062625Y0050452D02*
X0056840Y0050452D01*
X0058439Y0048854D02*
X0064224Y0048854D01*
X0065822Y0047255D02*
X0060037Y0047255D01*
X0061636Y0045657D02*
X0065838Y0045657D01*
X0065838Y0044058D02*
X0063234Y0044058D01*
X0064833Y0042460D02*
X0066517Y0042460D01*
X0066431Y0040861D02*
X0105050Y0040861D01*
X0105050Y0042460D02*
X0085893Y0042460D01*
X0088481Y0044058D02*
X0105050Y0044058D01*
X0105248Y0045657D02*
X0090079Y0045657D01*
X0091678Y0047255D02*
X0104969Y0047255D01*
X0104450Y0048854D02*
X0093276Y0048854D01*
X0094204Y0050452D02*
X0104450Y0050452D01*
X0104450Y0052051D02*
X0094400Y0052051D01*
X0094400Y0053649D02*
X0104450Y0053649D01*
X0104450Y0055248D02*
X0094400Y0055248D01*
X0094400Y0056846D02*
X0104450Y0056846D01*
X0104450Y0058445D02*
X0094400Y0058445D01*
X0094400Y0060043D02*
X0104683Y0060043D01*
X0094400Y0061642D02*
X0116850Y0061642D01*
X0116850Y0063240D02*
X0094400Y0063240D01*
X0094400Y0064839D02*
X0116850Y0064839D01*
X0116850Y0066437D02*
X0094400Y0066437D01*
X0094400Y0068036D02*
X0116850Y0068036D01*
X0116850Y0069634D02*
X0094400Y0069634D01*
X0094400Y0071233D02*
X0116850Y0071233D01*
X0116850Y0072832D02*
X0094400Y0072832D01*
X0094400Y0074430D02*
X0095082Y0074430D01*
X0101050Y0074430D02*
X0101450Y0074430D01*
X0101450Y0073250D02*
X0104628Y0073250D01*
X0105374Y0073368D01*
X0106093Y0073602D01*
X0106766Y0073945D01*
X0107377Y0074389D01*
X0107911Y0074923D01*
X0108355Y0075534D01*
X0108698Y0076207D01*
X0108932Y0076926D01*
X0109050Y0077672D01*
X0109050Y0077850D01*
X0101450Y0077850D01*
X0101450Y0073250D01*
X0101450Y0076029D02*
X0101050Y0076029D01*
X0101050Y0077627D02*
X0101450Y0077627D01*
X0107418Y0074430D02*
X0116850Y0074430D01*
X0116850Y0076029D02*
X0108607Y0076029D01*
X0109043Y0077627D02*
X0116850Y0077627D01*
X0116850Y0079226D02*
X0108915Y0079226D01*
X0108168Y0080824D02*
X0116850Y0080824D01*
X0116850Y0082423D02*
X0106241Y0082423D01*
X0107858Y0084021D02*
X0116850Y0084021D01*
X0116850Y0085620D02*
X0109088Y0085620D01*
X0109650Y0087218D02*
X0116850Y0087218D01*
X0116850Y0088817D02*
X0109650Y0088817D01*
X0109115Y0090415D02*
X0116850Y0090415D01*
X0116850Y0092014D02*
X0107923Y0092014D01*
X0107449Y0093612D02*
X0116850Y0093612D01*
X0116850Y0095211D02*
X0108919Y0095211D01*
X0109581Y0096809D02*
X0116850Y0096809D01*
X0116850Y0098408D02*
X0109650Y0098408D01*
X0109285Y0100006D02*
X0116850Y0100006D01*
X0116850Y0101605D02*
X0108332Y0101605D01*
X0106660Y0103203D02*
X0116850Y0103203D01*
X0116850Y0104802D02*
X0108638Y0104802D01*
X0109412Y0106400D02*
X0116850Y0106400D01*
X0116850Y0107999D02*
X0109650Y0107999D01*
X0109454Y0109597D02*
X0116850Y0109597D01*
X0116850Y0111196D02*
X0108741Y0111196D01*
X0106907Y0112794D02*
X0116533Y0112794D01*
X0114935Y0114393D02*
X0108230Y0114393D01*
X0109242Y0115991D02*
X0113336Y0115991D01*
X0111738Y0117590D02*
X0109650Y0117590D01*
X0109623Y0119188D02*
X0110139Y0119188D01*
X0125650Y0114393D02*
X0125665Y0114393D01*
X0125650Y0112794D02*
X0127263Y0112794D01*
X0128759Y0111196D02*
X0125650Y0111196D01*
X0125650Y0109597D02*
X0128046Y0109597D01*
X0127850Y0107999D02*
X0125650Y0107999D01*
X0125650Y0106400D02*
X0128088Y0106400D01*
X0128861Y0104802D02*
X0125650Y0104802D01*
X0125650Y0103203D02*
X0130840Y0103203D01*
X0129168Y0101605D02*
X0125650Y0101605D01*
X0125650Y0100006D02*
X0128215Y0100006D01*
X0127850Y0098408D02*
X0125650Y0098408D01*
X0125650Y0096809D02*
X0127919Y0096809D01*
X0128581Y0095211D02*
X0125650Y0095211D01*
X0125650Y0093612D02*
X0130051Y0093612D01*
X0129577Y0092014D02*
X0125650Y0092014D01*
X0125650Y0090415D02*
X0128385Y0090415D01*
X0127850Y0088817D02*
X0125650Y0088817D01*
X0125650Y0087218D02*
X0127850Y0087218D01*
X0128412Y0085620D02*
X0125650Y0085620D01*
X0125650Y0084021D02*
X0129642Y0084021D01*
X0129986Y0082423D02*
X0125650Y0082423D01*
X0125650Y0080824D02*
X0128554Y0080824D01*
X0127892Y0079226D02*
X0125650Y0079226D01*
X0125650Y0077627D02*
X0127850Y0077627D01*
X0128242Y0076029D02*
X0125650Y0076029D01*
X0125650Y0074430D02*
X0129233Y0074430D01*
X0131738Y0072832D02*
X0125650Y0072832D01*
X0125650Y0071233D02*
X0144350Y0071233D01*
X0144350Y0069634D02*
X0125650Y0069634D01*
X0125650Y0068036D02*
X0144350Y0068036D01*
X0144350Y0066437D02*
X0125650Y0066437D01*
X0125650Y0064839D02*
X0144350Y0064839D01*
X0144350Y0063240D02*
X0125650Y0063240D01*
X0125650Y0061642D02*
X0144350Y0061642D01*
X0144350Y0060043D02*
X0136567Y0060043D01*
X0136800Y0058445D02*
X0144350Y0058445D01*
X0144350Y0056846D02*
X0136800Y0056846D01*
X0136800Y0055248D02*
X0144350Y0055248D01*
X0144350Y0053649D02*
X0136800Y0053649D01*
X0136800Y0052051D02*
X0144350Y0052051D01*
X0144546Y0050452D02*
X0136800Y0050452D01*
X0136800Y0048854D02*
X0145474Y0048854D01*
X0147072Y0047255D02*
X0136281Y0047255D01*
X0136002Y0045657D02*
X0148671Y0045657D01*
X0150269Y0044058D02*
X0136200Y0044058D01*
X0136200Y0042460D02*
X0151517Y0042460D01*
X0156273Y0036066D02*
X0136200Y0036066D01*
X0136200Y0037664D02*
X0191622Y0037664D01*
X0193220Y0039263D02*
X0132025Y0039263D01*
X0130475Y0039263D02*
X0110775Y0039263D01*
X0109225Y0039263D02*
X0068030Y0039263D01*
X0069628Y0037664D02*
X0105050Y0037664D01*
X0105050Y0036066D02*
X0071227Y0036066D01*
X0072825Y0034467D02*
X0105050Y0034467D01*
X0106339Y0032869D02*
X0074424Y0032869D01*
X0076022Y0031270D02*
X0151478Y0031270D01*
X0153076Y0032869D02*
X0134911Y0032869D01*
X0136200Y0034467D02*
X0154675Y0034467D01*
X0149879Y0029672D02*
X0090121Y0029672D01*
X0091719Y0028073D02*
X0148281Y0028073D01*
X0146682Y0026475D02*
X0093318Y0026475D01*
X0094916Y0024876D02*
X0145084Y0024876D01*
X0141408Y0023278D02*
X0138592Y0023278D01*
X0139808Y0021679D02*
X0140192Y0021679D01*
X0131408Y0023278D02*
X0128592Y0023278D01*
X0129808Y0021679D02*
X0130192Y0021679D01*
X0121408Y0023278D02*
X0118592Y0023278D01*
X0119808Y0021679D02*
X0120192Y0021679D01*
X0111408Y0023278D02*
X0108592Y0023278D01*
X0109808Y0021679D02*
X0110192Y0021679D01*
X0101408Y0023278D02*
X0098592Y0023278D01*
X0099808Y0021679D02*
X0100192Y0021679D01*
X0109225Y0032869D02*
X0110775Y0032869D01*
X0110775Y0034467D02*
X0109225Y0034467D01*
X0109225Y0036066D02*
X0110775Y0036066D01*
X0110775Y0037664D02*
X0109225Y0037664D01*
X0114950Y0037664D02*
X0126300Y0037664D01*
X0126300Y0036066D02*
X0114950Y0036066D01*
X0114950Y0034467D02*
X0126300Y0034467D01*
X0127589Y0032869D02*
X0113661Y0032869D01*
X0114950Y0040861D02*
X0126300Y0040861D01*
X0126300Y0042460D02*
X0114950Y0042460D01*
X0114950Y0044058D02*
X0126300Y0044058D01*
X0126498Y0045657D02*
X0114752Y0045657D01*
X0115031Y0047255D02*
X0126219Y0047255D01*
X0125700Y0048854D02*
X0115550Y0048854D01*
X0115550Y0058445D02*
X0116850Y0058445D01*
X0116850Y0060043D02*
X0115317Y0060043D01*
X0125650Y0060043D02*
X0125933Y0060043D01*
X0125700Y0058445D02*
X0125650Y0058445D01*
X0140762Y0072832D02*
X0144350Y0072832D01*
X0144350Y0074430D02*
X0143267Y0074430D01*
X0144258Y0076029D02*
X0144350Y0076029D01*
X0160650Y0076029D02*
X0163661Y0076029D01*
X0163661Y0077627D02*
X0160650Y0077627D01*
X0160650Y0079226D02*
X0163661Y0079226D01*
X0163661Y0080824D02*
X0160650Y0080824D01*
X0160650Y0082423D02*
X0163661Y0082423D01*
X0163661Y0084021D02*
X0160650Y0084021D01*
X0160650Y0085620D02*
X0163661Y0085620D01*
X0163661Y0087218D02*
X0160650Y0087218D01*
X0160650Y0088817D02*
X0163661Y0088817D01*
X0163661Y0090415D02*
X0160650Y0090415D01*
X0160650Y0092014D02*
X0163661Y0092014D01*
X0163661Y0093612D02*
X0160650Y0093612D01*
X0162133Y0095211D02*
X0163661Y0095211D01*
X0150878Y0106400D02*
X0144412Y0106400D01*
X0144650Y0106976D02*
X0143828Y0104991D01*
X0142309Y0103472D01*
X0141290Y0103050D01*
X0142309Y0102628D01*
X0143828Y0101109D01*
X0144541Y0099387D01*
X0145020Y0100542D01*
X0175020Y0130542D01*
X0176258Y0131780D01*
X0177875Y0132450D01*
X0180013Y0132450D01*
X0180191Y0132628D01*
X0182043Y0133395D01*
X0181407Y0133602D01*
X0180734Y0133945D01*
X0180123Y0134389D01*
X0179589Y0134923D01*
X0179145Y0135534D01*
X0178802Y0136207D01*
X0178568Y0136926D01*
X0178450Y0137672D01*
X0178450Y0137850D01*
X0186050Y0137850D01*
X0186050Y0138250D01*
X0178450Y0138250D01*
X0178450Y0138428D01*
X0178568Y0139174D01*
X0178802Y0139893D01*
X0179145Y0140566D01*
X0179589Y0141177D01*
X0180123Y0141711D01*
X0180734Y0142155D01*
X0181407Y0142498D01*
X0182043Y0142705D01*
X0180191Y0143472D01*
X0178672Y0144991D01*
X0177850Y0146976D01*
X0177850Y0149124D01*
X0178173Y0149904D01*
X0175677Y0152400D01*
X0142537Y0152400D01*
X0143828Y0151109D01*
X0144650Y0149124D01*
X0144650Y0146976D01*
X0143828Y0144991D01*
X0142309Y0143472D01*
X0141290Y0143050D01*
X0142309Y0142628D01*
X0143828Y0141109D01*
X0144650Y0139124D01*
X0144650Y0136976D01*
X0143828Y0134991D01*
X0142309Y0133472D01*
X0141290Y0133050D01*
X0142309Y0132628D01*
X0143828Y0131109D01*
X0144650Y0129124D01*
X0144650Y0126976D01*
X0143828Y0124991D01*
X0142309Y0123472D01*
X0141290Y0123050D01*
X0142309Y0122628D01*
X0143828Y0121109D01*
X0144650Y0119124D01*
X0144650Y0116976D01*
X0143828Y0114991D01*
X0142309Y0113472D01*
X0141290Y0113050D01*
X0142309Y0112628D01*
X0143828Y0111109D01*
X0144650Y0109124D01*
X0144650Y0106976D01*
X0144650Y0107999D02*
X0152476Y0107999D01*
X0154075Y0109597D02*
X0144454Y0109597D01*
X0143741Y0111196D02*
X0155673Y0111196D01*
X0157272Y0112794D02*
X0141907Y0112794D01*
X0143230Y0114393D02*
X0158870Y0114393D01*
X0160469Y0115991D02*
X0144242Y0115991D01*
X0144650Y0117590D02*
X0162067Y0117590D01*
X0163666Y0119188D02*
X0144623Y0119188D01*
X0143961Y0120787D02*
X0165264Y0120787D01*
X0166863Y0122385D02*
X0142551Y0122385D01*
X0142821Y0123984D02*
X0168461Y0123984D01*
X0170060Y0125582D02*
X0144073Y0125582D01*
X0144650Y0127181D02*
X0171658Y0127181D01*
X0173257Y0128779D02*
X0144650Y0128779D01*
X0144131Y0130378D02*
X0174855Y0130378D01*
X0176732Y0131976D02*
X0142960Y0131976D01*
X0142412Y0133575D02*
X0181490Y0133575D01*
X0179407Y0135173D02*
X0143903Y0135173D01*
X0144566Y0136772D02*
X0178618Y0136772D01*
X0178450Y0138370D02*
X0144650Y0138370D01*
X0144300Y0139969D02*
X0178841Y0139969D01*
X0179979Y0141568D02*
X0143369Y0141568D01*
X0141570Y0143166D02*
X0180930Y0143166D01*
X0178899Y0144765D02*
X0143601Y0144765D01*
X0144396Y0146363D02*
X0178104Y0146363D01*
X0177850Y0147962D02*
X0144650Y0147962D01*
X0144469Y0149560D02*
X0178031Y0149560D01*
X0176919Y0151159D02*
X0143778Y0151159D01*
X0130538Y0160750D02*
X0046684Y0160750D01*
X0046450Y0159151D02*
X0128629Y0159151D01*
X0127030Y0157553D02*
X0045420Y0157553D01*
X0046284Y0162348D02*
X0198050Y0162348D01*
X0198050Y0160750D02*
X0179462Y0160750D01*
X0181371Y0159151D02*
X0198050Y0159151D01*
X0198050Y0157553D02*
X0182970Y0157553D01*
X0184568Y0155954D02*
X0198050Y0155954D01*
X0198050Y0154356D02*
X0186167Y0154356D01*
X0191997Y0152757D02*
X0198050Y0152757D01*
X0198050Y0151159D02*
X0193778Y0151159D01*
X0194469Y0149560D02*
X0198050Y0149560D01*
X0198050Y0147962D02*
X0194650Y0147962D01*
X0194396Y0146363D02*
X0198050Y0146363D01*
X0198050Y0144765D02*
X0193601Y0144765D01*
X0191570Y0143166D02*
X0198050Y0143166D01*
X0198050Y0141568D02*
X0192521Y0141568D01*
X0193659Y0139969D02*
X0198050Y0139969D01*
X0198050Y0138370D02*
X0194050Y0138370D01*
X0193882Y0136772D02*
X0198050Y0136772D01*
X0198050Y0135173D02*
X0193093Y0135173D01*
X0191010Y0133575D02*
X0198050Y0133575D01*
X0198050Y0131976D02*
X0192960Y0131976D01*
X0194131Y0130378D02*
X0198050Y0130378D01*
X0198050Y0128779D02*
X0194650Y0128779D01*
X0194650Y0127181D02*
X0198050Y0127181D01*
X0198050Y0125582D02*
X0194073Y0125582D01*
X0192821Y0123984D02*
X0198050Y0123984D01*
X0198050Y0122385D02*
X0192551Y0122385D01*
X0193961Y0120787D02*
X0198050Y0120787D01*
X0198050Y0119188D02*
X0194623Y0119188D01*
X0194650Y0117590D02*
X0198050Y0117590D01*
X0198050Y0115991D02*
X0194242Y0115991D01*
X0193230Y0114393D02*
X0198266Y0114393D01*
X0199480Y0112794D02*
X0191907Y0112794D01*
X0193741Y0111196D02*
X0201079Y0111196D01*
X0202677Y0109597D02*
X0194454Y0109597D01*
X0194650Y0107999D02*
X0224735Y0107999D01*
X0224735Y0106400D02*
X0194412Y0106400D01*
X0193638Y0104802D02*
X0224735Y0104802D01*
X0224735Y0103203D02*
X0191660Y0103203D01*
X0193332Y0101605D02*
X0212481Y0101605D01*
X0212246Y0100006D02*
X0194285Y0100006D01*
X0194650Y0098408D02*
X0212246Y0098408D01*
X0212246Y0096809D02*
X0194581Y0096809D01*
X0193919Y0095211D02*
X0212246Y0095211D01*
X0212246Y0093612D02*
X0192449Y0093612D01*
X0192923Y0092014D02*
X0212246Y0092014D01*
X0212336Y0090415D02*
X0194115Y0090415D01*
X0194650Y0088817D02*
X0212246Y0088817D01*
X0212246Y0087218D02*
X0194650Y0087218D01*
X0194088Y0085620D02*
X0212246Y0085620D01*
X0211728Y0084021D02*
X0192858Y0084021D01*
X0191241Y0082423D02*
X0210130Y0082423D01*
X0208531Y0080824D02*
X0193168Y0080824D01*
X0193915Y0079226D02*
X0207240Y0079226D01*
X0207000Y0077627D02*
X0194043Y0077627D01*
X0194050Y0077672D02*
X0193932Y0076926D01*
X0193698Y0076207D01*
X0193355Y0075534D01*
X0192911Y0074923D01*
X0192377Y0074389D01*
X0191766Y0073945D01*
X0191093Y0073602D01*
X0190374Y0073368D01*
X0189628Y0073250D01*
X0186450Y0073250D01*
X0186450Y0077850D01*
X0194050Y0077850D01*
X0194050Y0077672D01*
X0193607Y0076029D02*
X0207000Y0076029D01*
X0207000Y0074430D02*
X0192418Y0074430D01*
X0186450Y0074430D02*
X0186050Y0074430D01*
X0186050Y0076029D02*
X0186450Y0076029D01*
X0186450Y0077627D02*
X0186050Y0077627D01*
X0180082Y0074430D02*
X0179400Y0074430D01*
X0179400Y0072832D02*
X0207000Y0072832D01*
X0207000Y0071233D02*
X0179400Y0071233D01*
X0179400Y0069634D02*
X0207000Y0069634D01*
X0207000Y0068036D02*
X0179400Y0068036D01*
X0179400Y0066437D02*
X0207000Y0066437D01*
X0207000Y0064839D02*
X0179400Y0064839D01*
X0179400Y0063240D02*
X0207000Y0063240D01*
X0207000Y0061642D02*
X0179400Y0061642D01*
X0179400Y0060043D02*
X0207000Y0060043D01*
X0207000Y0058445D02*
X0179400Y0058445D01*
X0179400Y0056846D02*
X0207000Y0056846D01*
X0207000Y0055248D02*
X0179400Y0055248D01*
X0179400Y0053649D02*
X0207000Y0053649D01*
X0204333Y0052051D02*
X0179400Y0052051D01*
X0179400Y0050452D02*
X0203448Y0050452D01*
X0202811Y0048854D02*
X0179400Y0048854D01*
X0178916Y0047255D02*
X0201213Y0047255D01*
X0199614Y0045657D02*
X0177579Y0045657D01*
X0175981Y0044058D02*
X0198016Y0044058D01*
X0196417Y0042460D02*
X0170893Y0042460D01*
X0165229Y0042460D02*
X0160983Y0042460D01*
X0161662Y0044058D02*
X0163494Y0044058D01*
X0162820Y0045657D02*
X0161662Y0045657D01*
X0161662Y0047255D02*
X0162649Y0047255D01*
X0162911Y0048854D02*
X0161662Y0048854D01*
X0161662Y0050452D02*
X0163715Y0050452D01*
X0165764Y0052051D02*
X0160761Y0052051D01*
X0160196Y0055248D02*
X0164115Y0055248D01*
X0163077Y0056846D02*
X0161234Y0056846D01*
X0161662Y0058445D02*
X0162649Y0058445D01*
X0162654Y0060043D02*
X0161657Y0060043D01*
X0160995Y0061642D02*
X0163316Y0061642D01*
X0163661Y0063240D02*
X0160650Y0063240D01*
X0160650Y0064839D02*
X0163661Y0064839D01*
X0163661Y0066437D02*
X0160650Y0066437D01*
X0160650Y0068036D02*
X0163661Y0068036D01*
X0163661Y0069634D02*
X0160650Y0069634D01*
X0160650Y0071233D02*
X0163661Y0071233D01*
X0163661Y0072832D02*
X0160650Y0072832D01*
X0160650Y0074430D02*
X0163661Y0074430D01*
X0166729Y0053649D02*
X0157582Y0053649D01*
X0154918Y0053649D02*
X0153150Y0053649D01*
X0169393Y0053649D02*
X0170600Y0053649D01*
X0170600Y0052051D02*
X0170358Y0052051D01*
X0194819Y0040861D02*
X0136200Y0040861D01*
X0132025Y0037664D02*
X0130475Y0037664D01*
X0130475Y0036066D02*
X0132025Y0036066D01*
X0132025Y0034467D02*
X0130475Y0034467D01*
X0130475Y0032869D02*
X0132025Y0032869D01*
X0085600Y0053649D02*
X0084393Y0053649D01*
X0081729Y0053649D02*
X0072582Y0053649D01*
X0075196Y0055248D02*
X0079115Y0055248D01*
X0078077Y0056846D02*
X0076234Y0056846D01*
X0076662Y0058445D02*
X0077649Y0058445D01*
X0077654Y0060043D02*
X0076657Y0060043D01*
X0075995Y0061642D02*
X0078316Y0061642D01*
X0078661Y0063240D02*
X0075650Y0063240D01*
X0076761Y0064839D02*
X0078661Y0064839D01*
X0078661Y0066437D02*
X0078360Y0066437D01*
X0065506Y0076029D02*
X0059258Y0076029D01*
X0058267Y0074430D02*
X0063907Y0074430D01*
X0062309Y0072832D02*
X0055762Y0072832D01*
X0060686Y0077627D02*
X0065600Y0077627D01*
X0065600Y0079226D02*
X0062874Y0079226D01*
X0064141Y0080824D02*
X0065600Y0080824D01*
X0065600Y0082423D02*
X0064250Y0082423D01*
X0064250Y0084021D02*
X0065600Y0084021D01*
X0065600Y0085620D02*
X0064250Y0085620D01*
X0064250Y0087218D02*
X0065600Y0087218D01*
X0065600Y0088817D02*
X0064250Y0088817D01*
X0064250Y0090415D02*
X0065600Y0090415D01*
X0065600Y0092014D02*
X0064250Y0092014D01*
X0064250Y0093612D02*
X0065600Y0093612D01*
X0065600Y0095211D02*
X0064250Y0095211D01*
X0064250Y0096809D02*
X0065600Y0096809D01*
X0065600Y0098408D02*
X0064250Y0098408D01*
X0064250Y0100006D02*
X0065600Y0100006D01*
X0065600Y0101605D02*
X0064250Y0101605D01*
X0064250Y0103203D02*
X0065600Y0103203D01*
X0065600Y0104802D02*
X0064250Y0104802D01*
X0064250Y0106400D02*
X0065600Y0106400D01*
X0065734Y0107999D02*
X0064250Y0107999D01*
X0064250Y0109597D02*
X0066575Y0109597D01*
X0068173Y0111196D02*
X0064250Y0111196D01*
X0064250Y0112794D02*
X0069772Y0112794D01*
X0071370Y0114393D02*
X0064250Y0114393D01*
X0064250Y0115991D02*
X0072969Y0115991D01*
X0074567Y0117590D02*
X0064250Y0117590D01*
X0064250Y0119188D02*
X0076166Y0119188D01*
X0077764Y0120787D02*
X0064250Y0120787D01*
X0064250Y0122385D02*
X0079363Y0122385D01*
X0080961Y0123984D02*
X0064250Y0123984D01*
X0064250Y0125582D02*
X0082560Y0125582D01*
X0084158Y0127181D02*
X0064250Y0127181D01*
X0064250Y0128779D02*
X0085757Y0128779D01*
X0087355Y0130378D02*
X0064250Y0130378D01*
X0064250Y0131976D02*
X0089232Y0131976D01*
X0087520Y0130542D02*
X0087520Y0130542D01*
X0094407Y0135173D02*
X0064250Y0135173D01*
X0064250Y0133575D02*
X0096490Y0133575D01*
X0093618Y0136772D02*
X0064250Y0136772D01*
X0064250Y0138370D02*
X0093450Y0138370D01*
X0093841Y0139969D02*
X0064250Y0139969D01*
X0064250Y0141568D02*
X0094979Y0141568D01*
X0095930Y0143166D02*
X0064250Y0143166D01*
X0064250Y0144765D02*
X0093899Y0144765D01*
X0093104Y0146363D02*
X0064250Y0146363D01*
X0064250Y0147962D02*
X0092850Y0147962D01*
X0093031Y0149560D02*
X0067427Y0149560D01*
X0068746Y0151159D02*
X0093722Y0151159D01*
X0095503Y0152757D02*
X0069184Y0152757D01*
X0068988Y0154356D02*
X0123833Y0154356D01*
X0125432Y0155954D02*
X0068013Y0155954D01*
X0061987Y0155954D02*
X0061763Y0155954D01*
X0055737Y0155954D02*
X0028000Y0155954D01*
X0028000Y0154356D02*
X0054762Y0154356D01*
X0045503Y0152757D02*
X0028000Y0152757D01*
X0028000Y0151159D02*
X0043722Y0151159D01*
X0043031Y0149560D02*
X0028000Y0149560D01*
X0028000Y0147962D02*
X0041919Y0147962D01*
X0040320Y0146363D02*
X0028000Y0146363D01*
X0028000Y0144765D02*
X0038722Y0144765D01*
X0033745Y0143166D02*
X0028000Y0143166D01*
X0027633Y0141568D02*
X0033397Y0141568D01*
X0033397Y0139969D02*
X0026162Y0139969D01*
X0025172Y0138370D02*
X0033397Y0138370D01*
X0033397Y0136772D02*
X0026771Y0136772D01*
X0028369Y0135173D02*
X0033533Y0135173D01*
X0033397Y0133575D02*
X0029968Y0133575D01*
X0030500Y0131976D02*
X0033397Y0131976D01*
X0033397Y0130378D02*
X0030500Y0130378D01*
X0030500Y0128779D02*
X0033397Y0128779D01*
X0034523Y0127181D02*
X0030500Y0127181D01*
X0030500Y0125582D02*
X0035750Y0125582D01*
X0035750Y0123984D02*
X0030500Y0123984D01*
X0030500Y0122385D02*
X0035750Y0122385D01*
X0035750Y0120787D02*
X0030500Y0120787D01*
X0030500Y0119188D02*
X0036067Y0119188D01*
X0037051Y0118007D02*
X0037051Y0118007D01*
X0037468Y0117590D02*
X0030500Y0117590D01*
X0030500Y0115991D02*
X0039066Y0115991D01*
X0040665Y0114393D02*
X0030500Y0114393D01*
X0030500Y0112794D02*
X0042263Y0112794D01*
X0043759Y0111196D02*
X0030500Y0111196D01*
X0030500Y0109597D02*
X0043046Y0109597D01*
X0042850Y0107999D02*
X0030500Y0107999D01*
X0030500Y0106400D02*
X0043088Y0106400D01*
X0043861Y0104802D02*
X0030500Y0104802D01*
X0030500Y0103203D02*
X0045840Y0103203D01*
X0044168Y0101605D02*
X0030500Y0101605D01*
X0030500Y0100006D02*
X0043215Y0100006D01*
X0042850Y0098408D02*
X0030500Y0098408D01*
X0030500Y0096809D02*
X0042919Y0096809D01*
X0043581Y0095211D02*
X0030500Y0095211D01*
X0075761Y0052051D02*
X0080764Y0052051D01*
X0078715Y0050452D02*
X0076662Y0050452D01*
X0076662Y0048854D02*
X0077911Y0048854D01*
X0077649Y0047255D02*
X0076662Y0047255D01*
X0076662Y0045657D02*
X0077820Y0045657D01*
X0078494Y0044058D02*
X0076662Y0044058D01*
X0075983Y0042460D02*
X0080229Y0042460D01*
X0061408Y0023278D02*
X0058592Y0023278D01*
X0059808Y0021679D02*
X0060192Y0021679D01*
X0051408Y0023278D02*
X0048592Y0023278D01*
X0049808Y0021679D02*
X0050192Y0021679D01*
X0021036Y0005694D02*
X0019641Y0005694D01*
X0019753Y0007293D02*
X0020038Y0007293D01*
X0015184Y0007293D02*
X0014816Y0007293D01*
X0014816Y0008891D02*
X0015184Y0008891D01*
X0015184Y0005694D02*
X0014816Y0005694D01*
X0016950Y0034467D02*
X0017271Y0034467D01*
X0141660Y0103203D02*
X0147681Y0103203D01*
X0149279Y0104802D02*
X0143638Y0104802D01*
X0143332Y0101605D02*
X0146082Y0101605D01*
X0144798Y0100006D02*
X0144285Y0100006D01*
X0196250Y0103050D02*
X0197697Y0104497D01*
X0228504Y0104497D01*
X0228504Y0064054D01*
X0233750Y0069300D01*
X0245000Y0069300D01*
X0252500Y0061800D01*
X0260000Y0061800D01*
X0261250Y0060550D01*
X0261250Y0054428D01*
X0261575Y0054103D01*
X0261391Y0053649D02*
X0261759Y0053649D01*
X0261759Y0052051D02*
X0261391Y0052051D01*
X0261391Y0050452D02*
X0261759Y0050452D01*
X0261759Y0048854D02*
X0261391Y0048854D01*
X0259401Y0047255D02*
X0277073Y0047255D01*
X0277234Y0048854D02*
X0270804Y0048854D01*
X0270855Y0049043D02*
X0270855Y0053919D01*
X0267271Y0053919D01*
X0267271Y0047480D01*
X0269292Y0047480D01*
X0269750Y0047603D01*
X0270160Y0047840D01*
X0270495Y0048175D01*
X0270732Y0048586D01*
X0270855Y0049043D01*
X0270855Y0050452D02*
X0277297Y0050452D01*
X0277350Y0052051D02*
X0270855Y0052051D01*
X0270855Y0053649D02*
X0277350Y0053649D01*
X0277350Y0055248D02*
X0270855Y0055248D01*
X0270855Y0056846D02*
X0277350Y0056846D01*
X0277350Y0058445D02*
X0270855Y0058445D01*
X0270483Y0060043D02*
X0277350Y0060043D01*
X0277350Y0061642D02*
X0241446Y0061642D01*
X0241684Y0063240D02*
X0277350Y0063240D01*
X0277350Y0064839D02*
X0241288Y0064839D01*
X0240030Y0066437D02*
X0277350Y0066437D01*
X0277350Y0068036D02*
X0226662Y0068036D01*
X0226691Y0069634D02*
X0277350Y0069634D01*
X0277350Y0071233D02*
X0226691Y0071233D01*
X0226691Y0072832D02*
X0277350Y0072832D01*
X0277350Y0074430D02*
X0226691Y0074430D01*
X0226691Y0076029D02*
X0277350Y0076029D01*
X0277350Y0077627D02*
X0247994Y0077627D01*
X0248980Y0079226D02*
X0277350Y0079226D01*
X0277350Y0080824D02*
X0249184Y0080824D01*
X0248753Y0082423D02*
X0277350Y0082423D01*
X0277350Y0084021D02*
X0248964Y0084021D01*
X0250562Y0085620D02*
X0277350Y0085620D01*
X0277350Y0087218D02*
X0252161Y0087218D01*
X0253759Y0088817D02*
X0277350Y0088817D01*
X0277350Y0090415D02*
X0255358Y0090415D01*
X0256956Y0092014D02*
X0277350Y0092014D01*
X0277350Y0093612D02*
X0258555Y0093612D01*
X0259250Y0095211D02*
X0277350Y0095211D01*
X0277350Y0096809D02*
X0259250Y0096809D01*
X0253250Y0096809D02*
X0226691Y0096809D01*
X0226691Y0095211D02*
X0251668Y0095211D01*
X0250070Y0093612D02*
X0226691Y0093612D01*
X0226691Y0092014D02*
X0248471Y0092014D01*
X0246873Y0090415D02*
X0226601Y0090415D01*
X0226691Y0088817D02*
X0245274Y0088817D01*
X0243675Y0087218D02*
X0226691Y0087218D01*
X0226691Y0085620D02*
X0242299Y0085620D01*
X0242000Y0084021D02*
X0226691Y0084021D01*
X0226691Y0082423D02*
X0241247Y0082423D01*
X0240816Y0080824D02*
X0226691Y0080824D01*
X0226594Y0079226D02*
X0241020Y0079226D01*
X0242006Y0077627D02*
X0226691Y0077627D01*
X0226691Y0066437D02*
X0234970Y0066437D01*
X0231296Y0064839D02*
X0226691Y0064839D01*
X0226691Y0063240D02*
X0229698Y0063240D01*
X0228504Y0064054D02*
X0225000Y0060550D01*
X0220010Y0060550D01*
X0219469Y0060009D01*
X0219653Y0059824D02*
X0219653Y0056240D01*
X0224135Y0056240D01*
X0224135Y0048803D01*
X0224501Y0047921D01*
X0225176Y0047246D01*
X0226058Y0046880D01*
X0230950Y0046880D01*
X0231016Y0046908D01*
X0231016Y0046233D01*
X0230203Y0045420D01*
X0229566Y0043882D01*
X0229566Y0042218D01*
X0230203Y0040680D01*
X0231083Y0039800D01*
X0223743Y0039800D01*
X0219250Y0044293D01*
X0219250Y0052397D01*
X0218793Y0053499D01*
X0216052Y0056240D01*
X0219284Y0056240D01*
X0219284Y0059824D01*
X0219653Y0059824D01*
X0219653Y0058445D02*
X0219284Y0058445D01*
X0219284Y0056846D02*
X0219653Y0056846D01*
X0217045Y0055248D02*
X0224135Y0055248D01*
X0224135Y0053649D02*
X0218643Y0053649D01*
X0219250Y0052051D02*
X0224135Y0052051D01*
X0224135Y0050452D02*
X0219250Y0050452D01*
X0219250Y0048854D02*
X0224135Y0048854D01*
X0225166Y0047255D02*
X0219250Y0047255D01*
X0219250Y0045657D02*
X0230439Y0045657D01*
X0229639Y0044058D02*
X0219484Y0044058D01*
X0221083Y0042460D02*
X0229566Y0042460D01*
X0230128Y0040861D02*
X0222681Y0040861D01*
X0222500Y0024300D02*
X0220000Y0021800D01*
X0220000Y0014300D01*
X0215000Y0009300D01*
X0219962Y0007293D02*
X0220689Y0007293D01*
X0221885Y0005694D02*
X0218964Y0005694D01*
X0224816Y0005694D02*
X0225184Y0005694D01*
X0225184Y0007293D02*
X0224816Y0007293D01*
X0224816Y0008891D02*
X0225184Y0008891D01*
X0225184Y0010490D02*
X0224816Y0010490D01*
X0224816Y0012088D02*
X0225184Y0012088D01*
X0228849Y0012088D02*
X0231151Y0012088D01*
X0230389Y0010490D02*
X0229611Y0010490D01*
X0229747Y0008891D02*
X0230253Y0008891D01*
X0230689Y0007293D02*
X0229311Y0007293D01*
X0228115Y0005694D02*
X0231885Y0005694D01*
X0234816Y0010490D02*
X0235184Y0010490D01*
X0235184Y0012088D02*
X0234816Y0012088D01*
X0236860Y0013687D02*
X0257850Y0013687D01*
X0260050Y0015285D02*
X0237560Y0015285D01*
X0239103Y0016884D02*
X0261840Y0016884D01*
X0263439Y0018482D02*
X0239682Y0018482D01*
X0239688Y0020081D02*
X0243372Y0020081D01*
X0232440Y0015285D02*
X0227560Y0015285D01*
X0238849Y0012088D02*
X0255650Y0012088D01*
X0252900Y0010490D02*
X0239611Y0010490D01*
X0239747Y0008891D02*
X0249762Y0008891D01*
X0245776Y0007293D02*
X0239311Y0007293D01*
X0238115Y0005694D02*
X0240648Y0005694D01*
X0253162Y0021679D02*
X0253531Y0021679D01*
X0253531Y0023278D02*
X0253162Y0023278D01*
X0262047Y0034467D02*
X0262047Y0034467D01*
X0259547Y0036800D02*
X0262047Y0039300D01*
X0259547Y0036800D02*
X0253346Y0036800D01*
X0256813Y0040861D02*
X0258072Y0040861D01*
X0258663Y0042460D02*
X0256684Y0042460D01*
X0257751Y0044058D02*
X0276566Y0044058D01*
X0276313Y0042460D02*
X0270382Y0042460D01*
X0271328Y0040861D02*
X0276060Y0040861D01*
X0275560Y0039263D02*
X0271328Y0039263D01*
X0271328Y0037664D02*
X0275040Y0037664D01*
X0274521Y0036066D02*
X0270253Y0036066D01*
X0271673Y0034467D02*
X0274002Y0034467D01*
X0273332Y0032869D02*
X0271928Y0032869D01*
X0271928Y0031270D02*
X0272518Y0031270D01*
X0267953Y0036066D02*
X0267953Y0036066D01*
X0267953Y0037664D02*
X0267953Y0037664D01*
X0267953Y0039263D02*
X0267953Y0039263D01*
X0265652Y0036066D02*
X0265357Y0036066D01*
X0265431Y0042460D02*
X0265523Y0042460D01*
X0267953Y0042460D02*
X0267953Y0042460D01*
X0267271Y0048854D02*
X0266902Y0048854D01*
X0266902Y0050452D02*
X0267271Y0050452D01*
X0267271Y0052051D02*
X0266902Y0052051D01*
X0266902Y0053649D02*
X0267271Y0053649D01*
X0267271Y0055248D02*
X0266902Y0055248D01*
X0266902Y0056846D02*
X0267271Y0056846D01*
X0267271Y0058445D02*
X0266902Y0058445D01*
X0266902Y0060043D02*
X0267271Y0060043D01*
X0261759Y0060043D02*
X0261391Y0060043D01*
X0261391Y0058445D02*
X0261759Y0058445D01*
X0261759Y0056846D02*
X0261391Y0056846D01*
X0261391Y0055248D02*
X0261759Y0055248D01*
X0250735Y0055248D02*
X0250367Y0055248D01*
X0250551Y0054103D02*
X0250551Y0059851D01*
X0252500Y0061800D01*
X0250735Y0060043D02*
X0250367Y0060043D01*
X0250367Y0058445D02*
X0250735Y0058445D01*
X0250735Y0056846D02*
X0250367Y0056846D01*
X0250367Y0053919D02*
X0250735Y0053919D01*
X0250735Y0047480D01*
X0252500Y0047480D01*
X0252594Y0047387D01*
X0252442Y0047234D01*
X0251668Y0047234D01*
X0250130Y0046597D01*
X0249375Y0045842D01*
X0248620Y0046597D01*
X0248039Y0046838D01*
X0248039Y0047110D01*
X0248367Y0047246D01*
X0248602Y0047480D01*
X0250367Y0047480D01*
X0250367Y0053919D01*
X0250367Y0053649D02*
X0250735Y0053649D01*
X0250735Y0052051D02*
X0250367Y0052051D01*
X0250367Y0050452D02*
X0250735Y0050452D01*
X0250735Y0048854D02*
X0250367Y0048854D01*
X0248377Y0047255D02*
X0252463Y0047255D01*
X0258914Y0045657D02*
X0276819Y0045657D01*
X0228099Y0061642D02*
X0226091Y0061642D01*
X0228320Y0098408D02*
X0228688Y0098408D01*
X0228688Y0100006D02*
X0228320Y0100006D01*
X0228320Y0101605D02*
X0228688Y0101605D01*
X0228688Y0103203D02*
X0228320Y0103203D01*
X0234016Y0104497D02*
X0234016Y0110284D01*
X0232500Y0111800D01*
X0205000Y0111800D01*
X0201250Y0115550D01*
X0201250Y0166800D01*
X0198750Y0169300D01*
X0163248Y0169300D01*
X0153248Y0179300D01*
X0158048Y0179025D02*
X0158048Y0182177D01*
X0157683Y0183059D01*
X0157008Y0183735D01*
X0156125Y0184100D01*
X0150371Y0184100D01*
X0149489Y0183735D01*
X0148813Y0183059D01*
X0148448Y0182177D01*
X0148448Y0182166D01*
X0148110Y0182504D01*
X0147575Y0182892D01*
X0146986Y0183192D01*
X0146358Y0183397D01*
X0145705Y0183500D01*
X0145374Y0183500D01*
X0145043Y0183500D01*
X0144391Y0183397D01*
X0143762Y0183192D01*
X0143173Y0182892D01*
X0142638Y0182504D01*
X0142170Y0182036D01*
X0141783Y0181503D01*
X0141569Y0182019D01*
X0140219Y0183369D01*
X0138455Y0184100D01*
X0136545Y0184100D01*
X0134781Y0183369D01*
X0133563Y0182151D01*
X0132345Y0183369D01*
X0130581Y0184100D01*
X0128671Y0184100D01*
X0126907Y0183369D01*
X0125689Y0182151D01*
X0124471Y0183369D01*
X0122707Y0184100D01*
X0121195Y0184100D01*
X0114701Y0190593D01*
X0113599Y0191050D01*
X0073743Y0191050D01*
X0069031Y0195761D01*
X0069538Y0196268D01*
X0070000Y0197384D01*
X0070462Y0196268D01*
X0071968Y0194762D01*
X0073935Y0193947D01*
X0076065Y0193947D01*
X0078032Y0194762D01*
X0079538Y0196268D01*
X0080000Y0197384D01*
X0080462Y0196268D01*
X0081968Y0194762D01*
X0083935Y0193947D01*
X0086065Y0193947D01*
X0088032Y0194762D01*
X0089538Y0196268D01*
X0090000Y0197384D01*
X0090462Y0196268D01*
X0091968Y0194762D01*
X0093935Y0193947D01*
X0096065Y0193947D01*
X0098032Y0194762D01*
X0099538Y0196268D01*
X0100000Y0197384D01*
X0100462Y0196268D01*
X0101968Y0194762D01*
X0103935Y0193947D01*
X0106065Y0193947D01*
X0108032Y0194762D01*
X0109538Y0196268D01*
X0110000Y0197384D01*
X0110462Y0196268D01*
X0111968Y0194762D01*
X0113935Y0193947D01*
X0116065Y0193947D01*
X0118032Y0194762D01*
X0119538Y0196268D01*
X0120000Y0197384D01*
X0120462Y0196268D01*
X0121968Y0194762D01*
X0123935Y0193947D01*
X0126065Y0193947D01*
X0128032Y0194762D01*
X0129538Y0196268D01*
X0130000Y0197384D01*
X0130462Y0196268D01*
X0131968Y0194762D01*
X0133935Y0193947D01*
X0136065Y0193947D01*
X0138032Y0194762D01*
X0139538Y0196268D01*
X0140000Y0197384D01*
X0140462Y0196268D01*
X0141968Y0194762D01*
X0143935Y0193947D01*
X0146065Y0193947D01*
X0148032Y0194762D01*
X0149538Y0196268D01*
X0150000Y0197384D01*
X0150462Y0196268D01*
X0151968Y0194762D01*
X0153935Y0193947D01*
X0156065Y0193947D01*
X0158032Y0194762D01*
X0159538Y0196268D01*
X0160000Y0197384D01*
X0160462Y0196268D01*
X0161968Y0194762D01*
X0163935Y0193947D01*
X0166065Y0193947D01*
X0168032Y0194762D01*
X0169538Y0196268D01*
X0170000Y0197384D01*
X0170462Y0196268D01*
X0171968Y0194762D01*
X0173935Y0193947D01*
X0176065Y0193947D01*
X0178032Y0194762D01*
X0179538Y0196268D01*
X0180000Y0197384D01*
X0180462Y0196268D01*
X0181968Y0194762D01*
X0183935Y0193947D01*
X0186065Y0193947D01*
X0188032Y0194762D01*
X0189538Y0196268D01*
X0190000Y0197384D01*
X0190462Y0196268D01*
X0191968Y0194762D01*
X0193935Y0193947D01*
X0196065Y0193947D01*
X0198032Y0194762D01*
X0199538Y0196268D01*
X0200000Y0197384D01*
X0200462Y0196268D01*
X0201968Y0194762D01*
X0203935Y0193947D01*
X0206065Y0193947D01*
X0208032Y0194762D01*
X0209538Y0196268D01*
X0210000Y0197384D01*
X0210462Y0196268D01*
X0211968Y0194762D01*
X0213935Y0193947D01*
X0216065Y0193947D01*
X0218032Y0194762D01*
X0219538Y0196268D01*
X0220000Y0197384D01*
X0220462Y0196268D01*
X0221968Y0194762D01*
X0223935Y0193947D01*
X0226065Y0193947D01*
X0228032Y0194762D01*
X0229538Y0196268D01*
X0230000Y0197384D01*
X0230462Y0196268D01*
X0231968Y0194762D01*
X0233935Y0193947D01*
X0236065Y0193947D01*
X0238032Y0194762D01*
X0239538Y0196268D01*
X0240353Y0198235D01*
X0240353Y0200365D01*
X0239538Y0202332D01*
X0238032Y0203838D01*
X0236916Y0204300D01*
X0238032Y0204762D01*
X0239538Y0206268D01*
X0240353Y0208235D01*
X0240353Y0210365D01*
X0239538Y0212332D01*
X0238647Y0213223D01*
X0241054Y0212842D01*
X0248120Y0210546D01*
X0254740Y0207173D01*
X0260751Y0202805D01*
X0266005Y0197551D01*
X0270373Y0191540D01*
X0273746Y0184920D01*
X0274407Y0182886D01*
X0267543Y0189749D01*
X0266699Y0190593D01*
X0265597Y0191050D01*
X0250653Y0191050D01*
X0249551Y0190593D01*
X0245801Y0186843D01*
X0244957Y0185999D01*
X0244500Y0184897D01*
X0244500Y0183601D01*
X0244282Y0183511D01*
X0238336Y0183511D01*
X0236535Y0182765D01*
X0229724Y0175954D01*
X0228346Y0174576D01*
X0227600Y0172775D01*
X0227600Y0157580D01*
X0224220Y0154200D01*
X0222781Y0154200D01*
X0222540Y0154300D01*
X0223559Y0154722D01*
X0225078Y0156241D01*
X0225900Y0158226D01*
X0225900Y0160374D01*
X0225078Y0162359D01*
X0223559Y0163878D01*
X0221574Y0164700D01*
X0213426Y0164700D01*
X0211441Y0163878D01*
X0209922Y0162359D01*
X0209100Y0160374D01*
X0209100Y0158226D01*
X0209922Y0156241D01*
X0211441Y0154722D01*
X0212460Y0154300D01*
X0211441Y0153878D01*
X0209922Y0152359D01*
X0209100Y0150374D01*
X0209100Y0148226D01*
X0209922Y0146241D01*
X0211441Y0144722D01*
X0212460Y0144300D01*
X0211441Y0143878D01*
X0209922Y0142359D01*
X0209100Y0140374D01*
X0209100Y0138226D01*
X0209922Y0136241D01*
X0211441Y0134722D01*
X0213293Y0133955D01*
X0212657Y0133748D01*
X0211984Y0133405D01*
X0211373Y0132961D01*
X0210839Y0132427D01*
X0210395Y0131816D01*
X0210052Y0131143D01*
X0209818Y0130424D01*
X0209700Y0129678D01*
X0209700Y0129500D01*
X0217300Y0129500D01*
X0217300Y0129100D01*
X0209700Y0129100D01*
X0209700Y0128922D01*
X0209818Y0128176D01*
X0210052Y0127457D01*
X0210395Y0126784D01*
X0210839Y0126173D01*
X0211373Y0125639D01*
X0211984Y0125195D01*
X0212657Y0124852D01*
X0213293Y0124645D01*
X0211441Y0123878D01*
X0209922Y0122359D01*
X0209100Y0120374D01*
X0209100Y0118226D01*
X0209922Y0116241D01*
X0211163Y0115000D01*
X0206325Y0115000D01*
X0204450Y0116875D01*
X0204450Y0167437D01*
X0203963Y0168613D01*
X0201463Y0171113D01*
X0200563Y0172013D01*
X0199387Y0172500D01*
X0164574Y0172500D01*
X0158048Y0179025D01*
X0158048Y0179932D02*
X0183850Y0179932D01*
X0183850Y0181530D02*
X0158048Y0181530D01*
X0157613Y0183129D02*
X0183850Y0183129D01*
X0183850Y0184043D02*
X0183850Y0176563D01*
X0184261Y0175571D01*
X0185021Y0174811D01*
X0186013Y0174400D01*
X0190290Y0174400D01*
X0190713Y0174575D01*
X0191282Y0174811D01*
X0191282Y0174811D01*
X0191310Y0174839D01*
X0191374Y0174903D01*
X0191466Y0174811D01*
X0192458Y0174400D01*
X0195668Y0174400D01*
X0196660Y0174811D01*
X0196745Y0174896D01*
X0196831Y0174811D01*
X0197823Y0174400D01*
X0201032Y0174400D01*
X0201432Y0174565D01*
X0202025Y0174811D01*
X0202117Y0174903D01*
X0202209Y0174811D01*
X0203201Y0174400D01*
X0204275Y0174400D01*
X0205267Y0174811D01*
X0205873Y0175417D01*
X0205910Y0175380D01*
X0206060Y0175155D01*
X0206286Y0175004D01*
X0206479Y0174811D01*
X0206728Y0174708D01*
X0206952Y0174558D01*
X0207219Y0174504D01*
X0207471Y0174400D01*
X0207741Y0174400D01*
X0208005Y0174347D01*
X0208273Y0174400D01*
X0208545Y0174400D01*
X0208795Y0174503D01*
X0209059Y0174556D01*
X0209140Y0174610D01*
X0209646Y0174400D01*
X0212856Y0174400D01*
X0213400Y0174625D01*
X0213943Y0174400D01*
X0215018Y0174400D01*
X0216010Y0174811D01*
X0216616Y0175417D01*
X0217221Y0174811D01*
X0218214Y0174400D01*
X0219288Y0174400D01*
X0220280Y0174811D01*
X0221040Y0175571D01*
X0221451Y0176563D01*
X0221451Y0177637D01*
X0221040Y0178629D01*
X0219366Y0180303D01*
X0221040Y0181976D01*
X0221451Y0182968D01*
X0221451Y0184043D01*
X0221040Y0185035D01*
X0220280Y0185794D01*
X0219288Y0186205D01*
X0218214Y0186205D01*
X0217221Y0185794D01*
X0216616Y0185189D01*
X0216010Y0185794D01*
X0215018Y0186205D01*
X0213943Y0186205D01*
X0213400Y0185980D01*
X0212856Y0186205D01*
X0209646Y0186205D01*
X0209096Y0185977D01*
X0208545Y0186205D01*
X0207471Y0186205D01*
X0206479Y0185794D01*
X0205873Y0185189D01*
X0205836Y0185226D01*
X0205687Y0185450D01*
X0205460Y0185602D01*
X0205267Y0185794D01*
X0205018Y0185898D01*
X0204794Y0186048D01*
X0204527Y0186101D01*
X0204275Y0186205D01*
X0204005Y0186205D01*
X0203741Y0186258D01*
X0203473Y0186205D01*
X0203201Y0186205D01*
X0202952Y0186102D01*
X0202687Y0186050D01*
X0202460Y0185899D01*
X0202209Y0185794D01*
X0202117Y0185702D01*
X0202025Y0185794D01*
X0201361Y0186069D01*
X0201032Y0186205D01*
X0197823Y0186205D01*
X0196831Y0185794D01*
X0196745Y0185709D01*
X0196660Y0185794D01*
X0195668Y0186205D01*
X0192458Y0186205D01*
X0191466Y0185794D01*
X0191374Y0185702D01*
X0191282Y0185794D01*
X0190689Y0186040D01*
X0190290Y0186205D01*
X0186013Y0186205D01*
X0185021Y0185794D01*
X0184261Y0185035D01*
X0183850Y0184043D01*
X0184134Y0184727D02*
X0120567Y0184727D01*
X0118969Y0186326D02*
X0245283Y0186326D01*
X0244500Y0184727D02*
X0221167Y0184727D01*
X0221451Y0183129D02*
X0237414Y0183129D01*
X0235301Y0181530D02*
X0220594Y0181530D01*
X0219737Y0179932D02*
X0233702Y0179932D01*
X0232104Y0178333D02*
X0221162Y0178333D01*
X0221451Y0176735D02*
X0230505Y0176735D01*
X0229724Y0175954D02*
X0229724Y0175954D01*
X0228907Y0175136D02*
X0220605Y0175136D01*
X0216896Y0175136D02*
X0216335Y0175136D01*
X0206088Y0175136D02*
X0205593Y0175136D01*
X0200636Y0171939D02*
X0227600Y0171939D01*
X0227600Y0170341D02*
X0202235Y0170341D01*
X0203833Y0168742D02*
X0227600Y0168742D01*
X0227600Y0167144D02*
X0204450Y0167144D01*
X0204450Y0165545D02*
X0227600Y0165545D01*
X0227600Y0163947D02*
X0223393Y0163947D01*
X0225082Y0162348D02*
X0227600Y0162348D01*
X0227600Y0160750D02*
X0225744Y0160750D01*
X0225900Y0159151D02*
X0227600Y0159151D01*
X0227573Y0157553D02*
X0225621Y0157553D01*
X0225974Y0155954D02*
X0224791Y0155954D01*
X0224376Y0154356D02*
X0222674Y0154356D01*
X0212326Y0154356D02*
X0204450Y0154356D01*
X0204450Y0155954D02*
X0210209Y0155954D01*
X0209379Y0157553D02*
X0204450Y0157553D01*
X0204450Y0159151D02*
X0209100Y0159151D01*
X0209256Y0160750D02*
X0204450Y0160750D01*
X0204450Y0162348D02*
X0209918Y0162348D01*
X0211607Y0163947D02*
X0204450Y0163947D01*
X0198050Y0163947D02*
X0045021Y0163947D01*
X0042596Y0165545D02*
X0197979Y0165545D01*
X0184695Y0175136D02*
X0161937Y0175136D01*
X0160339Y0176735D02*
X0183850Y0176735D01*
X0183850Y0178333D02*
X0158740Y0178333D01*
X0154485Y0173538D02*
X0135980Y0173538D01*
X0134382Y0171939D02*
X0156083Y0171939D01*
X0157682Y0170341D02*
X0132783Y0170341D01*
X0132543Y0170101D02*
X0132543Y0170101D01*
X0139991Y0175136D02*
X0144815Y0175136D01*
X0145374Y0175136D02*
X0145374Y0175136D01*
X0145374Y0175100D02*
X0145374Y0179300D01*
X0145374Y0183500D01*
X0145374Y0179300D01*
X0145374Y0179300D01*
X0145374Y0179300D01*
X0145374Y0175100D01*
X0145933Y0175136D02*
X0149218Y0175136D01*
X0145374Y0176735D02*
X0145374Y0176735D01*
X0145374Y0178333D02*
X0145374Y0178333D01*
X0145374Y0179932D02*
X0145374Y0179932D01*
X0145374Y0181530D02*
X0145374Y0181530D01*
X0145374Y0183129D02*
X0145374Y0183129D01*
X0143637Y0183129D02*
X0140459Y0183129D01*
X0141772Y0181530D02*
X0141803Y0181530D01*
X0141633Y0176735D02*
X0142046Y0176735D01*
X0147111Y0183129D02*
X0148883Y0183129D01*
X0134541Y0183129D02*
X0132585Y0183129D01*
X0126667Y0183129D02*
X0124711Y0183129D01*
X0117370Y0187924D02*
X0246882Y0187924D01*
X0248480Y0189523D02*
X0115772Y0189523D01*
X0116961Y0194318D02*
X0123039Y0194318D01*
X0120813Y0195917D02*
X0119187Y0195917D01*
X0113039Y0194318D02*
X0106961Y0194318D01*
X0109187Y0195917D02*
X0110813Y0195917D01*
X0103039Y0194318D02*
X0096961Y0194318D01*
X0099187Y0195917D02*
X0100813Y0195917D01*
X0093039Y0194318D02*
X0086961Y0194318D01*
X0089187Y0195917D02*
X0090813Y0195917D01*
X0083039Y0194318D02*
X0076961Y0194318D01*
X0079187Y0195917D02*
X0080813Y0195917D01*
X0073039Y0194318D02*
X0070474Y0194318D01*
X0070813Y0195917D02*
X0069187Y0195917D01*
X0072073Y0192720D02*
X0269516Y0192720D01*
X0270586Y0191121D02*
X0073671Y0191121D01*
X0083480Y0173538D02*
X0085270Y0173538D01*
X0086868Y0171939D02*
X0081882Y0171939D01*
X0080283Y0170341D02*
X0088467Y0170341D01*
X0106997Y0152757D02*
X0122235Y0152757D01*
X0159280Y0168742D02*
X0039399Y0168742D01*
X0040997Y0167144D02*
X0160879Y0167144D01*
X0163536Y0173538D02*
X0227916Y0173538D01*
X0237970Y0170341D02*
X0242482Y0170341D01*
X0241541Y0168742D02*
X0237400Y0168742D01*
X0237400Y0167144D02*
X0241183Y0167144D01*
X0241257Y0165545D02*
X0237400Y0165545D01*
X0237400Y0163947D02*
X0241919Y0163947D01*
X0243250Y0162348D02*
X0237400Y0162348D01*
X0237400Y0160750D02*
X0243250Y0160750D01*
X0243250Y0159151D02*
X0237400Y0159151D01*
X0237400Y0157553D02*
X0243250Y0157553D01*
X0243250Y0155954D02*
X0237400Y0155954D01*
X0237309Y0154356D02*
X0243250Y0154356D01*
X0242583Y0152757D02*
X0236637Y0152757D01*
X0235038Y0151159D02*
X0241685Y0151159D01*
X0241685Y0149560D02*
X0233440Y0149560D01*
X0231841Y0147962D02*
X0241685Y0147962D01*
X0241721Y0146363D02*
X0230243Y0146363D01*
X0228105Y0144765D02*
X0241732Y0144765D01*
X0239649Y0143166D02*
X0224271Y0143166D01*
X0225406Y0141568D02*
X0237660Y0141568D01*
X0237066Y0139969D02*
X0225900Y0139969D01*
X0225900Y0138370D02*
X0237106Y0138370D01*
X0237861Y0136772D02*
X0225298Y0136772D01*
X0224010Y0135173D02*
X0240278Y0135173D01*
X0241840Y0133575D02*
X0222683Y0133575D01*
X0224489Y0131976D02*
X0242303Y0131976D01*
X0242285Y0130378D02*
X0225189Y0130378D01*
X0225277Y0128779D02*
X0242285Y0128779D01*
X0242285Y0129519D02*
X0242285Y0127498D01*
X0242407Y0127040D01*
X0242644Y0126630D01*
X0242979Y0126295D01*
X0243390Y0126058D01*
X0243848Y0125935D01*
X0246066Y0125935D01*
X0246066Y0129519D01*
X0242285Y0129519D01*
X0242370Y0127181D02*
X0224807Y0127181D01*
X0223549Y0125582D02*
X0277350Y0125582D01*
X0277350Y0123984D02*
X0223303Y0123984D01*
X0225051Y0122385D02*
X0277350Y0122385D01*
X0277350Y0120787D02*
X0225729Y0120787D01*
X0225900Y0119188D02*
X0277350Y0119188D01*
X0277350Y0117590D02*
X0225637Y0117590D01*
X0224828Y0115991D02*
X0277350Y0115991D01*
X0277350Y0114393D02*
X0234433Y0114393D01*
X0236031Y0112794D02*
X0277350Y0112794D01*
X0277350Y0111196D02*
X0270573Y0111196D01*
X0271455Y0109597D02*
X0277350Y0109597D01*
X0277350Y0107999D02*
X0271455Y0107999D01*
X0271455Y0106400D02*
X0277350Y0106400D01*
X0277350Y0104802D02*
X0271455Y0104802D01*
X0271455Y0103203D02*
X0277350Y0103203D01*
X0277350Y0101605D02*
X0271455Y0101605D01*
X0271455Y0100006D02*
X0277350Y0100006D01*
X0277350Y0098408D02*
X0271128Y0098408D01*
X0272598Y0125935D02*
X0274816Y0125935D01*
X0274816Y0129519D01*
X0271035Y0129519D01*
X0271035Y0127498D01*
X0271157Y0127040D01*
X0271394Y0126630D01*
X0271729Y0126295D01*
X0272140Y0126058D01*
X0272598Y0125935D01*
X0271120Y0127181D02*
X0266380Y0127181D01*
X0266465Y0128779D02*
X0271035Y0128779D01*
X0271035Y0130378D02*
X0266465Y0130378D01*
X0266447Y0131976D02*
X0271053Y0131976D01*
X0270590Y0133575D02*
X0266910Y0133575D01*
X0267065Y0135173D02*
X0267778Y0135173D01*
X0269722Y0135173D02*
X0270435Y0135173D01*
X0274816Y0128779D02*
X0275184Y0128779D01*
X0275184Y0127181D02*
X0274816Y0127181D01*
X0262684Y0127181D02*
X0262316Y0127181D01*
X0262316Y0125935D02*
X0260098Y0125935D01*
X0259640Y0126058D01*
X0259229Y0126295D01*
X0258894Y0126630D01*
X0258657Y0127040D01*
X0258535Y0127498D01*
X0258535Y0129519D01*
X0262316Y0129519D01*
X0262316Y0125935D01*
X0262316Y0128779D02*
X0262684Y0128779D01*
X0258535Y0128779D02*
X0250215Y0128779D01*
X0250215Y0130378D02*
X0258535Y0130378D01*
X0258553Y0131976D02*
X0250197Y0131976D01*
X0250660Y0133575D02*
X0258090Y0133575D01*
X0256528Y0135173D02*
X0250815Y0135173D01*
X0250815Y0136772D02*
X0254111Y0136772D01*
X0253356Y0138370D02*
X0250815Y0138370D01*
X0250815Y0139969D02*
X0253316Y0139969D01*
X0253910Y0141568D02*
X0250815Y0141568D01*
X0250815Y0143166D02*
X0255899Y0143166D01*
X0257982Y0144765D02*
X0250768Y0144765D01*
X0250779Y0146363D02*
X0257971Y0146363D01*
X0257935Y0147962D02*
X0250815Y0147962D01*
X0250815Y0149560D02*
X0257935Y0149560D01*
X0257935Y0151159D02*
X0250815Y0151159D01*
X0249917Y0152757D02*
X0258833Y0152757D01*
X0259500Y0154356D02*
X0249250Y0154356D01*
X0249250Y0155954D02*
X0259938Y0155954D01*
X0261510Y0157553D02*
X0249250Y0157553D01*
X0249250Y0159151D02*
X0263108Y0159151D01*
X0265750Y0161793D02*
X0265750Y0167024D01*
X0263217Y0169557D01*
X0263217Y0167004D01*
X0258610Y0167004D01*
X0258610Y0166596D01*
X0263217Y0166596D01*
X0263217Y0163551D01*
X0263095Y0163093D01*
X0262858Y0162683D01*
X0262523Y0162348D01*
X0265750Y0162348D01*
X0265750Y0163947D02*
X0263217Y0163947D01*
X0263217Y0165545D02*
X0265750Y0165545D01*
X0265630Y0167144D02*
X0263217Y0167144D01*
X0263217Y0168742D02*
X0264032Y0168742D01*
X0260835Y0171939D02*
X0248329Y0171939D01*
X0248488Y0173538D02*
X0256512Y0173538D01*
X0254227Y0175136D02*
X0250773Y0175136D01*
X0251675Y0176735D02*
X0253325Y0176735D01*
X0252994Y0178333D02*
X0252006Y0178333D01*
X0251905Y0179932D02*
X0253095Y0179932D01*
X0253757Y0181530D02*
X0251243Y0181530D01*
X0250571Y0183129D02*
X0255270Y0183129D01*
X0252170Y0184727D02*
X0264080Y0184727D01*
X0265679Y0183129D02*
X0261541Y0183129D01*
X0263054Y0181530D02*
X0267277Y0181530D01*
X0268876Y0179932D02*
X0263716Y0179932D01*
X0263817Y0178333D02*
X0270474Y0178333D01*
X0272000Y0176735D02*
X0264524Y0176735D01*
X0266123Y0175136D02*
X0272000Y0175136D01*
X0272000Y0173538D02*
X0267721Y0173538D01*
X0269320Y0171939D02*
X0272000Y0171939D01*
X0272000Y0170341D02*
X0270918Y0170341D01*
X0271750Y0168742D02*
X0272000Y0168742D01*
X0272000Y0167144D02*
X0271750Y0167144D01*
X0271750Y0165545D02*
X0272000Y0165545D01*
X0272000Y0163947D02*
X0271750Y0163947D01*
X0271750Y0162348D02*
X0272000Y0162348D01*
X0272000Y0160750D02*
X0271750Y0160750D01*
X0272000Y0159151D02*
X0271418Y0159151D01*
X0272000Y0157553D02*
X0269995Y0157553D01*
X0268397Y0155954D02*
X0272000Y0155954D01*
X0272000Y0154356D02*
X0266798Y0154356D01*
X0266167Y0152757D02*
X0271333Y0152757D01*
X0270435Y0151159D02*
X0267065Y0151159D01*
X0267065Y0149560D02*
X0270435Y0149560D01*
X0270435Y0147962D02*
X0267065Y0147962D01*
X0267029Y0146363D02*
X0270471Y0146363D01*
X0270482Y0144765D02*
X0267018Y0144765D01*
X0267065Y0143166D02*
X0267149Y0143166D01*
X0270351Y0143166D02*
X0270435Y0143166D01*
X0258620Y0127181D02*
X0250130Y0127181D01*
X0246434Y0127181D02*
X0246066Y0127181D01*
X0246066Y0128779D02*
X0246434Y0128779D01*
X0212317Y0133575D02*
X0204450Y0133575D01*
X0204450Y0135173D02*
X0210990Y0135173D01*
X0209702Y0136772D02*
X0204450Y0136772D01*
X0204450Y0138370D02*
X0209100Y0138370D01*
X0209100Y0139969D02*
X0204450Y0139969D01*
X0204450Y0141568D02*
X0209594Y0141568D01*
X0210729Y0143166D02*
X0204450Y0143166D01*
X0204450Y0144765D02*
X0211399Y0144765D01*
X0209872Y0146363D02*
X0204450Y0146363D01*
X0204450Y0147962D02*
X0209209Y0147962D01*
X0209100Y0149560D02*
X0204450Y0149560D01*
X0204450Y0151159D02*
X0209425Y0151159D01*
X0210320Y0152757D02*
X0204450Y0152757D01*
X0204450Y0131976D02*
X0210511Y0131976D01*
X0209811Y0130378D02*
X0204450Y0130378D01*
X0204450Y0128779D02*
X0209723Y0128779D01*
X0210193Y0127181D02*
X0204450Y0127181D01*
X0204450Y0125582D02*
X0211451Y0125582D01*
X0211697Y0123984D02*
X0204450Y0123984D01*
X0204450Y0122385D02*
X0209949Y0122385D01*
X0209271Y0120787D02*
X0204450Y0120787D01*
X0204450Y0119188D02*
X0209100Y0119188D01*
X0209363Y0117590D02*
X0204450Y0117590D01*
X0205334Y0115991D02*
X0210172Y0115991D01*
X0251270Y0163947D02*
X0253594Y0163947D01*
X0253594Y0165545D02*
X0251932Y0165545D01*
X0252006Y0167144D02*
X0253594Y0167144D01*
X0253594Y0168742D02*
X0251648Y0168742D01*
X0250707Y0170341D02*
X0253672Y0170341D01*
X0258202Y0170341D02*
X0258609Y0170341D01*
X0258609Y0168742D02*
X0258202Y0168742D01*
X0258202Y0167144D02*
X0258609Y0167144D01*
X0258609Y0166596D02*
X0258609Y0161988D01*
X0261654Y0161988D01*
X0262112Y0162111D01*
X0262523Y0162348D01*
X0258609Y0162348D02*
X0258202Y0162348D01*
X0258202Y0161988D02*
X0258202Y0166596D01*
X0258609Y0166596D01*
X0258609Y0165545D02*
X0258202Y0165545D01*
X0258202Y0163947D02*
X0258609Y0163947D01*
X0258202Y0161988D02*
X0255157Y0161988D01*
X0254699Y0162111D01*
X0254288Y0162348D01*
X0244860Y0171939D02*
X0239569Y0171939D01*
X0241167Y0173538D02*
X0244701Y0173538D01*
X0267770Y0189523D02*
X0271400Y0189523D01*
X0272215Y0187924D02*
X0269368Y0187924D01*
X0270967Y0186326D02*
X0273029Y0186326D01*
X0272565Y0184727D02*
X0273808Y0184727D01*
X0274164Y0183129D02*
X0274328Y0183129D01*
X0268354Y0194318D02*
X0236961Y0194318D01*
X0239187Y0195917D02*
X0267193Y0195917D01*
X0266031Y0197515D02*
X0240055Y0197515D01*
X0240353Y0199114D02*
X0264443Y0199114D01*
X0262844Y0200712D02*
X0240209Y0200712D01*
X0239547Y0202311D02*
X0261246Y0202311D01*
X0259232Y0203909D02*
X0237859Y0203909D01*
X0238778Y0205508D02*
X0257031Y0205508D01*
X0254831Y0207106D02*
X0239885Y0207106D01*
X0240353Y0208705D02*
X0251733Y0208705D01*
X0248595Y0210303D02*
X0240353Y0210303D01*
X0239716Y0211902D02*
X0243946Y0211902D01*
X0230813Y0195917D02*
X0229187Y0195917D01*
X0226961Y0194318D02*
X0233039Y0194318D01*
X0223039Y0194318D02*
X0216961Y0194318D01*
X0219187Y0195917D02*
X0220813Y0195917D01*
X0213039Y0194318D02*
X0206961Y0194318D01*
X0209187Y0195917D02*
X0210813Y0195917D01*
X0203039Y0194318D02*
X0196961Y0194318D01*
X0199187Y0195917D02*
X0200813Y0195917D01*
X0193039Y0194318D02*
X0186961Y0194318D01*
X0189187Y0195917D02*
X0190813Y0195917D01*
X0183039Y0194318D02*
X0176961Y0194318D01*
X0179187Y0195917D02*
X0180813Y0195917D01*
X0173039Y0194318D02*
X0166961Y0194318D01*
X0169187Y0195917D02*
X0170813Y0195917D01*
X0163039Y0194318D02*
X0156961Y0194318D01*
X0159187Y0195917D02*
X0160813Y0195917D01*
X0153039Y0194318D02*
X0146961Y0194318D01*
X0149187Y0195917D02*
X0150813Y0195917D01*
X0143039Y0194318D02*
X0136961Y0194318D01*
X0139187Y0195917D02*
X0140813Y0195917D01*
X0133039Y0194318D02*
X0126961Y0194318D01*
X0129187Y0195917D02*
X0130813Y0195917D01*
X0039580Y0157553D02*
X0028000Y0157553D01*
X0028000Y0159151D02*
X0038550Y0159151D01*
X0037209Y0160750D02*
X0028000Y0160750D01*
X0028000Y0162348D02*
X0035611Y0162348D01*
X0032722Y0163947D02*
X0028000Y0163947D01*
X0028000Y0165545D02*
X0030337Y0165545D01*
X0029596Y0167144D02*
X0028000Y0167144D01*
X0028000Y0168742D02*
X0029566Y0168742D01*
X0030170Y0170341D02*
X0028000Y0170341D01*
X0029382Y0171939D02*
X0032205Y0171939D01*
X0030980Y0173538D02*
X0034020Y0173538D01*
X0012230Y0189523D02*
X0007650Y0189523D01*
X0007650Y0191121D02*
X0013829Y0191121D01*
X0015427Y0192720D02*
X0007650Y0192720D01*
X0007650Y0194318D02*
X0017026Y0194318D01*
X0017051Y0194343D02*
X0007650Y0184943D01*
X0007650Y0214150D01*
X0022722Y0214150D01*
X0021968Y0213838D01*
X0020462Y0212332D01*
X0019647Y0210365D01*
X0019647Y0210340D01*
X0019636Y0210413D01*
X0019405Y0211124D01*
X0019065Y0211791D01*
X0018625Y0212396D01*
X0018096Y0212925D01*
X0017491Y0213365D01*
X0016824Y0213705D01*
X0016113Y0213936D01*
X0015374Y0214053D01*
X0015184Y0214053D01*
X0015184Y0209484D01*
X0014816Y0209484D01*
X0014816Y0209116D01*
X0015184Y0209116D01*
X0015184Y0204547D01*
X0015374Y0204547D01*
X0016113Y0204664D01*
X0016824Y0204895D01*
X0017491Y0205235D01*
X0018096Y0205675D01*
X0018625Y0206204D01*
X0019065Y0206809D01*
X0019405Y0207476D01*
X0019636Y0208187D01*
X0019647Y0208260D01*
X0019647Y0208235D01*
X0020462Y0206268D01*
X0021968Y0204762D01*
X0023084Y0204300D01*
X0021968Y0203838D01*
X0020462Y0202332D01*
X0019753Y0200619D01*
X0019753Y0202490D01*
X0019630Y0202948D01*
X0019393Y0203358D01*
X0019058Y0203693D01*
X0018648Y0203930D01*
X0018190Y0204053D01*
X0015184Y0204053D01*
X0015184Y0199484D01*
X0014816Y0199484D01*
X0014816Y0199116D01*
X0015184Y0199116D01*
X0015184Y0194547D01*
X0017543Y0194547D01*
X0017051Y0194343D01*
X0014816Y0194547D02*
X0014816Y0199116D01*
X0010247Y0199116D01*
X0010247Y0196110D01*
X0010370Y0195652D01*
X0010607Y0195242D01*
X0010942Y0194907D01*
X0011352Y0194670D01*
X0011810Y0194547D01*
X0014816Y0194547D01*
X0014816Y0195917D02*
X0015184Y0195917D01*
X0015184Y0197515D02*
X0014816Y0197515D01*
X0014816Y0199114D02*
X0015184Y0199114D01*
X0014816Y0199484D02*
X0010247Y0199484D01*
X0010247Y0202490D01*
X0010370Y0202948D01*
X0010607Y0203358D01*
X0010942Y0203693D01*
X0011352Y0203930D01*
X0011810Y0204053D01*
X0014816Y0204053D01*
X0014816Y0199484D01*
X0014816Y0200712D02*
X0015184Y0200712D01*
X0015184Y0202311D02*
X0014816Y0202311D01*
X0014816Y0203909D02*
X0015184Y0203909D01*
X0014816Y0204547D02*
X0014816Y0209116D01*
X0010247Y0209116D01*
X0010247Y0208926D01*
X0010364Y0208187D01*
X0010595Y0207476D01*
X0010935Y0206809D01*
X0011375Y0206204D01*
X0011904Y0205675D01*
X0012509Y0205235D01*
X0013176Y0204895D01*
X0013887Y0204664D01*
X0014626Y0204547D01*
X0014816Y0204547D01*
X0014816Y0205508D02*
X0015184Y0205508D01*
X0015184Y0207106D02*
X0014816Y0207106D01*
X0014816Y0208705D02*
X0015184Y0208705D01*
X0014816Y0209484D02*
X0010247Y0209484D01*
X0010247Y0209674D01*
X0010364Y0210413D01*
X0010595Y0211124D01*
X0010935Y0211791D01*
X0011375Y0212396D01*
X0011904Y0212925D01*
X0012509Y0213365D01*
X0013176Y0213705D01*
X0013887Y0213936D01*
X0014626Y0214053D01*
X0014816Y0214053D01*
X0014816Y0209484D01*
X0014816Y0210303D02*
X0015184Y0210303D01*
X0015184Y0211902D02*
X0014816Y0211902D01*
X0014816Y0213501D02*
X0015184Y0213501D01*
X0017225Y0213501D02*
X0021631Y0213501D01*
X0020284Y0211902D02*
X0018984Y0211902D01*
X0019216Y0207106D02*
X0020115Y0207106D01*
X0021222Y0205508D02*
X0017867Y0205508D01*
X0018683Y0203909D02*
X0022141Y0203909D01*
X0020453Y0202311D02*
X0019753Y0202311D01*
X0019753Y0200712D02*
X0019791Y0200712D01*
X0012133Y0205508D02*
X0007650Y0205508D01*
X0007650Y0207106D02*
X0010784Y0207106D01*
X0010282Y0208705D02*
X0007650Y0208705D01*
X0007650Y0210303D02*
X0010347Y0210303D01*
X0011016Y0211902D02*
X0007650Y0211902D01*
X0007650Y0213501D02*
X0012775Y0213501D01*
X0011317Y0203909D02*
X0007650Y0203909D01*
X0007650Y0202311D02*
X0010247Y0202311D01*
X0010247Y0200712D02*
X0007650Y0200712D01*
X0007650Y0199114D02*
X0010247Y0199114D01*
X0010247Y0197515D02*
X0007650Y0197515D01*
X0007650Y0195917D02*
X0010299Y0195917D01*
X0010632Y0187924D02*
X0007650Y0187924D01*
X0007650Y0186326D02*
X0009033Y0186326D01*
D27*
X0091250Y0153050D02*
X0091250Y0139300D01*
X0092500Y0138050D01*
X0101250Y0138050D01*
X0101250Y0148050D02*
X0113750Y0148050D01*
X0112500Y0146800D01*
X0112500Y0123050D01*
X0121250Y0114300D01*
X0121250Y0055550D01*
X0122913Y0053887D01*
X0131250Y0053887D01*
X0110000Y0053887D01*
X0100000Y0041800D02*
X0100000Y0076800D01*
X0101250Y0078050D01*
X0090000Y0090550D02*
X0097500Y0098050D01*
X0101250Y0098050D01*
X0101250Y0108050D02*
X0096250Y0108050D01*
X0083061Y0094861D01*
X0083061Y0058956D01*
X0090000Y0051800D02*
X0090000Y0090550D01*
X0076250Y0100550D02*
X0093750Y0118050D01*
X0101250Y0118050D01*
X0101250Y0128050D02*
X0091250Y0128050D01*
X0070000Y0106800D01*
X0070000Y0074300D01*
X0063750Y0068050D01*
X0063750Y0055550D01*
X0071250Y0048050D01*
X0071250Y0047144D01*
X0083061Y0047144D02*
X0085344Y0047144D01*
X0090000Y0051800D01*
X0100000Y0041800D02*
X0102087Y0039713D01*
X0110000Y0039713D01*
X0131250Y0039713D01*
X0131663Y0039300D01*
X0175000Y0039300D01*
X0181250Y0045550D01*
X0181250Y0073050D01*
X0186250Y0078050D01*
X0192500Y0078050D01*
X0196250Y0081800D01*
X0196250Y0103050D01*
X0196250Y0139300D01*
X0196250Y0163050D01*
X0143750Y0163050D01*
X0127500Y0163050D01*
X0121250Y0156800D01*
X0095000Y0156800D01*
X0091250Y0153050D01*
X0113750Y0148050D02*
X0123750Y0148050D01*
X0132500Y0156800D01*
X0177500Y0156800D01*
X0186250Y0148050D01*
X0186250Y0138050D02*
X0195000Y0138050D01*
X0196250Y0139300D01*
X0186250Y0128050D02*
X0178750Y0128050D01*
X0148750Y0098050D01*
X0148750Y0051800D01*
X0153406Y0047144D01*
X0156250Y0047144D01*
X0168061Y0047144D02*
X0172844Y0047144D01*
X0175000Y0049300D01*
X0175000Y0091800D01*
X0181250Y0098050D01*
X0186250Y0098050D01*
X0186250Y0108050D02*
X0180000Y0108050D01*
X0168061Y0096111D01*
X0168061Y0058956D01*
X0156250Y0058956D02*
X0156250Y0095550D01*
X0178750Y0118050D01*
X0186250Y0118050D01*
X0076250Y0100550D02*
X0076250Y0070550D01*
X0071250Y0065550D01*
X0071250Y0058956D01*
X0035000Y0019300D02*
X0035000Y0009300D01*
D28*
X0068750Y0024300D03*
X0131250Y0025550D03*
X0207500Y0030550D03*
X0207500Y0036800D03*
X0207500Y0043050D03*
X0207500Y0049300D03*
X0233750Y0043050D03*
X0240000Y0043050D03*
X0246250Y0043050D03*
X0252500Y0043050D03*
X0237500Y0063050D03*
X0245000Y0080550D03*
X0241250Y0139300D03*
X0257500Y0139300D03*
X0268750Y0139300D03*
X0210000Y0024300D03*
X0065000Y0153050D03*
X0058750Y0153050D03*
X0042500Y0160550D03*
X0033750Y0168050D03*
D29*
X0040000Y0171800D02*
X0032500Y0179300D01*
X0025000Y0171800D01*
X0025000Y0143050D01*
X0021250Y0139300D01*
X0020000Y0139300D01*
X0027500Y0131800D01*
X0027500Y0093050D01*
X0027500Y0075550D01*
X0075000Y0028050D01*
X0087500Y0028050D01*
X0095000Y0020550D01*
X0095000Y0019300D01*
X0090000Y0021800D02*
X0086250Y0025550D01*
X0073376Y0025550D01*
X0025000Y0073926D01*
X0025000Y0076800D01*
X0020374Y0081426D01*
X0020000Y0081426D01*
X0017874Y0081426D01*
X0012500Y0086800D01*
X0012500Y0105550D01*
X0025000Y0118050D01*
X0025000Y0126426D01*
X0020000Y0131426D01*
X0015000Y0136426D01*
X0015000Y0166800D01*
X0024626Y0176426D01*
X0024626Y0179300D01*
X0025000Y0179300D01*
X0030000Y0184300D01*
X0053750Y0184300D01*
X0063750Y0174300D01*
X0070876Y0174300D01*
X0075876Y0179300D01*
X0076250Y0179300D01*
X0081250Y0184300D01*
X0106250Y0184300D01*
X0116250Y0174300D01*
X0124626Y0174300D01*
X0129626Y0179300D01*
X0121752Y0179300D02*
X0113002Y0188050D01*
X0072500Y0188050D01*
X0065000Y0195550D01*
X0065000Y0199300D01*
X0060000Y0204300D02*
X0060000Y0187302D01*
X0068002Y0179300D01*
X0077500Y0171800D02*
X0040000Y0171800D01*
X0050000Y0186800D02*
X0024252Y0186800D01*
X0016752Y0179300D01*
X0011250Y0180550D02*
X0011250Y0132302D01*
X0020000Y0123552D01*
X0038750Y0120550D02*
X0038750Y0131810D01*
X0038750Y0139290D02*
X0038750Y0140550D01*
X0046250Y0148050D01*
X0051250Y0148050D01*
X0051240Y0148040D01*
X0058750Y0153050D02*
X0058750Y0090550D01*
X0056250Y0088050D01*
X0051250Y0088050D01*
X0056250Y0078050D02*
X0061250Y0081800D01*
X0061250Y0149300D01*
X0065000Y0153050D01*
X0077500Y0171800D02*
X0083750Y0178050D01*
X0083750Y0179300D01*
X0091250Y0171800D01*
X0130000Y0171800D01*
X0137500Y0179300D01*
X0136250Y0148050D02*
X0132500Y0148050D01*
X0123750Y0139300D01*
X0123750Y0139290D01*
X0123750Y0131810D02*
X0123750Y0120550D01*
X0136250Y0108050D01*
X0210000Y0078050D02*
X0210000Y0053050D01*
X0213750Y0049300D01*
X0213750Y0040550D01*
X0223750Y0030550D01*
X0246654Y0030550D01*
X0246654Y0036800D02*
X0222500Y0036800D01*
X0216250Y0043050D01*
X0216250Y0051800D01*
X0212500Y0055550D01*
X0212500Y0073050D01*
X0215000Y0075550D01*
X0218474Y0075550D01*
X0219469Y0076544D01*
X0219469Y0082056D02*
X0216199Y0082056D01*
X0215943Y0081800D01*
X0213750Y0081800D01*
X0210000Y0078050D01*
X0228750Y0058050D02*
X0233750Y0063050D01*
X0237500Y0063050D01*
X0228750Y0058050D02*
X0228750Y0051849D01*
X0228504Y0054103D01*
X0234016Y0054103D02*
X0234016Y0043316D01*
X0233750Y0043050D01*
X0239528Y0043522D02*
X0240000Y0043050D01*
X0239528Y0043522D02*
X0239528Y0054103D01*
X0245039Y0054103D02*
X0245039Y0044261D01*
X0246250Y0043050D01*
X0252500Y0043050D02*
X0256063Y0046613D01*
X0256063Y0054103D01*
X0261575Y0054103D02*
X0267087Y0054103D01*
X0269075Y0052115D01*
X0269075Y0040422D01*
X0245000Y0080550D02*
X0245000Y0084300D01*
X0256250Y0095550D01*
X0256250Y0104310D01*
X0256063Y0104497D01*
X0245039Y0104497D02*
X0239528Y0104497D01*
X0234016Y0104497D01*
X0246250Y0129704D02*
X0252500Y0129704D01*
X0252500Y0154300D01*
X0258750Y0160550D01*
X0258750Y0166456D01*
X0258406Y0166800D01*
X0246594Y0166800D02*
X0246250Y0166456D01*
X0246250Y0148896D01*
X0246250Y0142204D02*
X0246250Y0136396D01*
X0245846Y0139300D02*
X0241250Y0139300D01*
X0245846Y0139300D02*
X0246250Y0142204D01*
X0257500Y0139300D02*
X0259596Y0139300D01*
X0262500Y0142204D01*
X0262500Y0136396D01*
X0268750Y0139300D02*
X0272096Y0139300D01*
X0275000Y0142204D01*
X0275000Y0136396D01*
X0275000Y0129704D02*
X0262500Y0129704D01*
X0252500Y0129704D01*
X0262500Y0148896D02*
X0262500Y0154300D01*
X0268750Y0160550D01*
X0268750Y0168267D01*
X0258406Y0178611D01*
X0247500Y0179517D02*
X0247500Y0184300D01*
X0251250Y0188050D01*
X0265000Y0188050D01*
X0275000Y0178050D01*
X0275000Y0148896D01*
X0246594Y0178611D02*
X0247500Y0179517D01*
X0207500Y0049300D02*
X0192500Y0034300D01*
X0158750Y0034300D01*
X0145000Y0020550D01*
X0145000Y0019300D01*
X0150000Y0021800D02*
X0150000Y0014300D01*
X0145000Y0009300D01*
X0155000Y0009300D02*
X0160000Y0014300D01*
X0160000Y0021800D01*
X0165000Y0026800D01*
X0203750Y0026800D01*
X0207500Y0030550D01*
X0207500Y0036800D02*
X0200000Y0029300D01*
X0162500Y0029300D01*
X0155000Y0021800D01*
X0155000Y0019300D01*
X0150000Y0021800D02*
X0160000Y0031800D01*
X0196250Y0031800D01*
X0207500Y0043050D01*
X0210000Y0024300D02*
X0172500Y0024300D01*
X0170000Y0021800D01*
X0170000Y0014300D01*
X0165000Y0009300D01*
X0131250Y0025550D02*
X0131250Y0039713D01*
X0095000Y0009300D02*
X0093750Y0009300D01*
X0090000Y0013050D01*
X0090000Y0021800D01*
X0068750Y0024300D02*
X0066250Y0026800D01*
X0065000Y0026800D01*
X0046250Y0045550D01*
X0020000Y0045550D01*
X0020000Y0073552D02*
X0017500Y0073552D01*
X0008750Y0082302D01*
X0008750Y0181800D01*
X0018750Y0191800D01*
X0043750Y0191800D01*
X0045000Y0193050D01*
X0045000Y0199300D01*
X0050000Y0203050D02*
X0050000Y0191800D01*
X0047500Y0189300D01*
X0020000Y0189300D01*
X0011250Y0180550D01*
X0045000Y0208050D02*
X0050000Y0203050D01*
X0055000Y0199300D02*
X0055000Y0191800D01*
X0050000Y0186800D01*
X0060000Y0204300D02*
X0055000Y0209300D01*
X0045000Y0209300D02*
X0045000Y0208050D01*
X0038750Y0120550D02*
X0051250Y0108050D01*
X0027500Y0093050D02*
X0023750Y0089300D01*
X0020000Y0089300D01*
X0051250Y0078050D02*
X0056250Y0078050D01*
D30*
X0217500Y0149300D02*
X0226250Y0149300D01*
X0232500Y0155550D01*
X0232500Y0171800D01*
X0239311Y0178611D01*
X0246594Y0178611D01*
M02*
